# This file uses meters as units for non-parametric coordinates.

v -82.367943 -0.000000 76.612581
v 82.367943 -0.000000 76.612581
v -82.367943 10.828388 76.612581
v 82.367943 10.828388 76.612581
v -82.367943 10.828388 3.008574
v 82.367943 10.828388 3.008574
v -82.367943 -0.000000 3.008574
v 82.367943 -0.000000 3.008574
v 0.000000 10.828388 3.008574
v 0.000000 -0.000000 3.008574
v 0.000000 -0.000000 76.612581
v 0.000000 10.828388 76.612581
vt 0.512595 0.763755
vt 0.610904 0.763755
vt 0.610904 0.788105
vt 0.512595 0.788105
vt 0.512595 0.788105
vt 0.610904 0.788105
vt 0.610904 0.763755
vt 0.512595 0.763755
vt 0.610905 0.866799
vt 0.512595 0.866799
vt 0.513181 0.760982
vt 0.617493 0.760982
vt 0.617493 0.866340
vt 0.513181 0.866340
vt 0.513181 0.760982
vt 0.617493 0.760982
vt 0.617493 0.866340
vt 0.513181 0.866340
vt 0.512595 0.788105
vt 0.512595 0.763755
vt 0.512595 0.866799
vt 0.512595 0.763755
vt 0.512595 0.788105
vn 0.000000 0.000000 1.000000
vn 0.000000 0.000000 1.000000
vn 0.000000 0.000000 1.000000
vn 0.000000 0.000000 1.000000
vn 0.000000 0.000000 -1.000000
vn 0.000000 0.000000 -1.000000
vn 0.000000 0.000000 -1.000000
vn 0.000000 0.000000 -1.000000
vn 0.000000 -1.000000 0.000000
vn 0.000000 -1.000000 0.000000
vn 0.000000 -1.000000 0.000000
vn 0.000000 -1.000000 0.000000
vn 1.000000 0.000000 0.000000
vn 1.000000 0.000000 0.000000
vn 1.000000 0.000000 0.000000
vn 1.000000 0.000000 0.000000
vn -1.000000 0.000000 0.000000
vn -1.000000 0.000000 0.000000
vn -1.000000 0.000000 0.000000
vn -1.000000 0.000000 0.000000
vn 0.000000 0.000000 -1.000000
vn 0.000000 0.000000 -1.000000
vn 0.000000 -1.000000 0.000000
vn 0.000000 -1.000000 0.000000
vn 0.000000 0.000000 1.000000
vn 0.000000 0.000000 1.000000
f 1/1/1 11/2/2 12/3/3 3/4/4
f 5/5/5 9/6/6 10/7/7 7/8/8
f 7/8/9 10/7/10 11/9/11 1/10/12
f 2/11/13 8/12/14 6/13/15 4/14/16
f 7/15/17 1/16/18 3/17/19 5/18/20
f 9/6/6 6/19/21 8/20/22 10/7/7
f 11/9/11 10/7/10 8/20/23 2/21/24
f 12/3/3 11/2/2 2/22/25 4/23/26
