# This file uses meters as units for non-parametric coordinates.

v -75.000015 -0.000000 90.201691
v 75.000015 -0.000000 90.201691
v -75.000015 7.748810 0.000008
v 75.000015 7.748810 0.000008
v -75.000015 -0.000000 0.000008
v 75.000015 -0.000000 0.000008
v 0.000000 7.748810 0.000008
v 0.000000 -0.000000 0.000008
v 0.000000 -0.000000 90.201691
v -75.000015 7.748810 88.264679
v -75.000015 5.811806 90.201691
v 0.000000 7.748810 88.264679
v 0.000000 5.811806 90.201691
v 75.000015 5.811806 90.201691
v 75.000015 7.748810 88.264679
v 75.000015 -0.000000 88.264679
v 0.000000 -0.000000 88.264679
v -75.000015 -0.000000 88.264679
v -69.239449 7.748817 88.264679
v -69.239449 5.811806 90.201691
v -69.239449 -0.000000 90.201691
v -69.239449 -0.000000 88.264679
v -69.239449 -0.000000 0.000008
v -69.239449 7.748817 0.000008
v 68.846153 7.748810 88.264679
v 68.846153 5.811806 90.201691
v 68.846153 -0.000000 90.201691
v 68.846153 -0.000000 88.264679
v 68.846153 -0.000000 0.000008
v 68.846153 7.748810 0.000008
v 68.846153 7.748810 80.071098
v 75.000015 7.748810 80.071098
v 75.000015 -0.000000 80.071098
v 68.846153 -0.000000 80.071098
v 0.000000 -0.000000 80.071098
v -69.239449 -0.000000 80.071098
v -75.000015 -0.000000 80.071098
v -75.000015 7.748810 80.071098
v -69.239449 7.748817 80.071098
v 0.000000 7.748810 80.071098
v 68.846153 7.748817 13.721128
v 75.000015 7.748810 13.721125
v 75.000015 0.000008 13.721128
v 68.846153 -0.000000 13.721125
v 0.000000 -0.000000 13.721125
v -69.239449 -0.000000 13.721125
v -75.000015 0.000008 13.721128
v -75.000015 7.748810 13.721125
v -69.239449 7.748825 13.721128
v 0.000000 7.748817 13.721128
vt 0.615020 0.119890
vt 0.615020 0.119890
vt 0.615020 0.069394
vt 0.615020 0.069394
vt 0.615249 0.087628
vt 0.615249 0.099326
vt 0.510593 0.087628
vt 0.512331 0.069394
vt 0.510593 0.099326
vt 0.512331 0.119890
vt 0.615249 0.099326
vt 0.615249 0.087628
vt 0.615249 0.099326
vt 0.615249 0.087628
vt 0.615249 0.087628
vt 0.615249 0.090552
vt 0.510593 0.087628
vt 0.512331 0.119890
vt 0.615020 0.119890
vt 0.615020 0.118806
vt 0.615249 0.099326
vt 0.510593 0.099326
vt 0.615020 0.118806
vt 0.512331 0.118806
vt 0.615020 0.069394
vt 0.615020 0.069394
vt 0.512331 0.069394
vt 0.510593 0.090552
vt 0.615249 0.090552
vt 0.615020 0.118706
vt 0.615249 0.099326
vt 0.512331 0.118663
vt 0.615249 0.099326
vt 0.615020 0.118618
vt 0.607211 0.087628
vt 0.607132 0.118806
vt 0.607211 0.090552
vt 0.607211 0.099326
vt 0.607132 0.119890
vt 0.607132 0.118622
vt 0.607132 0.069394
vt 0.607211 0.099326
vt 0.607211 0.087628
vt 0.607132 0.069394
vt 0.606593 0.118806
vt 0.606593 0.119890
vt 0.606661 0.090552
vt 0.606661 0.099326
vt 0.606593 0.119890
vt 0.606593 0.118702
vt 0.606593 0.069394
vt 0.606661 0.099326
vt 0.606661 0.087628
vt 0.606593 0.069394
vt 0.606593 0.114219
vt 0.615020 0.114219
vt 0.615249 0.087628
vt 0.615020 0.114128
vt 0.615249 0.099326
vt 0.606593 0.114125
vt 0.512331 0.114089
vt 0.607132 0.114052
vt 0.615249 0.099326
vt 0.615020 0.114049
vt 0.615249 0.087628
vt 0.615020 0.114219
vt 0.607132 0.114219
vt 0.512331 0.114219
vt 0.606593 0.077075
vt 0.615020 0.077075
vt 0.615249 0.087628
vt 0.615020 0.077059
vt 0.615249 0.099326
vt 0.606593 0.077059
vt 0.512331 0.077052
vt 0.607132 0.077047
vt 0.615249 0.099326
vt 0.615020 0.077046
vt 0.615249 0.087628
vt 0.615020 0.077075
vt 0.607132 0.077075
vt 0.512331 0.077075
vn 0.000000 0.000000 -1.000000
vn 0.000000 0.000000 -1.000000
vn 0.000000 0.000000 -1.000000
vn 0.000000 0.000000 -1.000000
vn 1.000000 0.000000 0.000000
vn 1.000000 -0.000001 0.000000
vn 1.000000 -0.000001 0.000000
vn 1.000000 0.000000 0.000000
vn -1.000000 0.000000 0.000000
vn -1.000000 -0.000001 0.000000
vn -1.000000 -0.000001 0.000000
vn -1.000000 0.000000 0.000000
vn 0.000000 0.000000 -1.000000
vn 0.000000 0.000000 -1.000000
vn 0.000000 0.000000 -1.000000
vn 0.000000 0.000000 -1.000000
vn 0.000000 0.707108 0.707106
vn 0.000000 0.707108 0.707106
vn 0.000000 0.707108 0.707106
vn 0.000000 0.707108 0.707106
vn 0.000000 0.707109 0.707105
vn 0.000000 0.707109 0.707105
vn 0.000000 0.707108 0.707106
vn 0.000000 0.707108 0.707106
vn 0.000000 0.000000 1.000000
vn 0.000000 0.000000 1.000000
vn 0.000000 0.000000 1.000000
vn 0.000000 0.000000 1.000000
vn 0.000000 0.000000 1.000000
vn 0.000000 0.000000 1.000000
vn 0.000000 0.000000 1.000000
vn 0.000000 0.000000 1.000000
vn 1.000000 0.000000 0.000000
vn 1.000000 0.000000 0.000000
vn 1.000000 0.000000 0.000000
vn 1.000000 0.000000 0.000000
vn 0.000000 -1.000000 0.000000
vn 0.000000 -1.000000 0.000000
vn 0.000000 -1.000000 0.000000
vn 0.000000 -1.000000 0.000000
vn 0.000000 -1.000000 0.000000
vn 0.000000 -1.000000 0.000000
vn 0.000000 -1.000000 0.000000
vn 0.000000 -1.000000 0.000000
vn -1.000000 0.000000 0.000000
vn -1.000000 0.000000 0.000000
vn -1.000000 0.000000 0.000000
vn -1.000000 0.000000 0.000000
vn 0.000000 1.000000 -0.000000
vn 0.000000 1.000000 0.000000
vn 0.000001 1.000000 0.000000
vn 0.000001 1.000000 -0.000001
vn 0.000000 1.000000 0.000000
vn 0.000000 1.000000 0.000000
vn -0.000000 1.000000 0.000000
vn -0.000001 1.000000 0.000000
vn 0.000000 -1.000000 0.000000
vn 0.000000 -1.000000 0.000000
vn 0.000001 -1.000000 0.000001
vn 0.000001 -1.000000 -0.000000
vn 0.000000 -1.000000 0.000000
vn -0.000000 -1.000000 0.000000
vn -0.000000 -1.000000 0.000000
vn 0.000000 -1.000000 0.000000
vn 0.000000 0.707107 0.707106
vn 0.000000 0.707107 0.707106
vn 0.000000 0.000000 1.000000
vn 0.000000 0.000000 1.000000
vn 0.000000 -1.000000 0.000000
vn 0.000000 -1.000000 0.000000
vn -0.000001 -1.000000 -0.000000
vn -0.000001 -1.000000 0.000001
vn 0.000000 0.000000 -1.000000
vn 0.000000 0.000000 -1.000000
vn -0.000002 1.000000 0.000000
vn -0.000002 1.000000 0.000000
vn 0.000000 1.000000 0.000000
vn 0.000000 1.000000 0.000000
vn 0.000000 1.000000 0.000000
vn 0.000000 1.000000 0.000000
vn 0.000000 1.000000 0.000000
vn 0.000001 1.000000 0.000000
vn 1.000000 -0.000001 0.000000
vn 1.000000 -0.000001 0.000000
vn 0.000000 -1.000000 -0.000000
vn 0.000001 -1.000000 -0.000000
vn 0.000000 -1.000000 0.000000
vn -0.000000 -1.000000 -0.000000
vn -0.000001 -1.000000 -0.000000
vn -1.000000 -0.000001 0.000000
vn -1.000000 -0.000001 0.000000
vn 0.000000 1.000000 0.000000
vn -0.000001 1.000000 0.000000
vn -0.000002 1.000000 0.000000
vn -0.000001 1.000000 0.000000
vn 0.000000 1.000000 0.000000
vn 0.000000 1.000000 0.000000
vn 0.000000 1.000000 0.000000
vn 0.000000 1.000000 0.000000
vn -1.000000 -0.000001 0.000000
vn -1.000000 -0.000001 0.000000
vn -1.000000 -0.000001 0.000000
vn -1.000000 -0.000001 0.000000
vn 0.000000 0.000000 -1.000000
vn 0.000000 0.000000 -1.000000
vn 0.000000 0.000000 -1.000000
vn 0.000000 0.000000 -1.000000
vn 0.000000 0.000000 -1.000000
vn 0.000000 0.000000 -1.000000
vn 1.000000 -0.000001 0.000000
vn 1.000000 -0.000001 0.000000
vn 1.000000 -0.000001 0.000000
vn 1.000000 -0.000001 0.000000
vn 0.000000 -0.000000 1.000000
vn 0.000000 -0.000000 1.000000
vn 0.000000 -0.000000 1.000000
vn 0.000000 -0.000000 1.000000
vn 0.000000 -0.000000 1.000000
vn 0.000000 -0.000000 1.000000
f 8/9/1 23/42/2 24/43/3 7/7/4
f 4/14/5 42/71/6 43/73/7 6/6/8
f 5/11/9 47/77/10 48/79/11 3/5/12
f 30/53/13 4/14/14 6/6/15 29/52/16
f 12/17/17 19/35/18 20/37/19 13/28/20
f 14/19/21 15/20/22 25/45/23 26/46/24
f 20/37/25 21/38/26 9/22/27 13/28/28
f 2/13/29 14/29/30 26/47/31 27/48/32
f 2/13/33 16/31/34 15/15/35 14/29/36
f 28/50/37 16/30/38 2/2/39 27/49/40
f 21/39/41 22/40/42 17/32/43 9/10/44
f 10/12/45 18/33/46 1/21/47 11/16/48
f 30/54/49 41/69/50 42/70/51 4/26/52
f 50/82/53 7/27/54 24/44/55 49/81/56
f 44/74/57 29/51/58 6/3/59 43/72/60
f 45/75/61 46/76/62 23/41/63 8/8/64
f 19/35/18 10/12/65 11/16/66 20/37/19
f 11/16/67 1/21/68 21/38/26 20/37/25
f 1/1/69 18/34/70 22/40/42 21/39/41
f 23/41/63 46/76/62 47/78/71 5/4/72
f 24/43/3 23/42/2 5/11/73 3/5/74
f 49/81/56 24/44/55 3/25/75 48/80/76
f 26/46/24 25/45/23 12/24/17 13/18/20
f 27/48/32 26/47/31 13/28/28 9/22/27
f 17/32/43 28/50/37 27/49/40 9/10/44
f 45/75/61 8/8/64 29/51/58 44/74/57
f 7/7/4 30/53/13 29/52/16 8/9/1
f 7/27/77 50/82/78 41/69/50 30/54/49
f 31/55/79 25/45/80 15/20/81 32/56/82
f 33/59/83 32/57/84 15/15/35 16/31/34
f 28/50/37 34/60/85 33/58/86 16/30/38
f 17/32/43 35/61/87 34/60/85 28/50/37
f 17/32/43 22/40/42 36/62/88 35/61/87
f 37/64/89 36/62/88 22/40/42 18/34/70
f 38/65/90 37/63/91 18/33/46 10/12/45
f 19/36/92 39/67/93 38/66/94 10/23/95
f 12/24/96 40/68/97 39/67/93 19/36/92
f 31/55/79 40/68/98 12/24/99 25/45/80
f 41/69/50 31/55/79 32/56/82 42/70/51
f 43/73/7 42/71/6 32/57/84 33/59/83
f 34/60/85 44/74/57 43/72/60 33/58/86
f 47/78/71 46/76/62 36/62/88 37/64/89
f 48/79/11 47/77/10 37/63/91 38/65/90
f 39/67/93 49/81/56 48/80/76 38/66/94
f 44/74/100 34/60/101 31/55/102 41/69/103
f 34/60/104 35/61/105 40/68/106 31/55/107
f 35/61/105 36/62/108 39/67/109 40/68/106
f 36/62/110 46/76/111 49/81/112 39/67/113
f 46/76/114 45/75/115 50/82/116 49/81/117
f 45/75/115 44/74/118 41/69/119 50/82/116
