# This file uses meters as units for non-parametric coordinates.

v 80.133921 1.947445 80.133915
v -0.000000 1.947445 80.133915
v 80.133921 6.036986 80.133915
v -0.000000 6.036986 80.133915
v 80.133921 6.036986 -0.000000
v -0.000000 6.036986 -0.000000
v 80.133921 1.947445 -0.000000
v -0.000000 1.947445 -0.000000
v -80.133921 1.947445 80.133915
v -80.133921 6.036986 80.133915
v -80.133921 6.036986 -0.000000
v -80.133921 1.947445 -0.000000
v 80.133928 1.637697 4.042904
v 80.133928 1.637697 76.091020
v -0.000000 1.637697 76.091020
v -0.000000 1.637697 4.042904
v -80.133928 1.637697 4.042904
v -80.133928 1.637697 76.091020
v 80.133928 -0.000006 4.042904
v 80.133928 -0.000006 76.091020
v -0.000000 -0.000006 76.091020
v -0.000000 -0.000006 4.042904
v -80.133928 -0.000006 4.042904
v -80.133928 -0.000006 76.091020
v -69.428844 6.036986 80.133915
v -69.428844 6.036986 -0.000000
v -69.428844 1.947445 -0.000000
v -69.428844 1.637697 4.042904
v -69.428844 -0.000006 4.042904
v -69.428844 -0.000006 76.091020
v -69.428844 1.637697 76.091020
v -69.428844 1.947445 80.133915
v 68.647753 6.036986 80.133915
v 68.647753 1.947445 80.133915
v 68.647753 1.637697 76.091020
v 68.647753 -0.000006 76.091020
v 68.647753 -0.000006 4.042904
v 68.647753 1.637697 4.042904
v 68.647753 1.947445 -0.000000
v 68.647753 6.036986 -0.000000
v -80.133921 6.036986 74.330272
v -80.133921 1.947445 74.330272
v -80.133928 1.637697 74.330278
v -80.133928 -0.000006 74.330278
v -69.428844 -0.000006 74.330278
v -0.000000 -0.000006 74.330278
v 68.647753 -0.000006 74.330278
v 80.133928 -0.000006 74.330278
v 80.133928 1.637697 74.330278
v 80.133921 1.947445 74.330272
v 80.133921 6.036986 74.330272
v 68.647753 6.036986 74.330272
v -0.000000 6.036986 74.330272
v -69.428844 6.036986 74.330272
v -80.133921 6.036986 6.843614
v -80.133921 1.947445 6.843614
v -80.133928 1.637697 6.843617
v -80.133928 -0.000006 6.843617
v -69.428844 -0.000006 6.843617
v -0.000000 -0.000006 6.843617
v 68.647753 -0.000006 6.843617
v 80.133928 -0.000006 6.843617
v 80.133928 1.637697 6.843617
v 80.133921 1.947445 6.843614
v 80.133921 6.036986 6.843614
v 68.647753 6.036986 6.843614
v -0.000000 6.036986 6.843614
v -69.428844 6.036986 6.843614
vt 0.495916 0.892929
vt 0.495916 0.901271
vt 0.475413 0.892929
vt 0.475413 0.901271
vt 0.495916 0.892929
vt 0.495916 0.901271
vt 0.475413 0.892929
vt 0.475413 0.901271
vt 0.495916 0.892929
vt 0.495916 0.901271
vt 0.495916 0.901271
vt 0.475413 0.901271
vt 0.495916 0.892929
vt 0.475413 0.901271
vt 0.495916 0.901271
vt 0.475413 0.892929
vt 0.495916 0.892929
vt 0.495916 0.892929
vt 0.475413 0.892929
vt 0.475413 0.892929
vt 0.495916 0.892929
vt 0.495916 0.901271
vt 0.475413 0.901271
vt 0.475413 0.892929
vt 0.495916 0.892929
vt 0.475413 0.892929
vt 0.495916 0.892929
vt 0.495916 0.901271
vt 0.475413 0.901271
vt 0.475413 0.892929
vt 0.495916 0.892929
vt 0.475413 0.894043
vt 0.495916 0.894043
vt 0.475413 0.894043
vt 0.475413 0.894043
vt 0.475413 0.894043
vt 0.495916 0.894043
vt 0.495916 0.894043
vt 0.495916 0.894043
vt 0.495916 0.894043
vt 0.475413 0.894124
vt 0.495916 0.894124
vt 0.495916 0.894124
vt 0.495916 0.894124
vt 0.495916 0.894124
vt 0.475413 0.894124
vt 0.475413 0.894124
vt 0.475413 0.894124
vt 0.495916 0.894124
vt 0.475413 0.893533
vt 0.476898 0.892929
vt 0.495916 0.893533
vt 0.494431 0.892929
vt 0.495415 0.892929
vt 0.495415 0.892929
vt 0.495415 0.894043
vt 0.495415 0.901271
vt 0.495415 0.894124
vt 0.495415 0.892929
vt 0.495415 0.892929
vt 0.494431 0.892929
vt 0.495916 0.893533
vt 0.476898 0.892929
vt 0.475413 0.893533
vt 0.476898 0.894124
vt 0.476898 0.901271
vt 0.476898 0.894043
vt 0.475413 0.900558
vt 0.494165 0.892929
vt 0.495916 0.900558
vt 0.477164 0.892929
vt 0.476210 0.892929
vt 0.476210 0.892929
vt 0.476210 0.894043
vt 0.476210 0.901271
vt 0.476210 0.894124
vt 0.476210 0.892929
vt 0.476210 0.892929
vt 0.477164 0.892929
vt 0.495916 0.900558
vt 0.494165 0.892929
vt 0.475413 0.900558
vt 0.494165 0.894124
vt 0.494165 0.901271
vt 0.494165 0.894043
vn 0.000000 0.000000 1.000000
vn 0.000000 0.000000 1.000000
vn 0.000000 0.000000 1.000000
vn 0.000000 0.000000 1.000000
vn 0.000000 1.000000 0.000000
vn 0.000000 1.000000 0.000000
vn 0.000000 1.000000 0.000000
vn 0.000000 1.000000 0.000000
vn 0.000000 0.000000 -1.000000
vn 0.000000 0.000000 -1.000000
vn 0.000000 0.000000 -1.000000
vn 0.000000 0.000000 -1.000000
vn 1.000000 0.000000 0.000000
vn 1.000000 0.000000 0.000000
vn 1.000000 0.000000 0.000000
vn 1.000000 0.000000 0.000000
vn 0.000000 0.000000 1.000000
vn 0.000000 0.000000 1.000000
vn 0.000000 0.000000 1.000000
vn 0.000000 0.000000 1.000000
vn 0.000000 1.000000 0.000000
vn 0.000000 1.000000 0.000000
vn 0.000000 1.000000 0.000000
vn 0.000000 1.000000 0.000000
vn 0.000000 0.000000 -1.000000
vn 0.000000 0.000000 -1.000000
vn 0.000000 0.000000 -1.000000
vn 0.000000 0.000000 -1.000000
vn -1.000000 0.000000 0.000000
vn -1.000000 0.000000 0.000000
vn -1.000000 0.000000 0.000000
vn -1.000000 0.000000 0.000000
vn 1.000000 0.000029 0.000000
vn 1.000000 0.000008 0.000000
vn 1.000000 0.000008 0.000000
vn 1.000000 0.000029 0.000000
vn 0.000000 -0.997078 0.076392
vn 0.000000 -0.997078 0.076392
vn 0.000000 -0.997078 0.076392
vn 0.000000 -0.997078 0.076392
vn 0.000000 -0.997078 -0.076392
vn 0.000000 -0.997078 -0.076391
vn 0.000000 -0.997078 -0.076391
vn 0.000000 -0.997078 -0.076392
vn 0.000000 -0.997078 -0.076391
vn 0.000000 -0.997078 -0.076392
vn 0.000000 -0.997078 -0.076392
vn 0.000000 -0.997078 -0.076391
vn 0.000000 -0.997078 0.076392
vn 0.000000 -0.997078 0.076392
vn 0.000000 -0.997078 0.076392
vn 0.000000 -0.997078 0.076392
vn -1.000000 0.000033 0.000000
vn -1.000000 0.000030 0.000000
vn -1.000000 0.000030 0.000000
vn -1.000000 0.000033 0.000000
vn 1.000000 0.000000 0.000000
vn 1.000000 0.000000 0.000000
vn 1.000000 0.000000 0.000000
vn 1.000000 0.000000 0.000000
vn 0.000000 0.000000 1.000000
vn 0.000000 0.000000 1.000000
vn 0.000000 0.000000 1.000000
vn 0.000000 0.000000 1.000000
vn 0.000000 0.000000 -1.000000
vn 0.000000 0.000000 -1.000000
vn 0.000000 0.000000 -1.000000
vn 0.000000 0.000000 -1.000000
vn 0.000000 0.000000 -1.000000
vn 0.000000 0.000000 -1.000000
vn 0.000000 0.000000 -1.000000
vn 0.000000 0.000000 -1.000000
vn 0.000000 0.000000 1.000000
vn 0.000000 0.000000 1.000000
vn 0.000000 0.000000 1.000000
vn 0.000000 0.000000 1.000000
vn -1.000000 0.000000 0.000000
vn -1.000000 0.000000 0.000000
vn -1.000000 0.000000 0.000000
vn -1.000000 0.000000 0.000000
vn 0.000000 -1.000000 0.000000
vn 0.000000 -1.000000 0.000000
vn 0.000000 -1.000000 0.000000
vn 0.000000 -1.000000 0.000000
vn 0.000000 -1.000000 0.000000
vn 0.000000 -1.000000 0.000000
vn 0.000000 -1.000000 0.000000
vn 0.000000 -1.000000 0.000000
vn 0.000000 1.000000 0.000000
vn 0.000000 1.000000 0.000000
vn 0.000000 0.000000 -1.000000
vn 0.000000 0.000000 -1.000000
vn 0.000000 -0.997078 -0.076392
vn 0.000000 -0.997078 -0.076392
vn 0.000000 0.000000 -1.000000
vn 0.000000 0.000000 -1.000000
vn 0.000000 -1.000000 0.000000
vn 0.000000 -1.000000 0.000000
vn 0.000000 0.000000 1.000000
vn 0.000000 0.000000 1.000000
vn 0.000000 -0.997078 0.076392
vn 0.000000 -0.997078 0.076392
vn 0.000000 0.000000 1.000000
vn 0.000000 0.000000 1.000000
vn 0.000000 0.000000 1.000000
vn 0.000000 0.000000 1.000000
vn 0.000000 -0.997078 0.076392
vn 0.000000 -0.997078 0.076392
vn 0.000000 0.000000 1.000000
vn 0.000000 0.000000 1.000000
vn 0.000000 0.000000 -1.000000
vn 0.000000 0.000000 -1.000000
vn 0.000000 -0.997078 -0.076392
vn 0.000000 -0.997078 -0.076392
vn 0.000000 0.000000 -1.000000
vn 0.000000 0.000000 -1.000000
vn 0.000000 1.000000 0.000000
vn 0.000000 1.000000 0.000000
vn -1.000000 0.000000 0.000000
vn -1.000000 0.000000 0.000000
vn -1.000000 0.000030 0.000000
vn -1.000000 0.000030 0.000000
vn -1.000000 0.000000 0.000000
vn -1.000000 0.000000 0.000000
vn 0.000000 -1.000000 0.000000
vn 0.000000 -1.000000 0.000000
vn 0.000000 -1.000000 0.000000
vn 0.000000 -1.000000 0.000000
vn 1.000000 0.000000 0.000000
vn 1.000000 0.000000 0.000000
vn 1.000000 0.000030 0.000000
vn 1.000000 0.000030 0.000000
vn 1.000000 0.000000 0.000000
vn 1.000000 0.000000 0.000000
vn 0.000000 1.000000 0.000000
vn 0.000000 1.000000 0.000000
vn 0.000000 1.000000 0.000000
vn 0.000000 1.000000 0.000000
vn -1.000000 0.000000 0.000000
vn -1.000000 0.000000 0.000000
vn -1.000000 0.000026 0.000000
vn -1.000000 0.000026 0.000000
vn -1.000000 0.000000 0.000000
vn -1.000000 0.000000 0.000000
vn 0.000000 -1.000000 0.000000
vn 0.000000 -1.000000 0.000000
vn 0.000000 -1.000000 0.000000
vn 0.000000 -1.000000 0.000000
vn 0.000000 -1.000000 0.000000
vn 0.000000 -1.000000 0.000000
vn 1.000000 0.000000 0.000000
vn 1.000000 0.000000 0.000000
vn 1.000000 0.000026 0.000000
vn 1.000000 0.000026 0.000000
vn 1.000000 0.000000 0.000000
vn 1.000000 0.000000 0.000000
vn 0.000000 1.000000 0.000000
vn 0.000000 1.000000 0.000000
vn 0.000000 1.000000 0.000000
vn 0.000000 1.000000 0.000000
vn 0.000000 1.000000 0.000000
vn 0.000000 1.000000 0.000000
vn 0.000000 1.000000 0.000000
vn 0.000000 1.000000 0.000000
vn 0.000000 -0.000001 -1.000000
vn 0.000000 -0.000001 -1.000000
vn 0.000000 -0.000001 -1.000000
vn 0.000000 -0.000001 -1.000000
vn 1.000000 -0.000000 0.000000
vn 1.000000 -0.000000 0.000000
vn 1.000000 -0.000000 0.000000
vn 1.000000 -0.000000 0.000000
vn 0.000000 0.000001 1.000000
vn 0.000000 0.000001 1.000000
vn 0.000000 0.000001 1.000000
vn 0.000000 0.000001 1.000000
vn 0.000000 0.000001 1.000000
vn 0.000000 0.000001 1.000000
vn -1.000000 -0.000001 0.000000
vn -1.000000 -0.000001 0.000000
vn -1.000000 -0.000001 0.000000
vn -1.000000 -0.000001 0.000000
vn 0.000000 -0.000001 -1.000000
vn 0.000000 -0.000001 -1.000000
f 1/1/1 3/3/2 33/41/3 34/43/4
f 3/3/5 51/63/6 52/65/7 33/41/8
f 5/5/9 7/7/10 39/48/11 40/49/12
f 50/62/13 51/64/14 3/3/15 1/1/16
f 9/13/17 32/39/18 25/32/19 10/16/20
f 10/16/21 25/32/22 54/67/23 41/51/24
f 11/18/25 26/33/26 27/34/27 12/19/28
f 42/52/29 9/13/30 10/16/31 41/50/32
f 50/61/33 1/9/34 14/21/35 49/60/36
f 1/9/37 34/42/38 35/44/39 14/21/40
f 39/48/41 7/7/42 13/20/43 38/47/44
f 12/19/45 27/34/46 28/35/47 17/24/48
f 32/40/49 9/17/50 18/25/51 31/38/52
f 9/17/53 42/53/54 43/54/55 18/25/56
f 49/60/57 14/21/58 20/27/59 48/59/60
f 14/21/61 35/44/62 36/45/63 20/27/64
f 38/47/65 13/20/66 19/26/67 37/46/68
f 17/24/69 28/35/70 29/36/71 23/30/72
f 31/38/73 18/25/74 24/31/75 30/37/76
f 18/25/77 43/54/78 44/55/79 24/31/80
f 20/27/81 36/45/82 47/58/83 48/59/84
f 45/56/85 30/37/86 24/31/87 44/55/88
f 25/32/22 4/4/89 53/66/90 54/67/23
f 27/34/27 26/33/26 6/6/91 8/8/92
f 28/35/47 27/34/46 8/8/93 16/23/94
f 29/36/71 28/35/70 16/23/95 22/29/96
f 46/57/97 21/28/98 30/37/86 45/56/85
f 15/22/99 31/38/73 30/37/76 21/28/100
f 2/10/101 32/40/49 31/38/52 15/22/102
f 25/32/19 32/39/18 2/2/103 4/4/104
f 34/43/4 33/41/3 4/4/105 2/2/106
f 35/44/39 34/42/38 2/10/107 15/22/108
f 36/45/63 35/44/62 15/22/109 21/28/110
f 47/58/83 36/45/82 21/28/98 46/57/97
f 16/23/111 38/47/65 37/46/68 22/29/112
f 8/8/113 39/48/41 38/47/44 16/23/114
f 40/49/12 39/48/11 8/8/115 6/6/116
f 33/41/8 52/65/7 53/66/117 4/4/118
f 42/52/29 41/50/32 55/68/119 56/70/120
f 43/54/55 42/53/54 56/71/121 57/72/122
f 44/55/79 43/54/78 57/72/123 58/73/124
f 45/56/85 44/55/88 58/73/125 59/74/126
f 48/59/84 47/58/83 61/76/127 62/77/128
f 49/60/57 48/59/60 62/77/129 63/78/130
f 50/61/33 49/60/36 63/78/131 64/79/132
f 65/82/133 51/64/14 50/62/13 64/80/134
f 52/65/7 51/63/6 65/81/135 66/83/136
f 55/69/137 41/51/24 54/67/23 68/85/138
f 12/15/139 56/70/120 55/68/119 11/14/140
f 57/72/122 56/71/121 12/19/141 17/24/142
f 58/73/124 57/72/123 17/24/143 23/30/144
f 29/36/145 59/74/126 58/73/125 23/30/146
f 22/29/147 60/75/148 59/74/126 29/36/145
f 37/46/149 61/76/127 60/75/148 22/29/147
f 62/77/128 61/76/127 37/46/149 19/26/150
f 13/20/151 63/78/130 62/77/129 19/26/152
f 7/7/153 64/79/132 63/78/131 13/20/154
f 7/11/155 5/12/156 65/82/133 64/80/134
f 66/83/136 65/81/135 5/5/157 40/49/158
f 67/84/159 66/83/136 40/49/158 6/6/160
f 68/85/138 67/84/161 6/6/162 26/33/163
f 55/69/137 68/85/138 26/33/163 11/18/164
f 46/57/165 45/56/166 54/67/167 53/66/168
f 45/56/169 59/74/170 68/85/171 54/67/172
f 59/74/173 60/75/174 67/84/175 68/85/176
f 60/75/174 61/76/177 66/83/178 67/84/175
f 61/76/179 47/58/180 52/65/181 66/83/182
f 47/58/183 46/57/165 53/66/168 52/65/184
