# This file uses meters as units for non-parametric coordinates.

v -41.890965 100.491348 47.614670
v 41.890965 100.491348 47.614670
v -41.890965 102.152985 47.614670
v 41.890965 102.152985 47.614670
v -41.890965 102.152985 11.766808
v 41.890965 102.152985 11.766808
v -41.890965 100.491348 11.766808
v 41.890965 100.491348 11.766808
v -41.890965 141.986206 47.614670
v 41.890965 141.986206 47.614670
v -41.890965 143.647858 47.614670
v 41.890965 143.647858 47.614670
v -41.890965 143.647858 11.766808
v 41.890965 143.647858 11.766808
v -41.890965 141.986206 11.766808
v 41.890965 141.986206 11.766808
v -41.890965 183.877655 47.614670
v 41.890965 183.877655 47.614670
v -41.890965 185.539307 47.614670
v 41.890965 185.539307 47.614670
v -41.890965 185.539307 11.766808
v 41.890965 185.539307 11.766808
v -41.890965 183.877655 11.766808
v 41.890965 183.877655 11.766808
v -42.112358 266.613098 67.468529
v 42.112358 266.613098 67.468529
v -42.112358 268.717224 67.468529
v 42.112358 268.717224 67.468529
v -42.112358 268.717224 11.797665
v 42.112358 268.717224 11.797665
v -42.112358 266.613098 11.797665
v 42.112358 266.613098 11.797665
v -42.112358 57.338631 67.468529
v 42.112358 57.338631 67.468529
v -42.112358 59.442734 67.468529
v 42.112358 59.442734 67.468529
v -42.112358 59.442734 11.797665
v 42.112358 59.442734 11.797665
v -42.112358 57.338631 11.797665
v 42.112358 57.338631 11.797665
vt 0.570072 0.912105
vt 0.586326 0.912105
vt 0.586326 0.928344
vt 0.570072 0.928344
vt 0.586312 0.912105
vt 0.570072 0.912105
vt 0.586312 0.928344
vt 0.570072 0.928344
vt 0.570072 0.912105
vt 0.570072 0.928344
vt 0.570072 0.928344
vt 0.586326 0.928344
vt 0.586326 0.912105
vt 0.586326 0.912105
vt 0.570072 0.912105
vt 0.586326 0.912105
vt 0.586326 0.928344
vt 0.570072 0.928344
vt 0.586312 0.912105
vt 0.570072 0.912105
vt 0.586312 0.928344
vt 0.570072 0.928344
vt 0.570072 0.912105
vt 0.570072 0.928344
vt 0.570072 0.912105
vt 0.586326 0.928344
vt 0.586326 0.912105
vt 0.586326 0.928344
vt 0.570072 0.912105
vt 0.586326 0.912105
vt 0.586326 0.928344
vt 0.570072 0.928344
vt 0.586312 0.912105
vt 0.570072 0.912105
vt 0.586312 0.928344
vt 0.570072 0.928344
vt 0.569869 0.911721
vt 0.587227 0.911721
vt 0.587227 0.929079
vt 0.569869 0.929079
vt 0.587227 0.911721
vt 0.569869 0.911721
vt 0.569869 0.929079
vt 0.587227 0.929079
vt 0.569869 0.911721
vt 0.587227 0.911721
vt 0.587227 0.929079
vt 0.569869 0.929079
vt 0.587227 0.911721
vt 0.569869 0.911721
vt 0.569869 0.929079
vt 0.587227 0.929079
vn 0.000000 1.000000 0.000000
vn 0.000000 1.000000 0.000000
vn 0.000000 1.000000 0.000000
vn 0.000000 1.000000 0.000000
vn 0.000000 0.000000 -1.000000
vn 0.000000 0.000000 -1.000000
vn 0.000000 0.000000 -1.000000
vn 0.000000 0.000000 -1.000000
vn 0.000000 -1.000000 0.000000
vn 0.000000 -1.000000 0.000000
vn 0.000000 -1.000000 0.000000
vn 0.000000 -1.000000 0.000000
vn 1.000000 0.000000 0.000000
vn 1.000000 0.000000 0.000000
vn 1.000000 0.000000 0.000000
vn 1.000000 0.000000 0.000000
vn -1.000000 0.000000 0.000000
vn -1.000000 0.000000 0.000000
vn -1.000000 0.000000 0.000000
vn -1.000000 0.000000 0.000000
vn 0.000000 1.000000 0.000000
vn 0.000000 1.000000 0.000000
vn 0.000000 1.000000 0.000000
vn 0.000000 1.000000 0.000000
vn 0.000000 0.000000 -1.000000
vn 0.000000 0.000000 -1.000000
vn 0.000000 0.000000 -1.000000
vn 0.000000 0.000000 -1.000000
vn 0.000000 -1.000000 0.000000
vn 0.000000 -1.000000 0.000000
vn 0.000000 -1.000000 0.000000
vn 0.000000 -1.000000 0.000000
vn 1.000000 0.000000 0.000000
vn 1.000000 0.000000 0.000000
vn 1.000000 0.000000 0.000000
vn 1.000000 0.000000 0.000000
vn -1.000000 0.000000 0.000000
vn -1.000000 0.000000 0.000000
vn -1.000000 0.000000 0.000000
vn -1.000000 0.000000 0.000000
vn 0.000000 1.000000 0.000000
vn 0.000000 1.000000 0.000000
vn 0.000000 1.000000 0.000000
vn 0.000000 1.000000 0.000000
vn 0.000000 0.000000 -1.000000
vn 0.000000 0.000000 -1.000000
vn 0.000000 0.000000 -1.000000
vn 0.000000 0.000000 -1.000000
vn 0.000000 -1.000000 0.000000
vn 0.000000 -1.000000 0.000000
vn 0.000000 -1.000000 0.000000
vn 0.000000 -1.000000 0.000000
vn 1.000000 0.000000 0.000000
vn 1.000000 0.000000 0.000000
vn 1.000000 0.000000 0.000000
vn 1.000000 0.000000 0.000000
vn -1.000000 0.000000 0.000000
vn -1.000000 0.000000 0.000000
vn -1.000000 0.000000 0.000000
vn -1.000000 0.000000 0.000000
vn 0.000000 0.000000 1.000000
vn 0.000000 0.000000 1.000000
vn 0.000000 0.000000 1.000000
vn 0.000000 0.000000 1.000000
vn 0.000000 1.000000 0.000000
vn 0.000000 1.000000 0.000000
vn 0.000000 1.000000 0.000000
vn 0.000000 1.000000 0.000000
vn 0.000000 -1.000000 0.000000
vn 0.000000 -1.000000 0.000000
vn 0.000000 -1.000000 0.000000
vn 0.000000 -1.000000 0.000000
vn 0.000000 0.000000 1.000000
vn 0.000000 0.000000 1.000000
vn 0.000000 0.000000 1.000000
vn 0.000000 0.000000 1.000000
vn 0.000000 1.000000 0.000000
vn 0.000000 1.000000 0.000000
vn 0.000000 1.000000 0.000000
vn 0.000000 1.000000 0.000000
vn 0.000000 -1.000000 0.000000
vn 0.000000 -1.000000 0.000000
vn 0.000000 -1.000000 0.000000
vn 0.000000 -1.000000 0.000000
f 3/1/1 4/2/2 6/3/3 5/4/4
f 8/5/5 7/6/6 5/4/7 6/3/8
f 7/6/9 8/5/10 2/7/11 1/8/12
f 4/2/13 2/9/14 8/10/15 6/3/16
f 7/12/17 1/13/18 3/1/19 5/4/20
f 11/15/21 12/16/22 14/17/23 13/18/24
f 16/19/25 15/20/26 13/18/27 14/17/28
f 15/20/29 16/19/30 10/21/31 9/22/32
f 12/16/33 10/23/34 16/24/35 14/17/36
f 15/26/37 9/27/38 11/15/39 13/18/40
f 19/29/41 20/30/42 22/31/43 21/32/44
f 24/33/45 23/34/46 21/32/47 22/31/48
f 23/34/49 24/33/50 18/35/51 17/36/52
f 20/30/53 18/25/54 24/11/55 22/31/56
f 23/28/57 17/14/58 19/29/59 21/32/60
f 25/37/61 26/38/62 28/39/63 27/40/64
f 27/40/65 28/39/66 30/41/67 29/42/68
f 31/43/69 32/44/70 26/38/71 25/37/72
f 33/45/73 34/46/74 36/47/75 35/48/76
f 35/48/77 36/47/78 38/49/79 37/50/80
f 39/51/81 40/52/82 34/46/83 33/45/84
