# This file uses meters as units for non-parametric coordinates.

v -46.204117 26.461197 4.416002
v 46.204117 26.461197 4.416002
v -52.141338 2.781387 68.337143
v -51.100773 3.821960 69.377716
v 52.141338 2.781387 68.337143
v 51.100773 3.821960 69.377716
v -46.204117 26.461197 68.728165
v -46.853668 25.811689 69.377716
v 46.204117 26.461197 68.728165
v 46.853668 25.811689 69.377716
v -50.433075 4.489655 -0.000004
v -52.141338 2.781387 1.708252
v 50.433075 4.489655 -0.000004
v 52.141338 2.781387 1.708252
v -52.141338 319.836273 68.337143
v -51.376293 320.601318 68.337143
v -50.163788 319.560760 69.377686
v -51.100773 318.623779 69.377686
v 51.376293 320.601318 68.337143
v 52.141338 319.836273 68.337143
v 51.100773 318.623779 69.377686
v 50.163788 319.560760 69.377686
v -45.439075 314.329254 68.728149
v -46.204117 313.564209 68.728149
v -46.853668 314.041840 69.377686
v -45.916687 314.978821 69.377686
v 46.204117 313.564209 68.728149
v 45.439075 314.329254 68.728149
v 45.916687 314.978821 69.377686
v 46.853668 314.041840 69.377686
v 45.439075 314.329254 4.415995
v 46.204117 313.564209 4.415995
v -46.204117 313.564209 4.415995
v -45.439075 314.329254 4.415995
v -50.433075 318.128021 -0.000019
v -49.668034 318.893066 -0.000019
v -51.376293 320.601318 1.708225
v -52.141338 319.836273 1.708225
v 50.433075 318.128021 -0.000019
v 49.668034 318.893066 -0.000019
v 52.141338 319.836273 1.708225
v 51.376293 320.601318 1.708225
v -46.853668 233.017517 69.377716
v 50.000000 233.017517 69.377716
v -46.853668 240.380127 69.377716
v 50.000000 240.380127 69.377716
v -46.853668 240.380127 68.728165
v 50.000000 240.380127 68.728165
v -46.853668 233.017517 68.728165
v 50.000000 233.017517 68.728165
vt 0.662623 0.102705
vt 0.662623 0.084014
vt 0.662425 0.084168
vt 0.662425 0.102550
vt 0.737067 0.102705
vt 0.737067 0.084014
vt 0.721864 0.102705
vt 0.721864 0.084014
vt 0.644637 0.083026
vt 0.661311 0.072275
vt 0.721710 0.102836
vt 0.721710 0.083882
vt 0.712823 0.072275
vt 0.742937 0.072275
vt 0.737235 0.071174
vt 0.706480 0.071174
vt 0.713124 0.072545
vt 0.743206 0.072545
vt 0.645539 0.102758
vt 0.662500 0.071174
vt 0.661124 0.072273
vt 0.662697 0.071173
vt 0.660714 0.072547
vt 0.660997 0.072545
vt 0.644392 0.083213
vt 0.645581 0.084072
vt 0.737066 0.071005
vt 0.662644 0.071007
vt 0.706293 0.071005
vt 0.662861 0.071005
vt 0.644393 0.103506
vt 0.645581 0.102647
vt 0.644123 0.103751
vt 0.644124 0.082967
vt 0.645749 0.084168
vt 0.645751 0.102534
vt 0.713124 0.089821
vt 0.743207 0.089821
vt 0.633958 0.089821
vt 0.743476 0.072275
vt 0.713616 0.090264
vt 0.743649 0.090264
vt 0.661440 0.116418
vt 0.661242 0.116219
vt 0.661242 0.090462
vt 0.661440 0.090264
vt 0.742764 0.090264
vt 0.742764 0.116418
vt 0.660997 0.116861
vt 0.660799 0.116662
vt 0.660799 0.090019
vt 0.660997 0.089821
vt 0.660706 0.072544
vt 0.743207 0.116861
vt 0.645748 0.102721
vt 0.716512 0.083023
vt 0.634156 0.089821
vt 0.660799 0.089821
vt 0.662404 0.071004
vt 0.662425 0.084014
vt 0.645546 0.102490
vt 0.662692 0.071215
vt 0.660447 0.072352
vt 0.661068 0.072031
vt 0.713424 0.072275
vt 0.662425 0.102705
vt 0.662623 0.115713
vt 0.737067 0.115713
vt 0.660706 0.089821
vt 0.633958 0.072545
vt 0.634156 0.072545
vt 0.660799 0.072545
vt 0.716512 0.103696
vt 0.644325 0.082813
vt 0.660799 0.072032
vt 0.662375 0.070930
vt 0.662257 0.070931
vt 0.662348 0.071209
vt 0.643934 0.070983
vt 0.731358 0.070983
vt 0.731358 0.114450
vt 0.643934 0.114450
vt 0.731358 0.070983
vt 0.643934 0.070983
vt 0.643934 0.114450
vt 0.731358 0.114450
vn 0.000000 0.000000 1.000000
vn 0.000000 0.000000 1.000000
vn 0.000000 0.000000 1.000000
vn 0.000000 0.000000 1.000000
vn 0.000000 -0.707107 0.707107
vn 0.000000 -0.707107 0.707107
vn 0.000000 -0.707107 0.707107
vn 0.000000 -0.707107 0.707107
vn 0.000000 0.707130 0.707084
vn 0.000000 0.707130 0.707084
vn 0.000000 0.707130 0.707084
vn 0.000000 0.707130 0.707084
vn 0.000000 1.000000 0.000000
vn 0.000000 1.000000 0.000000
vn 0.000000 1.000000 0.000000
vn 0.000000 1.000000 0.000000
vn -0.000000 0.000000 1.000000
vn 0.000000 0.000000 1.000000
vn 0.000001 0.000000 1.000000
vn -0.000001 0.000000 1.000000
vn 0.000000 -0.707105 -0.707109
vn 0.000000 -0.707104 -0.707109
vn 0.000000 -0.707104 -0.707109
vn 0.000000 -0.707105 -0.707109
vn 0.000000 -1.000000 0.000000
vn 0.000000 -1.000000 0.000000
vn 0.000000 -1.000000 0.000000
vn 0.000000 -1.000000 0.000000
vn 0.000000 -0.000000 -1.000000
vn 0.000000 -0.000000 -1.000000
vn 0.000000 -0.000000 -1.000000
vn 0.000000 -0.000000 -1.000000
vn 0.000000 -0.000000 -1.000000
vn 0.000000 -0.000000 -1.000000
vn -0.707107 0.707107 0.000000
vn -0.707107 0.707107 0.000000
vn -0.707107 0.707107 0.000000
vn -0.707107 0.707107 0.000000
vn -0.386668 0.386673 0.837241
vn -0.386668 0.386673 0.837241
vn -0.386668 0.386673 0.837241
vn -0.386668 0.386673 0.837241
vn 0.000000 0.000000 1.000000
vn -0.000001 0.000000 1.000000
vn -0.000001 0.000000 1.000000
vn 0.000000 0.000000 1.000000
vn 0.707107 0.707107 0.000000
vn 0.707107 0.707107 0.000000
vn 0.707107 0.707107 0.000000
vn 0.707107 0.707107 0.000000
vn 0.386667 0.386668 0.837243
vn 0.386667 0.386668 0.837243
vn 0.386667 0.386668 0.837243
vn 0.386667 0.386668 0.837243
vn 0.000001 0.000000 1.000000
vn 0.000000 0.000000 1.000000
vn 0.000000 0.000000 1.000000
vn 0.000001 0.000000 1.000000
vn 0.707109 -0.707105 0.000000
vn 0.707109 -0.707105 0.000000
vn 0.707109 -0.707105 0.000000
vn 0.707109 -0.707105 0.000000
vn 0.446702 -0.446706 0.775185
vn 0.446702 -0.446706 0.775185
vn 0.446702 -0.446706 0.775185
vn 0.446702 -0.446706 0.775185
vn -0.707109 -0.707105 0.000000
vn -0.707109 -0.707105 0.000000
vn -0.707109 -0.707105 0.000000
vn -0.707109 -0.707105 0.000000
vn -0.446704 -0.446706 0.775184
vn -0.446704 -0.446706 0.775184
vn -0.446704 -0.446706 0.775184
vn -0.446704 -0.446706 0.775184
vn -0.408248 0.408248 -0.816497
vn -0.706489 0.001229 -0.707723
vn -0.705698 0.002804 -0.708507
vn -0.408248 0.408248 -0.816497
vn 0.706489 0.001229 -0.707723
vn 0.408248 0.408248 -0.816497
vn 0.408248 0.408248 -0.816497
vn 0.705698 0.002804 -0.708507
vn -0.707105 0.000000 0.707109
vn -0.707105 0.000000 0.707109
vn -0.707105 0.000000 0.707109
vn -0.707105 0.000000 0.707109
vn 0.707105 0.000000 0.707109
vn 0.707105 0.000000 0.707109
vn 0.707105 0.000000 0.707109
vn 0.707105 0.000000 0.707109
vn 0.000000 0.707109 0.707105
vn 0.000000 0.707109 0.707105
vn 0.000000 0.707109 0.707105
vn 0.000000 0.707109 0.707105
vn 0.707102 0.000000 0.707112
vn 0.707102 0.000000 0.707112
vn 0.707102 0.000000 0.707112
vn 0.707102 0.000000 0.707112
vn -0.707102 0.000000 0.707112
vn -0.707102 0.000000 0.707112
vn -0.707102 0.000000 0.707112
vn -0.707102 0.000000 0.707112
vn 0.000000 -0.707101 0.707113
vn 0.000000 -0.707101 0.707113
vn 0.000000 -0.707101 0.707113
vn 0.000000 -0.707101 0.707113
vn -1.000000 0.000000 0.000000
vn -1.000000 0.000000 0.000000
vn -1.000000 0.000000 0.000000
vn -1.000000 0.000000 0.000000
vn 0.000000 -1.000000 0.000000
vn 0.000000 -1.000000 0.000000
vn 0.000000 -1.000000 0.000000
vn 0.000000 -1.000000 0.000000
vn 1.000000 0.000000 0.000000
vn 1.000000 0.000000 0.000000
vn 1.000000 0.000000 0.000000
vn 1.000000 0.000000 0.000000
vn 0.000000 0.707109 -0.707105
vn 0.000000 0.707109 -0.707105
vn 0.000000 0.707109 -0.707105
vn 0.000000 0.707109 -0.707105
vn -0.707104 -0.000000 -0.707110
vn -0.707104 -0.000000 -0.707110
vn 0.707104 -0.000000 -0.707110
vn 0.707104 -0.000000 -0.707110
vn 0.000000 1.000000 0.000000
vn 0.000000 1.000000 0.000000
vn 0.000000 1.000000 0.000000
vn 0.000000 1.000000 0.000000
vn 1.000000 0.000000 0.000000
vn 1.000000 0.000000 0.000000
vn 1.000000 0.000000 0.000000
vn 1.000000 0.000000 0.000000
vn -1.000000 -0.000000 0.000000
vn -1.000000 -0.000000 0.000000
vn -1.000000 -0.000000 0.000000
vn -1.000000 -0.000000 0.000000
vn 0.000000 0.000000 1.000000
vn 0.000000 0.000000 1.000000
vn 0.000000 0.000000 1.000000
vn 0.000000 0.000000 1.000000
vn 0.000000 0.000000 1.000000
vn 0.000000 0.000000 1.000000
vn 0.000000 1.000000 0.000000
vn 0.000000 1.000000 0.000000
vn 0.000000 1.000000 0.000000
vn 0.000000 1.000000 0.000000
vn 0.000000 -1.000000 0.000000
vn 0.000000 -1.000000 0.000000
vn 0.000000 -1.000000 0.000000
vn 0.000000 -1.000000 0.000000
f 33/1/1 32/2/2 31/3/3 34/4/4
f 4/65/5 3/17/6 5/18/7 6/40/8
f 7/7/9 8/11/10 10/12/11 9/8/12
f 7/7/13 9/8/14 2/6/15 1/5/16
f 4/73/17 6/56/18 10/12/19 8/11/20
f 12/37/21 11/41/22 13/42/23 14/38/24
f 12/37/25 14/38/26 5/18/27 3/17/28
f 35/43/29 36/44/30 40/45/31 39/46/32 13/47/33 11/48/34
f 15/70/35 16/71/36 37/57/37 38/39/38
f 16/63/39 15/23/40 18/21/41 17/75/42
f 17/75/43 18/21/44 25/22/45 26/76/46
f 19/72/47 20/24/48 41/52/49 42/58/50
f 20/74/51 19/34/52 22/25/53 21/9/54
f 21/10/55 22/64/56 29/77/57 30/20/58
f 23/36/59 24/55/60 33/66/61 34/4/62
f 24/55/63 23/36/64 26/61/65 25/19/66
f 27/28/67 28/59/68 31/60/69 32/2/70
f 28/59/71 27/28/72 30/62/73 29/78/74
f 36/44/75 35/43/76 38/49/77 37/50/78
f 39/46/79 40/45/80 42/51/81 41/52/82
f 3/17/83 4/13/84 18/21/85 15/53/86
f 6/14/87 5/18/88 20/24/89 21/10/90
f 16/33/91 17/31/92 22/25/93 19/34/94
f 8/16/95 7/29/96 24/30/97 25/22/98
f 9/27/99 10/15/100 30/20/101 27/28/102
f 28/35/103 29/26/104 26/32/105 23/36/106
f 9/27/107 27/28/108 32/2/109 2/6/110
f 28/35/111 23/36/112 34/4/113 31/3/114
f 24/67/115 7/68/116 1/5/117 33/1/118
f 6/14/18 21/10/55 30/20/58 10/15/19
f 22/25/56 17/31/43 26/32/46 29/26/57
f 18/21/44 4/13/17 8/16/20 25/22/45
f 36/44/119 37/50/120 42/51/121 40/45/122
f 38/49/77 35/43/76 11/48/123 12/54/124
f 39/46/79 41/52/82 14/38/125 13/47/126
f 16/71/127 19/72/128 42/58/129 37/57/130
f 5/18/131 14/38/132 41/52/133 20/24/134
f 12/37/135 3/17/136 15/53/137 38/69/138
f 1/5/139 2/6/140 32/2/2 33/1/1
f 43/79/141 44/80/142 46/81/143 45/82/144
f 45/82/145 46/81/146 48/83/147 47/84/148
f 49/85/149 50/86/150 44/80/151 43/79/152
