# This file uses meters as units for non-parametric coordinates.

v -46.204117 241.744171 4.416008
v 46.204117 241.744171 4.416008
v -46.204117 230.840088 4.416008
v 46.204117 230.840088 4.416008
v -46.204117 230.840088 67.903870
v -46.204117 231.664368 68.728165
v 46.204117 231.664368 68.728165
v 46.204117 230.840088 67.903870
v -46.204117 240.919876 68.728165
v -46.204117 241.744171 67.903870
v 46.204117 241.744171 67.903870
v 46.204117 240.919876 68.728165
v -43.184902 265.964020 11.797664
v 43.184902 265.964020 11.797664
v -43.184902 241.817764 30.502569
v 43.184902 241.817764 30.502569
v -43.184902 265.139709 30.502569
v -43.184902 265.964020 29.678276
v 43.184902 265.964020 29.678276
v 43.184902 265.139709 30.502569
v -43.676979 309.157135 11.797664
v 43.676979 309.157135 11.797664
v -46.204117 26.461197 67.998795
v 46.204117 26.461197 67.998795
v 41.887352 33.192368 11.797664
v -41.887352 33.192368 11.797664
v -46.204117 314.448608 67.998795
v 46.204117 314.448608 67.998795
v -42.447182 32.630367 67.998795
v -41.890965 33.192368 67.436806
v 41.897953 33.192368 67.436890
v 42.450027 32.630367 67.998795
v 42.116959 309.719147 67.998795
v 41.566238 309.157135 67.436890
v -42.957397 309.157135 67.436806
v -43.517960 309.719147 67.998795
v -42.376514 57.338631 11.797664
v 42.376514 57.338631 11.797664
v -42.376514 33.192368 30.502569
v 42.376514 33.192368 30.502569
v -42.376514 56.514336 30.502569
v -42.376514 57.338631 29.678276
v 42.376514 57.338631 29.678276
v 42.376514 56.514336 30.502569
vt 0.318535 0.916251
vt 0.336369 0.916251
vt 0.336369 0.930518
vt 0.318535 0.930518
vt 0.318535 0.932529
vt 0.336369 0.932529
vt 0.336369 0.914467
vt 0.318535 0.914467
vt 0.318535 0.914952
vt 0.336369 0.914952
vt 0.336369 0.932557
vt 0.318535 0.932557
vt 0.318535 0.914467
vt 0.336369 0.914467
vt 0.318535 0.916251
vt 0.336369 0.916251
vt 0.336369 0.930518
vt 0.318535 0.930518
vt 0.318535 0.932529
vt 0.336369 0.932529
vt 0.336369 0.914467
vt 0.318535 0.914467
vt 0.318535 0.914467
vt 0.336369 0.914467
vt 0.336295 0.932278
vt 0.318609 0.932278
vt 0.318535 0.914467
vt 0.318535 0.914467
vt 0.318610 0.932278
vt 0.318609 0.932255
vt 0.336369 0.914467
vt 0.336369 0.914467
vt 0.336298 0.932274
vt 0.336295 0.932278
vt 0.318535 0.914467
vt 0.336369 0.914467
vt 0.336298 0.932278
vt 0.318609 0.932278
vt 0.318535 0.916251
vt 0.336369 0.916251
vt 0.336369 0.930518
vt 0.318535 0.930518
vt 0.318535 0.932529
vt 0.336369 0.932529
vt 0.336369 0.914467
vt 0.318535 0.914467
vn 0.000000 0.000000 1.000000
vn 0.000000 0.000000 1.000000
vn 0.000000 0.000000 1.000000
vn 0.000000 0.000000 1.000000
vn 0.000000 1.000000 0.000000
vn 0.000000 1.000000 0.000000
vn 0.000000 1.000000 0.000000
vn 0.000000 1.000000 0.000000
vn 0.000000 -1.000000 0.000000
vn 0.000000 -1.000000 0.000000
vn 0.000000 -1.000000 0.000000
vn 0.000000 -1.000000 0.000000
vn 0.000000 -0.707115 0.707099
vn 0.000000 -0.707115 0.707099
vn 0.000000 -0.707115 0.707099
vn 0.000000 -0.707115 0.707099
vn 0.000000 0.707106 0.707108
vn 0.000000 0.707106 0.707108
vn 0.000000 0.707106 0.707108
vn 0.000000 0.707106 0.707108
vn 0.000000 0.000000 1.000000
vn 0.000000 0.000000 1.000000
vn 0.000000 0.000000 1.000000
vn 0.000000 0.000000 1.000000
vn 0.000000 1.000000 0.000000
vn 0.000000 1.000000 0.000000
vn 0.000000 1.000000 0.000000
vn 0.000000 1.000000 0.000000
vn 0.000000 0.707100 0.707113
vn 0.000000 0.707100 0.707113
vn 0.000000 0.707100 0.707113
vn 0.000000 0.707100 0.707113
vn 0.000000 0.000000 1.000000
vn 0.000000 0.000000 1.000000
vn 0.000000 0.000000 1.000000
vn 0.000000 0.000000 1.000000
vn 0.709371 0.002741 0.704830
vn 0.709371 0.002741 0.704830
vn 0.709371 0.002741 0.704830
vn 0.709371 0.002741 0.704830
vn -0.000000 0.707073 0.707141
vn -0.000000 0.707073 0.707141
vn -0.000000 0.707073 0.707141
vn -0.000000 0.707073 0.707141
vn -0.713747 -0.000858 0.700404
vn -0.713747 -0.000858 0.700404
vn -0.713747 -0.000858 0.700404
vn -0.713747 -0.000858 0.700404
vn -0.000000 -0.707074 0.707139
vn -0.000000 -0.707074 0.707139
vn -0.000000 -0.707074 0.707139
vn -0.000000 -0.707074 0.707139
vn 0.000000 1.000000 -0.000000
vn 0.000000 1.000000 -0.000000
vn 0.000000 1.000000 -0.000000
vn 0.000000 1.000000 -0.000000
vn -0.999818 0.002641 -0.018869
vn -0.999818 0.002641 -0.018869
vn -0.999818 0.002641 -0.018869
vn -0.999818 0.002641 -0.018869
vn 0.000000 -1.000000 0.000000
vn 0.000000 -1.000000 0.000000
vn 0.000000 -1.000000 0.000000
vn 0.000000 -1.000000 0.000000
vn 0.999966 0.005174 -0.006434
vn 0.999966 0.005174 -0.006434
vn 0.999966 0.005174 -0.006434
vn 0.999966 0.005174 -0.006434
vn 0.000001 0.000000 1.000000
vn -0.000001 0.000000 1.000000
vn -0.000001 0.000000 1.000000
vn 0.000001 0.000000 1.000000
vn -0.000001 0.000000 1.000000
vn -0.000001 0.000000 1.000000
vn 0.000001 0.000000 1.000000
vn 0.000002 0.000000 1.000000
vn 0.000000 0.000000 1.000000
vn 0.000000 0.000000 1.000000
vn 0.000000 0.000000 1.000000
vn 0.000000 0.000000 1.000000
vn 0.000000 1.000000 0.000000
vn 0.000000 1.000000 0.000000
vn 0.000000 1.000000 0.000000
vn 0.000000 1.000000 0.000000
vn 0.000000 0.707107 0.707107
vn 0.000000 0.707107 0.707107
vn 0.000000 0.707107 0.707107
vn 0.000000 0.707107 0.707107
f 6/1/1 7/2/2 12/3/3 9/4/4
f 10/5/5 11/6/6 2/7/7 1/8/8
f 3/9/9 4/10/10 8/11/11 5/12/12
f 6/1/13 5/13/14 8/14/15 7/2/16
f 10/5/17 9/4/18 12/3/19 11/6/20
f 15/15/21 16/16/22 20/17/23 17/18/24
f 18/19/25 19/20/26 14/21/27 13/22/28
f 18/19/29 17/18/30 20/17/31 19/20/32
f 26/23/33 25/24/34 22/25/35 21/26/36
f 29/27/37 30/28/38 35/29/39 36/30/40
f 30/28/41 29/27/42 32/31/43 31/32/44
f 31/32/45 32/31/46 33/33/47 34/34/48
f 34/34/49 33/33/50 36/30/51 35/29/52
f 25/24/53 26/23/54 30/28/55 31/32/56
f 22/25/57 25/24/58 31/32/59 34/34/60
f 21/26/61 22/25/62 34/34/63 35/29/64
f 30/28/65 26/23/66 21/26/67 35/29/68
f 23/35/69 24/36/70 32/31/71 29/27/72
f 24/36/70 28/37/73 33/33/74 32/31/71
f 28/37/73 27/38/75 36/30/76 33/33/74
f 27/38/75 23/35/69 29/27/72 36/30/76
f 39/39/77 40/40/78 44/41/79 41/42/80
f 42/43/81 43/44/82 38/45/83 37/46/84
f 42/43/85 41/42/86 44/41/87 43/44/88
