# This file uses meters as units for non-parametric coordinates.

v -38.556526 230.777786 78.178056
v -42.291878 227.042419 78.178056
v 42.291847 227.042419 78.178056
v 38.556488 230.777786 78.178056
v -42.291878 64.777878 78.178056
v -38.556526 61.042519 78.178056
v 38.556488 61.042519 78.178056
v 42.291847 64.777878 78.178056
v 35.041351 227.154572 78.178056
v 38.776711 223.419220 78.178056
v 38.776711 68.401085 78.178056
v 35.041351 64.665726 78.178056
v -35.041389 64.665726 78.178056
v -38.776741 68.401085 78.178056
v -38.776741 223.419220 78.178056
v -35.041389 227.154572 78.178056
v -50.000008 5.836334 69.903459
v 49.999977 5.836334 69.903459
v -50.000008 233.361511 69.903459
v 49.999977 233.361511 69.903459
v -50.000008 233.361511 67.321794
v 49.999977 233.361511 67.321794
v -50.000008 5.836334 67.321794
v 49.999977 5.836334 67.321794
v 49.999977 63.984894 69.903459
v 49.999977 63.984894 67.321794
v -50.000008 63.984894 67.321794
v -50.000008 63.984894 69.903459
v 49.999977 228.217102 69.903459
v 49.999977 228.217102 67.321794
v -50.000008 228.217102 67.321794
v -50.000008 228.217102 69.903459
v -39.390144 5.836334 69.903459
v -39.390144 5.836334 67.321794
v -39.390144 63.984894 67.321794
v -39.390144 228.217102 67.321794
v -39.390144 233.361511 67.321794
v -39.390144 233.361511 69.903459
v 39.390121 5.836334 69.903459
v 39.390121 5.836334 67.321794
v 39.390121 63.984894 67.321794
v 39.390121 228.217102 67.321794
v 39.390121 233.361511 67.321794
v 39.390121 233.361511 69.903459
v 39.390121 228.217102 77.552781
v -39.390144 228.217102 77.552781
v 39.390121 63.984894 77.552781
v -39.390144 63.984894 77.552781
v -42.291878 227.042419 58.904679
v -41.973091 226.910370 58.585877
v -38.424477 230.458984 58.585877
v -38.556526 230.777786 58.904679
v -39.095558 223.551270 58.585877
v -38.776741 223.419220 58.904679
v -35.041389 227.154572 58.904679
v -35.173439 227.473373 58.585877
v 38.556488 230.777786 58.904679
v 38.424438 230.458984 58.585877
v 41.973045 226.910370 58.585877
v 42.291847 227.042419 58.904679
v 35.173401 227.473373 58.585877
v 35.041351 227.154572 58.904679
v 38.776711 223.419220 58.904679
v 39.095512 223.551270 58.585877
v -38.556526 61.042519 58.904679
v -38.424477 61.361320 58.585877
v -41.973091 64.909927 58.585877
v -42.291878 64.777878 58.904679
v -35.173439 64.346924 58.585877
v -35.041389 64.665726 58.904679
v -38.776741 68.401085 58.904679
v -39.095558 68.269035 58.585877
v 42.291847 64.777878 58.904679
v 41.973045 64.909927 58.585877
v 38.424438 61.361320 58.585877
v 38.556488 61.042519 58.904679
v 39.095512 68.269035 58.585877
v 38.776711 68.401085 58.904679
v 35.041351 64.665726 58.904679
v 35.173401 64.346924 58.585877
vt 0.329992 0.931490
vt 0.330531 0.931490
vt 0.330531 0.931490
vt 0.329992 0.931490
vt 0.330531 0.931229
vt 0.329992 0.931229
vt 0.329992 0.919949
vt 0.330531 0.919949
vt 0.330531 0.919949
vt 0.329992 0.919949
vt 0.330531 0.931229
vt 0.325458 0.931229
vt 0.325458 0.931229
vt 0.325458 0.931490
vt 0.325458 0.931490
vt 0.330531 0.922899
vt 0.330531 0.922899
vt 0.329992 0.922899
vt 0.325458 0.919949
vt 0.325458 0.919949
vt 0.325458 0.922899
vt 0.325458 0.922899
vt 0.325997 0.919949
vt 0.325997 0.919949
vt 0.325997 0.922899
vt 0.325997 0.931229
vt 0.325997 0.931490
vt 0.325997 0.931490
vt 0.325997 0.931229
vt 0.329992 0.931229
vt 0.329992 0.922899
vt 0.325997 0.922899
vt 0.321642 0.931053
vt 0.321756 0.931015
vt 0.321756 0.920873
vt 0.321642 0.920836
vt 0.322979 0.932105
vt 0.323026 0.932015
vt 0.332854 0.932105
vt 0.332806 0.932015
vt 0.322786 0.930069
vt 0.322900 0.930032
vt 0.322900 0.921857
vt 0.322786 0.921820
vt 0.324189 0.931174
vt 0.324237 0.931084
vt 0.331643 0.931174
vt 0.331596 0.931084
vt 0.334190 0.931053
vt 0.334076 0.931015
vt 0.334190 0.920836
vt 0.334076 0.920873
vt 0.333046 0.930069
vt 0.332932 0.930032
vt 0.333046 0.921820
vt 0.332932 0.921857
vt 0.322979 0.919784
vt 0.323026 0.919873
vt 0.332806 0.919873
vt 0.332854 0.919784
vt 0.324189 0.920715
vt 0.324237 0.920804
vt 0.331596 0.920804
vt 0.331643 0.920715
vt 0.323739 0.929311
vt 0.324890 0.930283
vt 0.330942 0.930283
vt 0.332094 0.929311
vt 0.324890 0.921605
vt 0.323739 0.922578
vt 0.332094 0.922578
vt 0.330942 0.921605
vt 0.326061 0.929974
vt 0.324918 0.928973
vt 0.330914 0.928973
vt 0.329772 0.929974
vt 0.329772 0.921914
vt 0.330914 0.922915
vt 0.324918 0.922915
vt 0.326061 0.921914
vn 0.000000 1.000000 0.000000
vn 0.000000 1.000000 0.000000
vn 0.000000 1.000000 0.000000
vn 0.000000 1.000000 0.000000
vn 0.000000 0.000000 -1.000000
vn 0.000000 0.000000 -1.000000
vn 0.000000 0.000000 -1.000000
vn 0.000000 0.000000 -1.000000
vn 0.000000 -1.000000 0.000000
vn 0.000000 -1.000000 0.000000
vn 0.000000 -1.000000 0.000000
vn 0.000000 -1.000000 0.000000
vn 1.000000 0.000000 0.000000
vn 1.000000 0.000000 0.000000
vn 1.000000 0.000000 0.000000
vn 1.000000 0.000000 0.000000
vn -1.000000 0.000000 0.000000
vn -1.000000 0.000000 0.000000
vn -1.000000 0.000000 0.000000
vn -1.000000 0.000000 0.000000
vn 1.000000 0.000000 0.000000
vn 1.000000 0.000000 0.000000
vn 1.000000 0.000000 0.000000
vn 1.000000 0.000000 0.000000
vn 0.000000 0.000000 -1.000000
vn 0.000000 0.000000 -1.000000
vn 0.000000 0.000000 -1.000000
vn 0.000000 0.000000 -1.000000
vn -1.000000 0.000000 0.000000
vn -1.000000 0.000000 0.000000
vn -1.000000 0.000000 0.000000
vn -1.000000 0.000000 0.000000
vn 0.000000 -1.000000 0.000000
vn 0.000000 -1.000000 0.000000
vn 0.000000 -1.000000 0.000000
vn 0.000000 -1.000000 0.000000
vn 0.000000 0.000000 -1.000000
vn 0.000000 0.000000 -1.000000
vn 0.000000 0.000000 -1.000000
vn 0.000000 0.000000 -1.000000
vn 0.000000 0.000000 -1.000000
vn 0.000000 0.000000 -1.000000
vn 0.000000 0.000000 -1.000000
vn 0.000000 0.000000 -1.000000
vn 0.000000 1.000000 0.000000
vn 0.000000 1.000000 0.000000
vn 0.000000 1.000000 0.000000
vn 0.000000 1.000000 0.000000
vn 0.000000 0.000000 -1.000000
vn 0.000000 0.000000 -1.000000
vn 0.000000 0.000000 -1.000000
vn 0.000000 0.000000 -1.000000
vn 0.000000 -1.000000 0.000000
vn 0.000000 -1.000000 0.000000
vn 0.000000 -1.000000 0.000000
vn 0.000000 -1.000000 0.000000
vn -1.000000 0.000000 0.000000
vn -1.000000 0.000000 0.000000
vn -1.000000 0.000000 0.000000
vn -1.000000 0.000000 0.000000
vn 0.000000 1.000000 0.000000
vn 0.000000 1.000000 0.000000
vn 0.000000 1.000000 0.000000
vn 0.000000 1.000000 0.000000
vn 1.000000 0.000000 0.000000
vn 1.000000 0.000000 0.000000
vn 1.000000 0.000000 0.000000
vn 1.000000 0.000000 0.000000
vn -0.707119 0.000000 -0.707094
vn -0.707119 0.000000 -0.707094
vn -0.707119 0.000000 -0.707094
vn -0.707119 0.000000 -0.707094
vn -0.500006 0.500005 -0.707099
vn -0.500006 0.500005 -0.707099
vn -0.500006 0.500005 -0.707099
vn -0.500006 0.500005 -0.707099
vn 0.000000 0.707116 -0.707097
vn 0.000000 0.707116 -0.707097
vn 0.000000 0.707116 -0.707097
vn 0.000000 0.707116 -0.707097
vn 0.707081 0.000000 -0.707133
vn 0.707081 0.000000 -0.707133
vn 0.707081 0.000000 -0.707133
vn 0.707081 0.000000 -0.707133
vn 0.499993 -0.499992 -0.707118
vn 0.499993 -0.499992 -0.707118
vn 0.499993 -0.499992 -0.707118
vn 0.499993 -0.499992 -0.707118
vn 0.000000 -0.707104 -0.707109
vn 0.000000 -0.707104 -0.707109
vn 0.000000 -0.707104 -0.707109
vn 0.000000 -0.707104 -0.707109
vn 0.500015 0.500014 -0.707086
vn 0.500015 0.500014 -0.707086
vn 0.500015 0.500014 -0.707086
vn 0.500015 0.500014 -0.707086
vn 0.707102 0.000000 -0.707111
vn 0.707102 0.000000 -0.707111
vn 0.707102 0.000000 -0.707111
vn 0.707102 0.000000 -0.707111
vn -0.499993 -0.499991 -0.707118
vn -0.499993 -0.499991 -0.707118
vn -0.499993 -0.499991 -0.707118
vn -0.499993 -0.499991 -0.707118
vn -0.707098 0.000000 -0.707116
vn -0.707098 0.000000 -0.707116
vn -0.707098 0.000000 -0.707116
vn -0.707098 0.000000 -0.707116
vn 0.000000 -0.707109 -0.707104
vn 0.000000 -0.707109 -0.707104
vn 0.000000 -0.707109 -0.707104
vn 0.000000 -0.707109 -0.707104
vn -0.500006 -0.500005 -0.707099
vn -0.500005 -0.500005 -0.707099
vn -0.500006 -0.500005 -0.707099
vn -0.500006 -0.500005 -0.707099
vn 0.000000 0.707104 -0.707109
vn 0.000000 0.707104 -0.707109
vn 0.000000 0.707104 -0.707109
vn 0.000000 0.707104 -0.707109
vn 0.500002 0.500000 -0.707105
vn 0.500002 0.500000 -0.707105
vn 0.500002 0.500000 -0.707105
vn 0.500002 0.500000 -0.707105
vn 0.500001 -0.500001 -0.707106
vn 0.500001 -0.500000 -0.707106
vn 0.500001 -0.500000 -0.707106
vn 0.500001 -0.500001 -0.707106
vn -0.500006 0.500005 -0.707099
vn -0.500006 0.500005 -0.707099
vn -0.500006 0.500005 -0.707099
vn -0.500006 0.500005 -0.707099
vn -0.707108 0.707105 0.000000
vn -0.707108 0.707105 0.000000
vn -0.707108 0.707105 0.000000
vn -0.707108 0.707105 0.000000
vn -0.000001 0.000000 -1.000000
vn 0.000000 0.000000 -1.000000
vn 0.000000 0.000000 -1.000000
vn -0.000001 0.000000 -1.000000
vn 0.707108 0.707106 0.000000
vn 0.707108 0.707106 0.000000
vn 0.707108 0.707106 0.000000
vn 0.707108 0.707106 0.000000
vn 0.000000 0.000000 -1.000000
vn -0.000001 0.000000 -1.000000
vn -0.000001 0.000000 -1.000000
vn 0.000000 0.000000 -1.000000
vn -0.707107 -0.707106 0.000000
vn -0.707107 -0.707106 0.000000
vn -0.707107 -0.707106 0.000000
vn -0.707107 -0.707106 0.000000
vn -0.000000 0.000000 -1.000000
vn -0.000001 0.000000 -1.000000
vn -0.000001 0.000000 -1.000000
vn -0.000000 0.000000 -1.000000
vn 0.707107 -0.707107 0.000000
vn 0.707107 -0.707107 0.000000
vn 0.707107 -0.707107 0.000000
vn 0.707107 -0.707107 0.000000
vn -0.000001 0.000000 -1.000000
vn 0.000000 0.000000 -1.000000
vn 0.000000 0.000000 -1.000000
vn -0.000001 0.000000 -1.000000
vn 0.707107 -0.707107 0.000000
vn 0.707107 -0.707107 0.000000
vn 0.707107 -0.707107 0.000000
vn 0.707107 -0.707107 0.000000
vn -0.707106 -0.707107 0.000000
vn -0.707106 -0.707107 0.000000
vn -0.707106 -0.707107 0.000000
vn -0.707106 -0.707107 0.000000
vn -0.707107 0.707107 0.000000
vn -0.707107 0.707107 0.000000
vn -0.707107 0.707107 0.000000
vn -0.707107 0.707107 0.000000
vn 0.707108 0.707106 0.000000
vn 0.707108 0.707106 0.000000
vn 0.707108 0.707106 0.000000
vn 0.707108 0.707106 0.000000
vn 0.000000 1.000000 0.000000
vn 0.000000 1.000000 0.000000
vn 0.000000 1.000000 0.000000
vn 0.000000 1.000000 0.000000
vn 0.000000 -1.000000 0.000000
vn 0.000000 -1.000000 0.000000
vn 0.000000 -1.000000 0.000000
vn 0.000000 -1.000000 0.000000
vn 1.000000 0.000000 0.000000
vn 1.000000 0.000000 0.000000
vn 1.000000 0.000000 0.000000
vn 1.000000 0.000000 0.000000
vn -1.000000 0.000000 0.000000
vn -1.000000 0.000000 0.000000
vn -1.000000 0.000000 0.000000
vn -1.000000 0.000000 0.000000
vn -1.000000 0.000000 0.000000
vn -1.000000 0.000000 0.000000
vn -1.000000 0.000000 0.000000
vn -1.000000 0.000000 0.000000
vn 0.000000 1.000000 0.000000
vn 0.000000 1.000000 0.000000
vn 0.000000 1.000000 0.000000
vn 0.000000 1.000000 0.000000
vn 1.000000 0.000000 0.000000
vn 1.000000 0.000000 0.000000
vn 1.000000 0.000000 0.000000
vn 1.000000 0.000000 0.000000
vn 0.000000 -1.000000 0.000000
vn 0.000000 -1.000000 0.000000
vn 0.000000 -1.000000 0.000000
vn 0.000000 -1.000000 0.000000
f 44/1/1 20/2/2 22/3/3 43/4/4
f 43/4/5 22/3/6 30/5/7 42/6/8
f 40/7/9 24/8/10 18/9/11 39/10/12
f 29/11/13 30/5/14 22/3/15 20/2/16
f 31/12/17 32/13/18 19/14/19 21/15/20
f 18/9/21 24/8/22 26/16/23 25/17/24
f 41/18/25 26/16/26 24/8/27 40/7/28
f 23/19/29 17/20/30 28/21/31 27/22/32
f 26/16/23 30/5/14 29/11/13 25/17/24
f 41/18/25 42/6/8 30/5/7 26/16/26
f 28/21/31 32/13/18 31/12/17 27/22/32
f 23/19/33 34/23/34 33/24/35 17/20/36
f 27/22/37 35/25/38 34/23/39 23/19/40
f 27/22/37 31/12/41 36/26/42 35/25/38
f 21/15/43 37/27/44 36/26/42 31/12/41
f 19/14/45 38/28/46 37/27/47 21/15/48
f 40/7/9 39/10/12 33/24/35 34/23/34
f 35/25/38 41/18/25 40/7/28 34/23/39
f 46/29/49 45/30/50 47/31/51 48/32/52
f 43/4/5 42/6/8 36/26/42 37/27/44
f 38/28/46 44/1/1 43/4/4 37/27/47
f 36/26/53 42/6/54 45/30/55 46/29/56
f 42/6/57 41/18/58 47/31/59 45/30/60
f 41/18/61 35/25/62 48/32/63 47/31/64
f 35/25/65 36/26/66 46/29/67 48/32/68
f 49/33/69 50/34/70 67/35/71 68/36/72
f 50/34/73 49/33/74 52/37/75 51/38/76
f 51/38/77 52/37/78 57/39/79 58/40/80
f 53/41/81 54/42/82 71/43/83 72/44/84
f 54/42/85 53/41/86 56/45/87 55/46/88
f 55/46/89 56/45/90 61/47/91 62/48/92
f 58/40/93 57/39/94 60/49/95 59/50/96
f 59/50/97 60/49/98 73/51/99 74/52/100
f 62/48/101 61/47/102 64/53/103 63/54/104
f 63/54/105 64/53/106 77/55/107 78/56/108
f 65/57/109 66/58/110 75/59/111 76/60/112
f 66/58/113 65/57/114 68/36/115 67/35/116
f 69/61/117 70/62/118 79/63/119 80/64/120
f 70/62/121 69/61/122 72/44/123 71/43/124
f 74/52/125 73/51/126 76/60/127 75/59/128
f 78/56/129 77/55/130 80/64/131 79/63/132
f 2/65/133 1/66/134 52/37/135 49/33/136
f 50/34/137 51/38/138 56/45/139 53/41/140
f 4/67/141 3/68/142 60/49/143 57/39/144
f 58/40/145 59/50/146 64/53/147 61/47/148
f 6/69/149 5/70/150 68/36/151 65/57/152
f 66/58/153 67/35/154 72/44/155 69/61/156
f 8/71/157 7/72/158 76/60/159 73/51/160
f 74/52/161 75/59/162 80/64/163 77/55/164
f 54/42/165 55/46/166 16/73/167 15/74/168
f 62/48/169 63/54/170 10/75/171 9/76/172
f 78/56/173 79/63/174 12/77/175 11/78/176
f 70/62/177 71/43/178 14/79/179 13/80/180
f 52/37/181 1/66/182 4/67/183 57/39/184
f 65/57/185 76/60/186 7/72/187 6/69/188
f 8/71/189 73/51/190 60/49/191 3/68/192
f 68/36/193 5/70/194 2/65/195 49/33/196
f 51/38/138 58/40/145 61/47/148 56/45/139
f 59/50/146 74/52/161 77/55/164 64/53/147
f 75/59/162 66/58/153 69/61/156 80/64/163
f 67/35/154 50/34/137 53/41/140 72/44/155
f 63/54/197 78/56/198 11/78/199 10/75/200
f 79/63/201 70/62/202 13/80/203 12/77/204
f 71/43/205 54/42/206 15/74/207 14/79/208
f 55/46/209 62/48/210 9/76/211 16/73/212
