# This file uses meters as units for non-parametric coordinates.

v -51.100777 236.183670 69.903001
v -40.989418 236.183762 69.903474
v -25.290260 3.821884 69.903474
v -51.100777 3.821800 69.903001
v 39.758904 236.183929 69.903474
v 52.141312 236.184006 69.903474
v 52.141312 3.822132 69.903474
v 26.330780 3.822048 69.903474
v 52.141312 61.912601 69.903474
v 39.758904 61.912518 69.903474
v -40.989418 61.912354 69.903474
v -51.100777 61.912270 69.903001
v 52.141312 230.369064 69.903474
v 39.758904 230.369003 69.903474
v -40.989418 230.368835 69.903474
v -51.100777 230.368729 69.903001
v -51.100777 236.183670 69.903001
v 52.141312 236.184006 69.903474
v -51.100777 3.821800 69.903001
v 52.141312 3.822132 69.903474
v 26.330780 236.183929 69.903474
v 26.330780 3.822048 69.903474
v -25.290260 236.183762 69.903474
v -25.290260 3.821884 69.903474
v -50.423531 4.532345 77.224031
v -51.100777 3.821800 76.298585
v -25.290260 4.532425 85.198808
v -25.180244 3.821884 84.488267
v -50.423531 235.473129 77.224031
v -51.100777 236.183670 76.298585
v -25.290260 235.473221 85.198808
v -25.180244 236.183762 84.488267
v 52.141312 3.822132 76.299043
v 51.464043 4.532669 77.224473
v 51.464043 235.473465 77.224473
v 52.141312 236.184006 76.299043
v 26.220757 3.822048 84.488481
v 26.330780 4.532589 85.199021
v 26.330780 235.473389 85.199021
v 26.220757 236.183929 84.488481
v -8.083229 236.183807 69.903474
v -8.046577 236.183807 86.204545
v -8.083229 235.473267 86.915086
v -8.083229 4.532480 86.915086
v -8.046577 3.821939 86.204545
v -8.083229 3.821939 69.903474
v 9.123764 236.183868 69.903474
v 9.087090 236.183868 86.204621
v 9.123764 235.473328 86.915162
v 9.123764 4.532535 86.915162
v 9.087090 3.821993 86.204621
v 9.123764 3.821993 69.903474
v 52.141312 120.003067 69.903474
v 52.141312 120.003067 76.299043
v 51.464043 120.003059 77.224473
v 26.330780 120.002983 85.199021
v 9.123764 120.002922 86.915162
v -8.083229 120.002861 86.915086
v -25.290260 120.002815 85.198808
v -50.423531 120.002724 77.224031
v -51.100777 120.002724 76.298585
v -51.100777 120.002724 69.903001
vt 0.431104 0.981327
vt 0.431104 0.982575
vt 0.430089 0.982575
vt 0.430089 0.981327
vt 0.430089 0.992540
vt 0.431104 0.992540
vt 0.431104 0.994068
vt 0.430089 0.994068
vt 0.431069 0.990883
vt 0.420941 0.992540
vt 0.420941 0.994068
vt 0.431069 0.994068
vt 0.431069 0.984513
vt 0.420941 0.982575
vt 0.420941 0.981327
vt 0.431069 0.981327
vt 0.430945 0.981411
vt 0.431069 0.981327
vt 0.431069 0.984526
vt 0.430945 0.984513
vt 0.410813 0.981411
vt 0.410813 0.981327
vt 0.430945 0.988760
vt 0.431069 0.988755
vt 0.431069 0.990870
vt 0.430945 0.990883
vt 0.431104 0.981327
vt 0.430980 0.981411
vt 0.430980 0.984513
vt 0.431104 0.984526
vt 0.431104 0.988755
vt 0.430980 0.988760
vt 0.430980 0.990883
vt 0.431104 0.990870
vt 0.431069 0.994068
vt 0.430945 0.993985
vt 0.410813 0.994068
vt 0.410813 0.993985
vt 0.430980 0.993985
vt 0.431104 0.994068
vt 0.410813 0.984513
vt 0.431104 0.984513
vt 0.431104 0.981327
vt 0.431069 0.981327
vt 0.431069 0.984513
vt 0.431069 0.994068
vt 0.410813 0.994068
vt 0.410813 0.981327
vt 0.410813 0.990883
vt 0.431104 0.990883
vt 0.431104 0.994068
vt 0.431069 0.990883
vt 0.410813 0.988760
vt 0.431104 0.988760
vt 0.431069 0.988760
vt 0.431104 0.986636
vt 0.431104 0.986641
vt 0.430980 0.986636
vt 0.430945 0.986636
vt 0.410813 0.986636
vt 0.431069 0.986641
vt 0.431069 0.986636
vn 0.000048 0.000000 -1.000000
vn 0.000005 0.000000 -1.000000
vn 0.000038 0.000000 -1.000000
vn 0.000048 0.000000 -1.000000
vn 0.000000 0.000000 -1.000000
vn -0.000000 0.000000 -1.000000
vn -0.000001 0.000000 -1.000000
vn 0.000000 0.000000 -1.000000
vn 0.000000 0.000000 -1.000000
vn 0.000000 0.000000 -1.000000
vn 0.000000 0.000000 -1.000000
vn 0.000000 0.000000 -1.000000
vn 0.000004 0.000001 -1.000000
vn 0.000018 0.000001 -1.000000
vn 0.000039 0.000001 -1.000000
vn 0.000026 0.000004 -1.000000
vn -0.215901 -0.698849 0.681906
vn -0.215901 -0.698850 0.681906
vn -0.160175 -0.704566 0.691326
vn -0.157049 -0.704818 0.691786
vn -0.806995 0.000000 0.590558
vn -0.806995 0.000000 0.590558
vn -0.806994 0.000000 0.590560
vn -0.806994 0.000000 0.590560
vn 0.035255 -0.708485 0.704845
vn 0.035199 -0.708483 0.704850
vn 0.160173 -0.704564 0.691327
vn 0.157048 -0.704817 0.691787
vn -0.215904 0.698844 0.681911
vn -0.215904 0.698844 0.681911
vn -0.157053 0.704818 0.691785
vn -0.160179 0.704565 0.691325
vn 0.035194 0.708480 0.704852
vn 0.035250 0.708482 0.704848
vn 0.157045 0.704819 0.691785
vn 0.160170 0.704567 0.691325
vn 0.215900 -0.698847 0.681909
vn 0.215900 -0.698847 0.681909
vn 0.806976 0.000000 0.590585
vn 0.806976 0.000000 0.590585
vn 0.806977 0.000000 0.590583
vn 0.806977 0.000000 0.590583
vn 0.215896 0.698851 0.681906
vn 0.215896 0.698851 0.681906
vn -0.302440 0.000000 0.953168
vn -0.223115 0.000000 0.974792
vn -0.223115 0.000000 0.974792
vn -0.302440 0.000000 0.953168
vn -0.000004 1.000000 -0.000002
vn -0.000003 1.000000 -0.000000
vn -0.000003 1.000000 -0.000000
vn -0.000004 1.000000 -0.000002
vn 0.000003 -1.000000 -0.000000
vn 0.000003 -1.000000 -0.000000
vn 0.000003 -1.000000 -0.000000
vn 0.000003 -1.000000 -0.000000
vn 1.000000 0.000000 0.000000
vn 1.000000 0.000000 0.000000
vn 1.000000 0.000000 0.000000
vn 1.000000 0.000000 0.000000
vn -1.000000 0.000000 0.000000
vn -1.000000 0.000000 0.000000
vn -1.000000 0.000000 0.000000
vn -1.000000 0.000000 0.000000
vn 0.223107 0.000000 0.974794
vn 0.302433 0.000000 0.953171
vn 0.302432 0.000000 0.953171
vn 0.223107 0.000000 0.974794
vn -0.000003 1.000000 -0.000000
vn -0.000003 1.000000 -0.000000
vn -0.000003 1.000000 0.000000
vn -0.000003 1.000000 0.000000
vn 0.000003 -1.000000 0.000000
vn 0.000003 -1.000000 0.000000
vn 0.000003 -1.000000 0.000000
vn 0.000003 -1.000000 0.000000
vn 0.049803 0.000000 0.998759
vn 0.049804 0.000000 0.998759
vn -0.000004 1.000000 -0.000000
vn -0.000004 1.000000 -0.000000
vn 0.000003 -1.000000 0.000000
vn 0.000003 -1.000000 0.000000
vn -0.000003 1.000000 0.000000
vn -0.000003 1.000000 0.000000
vn -0.035260 0.708485 0.704844
vn -0.035206 0.708484 0.704849
vn -0.049812 0.000000 0.998759
vn -0.049812 0.000000 0.998759
vn -0.035201 -0.708483 0.704850
vn -0.035256 -0.708484 0.704846
vn 0.000003 -1.000000 -0.000000
vn 0.000003 -1.000000 -0.000000
vn 1.000000 0.000000 0.000000
vn 1.000000 0.000000 0.000000
vn 0.806978 0.000000 0.590581
vn 0.806978 0.000000 0.590581
vn 0.302432 0.000000 0.953171
vn 0.223107 0.000000 0.974794
vn 0.049804 0.000000 0.998759
vn -0.049811 0.000000 0.998759
vn -0.223115 0.000000 0.974792
vn -0.302440 0.000000 0.953168
vn -0.806993 0.000000 0.590561
vn -0.806993 0.000000 0.590561
vn -1.000000 0.000000 0.000000
vn -1.000000 0.000000 0.000000
f 1/1/1 2/2/2 15/3/3 16/4/4
f 14/5/5 5/6/6 6/7/7 13/8/8
f 14/5/5 15/3/3 2/2/2 5/6/6
f 8/9/9 10/10/10 9/11/11 7/12/12
f 8/9/9 3/13/13 11/14/14 10/10/10
f 12/15/15 11/14/14 3/13/13 4/16/16
f 10/10/10 14/5/5 13/8/8 9/11/11
f 12/15/15 16/4/4 15/3/3 11/14/14
f 25/17/17 26/18/18 28/19/19 27/20/20
f 26/18/21 25/17/22 60/21/23 61/22/24
f 50/23/25 51/24/26 37/25/27 38/26/28
f 30/27/29 29/28/30 31/29/31 32/30/32
f 48/31/33 49/32/34 39/33/35 40/34/36
f 33/35/37 34/36/38 38/26/28 37/25/27
f 34/36/39 33/35/40 54/37/41 55/38/42
f 35/39/43 36/40/44 40/34/36 39/33/35
f 25/17/45 27/20/46 59/41/47 60/21/48
f 30/27/49 32/30/50 23/42/51 17/43/52
f 19/44/53 24/45/54 28/19/55 26/18/56
f 33/35/57 20/46/58 53/47/59 54/37/60
f 62/48/61 19/44/62 26/18/63 61/22/64
f 38/26/65 34/36/66 55/38/67 56/49/68
f 21/50/69 40/34/70 36/40/71 18/51/72
f 37/25/73 22/52/74 20/46/75 33/35/76
f 50/23/77 38/26/65 56/49/68 57/53/78
f 21/50/69 47/54/79 48/31/80 40/34/70
f 37/25/73 51/24/81 52/55/82 22/52/74
f 41/56/83 23/42/51 32/30/50 42/57/84
f 32/30/32 31/29/31 43/58/85 42/57/86
f 27/20/46 44/59/87 58/60/88 59/41/47
f 27/20/20 28/19/19 45/61/89 44/59/90
f 46/62/91 45/61/92 28/19/55 24/45/54
f 47/54/79 41/56/83 42/57/84 48/31/80
f 42/57/86 43/58/85 49/32/34 48/31/33
f 44/59/87 50/23/77 57/53/78 58/60/88
f 44/59/90 45/61/89 51/24/26 50/23/25
f 52/55/82 51/24/81 45/61/92 46/62/91
f 36/40/93 54/37/60 53/47/59 18/51/94
f 55/38/42 54/37/41 36/40/95 35/39/96
f 56/49/68 55/38/67 35/39/97 39/33/98
f 57/53/78 56/49/68 39/33/98 49/32/99
f 58/60/88 57/53/78 49/32/99 43/58/100
f 31/29/101 59/41/47 58/60/88 43/58/100
f 29/28/102 60/21/48 59/41/47 31/29/101
f 61/22/24 60/21/23 29/28/103 30/27/104
f 17/43/105 62/48/61 61/22/64 30/27/106
