# This file uses meters as units for non-parametric coordinates.

v -30.122283 2.721355 -6.448037
v -34.210420 20.144343 -6.448037
v -18.193638 20.144343 -22.464826
v -18.193641 2.721355 -18.376699
v -29.227562 3.291794 -7.591436
v -19.646368 3.291794 -17.172643
v -34.210420 22.541943 -6.448037
v -18.193638 22.541943 -22.464826
v -18.193641 2.721355 -13.249682
v -24.995283 2.721355 -6.448037
v -24.995283 20.144343 -6.448037
v -18.193638 20.144343 -13.249682
v -19.646368 3.291794 -14.393083
v -26.448004 3.291794 -7.591439
v -17.177982 20.144343 -22.464826
v -17.177982 20.144343 -24.919639
v -34.210420 20.144343 -5.432381
v -36.665238 20.144343 -5.432381
v -17.326721 20.144343 -12.890591
v -24.636195 20.144343 -5.581121
v -17.177982 21.942603 -24.919639
v -17.699101 22.541943 -24.398522
v -17.177982 21.942603 -22.464826
v -17.699101 22.541943 -22.468873
v -36.665238 21.942603 -5.432381
v -36.144121 22.541943 -5.953496
v -34.214460 22.541943 -5.953498
v -34.210420 21.942603 -5.432381
v -17.844629 22.541943 -13.101116
v -17.326721 21.942603 -12.890591
v -24.846714 22.541943 -6.099031
v -24.636195 21.942603 -5.581121
v -18.719494 22.541943 -21.938969
v -19.409399 21.781998 -21.097489
v -32.854680 21.778866 -7.651575
v -33.684564 22.541943 -6.973892
v -19.409687 21.759766 -14.453197
v -18.719494 22.541943 -14.173997
v -26.212044 21.759705 -7.651515
v -25.920327 22.541943 -6.973893
v -32.937638 20.144343 -22.464821
v -34.210420 20.144343 -21.192044
v -30.122283 2.721355 -17.103920
v -28.849507 2.721355 -18.376698
v -35.424424 20.144343 -24.919629
v -36.665238 20.144343 -23.678815
v -21.792346 20.144343 -8.346660
v -20.092254 20.144343 -10.046752
v -20.092254 2.721355 -10.046752
v -21.792346 2.721355 -8.346660
v -29.227562 3.291794 -15.905196
v -27.964102 3.291794 -17.172643
v -21.545164 3.291794 -11.190322
v -23.245040 3.291794 -9.489784
v -21.080634 20.144343 -7.639520
v -19.385113 20.144343 -9.335040
v -34.660051 22.541943 -24.398509
v -36.144121 22.541943 -22.914437
v -36.665238 21.942603 -23.678815
v -35.424424 21.942603 -24.919629
v -19.385113 21.935900 -9.335040
v -21.080634 21.935900 -7.639520
v -21.468540 22.541943 -8.003939
v -19.749534 22.541943 -9.722945
v -33.333028 22.541943 -23.342212
v -35.087804 22.541943 -21.587432
v -31.591843 21.781998 -21.097489
v -32.855279 21.781859 -19.830013
v -33.684713 22.541943 -20.389438
v -32.147306 22.541943 -21.938969
v -23.002562 21.750195 -9.556129
v -21.302683 21.750071 -11.256667
v -20.802356 22.541943 -10.781266
v -22.527000 22.541943 -9.056035
vt 0.601195 0.149995
vt 0.601195 0.162824
vt 0.519804 0.162824
vt 0.519804 0.139765
vt 0.601195 0.170839
vt 0.519804 0.170839
vt 0.519804 0.175093
vt 0.601195 0.175093
vt 0.601194 0.179844
vt 0.519804 0.179844
vt 0.572059 0.146652
vt 0.572767 0.147774
vt 0.553239 0.148050
vt 0.536960 0.147148
vt 0.598515 0.160472
vt 0.598515 0.152992
vt 0.601832 0.152700
vt 0.602401 0.160472
vt 0.591252 0.150392
vt 0.593957 0.149814
vt 0.532595 0.162465
vt 0.542109 0.160472
vt 0.602401 0.162465
vt 0.584748 0.149012
vt 0.587471 0.148438
vt 0.537239 0.159439
vt 0.527848 0.161458
vt 0.591252 0.150392
vt 0.573868 0.146767
vt 0.552879 0.156121
vt 0.557749 0.157154
vt 0.527848 0.146646
vt 0.537239 0.146646
vt 0.584748 0.149012
vt 0.598515 0.152992
vt 0.528006 0.161919
vt 0.529920 0.161505
vt 0.537013 0.161505
vt 0.537028 0.161906
vt 0.528005 0.147680
vt 0.529921 0.148277
vt 0.537028 0.161119
vt 0.571445 0.161391
vt 0.572217 0.161797
vt 0.535375 0.147119
vt 0.532566 0.146713
vt 0.533803 0.149312
vt 0.538961 0.160709
vt 0.567501 0.160709
vt 0.583862 0.159906
vt 0.585286 0.160976
vt 0.540253 0.147943
vt 0.599670 0.146713
vt 0.597717 0.147119
vt 0.538961 0.150236
vt 0.542054 0.160171
vt 0.566475 0.160171
vt 0.579972 0.159084
vt 0.591520 0.158867
vt 0.590180 0.158565
vt 0.595899 0.148627
vt 0.544656 0.149037
vt 0.599608 0.148627
vt 0.597717 0.148624
vt 0.542054 0.150670
vt 0.578224 0.158694
vt 0.586313 0.157739
vt 0.597182 0.155930
vt 0.599095 0.156094
vt 0.593966 0.149037
vt 0.546712 0.149684
vt 0.556480 0.159986
vt 0.556480 0.153499
vt 0.589489 0.157402
vt 0.593966 0.155093
vt 0.593282 0.149713
vt 0.561138 0.152514
vt 0.578468 0.158505
vt 0.566696 0.159986
vt 0.593379 0.154902
vt 0.584218 0.157138
vt 0.573941 0.134186
vt 0.537043 0.162126
vt 0.528021 0.162152
vt 0.542914 0.176739
vt 0.572231 0.162024
vt 0.542914 0.131081
vt 0.585298 0.161986
vt 0.598515 0.157154
vt 0.591529 0.161968
vt 0.591515 0.161744
vt 0.599095 0.161946
vt 0.599080 0.161722
vt 0.600643 0.148630
vt 0.551314 0.176739
vt 0.582341 0.179844
vt 0.600766 0.146716
vt 0.600163 0.156097
vt 0.573941 0.179844
vt 0.582341 0.134186
vt 0.588093 0.154643
vt 0.588428 0.152477
vt 0.551314 0.179844
vt 0.542914 0.179844
vt 0.551314 0.131081
vt 0.583308 0.158419
vt 0.594093 0.158759
vt 0.582851 0.159897
vt 0.593642 0.160233
vt 0.518251 0.151718
vt 0.518251 0.135586
vt 0.599159 0.135935
vt 0.599256 0.174498
vn 0.000000 0.000000 1.000000
vn 0.180027 0.000000 0.983662
vn 0.180027 0.000000 0.983662
vn 0.000000 0.000000 1.000000
vn 0.983662 -0.000000 0.180026
vn 0.983662 -0.000000 0.180026
vn 1.000000 -0.000000 0.000000
vn 1.000000 -0.000000 0.000000
vn 0.000000 -1.000000 0.000000
vn 0.000000 -1.000000 0.000000
vn 0.000000 -1.000000 0.000000
vn 0.000000 -1.000000 0.000000
vn 0.000000 -1.000000 0.000000
vn 0.000000 -1.000000 0.000000
vn 0.000000 -1.000000 0.000000
vn 0.000000 -1.000000 0.000000
vn 0.754635 0.656145 0.000000
vn 0.754635 0.656145 0.000000
vn 0.754569 0.656152 0.009519
vn 0.754569 0.656152 0.009519
vn 0.736697 0.666968 0.111495
vn 0.731256 0.668539 0.135351
vn 0.000000 0.656142 0.754637
vn 0.000000 0.656142 0.754637
vn 0.009519 0.656151 0.754569
vn 0.009519 0.656151 0.754569
vn 0.135350 0.668540 0.731256
vn 0.111497 0.666968 0.736697
vn 0.999924 0.000000 0.012364
vn 0.999924 0.000000 0.012364
vn 1.000000 0.000000 0.000000
vn 1.000000 0.000000 0.000000
vn 0.012364 0.000000 0.999924
vn 0.012364 0.000000 0.999924
vn 0.000000 0.000000 1.000000
vn 0.000000 0.000000 1.000000
vn 0.165577 0.000000 0.986197
vn 0.165559 0.000000 0.986200
vn 0.986197 0.000000 0.165576
vn 0.986200 0.000000 0.165558
vn 0.000000 1.000000 -0.000004
vn 0.000000 1.000000 -0.000004
vn 0.000000 1.000000 -0.000004
vn 0.000000 1.000000 0.000000
vn 0.000000 1.000000 0.000000
vn 0.000000 1.000000 0.000000
vn -0.744984 0.667082 0.001014
vn -0.744984 0.667082 0.001014
vn -0.744984 0.667082 0.001014
vn -0.744984 0.667082 0.001014
vn 0.000880 0.659547 -0.751663
vn 0.000880 0.659547 -0.751663
vn 0.000880 0.659547 -0.751663
vn 0.000880 0.659547 -0.751663
vn -0.246685 -0.000027 -0.969096
vn -0.220270 -0.000383 -0.975439
vn 0.799996 0.155072 -0.579619
vn 0.963300 0.188375 -0.191227
vn -0.568337 0.177809 0.803354
vn -0.970846 0.011687 -0.239420
vn -0.973999 0.011769 -0.226245
vn -0.187549 0.206255 0.960356
vn 0.000000 1.000000 -0.000001
vn 0.000000 1.000000 -0.000001
vn 0.000000 1.000000 -0.000001
vn 0.000000 1.000000 -0.000001
vn 0.000000 1.000000 -0.000001
vn 0.000000 1.000000 0.000000
vn 0.000000 1.000000 0.000000
vn 0.000000 1.000000 0.000000
vn 0.000000 1.000000 0.000000
vn 0.000000 1.000000 0.000000
vn 0.000000 -1.000000 0.000000
vn 0.000000 -1.000000 0.000000
vn 0.000000 -1.000000 0.000000
vn 0.000000 -1.000000 0.000000
vn -0.955187 -0.258121 -0.144882
vn -0.144883 -0.258120 -0.955187
vn -0.063022 -0.241974 -0.968234
vn -0.968234 -0.241974 -0.063022
vn 0.000000 -1.000000 0.000000
vn 0.000000 -1.000000 0.000000
vn 0.000000 -1.000000 0.000000
vn 0.000000 -1.000000 0.000000
vn -0.063545 0.000000 -0.997979
vn -0.997979 0.000000 -0.063544
vn -0.997979 0.000000 -0.063544
vn -0.063545 0.000000 -0.997979
vn 0.000000 -1.000000 -0.000002
vn 0.000000 -1.000000 -0.000002
vn 0.000000 -1.000000 -0.000002
vn 0.000000 -1.000000 -0.000002
vn 0.806157 -0.000000 0.591701
vn 0.591702 0.000000 0.806157
vn 0.591702 0.000000 0.806157
vn 0.806157 -0.000000 0.591701
vn 0.975387 0.207313 0.075113
vn 0.080283 0.222017 0.971732
vn 0.161791 0.235177 0.958392
vn 0.958006 0.225545 0.177070
vn 0.000000 1.000000 0.000000
vn 0.000000 1.000000 0.000000
vn 0.000000 1.000000 0.000000
vn 0.000000 1.000000 0.000000
vn -0.803143 0.008379 -0.595728
vn -0.587064 0.004837 -0.809526
vn -0.596611 0.004985 -0.802515
vn -0.809229 0.008487 -0.587432
vn 0.581468 0.000000 0.813569
vn 0.813569 0.000000 0.581468
vn 0.813575 0.000000 0.581460
vn 0.581460 0.000000 0.813575
vn 0.000000 1.000000 -0.000001
vn 0.000000 1.000000 -0.000001
vn 0.000000 1.000000 -0.000001
vn 0.000000 1.000000 -0.000001
vn -0.735161 0.677237 -0.029816
vn -0.029816 0.677238 -0.735159
vn -0.122128 0.735350 -0.666592
vn -0.666592 0.735350 -0.122129
vn 0.443213 0.663906 0.602321
vn 0.602322 0.663906 0.443212
vn 0.613741 0.663773 0.427465
vn 0.427466 0.663773 0.613740
vn 0.000000 1.000000 0.000001
vn 0.000000 1.000000 0.000001
vn 0.000000 1.000000 0.000001
vn 0.000000 1.000000 0.000001
vn 0.000000 1.000000 0.000000
vn 0.000000 1.000000 0.000000
vn 0.000000 1.000000 0.000000
vn 0.000000 1.000000 0.000000
vn 0.433206 0.791694 0.430759
vn 0.433206 0.791694 0.430759
vn 0.433206 0.791694 0.430759
vn 0.433206 0.791694 0.430759
vn -0.533209 0.656931 -0.533038
vn -0.533209 0.656931 -0.533038
vn -0.533209 0.656931 -0.533038
vn -0.533209 0.656931 -0.533038
vn 0.000000 1.000000 -0.000000
vn 0.000000 1.000000 -0.000000
vn 0.000000 1.000000 -0.000000
vn 0.000000 1.000000 -0.000000
vn -0.000000 -0.228436 -0.973559
vn -0.000000 -0.228436 -0.973559
vn 0.000000 -1.000000 0.000000
vn 0.000000 -1.000000 0.000000
vn 0.000000 -1.000000 0.000000
vn 0.000000 -1.000000 0.000000
vn -0.973559 -0.228436 0.000000
vn -0.973559 -0.228436 0.000000
vn 0.000000 -1.000000 0.000000
vn 0.000000 -1.000000 0.000000
vn 0.000000 -1.000000 0.000000
vn 0.000000 -1.000000 0.000000
vn 0.000000 -1.000000 0.000000
vn 0.000000 1.000000 0.000000
vn 0.000000 1.000000 0.000000
vn 0.000000 1.000000 0.000000
vn 0.000000 1.000000 0.000000
vn 0.000000 -1.000000 0.000000
vn 0.000000 -1.000000 0.000000
vn 0.000000 -1.000000 0.000000
vn 0.000000 -1.000000 0.000000
vn 0.000000 -1.000000 -0.000000
vn 0.000000 -1.000000 -0.000000
vn 0.000000 -1.000000 -0.000000
vn 0.000000 -1.000000 -0.000000
vn 0.000000 -1.000000 -0.000000
vn 0.000000 -1.000000 0.000001
vn 0.000000 -1.000000 0.000001
vn 0.000000 -1.000000 0.000001
vn 0.000000 -1.000000 0.000001
vn 0.000000 -1.000000 -0.000000
vn 0.000000 -1.000000 -0.000000
vn 0.000000 -1.000000 -0.000000
vn 0.000000 -1.000000 -0.000000
vn -0.754635 0.656144 0.000000
vn -0.754636 0.656144 0.000000
vn -0.000000 0.656146 -0.754634
vn -0.000000 0.656146 -0.754634
vn -1.000000 0.000000 0.000000
vn -1.000000 0.000000 0.000000
vn 0.000000 1.000000 0.000000
vn 0.000000 1.000000 0.000000
vn 0.000000 1.000000 0.000000
vn 0.000000 1.000000 0.000000
vn -0.000001 0.000000 -1.000000
vn -0.000001 0.000000 -1.000000
vn 0.000000 1.000000 0.000000
vn 0.000000 1.000000 0.000000
vn 0.000000 1.000000 0.000000
vn 0.000000 1.000000 0.000000
vn 0.000000 0.742148 0.670236
vn 0.000000 0.742148 0.670236
vn 0.000000 0.742148 0.670236
vn 0.000000 0.742148 0.670236
vn 0.676239 0.736683 0.000066
vn 0.676238 0.736683 0.000066
vn 0.676238 0.736683 0.000066
vn 0.676238 0.736683 0.000066
vn -0.638359 0.667002 -0.384195
vn -0.638359 0.667002 -0.384195
vn -0.638359 0.667002 -0.384195
vn -0.638359 0.667002 -0.384195
vn -0.384935 0.665854 -0.639111
vn -0.384935 0.665854 -0.639111
vn -0.384935 0.665854 -0.639111
vn -0.384935 0.665854 -0.639111
vn 0.000000 1.000000 0.000001
vn 0.000000 1.000000 0.000001
vn 0.000000 1.000000 0.000001
vn 0.000000 1.000000 0.000001
vn 0.000000 1.000000 0.000000
vn 0.000000 1.000000 0.000000
vn 0.000000 1.000000 0.000000
vn 0.000000 1.000000 0.000000
vn 0.000000 1.000000 0.000000
vn 0.000000 1.000000 0.000000
vn 0.000000 1.000000 0.000000
vn 0.000000 1.000000 0.000000
vn 0.000000 1.000000 0.000000
vn 0.000000 1.000000 0.000000
vn 0.000000 1.000000 0.000000
vn 0.000000 1.000000 0.000000
f 1/1/1 10/2/2 11/3/3 2/4/4
f 12/11/5 9/12/6 4/13/7 3/14/8
f 2/15/9 11/16/10 20/17/11 17/18/12
f 12/11/13 3/14/14 15/33/15 19/29/16
f 21/36/17 22/37/18 24/38/19 23/39/20
f 23/39/20 24/38/19 29/43/21 30/44/22
f 26/54/23 25/53/24 28/63/25 27/64/26
f 27/64/26 28/63/25 32/69/27 31/68/28
f 23/39/29 15/83/30 16/84/31 21/36/32
f 17/94/33 28/63/34 25/53/35 18/97/36
f 17/94/33 20/98/37 32/69/38 28/63/34
f 19/86/39 15/83/30 23/39/29 30/44/40
f 7/61/41 26/54/42 27/64/43
f 22/37/44 8/42/45 24/38/46
f 33/48/47 34/56/48 37/57/49 38/49/50
f 35/76/51 36/70/52 40/75/53 39/80/54
f 39/80/55 14/101/56 5/102/57 35/76/58
f 6/110/59 13/111/60 37/112/61 34/113/62
f 40/75/63 36/70/64 7/61/65 27/64/66 31/68/67
f 8/42/68 33/48/69 38/49/70 29/43/71 24/38/72
f 41/26/73 42/22/74 46/21/75 45/27/76
f 42/22/77 41/26/78 44/30/79 43/31/80
f 43/31/81 44/30/82 49/34/83 50/28/84
f 45/104/85 46/85/86 59/95/87 60/103/88
f 47/19/89 48/24/90 56/25/91 55/20/92
f 48/7/93 47/6/94 50/5/95 49/8/96
f 51/77/97 52/73/98 67/65/99 68/71/100
f 52/73/101 51/77/102 54/81/103 53/78/104
f 53/106/105 54/81/106 71/74/107 72/107/108
f 55/90/109 56/88/110 61/51/111 62/91/112
f 57/41/113 58/45/114 66/52/115 65/47/116
f 58/45/117 57/41/118 60/40/119 59/46/120
f 62/59/121 61/51/122 64/50/123 63/60/124
f 63/60/125 64/50/126 73/58/127 74/67/128
f 65/47/129 66/52/130 69/62/131 70/55/132
f 68/71/133 67/65/134 70/55/135 69/62/136
f 72/66/137 71/74/138 74/67/139 73/58/140
f 52/73/141 53/78/142 13/79/143 6/72/144
f 41/26/78 3/14/145 4/13/146 44/30/79
f 44/30/147 4/13/148 9/12/149 49/34/150
f 43/31/80 1/89/151 2/15/152 42/22/77
f 46/21/153 42/22/154 2/15/155 17/18/156 18/23/157
f 49/8/96 9/9/6 12/10/5 48/7/93
f 10/2/2 50/5/95 47/6/94 11/3/3
f 5/102/158 14/101/159 54/81/160 51/77/161
f 43/31/162 50/28/163 10/35/164 1/89/165
f 45/27/166 16/32/167 15/33/168 3/14/169 41/26/170
f 48/24/171 12/11/172 19/29/173 56/25/174
f 11/16/175 47/19/176 55/20/177 20/17/178
f 58/45/117 59/46/120 25/53/179 26/54/180
f 60/40/119 57/41/118 22/37/181 21/36/182
f 30/44/22 29/43/21 64/50/123 61/51/122
f 62/59/121 63/60/124 31/68/28 32/69/27
f 59/95/87 46/85/86 18/87/183 25/105/184
f 57/41/185 65/47/186 8/42/187 22/37/188
f 56/88/110 19/86/39 30/44/40 61/51/111
f 20/92/37 55/90/109 62/91/112 32/93/38
f 60/100/88 21/96/189 16/99/190 45/82/85
f 58/45/191 26/54/192 7/61/193 66/52/194
f 34/56/195 33/48/196 70/55/197 67/65/198
f 68/71/199 69/62/200 36/70/201 35/76/202
f 38/49/203 37/57/204 72/66/205 73/58/206
f 74/67/207 71/74/208 39/80/209 40/75/210
f 8/42/211 65/47/212 70/55/213 33/48/214
f 66/52/215 7/61/216 36/70/217 69/62/218
f 6/72/59 34/56/62 67/65/99 52/73/98
f 51/77/97 68/71/100 35/76/58 5/102/57
f 13/108/60 53/106/105 72/107/108 37/109/61
f 54/81/106 14/101/56 39/80/55 71/74/107
f 73/58/219 64/50/220 29/43/221 38/49/222
f 40/75/223 31/68/224 63/60/225 74/67/226
