# This file uses meters as units for non-parametric coordinates.

v -42.541798 -0.857977 22.369740
v -40.056554 -0.857977 24.854990
v -42.541798 0.857977 22.369740
v -40.056554 0.857977 24.854990
v 42.541798 -0.857977 22.369740
v 40.056554 -0.857977 24.854990
v 42.541798 0.857977 22.369740
v 40.056554 0.857977 24.854990
v -42.541798 0.857977 -22.369740
v -40.056554 0.857977 -24.854990
v -42.541798 -0.857977 -22.369740
v -40.056554 -0.857977 -24.854990
v 40.056554 0.857977 -24.854990
v 42.541798 0.857977 -22.369740
v 42.541798 -0.857977 -22.369740
v 40.056554 -0.857977 -24.854990
v -39.298071 0.857977 23.884655
v -41.734750 0.857977 21.496428
v -39.298071 0.857977 -23.884655
v -41.734750 0.857977 -21.496428
v 39.298071 0.857977 23.884655
v 39.298071 0.857977 -23.884655
v 41.734750 0.857977 21.496428
v 41.734750 0.857977 -21.496428
v -39.298071 -0.269629 23.884655
v -41.734750 -0.269629 21.496428
v -39.298071 -0.269629 -23.884655
v -41.734750 -0.269629 -21.496428
v 39.298071 -0.269629 23.884655
v 39.298071 -0.269629 -23.884655
v 41.734750 -0.269629 21.496428
v 41.734750 -0.269629 -21.496428
vt 0.651422 0.119011
vt 0.651421 0.069899
vt 0.728064 0.069899
vt 0.728065 0.119011
vt 0.649044 0.069898
vt 0.649045 0.119011
vt 0.730442 0.069899
vt 0.730442 0.119011
vt 0.651421 0.119089
vt 0.651420 0.071689
vt 0.728063 0.071688
vt 0.728063 0.119090
vt 0.649042 0.071689
vt 0.649043 0.119089
vt 0.730440 0.071688
vt 0.730441 0.119090
vt 0.651873 0.072359
vt 0.730442 0.072358
vt 0.730441 0.116630
vt 0.651875 0.116631
vt 0.736621 0.116629
vt 0.649043 0.116630
vt 0.649044 0.072358
vt 0.736622 0.072357
vt 0.637318 0.073222
vt 0.640388 0.070858
vt 0.640388 0.118129
vt 0.637318 0.115765
vt 0.739414 0.070858
vt 0.739414 0.118129
vt 0.742485 0.073222
vt 0.742484 0.115765
vt 0.650451 0.115766
vt 0.637318 0.070858
vt 0.742484 0.118129
vt 0.650451 0.118129
vt 0.650450 0.073222
vt 0.735208 0.070858
vt 0.742485 0.070858
vt 0.650450 0.070859
vt 0.739414 0.101896
vt 0.732270 0.069898
vt 0.730942 0.070858
vt 0.735208 0.073222
vt 0.669925 0.069898
vt 0.668970 0.070858
vt 0.640388 0.101896
vt 0.735208 0.115765
vt 0.673057 0.072357
vt 0.672040 0.073222
vt 0.732270 0.119089
vt 0.730942 0.118129
vt 0.673057 0.116629
vt 0.672040 0.115765
vt 0.669925 0.119089
vt 0.668970 0.118129
vt 0.640388 0.087200
vt 0.739414 0.087200
vt 0.637318 0.118129
vt 0.735208 0.118129
vn -0.030075 0.000000 0.999548
vn -0.030075 0.000000 0.999548
vn 0.030075 0.000000 0.999548
vn 0.030075 0.000000 0.999548
vn -0.030075 0.000000 -0.999548
vn -0.030075 0.000000 -0.999548
vn 0.030075 0.000000 -0.999548
vn 0.030075 0.000000 -0.999548
vn 0.998618 0.000000 0.052553
vn 0.998618 0.000000 0.052553
vn 0.998618 0.000000 -0.052553
vn 0.998618 0.000000 -0.052553
vn -0.998618 0.000000 -0.052553
vn -0.998618 0.000000 -0.052553
vn -0.998618 0.000000 0.052553
vn -0.998618 0.000000 0.052553
vn 0.000000 1.000000 0.000000
vn 0.000000 1.000000 0.000000
vn 0.000000 1.000000 0.000000
vn 0.000000 1.000000 0.000000
vn 0.000000 -1.000000 0.000000
vn 0.000000 -1.000000 0.000000
vn 0.000000 -1.000000 0.000000
vn 0.000000 -1.000000 0.000000
vn 0.000000 -1.000000 0.000000
vn 0.000000 -1.000000 0.000000
vn 0.000000 -1.000000 0.000000
vn 0.000000 -1.000000 0.000000
vn 0.000000 1.000000 0.000000
vn 0.000000 1.000000 0.000000
vn 0.000000 1.000000 0.000000
vn 0.000000 1.000000 0.000000
vn 0.000000 1.000000 0.000000
vn 0.000000 1.000000 0.000000
vn 0.000000 1.000000 0.000000
vn 0.000000 1.000000 0.000000
vn 0.000000 1.000000 -0.000000
vn 0.000000 1.000000 -0.000000
vn 0.000000 1.000000 -0.000000
vn 0.000000 1.000000 -0.000000
vn 0.000000 1.000000 0.000000
vn 0.000000 1.000000 0.000000
vn 0.000000 1.000000 0.000000
vn 0.000000 1.000000 0.000000
vn 0.000000 1.000000 0.000000
vn 0.000000 1.000000 0.000000
vn 0.000000 1.000000 0.000000
vn 0.000000 1.000000 0.000000
vn 0.000000 1.000000 0.000000
vn 0.000000 1.000000 0.000000
vn 0.000000 1.000000 0.000000
vn 0.000000 1.000000 0.000000
vn 0.000000 1.000000 -0.000000
vn 0.000000 1.000000 -0.000000
vn 0.000000 1.000000 -0.000000
vn 0.000000 1.000000 -0.000000
vn 0.000000 1.000000 0.000000
vn 0.000000 1.000000 0.000000
vn 0.000000 1.000000 0.000000
vn 0.000000 1.000000 0.000000
vn 0.000000 1.000000 -0.000000
vn 0.000000 1.000000 -0.000000
vn 0.000000 1.000000 -0.000000
vn 0.000000 1.000000 -0.000000
vn 0.699970 0.000000 -0.714172
vn 0.699970 0.000000 -0.714172
vn 0.699970 0.000000 -0.714172
vn 0.699970 0.000000 -0.714172
vn 0.699970 0.000000 0.714172
vn 0.699970 0.000000 0.714172
vn 0.699970 0.000000 0.714172
vn 0.699970 0.000000 0.714172
vn 1.000000 0.000000 0.000000
vn 1.000000 0.000000 0.000000
vn 1.000000 0.000000 0.000000
vn 1.000000 0.000000 0.000000
vn -0.699970 0.000000 -0.714172
vn -0.699970 0.000000 -0.714172
vn -0.699970 0.000000 -0.714172
vn -0.699970 0.000000 -0.714172
vn -1.000000 0.000000 0.000000
vn -1.000000 0.000000 0.000000
vn -1.000000 0.000000 0.000000
vn -1.000000 0.000000 0.000000
vn -0.699970 0.000000 0.714172
vn -0.699970 0.000000 0.714172
vn -0.699970 0.000000 0.714172
vn -0.699970 0.000000 0.714172
vn 0.000000 0.000000 -1.000000
vn 0.000000 0.000000 -1.000000
vn 0.000000 0.000000 -1.000000
vn 0.000000 0.000000 -1.000000
vn 0.000000 0.000000 1.000000
vn 0.000000 0.000000 1.000000
vn 0.000000 0.000000 1.000000
vn 0.000000 0.000000 1.000000
f 4/1/1 2/2/2 6/3/3 8/4/4
f 12/9/5 10/10/6 13/11/7 16/12/8
f 7/17/9 5/18/10 15/19/11 14/20/12
f 9/21/13 11/22/14 1/23/15 3/24/16
f 26/25/17 25/26/18 27/27/19 28/28/20
f 6/3/21 16/12/22 15/19/23 5/18/24
f 1/5/15 2/2/2 4/1/1 3/6/16
f 6/3/3 5/7/10 7/8/9 8/4/4
f 9/13/13 10/10/6 12/9/5 11/14/14
f 13/11/7 14/15/12 15/16/11 16/12/8
f 11/22/25 12/9/26 2/2/27 1/23/28
f 2/2/27 12/9/26 16/12/22 6/3/21
f 30/30/29 29/29/30 31/31/31 32/32/32
f 27/27/19 25/26/18 29/29/30 30/30/29
f 3/24/33 4/42/34 17/43/35 18/44/36
f 10/51/37 9/21/38 20/48/39 19/52/40
f 9/21/41 3/24/42 18/44/43 20/48/44
f 8/45/45 7/49/46 23/50/47 21/46/48
f 7/49/49 14/53/50 24/54/51 23/50/52
f 14/53/53 13/55/54 22/56/55 24/54/56
f 4/42/57 8/45/58 21/46/59 17/43/60
f 13/55/61 10/51/62 19/52/63 22/56/64
f 18/44/65 17/38/66 25/34/67 26/25/68
f 19/60/69 20/48/70 28/28/71 27/59/72
f 20/48/73 18/44/74 26/25/75 28/28/76
f 21/40/77 23/37/78 31/31/79 29/39/80
f 23/37/81 24/33/82 32/32/83 31/31/84
f 24/33/85 22/36/86 30/35/87 32/32/88
f 17/47/89 21/41/90 29/29/91 25/26/92
f 22/58/93 19/57/94 27/27/95 30/30/96
