# This file uses meters as units for non-parametric coordinates.

v 40.232582 29.395493 6.244502
v 41.316870 28.582816 7.328797
v 38.310697 47.285569 8.842279
v 39.394985 47.285569 9.926574
v 49.339425 29.395486 6.244502
v 48.255133 28.582809 7.328797
v 51.261319 47.285569 8.842279
v 50.177022 47.285569 9.926574
v 38.310697 47.285569 -8.842277
v 39.394985 47.285569 -9.926574
v 40.232582 29.395493 -6.244502
v 41.316870 28.582816 -7.328794
v 50.177022 47.285569 -9.926574
v 51.261319 47.285569 -8.842277
v 49.339425 29.395486 -6.244502
v 48.255133 28.582809 -7.328794
v 39.810063 47.285569 9.037250
v 38.968642 47.285569 8.195811
v 49.761936 47.285569 9.037250
v 50.603378 47.285569 8.195811
v 50.603378 47.285569 -8.195809
v 49.761936 47.285569 -9.037249
v 39.810063 47.285569 -9.037249
v 38.968642 47.285569 -8.195809
v 41.544025 29.646097 5.532619
v 48.027983 29.646097 5.532619
v 48.027983 29.646097 -5.532618
v 41.544025 29.646097 -5.532619
v 37.329111 37.864037 8.386569
v 39.387764 37.864037 8.386569
v 37.329111 43.380724 8.386569
v 39.387764 43.380724 8.386569
v 37.329111 43.380724 -8.386569
v 39.387764 43.380724 -8.386569
v 37.329111 37.864037 -8.386569
v 39.387764 37.864037 -8.386569
vt 0.570674 0.992360
vt 0.571963 0.979310
vt 0.574672 0.980013
vt 0.574209 0.993608
vt 0.571980 0.980171
vt 0.571162 0.992696
vt 0.575002 0.980710
vt 0.574638 0.993775
vt 0.576185 0.980234
vt 0.577212 0.993578
vt 0.581176 0.992425
vt 0.579674 0.979159
vt 0.576878 0.993785
vt 0.575921 0.980918
vt 0.580816 0.992721
vt 0.579404 0.979959
vt 0.574597 0.980173
vt 0.579761 0.979291
vt 0.571049 0.991835
vt 0.574125 0.994247
vt 0.576258 0.980391
vt 0.570860 0.980409
vt 0.582448 0.990312
vt 0.577200 0.990891
vt 0.576900 0.980504
vt 0.582219 0.980823
vt 0.574742 0.994326
vt 0.580757 0.993300
vt 0.570569 0.992995
vt 0.571301 0.992166
vt 0.581069 0.992480
vt 0.569221 0.990042
vt 0.577213 0.992921
vt 0.576782 0.993216
vt 0.569285 0.983445
vt 0.568950 0.980930
vt 0.582348 0.981368
vt 0.569287 0.979868
vt 0.569342 0.991625
vt 0.569337 0.989327
vt 0.569094 0.981664
vt 0.570860 0.993175
vt 0.582334 0.991301
vt 0.569472 0.993229
vt 0.569241 0.980212
vt 0.582455 0.981817
vt 0.581001 0.980409
vt 0.581001 0.993175
vt 0.581775 0.983016
vt 0.579786 0.983016
vt 0.579786 0.991986
vt 0.581775 0.991986
vt 0.569495 0.979818
vt 0.581775 0.988679
vt 0.569495 0.988679
vt 0.569495 0.991985
vt 0.581775 0.979818
vt 0.571484 0.991985
vt 0.571484 0.983016
vt 0.569495 0.983016
vt 0.581775 0.979669
vt 0.569495 0.979669
vn 0.000000 -0.137577 0.990491
vn 0.000000 -0.137577 0.990491
vn 0.000000 -0.137577 0.990491
vn 0.000000 -0.137577 0.990491
vn -0.000000 -0.137578 -0.990491
vn -0.000000 -0.137578 -0.990491
vn -0.000000 -0.137577 -0.990491
vn -0.000000 -0.137578 -0.990491
vn 0.994279 -0.106813 0.000000
vn 0.994279 -0.106813 0.000000
vn 0.994279 -0.106813 0.000000
vn 0.994279 -0.106813 0.000000
vn -0.994279 -0.106813 0.000000
vn -0.994279 -0.106813 0.000000
vn -0.994279 -0.106813 0.000000
vn -0.994279 -0.106813 0.000000
vn 0.000000 1.000000 0.000000
vn 0.000000 1.000000 0.000000
vn 0.000000 1.000000 0.000000
vn 0.000000 1.000000 0.000000
vn 0.057054 -0.998371 0.000000
vn 0.057055 -0.998371 0.000000
vn 0.599745 -0.800191 0.000000
vn 0.599745 -0.800191 0.000000
vn -0.727984 -0.170744 0.663993
vn -0.727984 -0.170744 0.663993
vn -0.727984 -0.170744 0.663993
vn -0.727984 -0.170744 0.663993
vn 0.727981 -0.170745 0.663995
vn 0.727981 -0.170745 0.663995
vn 0.727981 -0.170745 0.663995
vn 0.727981 -0.170745 0.663995
vn -0.727984 -0.170744 -0.663992
vn -0.727984 -0.170744 -0.663992
vn -0.727984 -0.170744 -0.663992
vn -0.727984 -0.170744 -0.663992
vn 0.727981 -0.170744 -0.663995
vn 0.727982 -0.170744 -0.663995
vn 0.727982 -0.170744 -0.663995
vn 0.727982 -0.170744 -0.663995
vn 0.000000 1.000000 0.000000
vn 0.000000 1.000000 0.000000
vn 0.000000 1.000000 0.000000
vn 0.000000 1.000000 0.000000
vn 0.000000 1.000000 -0.000002
vn 0.000000 1.000000 -0.000002
vn 0.000000 1.000000 -0.000002
vn 0.000000 1.000000 -0.000002
vn 0.000000 1.000000 0.000000
vn 0.000000 1.000000 0.000000
vn 0.000000 1.000000 0.000000
vn 0.000000 1.000000 0.000000
vn 0.000000 1.000000 0.000000
vn 0.000000 1.000000 0.000000
vn 0.000000 1.000000 0.000000
vn 0.000000 1.000000 0.000000
vn 0.000000 1.000000 -0.000002
vn 0.000000 1.000000 -0.000002
vn 0.000000 1.000000 -0.000002
vn 0.000000 1.000000 -0.000002
vn 0.000000 1.000000 -0.000000
vn 0.000000 1.000000 -0.000000
vn 0.000000 1.000000 -0.000000
vn 0.000000 1.000000 -0.000000
vn 0.000000 1.000000 0.000000
vn 0.000000 1.000000 0.000000
vn 0.000000 1.000000 0.000000
vn 0.000000 1.000000 0.000000
vn 0.000000 1.000000 0.000000
vn 0.000000 1.000000 0.000000
vn 0.000000 1.000000 0.000000
vn 0.000000 1.000000 0.000000
vn 0.692021 0.205514 -0.692005
vn 0.692021 0.205514 -0.692005
vn 0.692021 0.205514 -0.692005
vn 0.000000 0.194872 -0.980829
vn 0.000000 0.194872 -0.980829
vn 0.000000 0.194872 -0.980829
vn 0.000000 0.194872 -0.980829
vn -0.692012 0.205515 -0.692014
vn -0.692012 0.205515 -0.692014
vn -0.692012 0.205515 -0.692014
vn -0.989509 0.144470 0.000000
vn -0.989509 0.144470 0.000000
vn -0.989509 0.144470 0.000000
vn -0.989509 0.144470 0.000000
vn -0.692011 0.205516 0.692014
vn -0.692011 0.205516 0.692014
vn -0.692011 0.205516 0.692014
vn 0.000000 0.194872 0.980829
vn 0.000000 0.194872 0.980829
vn 0.000000 0.194872 0.980829
vn 0.000000 0.194872 0.980829
vn 0.692021 0.205514 0.692005
vn 0.692021 0.205514 0.692006
vn 0.692021 0.205514 0.692006
vn 0.989509 0.144469 0.000000
vn 0.989509 0.144469 0.000000
vn 0.989509 0.144469 0.000000
vn 0.989509 0.144469 0.000000
vn -0.599745 -0.800191 0.000000
vn -0.057056 -0.998371 0.000000
vn -0.057056 -0.998371 0.000000
vn -0.599746 -0.800191 0.000000
vn 0.000000 0.000000 1.000000
vn 0.000000 0.000000 1.000000
vn 0.000000 0.000000 1.000000
vn 0.000000 0.000000 1.000000
vn 0.000000 1.000000 0.000000
vn 0.000000 1.000000 0.000000
vn 0.000000 1.000000 0.000000
vn 0.000000 1.000000 0.000000
vn 0.000000 0.000000 -1.000000
vn 0.000000 0.000000 -1.000000
vn 0.000000 0.000000 -1.000000
vn 0.000000 0.000000 -1.000000
vn 0.000000 -1.000000 0.000000
vn 0.000000 -1.000000 0.000000
vn 0.000000 -1.000000 0.000000
vn 0.000000 -1.000000 0.000000
vn 1.000000 0.000000 0.000000
vn 1.000000 0.000000 0.000000
vn 1.000000 0.000000 0.000000
vn 1.000000 0.000000 0.000000
vn -1.000000 0.000000 0.000000
vn -1.000000 0.000000 0.000000
vn -1.000000 0.000000 0.000000
vn -1.000000 0.000000 0.000000
f 4/1/1 2/2/2 6/3/3 8/4/4
f 12/9/5 10/10/6 13/11/7 16/12/8
f 7/8/9 5/7/10 15/16/11 14/15/12
f 9/13/13 11/14/14 1/5/15 3/6/16
f 25/23/17 26/24/18 27/25/19 28/26/20
f 6/17/21 16/18/22 15/16/23 5/7/24
f 1/5/25 2/2/26 4/1/27 3/6/28
f 6/3/29 5/7/30 7/8/31 8/4/32
f 9/13/33 10/10/34 12/9/35 11/14/36
f 13/11/37 14/15/38 15/16/39 16/12/40
f 3/6/41 4/1/42 17/19/43 18/30/44
f 4/1/45 8/4/46 19/20/47 17/29/48
f 8/4/49 7/8/50 20/27/51 19/20/52
f 7/8/53 14/15/54 21/28/55 20/27/56
f 14/15/57 13/11/58 22/31/59 21/28/60
f 13/11/61 10/10/62 23/33/63 22/31/64
f 10/10/65 9/13/66 24/34/67 23/33/68
f 9/13/69 3/6/70 18/30/71 24/34/72
f 18/32/73 17/40/74 25/23/75
f 17/40/76 19/38/77 26/37/78 25/23/79
f 19/38/80 20/35/81 26/37/82
f 20/35/83 21/39/84 27/43/85 26/37/86
f 21/39/87 22/44/88 27/43/89
f 22/44/90 23/45/91 28/46/92 27/43/93
f 23/36/94 24/41/95 28/26/96
f 24/41/97 18/32/98 25/23/99 28/26/100
f 11/14/101 12/21/102 2/2/103 1/5/104
f 2/48/103 12/42/102 16/22/22 6/47/21
f 29/49/105 30/50/106 32/51/107 31/52/108
f 31/52/109 32/54/110 34/55/111 33/56/112
f 33/56/113 34/58/114 36/59/115 35/60/116
f 35/60/117 36/62/118 30/61/119 29/49/120
f 30/57/121 36/53/122 34/55/123 32/54/124
f 35/60/125 29/49/126 31/52/127 33/56/128
