# This file uses meters as units for non-parametric coordinates.

v -23.459101 -10.412651 1.006943
v -21.445213 -10.412651 1.006943
v -23.459101 -8.398758 1.006943
v -21.445213 -8.398758 1.006943
v -23.459101 -8.398758 -1.006943
v -21.445213 -8.398758 -1.006943
v -23.459101 -10.412651 -1.006943
v -21.445213 -10.412651 -1.006943
v -22.865219 -9.871567 -0.416243
v -1.946136 -12.250311 20.626797
v -22.865219 -8.815076 -0.656492
v -1.946136 -11.193820 20.386547
v -21.928528 -8.694335 -0.125536
v -1.946136 -11.434069 19.330057
v -21.928528 -9.750826 0.114714
v -1.946136 -12.490559 19.570307
v -22.093864 -10.302347 10.134119
v -21.339802 -10.333944 9.995170
v -21.339802 -11.390434 10.235419
v -22.093864 -11.358837 10.374368
v -11.205327 -11.258858 19.601006
v -11.008409 -11.423218 18.878239
v -11.008409 -12.479708 19.118486
v -11.205327 -12.315349 19.841255
v -18.014664 -11.079935 15.369487
v -17.625423 -11.222288 14.743493
v -17.625423 -12.278779 14.983743
v -18.014664 -12.136426 15.609735
vt 0.359489 0.916417
vt 0.363123 0.916417
vt 0.359489 0.920051
vt 0.363123 0.920051
vt 0.359489 0.923685
vt 0.363123 0.923685
vt 0.359489 0.927319
vt 0.363123 0.927319
vt 0.359489 0.930953
vt 0.363123 0.930953
vt 0.355855 0.916417
vt 0.355855 0.920051
vt 0.357726 0.917082
vt 0.363186 0.917082
vt 0.363186 0.930022
vt 0.357726 0.930022
vt 0.363186 0.917082
vt 0.357726 0.917082
vt 0.363186 0.930022
vt 0.357726 0.930022
vt 0.363186 0.917082
vt 0.357726 0.917082
vt 0.357726 0.930022
vt 0.357726 0.917082
vt 0.357726 0.930022
vt 0.357726 0.917082
vt 0.357726 0.917082
vt 0.363186 0.930022
vt 0.357726 0.930022
vt 0.357726 0.917082
vt 0.363186 0.917082
vt 0.363186 0.930022
vt 0.357726 0.930022
vt 0.363186 0.917082
vt 0.357726 0.917082
vt 0.363186 0.917082
vt 0.357726 0.917082
vn 0.000000 0.000000 1.000000
vn 0.000000 0.000000 1.000000
vn 0.000000 0.000000 1.000000
vn 0.000000 0.000000 1.000000
vn 0.000000 1.000000 0.000000
vn 0.000000 1.000000 0.000000
vn 0.000000 1.000000 0.000000
vn 0.000000 1.000000 0.000000
vn 0.000000 0.000000 -1.000000
vn 0.000000 0.000000 -1.000000
vn 0.000000 0.000000 -1.000000
vn 0.000000 0.000000 -1.000000
vn 0.000000 -1.000000 0.000000
vn 0.000000 -1.000000 0.000000
vn 0.000000 -1.000000 0.000000
vn 0.000000 -1.000000 0.000000
vn -1.000000 0.000000 0.000000
vn -1.000000 0.000000 0.000000
vn -1.000000 0.000000 0.000000
vn -1.000000 0.000000 0.000000
vn -0.997148 0.016734 0.073586
vn -0.929688 0.081678 0.359178
vn -0.968258 0.055425 0.243732
vn -0.997149 0.016734 0.073586
vn -0.087345 0.984378 0.152876
vn -0.017734 0.992503 0.120931
vn 0.010221 0.994108 0.107914
vn -0.087345 0.984378 0.152876
vn 0.998087 -0.013708 -0.060280
vn 0.972329 -0.051802 -0.227799
vn 0.930808 -0.081048 -0.356409
vn 0.998087 -0.013708 -0.060280
vn 0.087345 -0.984378 -0.152875
vn -0.010221 -0.994108 -0.107914
vn 0.017734 -0.992503 -0.120930
vn 0.087345 -0.984378 -0.152875
vn 0.146388 0.984911 -0.092305
vn 0.150374 0.985937 -0.072916
vn 0.649669 -0.168572 -0.741292
vn 0.612211 -0.175329 -0.771010
vn -0.150374 -0.985937 0.072917
vn -0.146388 -0.984911 0.092306
vn -0.619244 0.174111 0.765651
vn -0.655023 0.167550 0.736799
vn 0.058810 0.978183 -0.199248
vn 0.012005 0.975321 -0.220463
vn 0.012005 0.975321 -0.220463
vn 0.062083 0.978286 -0.197742
vn 0.259238 -0.214161 -0.941770
vn 0.283095 -0.212670 -0.935216
vn 0.048294 -0.221483 -0.973968
vn 0.048294 -0.221483 -0.973968
vn -0.058810 -0.978183 0.199249
vn -0.062083 -0.978286 0.197743
vn -0.012005 -0.975322 0.220462
vn -0.012005 -0.975322 0.220462
vn -0.300113 0.211520 0.930157
vn -0.278834 0.212947 0.936432
vn -0.083987 0.220959 0.971660
vn -0.083987 0.220959 0.971660
f 1/1/1 2/2/2 4/4/3 3/3/4
f 3/3/5 4/4/6 6/6/7 5/5/8
f 5/5/9 6/6/10 8/8/11 7/7/12
f 7/7/13 8/8/14 2/10/15 1/9/16
f 7/11/17 1/1/18 3/3/19 5/12/20
f 9/13/21 20/14/22 17/15/23 11/16/24
f 11/16/25 17/15/26 18/17/27 13/18/28
f 13/18/29 18/17/30 19/19/31 15/20/32
f 15/20/33 19/19/34 20/21/35 9/22/36
f 17/15/26 25/23/37 26/24/38 18/17/27
f 19/19/31 18/17/30 26/24/39 27/25/40
f 20/21/35 19/19/34 27/25/41 28/26/42
f 17/15/23 20/14/22 28/27/43 25/23/44
f 21/28/45 12/29/46 14/30/47 22/31/48
f 23/32/49 22/31/50 14/30/51 16/33/52
f 24/34/53 23/32/54 16/33/55 10/35/56
f 21/28/57 24/36/58 10/37/59 12/29/60
f 25/23/37 21/28/45 22/31/48 26/24/38
f 27/25/40 26/24/39 22/31/50 23/32/49
f 28/26/42 27/25/41 23/32/54 24/34/53
f 25/23/44 28/27/43 24/36/58 21/28/57
