# This file uses meters as units for non-parametric coordinates.

v 74.972153 60.540134 233.331512
v 170.150101 60.540134 233.331512
v 74.972153 46.401844 233.331512
v 170.150101 46.401844 233.331512
v 78.370277 63.255905 229.933380
v 166.751984 63.255905 229.933380
v 166.751984 63.255905 -64.917068
v 78.370270 64.002945 -65.698036
v 78.370270 64.002945 48.452709
v 166.751984 63.255905 48.452705
v 74.474487 61.385735 133.901276
v 170.647781 61.385735 133.901276
v 70.776787 46.401844 133.901031
v 70.776787 58.669960 133.901031
v 74.972153 46.401844 51.850815
v 74.972168 60.540134 51.850815
v 174.345459 46.401844 133.901031
v 174.345459 58.669960 133.901031
v 170.150101 46.401844 51.850815
v 170.150101 60.540134 51.850815
v -93.901299 60.540134 51.850815
v -93.901291 46.401844 51.850819
v -93.900345 64.002945 48.452705
v -93.900345 64.002945 -66.479004
v -10.800191 46.401844 48.536884
v -10.800191 60.540134 48.536884
v -10.799954 61.816906 48.452705
v -10.799954 61.816906 -66.479004
v -7.794866 46.401844 51.850819
v -7.794867 60.540134 51.850819
v -7.794653 64.002945 48.452705
v -7.794653 64.002945 -66.479004
v -13.900138 46.401844 51.850819
v -13.900138 60.540134 51.850819
v -13.899878 64.002945 48.452705
v -13.899878 64.002945 -66.479004
v 138.424118 46.401844 240.422897
v 138.424118 60.540138 240.422897
v 137.291412 63.255905 237.024765
v 138.590012 63.782944 133.901276
v 137.291412 65.119812 48.452705
v 137.291412 63.255905 -64.917068
v 106.698135 46.401844 240.422897
v 106.698135 60.540138 240.422897
v 107.830849 63.255905 237.024765
v 106.532249 63.782944 133.901276
v 107.830849 65.119812 48.452705
v 107.830849 63.255905 -64.917068
v 172.368347 46.401848 71.914749
v 172.368347 60.540134 71.914749
v 168.811829 63.255905 71.615944
v 137.978027 65.653114 71.615944
v 107.144234 65.653114 71.615944
v 76.310417 63.255905 71.615944
v 72.753914 60.540134 71.914749
v 72.753906 46.401848 71.914749
v 173.045929 46.401840 214.904236
v 173.045929 60.540138 214.904236
v 169.441025 63.255905 214.610382
v 138.187759 65.653114 215.223602
v 106.934502 65.653114 215.223602
v 75.681236 63.255905 214.610382
v 72.076332 60.540138 214.904236
v 72.076332 46.401840 214.904236
v 171.638733 53.129135 51.850815
v 173.926361 53.129135 71.914749
v 175.965317 51.258965 133.901031
v 174.625137 53.129135 214.904236
v 171.638733 53.129135 235.824875
v 138.920334 53.129135 242.916245
v 106.201920 53.129135 242.916245
v 73.483521 53.129135 235.824875
v 70.497116 53.129135 214.904236
v 69.156921 51.258965 133.901031
v 71.195885 53.129135 71.914749
v 73.483528 53.129135 55.954353
v -7.794867 53.129135 55.954353
v -10.800191 53.129135 52.640419
v -13.900138 53.129135 55.954353
v -93.901291 53.129135 53.126263
v 77.424942 45.359776 230.878738
v 107.515732 45.359776 237.970093
v 74.678375 45.359776 214.692139
v 75.321030 45.359776 71.699074
v 73.445816 45.359776 133.901199
v 167.697311 45.359776 230.878738
v 170.443878 45.359776 214.692139
v 171.676437 45.359776 133.901199
v 169.801224 45.359776 71.699074
v -93.900612 45.359776 49.398029
v -13.899957 45.359776 49.398029
v -10.800027 45.359776 46.084095
v -7.794718 45.359776 49.398029
v 77.424942 45.359776 49.398026
v 137.606522 45.359776 237.970093
v 167.697311 45.359776 49.398026
vt 0.119982 0.135705
vt 0.081851 0.135705
vt 0.081851 0.141595
vt 0.119982 0.141595
vt 0.117722 0.227160
vt 0.080116 0.227160
vt 0.080116 0.132612
vt 0.117722 0.132612
vt 0.117722 0.143015
vt 0.080116 0.143015
vt 0.080116 0.191892
vt 0.117722 0.191892
vt 0.117722 0.245737
vt 0.080116 0.245737
vt 0.080116 0.233587
vt 0.117722 0.233587
vt 0.117722 0.170356
vt 0.080116 0.170356
vt 0.080116 0.206014
vt 0.117722 0.206014
vt 0.080116 0.217115
vt 0.117722 0.217115
vt 0.003799 0.134720
vt 0.003799 0.140610
vt 0.026912 0.140610
vt 0.026912 0.134720
vt 0.028829 0.143015
vt 0.028829 0.191892
vt 0.040920 0.191892
vt 0.040920 0.143015
vt 0.028829 0.245737
vt 0.028829 0.233587
vt 0.040920 0.233587
vt 0.040920 0.245737
vt 0.090460 0.137184
vt 0.003799 0.137184
vt 0.003799 0.143074
vt 0.090460 0.143074
vt 0.076953 0.143015
vt 0.028829 0.143015
vt 0.028829 0.191892
vt 0.076953 0.191892
vt 0.076953 0.245737
vt 0.028829 0.245737
vt 0.028829 0.233587
vt 0.076953 0.233587
vt 0.003799 0.140610
vt 0.003799 0.134720
vt 0.026912 0.134720
vt 0.026912 0.140610
vt 0.011244 0.191892
vt 0.011244 0.143015
vt 0.031013 0.143015
vt 0.031013 0.191892
vt 0.011244 0.233587
vt 0.011244 0.245737
vt 0.031013 0.245737
vt 0.031013 0.233587
vt 0.090460 0.135705
vt 0.090460 0.141595
vt 0.003799 0.141595
vt 0.003799 0.135705
vt 0.084596 0.143015
vt 0.084596 0.191892
vt 0.011244 0.191892
vt 0.011244 0.143015
vt 0.084596 0.245737
vt 0.084596 0.233587
vt 0.011244 0.233587
vt 0.011244 0.245737
vt 0.119982 0.135705
vt 0.064674 0.135705
vt 0.064674 0.141595
vt 0.119982 0.141595
vt 0.121835 0.233587
vt 0.007329 0.233587
vt 0.007329 0.132612
vt 0.121835 0.132612
vt 0.121835 0.143015
vt 0.007329 0.143015
vt 0.007329 0.191892
vt 0.121835 0.191892
vt 0.121835 0.245737
vt 0.007329 0.245737
vt 0.062785 0.141595
vt 0.062785 0.135705
vt 0.060955 0.135705
vt 0.060955 0.141595
vt 0.003481 0.191892
vt 0.003481 0.143015
vt 0.007205 0.143015
vt 0.007205 0.191892
vt 0.003481 0.233587
vt 0.003481 0.245737
vt 0.007205 0.245737
vt 0.007205 0.233587
vt 0.003481 0.132612
vt 0.007205 0.132612
vt 0.003799 0.135705
vt 0.003799 0.141595
vt 0.121638 0.143015
vt 0.121638 0.191892
vt 0.121638 0.245737
vt 0.121638 0.233587
vt 0.121638 0.132612
vt 0.043720 0.141595
vt 0.043720 0.135705
vt 0.003799 0.135705
vt 0.003799 0.141595
vt 0.042510 0.191892
vt 0.042510 0.143015
vt 0.003115 0.143015
vt 0.003115 0.191892
vt 0.042510 0.233587
vt 0.042510 0.245737
vt 0.003115 0.245737
vt 0.003115 0.233587
vt 0.003115 0.217115
vt 0.042510 0.217115
vt 0.042510 0.206014
vt 0.042510 0.170356
vt 0.003115 0.170356
vt 0.003115 0.206014
vt 0.042510 0.132612
vt 0.042510 0.227160
vt 0.003115 0.227160
vt 0.003115 0.132612
vt 0.119982 0.135705
vt 0.119982 0.141595
vt 0.109489 0.143015
vt 0.109489 0.191892
vt 0.109490 0.245737
vt 0.109490 0.233587
vt 0.093693 0.245737
vt 0.093693 0.233587
vt 0.093693 0.143015
vt 0.093693 0.191892
vt 0.119982 0.137184
vt 0.119982 0.143074
vt 0.119982 0.134720
vt 0.119982 0.140610
vt 0.109489 0.143015
vt 0.109489 0.191892
vt 0.109490 0.245737
vt 0.109490 0.233587
vt 0.093693 0.233587
vt 0.093693 0.245737
vt 0.093693 0.191892
vt 0.093693 0.143015
vt 0.119982 0.140610
vt 0.119982 0.134720
vn -0.592869 0.002761 0.805294
vn -0.101095 0.000764 0.994877
vn -0.092505 -0.540228 0.836419
vn -0.534167 -0.523977 0.663411
vn -0.007091 0.999919 0.010522
vn -0.007495 0.999899 -0.012110
vn -0.003114 0.999920 -0.012275
vn -0.001537 0.999997 -0.002042
vn -0.534167 -0.523977 0.663411
vn -0.092505 -0.540228 0.836419
vn -0.111502 0.000355 0.993764
vn -0.573204 0.002013 0.819410
vn -0.533880 0.508135 0.675848
vn -0.096786 0.509628 0.854934
vn -0.028922 0.979093 0.201349
vn -0.124290 0.977107 0.172667
vn -0.145649 0.989336 -0.000744
vn -0.038036 0.999276 -0.000197
vn -0.035672 0.999188 0.018754
vn -0.141277 0.989807 0.017961
vn -0.124290 0.977107 0.172667
vn -0.028922 0.979093 0.201349
vn -0.034479 0.999405 -0.000793
vn -0.140749 0.990029 -0.005789
vn -0.592869 0.002761 0.805294
vn -0.534167 -0.523977 0.663411
vn -0.860345 -0.508061 0.040988
vn -0.999124 0.000518 0.041835
vn -0.534167 -0.523977 0.663411
vn -0.573204 0.002013 0.819410
vn -0.999111 0.002782 0.042071
vn -0.860345 -0.508061 0.040988
vn -0.533880 0.508135 0.675848
vn -0.124290 0.977107 0.172667
vn -0.140749 0.990029 -0.005789
vn -0.889329 0.456327 0.029304
vn -0.998678 -0.000349 -0.051398
vn -0.999989 0.000158 -0.004716
vn -0.852725 -0.522344 -0.004088
vn -0.857982 -0.511326 -0.049130
vn -0.857982 -0.511326 -0.049130
vn -0.852725 -0.522344 -0.004088
vn -0.999982 -0.003706 -0.004789
vn -0.998620 0.003433 -0.052411
vn -0.888485 0.457635 -0.034114
vn -0.891554 0.452895 -0.004328
vn -0.145649 0.989336 -0.000744
vn -0.141277 0.989807 0.017961
vn 0.534167 -0.523976 0.663411
vn 0.592869 0.002760 0.805294
vn 0.999124 0.000518 0.041835
vn 0.860346 -0.508060 0.040988
vn 0.573204 0.002013 0.819410
vn 0.534167 -0.523976 0.663411
vn 0.860346 -0.508060 0.040988
vn 0.999111 0.002782 0.042071
vn 0.124290 0.977107 0.172667
vn 0.533880 0.508134 0.675849
vn 0.889331 0.456325 0.029304
vn 0.140749 0.990029 -0.005789
vn 0.998678 -0.000345 -0.051398
vn 0.858345 -0.510825 -0.047969
vn 0.852726 -0.522343 -0.004088
vn 0.999989 0.000160 -0.004716
vn 0.858345 -0.510825 -0.047969
vn 0.998687 0.003344 -0.051123
vn 0.999982 -0.003706 -0.004790
vn 0.852726 -0.522343 -0.004088
vn 0.887029 0.460446 -0.034180
vn 0.141071 0.989900 0.014066
vn 0.145649 0.989336 -0.000744
vn 0.891555 0.452892 -0.004328
vn 0.000000 0.000004 1.000000
vn 0.057606 0.000284 0.998339
vn 0.025842 -0.553128 0.832695
vn -0.012762 -0.551859 0.833840
vn 0.000000 0.999572 0.029255
vn 0.025981 0.999250 0.028715
vn 0.026297 0.999654 0.000000
vn 0.000000 1.000000 0.000000
vn -0.012762 -0.551859 0.833840
vn 0.025842 -0.553128 0.832695
vn 0.013802 0.000353 0.999905
vn -0.017673 -0.000071 0.999844
vn -0.010511 0.488459 0.872523
vn 0.022762 0.488868 0.872061
vn 0.025981 0.999250 0.028715
vn 0.000000 0.999572 0.029255
vn 0.000964 -0.713007 0.701156
vn 0.008646 -0.015097 0.999849
vn -0.055394 0.000272 0.998465
vn -0.034078 -0.644313 0.764003
vn -0.001574 -0.004284 0.999990
vn 0.000964 -0.713007 0.701156
vn -0.034078 -0.644313 0.764003
vn -0.029768 0.000191 0.999557
vn -0.000078 0.999604 0.028150
vn 0.001431 0.519552 0.854438
vn -0.030106 0.566962 0.823193
vn -0.024300 0.999304 0.028313
vn 0.000000 1.000000 0.000000
vn -0.000078 0.999604 0.028150
vn -0.024300 0.999304 0.028313
vn -0.024726 0.999694 0.000000
vn -0.034078 -0.644313 0.764003
vn -0.055394 0.000272 0.998465
vn -0.225141 -0.010397 0.974271
vn -0.121314 -0.749015 0.651352
vn -0.029768 0.000191 0.999557
vn -0.034078 -0.644313 0.764003
vn -0.121314 -0.749015 0.651352
vn -0.264088 -0.002581 0.964495
vn -0.024300 0.999304 0.028313
vn -0.030106 0.566962 0.823193
vn -0.147766 0.652913 0.742879
vn -0.007091 0.999919 0.010522
vn -0.024726 0.999694 0.000000
vn -0.024300 0.999304 0.028313
vn -0.007091 0.999919 0.010522
vn -0.001537 0.999997 -0.002042
vn 0.025842 -0.553128 0.832695
vn 0.057606 0.000284 0.998339
vn 0.008646 -0.015097 0.999849
vn 0.000964 -0.713007 0.701156
vn 0.013802 0.000353 0.999905
vn 0.025842 -0.553128 0.832695
vn 0.000964 -0.713007 0.701156
vn -0.001574 -0.004284 0.999990
vn 0.025981 0.999250 0.028715
vn 0.022762 0.488868 0.872061
vn 0.001431 0.519552 0.854438
vn -0.000078 0.999604 0.028150
vn 0.026297 0.999654 0.000000
vn 0.025981 0.999250 0.028715
vn -0.000078 0.999604 0.028150
vn 0.000000 1.000000 0.000000
vn 0.092505 -0.540229 0.836418
vn 0.101096 0.000764 0.994876
vn 0.592869 0.002760 0.805294
vn 0.534167 -0.523976 0.663411
vn 0.111502 0.000355 0.993764
vn 0.092505 -0.540229 0.836418
vn 0.534167 -0.523976 0.663411
vn 0.573204 0.002013 0.819410
vn 0.028922 0.979093 0.201349
vn 0.096786 0.509628 0.854934
vn 0.533880 0.508134 0.675849
vn 0.124290 0.977107 0.172667
vn 0.028922 0.979093 0.201349
vn 0.124290 0.977107 0.172667
vn 0.140749 0.990029 -0.005789
vn 0.034479 0.999405 -0.000793
vn 0.037328 0.999167 0.016500
vn 0.038036 0.999276 -0.000197
vn 0.145649 0.989336 -0.000744
vn 0.141071 0.989900 0.014066
vn 0.015814 0.999799 -0.012328
vn 0.019073 0.999726 -0.013557
vn 0.045911 0.998893 -0.010229
vn 0.031617 0.999466 -0.008216
vn -0.092505 -0.540228 0.836419
vn -0.101095 0.000764 0.994877
vn 0.101096 0.000764 0.994876
vn 0.092505 -0.540229 0.836418
vn -0.111502 0.000355 0.993764
vn -0.092505 -0.540228 0.836419
vn 0.092505 -0.540229 0.836418
vn 0.111502 0.000355 0.993764
vn -0.028922 0.979093 0.201349
vn -0.096786 0.509628 0.854934
vn 0.096786 0.509628 0.854934
vn 0.028922 0.979093 0.201349
vn -0.028922 0.979093 0.201349
vn 0.028922 0.979093 0.201349
vn 0.034479 0.999405 -0.000793
vn -0.034479 0.999405 -0.000793
vn -0.035672 0.999188 0.018754
vn -0.038036 0.999276 -0.000197
vn 0.038036 0.999276 -0.000197
vn 0.037328 0.999167 0.016500
vn -0.003114 0.999920 -0.012275
vn -0.007495 0.999899 -0.012110
vn 0.019073 0.999726 -0.013557
vn 0.015814 0.999799 -0.012328
vn 0.994783 -0.010333 -0.101490
vn 0.837276 -0.538939 -0.092268
vn 0.858345 -0.510825 -0.047969
vn 0.998678 -0.000345 -0.051398
vn 0.837276 -0.538939 -0.092268
vn 0.993755 -0.000146 -0.111587
vn 0.998687 0.003344 -0.051123
vn 0.858345 -0.510825 -0.047969
vn 0.861451 0.499351 -0.092470
vn 0.045911 0.998893 -0.010229
vn 0.141071 0.989900 0.014066
vn 0.887029 0.460446 -0.034180
vn 0.019073 0.999726 -0.013557
vn 0.037328 0.999167 0.016500
vn 0.141071 0.989900 0.014066
vn 0.045911 0.998893 -0.010229
vn -0.007495 0.999899 -0.012110
vn -0.035672 0.999188 0.018754
vn 0.037328 0.999167 0.016500
vn 0.019073 0.999726 -0.013557
vn -0.141277 0.989807 0.017961
vn -0.035672 0.999188 0.018754
vn -0.007495 0.999899 -0.012110
vn -0.007091 0.999919 0.010522
vn -0.147766 0.652913 0.742879
vn -0.888485 0.457635 -0.034114
vn -0.141277 0.989807 0.017961
vn -0.007091 0.999919 0.010522
vn -0.121314 -0.749015 0.651352
vn -0.857982 -0.511326 -0.049130
vn -0.998620 0.003433 -0.052411
vn -0.264088 -0.002581 0.964495
vn -0.225141 -0.010397 0.974271
vn -0.998678 -0.000349 -0.051398
vn -0.857982 -0.511326 -0.049130
vn -0.121314 -0.749015 0.651352
vn 0.860346 -0.508060 0.040988
vn 0.999124 0.000518 0.041835
vn 0.999989 0.000160 -0.004716
vn 0.852726 -0.522343 -0.004088
vn 0.999111 0.002782 0.042071
vn 0.860346 -0.508060 0.040988
vn 0.852726 -0.522343 -0.004088
vn 0.999982 -0.003706 -0.004790
vn 0.140749 0.990029 -0.005789
vn 0.889331 0.456325 0.029304
vn 0.891555 0.452892 -0.004328
vn 0.145649 0.989336 -0.000744
vn 0.034479 0.999405 -0.000793
vn 0.140749 0.990029 -0.005789
vn 0.145649 0.989336 -0.000744
vn 0.038036 0.999276 -0.000197
vn -0.034479 0.999405 -0.000793
vn 0.034479 0.999405 -0.000793
vn 0.038036 0.999276 -0.000197
vn -0.038036 0.999276 -0.000197
vn -0.140749 0.990029 -0.005789
vn -0.034479 0.999405 -0.000793
vn -0.038036 0.999276 -0.000197
vn -0.145649 0.989336 -0.000744
vn -0.889329 0.456327 0.029304
vn -0.140749 0.990029 -0.005789
vn -0.145649 0.989336 -0.000744
vn -0.891554 0.452895 -0.004328
vn -0.860345 -0.508061 0.040988
vn -0.999111 0.002782 0.042071
vn -0.999982 -0.003706 -0.004789
vn -0.852725 -0.522344 -0.004088
vn -0.999124 0.000518 0.041835
vn -0.860345 -0.508061 0.040988
vn -0.852725 -0.522344 -0.004088
vn -0.999989 0.000158 -0.004716
vn 0.993755 -0.000146 -0.111587
vn 0.861451 0.499351 -0.092470
vn 0.887029 0.460446 -0.034180
vn 0.998687 0.003344 -0.051123
vn 0.999982 -0.003706 -0.004790
vn 0.998687 0.003344 -0.051123
vn 0.887029 0.460446 -0.034180
vn 0.891555 0.452892 -0.004328
vn 0.889331 0.456325 0.029304
vn 0.999111 0.002782 0.042071
vn 0.999982 -0.003706 -0.004790
vn 0.891555 0.452892 -0.004328
vn 0.533880 0.508134 0.675849
vn 0.573204 0.002013 0.819410
vn 0.999111 0.002782 0.042071
vn 0.889331 0.456325 0.029304
vn 0.096786 0.509628 0.854934
vn 0.111502 0.000355 0.993764
vn 0.573204 0.002013 0.819410
vn 0.533880 0.508134 0.675849
vn -0.096786 0.509628 0.854934
vn -0.111502 0.000355 0.993764
vn 0.111502 0.000355 0.993764
vn 0.096786 0.509628 0.854934
vn -0.573204 0.002013 0.819410
vn -0.111502 0.000355 0.993764
vn -0.096786 0.509628 0.854934
vn -0.533880 0.508135 0.675848
vn -0.999111 0.002782 0.042071
vn -0.573204 0.002013 0.819410
vn -0.533880 0.508135 0.675848
vn -0.889329 0.456327 0.029304
vn -0.999982 -0.003706 -0.004789
vn -0.999111 0.002782 0.042071
vn -0.889329 0.456327 0.029304
vn -0.891554 0.452895 -0.004328
vn -0.998620 0.003433 -0.052411
vn -0.999982 -0.003706 -0.004789
vn -0.891554 0.452895 -0.004328
vn -0.888485 0.457635 -0.034114
vn -0.264088 -0.002581 0.964495
vn -0.998620 0.003433 -0.052411
vn -0.888485 0.457635 -0.034114
vn -0.147766 0.652913 0.742879
vn -0.030106 0.566962 0.823193
vn -0.029768 0.000191 0.999557
vn -0.264088 -0.002581 0.964495
vn -0.147766 0.652913 0.742879
vn 0.001431 0.519552 0.854438
vn -0.001574 -0.004284 0.999990
vn -0.029768 0.000191 0.999557
vn -0.030106 0.566962 0.823193
vn 0.022762 0.488868 0.872061
vn 0.013802 0.000353 0.999905
vn -0.001574 -0.004284 0.999990
vn 0.001431 0.519552 0.854438
vn -0.017673 -0.000071 0.999844
vn 0.013802 0.000353 0.999905
vn 0.022762 0.488868 0.872061
vn -0.010511 0.488459 0.872523
f 81/1/1 82/2/2 43/3/3 3/4/4
f 9/5/5 47/6/6 48/7/7 8/8/8
f 3/9/9 43/10/10 71/11/11 72/12/12
f 1/13/13 44/14/14 45/15/15 5/16/16
f 11/17/17 46/18/18 53/19/19 54/20/20
f 5/16/21 45/15/22 61/21/23 62/22/24
f 81/23/25 3/24/26 64/25/27 83/26/28
f 3/27/29 72/28/30 73/29/31 64/30/32
f 1/31/33 5/32/34 62/33/35 63/34/36
f 84/35/37 85/36/38 13/37/39 56/38/40
f 56/39/41 13/40/42 74/41/43 75/42/44
f 55/43/45 14/44/46 11/45/47 54/46/48
f 4/47/49 86/48/50 87/49/51 57/50/52
f 69/51/53 4/52/54 57/53/55 68/54/56
f 6/55/57 2/56/58 58/57/59 59/58/60
f 89/59/61 49/60/62 17/61/63 88/62/64
f 49/63/65 66/64/66 67/65/67 17/66/68
f 50/67/69 51/68/70 12/69/71 18/70/72
f 90/71/73 91/72/74 33/73/75 22/74/76
f 23/75/77 35/76/78 36/77/79 24/78/80
f 22/79/81 33/80/82 79/81/83 80/82/84
f 21/83/85 34/84/86 35/76/87 23/75/88
f 25/85/89 92/86/90 93/87/91 29/88/92
f 78/89/93 25/90/94 29/91/95 77/92/96
f 27/93/97 26/94/98 30/95/99 31/96/100
f 28/97/101 27/93/102 31/96/103 32/98/104
f 29/88/105 93/87/106 94/99/107 15/100/108
f 77/92/109 29/91/110 15/101/111 76/102/112
f 31/96/113 30/95/114 16/103/115 9/104/116
f 32/98/117 31/96/118 9/104/119 8/105/120
f 33/73/121 91/72/122 92/86/123 25/85/124
f 79/81/125 33/80/126 25/90/127 78/89/128
f 35/76/129 34/84/130 26/94/131 27/93/132
f 36/77/133 35/76/134 27/93/135 28/97/136
f 37/106/137 95/107/138 86/108/139 4/109/140
f 70/110/141 37/111/142 4/112/143 69/113/144
f 39/114/145 38/115/146 2/116/147 6/117/148
f 39/114/149 6/117/150 59/118/151 60/119/152
f 52/120/153 40/121/154 12/122/155 51/123/156
f 42/124/157 41/125/158 10/126/159 7/127/160
f 43/3/161 82/2/162 95/107/163 37/106/164
f 71/11/165 43/10/166 37/111/167 70/110/168
f 45/15/169 44/14/170 38/115/171 39/114/172
f 45/15/173 39/114/174 60/119/175 61/21/176
f 53/19/177 46/18/178 40/121/179 52/120/180
f 48/7/181 47/6/182 41/125/183 42/124/184
f 96/128/185 19/129/186 49/60/187 89/59/188
f 19/130/189 65/131/190 66/64/191 49/63/192
f 20/132/193 10/133/194 51/68/195 50/67/196
f 41/125/197 52/120/198 51/123/199 10/126/200
f 47/6/201 53/19/202 52/120/203 41/125/204
f 54/20/205 53/19/206 47/6/207 9/5/208
f 16/134/209 55/43/210 54/46/211 9/135/212
f 15/136/213 56/39/214 75/42/215 76/137/216
f 94/138/217 84/35/218 56/38/219 15/139/220
f 57/50/221 87/49/222 88/140/223 17/141/224
f 68/54/225 57/53/226 17/142/227 67/143/228
f 59/58/229 58/57/230 18/144/231 12/145/232
f 60/119/233 59/118/234 12/122/235 40/121/236
f 61/21/237 60/119/238 40/121/239 46/18/240
f 62/22/241 61/21/242 46/18/243 11/17/244
f 63/34/245 62/33/246 11/146/247 14/147/248
f 64/30/249 73/29/250 74/148/251 13/149/252
f 83/26/253 64/25/254 13/150/255 85/151/256
f 65/131/257 20/132/258 50/67/259 66/64/260
f 67/65/261 66/64/262 50/67/263 18/70/264
f 58/57/265 68/54/266 67/143/267 18/144/268
f 2/56/269 69/51/270 68/54/271 58/57/272
f 38/115/273 70/110/274 69/113/275 2/116/276
f 44/14/277 71/11/278 70/110/279 38/115/280
f 72/12/281 71/11/282 44/14/283 1/13/284
f 73/29/285 72/28/286 1/31/287 63/34/288
f 74/148/289 73/29/290 63/34/291 14/147/292
f 75/42/293 74/41/294 14/44/295 55/43/296
f 76/137/297 75/42/298 55/43/299 16/134/300
f 30/95/301 77/92/302 76/102/303 16/103/304
f 26/94/305 78/89/306 77/92/307 30/95/308
f 34/84/309 79/81/310 78/89/311 26/94/312
f 80/82/313 79/81/314 34/84/315 21/83/316
