# This file uses meters as units for non-parametric coordinates.

v -17.944214 24.047226 -48.447983
v -35.376495 24.047226 -27.624168
v -39.252045 28.298866 -27.624168
v -21.819824 28.298866 -48.447983
v -19.352081 49.740837 -46.306122
v -36.784363 49.740837 -26.329056
v -16.768951 49.750580 -26.329058
v 0.663239 49.750580 -58.413666
v -17.944214 24.047226 47.341019
v 0.683075 24.047226 60.015358
v 0.628571 28.298866 60.015358
v -21.819824 28.298866 47.341019
v 0.683075 24.047226 -61.122322
v 0.628571 28.298866 -61.122322
v -21.819824 45.337570 -48.447983
v 0.628571 45.341934 -61.122322
v 0.628571 45.341934 60.015358
v -21.819824 45.337570 47.341019
v -39.252045 45.337570 -27.624168
v 0.663239 49.750580 57.571198
v -19.352081 49.740837 45.408302
v 20.370728 49.750580 -26.329058
v 20.370728 49.750580 -63.384216
v 20.358063 45.341934 -66.325562
v 20.358063 28.298866 -66.325562
v 20.377930 24.047226 -66.325562
v 20.377930 24.047226 65.218597
v 20.358063 28.298866 65.218597
v 20.358063 45.341934 65.218597
v 20.370728 49.750580 62.564461
v 41.662598 45.337570 -66.325562
v 38.474823 49.740837 -63.384216
v 41.662598 28.298866 -66.325562
v 38.474823 23.953028 -66.325562
v 38.474823 24.047226 65.218597
v 41.662598 28.298866 65.218597
v 41.662598 45.337570 65.218597
v 38.474823 49.740837 62.564461
v 38.474823 49.740837 -26.329056
v -39.252045 28.298866 20.473604
v -35.376495 24.047226 20.473604
v -39.252045 45.337570 20.473604
v -36.784363 48.858063 19.722788
v -16.768951 49.750580 19.722788
v 20.370728 49.750580 19.722788
v 38.474823 49.740837 19.722788
v 41.662598 45.337570 -26.329056
v 41.662598 45.337570 19.722788
v 41.662598 28.298866 -22.477505
v 38.474823 23.984428 -22.477505
v 41.662598 28.298866 21.370546
v 38.474823 24.015827 21.370546
vt 0.169507 0.147895
vt 0.177382 0.147895
vt 0.177382 0.154829
vt 0.169507 0.154829
vt 0.212258 0.211645
vt 0.199434 0.233859
vt 0.199434 0.208353
vt 0.220030 0.186138
vt 0.206985 0.147895
vt 0.217126 0.147895
vt 0.217126 0.154829
vt 0.206985 0.154829
vt 0.159366 0.147895
vt 0.159366 0.154829
vt 0.169507 0.231611
vt 0.159366 0.231611
vt 0.217126 0.231611
vt 0.206985 0.231611
vt 0.177382 0.231611
vt 0.221769 0.186183
vt 0.213633 0.214789
vt 0.150992 0.214731
vt 0.144120 0.188417
vt 0.146141 0.186142
vt 0.152594 0.210601
vt 0.200265 0.237004
vt 0.199434 0.161024
vt 0.223221 0.161025
vt 0.225109 0.161041
vt 0.150453 0.154829
vt 0.150453 0.231611
vt 0.150453 0.147895
vt 0.226039 0.147895
vt 0.226039 0.154829
vt 0.226039 0.231611
vt 0.139877 0.163193
vt 0.142027 0.162062
vt 0.225109 0.139674
vt 0.222201 0.139674
vt 0.142270 0.154829
vt 0.142270 0.231611
vt 0.142270 0.147895
vt 0.234223 0.147895
vt 0.234223 0.154829
vt 0.234223 0.231611
vt 0.140666 0.139674
vt 0.144068 0.139674
vt 0.198527 0.139674
vt 0.199110 0.154829
vt 0.199110 0.147895
vt 0.199110 0.231611
vt 0.169871 0.233859
vt 0.169390 0.237004
vt 0.169871 0.208353
vt 0.169871 0.161025
vt 0.170439 0.139674
vt 0.197620 0.144651
vt 0.221182 0.144651
vt 0.145764 0.144651
vt 0.171007 0.144651
vt 0.201260 0.156277
vt 0.201260 0.148736
vt 0.226050 0.148736
vt 0.226050 0.156277
vt 0.173259 0.156277
vt 0.173259 0.148736
vt 0.146700 0.156277
vt 0.146700 0.148736
vt 0.173259 0.231072
vt 0.146700 0.231072
vt 0.201260 0.231072
vt 0.226050 0.231072
vn -0.574067 -0.384156 -0.723098
vn -0.721606 -0.657777 -0.215903
vn -0.958896 -0.162326 -0.232742
vn -0.651099 -0.107754 -0.751305
vn -0.161797 0.967526 -0.194202
vn -0.235814 0.970423 -0.051688
vn -0.005503 0.999982 0.002245
vn -0.049849 0.992494 -0.111670
vn -0.608805 -0.429019 0.667307
vn -0.401395 -0.131995 0.906344
vn -0.393350 -0.026102 0.919018
vn -0.711848 -0.120909 0.691848
vn -0.401395 -0.131995 -0.906344
vn -0.574067 -0.384156 -0.723098
vn -0.651099 -0.107754 -0.751305
vn -0.393350 -0.026102 -0.919018
vn -0.393350 -0.026102 -0.919018
vn -0.651099 -0.107754 -0.751305
vn -0.640391 0.125033 -0.757804
vn -0.384783 0.119658 -0.915218
vn -0.711848 -0.120909 0.691848
vn -0.393350 -0.026102 0.919018
vn -0.385607 0.109818 0.916104
vn -0.700637 0.118062 0.703683
vn -0.651099 -0.107754 -0.751305
vn -0.958896 -0.162326 -0.232742
vn -0.961255 0.116946 -0.249625
vn -0.640391 0.125033 -0.757804
vn -0.384783 0.119658 -0.915218
vn -0.640391 0.125033 -0.757804
vn -0.161797 0.967526 -0.194202
vn -0.049849 0.992494 -0.111670
vn -0.700637 0.118062 0.703683
vn -0.385607 0.109818 0.916104
vn -0.045650 0.994222 0.097154
vn -0.170117 0.972910 0.156543
vn -0.640391 0.125033 -0.757804
vn -0.961255 0.116946 -0.249625
vn -0.235814 0.970423 -0.051688
vn -0.161797 0.967526 -0.194202
vn -0.049849 0.992494 -0.111670
vn -0.005503 0.999982 0.002245
vn 0.000194 1.000000 0.000000
vn -0.014882 0.993529 -0.112600
vn -0.124144 0.123741 -0.984518
vn -0.384783 0.119658 -0.915218
vn -0.049849 0.992494 -0.111670
vn -0.014882 0.993529 -0.112600
vn -0.126716 -0.000222 -0.991939
vn -0.393350 -0.026102 -0.919018
vn -0.384783 0.119658 -0.915218
vn -0.124144 0.123741 -0.984518
vn -0.129529 -0.001133 -0.991575
vn -0.401395 -0.131995 -0.906344
vn -0.393350 -0.026102 -0.919018
vn -0.126716 -0.000222 -0.991939
vn -0.393350 -0.026102 0.919018
vn -0.401395 -0.131995 0.906344
vn -0.130507 -0.001141 0.991447
vn -0.126859 -0.000222 0.991921
vn -0.385607 0.109818 0.916104
vn -0.393350 -0.026102 0.919018
vn -0.126859 -0.000222 0.991921
vn -0.124454 0.112121 0.985870
vn -0.045650 0.994222 0.097154
vn -0.385607 0.109818 0.916104
vn -0.124454 0.112121 0.985870
vn -0.012957 0.995072 0.098301
vn 0.884805 0.129985 -0.447463
vn -0.124144 0.123741 -0.984518
vn -0.014882 0.993529 -0.112600
vn 0.236678 0.963693 -0.123611
vn 0.900515 -0.139213 -0.411938
vn -0.126716 -0.000222 -0.991939
vn -0.124144 0.123741 -0.984518
vn 0.884805 0.129985 -0.447463
vn 0.719384 -0.529598 -0.449459
vn -0.129529 -0.001133 -0.991575
vn -0.126716 -0.000222 -0.991939
vn 0.900515 -0.139213 -0.411938
vn -0.126859 -0.000222 0.991921
vn -0.130507 -0.001141 0.991447
vn 0.714975 -0.534098 0.451165
vn 0.908714 -0.133948 0.395345
vn -0.124454 0.112121 0.985870
vn -0.126859 -0.000222 0.991921
vn 0.908714 -0.133948 0.395345
vn 0.898238 0.133726 0.418671
vn -0.012957 0.995072 0.098301
vn -0.124454 0.112121 0.985870
vn 0.898238 0.133726 0.418671
vn 0.235912 0.965487 0.110366
vn -0.014882 0.993529 -0.112600
vn 0.000194 1.000000 0.000000
vn 0.205859 0.978582 0.000000
vn 0.236678 0.963693 -0.123611
vn -0.962504 -0.162988 0.216845
vn -0.725220 -0.661071 0.192461
vn -0.608805 -0.429019 0.667307
vn -0.711848 -0.120909 0.691848
vn -0.967377 0.114784 0.225844
vn -0.962504 -0.162988 0.216845
vn -0.711848 -0.120909 0.691848
vn -0.700637 0.118062 0.703683
vn -0.232982 0.970840 0.056474
vn -0.967377 0.114784 0.225844
vn -0.700637 0.118062 0.703683
vn -0.170117 0.972910 0.156543
vn -0.008638 0.999961 0.001843
vn -0.232982 0.970840 0.056474
vn -0.170117 0.972910 0.156543
vn -0.045650 0.994222 0.097154
vn 0.000195 1.000000 0.000000
vn -0.008638 0.999961 0.001843
vn -0.045650 0.994222 0.097154
vn -0.012957 0.995072 0.098301
vn 0.205406 0.978677 0.000000
vn 0.000195 1.000000 0.000000
vn -0.012957 0.995072 0.098301
vn 0.235912 0.965487 0.110366
vn 0.205859 0.978582 0.000000
vn 0.000194 1.000000 0.000000
vn 0.000195 1.000000 0.000000
vn 0.205406 0.978677 0.000000
vn 0.000194 1.000000 0.000000
vn -0.005503 0.999982 0.002245
vn -0.008638 0.999961 0.001843
vn 0.000195 1.000000 0.000000
vn -0.005503 0.999982 0.002245
vn -0.235814 0.970423 -0.051688
vn -0.232982 0.970840 0.056474
vn -0.008638 0.999961 0.001843
vn -0.235814 0.970423 -0.051688
vn -0.961255 0.116946 -0.249625
vn -0.967377 0.114784 0.225844
vn -0.232982 0.970840 0.056474
vn -0.961255 0.116946 -0.249625
vn -0.958896 -0.162326 -0.232742
vn -0.962504 -0.162988 0.216845
vn -0.967377 0.114784 0.225844
vn -0.958896 -0.162326 -0.232742
vn -0.721606 -0.657777 -0.215903
vn -0.725220 -0.661071 0.192461
vn -0.962504 -0.162988 0.216845
vn 0.236678 0.963693 -0.123611
vn 0.205859 0.978582 0.000000
vn 0.989494 0.144573 0.000000
vn 0.884805 0.129985 -0.447463
vn 0.205406 0.978677 0.000000
vn 0.235912 0.965487 0.110366
vn 0.898238 0.133726 0.418671
vn 0.989018 0.147794 0.000000
vn 0.205859 0.978582 0.000000
vn 0.205406 0.978677 0.000000
vn 0.989018 0.147794 0.000000
vn 0.989494 0.144573 0.000000
vn 0.988961 -0.148173 0.000053
vn 0.804280 -0.594251 0.000213
vn 0.719384 -0.529598 -0.449459
vn 0.900515 -0.139213 -0.411938
vn 0.989374 -0.145391 0.000052
vn 0.802198 -0.597058 0.000214
vn 0.804280 -0.594251 0.000213
vn 0.988961 -0.148173 0.000053
vn 0.908714 -0.133948 0.395345
vn 0.714975 -0.534098 0.451165
vn 0.802198 -0.597058 0.000214
vn 0.989374 -0.145391 0.000052
vn 0.989018 0.147794 0.000000
vn 0.898238 0.133726 0.418671
vn 0.908714 -0.133948 0.395345
vn 0.989374 -0.145391 0.000052
vn 0.989494 0.144573 0.000000
vn 0.989018 0.147794 0.000000
vn 0.989374 -0.145391 0.000052
vn 0.988961 -0.148173 0.000053
vn 0.884805 0.129985 -0.447463
vn 0.989494 0.144573 0.000000
vn 0.988961 -0.148173 0.000053
vn 0.900515 -0.139213 -0.411938
f 1/1/1 2/2/2 3/3/3 4/4/4
f 5/5/5 6/6/6 7/7/7 8/8/8
f 9/9/9 10/10/10 11/11/11 12/12/12
f 13/13/13 1/1/14 4/4/15 14/14/16
f 14/14/17 4/4/18 15/15/19 16/16/20
f 12/12/21 11/11/22 17/17/23 18/18/24
f 4/4/25 3/3/26 19/19/27 15/15/28
f 16/20/29 15/21/30 5/5/31 8/8/32
f 18/22/33 17/23/34 20/24/35 21/25/36
f 15/21/37 19/26/38 6/6/39 5/5/40
f 8/8/41 7/7/42 22/27/43 23/28/44
f 24/29/45 16/20/46 8/8/47 23/28/48
f 25/30/49 14/14/50 16/16/51 24/31/52
f 26/32/53 13/13/54 14/14/55 25/30/56
f 11/11/57 10/10/58 27/33/59 28/34/60
f 17/17/61 11/11/62 28/34/63 29/35/64
f 20/24/65 17/23/66 29/36/67 30/37/68
f 31/38/69 24/29/70 23/28/71 32/39/72
f 33/40/73 25/30/74 24/31/75 31/41/76
f 34/42/77 26/32/78 25/30/79 33/40/80
f 28/34/81 27/33/82 35/43/83 36/44/84
f 29/35/85 28/34/86 36/44/87 37/45/88
f 30/37/89 29/36/90 37/46/91 38/47/92
f 23/28/93 22/27/94 39/48/95 32/39/96
f 40/49/97 41/50/98 9/9/99 12/12/100
f 42/51/101 40/49/102 12/12/103 18/18/104
f 43/52/105 42/53/106 18/22/107 21/25/108
f 44/54/109 43/52/110 21/25/111 20/24/112
f 45/55/113 44/54/114 20/24/115 30/37/116
f 46/56/117 45/55/118 30/37/119 38/47/120
f 39/48/121 22/27/122 45/55/123 46/56/124
f 22/27/125 7/7/126 44/54/127 45/55/128
f 7/7/129 6/6/130 43/52/131 44/54/132
f 6/6/133 19/26/134 42/53/135 43/52/136
f 19/19/137 3/3/138 40/49/139 42/51/140
f 3/3/141 2/2/142 41/50/143 40/49/144
f 32/39/145 39/48/146 47/57/147 31/58/148
f 46/56/149 38/47/150 37/59/151 48/60/152
f 39/48/153 46/56/154 48/60/155 47/57/156
f 49/61/157 50/62/158 34/63/159 33/64/160
f 51/65/161 52/66/162 50/62/163 49/61/164
f 36/67/165 35/68/166 52/66/167 51/65/168
f 48/69/169 37/70/170 36/67/171 51/65/172
f 47/71/173 48/69/174 51/65/175 49/61/176
f 31/72/177 47/71/178 49/61/179 33/64/180
