# This file uses meters as units for non-parametric coordinates.

v 22.210474 45.751350 -35.227051
v 22.750029 44.640480 -39.692181
v 22.289547 29.182110 -38.888775
v 22.289547 29.182110 38.888775
v 22.750029 44.640480 39.692181
v 22.210474 45.751350 35.227051
v -22.227863 45.751350 -35.227051
v -22.732290 44.640480 -39.692181
v -22.272167 29.182110 -38.888775
v -22.272167 29.182110 38.888775
v -22.732290 44.640480 39.692181
v -22.227863 45.751350 35.227051
v -50.000000 29.182110 34.249489
v -45.204639 29.182110 38.888775
v -51.032955 44.640480 34.957054
v -46.138527 44.640480 39.692181
v 45.204639 29.182110 38.888775
v 50.000000 29.182110 34.249489
v 46.138527 44.640480 39.692181
v 51.032955 44.640480 34.957054
v 45.292053 45.751350 29.373957
v 37.934742 45.751350 35.227051
v -45.292053 45.751350 29.373957
v -37.934742 45.751350 35.227051
v -37.934742 45.751350 -35.227051
v -45.292053 45.751350 -29.373957
v -51.032955 44.640480 -34.957054
v -46.138527 44.640480 -39.692181
v 45.292053 45.751350 -29.373957
v 37.934742 45.751350 -35.227051
v 51.032955 44.640480 -34.957054
v 46.138527 44.640480 -39.692181
v -45.204639 29.182110 -38.888775
v -50.000000 29.182110 -34.249489
v 45.204639 29.182110 -38.888775
v 50.000000 29.182110 -34.249489
v -0.008695 45.751350 -35.227051
v 0.008869 44.640480 -39.692181
v 0.008690 29.182110 -38.888775
v 0.008690 29.182110 38.888775
v 0.008869 44.640480 39.692181
v -0.008695 45.751350 35.227051
v 0.009115 31.093540 40.791710
v -23.362003 31.093540 40.791710
v -47.416622 31.093540 40.791710
v -52.446632 31.093540 35.925407
v -52.446632 31.093540 -35.925407
v -47.416622 31.093540 -40.791710
v -23.362003 31.093540 -40.791710
v 0.009115 31.093540 -40.791710
v 23.380234 31.093540 -40.791710
v 47.416622 31.093540 -40.791710
v 52.446632 31.093540 -35.925407
v 52.446632 31.093540 35.925407
v 47.416622 31.093540 40.791710
v 23.380234 31.093540 40.791710
v -23.648161 37.867012 41.291359
v -47.997421 37.867012 41.291359
v -53.089043 37.867012 36.365456
v -53.089043 37.867012 -36.365456
v -47.997421 37.867012 -41.291359
v -23.648161 37.867012 -41.291359
v 0.009227 37.867012 -41.291359
v 23.666615 37.867012 -41.291359
v 47.997421 37.867012 -41.291359
v 53.089043 37.867012 -36.365456
v 53.089043 37.867012 36.365456
v 47.997421 37.867012 41.291359
v 23.666615 37.867012 41.291359
v 0.009227 37.867012 41.291359
vt 0.202807 0.443738
vt 0.202758 0.446841
vt 0.185338 0.446841
vt 0.185319 0.443738
vt 0.202806 0.384889
vt 0.202807 0.414315
vt 0.185319 0.414314
vt 0.185319 0.384889
vt 0.171287 0.414314
vt 0.171287 0.384889
vt 0.187715 0.384889
vt 0.187715 0.414314
vt 0.171333 0.446841
vt 0.171287 0.443738
vt 0.187715 0.443738
vt 0.187697 0.446841
vt 0.136090 0.384889
vt 0.141040 0.384889
vt 0.141410 0.414315
vt 0.135721 0.414314
vt 0.135352 0.443738
vt 0.141778 0.443738
vt 0.143432 0.449982
vt 0.132618 0.449244
vt 0.234370 0.384889
vt 0.239320 0.384889
vt 0.238074 0.414584
vt 0.235897 0.413713
vt 0.237425 0.442536
vt 0.236827 0.444278
vt 0.227851 0.441418
vt 0.235601 0.436073
vt 0.227617 0.441354
vt 0.235502 0.436106
vt 0.237626 0.442583
vt 0.237145 0.444287
vt 0.238712 0.414588
vt 0.236318 0.413737
vt 0.235008 0.384889
vt 0.240278 0.384889
vt 0.142090 0.436233
vt 0.149877 0.441552
vt 0.142630 0.444357
vt 0.136892 0.442623
vt 0.136713 0.413757
vt 0.142236 0.414624
vt 0.141842 0.384889
vt 0.136534 0.384889
vt 0.135817 0.384889
vt 0.137641 0.414344
vt 0.148545 0.446841
vt 0.139462 0.443797
vt 0.149654 0.440513
vt 0.227018 0.446841
vt 0.167831 0.443738
vt 0.167917 0.446841
vt 0.128488 0.446841
vt 0.167831 0.384889
vt 0.167831 0.414314
vt 0.204141 0.414314
vt 0.204141 0.384889
vt 0.204060 0.446841
vt 0.204141 0.443738
vt 0.226866 0.446841
vt 0.187715 0.429026
vt 0.171287 0.429026
vt 0.141593 0.429026
vt 0.135537 0.429026
vt 0.237928 0.429437
vt 0.138551 0.429069
vt 0.236973 0.428160
vt 0.202807 0.429026
vt 0.185319 0.429026
vt 0.167831 0.429026
vt 0.136802 0.428190
vt 0.142433 0.429490
vt 0.237450 0.429432
vt 0.236661 0.428124
vt 0.204141 0.429026
vn 0.000000 0.583149 -0.812365
vn 0.000000 0.322998 -0.946400
vn 0.000000 0.315825 -0.948818
vn 0.000000 0.602500 -0.798119
vn 0.000000 -0.705530 -0.708680
vn 0.000000 -0.262990 -0.964799
vn 0.000000 -0.262444 -0.964947
vn 0.000000 -0.705530 -0.708680
vn 0.000000 -0.262991 0.964798
vn 0.000000 -0.705530 0.708680
vn 0.000000 -0.705530 0.708680
vn 0.000000 -0.262444 0.964947
vn 0.000000 0.322999 0.946399
vn 0.000000 0.583150 0.812365
vn 0.000000 0.602500 0.798119
vn 0.000000 0.315825 0.948817
vn -0.600940 -0.798591 0.033518
vn -0.077648 -0.747093 0.660169
vn -0.167272 -0.252332 0.953073
vn -0.957435 -0.281415 0.064222
vn -0.814872 0.577011 0.055159
vn -0.132762 0.578351 0.804913
vn -0.097298 0.353150 0.930493
vn -0.914348 0.400610 0.058994
vn 0.077696 -0.747116 0.660137
vn 0.600940 -0.798591 0.033518
vn 0.957435 -0.281415 0.064222
vn 0.167371 -0.252368 0.953046
vn 0.132822 0.578500 0.804796
vn 0.814872 0.577011 0.055159
vn 0.914348 0.400610 0.058994
vn 0.097299 0.353138 0.930498
vn -0.914348 0.400610 -0.058994
vn -0.097298 0.353149 -0.930494
vn -0.132762 0.578350 -0.804913
vn -0.814872 0.577011 -0.055159
vn -0.957435 -0.281415 -0.064222
vn -0.167272 -0.252332 -0.953073
vn -0.077648 -0.747093 -0.660169
vn -0.600940 -0.798591 -0.033518
vn 0.097299 0.353139 -0.930498
vn 0.914348 0.400610 -0.058994
vn 0.814872 0.577011 -0.055159
vn 0.132822 0.578500 -0.804796
vn 0.167371 -0.252368 -0.953046
vn 0.957435 -0.281415 -0.064222
vn 0.600940 -0.798591 -0.033518
vn 0.077696 -0.747116 -0.660137
vn -0.167272 -0.252332 0.953073
vn -0.077648 -0.747093 0.660169
vn 0.000000 -0.705530 0.708680
vn 0.000000 -0.262991 0.964798
vn -0.167272 -0.252332 -0.953073
vn 0.000000 -0.262990 -0.964799
vn 0.000000 -0.705530 -0.708680
vn -0.077648 -0.747093 -0.660169
vn 0.957435 -0.281415 0.064222
vn 0.600940 -0.798591 0.033518
vn 0.600940 -0.798591 -0.033518
vn 0.957435 -0.281415 -0.064222
vn -0.957435 -0.281415 -0.064222
vn -0.600940 -0.798591 -0.033518
vn -0.600940 -0.798591 0.033518
vn -0.957435 -0.281415 0.064222
vn -0.132762 0.578351 0.804913
vn 0.000000 0.583150 0.812365
vn 0.000000 0.322999 0.946399
vn -0.097298 0.353150 0.930493
vn -0.814872 0.577011 -0.055159
vn -0.814872 0.577011 0.055159
vn -0.914348 0.400610 0.058994
vn -0.914348 0.400610 -0.058994
vn -0.097298 0.353149 -0.930494
vn 0.000000 0.322998 -0.946400
vn 0.000000 0.583149 -0.812365
vn -0.132762 0.578350 -0.804913
vn 0.814872 0.577011 0.055159
vn 0.814872 0.577011 -0.055159
vn 0.914348 0.400610 -0.058994
vn 0.914348 0.400610 0.058994
vn 0.000000 0.583153 -0.812362
vn 0.000000 0.322905 -0.946431
vn 0.097299 0.353139 -0.930498
vn 0.132822 0.578500 -0.804796
vn 0.000000 -0.705530 -0.708680
vn 0.000000 -0.262976 -0.964802
vn 0.167371 -0.252368 -0.953046
vn 0.077696 -0.747116 -0.660137
vn 0.000000 -0.262977 0.964802
vn 0.000000 -0.705530 0.708680
vn 0.077696 -0.747116 0.660137
vn 0.167371 -0.252368 0.953046
vn 0.000000 0.322905 0.946431
vn 0.000000 0.583153 0.812363
vn 0.132822 0.578500 0.804796
vn 0.097299 0.353138 0.930498
vn 0.000000 0.602500 -0.798119
vn 0.000000 0.315825 -0.948818
vn 0.000000 0.322905 -0.946431
vn 0.000000 0.583153 -0.812362
vn 0.000000 -0.705530 -0.708680
vn 0.000000 -0.262444 -0.964947
vn 0.000000 -0.262976 -0.964802
vn 0.000000 -0.705530 -0.708680
vn 0.000000 -0.262977 0.964802
vn 0.000000 -0.262444 0.964947
vn 0.000000 -0.705530 0.708680
vn 0.000000 -0.705530 0.708680
vn 0.000000 0.315825 0.948817
vn 0.000000 0.602500 0.798119
vn 0.000000 0.583153 0.812363
vn 0.000000 0.322905 0.946431
vn 0.000000 0.079864 0.996806
vn 0.000000 0.079926 0.996801
vn 0.000000 -0.262991 0.964798
vn 0.000000 -0.262444 0.964947
vn -0.182140 0.088132 0.979315
vn -0.167272 -0.252332 0.953073
vn 0.000000 -0.262991 0.964798
vn 0.000000 0.079926 0.996801
vn -0.957435 -0.281415 0.064222
vn -0.167272 -0.252332 0.953073
vn -0.182140 0.088132 0.979315
vn -0.992784 0.098328 0.068643
vn -0.992784 0.098328 -0.068643
vn -0.957435 -0.281415 -0.064222
vn -0.957435 -0.281415 0.064222
vn -0.992784 0.098328 0.068643
vn -0.992784 0.098328 -0.068643
vn -0.182140 0.088131 -0.979315
vn -0.167272 -0.252332 -0.953073
vn -0.957435 -0.281415 -0.064222
vn -0.182140 0.088131 -0.979315
vn 0.000000 0.079926 -0.996801
vn 0.000000 -0.262990 -0.964799
vn -0.167272 -0.252332 -0.953073
vn 0.000000 -0.262444 -0.964947
vn 0.000000 -0.262990 -0.964799
vn 0.000000 0.079926 -0.996801
vn 0.000000 0.079864 -0.996806
vn 0.000000 -0.262976 -0.964802
vn 0.000000 -0.262444 -0.964947
vn 0.000000 0.079864 -0.996806
vn 0.000000 0.079925 -0.996801
vn 0.167371 -0.252368 -0.953046
vn 0.000000 -0.262976 -0.964802
vn 0.000000 0.079925 -0.996801
vn 0.182248 0.088141 -0.979294
vn 0.182248 0.088141 -0.979294
vn 0.992784 0.098328 -0.068643
vn 0.957435 -0.281415 -0.064222
vn 0.167371 -0.252368 -0.953046
vn 0.992784 0.098328 0.068643
vn 0.957435 -0.281415 0.064222
vn 0.957435 -0.281415 -0.064222
vn 0.992784 0.098328 -0.068643
vn 0.167371 -0.252368 0.953046
vn 0.957435 -0.281415 0.064222
vn 0.992784 0.098328 0.068643
vn 0.182248 0.088141 0.979294
vn 0.000000 0.079925 0.996801
vn 0.000000 -0.262977 0.964802
vn 0.167371 -0.252368 0.953046
vn 0.182248 0.088141 0.979294
vn 0.000000 0.079864 0.996806
vn 0.000000 -0.262444 0.964947
vn 0.000000 -0.262977 0.964802
vn 0.000000 0.079925 0.996801
vn -0.132762 0.578351 0.804913
vn -0.182140 0.088132 0.979315
vn 0.000000 0.079926 0.996801
vn 0.000000 0.583150 0.812365
vn -0.992784 0.098328 0.068643
vn -0.182140 0.088132 0.979315
vn -0.132762 0.578351 0.804913
vn -0.814872 0.577011 0.055159
vn -0.814872 0.577011 -0.055159
vn -0.992784 0.098328 -0.068643
vn -0.992784 0.098328 0.068643
vn -0.814872 0.577011 0.055159
vn -0.814872 0.577011 -0.055159
vn -0.132762 0.578350 -0.804913
vn -0.182140 0.088131 -0.979315
vn -0.992784 0.098328 -0.068643
vn -0.132762 0.578350 -0.804913
vn 0.000000 0.583149 -0.812365
vn 0.000000 0.079926 -0.996801
vn -0.182140 0.088131 -0.979315
vn 0.000000 0.079864 -0.996806
vn 0.000000 0.079926 -0.996801
vn 0.000000 0.583149 -0.812365
vn 0.000000 0.602500 -0.798119
vn 0.000000 0.079925 -0.996801
vn 0.000000 0.079864 -0.996806
vn 0.000000 0.602500 -0.798119
vn 0.000000 0.583153 -0.812362
vn 0.182248 0.088141 -0.979294
vn 0.000000 0.079925 -0.996801
vn 0.000000 0.583153 -0.812362
vn 0.132822 0.578500 -0.804796
vn 0.132822 0.578500 -0.804796
vn 0.814872 0.577011 -0.055159
vn 0.992784 0.098328 -0.068643
vn 0.182248 0.088141 -0.979294
vn 0.814872 0.577011 0.055159
vn 0.992784 0.098328 0.068643
vn 0.992784 0.098328 -0.068643
vn 0.814872 0.577011 -0.055159
vn 0.182248 0.088141 0.979294
vn 0.992784 0.098328 0.068643
vn 0.814872 0.577011 0.055159
vn 0.132822 0.578500 0.804796
vn 0.000000 0.583153 0.812363
vn 0.000000 0.079925 0.996801
vn 0.182248 0.088141 0.979294
vn 0.132822 0.578500 0.804796
vn 0.000000 0.602500 0.798119
vn 0.000000 0.079864 0.996806
vn 0.000000 0.079925 0.996801
vn 0.000000 0.583153 0.812363
vn 0.000000 0.583150 0.812365
vn 0.000000 0.079926 0.996801
vn 0.000000 0.079864 0.996806
vn 0.000000 0.602500 0.798119
f 8/1/1 7/2/2 37/3/3 38/4/4
f 9/5/5 49/6/6 50/7/7 39/8/8
f 44/9/9 10/10/10 40/11/11 43/12/12
f 12/13/13 11/14/14 41/15/15 42/16/16
f 13/17/17 14/18/18 45/19/19 46/20/20
f 15/21/21 16/22/22 24/23/23 23/24/24
f 17/25/25 18/26/26 54/27/27 55/28/28
f 19/29/29 20/30/30 21/31/31 22/32/32
f 26/33/33 25/34/34 28/35/35 27/36/36
f 47/37/37 48/38/38 33/39/39 34/40/40
f 30/41/41 29/42/42 31/43/43 32/44/44
f 52/45/45 53/46/46 36/47/47 35/48/48
f 45/19/49 14/18/50 10/10/51 44/9/52
f 48/38/53 49/6/54 9/5/55 33/39/56
f 54/27/57 18/26/58 36/47/59 53/46/60
f 47/37/61 34/40/62 13/49/63 46/50/64
f 16/22/65 11/14/66 12/13/67 24/51/68
f 27/36/69 15/52/70 23/53/71 26/33/72
f 25/54/73 7/2/74 8/1/75 28/35/76
f 20/30/77 31/43/78 29/42/79 21/31/80
f 2/55/81 1/56/82 30/57/83 32/44/84
f 3/58/85 51/59/86 52/45/87 35/48/88
f 56/60/89 4/61/90 17/25/91 55/28/92
f 6/62/93 5/63/94 19/29/95 22/64/96
f 38/4/97 37/3/98 1/56/99 2/55/100
f 39/8/101 50/7/102 51/59/103 3/58/104
f 56/60/105 43/12/106 40/11/107 4/61/108
f 42/16/109 41/15/110 5/63/111 6/62/112
f 70/65/113 57/66/114 44/9/115 43/12/116
f 58/67/117 45/19/118 44/9/119 57/66/120
f 46/20/121 45/19/122 58/67/123 59/68/124
f 60/69/125 47/37/126 46/50/127 59/70/128
f 60/69/129 61/71/130 48/38/131 47/37/132
f 61/71/133 62/72/134 49/6/135 48/38/136
f 50/7/137 49/6/138 62/72/139 63/73/140
f 51/59/141 50/7/142 63/73/143 64/74/144
f 52/45/145 51/59/146 64/74/147 65/75/148
f 65/75/149 66/76/150 53/46/151 52/45/152
f 67/77/153 54/27/154 53/46/155 66/76/156
f 55/28/157 54/27/158 67/77/159 68/78/160
f 69/79/161 56/60/162 55/28/163 68/78/164
f 70/65/165 43/12/166 56/60/167 69/79/168
f 16/22/169 58/67/170 57/66/171 11/14/172
f 59/68/173 58/67/174 16/22/175 15/21/176
f 27/36/177 60/69/178 59/70/179 15/52/180
f 27/36/181 28/35/182 61/71/183 60/69/184
f 28/35/185 8/1/186 62/72/187 61/71/188
f 63/73/189 62/72/190 8/1/191 38/4/192
f 64/74/193 63/73/194 38/4/195 2/55/196
f 65/75/197 64/74/198 2/55/199 32/44/200
f 32/44/201 31/43/202 66/76/203 65/75/204
f 20/30/205 67/77/206 66/76/207 31/43/208
f 68/78/209 67/77/210 20/30/211 19/29/212
f 5/63/213 69/79/214 68/78/215 19/29/216
f 41/15/217 70/65/218 69/79/219 5/63/220
f 11/14/221 57/66/222 70/65/223 41/15/224
