# This file uses meters as units for non-parametric coordinates.

v -37.156590 148.641321 -3.399620
v 37.156590 148.641321 -3.399620
v -37.156590 -106.259802 -3.399620
v 37.156590 -106.259833 -3.399620
v 26.286770 -95.105276 -2.572533
v -26.286770 -95.105276 -2.572533
v 26.286770 137.210230 -2.572533
v -26.286770 137.210230 -2.572533
v -37.156590 -106.259802 2.739982
v -36.272068 -105.375281 3.624504
v -37.156590 148.641321 2.739982
v -36.272068 147.756799 3.624504
v 37.156590 -106.259833 2.739982
v 36.272068 -105.375311 3.624504
v 37.156590 148.641321 2.739982
v 36.272068 147.756799 3.624504
v -27.171272 -95.989798 3.624504
v -26.286770 -95.105276 2.739982
v -27.171272 138.094751 3.624504
v -26.286770 137.210230 2.739982
v 27.171280 138.094751 3.624504
v 26.286770 137.210230 2.739982
v 27.171280 -95.989798 3.624504
v 26.286770 -95.105276 2.739982
v -33.115501 144.426172 3.151981
v -33.784431 145.095117 3.151981
v -33.784431 -102.799353 3.151981
v -33.115501 -102.130438 3.151981
v 33.115501 144.426172 3.151981
v 33.784431 145.095117 3.151981
v 33.115501 -102.130438 3.151981
v 33.784431 -102.799383 3.151981
v -33.902550 145.213251 3.624504
v -33.784431 145.095117 3.506385
v -33.902550 -102.917471 3.624504
v -33.784431 -102.799353 3.506385
v -32.997383 144.308038 3.624504
v -33.115501 144.426172 3.506385
v -32.997383 -102.012320 3.624504
v -33.115501 -102.130438 3.506385
v 32.997383 144.308038 3.624504
v 33.115501 144.426172 3.506385
v 33.902550 145.213251 3.624504
v 33.784431 145.095117 3.506385
v 32.997383 -102.012320 3.624504
v 33.115501 -102.130438 3.506385
v 33.902550 -102.917502 3.624504
v 33.784431 -102.799383 3.506385
vt 0.615838 0.069731
vt 0.615838 0.118161
vt 0.509445 0.118161
vt 0.509445 0.069731
vt 0.517451 0.072409
vt 0.607832 0.072409
vt 0.607832 0.115538
vt 0.517451 0.115538
vt 0.531002 0.069731
vt 0.509445 0.070017
vt 0.531002 0.118161
vt 0.510433 0.069731
vt 0.509445 0.079543
vt 0.615838 0.079543
vt 0.614850 0.069731
vt 0.509445 0.108348
vt 0.615838 0.108348
vt 0.594281 0.069731
vt 0.594281 0.118161
vt 0.517451 0.072409
vt 0.517451 0.115538
vt 0.607832 0.072409
vt 0.607832 0.115538
vt 0.509445 0.069731
vt 0.509445 0.118161
vt 0.615838 0.069731
vt 0.615838 0.118161
vt 0.612435 0.070738
vt 0.614851 0.117875
vt 0.612438 0.117272
vt 0.510433 0.117875
vt 0.614850 0.070017
vt 0.512846 0.070679
vt 0.510433 0.070017
vt 0.512846 0.117272
vt 0.608895 0.115824
vt 0.513780 0.116920
vt 0.608895 0.072123
vt 0.611500 0.116920
vt 0.611508 0.071062
vt 0.516388 0.072123
vt 0.513774 0.071062
vt 0.516388 0.115824
vt 0.512966 0.070729
vt 0.512967 0.117226
vt 0.513657 0.116965
vt 0.513652 0.071013
vt 0.611624 0.116965
vt 0.513657 0.116965
vt 0.512967 0.117226
vt 0.612317 0.117226
vt 0.611630 0.071013
vt 0.611624 0.116965
vt 0.612317 0.117226
vt 0.612316 0.070755
vt 0.513652 0.071013
vt 0.611630 0.071013
vt 0.612316 0.070755
vt 0.512966 0.070729
vn -0.000000 0.000000 -1.000000
vn -0.000000 0.000000 -1.000000
vn -0.000000 0.000000 -1.000000
vn -0.000000 0.000000 -1.000000
vn 0.000000 0.000000 1.000000
vn 0.000000 0.000000 1.000000
vn 0.000000 0.000000 1.000000
vn 0.000000 0.000000 1.000000
vn -0.707106 0.000000 0.707108
vn -0.707106 0.000000 0.707108
vn -0.707106 0.000000 0.707108
vn -0.707106 0.000000 0.707108
vn -0.000000 -0.707102 0.707112
vn -0.000000 -0.707102 0.707112
vn -0.000000 -0.707102 0.707112
vn -0.000000 -0.707102 0.707112
vn 0.000000 0.707107 0.707107
vn 0.000000 0.707107 0.707107
vn 0.000000 0.707107 0.707107
vn 0.000000 0.707107 0.707107
vn 0.707106 0.000000 0.707108
vn 0.707106 0.000000 0.707108
vn 0.707106 0.000000 0.707108
vn 0.707106 0.000000 0.707108
vn 0.707116 0.000000 0.707097
vn 0.707116 0.000000 0.707097
vn 0.707116 0.000000 0.707097
vn 0.707116 0.000000 0.707097
vn 0.000000 0.707104 0.707110
vn 0.000000 0.707104 0.707110
vn 0.000000 0.707104 0.707110
vn 0.000000 0.707104 0.707110
vn 0.000000 -0.707119 0.707095
vn 0.000000 -0.707119 0.707095
vn 0.000000 -0.707119 0.707095
vn 0.000000 -0.707119 0.707095
vn -0.707113 0.000000 0.707100
vn -0.707113 0.000000 0.707100
vn -0.707113 0.000000 0.707100
vn -0.707113 0.000000 0.707100
vn 0.000000 1.000000 0.000000
vn 0.000000 1.000000 0.000000
vn 0.000000 1.000000 0.000000
vn 0.000000 1.000000 0.000000
vn -0.000000 -1.000000 0.000000
vn -0.000000 -1.000000 0.000000
vn -0.000000 -1.000000 0.000000
vn -0.000000 -1.000000 0.000000
vn 1.000000 0.000000 0.000000
vn 1.000000 0.000000 0.000000
vn 1.000000 0.000000 0.000000
vn 1.000000 0.000000 0.000000
vn -1.000000 0.000000 0.000000
vn -1.000000 0.000000 0.000000
vn -1.000000 0.000000 0.000000
vn -1.000000 0.000000 0.000000
vn 0.000000 1.000000 0.000000
vn 0.000000 1.000000 0.000000
vn 0.000000 1.000000 0.000000
vn 0.000000 1.000000 0.000000
vn -1.000000 0.000000 0.000000
vn -1.000000 0.000000 0.000000
vn -1.000000 0.000000 0.000000
vn -1.000000 0.000000 0.000000
vn 0.000000 -1.000000 0.000000
vn 0.000000 -1.000000 0.000000
vn 0.000000 -1.000000 0.000000
vn 0.000000 -1.000000 0.000000
vn 1.000000 0.000000 0.000000
vn 1.000000 0.000000 0.000000
vn 1.000000 0.000000 0.000000
vn 1.000000 0.000000 0.000000
vn 0.000000 0.000000 1.000000
vn 0.000000 0.000000 1.000000
vn 0.000000 0.000000 1.000000
vn 0.000000 0.000000 1.000000
vn 0.000000 0.000000 1.000000
vn 0.000000 0.000000 1.000000
vn 0.000000 0.000000 1.000000
vn 0.000000 0.000000 1.000000
vn 0.000000 -0.707062 0.707152
vn 0.000000 -0.707062 0.707152
vn 0.000000 -0.707062 0.707152
vn 0.000000 -0.707062 0.707152
vn 0.707096 0.000000 0.707117
vn 0.707096 0.000000 0.707117
vn 0.707096 0.000000 0.707117
vn 0.707096 0.000000 0.707117
vn 0.000000 0.707148 0.707066
vn 0.000000 0.707148 0.707066
vn 0.000000 0.707148 0.707066
vn 0.000000 0.707148 0.707066
vn -0.707113 0.000000 0.707101
vn -0.707113 0.000000 0.707101
vn -0.707113 0.000000 0.707101
vn -0.707113 0.000000 0.707101
vn 0.000000 0.706955 0.707259
vn 0.000000 0.706955 0.707259
vn 0.000000 0.706955 0.707259
vn 0.000000 0.706955 0.707259
vn 0.000000 -0.707132 0.707082
vn 0.000000 -0.707132 0.707082
vn 0.000000 -0.707132 0.707082
vn 0.000000 -0.707132 0.707082
vn 0.707113 0.000000 0.707101
vn 0.707113 0.000000 0.707101
vn 0.707113 0.000000 0.707101
vn 0.707113 0.000000 0.707101
vn -0.707108 0.000000 0.707106
vn -0.707108 0.000000 0.707106
vn -0.707108 0.000000 0.707106
vn -0.707108 0.000000 0.707106
vn -0.000001 0.000000 1.000000
vn -0.000001 0.000000 1.000000
vn -0.000001 0.000000 1.000000
vn -0.000001 0.000000 1.000000
vn 0.000001 0.000000 1.000000
vn 0.000001 0.000000 1.000000
vn 0.000001 0.000000 1.000000
vn 0.000001 0.000000 1.000000
vn 0.000001 0.000000 1.000000
vn 0.000001 0.000000 1.000000
vn -0.000001 0.000000 1.000000
vn -0.000001 0.000000 1.000000
vn 0.000001 0.000000 1.000000
vn 0.000001 0.000000 1.000000
vn -0.000001 0.000000 1.000000
vn -0.000001 0.000000 1.000000
vn 1.000000 0.000000 0.000000
vn 1.000000 0.000000 0.000000
vn 1.000000 0.000000 0.000000
vn 1.000000 0.000000 0.000000
vn -1.000000 0.000000 0.000000
vn -1.000000 0.000000 0.000000
vn -1.000000 0.000000 0.000000
vn -1.000000 0.000000 0.000000
vn 0.000000 1.000000 0.000000
vn 0.000000 1.000000 0.000000
vn 0.000000 1.000000 0.000000
vn 0.000000 1.000000 0.000000
vn 0.000000 -1.000000 0.000000
vn 0.000000 -1.000000 0.000000
vn 0.000000 -1.000000 0.000000
vn 0.000000 -1.000000 0.000000
vn 1.000000 0.000000 0.000000
vn 1.000000 0.000000 0.000000
vn 1.000000 0.000000 0.000000
vn 1.000000 0.000000 0.000000
vn -1.000000 0.000000 0.000000
vn -1.000000 0.000000 0.000000
vn -1.000000 0.000000 0.000000
vn -1.000000 0.000000 0.000000
vn 0.000000 -1.000000 0.000000
vn 0.000000 -1.000000 0.000000
vn 0.000000 -1.000000 0.000000
vn 0.000000 -1.000000 0.000000
vn 0.000000 1.000000 0.000000
vn 0.000000 1.000000 0.000000
vn 0.000000 1.000000 0.000000
vn 0.000000 1.000000 0.000000
f 2/1/1 4/2/2 3/3/3 1/4/4
f 6/5/5 5/6/6 7/7/7 8/8/8
f 9/9/9 10/10/10 12/31/11 11/11/12
f 10/12/13 9/13/14 13/14/15 14/15/16
f 11/16/17 12/31/18 16/29/19 15/17/20
f 14/32/21 13/18/22 15/19/23 16/29/24
f 17/41/25 18/20/26 20/21/27 19/43/28
f 18/20/29 17/41/30 23/38/31 24/22/32
f 19/43/33 20/21/34 22/23/35 21/36/36
f 21/36/37 22/23/38 24/22/39 23/38/40
f 15/17/41 2/1/42 1/4/43 11/16/44
f 4/2/45 13/14/46 9/13/47 3/3/48
f 15/19/49 13/18/50 4/24/51 2/25/52
f 3/26/53 9/9/54 11/11/55 1/27/56
f 18/20/57 24/22/58 5/6/59 6/5/60
f 24/22/61 22/23/62 7/7/63 5/6/64
f 22/23/65 20/21/66 8/8/67 7/7/68
f 20/21/69 18/20/70 6/5/71 8/8/72
f 25/49/73 26/45/74 27/59/75 28/47/76
f 26/45/74 25/49/73 29/53/77 30/51/78
f 30/51/78 29/53/77 31/57/79 32/55/80
f 32/55/80 31/57/79 28/47/76 27/59/75
f 33/35/81 34/50/82 44/54/83 43/30/84
f 34/50/85 33/35/86 35/33/87 36/44/88
f 36/44/89 35/33/90 47/28/91 48/58/92
f 37/37/93 38/46/94 40/56/95 39/42/96
f 38/46/97 37/37/98 41/39/99 42/48/100
f 39/42/101 40/56/102 46/52/103 45/40/104
f 42/48/105 41/39/106 45/40/107 46/52/108
f 43/30/109 44/54/110 48/58/111 47/28/112
f 47/28/113 14/32/114 16/29/115 43/30/116
f 43/30/116 16/29/115 12/31/117 33/35/118
f 10/34/119 14/32/114 47/28/113 35/33/120
f 12/31/117 10/34/119 35/33/120 33/35/118
f 21/36/121 41/39/122 37/37/123 19/43/124
f 23/38/125 45/40/126 41/39/122 21/36/121
f 39/42/127 45/40/126 23/38/125 17/41/128
f 37/37/123 39/42/127 17/41/128 19/43/124
f 34/50/129 36/44/130 27/59/131 26/45/132
f 40/56/133 38/46/134 25/49/135 28/47/136
f 38/46/137 42/48/138 29/53/139 25/49/140
f 44/54/141 34/50/142 26/45/143 30/51/144
f 42/48/145 46/52/146 31/57/147 29/53/148
f 48/58/149 44/54/150 30/51/151 32/55/152
f 46/52/153 40/56/154 28/47/155 31/57/156
f 36/44/157 48/58/158 32/55/159 27/59/160
