# This file uses meters as units for non-parametric coordinates.

v 4.008893 0.000000 -4.008899
v 0.000000 0.000000 -5.669405
v -4.008893 0.000000 -4.008899
v -5.669401 0.000000 0.000000
v -4.008893 0.000000 4.008899
v 0.000000 0.000000 5.669405
v 4.008893 0.000000 4.008899
v 5.669401 0.000000 0.000000
v 6.262732 36.785172 -6.262732
v 0.000000 36.785172 -8.856829
v -6.262732 36.785172 -6.262732
v -8.856829 36.785172 0.000000
v -6.262732 36.785172 6.262732
v 0.000000 36.785172 8.856829
v 6.262732 36.785172 6.262732
v 8.856829 36.785172 0.000000
v 0.000000 0.000000 0.000000
v 0.000000 20.604481 0.000000
v 0.000000 21.190113 1.079074
v -0.763026 21.190113 0.763026
v -1.079074 21.190113 0.000000
v -0.763026 21.190113 -0.763026
v 0.000000 21.190113 -1.079074
v 0.763026 21.190113 -0.763026
v 1.079074 21.190113 0.000000
v 0.763026 21.190113 0.763026
v 0.000000 1.595058 0.954939
v -0.675251 1.595058 0.675251
v -0.954939 1.595058 0.000000
v -0.675251 1.595058 -0.675251
v 0.000000 1.595058 -0.954939
v 0.675251 1.595058 -0.675251
v 0.954939 1.595058 0.000000
v 0.675251 1.595058 0.675251
v 0.000000 0.249975 5.683044
v -4.018537 0.249975 4.018543
v -5.683040 0.249975 0.000000
v -4.018537 0.249975 -4.018543
v 0.000000 0.249975 -5.683044
v 4.018537 0.249975 -4.018543
v 5.683040 0.249975 0.000000
v 4.018537 0.249976 4.018543
v 0.000000 23.284565 -2.780760
v 1.966302 23.284565 -1.966302
v 2.780760 23.284565 0.000000
v 1.966302 23.284565 1.966302
v 0.000000 23.284565 2.780760
v -1.966302 23.284565 1.966302
v -2.780760 23.284565 0.000000
v -1.966302 23.284565 -1.966302
vt 0.489470 0.763272
vt 0.485655 0.761570
vt 0.481841 0.763272
vt 0.480260 0.767379
vt 0.481841 0.771487
vt 0.485655 0.773189
vt 0.489470 0.771487
vt 0.491050 0.767379
vt 0.490687 0.774948
vt 0.487362 0.774948
vt 0.484036 0.774948
vt 0.480711 0.774948
vt 0.477385 0.774948
vt 0.480774 0.774948
vt 0.484163 0.774948
vt 0.487552 0.774948
vt 0.490942 0.774948
vt 0.490687 0.760766
vt 0.487362 0.760766
vt 0.484036 0.760766
vt 0.480711 0.760766
vt 0.477385 0.760766
vt 0.480774 0.760766
vt 0.484163 0.760766
vt 0.487552 0.760766
vt 0.490942 0.760766
vt 0.489394 0.764709
vt 0.485887 0.763145
vt 0.482380 0.764709
vt 0.480927 0.768486
vt 0.482380 0.772262
vt 0.485887 0.773827
vt 0.489394 0.772262
vt 0.490847 0.768486
vt 0.485655 0.767147
vt 0.485887 0.768272
vt 0.480774 0.775126
vt 0.477385 0.775126
vt 0.480711 0.775126
vt 0.484036 0.775126
vt 0.487362 0.775126
vt 0.490942 0.775126
vt 0.490687 0.775126
vt 0.487552 0.775126
vt 0.484163 0.775126
vt 0.480774 0.760492
vt 0.477385 0.760492
vt 0.480711 0.760492
vt 0.484036 0.760492
vt 0.487362 0.760492
vt 0.490942 0.760492
vt 0.490687 0.760492
vt 0.487552 0.760492
vt 0.484163 0.760492
vt 0.480774 0.774122
vt 0.477385 0.774122
vt 0.480711 0.774122
vt 0.484036 0.774122
vt 0.487362 0.774122
vt 0.490942 0.774122
vt 0.490687 0.774122
vt 0.487552 0.774122
vt 0.484163 0.774122
vt 0.487362 0.773197
vt 0.490942 0.773197
vt 0.490687 0.773197
vt 0.487552 0.773197
vt 0.484163 0.773197
vt 0.480774 0.773197
vt 0.477385 0.773197
vt 0.480711 0.773197
vt 0.484036 0.773197
vn 0.083218 -0.993051 -0.083218
vn 0.000000 -0.993051 -0.117687
vn 0.000000 0.927042 -0.374957
vn 0.265134 0.927042 -0.265134
vn -0.083218 -0.993051 -0.083218
vn -0.265134 0.927042 -0.265134
vn -0.117687 -0.993051 -0.000000
vn -0.374957 0.927042 -0.000000
vn -0.083218 -0.993051 0.083218
vn -0.265134 0.927042 0.265134
vn 0.000000 -0.993051 0.117687
vn -0.000000 0.927042 0.374957
vn 0.083218 -0.993051 0.083218
vn 0.265134 0.927043 0.265134
vn 0.117687 -0.993051 0.000000
vn 0.374958 0.927042 -0.000000
vn 0.000000 -1.000000 0.000000
vn -0.620266 0.480147 0.620266
vn 0.000000 0.480147 0.877188
vn -0.000000 1.000000 -0.000000
vn 0.620265 0.480147 0.620266
vn 0.877188 0.480147 0.000000
vn 0.620266 0.480147 -0.620266
vn 0.000000 0.480147 -0.877188
vn -0.620265 0.480147 -0.620266
vn -0.877188 0.480147 -0.000000
vn -0.548802 -0.630581 0.548803
vn -0.000000 -0.630579 0.776125
vn 0.000000 -0.420772 0.907166
vn -0.641463 -0.420773 0.641463
vn -0.776125 -0.630580 0.000000
vn -0.907166 -0.420772 0.000000
vn -0.548802 -0.630581 -0.548803
vn -0.641463 -0.420773 -0.641463
vn 0.000000 -0.630579 -0.776125
vn 0.000000 -0.420772 -0.907166
vn 0.548802 -0.630581 -0.548803
vn 0.641463 -0.420773 -0.641463
vn 0.776125 -0.630580 -0.000000
vn 0.907166 -0.420772 -0.000000
vn 0.548802 -0.630581 0.548803
vn 0.641463 -0.420773 0.641463
vn -0.707093 -0.006335 0.707093
vn 0.000000 -0.006335 0.999980
vn 0.000000 -0.006335 0.999980
vn -0.707093 -0.006335 0.707093
vn -0.999980 -0.006335 0.000000
vn -0.999980 -0.006335 0.000000
vn -0.707093 -0.006335 -0.707093
vn -0.707093 -0.006335 -0.707093
vn 0.000000 -0.006335 -0.999980
vn 0.000000 -0.006335 -0.999980
vn 0.707093 -0.006335 -0.707093
vn 0.707093 -0.006335 -0.707093
vn 0.999980 -0.006335 0.000000
vn 0.999980 -0.006335 0.000000
vn 0.707093 -0.006335 0.707093
vn 0.707093 -0.006335 0.707093
vn -0.000000 0.961835 0.273630
vn -0.193484 0.961836 0.193484
vn -0.273630 0.961835 0.000000
vn -0.193484 0.961836 -0.193484
vn 0.000000 0.961835 -0.273630
vn 0.193484 0.961836 -0.193484
vn 0.273630 0.961835 -0.000000
vn 0.193484 0.961836 0.193484
vn 0.000000 -0.410409 -0.911902
vn 0.644812 -0.410410 -0.644812
vn 0.911902 -0.410409 -0.000000
vn 0.644812 -0.410410 0.644812
vn 0.000000 -0.410409 0.911902
vn -0.644812 -0.410410 0.644812
vn -0.911902 -0.410409 0.000000
vn -0.644812 -0.410410 -0.644812
f 1/9/1 2/10/2 39/59/3 40/61/4
f 2/10/2 3/11/5 38/58/6 39/59/3
f 3/11/5 4/12/7 37/57/8 38/58/6
f 4/12/7 5/13/9 36/56/10 37/57/8
f 5/13/9 6/14/11 35/55/12 36/56/10
f 6/14/11 7/15/13 42/63/14 35/55/12
f 7/15/13 8/16/15 41/62/16 42/63/14
f 8/16/15 1/17/1 40/60/4 41/62/16
f 2/2/2 1/1/1 17/35/17
f 3/3/5 2/2/2 17/35/17
f 4/4/7 3/3/5 17/35/17
f 5/5/9 4/4/7 17/35/17
f 6/6/11 5/5/9 17/35/17
f 7/7/13 6/6/11 17/35/17
f 8/8/15 7/7/13 17/35/17
f 1/1/1 8/8/15 17/35/17
f 9/33/18 10/32/19 18/36/20
f 10/32/19 11/31/21 18/36/20
f 11/31/21 12/30/22 18/36/20
f 12/30/22 13/29/23 18/36/20
f 13/29/23 14/28/24 18/36/20
f 14/28/24 15/27/25 18/36/20
f 15/27/25 16/34/26 18/36/20
f 16/34/26 9/33/18 18/36/20
f 20/38/27 19/37/28 47/69/29 48/70/30
f 21/39/31 20/38/27 48/70/30 49/71/32
f 22/40/33 21/39/31 49/71/32 50/72/34
f 23/41/35 22/40/33 50/72/34 43/64/36
f 24/43/37 23/41/35 43/64/36 44/66/38
f 25/44/39 24/42/37 44/65/38 45/67/40
f 26/45/41 25/44/39 45/67/40 46/68/42
f 19/37/28 26/45/41 46/68/42 47/69/29
f 28/47/43 27/46/44 19/37/45 20/38/46
f 29/48/47 28/47/43 20/38/46 21/39/48
f 30/49/49 29/48/47 21/39/48 22/40/50
f 31/50/51 30/49/49 22/40/50 23/41/52
f 32/52/53 31/50/51 23/41/52 24/43/54
f 33/53/55 32/51/53 24/42/54 25/44/56
f 34/54/57 33/53/55 25/44/56 26/45/58
f 27/46/44 34/54/57 26/45/58 19/37/45
f 36/56/10 35/55/12 27/46/59 28/47/60
f 37/57/8 36/56/10 28/47/60 29/48/61
f 38/58/6 37/57/8 29/48/61 30/49/62
f 39/59/3 38/58/6 30/49/62 31/50/63
f 40/61/4 39/59/3 31/50/63 32/52/64
f 41/62/16 40/60/4 32/51/64 33/53/65
f 42/63/14 41/62/16 33/53/65 34/54/66
f 35/55/12 42/63/14 34/54/66 27/46/59
f 44/66/38 43/64/36 10/19/67 9/18/68
f 45/67/40 44/65/38 9/26/68 16/25/69
f 46/68/42 45/67/40 16/25/69 15/24/70
f 47/69/29 46/68/42 15/24/70 14/23/71
f 48/70/30 47/69/29 14/23/71 13/22/72
f 49/71/32 48/70/30 13/22/72 12/21/73
f 50/72/34 49/71/32 12/21/73 11/20/74
f 43/64/36 50/72/34 11/20/74 10/19/67
