# This file uses meters as units for non-parametric coordinates.

v -15.802388 16.345375 -18.542784
v -4.789629 16.345375 -18.542784
v -15.802388 11.814418 -19.269682
v -4.789629 11.814418 -19.269682
v -4.789629 13.031844 0.974933
v -15.802388 13.031844 0.974933
v -15.802388 8.500888 0.248038
v -4.789629 8.500888 0.248038
v -4.789629 15.190771 -11.345794
v -15.802388 15.190771 -11.345794
v -15.802388 10.659812 -12.072689
v -4.789629 10.659812 -12.072689
v -15.802388 10.225718 -19.524555
v -4.789629 10.225718 -19.524555
v -4.789629 9.071114 -12.327562
v -15.802388 9.071114 -12.327562
v -15.802388 3.581467 21.109346
v -14.701224 3.343300 22.184450
v -15.802388 8.112424 21.836241
v -14.701224 7.874257 22.911346
v -4.789629 3.581467 21.109346
v -5.890794 3.343300 22.184450
v -4.789629 8.112424 21.836241
v -5.890794 7.874257 22.911346
v -15.318061 16.497658 -19.492004
v -5.273958 16.497658 -19.492004
v -5.273958 11.966700 -20.218903
v -15.318061 11.966700 -20.218903
v -5.273958 10.378000 -20.473774
v -15.318061 10.378000 -20.473774
v -7.095492 13.098042 -19.341188
v -5.983663 13.098042 -19.341188
v -7.095492 14.195836 -19.165068
v -5.983663 14.195836 -19.165068
v -7.095492 15.016041 -24.277658
v -5.983663 15.016041 -24.277658
v -7.095492 13.918247 -24.453775
v -5.983663 13.918247 -24.453775
vt 0.418786 0.938754
vt 0.418780 0.938671
vt 0.423938 0.938663
vt 0.423944 0.938746
vt 0.418414 0.961809
vt 0.424294 0.961800
vt 0.424289 0.961717
vt 0.418409 0.961725
vt 0.418131 0.950669
vt 0.424578 0.950660
vt 0.424583 0.939249
vt 0.418135 0.939258
vt 0.424588 0.939332
vt 0.424584 0.950743
vt 0.418141 0.939341
vt 0.418137 0.950752
vt 0.424580 0.957406
vt 0.418133 0.957416
vt 0.418128 0.957333
vt 0.424575 0.957323
vt 0.424578 0.961288
vt 0.418131 0.961297
vt 0.418126 0.961214
vt 0.418124 0.961185
vt 0.424571 0.961175
vt 0.424573 0.957294
vt 0.418126 0.957304
vt 0.424573 0.961204
vt 0.424287 0.961688
vt 0.418407 0.961697
vt 0.423226 0.961395
vt 0.423876 0.961394
vt 0.423875 0.964151
vt 0.423224 0.964152
vt 0.423874 0.964131
vt 0.423223 0.964132
vt 0.423875 0.961374
vt 0.423224 0.961375
vn -0.112789 -0.157393 0.981074
vn -0.107654 -0.157483 0.981636
vn 0.107654 -0.157483 0.981636
vn 0.112789 -0.157393 0.981074
vn -0.090932 0.157747 -0.983284
vn 0.090932 0.157747 -0.983284
vn 0.090932 0.157747 -0.983284
vn -0.090932 0.157747 -0.983284
vn 0.000000 -0.973304 -0.229520
vn 0.000000 -0.973304 -0.229520
vn 0.000000 -0.973374 -0.229222
vn 0.000000 -0.973374 -0.229222
vn 0.998955 -0.007238 0.045119
vn 0.998623 -0.008309 0.051795
vn 1.000000 0.000000 0.000000
vn 1.000000 0.000000 0.000000
vn -1.000000 0.000000 0.000000
vn -0.998623 -0.008309 0.051795
vn -0.998955 -0.007238 0.045119
vn -1.000000 0.000000 0.000000
vn 0.000000 0.984993 0.172597
vn 0.000000 0.984993 0.172597
vn 0.000000 0.985893 0.167376
vn 0.000000 0.985893 0.167376
vn -1.000000 -0.000000 0.000000
vn -1.000000 -0.000000 0.000000
vn 0.000000 -0.984993 -0.172597
vn 0.000000 -0.984993 -0.172597
vn 0.000000 -0.984993 -0.172597
vn 0.000000 -0.984993 -0.172597
vn 1.000000 -0.000000 0.000000
vn 1.000000 0.000000 0.000000
vn 0.000000 0.987374 0.158403
vn 0.000000 0.987374 0.158403
vn -0.998281 0.009283 -0.057863
vn -0.998281 0.009283 -0.057863
vn 0.000000 -0.987375 -0.158403
vn 0.000000 -0.987375 -0.158403
vn 0.000000 -0.987375 -0.158403
vn 0.000000 -0.987375 -0.158403
vn 0.998281 0.009283 -0.057863
vn 0.998281 0.009283 -0.057863
vn 0.090932 0.157746 -0.983284
vn -0.090932 0.157746 -0.983284
vn 1.000000 -0.000000 0.000000
vn 0.998281 0.009283 -0.057863
vn 0.000000 -0.158403 0.987374
vn 0.000000 -0.158403 0.987374
vn 0.000000 -0.158403 0.987374
vn 0.000000 -0.158403 0.987374
vn -0.998281 0.009283 -0.057863
vn -1.000000 0.000000 0.000000
vn 0.000000 0.973374 0.229222
vn 0.000000 0.976330 0.216285
vn 0.000000 0.976330 0.216285
vn 0.000000 0.973374 0.229222
vn 0.000000 0.973304 0.229520
vn 0.000000 0.973304 0.229520
vn 0.000000 -0.976330 -0.216286
vn 0.000000 -0.976330 -0.216286
vn 0.000000 0.987374 0.158405
vn 0.000000 0.987374 0.158405
vn 0.000000 -0.987375 -0.158404
vn 0.000000 -0.987375 -0.158404
vn 0.000000 0.987375 0.158403
vn 0.000000 0.987375 0.158403
vn 0.000000 0.987375 0.158403
vn 0.000000 0.987375 0.158403
vn 0.000000 0.158403 -0.987375
vn 0.000000 0.158403 -0.987375
vn 0.000000 0.158403 -0.987375
vn 0.000000 0.158403 -0.987375
vn 0.000000 -0.987375 -0.158403
vn 0.000000 -0.987375 -0.158403
vn 0.000000 -0.987375 -0.158403
vn 0.000000 -0.987375 -0.158403
vn 1.000000 -0.000000 0.000000
vn 1.000000 -0.000000 0.000000
vn 1.000000 -0.000000 0.000000
vn 1.000000 -0.000000 0.000000
vn -1.000000 0.000000 0.000000
vn -1.000000 0.000000 0.000000
vn -1.000000 0.000000 0.000000
vn -1.000000 0.000000 0.000000
f 20/1/1 18/2/2 22/3/3 24/4/4
f 25/5/5 26/6/6 27/7/7 28/8/8
f 7/9/9 8/10/10 21/11/11 17/12/12
f 23/13/13 21/11/14 8/10/15 5/14/16
f 7/9/17 17/12/18 19/15/19 6/16/20
f 6/16/21 5/14/22 9/17/23 10/18/24
f 11/19/25 7/9/17 6/16/20 10/18/26
f 11/19/27 12/20/28 8/10/29 7/9/30
f 5/14/16 8/10/15 12/20/31 9/17/32
f 10/18/24 9/17/23 2/21/33 1/22/34
f 3/23/35 11/19/25 10/18/26 1/22/36
f 13/24/37 14/25/38 15/26/39 16/27/40
f 9/17/32 12/20/31 4/28/41 2/21/42
f 28/8/8 27/7/7 29/29/43 30/30/44
f 4/28/41 12/20/31 15/26/45 14/25/46
f 12/20/47 11/19/48 16/27/49 15/26/50
f 11/19/25 3/23/35 13/24/51 16/27/52
f 19/15/53 20/1/54 24/4/55 23/13/56
f 17/12/18 18/2/2 20/1/1 19/15/19
f 22/3/3 21/11/14 23/13/13 24/4/4
f 19/15/53 23/13/56 5/14/57 6/16/58
f 17/12/12 21/11/11 22/3/59 18/2/60
f 1/22/34 2/21/33 26/6/61 25/5/62
f 2/21/42 4/28/41 27/7/7 26/6/6
f 3/23/35 1/22/36 25/5/5 28/8/8
f 4/28/41 14/25/46 29/29/43 27/7/7
f 14/25/38 13/24/37 30/30/63 29/29/64
f 13/24/51 3/23/35 28/8/8 30/30/44
f 33/31/65 34/32/66 36/33/67 35/34/68
f 35/34/69 36/33/70 38/35/71 37/36/72
f 37/36/73 38/35/74 32/37/75 31/38/76
f 32/37/77 38/35/78 36/33/79 34/32/80
f 37/36/81 31/38/82 33/31/83 35/34/84
