# This file uses meters as units for non-parametric coordinates.

v -29.059227 -0.000000 59.250408
v 53.175652 -0.000000 73.604012
v -29.059227 18.309780 59.250408
v 53.175652 18.309780 73.604012
v -40.390968 18.309780 0.000004
v 53.175652 18.309780 0.000004
v -40.390968 -0.000000 0.000004
v 53.175652 -0.000000 0.000004
v -6.520424 18.309780 0.000004
v -6.520424 -0.000000 0.000004
v -6.520424 -0.000000 73.604012
v -6.520424 18.309780 73.604012
v 53.175652 18.309780 37.765892
v 53.175652 -0.000000 37.765892
v -6.520424 -0.000000 37.765892
v -40.390968 -0.000000 37.765892
v -40.390968 18.309780 37.765892
vt 0.555906 0.028990
vt 0.515602 0.028990
vt 0.515602 0.021781
vt 0.555907 0.021781
vt 0.540523 0.037647
vt 0.540697 0.059001
vt 0.515114 0.059001
vt 0.514941 0.037661
vt 0.515114 0.028990
vt 0.618305 0.059001
vt 0.618305 0.028990
vt 0.618305 0.005365
vt 0.515420 0.005365
vt 0.515725 0.009526
vt 0.615624 0.009526
vt 0.618305 0.021781
vt 0.515114 0.021781
vt 0.541002 0.005365
vt 0.542860 0.059001
vt 0.515601 0.059001
vt 0.515601 0.005365
vt 0.542860 0.005365
vt 0.581129 0.005365
vt 0.581129 0.009526
vt 0.555907 0.039030
vn -0.726776 0.000000 0.686875
vn -0.171944 0.000000 0.985107
vn -0.171944 0.000000 0.985107
vn -0.726776 0.000000 0.686875
vn 0.000000 0.000000 -1.000000
vn 0.000000 0.000000 -1.000000
vn 0.000000 0.000000 -1.000000
vn 0.000000 0.000000 -1.000000
vn 0.000000 -1.000000 0.000000
vn 0.000000 -1.000000 0.000000
vn 0.000000 -1.000000 -0.000000
vn 0.000000 -1.000000 -0.000000
vn 1.000000 0.000000 0.000000
vn 1.000000 0.000000 0.000000
vn 1.000000 0.000000 0.000000
vn 1.000000 0.000000 0.000000
vn -1.000000 0.000000 0.000000
vn -0.982198 0.000000 0.187847
vn -0.982198 0.000000 0.187847
vn -1.000000 0.000000 0.000000
vn 0.000000 0.000000 -1.000000
vn 0.000000 0.000000 -1.000000
vn -0.000000 -1.000000 0.000000
vn -0.000000 -1.000000 0.000000
vn 0.000000 0.000000 1.000000
vn 0.000000 0.000000 1.000000
vn 1.000000 0.000000 0.000000
vn 1.000000 0.000000 0.000000
vn -0.000000 -1.000000 -0.000000
vn -0.000000 -1.000000 0.000000
vn 0.000000 -1.000000 -0.000000
f 1/1/1 11/2/2 12/3/3 3/4/4
f 5/5/5 9/6/6 10/7/7 7/8/8
f 7/9/9 10/7/10 15/10/11 16/11/12
f 14/12/13 8/13/14 6/14/15 13/15/16
f 7/9/17 16/11/18 17/16/19 5/17/20
f 9/6/6 6/18/21 8/13/22 10/7/7
f 15/10/11 10/7/10 8/13/23 14/12/24
f 12/19/3 11/20/2 2/21/25 4/22/26
f 2/23/27 14/12/13 13/15/16 4/24/28
f 11/20/29 15/10/11 14/12/24 2/21/30
f 16/11/12 15/10/11 11/20/29 1/25/31
f 17/16/19 16/11/18 1/1/1 3/4/4
