# This file uses meters as units for non-parametric coordinates.

v -4.413002 46.542488 -1.921539
v 63.026489 46.542488 -1.921539
v -4.413002 -46.542480 -1.921539
v 63.026489 -46.542480 -1.921539
v -3.363518 -45.492996 2.276810
v -4.413002 -46.542480 1.227325
v 61.977005 -45.492996 2.276810
v 63.026489 -46.542480 1.227325
v -3.363518 45.493004 2.276810
v -4.413002 46.542488 1.227325
v 61.977005 45.493004 2.276810
v 63.026489 46.542488 1.227325
v 53.022808 -36.331299 -0.323334
v 5.590679 -36.331299 -0.323334
v 53.022808 36.331299 -0.323334
v 5.590679 36.331299 -0.323334
v 54.062763 -37.371254 2.276810
v 53.022808 -36.331299 1.236847
v 4.550724 -37.371254 2.276810
v 5.590679 -36.331299 1.236847
v 54.062763 37.371254 2.276810
v 53.022808 36.331299 1.236847
v 4.550724 37.371254 2.276810
v 5.590679 36.331299 1.236847
vt 0.476485 0.957857
vt 0.476485 0.957857
vt 0.476485 0.951678
vt 0.492443 0.951678
vt 0.476485 0.951678
vt 0.491466 0.951678
vt 0.492443 0.957857
vt 0.492443 0.957857
vt 0.492443 0.951678
vt 0.490400 0.957857
vt 0.490678 0.951678
vt 0.492266 0.957857
vt 0.490400 0.951678
vt 0.490678 0.957857
vt 0.492443 0.951678
vt 0.492443 0.957857
vt 0.492266 0.957857
vt 0.478251 0.951678
vt 0.476662 0.957857
vt 0.490678 0.951678
vt 0.492266 0.957857
vt 0.478251 0.951678
vt 0.476662 0.957857
vt 0.490677 0.951678
vt 0.490400 0.957857
vt 0.476485 0.951678
vt 0.478528 0.957857
vt 0.492443 0.951678
vt 0.490400 0.957857
vt 0.477462 0.951678
vt 0.478528 0.957857
vt 0.492443 0.951678
vt 0.493447 0.946324
vt 0.493447 0.963580
vt 0.475345 0.963580
vt 0.475345 0.946324
vt 0.476662 0.957857
vt 0.476485 0.951678
vt 0.492443 0.951678
vt 0.492266 0.957857
vt 0.490678 0.957857
vt 0.490400 0.951678
vt 0.492266 0.957857
vt 0.492443 0.951678
vt 0.478528 0.951678
vt 0.478251 0.957857
vt 0.476485 0.951678
vt 0.476662 0.957857
vt 0.492443 0.951678
vt 0.492266 0.957857
vt 0.478251 0.957857
vt 0.478528 0.951678
vt 0.493447 0.946324
vt 0.493447 0.963580
vt 0.475345 0.963580
vt 0.475345 0.946324
vt 0.490678 0.957857
vt 0.490400 0.951678
vn 0.000000 0.000000 -1.000000
vn 0.000000 0.000000 -1.000000
vn 0.000000 0.000000 -1.000000
vn 0.000000 0.000000 -1.000000
vn 0.000000 -0.707107 0.707107
vn 0.000000 -0.707107 0.707107
vn 0.000000 -0.707107 0.707107
vn 0.000000 -0.707107 0.707107
vn -0.707107 0.000000 0.707107
vn -0.707107 0.000000 0.707107
vn -0.707107 0.000000 0.707107
vn -0.707107 0.000000 0.707107
vn 0.707107 0.000000 0.707107
vn 0.707107 0.000000 0.707107
vn 0.707107 0.000000 0.707107
vn 0.707107 0.000000 0.707107
vn 0.000000 0.707107 0.707107
vn 0.000000 0.707107 0.707107
vn 0.000000 0.707107 0.707107
vn 0.000000 0.707107 0.707107
vn 0.000000 0.000000 1.000000
vn 0.000000 0.000000 1.000000
vn 0.000000 0.000000 1.000000
vn 0.000000 0.000000 1.000000
vn 0.000000 1.000000 0.000000
vn 0.000000 1.000000 0.000000
vn 0.000000 1.000000 0.000000
vn 0.000000 1.000000 0.000000
vn 0.000000 -1.000000 0.000000
vn 0.000000 -1.000000 0.000000
vn 0.000000 -1.000000 0.000000
vn 0.000000 -1.000000 0.000000
vn 1.000000 0.000000 0.000000
vn 1.000000 0.000000 0.000000
vn 1.000000 0.000000 0.000000
vn 1.000000 0.000000 0.000000
vn -1.000000 0.000000 0.000000
vn -1.000000 0.000000 0.000000
vn -1.000000 0.000000 0.000000
vn -1.000000 0.000000 0.000000
vn 0.000000 0.707110 0.707104
vn 0.000000 0.707110 0.707104
vn 0.000000 0.707110 0.707104
vn 0.000000 0.707110 0.707104
vn -0.707109 0.000000 0.707104
vn -0.707109 0.000000 0.707104
vn -0.707109 0.000000 0.707104
vn -0.707109 0.000000 0.707104
vn 0.707109 0.000000 0.707104
vn 0.707109 0.000000 0.707104
vn 0.707109 0.000000 0.707104
vn 0.707109 0.000000 0.707104
vn 0.000000 -0.707110 0.707104
vn 0.000000 -0.707110 0.707104
vn 0.000000 -0.707110 0.707104
vn 0.000000 -0.707110 0.707104
vn -0.000000 0.000000 1.000000
vn 0.000000 0.000000 1.000000
vn 0.000000 0.000000 1.000000
vn -0.000000 0.000000 1.000000
vn 0.000000 0.000000 1.000000
vn 0.000000 0.000000 1.000000
vn -0.000000 0.000000 1.000000
vn -0.000000 0.000000 1.000000
vn 0.000000 1.000000 0.000000
vn 0.000000 1.000000 0.000000
vn 0.000000 1.000000 0.000000
vn 0.000000 1.000000 0.000000
vn -1.000000 0.000000 0.000000
vn -1.000000 0.000000 0.000000
vn -1.000000 0.000000 0.000000
vn -1.000000 0.000000 0.000000
vn 0.000000 -1.000000 0.000000
vn 0.000000 -1.000000 0.000000
vn 0.000000 -1.000000 0.000000
vn 0.000000 -1.000000 0.000000
vn 1.000000 0.000000 0.000000
vn 1.000000 0.000000 0.000000
vn 1.000000 0.000000 0.000000
vn 1.000000 0.000000 0.000000
f 1/33/1 2/34/2 4/35/3 3/36/4
f 5/37/5 6/38/6 8/39/7 7/40/8
f 6/38/9 5/37/10 9/43/11 10/44/12
f 7/40/13 8/39/14 12/47/15 11/48/16
f 10/49/17 9/50/18 11/48/19 12/47/20
f 14/53/21 13/54/22 15/55/23 16/56/24
f 10/4/25 12/5/26 2/1/27 1/7/28
f 3/2/29 4/8/30 8/9/31 6/3/32
f 8/9/33 4/8/34 2/1/35 12/5/36
f 3/2/37 6/3/38 10/15/39 1/16/40
f 17/57/41 18/58/42 20/52/43 19/51/44
f 18/58/45 17/57/46 21/46/47 22/45/48
f 19/51/49 20/52/50 24/42/51 23/41/52
f 22/45/53 21/46/54 23/14/55 24/13/56
f 5/23/57 7/17/58 17/20/59 19/18/60
f 7/17/58 11/19/61 21/22/62 17/20/59
f 11/19/61 9/12/63 23/11/64 21/22/62
f 9/21/63 5/23/57 19/18/60 23/24/64
f 20/31/65 18/25/66 13/28/67 14/26/68
f 18/25/69 22/27/70 15/30/71 13/28/72
f 22/27/73 24/10/74 16/6/75 15/30/76
f 24/29/77 20/31/78 14/26/79 16/32/80
