# This file uses meters as units for non-parametric coordinates.

v -35.492607 18.309780 65.267548
v 53.175652 18.309780 79.621155
v -35.492607 129.484161 65.267548
v 53.175652 129.484161 79.621155
v -46.824348 129.484161 0.000004
v 53.175652 129.484161 0.000004
v -46.824348 18.309780 0.000004
v 53.175652 18.309780 0.000004
v -7.893372 129.484161 0.000004
v -7.893372 18.309780 0.000004
v -7.893372 18.309780 79.621155
v -7.893372 129.484161 79.621155
v 53.175652 129.484161 38.487949
v 53.175652 18.309780 38.487949
v -7.893364 18.309780 38.487949
v -46.824348 18.309780 38.487949
v -46.824348 129.484161 38.487949
v 47.434151 120.676018 7.392030
v 47.434151 27.591053 7.392030
v -7.893372 121.997108 79.621155
v -7.570375 120.676018 78.300064
v -35.492607 121.997108 65.267548
v -34.461239 120.676018 64.314865
v -46.824345 121.997101 38.487949
v -45.503258 120.676018 38.219944
v -46.824348 121.997108 6.070941
v -45.503258 120.676018 7.392030
v -7.893372 26.269966 79.621155
v -7.570375 27.591055 78.300064
v -35.492607 26.269966 65.267548
v -34.461239 27.591055 64.314865
v -46.824348 26.269966 38.487949
v -45.503258 27.591055 38.219944
v -46.824348 26.269964 6.070941
v -45.503258 27.591053 7.392030
v 48.755241 121.997108 79.621155
v 47.434151 120.676018 78.300064
v 48.755241 26.269966 79.621155
v 47.434151 27.591055 78.300064
vt 0.635259 0.618398
vt 0.658439 0.618398
vt 0.658439 0.515490
vt 0.693997 0.607724
vt 0.693997 0.571817
vt 0.717702 0.571817
vt 0.717702 0.607724
vt 0.717709 0.515490
vt 0.694398 0.515490
vt 0.694800 0.618398
vt 0.717716 0.618398
vt 0.743305 0.571817
vt 0.734197 0.597273
vt 0.700668 0.610690
vt 0.700240 0.610690
vt 0.681366 0.610690
vt 0.680762 0.610690
vt 0.662446 0.610690
vt 0.662085 0.610690
vt 0.640447 0.610690
vt 0.640447 0.524062
vt 0.700240 0.524062
vt 0.681366 0.524062
vt 0.700668 0.524062
vt 0.739275 0.524062
vt 0.680762 0.524062
vt 0.662446 0.524062
vt 0.662085 0.524062
vt 0.739275 0.610690
vt 0.662273 0.515490
vt 0.639520 0.522844
vt 0.681070 0.522842
vt 0.700441 0.515490
vt 0.740202 0.522844
vt 0.662273 0.522842
vt 0.681070 0.515490
vt 0.700441 0.611846
vt 0.700441 0.618398
vt 0.681070 0.611846
vt 0.681070 0.618398
vt 0.662273 0.611846
vt 0.662273 0.618398
vt 0.740202 0.611807
vt 0.743305 0.618398
vt 0.635259 0.515490
vt 0.639520 0.611832
vt 0.743305 0.515490
vt 0.700441 0.522842
vt 0.740055 0.518891
vt 0.740054 0.617787
vt 0.642545 0.518891
vt 0.642545 0.617787
vt 0.739632 0.617787
vt 0.739632 0.518891
vt 0.636956 0.616316
vt 0.636956 0.574715
vt 0.680333 0.520629
vt 0.743232 0.520629
vt 0.680333 0.520629
vt 0.649583 0.539501
vt 0.743232 0.616316
vt 0.743232 0.520629
vt 0.636956 0.574715
vt 0.743232 0.616316
vt 0.649583 0.539501
vt 0.636956 0.616316
vn 0.000000 0.000000 -1.000000
vn 0.000000 0.000000 -1.000000
vn 0.000000 0.000000 -1.000000
vn 0.000000 0.000000 -1.000000
vn 0.000000 -1.000000 -0.000000
vn 0.000000 -1.000000 -0.000000
vn 0.000000 -1.000000 -0.000000
vn 0.000000 -1.000000 -0.000000
vn 1.000000 0.000000 0.000000
vn 1.000000 0.000000 0.000000
vn 1.000000 0.000000 0.000000
vn 1.000000 0.000000 0.000000
vn 0.000000 0.000000 -1.000000
vn 0.000000 0.000000 -1.000000
vn 0.000000 -1.000000 0.000000
vn 0.000000 -1.000000 0.000000
vn 1.000000 0.000000 0.000000
vn 1.000000 0.000000 0.000000
vn 0.000000 -1.000000 0.000000
vn 0.000000 -1.000000 0.000000
vn 0.000000 -1.000000 0.000000
vn -0.117307 -0.716419 0.687738
vn -0.117307 -0.716419 0.687738
vn 0.000000 -0.707107 0.707107
vn 0.000000 -0.707107 0.707107
vn -0.497719 -0.728269 0.471063
vn -0.497719 -0.728269 0.471063
vn -0.687316 -0.714184 0.132431
vn -0.687316 -0.714184 0.132431
vn -0.707106 -0.707108 -0.000000
vn -0.707106 -0.707108 -0.000000
vn -0.707106 0.000000 0.707107
vn -0.707106 0.000000 0.707107
vn -0.707106 0.000000 0.707107
vn -0.707106 0.000000 0.707107
vn -0.117306 0.716419 0.687738
vn -0.117306 0.716419 0.687738
vn -0.497719 0.728269 0.471063
vn -0.497719 0.728269 0.471063
vn 0.000000 0.707107 0.707106
vn 0.000000 0.707107 0.707106
vn -0.687316 0.714184 0.132431
vn -0.687317 0.714184 0.132431
vn -0.707106 0.707107 -0.000000
vn -0.707106 0.707107 -0.000000
vn -0.707108 0.000000 0.707106
vn -0.707108 0.000000 0.707106
vn -0.707108 0.000000 0.707106
vn -0.707108 0.000000 0.707106
vn -0.983823 0.000000 0.179143
vn -0.983823 0.000000 0.179143
vn -1.000000 0.000000 0.000000
vn -1.000000 0.000000 0.000000
vn -0.726282 0.000000 0.687397
vn -0.726282 0.000000 0.687397
vn -0.163777 0.000000 0.986498
vn -0.163777 0.000000 0.986498
vn 0.000001 0.000000 1.000000
vn 0.000000 0.000000 1.000000
vn 0.000000 0.000000 1.000000
vn 0.000001 0.000000 1.000000
vn -0.726282 0.000000 0.687397
vn -0.726282 0.000000 0.687397
vn -0.163776 0.000000 0.986497
vn -0.163776 0.000000 0.986497
vn -0.983823 -0.000000 0.179143
vn -0.983823 -0.000000 0.179143
vn -1.000000 -0.000000 0.000000
vn -1.000000 -0.000000 0.000000
vn 0.000000 0.000000 1.000000
vn 0.000000 0.000000 1.000000
vn 0.000000 0.000000 1.000000
vn 0.000000 0.000000 1.000000
vn -1.000000 0.000000 0.000000
vn -1.000000 0.000000 0.000000
vn -1.000000 0.000000 0.000000
vn -1.000000 0.000000 0.000000
vn 0.000000 1.000000 -0.000000
vn 0.000000 1.000000 0.000000
vn 0.000000 1.000000 0.000000
vn 0.000000 -1.000000 -0.000000
vn 0.000000 -1.000000 -0.000000
vn 0.000000 -1.000000 0.000000
vn 0.000000 1.000000 0.000000
vn 0.000000 1.000000 -0.000000
vn 0.000000 1.000000 -0.000000
vn 0.000000 -1.000000 -0.000000
vn 0.000000 -1.000000 -0.000000
vn 0.000000 -1.000000 0.000000
f 10/3/1 7/45/2 5/1/3 9/2/4
f 15/6/5 16/7/6 7/4/7 10/5/8
f 6/10/9 13/11/10 14/8/11 8/9/12
f 9/2/4 6/10/13 8/9/14 10/3/1
f 14/8/15 15/6/5 10/5/8 8/9/16
f 4/44/17 2/47/18 14/8/11 13/11/10
f 14/8/15 2/47/19 11/12/20 15/6/5
f 16/7/6 15/6/5 11/12/20 1/13/21
f 20/37/22 21/14/23 37/29/24 36/43/25
f 21/15/23 20/37/22 22/39/26 23/16/27
f 23/17/27 22/39/26 24/41/28 25/18/29
f 25/19/29 24/41/28 26/46/30 27/20/31
f 27/20/32 26/46/33 34/31/34 35/21/35
f 28/48/36 29/22/37 31/23/38 30/32/39
f 29/24/37 28/48/36 38/34/40 39/25/41
f 30/32/39 31/26/38 33/27/42 32/35/43
f 32/35/43 33/28/42 35/21/44 34/31/45
f 36/43/46 37/29/47 39/25/48 38/34/49
f 16/30/50 32/35/51 34/31/52 7/45/53
f 30/32/54 1/36/55 11/33/56 28/48/57
f 38/34/58 2/47/59 4/44/60 36/43/61
f 32/35/51 16/30/50 1/36/55 30/32/54
f 3/40/62 22/39/63 20/37/64 12/38/65
f 17/42/66 24/41/67 22/39/63 3/40/62
f 26/46/68 24/41/67 17/42/66 5/1/69
f 36/43/61 4/44/60 12/38/65 20/37/64
f 5/1/69 7/45/53 34/31/52 26/46/68
f 2/47/59 38/34/58 28/48/57 11/33/56
f 27/49/70 35/50/71 19/52/72 18/51/73
f 18/51/74 19/52/75 39/53/76 37/54/77
f 19/61/78 35/55/79 33/56/80
f 21/57/81 18/64/82 37/58/83
f 19/61/78 31/60/84 29/59/85
f 19/61/78 33/56/80 31/60/84
f 19/61/78 29/59/85 39/62/86
f 25/63/87 18/64/82 23/65/88
f 23/65/88 18/64/82 21/57/81
f 25/63/87 27/66/89 18/64/82
