# This file uses meters as units for non-parametric coordinates.

v -75.000015 18.309780 79.621155
v 75.000015 18.309780 79.621155
v -75.000015 129.484161 79.621155
v 75.000015 129.484161 79.621155
v -75.000015 129.484161 0.000004
v 75.000015 129.484161 0.000004
v -75.000015 18.309780 0.000004
v 75.000015 18.309780 0.000004
v 0.000000 129.484161 0.000004
v 0.000000 18.309780 0.000004
v 0.000000 18.309780 79.621155
v 0.000000 129.484161 79.621155
vt 0.434450 0.777795
vt 0.410170 0.777795
vt 0.410170 0.759282
vt 0.434450 0.759282
vt 0.434450 0.777795
vt 0.410170 0.777795
vt 0.410170 0.759282
vt 0.434450 0.759282
vt 0.410497 0.759464
vt 0.434256 0.759464
vt 0.434256 0.777716
vt 0.410497 0.777716
vt 0.410497 0.759464
vt 0.434256 0.759464
vt 0.434256 0.777716
vt 0.410497 0.777716
vt 0.434450 0.777795
vt 0.410170 0.777795
vt 0.434450 0.777795
vt 0.434450 0.759282
vt 0.434450 0.777795
vt 0.434450 0.759282
vt 0.434450 0.777795
vn 0.000000 0.000000 -1.000000
vn 0.000000 0.000000 -1.000000
vn 0.000000 0.000000 -1.000000
vn 0.000000 0.000000 -1.000000
vn 0.000000 -1.000000 0.000000
vn 0.000000 -1.000000 0.000000
vn 0.000000 -1.000000 0.000000
vn 0.000000 -1.000000 0.000000
vn 1.000000 0.000000 0.000000
vn 1.000000 0.000000 0.000000
vn 1.000000 0.000000 0.000000
vn 1.000000 0.000000 0.000000
vn -1.000000 0.000000 0.000000
vn -1.000000 0.000000 0.000000
vn -1.000000 0.000000 0.000000
vn -1.000000 0.000000 0.000000
vn 0.000000 0.000000 1.000000
vn 0.000000 0.000000 1.000000
vn 0.000000 0.000000 1.000000
vn 0.000000 0.000000 1.000000
vn 0.000000 0.000000 -1.000000
vn 0.000000 0.000000 -1.000000
vn 0.000000 -1.000000 0.000000
vn 0.000000 -1.000000 0.000000
vn 0.000000 0.000000 1.000000
vn 0.000000 0.000000 1.000000
f 5/1/1 9/2/2 10/3/3 7/4/4
f 7/5/5 10/6/6 11/7/7 1/8/8
f 2/9/9 8/10/10 6/11/11 4/12/12
f 7/13/13 1/14/14 3/15/15 5/16/16
f 3/17/17 1/8/18 11/7/19 12/18/20
f 9/2/2 6/19/21 8/20/22 10/3/3
f 11/7/7 10/6/6 8/21/23 2/22/24
f 12/18/20 11/7/19 2/22/25 4/23/26
