# This file uses meters as units for non-parametric coordinates.

v -75.000015 18.309780 79.621155
v 75.000015 18.309780 79.621155
v -75.000015 129.484162 79.621155
v 75.000015 129.484162 79.621155
v -75.000015 129.484162 0.000004
v 75.000015 129.484162 0.000004
v -75.000015 18.309780 0.000004
v 75.000015 18.309780 0.000004
v 0.000000 129.484162 0.000004
v 0.000000 18.309780 0.000004
v 0.000000 18.309780 79.621155
vt 0.618347 0.059001
vt 0.511745 0.059001
vt 0.511745 0.005365
vt 0.618347 0.005365
vt 0.618347 0.059001
vt 0.511745 0.059001
vt 0.511745 0.005365
vt 0.618347 0.005365
vt 0.513181 0.005892
vt 0.617493 0.005892
vt 0.617493 0.058771
vt 0.513181 0.058771
vt 0.513181 0.005892
vt 0.617493 0.005892
vt 0.617493 0.058771
vt 0.513181 0.058771
vt 0.618347 0.059001
vt 0.618347 0.005365
vt 0.618347 0.059001
vt 0.618347 0.005365
vn 0.000000 0.000000 -1.000000
vn 0.000000 0.000000 -1.000000
vn 0.000000 0.000000 -1.000000
vn 0.000000 0.000000 -1.000000
vn 0.000000 -1.000000 0.000000
vn 0.000000 -1.000000 0.000000
vn 0.000000 -1.000000 0.000000
vn 0.000000 -1.000000 0.000000
vn 1.000000 0.000000 0.000000
vn 1.000000 0.000000 0.000000
vn 1.000000 0.000000 0.000000
vn 1.000000 0.000000 0.000000
vn -1.000000 0.000000 0.000000
vn -1.000000 0.000000 0.000000
vn -1.000000 0.000000 0.000000
vn -1.000000 0.000000 0.000000
vn 0.000000 0.000000 -1.000000
vn 0.000000 0.000000 -1.000000
vn 0.000000 -1.000000 0.000000
vn 0.000000 -1.000000 0.000000
f 5/1/1 9/2/2 10/3/3 7/4/4
f 7/5/5 10/6/6 11/7/7 1/8/8
f 2/9/9 8/10/10 6/11/11 4/12/12
f 7/13/13 1/14/14 3/15/15 5/16/16
f 9/2/2 6/17/17 8/18/18 10/3/3
f 11/7/7 10/6/6 8/19/19 2/20/20
