# This file uses meters as units for non-parametric coordinates.

v -75.000015 6.757524 65.856766
v 75.000015 6.757524 65.856766
v -75.000015 117.931902 72.656898
v 75.000015 117.931902 72.656898
v -75.000015 117.931902 0.000004
v 75.000015 117.931902 0.000004
v -75.000015 6.757524 0.000004
v 75.000015 6.757524 0.000004
v 0.000000 117.931902 0.000004
v 0.000000 6.757524 0.000004
v 0.000000 6.757524 65.856766
v 0.000000 117.931902 72.656898
v -75.000015 108.941851 65.856766
v -75.000015 108.941851 0.000004
v 0.000000 108.941851 0.000004
v 75.000015 108.941851 0.000004
v 75.000015 108.941851 65.856766
v 0.000000 108.941851 65.856766
v 0.000000 113.241564 71.327690
v -75.000015 113.241564 71.327690
v -75.000015 113.241564 0.000004
v 0.000000 113.241564 0.000004
v 75.000015 113.241564 0.000004
v 75.000015 113.241564 71.327690
v 0.000000 104.232653 4.628544
v -70.357201 104.232653 4.628544
v -70.357201 12.178453 4.628544
v 0.000000 12.178453 4.628544
v 70.357201 104.232653 4.628544
v 70.357201 12.178453 4.628544
v -71.275536 11.260118 65.856766
v -70.357201 12.178453 64.938431
v -71.275536 105.150988 65.856766
v -70.357201 104.232653 64.938431
v 0.000000 11.260118 65.856766
v 0.000000 12.178453 64.938431
v 71.275536 11.260118 65.856766
v 70.357201 12.178453 64.938431
v 0.000000 105.150988 65.856766
v 0.000000 104.232653 64.938431
v 71.275536 105.150988 65.856766
v 70.357201 104.232653 64.938431
vt 0.993347 0.743303
vt 0.886745 0.743303
vt 0.886745 0.631259
vt 0.993347 0.631259
vt 0.993347 0.743303
vt 0.886745 0.743303
vt 0.888181 0.632360
vt 0.992493 0.632360
vt 0.992493 0.742822
vt 0.888181 0.742822
vt 0.888181 0.632360
vt 0.992493 0.632360
vt 0.992493 0.742822
vt 0.888181 0.742822
vt 0.993347 0.743303
vt 0.886745 0.743303
vt 0.993347 0.743303
vt 0.993347 0.631259
vt 0.993347 0.743303
vt 0.993347 0.743303
vt 0.991675 0.632577
vt 0.991675 0.744392
vt 0.886868 0.744392
vt 0.886868 0.632577
vt 0.886868 0.744392
vt 0.886868 0.632577
vt 0.992493 0.733889
vt 0.888181 0.733889
vt 0.993347 0.734242
vt 0.886745 0.734242
vt 0.993347 0.734242
vt 0.992493 0.733889
vt 0.888181 0.733889
vt 0.886745 0.738576
vt 0.992493 0.738161
vt 0.993347 0.738576
vt 0.888181 0.738161
vt 0.993347 0.738576
vt 0.886745 0.738576
vt 0.993347 0.738576
vt 0.992493 0.738161
vt 0.993347 0.738576
vt 0.888181 0.738161
vt 0.988053 0.635795
vt 0.886745 0.631259
vt 0.988053 0.635797
vt 0.993347 0.734242
vt 0.993347 0.734242
vt 0.886745 0.730422
vt 0.988053 0.730422
vt 0.886745 0.734242
vt 0.993347 0.631259
vt 0.886745 0.635797
vt 0.993347 0.631259
vt 0.988053 0.730422
vt 0.986748 0.729496
vt 0.886745 0.729496
vt 0.986748 0.636722
vt 0.986748 0.729496
vt 0.886745 0.636722
vt 0.986748 0.636722
vt 0.886745 0.729496
vt 0.986748 0.729496
vt 0.986748 0.636722
vt 0.886745 0.636722
vt 0.986748 0.729496
vt 0.986748 0.636722
vt 0.993765 0.631099
vt 0.885803 0.631099
vt 0.885803 0.739061
vt 0.993765 0.739061
vt 0.993765 0.739061
vt 0.993765 0.631099
vt 0.993765 0.739061
vt 0.993765 0.631099
vt 0.885803 0.739061
vt 0.885803 0.631099
vt 0.885803 0.739061
vt 0.885803 0.631099
vn 0.000000 0.000000 -1.000000
vn 0.000000 0.000000 -1.000000
vn 0.000000 0.000000 -1.000000
vn 0.000000 0.000000 -1.000000
vn 0.000000 -1.000000 0.000000
vn 0.000000 -1.000000 0.000000
vn 0.000000 -1.000000 0.000000
vn 0.000000 -1.000000 0.000000
vn 1.000000 0.000000 0.000000
vn 1.000000 0.000000 0.000000
vn 1.000000 0.000000 0.000000
vn 1.000000 0.000000 0.000000
vn -1.000000 0.000000 0.000000
vn -1.000000 0.000000 0.000000
vn -1.000000 0.000000 0.000000
vn -1.000000 0.000000 0.000000
vn 0.000000 0.000000 -1.000000
vn 0.000000 0.000000 -1.000000
vn 0.000000 -1.000000 0.000000
vn 0.000000 -1.000000 0.000000
vn 0.000000 1.000000 0.000000
vn 0.000000 1.000000 0.000000
vn 0.000000 1.000000 0.000000
vn 0.000000 1.000000 0.000000
vn 0.000000 1.000000 0.000000
vn 0.000000 1.000000 0.000000
vn -1.000000 -0.000001 0.000000
vn -1.000000 0.000000 0.000000
vn 0.000000 0.000000 -1.000000
vn 0.000000 0.000000 -1.000000
vn 0.000000 0.000000 -1.000000
vn 1.000000 0.000000 0.000000
vn 1.000000 -0.000000 0.000000
vn 0.000000 -0.786240 0.617922
vn 0.000000 -0.603265 0.797541
vn 0.000000 -0.603265 0.797541
vn 0.000000 -0.786240 0.617922
vn 0.000000 -0.603265 0.797541
vn 0.000000 -0.786240 0.617922
vn 0.000000 -0.272656 0.962112
vn 0.000000 -0.272656 0.962112
vn -1.000000 -0.000001 0.000000
vn -1.000000 -0.000001 0.000000
vn 0.000000 0.000000 -1.000000
vn 0.000000 0.000000 -1.000000
vn 0.000000 0.000000 -1.000000
vn 1.000000 -0.000001 0.000000
vn 1.000000 -0.000001 0.000000
vn 0.000000 -0.272656 0.962112
vn 0.000000 0.000000 1.000000
vn 0.000000 0.000000 1.000000
vn 0.000000 0.000000 1.000000
vn 0.000000 0.000000 1.000000
vn 0.000000 0.000000 1.000000
vn 0.000000 0.000000 1.000000
vn 0.707105 0.000000 0.707109
vn 0.707105 0.000000 0.707109
vn 0.707105 0.000000 0.707109
vn 0.707105 0.000000 0.707109
vn 0.000000 0.707107 0.707107
vn 0.000000 0.707107 0.707107
vn 0.000000 0.707107 0.707107
vn 0.000000 0.707107 0.707107
vn 0.000000 -0.707104 0.707110
vn 0.000000 -0.707104 0.707110
vn 0.000000 -0.707104 0.707110
vn 0.000000 -0.707104 0.707110
vn 0.000000 0.707107 0.707107
vn 0.000000 0.707107 0.707107
vn -0.707105 0.000000 0.707109
vn -0.707105 0.000000 0.707109
vn -0.707105 0.000000 0.707109
vn -0.707105 0.000000 0.707109
vn 0.000000 -0.707104 0.707110
vn 0.000000 -0.707104 0.707110
vn 0.000000 0.000000 1.000000
vn 0.000000 0.000000 1.000000
vn 0.000000 0.000000 1.000000
vn 0.000000 0.000000 1.000000
vn 0.000000 0.000000 1.000000
vn 0.000000 0.000000 1.000000
vn 0.000000 0.000000 1.000000
vn 0.000000 0.000000 1.000000
vn 0.000000 0.000000 1.000000
vn 0.000000 0.000000 1.000000
vn 0.000000 0.000000 1.000000
vn 0.000000 0.000000 1.000000
vn 0.000000 -1.000000 0.000000
vn 0.000000 -1.000000 0.000000
vn 0.000000 -1.000000 0.000000
vn 0.000000 -1.000000 0.000000
vn 1.000000 0.000000 0.000000
vn 1.000000 0.000000 0.000000
vn 1.000000 0.000000 0.000000
vn 1.000000 0.000000 0.000000
vn 0.000000 1.000000 0.000000
vn 0.000000 1.000000 0.000000
vn 0.000000 1.000000 0.000000
vn 0.000000 1.000000 0.000000
vn 0.000000 -1.000000 0.000000
vn 0.000000 -1.000000 0.000000
vn 0.000000 1.000000 0.000000
vn 0.000000 1.000000 0.000000
vn -1.000000 0.000000 0.000000
vn -1.000000 0.000000 0.000000
vn -1.000000 0.000000 0.000000
vn -1.000000 0.000000 0.000000
f 10/3/1 7/4/2 14/29/3 15/30/4
f 1/54/5 7/5/6 10/6/7 11/45/8
f 2/7/9 8/8/10 16/32/11 17/33/12
f 7/11/13 1/12/14 13/27/15 14/28/16
f 8/18/17 10/3/1 15/30/4 16/31/18
f 8/19/19 2/52/20 11/45/8 10/6/7
f 5/23/21 3/24/22 12/21/23 9/22/24
f 4/26/25 6/25/26 9/22/24 12/21/23
f 14/28/16 13/27/15 20/35/27 21/37/28
f 14/29/3 21/38/29 22/39/30 15/30/4
f 23/40/31 16/31/18 15/30/4 22/39/30
f 17/33/12 16/32/11 23/41/32 24/43/33
f 17/47/34 24/42/35 19/34/36 18/51/37
f 20/36/38 13/48/39 18/51/37 19/34/36
f 3/15/40 20/36/38 19/34/36 12/16/41
f 21/37/28 20/35/27 3/13/42 5/14/43
f 22/39/30 21/38/29 5/1/44 9/2/45
f 9/2/45 6/17/46 23/40/31 22/39/30
f 24/43/33 23/41/32 6/9/47 4/10/48
f 24/42/35 4/20/49 12/16/41 19/34/36
f 25/57/50 26/59/51 27/61/52 28/65/53
f 29/63/54 25/57/50 28/65/53 30/67/55
f 31/44/56 32/58/57 34/56/58 33/55/59
f 32/58/60 31/44/61 35/53/62 36/60/63
f 33/55/64 34/56/65 40/62/66 39/49/67
f 36/60/63 35/53/62 37/46/68 38/64/69
f 38/64/70 37/46/71 41/50/72 42/66/73
f 39/49/67 40/62/66 42/66/74 41/50/75
f 31/44/76 1/54/77 11/45/78 35/53/79
f 41/50/80 37/46/81 2/52/82 17/47/83
f 18/51/84 13/48/85 33/55/86 39/49/87
f 41/50/80 17/47/83 18/51/84 39/49/87
f 11/45/78 2/52/82 37/46/81 35/53/79
f 1/54/77 31/44/76 33/55/86 13/48/85
f 40/68/88 34/69/89 26/70/90 25/71/91
f 34/69/92 32/73/93 27/74/94 26/70/95
f 32/73/96 36/77/97 28/78/98 27/74/99
f 42/79/100 40/68/88 25/71/91 29/76/101
f 36/77/97 38/75/102 30/72/103 28/78/98
f 38/75/104 42/79/105 29/76/106 30/72/107
