# This file uses meters as units for non-parametric coordinates.

v -75.000015 0.000000 60.602291
v 75.000015 0.000000 60.602291
v -75.000015 6.757509 60.602291
v 75.000015 6.757509 60.602291
v -75.000015 6.757509 0.000004
v 75.000015 6.757509 0.000004
v -75.000015 0.000000 0.000004
v 75.000015 0.000000 0.000004
v 0.000000 6.757509 0.000004
v 0.000000 0.000000 0.000004
v 0.000000 0.000000 60.602291
v 0.000000 6.757509 60.602291
vt 0.429590 0.826009
vt 0.414706 0.826009
vt 0.414706 0.830908
vt 0.429590 0.830908
vt 0.414706 0.830908
vt 0.429590 0.830908
vt 0.415270 0.837258
vt 0.429617 0.837258
vt 0.415270 0.824578
vt 0.429617 0.824578
vt 0.429590 0.826009
vt 0.414706 0.826009
vt 0.414706 0.830908
vt 0.429590 0.830908
vt 0.414706 0.826009
vt 0.429617 0.837258
vt 0.429617 0.824578
vt 0.429590 0.826009
vn 0.000000 0.000000 1.000000
vn 0.000000 0.000000 1.000000
vn 0.000000 0.000000 1.000000
vn 0.000000 0.000000 1.000000
vn 0.000000 0.000000 -1.000000
vn 0.000000 0.000000 -1.000000
vn 0.000000 0.000000 -1.000000
vn 0.000000 0.000000 -1.000000
vn 0.000000 -1.000000 0.000000
vn 0.000000 -1.000000 0.000000
vn 0.000000 -1.000000 0.000000
vn 0.000000 -1.000000 0.000000
vn 1.000000 0.000000 0.000000
vn 1.000000 0.000000 0.000000
vn 1.000000 0.000000 0.000000
vn 1.000000 0.000000 0.000000
vn -1.000000 0.000000 0.000000
vn -1.000000 0.000000 0.000000
vn -1.000000 0.000000 0.000000
vn -1.000000 0.000000 0.000000
vn 0.000000 0.000000 -1.000000
vn 0.000000 0.000000 -1.000000
vn 0.000000 -1.000000 0.000000
vn 0.000000 -1.000000 0.000000
vn 0.000000 0.000000 1.000000
vn 0.000000 0.000000 1.000000
f 1/1/1 11/2/2 12/3/3 3/4/4
f 5/5/5 9/6/6 10/18/7 7/15/8
f 7/8/9 10/7/10 11/9/11 1/10/12
f 2/11/13 8/12/14 6/13/15 4/14/16
f 7/15/17 1/1/18 3/4/19 5/5/20
f 9/6/6 6/13/21 8/12/22 10/18/7
f 11/9/11 10/7/10 8/16/23 2/17/24
f 12/3/3 11/2/2 2/11/25 4/14/26
