# This file uses meters as units for non-parametric coordinates.

v -30.344189 -0.000000 47.553385
v 51.890690 -0.000000 60.602277
v -30.344189 6.757511 47.553385
v 51.890690 6.757511 60.602277
v -41.675930 6.757511 0.000004
v 51.890690 6.757511 0.000004
v -41.675930 -0.000000 0.000004
v 51.890690 -0.000000 0.000004
v -7.805386 6.757511 0.000004
v -7.805386 -0.000000 0.000004
v -7.805386 -0.000000 60.602277
v -7.805386 6.757511 60.602277
v 51.890690 6.757511 30.310275
v 51.890690 -0.000000 30.310275
v -7.805386 -0.000000 30.310275
v -41.675930 -0.000000 30.310275
v -41.675930 6.757511 30.310275
vt 0.399683 0.829388
vt 0.384850 0.829388
vt 0.384850 0.834766
vt 0.399683 0.834766
vt 0.399683 0.834766
vt 0.384850 0.834766
vt 0.392202 0.839098
vt 0.399683 0.829388
vt 0.384170 0.839098
vt 0.384142 0.831785
vt 0.392227 0.831814
vt 0.399741 0.839098
vt 0.399713 0.831735
vt 0.399683 0.834766
vt 0.384850 0.834766
vt 0.384850 0.834766
vt 0.399683 0.829388
vt 0.384850 0.829388
vt 0.399683 0.829388
vt 0.384114 0.824506
vt 0.399686 0.824455
vt 0.399683 0.834766
vt 0.384850 0.829388
vt 0.384850 0.829388
vt 0.389536 0.827660
vn -0.666633 0.000000 0.745386
vn -0.156718 0.000000 0.987643
vn -0.156718 0.000000 0.987643
vn -0.666633 0.000000 0.745386
vn 0.000000 0.000000 -1.000000
vn 0.000000 0.000000 -1.000000
vn 0.000000 0.000000 -1.000000
vn 0.000000 0.000000 -1.000000
vn 0.000000 -1.000000 0.000000
vn 0.000000 -1.000000 0.000000
vn 0.000000 -1.000000 -0.000000
vn 0.000000 -1.000000 -0.000000
vn 1.000000 0.000000 0.000000
vn 1.000000 0.000000 0.000000
vn 1.000000 0.000000 0.000000
vn 1.000000 0.000000 0.000000
vn -1.000000 0.000000 0.000000
vn -0.972762 0.000000 0.231805
vn -0.972762 0.000000 0.231805
vn -1.000000 0.000000 0.000000
vn 0.000000 0.000000 -1.000000
vn 0.000000 0.000000 -1.000000
vn -0.000000 -1.000000 0.000000
vn -0.000000 -1.000000 0.000000
vn 0.000000 0.000000 1.000000
vn 0.000000 0.000000 1.000000
vn 1.000000 0.000000 0.000000
vn 1.000000 0.000000 0.000000
vn -0.000000 -1.000000 -0.000000
vn -0.000000 -1.000000 0.000000
vn 0.000000 -1.000000 -0.000000
f 1/1/1 11/2/2 12/3/3 3/4/4
f 5/5/5 9/6/6 10/23/7 7/8/8
f 7/7/9 10/9/10 15/10/11 16/11/12
f 14/24/13 8/19/14 6/14/15 13/15/16
f 7/8/17 16/18/18 17/16/19 5/5/20
f 9/6/6 6/14/21 8/19/22 10/23/7
f 15/10/11 10/9/10 8/12/23 14/13/24
f 12/3/3 11/2/2 2/17/25 4/22/26
f 2/17/27 14/24/13 13/15/16 4/22/28
f 11/20/29 15/10/11 14/13/24 2/21/30
f 16/11/12 15/10/11 11/20/29 1/25/31
f 17/16/19 16/18/18 1/1/1 3/4/4
