# This file uses meters as units for non-parametric coordinates.

v 0.000000 -46.542482 7.392033
v -0.092636 -46.542482 37.417724
v -0.092636 46.542482 37.417724
v 0.000000 46.542482 7.392033
v 10.540527 -46.542482 63.186519
v 10.540527 46.542482 63.186519
v 37.331024 -46.542482 77.564224
v 37.331024 46.542482 77.564224
v 92.381393 46.542482 77.465508
v 92.381393 -46.542482 77.465508
v 9.388092 -46.106709 64.524530
v 9.707123 -46.542482 64.154150
v 36.949768 -46.106709 79.425526
v 37.050140 -46.542482 78.935569
v 91.945618 -46.106709 79.425526
v 92.381393 -46.542482 78.935569
v 91.945618 46.106707 79.425526
v 92.381393 46.542482 78.935569
v -1.743256 -46.106709 7.881986
v -1.307465 -46.542482 7.392030
v -1.735458 -46.106709 37.874437
v -1.299667 -46.542482 37.753290
v 36.949768 46.106707 79.425526
v 37.050140 46.542482 78.935569
v 9.388092 46.106707 64.524530
v 9.707123 46.542482 64.154150
v -1.735458 46.106707 37.874437
v -1.299667 46.542482 37.753290
v -1.743256 46.106707 7.881986
v -1.307465 46.542482 7.392030
vt 0.556496 0.513841
vt 0.574414 0.513841
vt 0.556309 0.513841
vt 0.538966 0.513841
vt 0.574544 0.513841
vt 0.574544 0.613589
vt 0.538784 0.513841
vt 0.514126 0.514313
vt 0.574414 0.613589
vt 0.556496 0.613589
vt 0.556309 0.613589
vt 0.538966 0.613589
vt 0.538784 0.613589
vt 0.514126 0.613118
vt 0.538888 0.514313
vt 0.556413 0.613118
vt 0.574473 0.514313
vt 0.614128 0.613118
vt 0.574473 0.613118
vt 0.614127 0.514313
vt 0.538888 0.613118
vt 0.556413 0.514313
vt 0.513703 0.513841
vt 0.538888 0.513841
vt 0.538888 0.613589
vt 0.513703 0.613589
vt 0.513703 0.613589
vt 0.513703 0.513841
vt 0.556413 0.513841
vt 0.574473 0.513841
vt 0.574473 0.613589
vt 0.556413 0.613589
vt 0.614436 0.613589
vt 0.574473 0.613589
vt 0.574477 0.513841
vt 0.614436 0.513841
vt 0.614436 0.513841
vt 0.614436 0.613589
vt 0.538888 0.513841
vt 0.556413 0.513841
vt 0.556413 0.613589
vt 0.538888 0.613589
vn 0.999995 0.000000 0.003085
vn 0.999995 0.000000 0.003085
vn 0.982619 0.000000 -0.185633
vn 0.982619 0.000000 -0.185633
vn 0.731477 0.000000 -0.681866
vn 0.171876 0.000000 -0.985119
vn 0.171876 0.000000 -0.985119
vn 0.731477 0.000000 -0.681866
vn -0.001793 0.000000 -0.999998
vn -0.001793 0.000000 -0.999998
vn -0.484933 -0.746831 0.455065
vn -0.488166 -0.746624 0.451937
vn -0.116061 -0.753708 0.646880
vn -0.116373 -0.753711 0.646820
vn -0.683974 -0.716870 0.135196
vn -0.684599 -0.716804 0.132345
vn 0.000000 -0.747215 0.664582
vn 0.000000 -0.747215 0.664582
vn 0.747216 0.000000 0.664582
vn 0.747216 0.000000 0.664581
vn 0.747216 0.000000 0.664581
vn 0.747216 0.000000 0.664581
vn 0.000000 0.747212 0.664586
vn 0.000000 0.747212 0.664586
vn -0.116062 0.753707 0.646882
vn -0.116374 0.753710 0.646822
vn -0.707026 -0.707187 0.000183
vn -0.707026 -0.707187 0.000183
vn -0.747201 0.000000 -0.664598
vn -0.747201 0.000000 -0.664598
vn -0.747201 0.000000 -0.664598
vn -0.747201 0.000000 -0.664598
vn -0.488168 0.746624 0.451934
vn -0.484935 0.746831 0.455062
vn -0.684601 0.716803 0.132345
vn -0.683975 0.716868 0.135196
vn -0.707028 0.707186 0.000183
vn -0.707028 0.707186 0.000183
vn -1.000000 0.000000 0.000260
vn -0.981232 0.000000 0.192831
vn -0.981232 0.000000 0.192831
vn -1.000000 0.000000 0.000260
vn -0.731896 0.000000 0.681416
vn -0.731896 0.000000 0.681416
vn -0.177622 0.000000 0.984099
vn -0.177622 0.000000 0.984099
vn 0.000000 0.000000 1.000000
vn 0.000000 0.000000 1.000000
vn 0.000000 -1.000000 0.000000
vn 0.000000 -1.000000 0.000000
vn 0.000000 -1.000000 0.000000
vn 0.000000 -1.000000 0.000000
vn 0.000000 1.000000 0.000000
vn 0.000000 1.000000 0.000000
vn 0.000000 1.000000 0.000000
vn 0.000000 1.000000 0.000000
vn 0.000003 0.000000 -1.000000
vn 0.000003 0.000000 -1.000000
vn 0.000003 0.000000 -1.000000
vn 0.000003 0.000000 -1.000000
vn 0.000000 -1.000000 0.000000
vn 0.000000 -1.000000 0.000000
vn 0.000000 -1.000000 0.000000
vn 0.000000 -1.000000 0.000000
vn 0.000000 1.000000 0.000000
vn 0.000000 1.000000 0.000000
vn 0.000000 1.000000 0.000000
vn 0.000000 1.000000 0.000000
vn 0.000000 1.000000 0.000000
vn 0.000000 1.000000 0.000000
vn 0.000000 -1.000000 0.000000
vn 0.000000 -1.000000 0.000000
vn 1.000000 0.000000 0.000000
vn 1.000000 0.000000 0.000000
vn 1.000000 0.000000 0.000000
vn 1.000000 0.000000 0.000000
f 1/28/1 4/26/2 3/42/3 2/24/4
f 6/32/5 8/34/6 7/30/7 5/40/8
f 9/38/9 10/36/10 7/30/7 8/34/6
f 3/42/3 6/32/5 5/40/8 2/24/4
f 11/22/11 12/1/12 14/2/13 13/17/14
f 12/3/12 11/22/11 21/15/15 22/4/16
f 13/17/14 14/5/13 16/37/17 15/20/18
f 15/20/19 16/37/20 18/33/21 17/18/22
f 17/18/23 18/33/24 24/6/25 23/19/26
f 19/8/27 20/23/28 22/7/16 21/15/15
f 20/23/29 19/8/30 29/14/31 30/27/32
f 23/19/26 24/9/25 26/10/33 25/16/34
f 25/16/34 26/11/33 28/12/35 27/21/36
f 27/21/36 28/13/35 30/27/37 29/14/38
f 19/8/39 21/15/40 27/21/41 29/14/42
f 25/16/43 11/22/44 13/17/45 23/19/46
f 17/18/47 23/19/46 13/17/45 15/20/48
f 27/21/41 21/15/40 11/22/44 25/16/43
f 20/23/49 1/28/50 2/24/51 22/39/52
f 28/25/53 3/42/54 4/26/55 30/27/56
f 30/27/57 4/26/58 1/28/59 20/23/60
f 12/29/61 5/40/62 7/30/63 14/35/64
f 24/31/65 8/34/66 6/32/67 26/41/68
f 18/33/69 9/38/70 8/34/66 24/31/65
f 14/35/64 7/30/63 10/36/71 16/37/72
f 16/37/73 10/36/74 9/38/75 18/33/76
f 22/39/52 2/24/51 5/40/62 12/29/61
f 26/41/68 6/32/67 3/42/54 28/25/53
