# This file uses meters as units for non-parametric coordinates.

v -75.000015 129.484154 90.201691
v 75.000015 129.484154 90.201691
v -75.000015 137.232971 0.000008
v 75.000015 137.232971 0.000008
v -75.000015 129.484154 0.000008
v 75.000015 129.484154 0.000008
v 0.000000 137.232971 0.000008
v 0.000000 129.484154 0.000008
v 0.000000 129.484154 90.201691
v -75.000015 137.232979 88.264679
v -75.000015 135.295967 90.201691
v 0.000000 137.232979 88.264679
v 0.000000 135.295967 90.201691
v 75.000015 135.295967 90.201691
v 75.000015 137.232979 88.264679
vt 0.743898 0.867949
vt 0.743898 0.867949
vt 0.743898 0.756747
vt 0.743898 0.756747
vt 0.743898 0.805785
vt 0.743898 0.826637
vt 0.632998 0.805785
vt 0.633464 0.756747
vt 0.632998 0.826637
vt 0.633464 0.867949
vt 0.743898 0.826637
vt 0.743898 0.805785
vt 0.743898 0.826637
vt 0.743898 0.805785
vt 0.743898 0.805785
vt 0.743898 0.810998
vt 0.632998 0.805785
vt 0.633464 0.867949
vt 0.743898 0.867949
vt 0.743898 0.865560
vt 0.743898 0.826637
vt 0.632998 0.826637
vt 0.743898 0.865560
vt 0.633464 0.865560
vt 0.743898 0.756747
vt 0.743898 0.756747
vt 0.633464 0.756747
vt 0.632998 0.810998
vt 0.743898 0.810998
vn 0.000000 0.000000 -1.000000
vn 0.000000 0.000000 -1.000000
vn 0.000000 0.000000 -1.000000
vn 0.000000 0.000000 -1.000000
vn 0.000000 -1.000000 0.000000
vn 0.000000 -1.000000 0.000000
vn 0.000000 -1.000000 0.000000
vn 0.000000 -1.000000 0.000000
vn 1.000000 -0.000000 0.000000
vn 1.000000 -0.000000 0.000000
vn 1.000000 -0.000000 0.000000
vn 1.000000 -0.000000 0.000000
vn 1.000000 -0.000000 0.000000
vn -1.000000 0.000000 0.000000
vn -1.000000 0.000000 0.000000
vn -1.000000 0.000000 0.000000
vn -1.000000 0.000000 0.000000
vn -1.000000 0.000000 0.000000
vn 0.000000 0.000000 -1.000000
vn 0.000000 0.000000 -1.000000
vn 0.000000 -1.000000 0.000000
vn 0.000000 -1.000000 0.000000
vn 0.000000 0.707108 0.707106
vn 0.000000 0.707108 0.707106
vn 0.000000 0.707108 0.707106
vn 0.000000 0.707108 0.707106
vn 0.000000 0.707108 0.707106
vn 0.000000 0.707108 0.707106
vn 0.000000 0.000000 1.000000
vn 0.000000 0.000000 1.000000
vn 0.000000 0.000000 1.000000
vn 0.000000 0.000000 1.000000
vn 0.000000 1.000000 0.000000
vn 0.000000 1.000000 0.000000
vn 0.000000 1.000000 0.000000
vn 0.000000 1.000000 0.000000
vn 0.000000 1.000000 0.000000
vn 0.000000 1.000000 0.000000
vn 0.000000 0.000000 1.000000
vn 0.000000 0.000000 1.000000
f 3/5/1 7/7/2 8/9/3 5/11/4
f 5/4/5 8/8/6 9/10/7 1/1/8
f 2/13/9 6/6/10 4/14/11 15/15/12 14/29/13
f 5/11/14 1/21/15 11/16/16 10/12/17 3/5/18
f 8/9/3 7/7/2 4/14/19 6/6/20
f 9/10/7 8/8/6 6/3/21 2/2/22
f 10/12/23 11/16/24 13/28/25 12/17/26
f 12/24/26 13/18/25 14/19/27 15/20/28
f 1/21/29 9/22/30 13/28/31 11/16/32
f 10/23/33 12/24/34 7/27/35 3/25/36
f 12/24/34 15/20/37 4/26/38 7/27/35
f 13/28/31 9/22/30 2/13/39 14/29/40
