# This file uses meters as units for non-parametric coordinates.

v -36.777569 6.757524 52.433111
v 51.890690 6.757524 65.856762
v -39.943550 117.931900 57.032411
v 51.890690 117.931900 72.656896
v -51.890690 117.931900 0.000004
v 51.890690 117.931900 0.000004
v -48.109310 6.757524 0.000004
v 51.890690 6.757524 0.000004
v -9.178333 117.931900 0.000004
v -9.178333 6.757524 0.000003
v -9.178333 6.757524 65.856762
v -9.178333 117.931900 72.656896
v 51.890690 117.931900 30.919546
v 51.890690 6.757524 30.919546
v -9.178326 6.757524 30.919546
v -48.109310 6.757524 30.919546
v -51.890690 117.931900 30.919546
v -9.178333 117.931900 30.919558
v -9.178333 108.941849 65.856762
v -36.777569 108.941849 52.433111
v -48.109310 108.941849 30.919546
v -48.109310 108.941849 0.000004
v -9.178333 108.941849 0.000003
v 51.890690 108.941849 0.000004
v 51.890690 108.941849 30.919546
v 51.890690 108.941849 65.856762
v -38.442982 113.670906 54.852497
v -50.098438 113.670906 30.919546
v -50.098438 113.670906 0.000004
v -9.178333 113.670906 0.000004
v 51.890690 113.670906 0.000004
v 51.890690 113.670906 30.919546
v 51.890690 113.241562 71.327692
v -9.178333 113.241562 71.327692
v 47.408073 104.232658 5.023365
v 47.408073 12.178453 5.023365
v -9.178333 105.150986 65.856762
v -8.960104 104.232651 64.909138
v -36.777569 105.150986 52.433111
v -36.083855 104.232651 51.716757
v -48.109310 105.150986 30.919546
v -47.161690 104.232651 30.685236
v -48.109310 105.150986 4.075744
v -47.161690 104.232651 5.023364
v -9.178333 11.260123 65.856762
v -8.960104 12.178453 64.909138
v -36.777573 11.260116 52.433111
v -36.083855 12.178453 51.716757
v -48.109310 11.260116 30.919546
v -47.161690 12.178453 30.685236
v -48.109310 11.260116 4.075744
v -47.161690 12.178453 5.023364
v 48.355694 105.150993 65.856762
v 47.408073 104.232658 64.909138
v 48.355694 11.260116 65.856762
v 47.408073 12.178453 64.909138
vt 0.760259 0.621181
vt 0.783439 0.621181
vt 0.783439 0.508598
vt 0.818997 0.609504
vt 0.818997 0.570220
vt 0.842702 0.570220
vt 0.842702 0.609504
vt 0.842709 0.508598
vt 0.819398 0.508598
vt 0.819800 0.621181
vt 0.842716 0.621181
vt 0.787273 0.621181
vt 0.806070 0.621181
vt 0.825441 0.621181
vt 0.868305 0.621181
vt 0.868305 0.621181
vt 0.868305 0.570220
vt 0.859197 0.598070
vt 0.759233 0.512094
vt 0.783439 0.612589
vt 0.819769 0.612589
vt 0.842715 0.612589
vt 0.806070 0.617109
vt 0.787273 0.617109
vt 0.760259 0.617109
vt 0.783439 0.617109
vt 0.819785 0.617109
vt 0.842716 0.617109
vt 0.868305 0.617109
vt 0.868305 0.617109
vt 0.825441 0.617109
vt 0.867115 0.512094
vt 0.865214 0.617902
vt 0.760528 0.617902
vt 0.757743 0.617902
vt 0.759644 0.512093
vt 0.862647 0.510293
vt 0.786198 0.551485
vt 0.762277 0.510293
vt 0.825594 0.608537
vt 0.825186 0.608537
vt 0.806149 0.608537
vt 0.805714 0.608537
vt 0.787338 0.608537
vt 0.787069 0.608537
vt 0.764648 0.608537
vt 0.764648 0.513154
vt 0.825186 0.513154
vt 0.806149 0.513154
vt 0.825594 0.513154
vt 0.865159 0.513154
vt 0.805713 0.513154
vt 0.787338 0.513154
vt 0.787068 0.513154
vt 0.865159 0.608537
vt 0.787273 0.508598
vt 0.763820 0.512195
vt 0.806070 0.512195
vt 0.825441 0.508598
vt 0.865824 0.512195
vt 0.868305 0.612589
vt 0.787273 0.512195
vt 0.806070 0.508598
vt 0.865824 0.609550
vt 0.825441 0.612589
vt 0.806070 0.612589
vt 0.825441 0.609550
vt 0.787273 0.612589
vt 0.806070 0.609550
vt 0.787273 0.609550
vt 0.760259 0.612589
vt 0.760259 0.508598
vt 0.763820 0.609550
vt 0.868305 0.508598
vt 0.825441 0.512195
vt 0.863701 0.509340
vt 0.863701 0.614548
vt 0.759538 0.509340
vt 0.863106 0.614548
vt 0.863106 0.509340
vt 0.759538 0.614548
vt 0.758988 0.614546
vt 0.758988 0.573136
vt 0.770986 0.539198
vt 0.800363 0.517910
vt 0.861414 0.614546
vt 0.861414 0.517910
vt 0.861414 0.517910
vt 0.800363 0.517910
vt 0.758988 0.614546
vt 0.861414 0.614546
vt 0.758988 0.573136
vt 0.770986 0.539198
vn -0.000000 0.000000 -1.000000
vn -0.000000 0.000000 -1.000000
vn -0.000000 0.000000 -1.000000
vn -0.000000 0.000000 -1.000000
vn 0.000000 -1.000000 -0.000000
vn 0.000000 -1.000000 -0.000000
vn 0.000000 -1.000000 -0.000000
vn 0.000000 -1.000000 -0.000000
vn 1.000000 0.000000 0.000000
vn 1.000000 0.000000 0.000000
vn 1.000000 0.000000 0.000000
vn 1.000000 0.000000 0.000000
vn 0.000000 0.000000 -1.000000
vn 0.000000 0.000000 -1.000000
vn 0.000000 -1.000000 0.000000
vn 0.000000 -1.000000 -0.000000
vn 1.000000 0.000000 0.000000
vn 1.000000 0.000000 0.000000
vn 0.000000 -1.000000 0.000000
vn 0.000000 -1.000000 0.000000
vn 0.000000 -1.000000 -0.000000
vn 0.000000 1.000000 -0.000000
vn 0.000000 1.000000 0.000000
vn 0.000000 1.000000 0.000000
vn 0.000000 1.000000 0.000000
vn 0.000000 1.000000 -0.000000
vn 0.000000 1.000000 0.000000
vn 0.000000 1.000000 -0.000000
vn 0.000000 1.000000 -0.000000
vn 0.000000 1.000000 0.000000
vn -0.129631 -0.583714 0.801545
vn -0.599193 -0.508185 0.618640
vn -0.592641 -0.566316 0.572767
vn -0.133442 -0.749668 0.648221
vn -0.892121 -0.410327 0.189081
vn -0.888970 -0.411667 0.200656
vn -0.921779 -0.387717 0.000000
vn -0.921778 -0.387717 0.000000
vn -0.000000 0.000000 -1.000000
vn 0.000000 0.000000 -1.000000
vn 0.000000 0.000000 -1.000000
vn -0.000000 0.000000 -1.000000
vn 0.000000 0.000000 -1.000000
vn 0.000000 0.000000 -1.000000
vn 1.000000 -0.000000 0.000000
vn 1.000000 0.000000 0.000000
vn 1.000000 0.000000 0.000000
vn 1.000000 0.000000 0.000000
vn 1.000000 0.000000 0.000000
vn 1.000000 -0.000000 0.000000
vn 0.000000 -0.786240 0.617921
vn 0.000000 -0.603265 0.797541
vn -0.894631 -0.409180 0.179463
vn -0.600174 -0.416491 0.682881
vn -0.921779 -0.387716 0.000000
vn 0.000000 0.000000 -1.000000
vn 0.000000 0.000000 -1.000000
vn 0.000000 0.000000 -1.000000
vn 1.000000 -0.000000 0.000000
vn 1.000000 0.000000 0.000000
vn 1.000000 -0.000001 0.000000
vn 0.000000 -0.272655 0.962112
vn -0.147756 -0.319816 0.935888
vn -0.100063 -0.725930 0.680450
vn -0.112745 -0.726388 0.677974
vn 0.000000 -0.718117 0.695923
vn 0.000000 -0.718117 0.695923
vn -0.434681 -0.734672 0.520873
vn -0.465607 -0.735573 0.492080
vn -0.664919 -0.728350 0.165500
vn -0.668577 -0.728274 0.150408
vn -0.695923 -0.718117 0.000000
vn -0.695923 -0.718117 0.000000
vn -0.707107 0.000000 0.707107
vn -0.707107 0.000000 0.707107
vn -0.707107 0.000000 0.707107
vn -0.707107 0.000000 0.707107
vn -0.100063 0.725931 0.680450
vn -0.112745 0.726389 0.677973
vn -0.465607 0.735573 0.492080
vn -0.434682 0.734672 0.520873
vn 0.000000 0.718118 0.695922
vn 0.000000 0.718118 0.695922
vn -0.668578 0.728273 0.150408
vn -0.664920 0.728349 0.165500
vn -0.695924 0.718116 0.000000
vn -0.695924 0.718116 0.000000
vn -0.707109 0.000000 0.707104
vn -0.707109 0.000000 0.707104
vn -0.707109 0.000000 0.707104
vn -0.707109 0.000000 0.707104
vn -0.975640 0.000000 0.219380
vn -0.975640 0.000000 0.219380
vn -1.000000 0.000000 0.000000
vn -1.000000 0.000000 0.000000
vn -0.667901 -0.000000 0.744250
vn -0.667901 -0.000000 0.744251
vn -0.152660 -0.000000 0.988279
vn -0.152660 -0.000000 0.988279
vn 0.000001 0.000000 1.000000
vn 0.000001 0.000000 1.000000
vn 0.000001 0.000000 1.000000
vn 0.000001 0.000000 1.000000
vn -0.152661 0.000000 0.988279
vn -0.152661 0.000000 0.988279
vn -0.667901 0.000000 0.744250
vn -0.667901 0.000000 0.744250
vn -0.975640 0.000000 0.219379
vn -0.975640 0.000000 0.219379
vn -1.000000 0.000000 0.000000
vn -1.000000 0.000000 0.000000
vn -0.000000 0.000000 1.000000
vn -0.000000 0.000000 1.000000
vn -0.000000 0.000000 1.000000
vn -0.000000 0.000000 1.000000
vn -1.000000 0.000000 0.000000
vn -1.000000 0.000000 0.000000
vn -1.000000 0.000000 0.000000
vn -1.000000 0.000000 0.000000
vn 0.000000 1.000000 -0.000000
vn 0.000000 1.000000 0.000000
vn 0.000000 1.000000 -0.000000
vn 0.000000 1.000000 -0.000000
vn 0.000000 1.000000 0.000000
vn 0.000000 1.000000 0.000000
vn 0.000000 -1.000000 -0.000000
vn 0.000000 -1.000000 0.000000
vn 0.000000 -1.000000 0.000000
vn 0.000000 -1.000000 -0.000000
vn 0.000000 -1.000000 0.000000
vn 0.000000 -1.000000 -0.000000
f 10/3/1 7/72/2 22/71/3 23/20/4
f 15/6/5 16/7/6 7/4/7 10/5/8
f 25/22/9 14/8/10 8/9/11 24/21/12
f 24/21/13 8/9/14 10/3/1 23/20/4
f 14/8/15 15/6/5 10/5/8 8/9/16
f 26/61/17 2/74/18 14/8/10 25/22/9
f 14/8/15 2/74/19 11/17/20 15/6/5
f 16/7/6 15/6/5 11/17/20 1/18/21
f 18/33/22 13/34/23 6/19/24 9/32/25
f 17/35/26 18/33/22 9/32/25 5/36/27
f 12/37/28 18/33/22 17/35/26 3/38/29
f 4/39/30 13/34/23 18/33/22 12/37/28
f 34/31/31 27/23/32 20/66/33 19/65/34
f 28/24/35 21/68/36 20/66/33 27/23/32
f 21/68/36 28/24/35 29/25/37 22/71/38
f 29/25/39 30/26/40 23/20/41 22/71/42
f 31/27/43 24/21/44 23/20/41 30/26/40
f 32/28/45 25/22/46 24/21/47 31/27/48
f 26/61/49 25/22/46 32/28/45 33/30/50
f 26/61/51 33/29/52 34/31/31 19/65/34
f 17/12/53 28/24/35 27/23/32 3/13/54
f 28/24/35 17/12/53 5/1/55 29/25/37
f 5/1/56 9/2/57 30/26/40 29/25/39
f 6/10/58 31/27/43 30/26/40 9/2/57
f 13/11/59 32/28/45 31/27/48 6/10/60
f 33/30/50 32/28/45 13/11/59 4/16/61
f 33/29/52 4/15/62 12/14/63 34/31/31
f 3/13/54 27/23/32 34/31/31 12/14/63
f 37/67/64 38/40/65 54/55/66 53/64/67
f 38/41/65 37/67/64 39/69/68 40/42/69
f 40/43/69 39/69/68 41/70/70 42/44/71
f 42/45/71 41/70/70 43/73/72 44/46/73
f 44/46/74 43/73/75 51/57/76 52/47/77
f 45/75/78 46/48/79 48/49/80 47/58/81
f 46/50/79 45/75/78 55/60/82 56/51/83
f 47/58/81 48/52/80 50/53/84 49/62/85
f 49/62/85 50/54/84 52/47/86 51/57/87
f 53/64/88 54/55/89 56/51/90 55/60/91
f 16/56/92 49/62/93 51/57/94 7/72/95
f 47/58/96 1/63/97 11/59/98 45/75/99
f 55/60/100 2/74/101 26/61/102 53/64/103
f 49/62/93 16/56/92 1/63/97 47/58/96
f 53/64/103 26/61/102 19/65/104 37/67/105
f 20/66/106 39/69/107 37/67/105 19/65/104
f 21/68/108 41/70/109 39/69/107 20/66/106
f 43/73/110 41/70/109 21/68/108 22/71/111
f 22/71/111 7/72/95 51/57/94 43/73/110
f 2/74/101 55/60/100 45/75/99 11/59/98
f 44/76/112 52/77/113 36/81/114 35/78/115
f 56/79/116 54/80/117 35/78/118 36/81/119
f 36/86/120 52/82/121 50/83/122
f 36/86/120 50/83/122 48/84/123
f 36/86/120 48/84/123 46/85/124
f 36/86/120 46/85/124 56/87/125
f 35/91/126 54/88/127 38/89/128
f 35/91/126 42/92/129 44/90/130
f 35/91/126 40/93/131 42/92/129
f 35/91/126 38/89/128 40/93/131
