# This file uses meters as units for non-parametric coordinates.

v -68.649094 0.000000 -91.335785
v -48.373638 0.000000 -91.335785
v -68.649094 106.656693 -91.335785
v -48.373638 106.656693 -91.335785
v -68.649094 106.656693 -111.611237
v -48.373638 106.656693 -111.611237
v -68.649094 0.000000 -111.611237
v -48.373638 0.000000 -111.611237
v 68.649094 0.000000 -91.335785
v 48.373638 0.000000 -91.335785
v 68.649094 106.656693 -91.335785
v 48.373638 106.656693 -91.335785
v 68.649094 106.656693 -111.611237
v 48.373638 106.656693 -111.611237
v 68.649094 0.000000 -111.611237
v 48.373638 0.000000 -111.611237
v -68.649094 0.000000 91.335785
v -48.373642 0.000000 91.335785
v -68.649094 106.656693 91.335785
v -48.373642 106.656693 91.335785
v -68.649094 106.656693 111.611237
v -48.373642 106.656693 111.611237
v -68.649094 0.000000 111.611237
v -48.373642 0.000000 111.611237
v 68.649094 0.000000 91.335785
v 48.373638 0.000000 91.335785
v 68.649094 106.656693 91.335785
v 48.373638 106.656693 91.335785
v 68.649094 106.656693 111.611237
v 48.373638 106.656693 111.611237
v 68.649094 0.000000 111.611237
v 48.373638 0.000000 111.611237
v 66.961578 90.281342 110.276855
v -66.961578 90.281342 110.276855
v 66.961578 106.656693 110.276855
v -66.961578 106.656693 110.276855
v 66.961578 106.656693 -110.276855
v -66.961578 106.656693 -110.276855
v 66.961578 90.281342 -110.276855
v -66.961578 90.281342 -110.276855
v -70.303009 106.656693 113.703346
v 70.303009 106.656693 113.703346
v -70.303009 106.656693 -113.703346
v 70.303009 106.656693 -113.703346
v -70.303009 106.656693 0.000000
v 70.303009 106.656693 0.000000
v -18.074310 110.921730 49.289158
v 18.074310 110.921730 49.289158
v 18.074310 110.921730 0.000000
v -18.074310 110.921730 0.000000
v 18.074310 110.921730 -49.289158
v -18.074310 110.921730 -49.289158
v -70.303009 115.100677 113.703346
v -69.364891 116.038795 112.765228
v 70.303009 115.100677 113.703346
v 69.364891 116.038795 112.765228
v -70.303009 115.100677 -113.703346
v -69.364891 116.038795 -112.765228
v 70.303009 115.100677 -113.703346
v 69.364891 116.038795 -112.765228
v -70.303009 115.100677 0.000000
v -69.364891 116.038795 0.000000
v 70.303009 115.100677 0.000000
v 69.364891 116.038795 0.000000
v -18.074310 115.527145 49.289158
v -19.015615 116.038795 50.050312
v 18.074310 115.527145 49.289158
v 19.015615 116.038795 50.050312
v 18.074310 115.527145 0.000000
v 19.015615 116.038795 0.000000
v -18.074310 115.527145 0.000000
v -19.015615 116.038795 0.000000
v 18.074310 115.527145 -49.289158
v 19.015615 116.038795 -50.050312
v -18.074310 115.527145 -49.289158
v -19.015615 116.038795 -50.050312
vt 0.337324 0.760836
vt 0.337324 0.776336
vt 0.321824 0.760836
vt 0.321824 0.776336
vt 0.337324 0.760836
vt 0.337324 0.776336
vt 0.321824 0.760836
vt 0.321824 0.776336
vt 0.337324 0.760836
vt 0.337324 0.776336
vt 0.337324 0.760836
vt 0.321824 0.760836
vt 0.337324 0.776336
vt 0.321824 0.776336
vt 0.337324 0.760836
vt 0.321824 0.760836
vt 0.321824 0.776336
vt 0.337324 0.776336
vt 0.337324 0.760836
vt 0.337324 0.776336
vt 0.321824 0.760836
vt 0.321824 0.776336
vt 0.337324 0.760836
vt 0.337324 0.776336
vt 0.321824 0.760836
vt 0.337324 0.760836
vt 0.337324 0.776336
vt 0.321824 0.776336
vt 0.337324 0.760836
vt 0.321824 0.760836
vt 0.321824 0.776336
vt 0.337324 0.776336
vt 0.337324 0.760836
vt 0.337324 0.776336
vt 0.321824 0.760836
vt 0.321824 0.776336
vt 0.337324 0.760836
vt 0.337324 0.776336
vt 0.321824 0.760836
vt 0.337324 0.760836
vt 0.337324 0.776336
vt 0.321824 0.776336
vt 0.337324 0.760836
vt 0.337324 0.776336
vt 0.321824 0.776336
vt 0.321824 0.760836
vt 0.337324 0.776336
vt 0.337324 0.760836
vt 0.321824 0.776336
vt 0.321824 0.760836
vt 0.337324 0.776336
vt 0.337324 0.760836
vt 0.337324 0.760836
vt 0.321824 0.760836
vt 0.337324 0.776336
vt 0.321824 0.776336
vt 0.337324 0.776336
vt 0.337324 0.760836
vt 0.321824 0.760836
vt 0.321824 0.776336
vt 0.337324 0.776336
vt 0.337324 0.760836
vt 0.321824 0.760836
vt 0.321824 0.776336
vt 0.337324 0.776336
vt 0.321824 0.776336
vt 0.337324 0.760836
vt 0.337324 0.776336
vt 0.321824 0.776336
vt 0.321824 0.760836
vt 0.330057 0.766688
vt 0.328520 0.766688
vt 0.328520 0.758937
vt 0.330057 0.758937
vt 0.325879 0.774366
vt 0.332801 0.774366
vt 0.332801 0.760762
vt 0.325879 0.760762
vt 0.325879 0.760949
vt 0.332801 0.760949
vt 0.328520 0.766681
vt 0.330057 0.766681
vt 0.321423 0.760762
vt 0.320928 0.760874
vt 0.320928 0.774366
vt 0.321423 0.774366
vt 0.325925 0.762812
vt 0.325879 0.762607
vt 0.332801 0.762607
vt 0.332755 0.762812
vt 0.337752 0.760874
vt 0.337257 0.760762
vt 0.337257 0.774366
vt 0.337752 0.774366
vt 0.325879 0.762769
vt 0.325925 0.762971
vt 0.332755 0.762971
vt 0.332801 0.762769
vt 0.320928 0.761060
vt 0.321423 0.760949
vt 0.337257 0.760949
vt 0.337752 0.761060
vt 0.330542 0.767419
vt 0.330664 0.767584
vt 0.327913 0.767584
vt 0.328035 0.767419
vt 0.330542 0.758937
vt 0.330664 0.758937
vt 0.327913 0.758937
vt 0.328035 0.758937
vt 0.327913 0.767576
vt 0.328035 0.767411
vt 0.330542 0.767411
vt 0.330664 0.767576
vt 0.338522 0.777347
vt 0.320055 0.777347
vt 0.320056 0.758937
vt 0.338522 0.758937
vt 0.320056 0.777319
vt 0.338522 0.777319
vn 0.000000 0.000000 1.000000
vn 0.000000 0.000000 1.000000
vn 0.000000 0.000000 1.000000
vn 0.000000 0.000000 1.000000
vn 0.000000 1.000000 0.000000
vn 0.000000 1.000000 0.000000
vn 0.000000 1.000000 0.000000
vn 0.000000 1.000000 0.000000
vn 0.000000 0.000000 -1.000000
vn 0.000000 0.000000 -1.000000
vn 0.000000 0.000000 -1.000000
vn 0.000000 0.000000 -1.000000
vn 0.000000 -1.000000 0.000000
vn 0.000000 -1.000000 0.000000
vn 0.000000 -1.000000 0.000000
vn 0.000000 -1.000000 0.000000
vn 1.000000 0.000000 0.000000
vn 1.000000 0.000000 0.000000
vn 1.000000 0.000000 0.000000
vn 1.000000 0.000000 0.000000
vn -1.000000 0.000000 0.000000
vn -1.000000 0.000000 0.000000
vn -1.000000 0.000000 0.000000
vn -1.000000 0.000000 0.000000
vn 0.000000 0.000000 1.000000
vn 0.000000 0.000000 1.000000
vn 0.000000 0.000000 1.000000
vn 0.000000 0.000000 1.000000
vn 0.000000 1.000000 0.000000
vn 0.000000 1.000000 0.000000
vn 0.000000 1.000000 0.000000
vn 0.000000 1.000000 0.000000
vn 0.000000 0.000000 -1.000000
vn 0.000000 0.000000 -1.000000
vn 0.000000 0.000000 -1.000000
vn 0.000000 0.000000 -1.000000
vn 0.000000 -1.000000 0.000000
vn 0.000000 -1.000000 0.000000
vn 0.000000 -1.000000 0.000000
vn 0.000000 -1.000000 0.000000
vn -1.000000 0.000000 0.000000
vn -1.000000 0.000000 0.000000
vn -1.000000 0.000000 0.000000
vn -1.000000 0.000000 0.000000
vn 1.000000 0.000000 0.000000
vn 1.000000 0.000000 0.000000
vn 1.000000 0.000000 0.000000
vn 1.000000 0.000000 0.000000
vn 0.000000 0.000000 -1.000000
vn 0.000000 0.000000 -1.000000
vn 0.000000 0.000000 -1.000000
vn 0.000000 0.000000 -1.000000
vn 0.000000 1.000000 0.000000
vn 0.000000 1.000000 0.000000
vn 0.000000 1.000000 0.000000
vn 0.000000 1.000000 0.000000
vn 0.000000 0.000000 1.000000
vn 0.000000 0.000000 1.000000
vn 0.000000 0.000000 1.000000
vn 0.000000 0.000000 1.000000
vn 0.000000 -1.000000 0.000000
vn 0.000000 -1.000000 0.000000
vn 0.000000 -1.000000 0.000000
vn 0.000000 -1.000000 0.000000
vn 1.000000 0.000000 0.000000
vn 1.000000 0.000000 0.000000
vn 1.000000 0.000000 0.000000
vn 1.000000 0.000000 0.000000
vn -1.000000 0.000000 0.000000
vn -1.000000 0.000000 0.000000
vn -1.000000 0.000000 0.000000
vn -1.000000 0.000000 0.000000
vn 0.000000 0.000000 -1.000000
vn 0.000000 0.000000 -1.000000
vn 0.000000 0.000000 -1.000000
vn 0.000000 0.000000 -1.000000
vn 0.000000 1.000000 0.000000
vn 0.000000 1.000000 0.000000
vn 0.000000 1.000000 0.000000
vn 0.000000 1.000000 0.000000
vn 0.000000 0.000000 1.000000
vn 0.000000 0.000000 1.000000
vn 0.000000 0.000000 1.000000
vn 0.000000 0.000000 1.000000
vn 0.000000 -1.000000 0.000000
vn 0.000000 -1.000000 0.000000
vn 0.000000 -1.000000 0.000000
vn 0.000000 -1.000000 0.000000
vn -1.000000 0.000000 0.000000
vn -1.000000 0.000000 0.000000
vn -1.000000 0.000000 0.000000
vn -1.000000 0.000000 0.000000
vn 1.000000 0.000000 0.000000
vn 1.000000 0.000000 0.000000
vn 1.000000 0.000000 0.000000
vn 1.000000 0.000000 0.000000
vn 0.000000 0.000000 1.000000
vn 0.000000 0.000000 1.000000
vn 0.000000 0.000000 1.000000
vn 0.000000 0.000000 1.000000
vn 0.000000 0.000000 -1.000000
vn 0.000000 0.000000 -1.000000
vn 0.000000 0.000000 -1.000000
vn 0.000000 0.000000 -1.000000
vn 0.000000 -1.000000 0.000000
vn 0.000000 -1.000000 0.000000
vn 0.000000 -1.000000 0.000000
vn 0.000000 -1.000000 0.000000
vn -1.000000 0.000000 0.000000
vn -1.000000 0.000000 0.000000
vn -1.000000 0.000000 0.000000
vn -1.000000 0.000000 0.000000
vn 1.000000 0.000000 0.000000
vn 1.000000 0.000000 0.000000
vn 1.000000 0.000000 0.000000
vn 1.000000 0.000000 0.000000
vn 0.000000 1.000000 0.000000
vn 0.000000 1.000000 0.000000
vn 0.000000 1.000000 0.000000
vn 0.000000 1.000000 0.000000
vn 0.000000 -1.000000 0.000000
vn 0.000000 -1.000000 0.000000
vn 0.000000 -1.000000 0.000000
vn 0.000000 -1.000000 0.000000
vn 0.000000 -1.000000 0.000000
vn 0.000000 -1.000000 0.000000
vn 0.000000 1.000000 0.000000
vn 0.000000 1.000000 0.000000
vn -0.707107 0.707107 0.000000
vn -0.707107 0.707107 0.000000
vn -0.707107 0.707107 0.000000
vn -0.707107 0.707107 0.000000
vn 0.000000 0.707106 0.707108
vn 0.000000 0.707106 0.707108
vn 0.000000 0.707106 0.707108
vn 0.000000 0.707106 0.707108
vn 0.707107 0.707107 0.000000
vn 0.707107 0.707107 0.000000
vn 0.707107 0.707107 0.000000
vn 0.707107 0.707107 0.000000
vn 0.000000 0.707106 -0.707108
vn 0.000000 0.707106 -0.707108
vn 0.000000 0.707106 -0.707108
vn 0.000000 0.707106 -0.707108
vn -0.707107 0.707107 0.000000
vn -0.707107 0.707107 0.000000
vn 0.707107 0.707107 0.000000
vn 0.707107 0.707107 0.000000
vn 0.000000 0.000000 1.000000
vn 0.000000 0.000000 1.000000
vn 0.000000 0.000000 1.000000
vn 0.000000 0.000000 1.000000
vn 0.000000 0.000000 -1.000000
vn 0.000000 0.000000 -1.000000
vn 0.000000 0.000000 -1.000000
vn 0.000000 0.000000 -1.000000
vn 1.000000 0.000000 0.000000
vn 1.000000 0.000000 0.000000
vn 1.000000 0.000000 0.000000
vn 1.000000 0.000000 0.000000
vn -1.000000 0.000000 0.000000
vn -1.000000 0.000000 0.000000
vn -1.000000 0.000000 0.000000
vn -1.000000 0.000000 0.000000
vn -1.000000 0.000000 0.000000
vn -1.000000 0.000000 0.000000
vn 1.000000 0.000000 0.000000
vn 1.000000 0.000000 0.000000
vn 0.000000 0.829930 -0.557867
vn 0.000000 0.829930 -0.557867
vn 0.000000 0.829930 -0.557867
vn 0.000000 0.829930 -0.557867
vn 0.477565 0.878596 0.000000
vn 0.477565 0.878596 0.000000
vn 0.477565 0.878596 0.000000
vn 0.477565 0.878596 0.000000
vn -0.477565 0.878596 0.000000
vn -0.477565 0.878596 0.000000
vn -0.477565 0.878596 0.000000
vn -0.477565 0.878596 0.000000
vn -0.477565 0.878596 0.000000
vn -0.477565 0.878596 0.000000
vn 0.477565 0.878596 0.000000
vn 0.477565 0.878596 0.000000
vn 0.000000 0.829930 0.557867
vn 0.000000 0.829930 0.557867
vn 0.000000 0.829930 0.557867
vn 0.000000 0.829930 0.557867
vn 0.000000 0.000000 -1.000000
vn 0.000000 0.000000 -1.000000
vn 0.000000 0.000000 -1.000000
vn 0.000000 0.000000 -1.000000
vn -1.000000 0.000000 0.000000
vn -1.000000 0.000000 0.000000
vn -1.000000 0.000000 0.000000
vn -1.000000 0.000000 0.000000
vn 1.000000 0.000000 0.000000
vn 1.000000 0.000000 0.000000
vn 1.000000 0.000000 0.000000
vn 1.000000 0.000000 0.000000
vn -1.000000 0.000000 0.000000
vn -1.000000 0.000000 0.000000
vn 0.000000 0.000000 1.000000
vn 0.000000 0.000000 1.000000
vn 0.000000 0.000000 1.000000
vn 0.000000 0.000000 1.000000
vn 1.000000 0.000000 0.000000
vn 1.000000 0.000000 0.000000
vn 0.000000 1.000000 -0.000000
vn 0.000000 1.000000 -0.000000
vn 0.000000 1.000000 -0.000000
vn 0.000000 1.000000 -0.000000
vn 0.000000 1.000000 0.000000
vn 0.000000 1.000000 0.000000
vn 0.000000 1.000000 0.000000
vn 0.000000 1.000000 0.000000
vn 0.000000 1.000000 0.000000
vn 0.000000 1.000000 0.000000
vn 0.000000 1.000000 0.000000
vn 0.000000 1.000000 0.000000
f 1/1/1 2/2/2 4/4/3 3/3/4
f 3/3/5 4/4/6 6/6/7 5/5/8
f 5/5/9 6/6/10 8/8/11 7/7/12
f 7/7/13 8/8/14 2/10/15 1/9/16
f 2/2/17 8/11/18 6/12/19 4/4/20
f 7/13/21 1/1/22 3/3/23 5/14/24
f 9/15/25 11/16/26 12/17/27 10/18/28
f 11/16/29 13/19/30 14/20/31 12/17/32
f 13/19/33 15/21/34 16/22/35 14/20/36
f 15/21/37 9/23/38 10/24/39 16/22/40
f 10/18/41 12/17/42 14/25/43 16/26/44
f 15/27/45 13/28/46 11/16/47 9/15/48
f 17/29/49 19/30/50 20/31/51 18/32/52
f 19/30/53 21/33/54 22/34/55 20/31/56
f 21/33/57 23/35/58 24/36/59 22/34/60
f 23/35/61 17/37/62 18/38/63 24/36/64
f 18/32/65 20/31/66 22/39/67 24/40/68
f 23/41/69 21/42/70 19/30/71 17/29/72
f 25/43/73 26/44/74 28/45/75 27/46/76
f 27/46/77 28/45/78 30/47/79 29/48/80
f 29/48/81 30/47/82 32/49/83 31/50/84
f 31/50/85 32/49/86 26/51/87 25/52/88
f 26/44/89 32/53/90 30/54/91 28/45/92
f 31/55/93 25/43/94 27/46/95 29/56/96
f 33/57/97 35/58/98 36/59/99 34/60/100
f 37/61/101 39/62/102 40/63/103 38/64/104
f 39/62/105 33/65/106 34/66/107 40/63/108
f 34/60/109 36/59/110 38/67/111 40/68/112
f 39/69/113 37/70/114 35/58/115 33/57/116
f 47/71/117 48/72/118 49/73/119 50/74/120
f 45/75/121 46/76/122 42/77/123 41/78/124
f 43/79/125 44/80/126 46/76/122 45/75/121
f 50/74/120 49/73/119 51/81/127 52/82/128
f 53/83/129 54/84/130 62/85/131 61/86/132
f 54/87/133 53/88/134 55/89/135 56/90/136
f 56/91/137 55/92/138 63/93/139 64/94/140
f 57/95/141 58/96/142 60/97/143 59/98/144
f 58/99/145 57/100/146 61/86/132 62/85/131
f 59/101/147 60/102/148 64/94/140 63/93/139
f 41/78/149 42/77/150 55/89/151 53/88/152
f 57/95/153 59/98/154 44/80/155 43/79/156
f 42/77/157 46/76/158 63/93/159 55/92/160
f 45/75/161 41/78/162 53/83/163 61/86/164
f 43/79/165 45/75/161 61/86/164 57/100/166
f 63/93/159 46/76/158 44/80/167 59/101/168
f 65/103/169 66/104/170 68/105/171 67/106/172
f 66/104/173 65/103/174 71/107/175 72/108/176
f 67/106/177 68/105/178 70/109/179 69/110/180
f 69/110/180 70/109/179 74/111/181 73/112/182
f 72/108/176 71/107/175 75/113/183 76/114/184
f 73/112/185 74/111/186 76/114/187 75/113/188
f 65/103/189 67/106/190 48/72/191 47/71/192
f 67/106/193 69/110/194 49/73/195 48/72/196
f 71/107/197 65/103/198 47/71/199 50/74/200
f 69/110/194 73/112/201 51/81/202 49/73/195
f 73/112/203 75/113/204 52/82/205 51/81/206
f 75/113/207 71/107/197 50/74/200 52/82/208
f 54/115/209 56/116/210 68/105/211 66/104/212
f 56/116/210 64/117/213 70/109/214 68/105/211
f 62/118/215 54/115/209 66/104/212 72/108/216
f 64/117/213 60/119/217 74/111/218 70/109/214
f 60/119/217 58/120/219 76/114/220 74/111/218
f 58/120/219 62/118/215 72/108/216 76/114/220
