# This file uses meters as units for non-parametric coordinates.

v 4.008893 0.000000 -4.008899
v 0.000000 0.000000 -5.669405
v -4.008893 0.000000 -4.008899
v -5.669401 0.000000 0.000000
v -4.008893 0.000000 4.008899
v 0.000000 0.000000 5.669405
v 4.008893 0.000000 4.008899
v 5.669401 0.000000 0.000000
v 6.262732 32.137375 -6.262732
v 0.000000 32.137375 -8.856829
v -6.262732 32.137375 -6.262732
v -8.856829 32.137375 0.000000
v -6.262732 32.137375 6.262732
v 0.000000 32.137375 8.856829
v 6.262732 32.137375 6.262732
v 8.856829 32.137375 0.000000
v 0.000000 0.000000 0.000000
v 0.000000 15.418394 0.000000
v 0.000000 16.004026 1.079074
v -0.763026 16.004026 0.763026
v -1.079074 16.004026 0.000000
v -0.763026 16.004026 -0.763026
v 0.000000 16.004026 -1.079074
v 0.763026 16.004026 -0.763026
v 1.079074 16.004026 0.000000
v 0.763026 16.004026 0.763026
v 0.000000 3.301338 0.954939
v -0.675251 3.301338 0.675251
v -0.954939 3.301338 0.000000
v -0.675251 3.301338 -0.675251
v 0.000000 3.301338 -0.954939
v 0.675251 3.301338 -0.675251
v 0.954939 3.301338 0.000000
v 0.675251 3.301338 0.675251
v 0.000000 0.249975 5.683044
v -4.018537 0.249975 4.018543
v -5.683040 0.249975 0.000000
v -4.018537 0.249975 -4.018543
v 0.000000 0.249975 -5.683044
v 4.018537 0.249975 -4.018543
v 5.683040 0.249975 0.000000
v 4.018537 0.249976 4.018543
v 0.000000 18.098478 -5.818805
v 4.114532 18.098478 -4.114532
v 5.818805 18.098478 0.000000
v 4.114532 18.098478 4.114532
v 0.000000 18.098478 5.818805
v -4.114532 18.098478 4.114532
v -5.818805 18.098478 0.000000
v -4.114532 18.098478 -4.114532
v 0.000000 24.881714 9.506834
v -6.722361 24.881714 6.722361
v -9.506834 24.881714 0.000000
v -6.722361 24.881714 -6.722361
v 0.000000 24.881714 -9.506834
v 6.722361 24.881714 -6.722361
v 9.506834 24.881714 0.000000
v 6.722361 24.881714 6.722361
v 0.000000 1.568206 2.657816
v -1.879371 1.568206 1.879373
v -2.657815 1.568206 0.000000
v -1.879371 1.568206 -1.879373
v 0.000000 1.568206 -2.657816
v 1.879371 1.568206 -1.879373
v 2.657815 1.568206 0.000000
v 1.879371 1.568206 1.879373
vt 0.524367 0.915691
vt 0.518640 0.913319
vt 0.512913 0.915691
vt 0.510540 0.921418
vt 0.512913 0.927145
vt 0.518640 0.929518
vt 0.524367 0.927145
vt 0.526739 0.921418
vt 0.526194 0.931970
vt 0.521201 0.931970
vt 0.516209 0.931970
vt 0.511216 0.931970
vt 0.506224 0.931970
vt 0.511312 0.931970
vt 0.516400 0.931970
vt 0.521488 0.931970
vt 0.526576 0.931970
vt 0.526194 0.912198
vt 0.521201 0.912198
vt 0.516209 0.912198
vt 0.511216 0.912198
vt 0.506224 0.912198
vt 0.511312 0.912198
vt 0.516400 0.912198
vt 0.521488 0.912198
vt 0.526576 0.912198
vt 0.524253 0.917696
vt 0.518988 0.915515
vt 0.513722 0.917696
vt 0.511541 0.922961
vt 0.513722 0.928226
vt 0.518988 0.930407
vt 0.524253 0.928226
vt 0.526434 0.922961
vt 0.518640 0.921095
vt 0.518988 0.922663
vt 0.511312 0.932218
vt 0.506224 0.932218
vt 0.511216 0.932218
vt 0.516209 0.932218
vt 0.521201 0.932218
vt 0.526576 0.932218
vt 0.526194 0.932218
vt 0.521488 0.932218
vt 0.516400 0.932218
vt 0.511312 0.911816
vt 0.506224 0.911816
vt 0.511216 0.911816
vt 0.516209 0.911816
vt 0.521201 0.911816
vt 0.526576 0.911816
vt 0.526194 0.911816
vt 0.521488 0.911816
vt 0.516400 0.911816
vt 0.511312 0.930819
vt 0.506224 0.930819
vt 0.511216 0.930819
vt 0.516209 0.930819
vt 0.521201 0.930819
vt 0.526576 0.930819
vt 0.526194 0.930819
vt 0.521488 0.930819
vt 0.516400 0.930819
vt 0.521201 0.929530
vt 0.526576 0.929530
vt 0.526194 0.929530
vt 0.521488 0.929530
vt 0.516400 0.929530
vt 0.511312 0.929530
vt 0.506224 0.929530
vt 0.511216 0.929530
vt 0.516209 0.929530
vt 0.511312 0.922175
vt 0.506224 0.922175
vt 0.511216 0.922175
vt 0.516209 0.922175
vt 0.521201 0.922175
vt 0.526576 0.922175
vt 0.526194 0.922175
vt 0.521488 0.922175
vt 0.516400 0.922175
vt 0.511312 0.918660
vt 0.506224 0.918660
vt 0.511216 0.918660
vt 0.516209 0.918660
vt 0.521201 0.918660
vt 0.526576 0.918660
vt 0.526194 0.918660
vt 0.521488 0.918660
vt 0.516400 0.918660
vn 0.083218 -0.993051 -0.083218
vn 0.000000 -0.993051 -0.117687
vn 0.000000 0.863487 -0.504372
vn 0.356644 0.863487 -0.356644
vn -0.083218 -0.993051 -0.083218
vn -0.356644 0.863487 -0.356644
vn -0.117687 -0.993051 -0.000000
vn -0.504372 0.863486 -0.000000
vn -0.083218 -0.993051 0.083218
vn -0.356644 0.863487 0.356644
vn 0.000000 -0.993051 0.117687
vn -0.000000 0.863487 0.504372
vn 0.083218 -0.993051 0.083218
vn 0.356644 0.863487 0.356644
vn 0.117687 -0.993051 0.000000
vn 0.504372 0.863486 -0.000000
vn 0.000000 -1.000000 0.000000
vn -0.624846 0.468120 0.624846
vn 0.000000 0.468119 0.883665
vn 0.000000 1.000000 -0.000000
vn 0.624846 0.468120 0.624846
vn 0.883666 0.468119 -0.000000
vn 0.624846 0.468120 -0.624846
vn 0.000000 0.468119 -0.883665
vn -0.624846 0.468120 -0.624846
vn -0.883666 0.468119 0.000000
vn -0.285804 -0.914676 0.285803
vn 0.000000 -0.914676 0.404189
vn 0.000000 -0.570383 0.821379
vn -0.580803 -0.570383 0.580802
vn -0.404189 -0.914676 0.000000
vn -0.821379 -0.570383 -0.000000
vn -0.285804 -0.914676 -0.285803
vn -0.580803 -0.570383 -0.580802
vn -0.000000 -0.914676 -0.404189
vn -0.000000 -0.570383 -0.821379
vn 0.285804 -0.914676 -0.285803
vn 0.580803 -0.570383 -0.580802
vn 0.404189 -0.914676 0.000000
vn 0.821379 -0.570383 0.000000
vn 0.285804 -0.914676 0.285803
vn 0.580803 -0.570383 0.580802
vn -0.707073 -0.009772 0.707073
vn 0.000000 -0.009772 0.999952
vn 0.000000 -0.009772 0.999952
vn -0.707073 -0.009772 0.707073
vn -0.999952 -0.009772 -0.000000
vn -0.999952 -0.009772 -0.000000
vn -0.707073 -0.009772 -0.707073
vn -0.707073 -0.009772 -0.707073
vn 0.000000 -0.009772 -0.999952
vn 0.000000 -0.009772 -0.999952
vn 0.707073 -0.009772 -0.707073
vn 0.707073 -0.009772 -0.707073
vn 0.999952 -0.009772 0.000000
vn 0.999952 -0.009772 0.000000
vn 0.707073 -0.009772 0.707073
vn 0.707073 -0.009772 0.707073
vn -0.000000 0.888003 0.459838
vn -0.325153 0.888004 0.325153
vn -0.459839 0.888002 0.000000
vn -0.325153 0.888004 -0.325153
vn 0.000000 0.888003 -0.459838
vn 0.325153 0.888004 -0.325153
vn 0.459839 0.888003 -0.000000
vn 0.325153 0.888004 0.325153
vn -0.000000 -0.169608 -0.985512
vn 0.696862 -0.169608 -0.696862
vn 0.985512 -0.169608 0.000000
vn 0.696862 -0.169608 0.696862
vn 0.000000 -0.169608 0.985512
vn -0.696862 -0.169608 0.696862
vn -0.985512 -0.169608 -0.000000
vn -0.696862 -0.169608 -0.696862
vn 0.000000 0.089229 0.996011
vn -0.704286 0.089229 0.704286
vn -0.996011 0.089229 -0.000000
vn -0.704286 0.089229 -0.704286
vn 0.000000 0.089229 -0.996011
vn 0.704286 0.089229 -0.704286
vn 0.996011 0.089229 0.000000
vn 0.704286 0.089229 0.704286
vn -0.000000 0.700853 0.713306
vn -0.504382 0.700855 0.504382
vn -0.713306 0.700852 0.000000
vn -0.504382 0.700855 -0.504382
vn 0.000000 0.700853 -0.713306
vn 0.504382 0.700855 -0.504382
vn 0.713306 0.700852 -0.000000
vn 0.504382 0.700855 0.504382
f 1/9/1 2/10/2 39/59/3 40/61/4
f 2/10/2 3/11/5 38/58/6 39/59/3
f 3/11/5 4/12/7 37/57/8 38/58/6
f 4/12/7 5/13/9 36/56/10 37/57/8
f 5/13/9 6/14/11 35/55/12 36/56/10
f 6/14/11 7/15/13 42/63/14 35/55/12
f 7/15/13 8/16/15 41/62/16 42/63/14
f 8/16/15 1/17/1 40/60/4 41/62/16
f 2/2/2 1/1/1 17/35/17
f 3/3/5 2/2/2 17/35/17
f 4/4/7 3/3/5 17/35/17
f 5/5/9 4/4/7 17/35/17
f 6/6/11 5/5/9 17/35/17
f 7/7/13 6/6/11 17/35/17
f 8/8/15 7/7/13 17/35/17
f 1/1/1 8/8/15 17/35/17
f 9/33/18 10/32/19 18/36/20
f 10/32/19 11/31/21 18/36/20
f 11/31/21 12/30/22 18/36/20
f 12/30/22 13/29/23 18/36/20
f 13/29/23 14/28/24 18/36/20
f 14/28/24 15/27/25 18/36/20
f 15/27/25 16/34/26 18/36/20
f 16/34/26 9/33/18 18/36/20
f 20/38/27 19/37/28 47/69/29 48/70/30
f 21/39/31 20/38/27 48/70/30 49/71/32
f 22/40/33 21/39/31 49/71/32 50/72/34
f 23/41/35 22/40/33 50/72/34 43/64/36
f 24/43/37 23/41/35 43/64/36 44/66/38
f 25/44/39 24/42/37 44/65/38 45/67/40
f 26/45/41 25/44/39 45/67/40 46/68/42
f 19/37/28 26/45/41 46/68/42 47/69/29
f 28/47/43 27/46/44 19/37/45 20/38/46
f 29/48/47 28/47/43 20/38/46 21/39/48
f 30/49/49 29/48/47 21/39/48 22/40/50
f 31/50/51 30/49/49 22/40/50 23/41/52
f 32/52/53 31/50/51 23/41/52 24/43/54
f 33/53/55 32/51/53 24/42/54 25/44/56
f 34/54/57 33/53/55 25/44/56 26/45/58
f 27/46/44 34/54/57 26/45/58 19/37/45
f 36/56/10 35/55/12 59/82/59 60/83/60
f 37/57/8 36/56/10 60/83/60 61/84/61
f 38/58/6 37/57/8 61/84/61 62/85/62
f 39/59/3 38/58/6 62/85/62 63/86/63
f 40/61/4 39/59/3 63/86/63 64/88/64
f 41/62/16 40/60/4 64/87/64 65/89/65
f 42/63/14 41/62/16 65/89/65 66/90/66
f 35/55/12 42/63/14 66/90/66 59/82/59
f 44/66/38 43/64/36 55/77/67 56/79/68
f 45/67/40 44/65/38 56/78/68 57/80/69
f 46/68/42 45/67/40 57/80/69 58/81/70
f 47/69/29 46/68/42 58/81/70 51/73/71
f 48/70/30 47/69/29 51/73/71 52/74/72
f 49/71/32 48/70/30 52/74/72 53/75/73
f 50/72/34 49/71/32 53/75/73 54/76/74
f 43/64/36 50/72/34 54/76/74 55/77/67
f 52/74/72 51/73/71 14/23/75 13/22/76
f 53/75/73 52/74/72 13/22/76 12/21/77
f 54/76/74 53/75/73 12/21/77 11/20/78
f 55/77/67 54/76/74 11/20/78 10/19/79
f 56/79/68 55/77/67 10/19/79 9/18/80
f 57/80/69 56/78/68 9/26/80 16/25/81
f 58/81/70 57/80/69 16/25/81 15/24/82
f 51/73/71 58/81/70 15/24/82 14/23/75
f 60/83/60 59/82/59 27/46/83 28/47/84
f 61/84/61 60/83/60 28/47/84 29/48/85
f 62/85/62 61/84/61 29/48/85 30/49/86
f 63/86/63 62/85/62 30/49/86 31/50/87
f 64/88/64 63/86/63 31/50/87 32/52/88
f 65/89/65 64/87/64 32/51/88 33/53/89
f 66/90/66 65/89/65 33/53/89 34/54/90
f 59/82/59 66/90/66 34/54/90 27/46/83
