# This file uses meters as units for non-parametric coordinates.

v 4.008893 0.000000 -4.008899
v 0.000000 0.000000 -5.669405
v -4.008893 0.000000 -4.008899
v -5.669401 0.000000 0.000000
v -4.008893 0.000000 4.008899
v 0.000000 0.000000 5.669405
v 4.008893 0.000000 4.008899
v 5.669401 0.000000 0.000000
v 6.262732 25.113476 -6.262732
v 0.000000 25.113476 -8.856829
v -6.262732 25.113476 -6.262732
v -8.856829 25.113476 0.000000
v -6.262732 25.113476 6.262732
v 0.000000 25.113476 8.856829
v 6.262732 25.113476 6.262732
v 8.856829 25.113476 0.000000
v 0.000000 0.000000 0.000000
v 0.000000 8.932785 0.000000
v 0.000000 9.518417 1.079074
v -0.763026 9.518417 0.763026
v -1.079074 9.518417 0.000000
v -0.763026 9.518417 -0.763026
v 0.000000 9.518417 -1.079074
v 0.763026 9.518417 -0.763026
v 1.079074 9.518417 0.000000
v 0.763026 9.518417 0.763026
v 0.000000 1.595058 0.954939
v -0.675251 1.595058 0.675251
v -0.954939 1.595058 0.000000
v -0.675251 1.595058 -0.675251
v 0.000000 1.595058 -0.954939
v 0.675251 1.595058 -0.675251
v 0.954939 1.595058 0.000000
v 0.675251 1.595058 0.675251
v 0.000000 0.249975 5.683044
v -4.018537 0.249975 4.018543
v -5.683040 0.249975 0.000000
v -4.018537 0.249975 -4.018543
v 0.000000 0.249975 -5.683044
v 4.018537 0.249975 -4.018543
v 5.683040 0.249975 0.000000
v 4.018537 0.249976 4.018543
v 0.000000 11.612869 -5.094291
v 3.602223 11.612869 -3.602223
v 5.094291 11.612869 0.000000
v 3.602223 11.612869 3.602223
v 0.000000 11.612869 5.094291
v -3.602223 11.612869 3.602223
v -5.094291 11.612869 0.000000
v -3.602223 11.612869 -3.602223
v 0.000000 17.384132 7.821120
v -5.530382 17.384132 5.530382
v -7.821120 17.384132 0.000000
v -5.530382 17.384132 -5.530382
v 0.000000 17.384132 -7.821120
v 5.530382 17.384132 -5.530382
v 7.821120 17.384132 0.000000
v 5.530382 17.384132 5.530382
vt 0.728397 0.016117
vt 0.700354 0.010294
vt 0.672310 0.016117
vt 0.660694 0.030176
vt 0.672310 0.044234
vt 0.700354 0.050057
vt 0.728397 0.044234
vt 0.740012 0.030176
vt 0.737344 0.056077
vt 0.712897 0.056077
vt 0.688451 0.056077
vt 0.664004 0.056077
vt 0.639557 0.056077
vt 0.664471 0.056077
vt 0.689386 0.056077
vt 0.714300 0.056077
vt 0.739214 0.056077
vt 0.737344 0.007543
vt 0.712897 0.007543
vt 0.688451 0.007543
vt 0.664004 0.007543
vt 0.639557 0.007543
vt 0.664471 0.007543
vt 0.689386 0.007543
vt 0.714300 0.007543
vt 0.739214 0.007543
vt 0.727840 0.021038
vt 0.702058 0.015684
vt 0.676275 0.021038
vt 0.665596 0.033962
vt 0.676275 0.046887
vt 0.702058 0.052241
vt 0.727840 0.046887
vt 0.738519 0.033962
vt 0.700354 0.029381
vt 0.702058 0.033231
vt 0.664471 0.056687
vt 0.639557 0.056687
vt 0.664004 0.056687
vt 0.688451 0.056687
vt 0.712897 0.056687
vt 0.739214 0.056687
vt 0.737344 0.056687
vt 0.714300 0.056687
vt 0.689386 0.056687
vt 0.664471 0.006603
vt 0.639557 0.006603
vt 0.664004 0.006603
vt 0.688451 0.006603
vt 0.712897 0.006603
vt 0.739214 0.006603
vt 0.737344 0.006603
vt 0.714300 0.006603
vt 0.689386 0.006603
vt 0.664471 0.053252
vt 0.639557 0.053252
vt 0.664004 0.053252
vt 0.688451 0.053252
vt 0.712897 0.053252
vt 0.739214 0.053252
vt 0.737344 0.053252
vt 0.714300 0.053252
vt 0.689386 0.053252
vt 0.712897 0.050087
vt 0.739214 0.050087
vt 0.737344 0.050087
vt 0.714300 0.050087
vt 0.689386 0.050087
vt 0.664471 0.050087
vt 0.639557 0.050087
vt 0.664004 0.050087
vt 0.688451 0.050087
vt 0.664471 0.031900
vt 0.639557 0.031900
vt 0.664004 0.031900
vt 0.688451 0.031900
vt 0.712897 0.031900
vt 0.739214 0.031900
vt 0.737344 0.031900
vt 0.714300 0.031900
vt 0.689386 0.031900
vn 0.083218 -0.993051 -0.083218
vn 0.000000 -0.993051 -0.117687
vn 0.000000 0.927042 -0.374957
vn 0.265134 0.927042 -0.265134
vn -0.083218 -0.993051 -0.083218
vn -0.265134 0.927042 -0.265134
vn -0.117687 -0.993051 -0.000000
vn -0.374957 0.927042 -0.000000
vn -0.083218 -0.993051 0.083218
vn -0.265134 0.927042 0.265134
vn 0.000000 -0.993051 0.117687
vn -0.000000 0.927042 0.374957
vn 0.083218 -0.993051 0.083218
vn 0.265134 0.927043 0.265134
vn 0.117687 -0.993051 0.000000
vn 0.374958 0.927042 -0.000000
vn 0.000000 -1.000000 0.000000
vn -0.620266 0.480147 0.620266
vn 0.000000 0.480147 0.877188
vn 0.000000 1.000000 0.000000
vn 0.620266 0.480147 0.620266
vn 0.877188 0.480147 0.000000
vn 0.620266 0.480147 -0.620266
vn 0.000000 0.480147 -0.877188
vn -0.620266 0.480147 -0.620266
vn -0.877188 0.480147 0.000000
vn -0.327028 -0.886626 0.327028
vn 0.000000 -0.886625 0.462489
vn 0.000000 -0.533075 0.846068
vn -0.598260 -0.533076 0.598260
vn -0.462489 -0.886625 0.000000
vn -0.846068 -0.533075 -0.000000
vn -0.327028 -0.886626 -0.327028
vn -0.598260 -0.533076 -0.598260
vn 0.000000 -0.886625 -0.462489
vn 0.000000 -0.533075 -0.846068
vn 0.327028 -0.886626 -0.327028
vn 0.598260 -0.533076 -0.598260
vn 0.462489 -0.886625 0.000000
vn 0.846068 -0.533075 0.000000
vn 0.327028 -0.886626 0.327028
vn 0.598260 -0.533076 0.598260
vn -0.707020 -0.015665 0.707020
vn 0.000000 -0.015665 0.999877
vn 0.000000 -0.015665 0.999877
vn -0.707020 -0.015665 0.707020
vn -0.999877 -0.015665 0.000000
vn -0.999877 -0.015665 0.000000
vn -0.707020 -0.015665 -0.707020
vn -0.707020 -0.015665 -0.707020
vn 0.000000 -0.015665 -0.999877
vn 0.000000 -0.015665 -0.999877
vn 0.707020 -0.015665 -0.707020
vn 0.707020 -0.015665 -0.707020
vn 0.999877 -0.015665 -0.000000
vn 0.999877 -0.015665 -0.000000
vn 0.707020 -0.015665 0.707020
vn 0.707020 -0.015665 0.707020
vn -0.000000 0.961835 0.273630
vn -0.193484 0.961836 0.193484
vn -0.273630 0.961835 0.000000
vn -0.193484 0.961836 -0.193484
vn 0.000000 0.961835 -0.273630
vn 0.193484 0.961836 -0.193484
vn 0.273630 0.961835 -0.000000
vn 0.193484 0.961836 0.193484
vn -0.000000 -0.239845 -0.970811
vn 0.686467 -0.239845 -0.686467
vn 0.970811 -0.239845 0.000000
vn 0.686467 -0.239845 0.686467
vn 0.000000 -0.239845 0.970811
vn -0.686467 -0.239845 0.686467
vn -0.970811 -0.239845 -0.000000
vn -0.686467 -0.239845 -0.686467
vn 0.000000 -0.132809 0.991142
vn -0.700843 -0.132809 0.700843
vn -0.991142 -0.132809 0.000000
vn -0.700843 -0.132809 -0.700843
vn 0.000000 -0.132809 -0.991142
vn 0.700843 -0.132809 -0.700843
vn 0.991142 -0.132809 0.000000
vn 0.700843 -0.132809 0.700843
f 1/9/1 2/10/2 39/59/3 40/61/4
f 2/10/2 3/11/5 38/58/6 39/59/3
f 3/11/5 4/12/7 37/57/8 38/58/6
f 4/12/7 5/13/9 36/56/10 37/57/8
f 5/13/9 6/14/11 35/55/12 36/56/10
f 6/14/11 7/15/13 42/63/14 35/55/12
f 7/15/13 8/16/15 41/62/16 42/63/14
f 8/16/15 1/17/1 40/60/4 41/62/16
f 2/2/2 1/1/1 17/35/17
f 3/3/5 2/2/2 17/35/17
f 4/4/7 3/3/5 17/35/17
f 5/5/9 4/4/7 17/35/17
f 6/6/11 5/5/9 17/35/17
f 7/7/13 6/6/11 17/35/17
f 8/8/15 7/7/13 17/35/17
f 1/1/1 8/8/15 17/35/17
f 9/33/18 10/32/19 18/36/20
f 10/32/19 11/31/21 18/36/20
f 11/31/21 12/30/22 18/36/20
f 12/30/22 13/29/23 18/36/20
f 13/29/23 14/28/24 18/36/20
f 14/28/24 15/27/25 18/36/20
f 15/27/25 16/34/26 18/36/20
f 16/34/26 9/33/18 18/36/20
f 20/38/27 19/37/28 47/69/29 48/70/30
f 21/39/31 20/38/27 48/70/30 49/71/32
f 22/40/33 21/39/31 49/71/32 50/72/34
f 23/41/35 22/40/33 50/72/34 43/64/36
f 24/43/37 23/41/35 43/64/36 44/66/38
f 25/44/39 24/42/37 44/65/38 45/67/40
f 26/45/41 25/44/39 45/67/40 46/68/42
f 19/37/28 26/45/41 46/68/42 47/69/29
f 28/47/43 27/46/44 19/37/45 20/38/46
f 29/48/47 28/47/43 20/38/46 21/39/48
f 30/49/49 29/48/47 21/39/48 22/40/50
f 31/50/51 30/49/49 22/40/50 23/41/52
f 32/52/53 31/50/51 23/41/52 24/43/54
f 33/53/55 32/51/53 24/42/54 25/44/56
f 34/54/57 33/53/55 25/44/56 26/45/58
f 27/46/44 34/54/57 26/45/58 19/37/45
f 36/56/10 35/55/12 27/46/59 28/47/60
f 37/57/8 36/56/10 28/47/60 29/48/61
f 38/58/6 37/57/8 29/48/61 30/49/62
f 39/59/3 38/58/6 30/49/62 31/50/63
f 40/61/4 39/59/3 31/50/63 32/52/64
f 41/62/16 40/60/4 32/51/64 33/53/65
f 42/63/14 41/62/16 33/53/65 34/54/66
f 35/55/12 42/63/14 34/54/66 27/46/59
f 44/66/38 43/64/36 55/77/67 56/79/68
f 45/67/40 44/65/38 56/78/68 57/80/69
f 46/68/42 45/67/40 57/80/69 58/81/70
f 47/69/29 46/68/42 58/81/70 51/73/71
f 48/70/30 47/69/29 51/73/71 52/74/72
f 49/71/32 48/70/30 52/74/72 53/75/73
f 50/72/34 49/71/32 53/75/73 54/76/74
f 43/64/36 50/72/34 54/76/74 55/77/67
f 52/74/72 51/73/71 14/23/75 13/22/76
f 53/75/73 52/74/72 13/22/76 12/21/77
f 54/76/74 53/75/73 12/21/77 11/20/78
f 55/77/67 54/76/74 11/20/78 10/19/79
f 56/79/68 55/77/67 10/19/79 9/18/80
f 57/80/69 56/78/68 9/26/80 16/25/81
f 58/81/70 57/80/69 16/25/81 15/24/82
f 51/73/71 58/81/70 15/24/82 14/23/75
