# This file uses centimeters as units for non-parametric coordinates.

v -191.152069 2.430046 191.152069
v 191.152069 2.430046 191.152069
v -191.152069 2.430046 -191.152069
v 191.152069 2.430046 -191.152069
v 0.000000 2.430046 191.152069
v 0.000000 2.430046 -191.152069
v 191.152069 2.430046 0.000000
v 0.000000 2.430046 0.000000
v -191.152069 2.430046 0.000000
v -191.152069 0.000000 191.152069
v 0.000000 0.000000 191.152069
v -191.152069 0.000000 0.000000
v 191.152069 0.000000 191.152069
v 191.152069 0.000000 0.000000
v 0.000000 0.000000 -191.152069
v 191.152069 0.000000 -191.152069
v -191.152069 0.000000 -191.152069
vt 0.293594 0.762087
vt 0.304169 0.762087
vt 0.304169 0.772662
vt 0.293594 0.772662
vt 0.304169 0.772662
vt 0.304169 0.762087
vt 0.293594 0.762087
vt 0.293594 0.772662
vt 0.304169 0.762087
vt 0.304169 0.772662
vt 0.293594 0.772662
vt 0.293594 0.762087
vt 0.293594 0.772662
vt 0.304169 0.772662
vt 0.304169 0.762087
vt 0.293594 0.762087
vt 0.293594 0.762087
vt 0.293594 0.762087
vt 0.304169 0.762087
vt 0.304169 0.762087
vt 0.293594 0.772662
vt 0.293594 0.772662
vt 0.304169 0.762087
vt 0.304169 0.762087
vt 0.293594 0.762087
vt 0.293594 0.762087
vt 0.293594 0.772662
vt 0.293594 0.772662
vt 0.293594 0.772662
vt 0.293594 0.772662
vt 0.293594 0.762087
vt 0.293594 0.762087
vt 0.304169 0.762087
vt 0.304169 0.762087
vt 0.304169 0.762087
vt 0.304169 0.762087
vt 0.293594 0.762087
vt 0.293594 0.762087
vt 0.293594 0.772662
vt 0.293594 0.772662
vn 0.000000 1.000000 0.000000
vn 0.000000 1.000000 0.000000
vn 0.000000 1.000000 0.000000
vn 0.000000 1.000000 0.000000
vn 0.000000 1.000000 0.000000
vn 0.000000 1.000000 0.000000
vn 0.000000 1.000000 0.000000
vn 0.000000 1.000000 0.000000
vn 0.000000 1.000000 0.000000
vn 0.000000 1.000000 0.000000
vn 0.000000 1.000000 0.000000
vn 0.000000 1.000000 0.000000
vn 0.000000 1.000000 0.000000
vn 0.000000 1.000000 0.000000
vn 0.000000 1.000000 0.000000
vn 0.000000 1.000000 0.000000
vn 0.000000 0.000000 1.000000
vn 0.000000 0.000000 1.000000
vn 0.000000 0.000000 1.000000
vn 0.000000 0.000000 1.000000
vn -1.000000 0.000000 0.000000
vn -1.000000 0.000000 0.000000
vn -1.000000 0.000000 0.000000
vn -1.000000 0.000000 0.000000
vn 0.000000 0.000000 1.000000
vn 0.000000 0.000000 1.000000
vn 0.000000 0.000000 1.000000
vn 0.000000 0.000000 1.000000
vn 1.000000 0.000000 0.000000
vn 1.000000 0.000000 0.000000
vn 1.000000 0.000000 0.000000
vn 1.000000 0.000000 0.000000
vn 1.000000 0.000000 0.000000
vn 1.000000 0.000000 0.000000
vn 1.000000 0.000000 0.000000
vn 1.000000 0.000000 0.000000
vn 0.000000 0.000000 -1.000000
vn 0.000000 0.000000 -1.000000
vn 0.000000 0.000000 -1.000000
vn 0.000000 0.000000 -1.000000
vn 0.000000 0.000000 -1.000000
vn 0.000000 0.000000 -1.000000
vn 0.000000 0.000000 -1.000000
vn 0.000000 0.000000 -1.000000
vn -1.000000 0.000000 0.000000
vn -1.000000 0.000000 0.000000
vn -1.000000 0.000000 0.000000
vn -1.000000 0.000000 0.000000
f 1/1/1 5/2/2 8/3/3 9/4/4
f 8/5/5 5/6/6 2/7/7 7/8/8
f 6/9/9 8/10/10 7/11/11 4/12/12
f 9/13/13 8/14/14 6/15/15 3/16/16
f 1/17/17 10/18/18 11/19/19 5/20/20
f 9/21/21 12/22/22 10/18/23 1/17/24
f 5/23/25 11/24/26 13/25/27 2/26/28
f 2/26/29 13/25/30 14/27/31 7/28/32
f 7/29/33 14/30/34 16/31/35 4/32/36
f 4/32/37 16/31/38 15/33/39 6/34/40
f 6/35/41 15/36/42 17/37/43 3/38/44
f 3/38/45 17/37/46 12/39/47 9/40/48
