# This file uses meters as units for non-parametric coordinates.

v -16.529503 0.261807 20.889900
v -14.876718 0.000000 22.521822
v -16.529503 3.500045 21.409410
v -14.876718 3.238239 23.041332
v 16.529503 0.261807 20.889900
v 14.876718 0.000000 22.521822
v 16.529503 3.500045 21.409410
v 14.876718 3.238239 23.041332
v -16.529503 10.111491 -19.801716
v -14.876718 10.373295 -21.433630
v -16.529503 6.873241 -20.321226
v -14.876718 7.135049 -21.953135
v 14.876718 10.373295 -21.433630
v 16.529503 10.111491 -19.801716
v 16.529503 6.873241 -20.321226
v 14.876718 7.135049 -21.953135
vt 0.322724 0.978325
vt 0.322727 0.977838
vt 0.336125 0.977746
vt 0.336123 0.978233
vt 0.322937 0.992343
vt 0.322934 0.992830
vt 0.336333 0.992738
vt 0.336335 0.992252
vt 0.321990 0.978375
vt 0.321988 0.978862
vt 0.336877 0.978273
vt 0.336875 0.978760
vt 0.322182 0.992303
vt 0.322185 0.991816
vt 0.337069 0.992201
vt 0.337072 0.991714
vn -0.052553 -0.158185 0.986010
vn -0.052553 -0.158185 0.986010
vn 0.052553 -0.158185 0.986010
vn 0.052553 -0.158185 0.986010
vn -0.052553 0.158184 -0.986010
vn -0.052553 0.158184 -0.986010
vn 0.052553 0.158184 -0.986010
vn 0.052553 0.158184 -0.986010
vn -0.999275 -0.006029 0.037582
vn -0.999275 -0.006029 0.037582
vn 0.999275 -0.006029 0.037582
vn 0.999275 -0.006029 0.037582
vn -0.999275 0.006029 -0.037582
vn -0.999275 0.006029 -0.037583
vn 0.999275 0.006029 -0.037582
vn 0.999275 0.006029 -0.037583
vn -0.000001 0.987375 0.158403
vn -0.000000 0.987375 0.158403
vn -0.000000 0.987375 0.158403
vn -0.000001 0.987375 0.158403
vn 0.000000 0.987375 0.158403
vn 0.000000 0.987375 0.158403
vn 0.000001 0.987375 0.158403
vn 0.000001 0.987375 0.158403
vn 0.000001 -0.987375 -0.158403
vn 0.000000 -0.987375 -0.158403
vn 0.000000 -0.987375 -0.158403
vn 0.000001 -0.987375 -0.158403
vn -0.000000 -0.987375 -0.158403
vn -0.000000 -0.987375 -0.158403
vn -0.000001 -0.987375 -0.158403
vn -0.000001 -0.987375 -0.158403
f 4/1/1 2/2/2 6/3/3 8/4/4
f 12/5/5 10/6/6 13/7/7 16/8/8
f 1/9/9 2/2/2 4/1/1 3/10/10
f 6/3/3 5/11/11 7/12/12 8/4/4
f 9/13/13 10/6/6 12/5/5 11/14/14
f 13/7/7 14/15/15 15/16/16 16/8/8
f 14/15/17 13/7/18 8/4/19 7/12/20
f 8/4/19 13/7/18 10/6/21 4/1/22
f 10/6/21 9/13/23 3/10/24 4/1/22
f 9/13/13 11/14/14 1/9/9 3/10/10
f 11/14/25 12/5/26 2/2/27 1/9/28
f 12/5/26 16/8/29 6/3/30 2/2/27
f 16/8/29 15/16/31 5/11/32 6/3/30
f 15/16/16 14/15/15 7/12/12 5/11/11
