# This file uses meters as units for non-parametric coordinates.

v -0.996722 7.213233 -0.529045
v 11.551480 7.213233 -0.529045
v -0.996722 7.487471 -2.238447
v 11.551480 7.487471 -2.238447
v 1.464374 9.423004 -14.303202
v 9.353511 9.423004 -14.303202
v 1.464374 9.820907 -16.783459
v 9.353511 9.820907 -16.783459
v 12.651953 3.700758 20.674904
v 12.651953 6.964056 0.333767
v -2.471986 6.964056 0.333767
v -2.471986 3.700758 20.674904
vt 0.165087 0.897860
vt 0.165087 0.905434
vt 0.129116 0.905435
vt 0.129116 0.897860
vt 0.062052 0.969702
vt 0.062052 0.999012
vt 0.000723 0.999012
vt 0.000723 0.969702
vt 0.092764 0.866430
vt 0.092764 0.904679
vt 0.063536 0.904679
vt 0.063536 0.866430
vn 0.000000 0.987375 0.158404
vn 0.000000 0.987375 0.158404
vn 0.000000 0.987375 0.158404
vn 0.000000 0.987375 0.158404
vn 0.000000 0.987375 0.158402
vn 0.000000 0.987375 0.158402
vn 0.000000 0.987375 0.158402
vn 0.000000 0.987375 0.158402
vn 0.000000 0.987375 0.158403
vn 0.000000 0.987375 0.158403
vn 0.000000 0.987375 0.158403
vn 0.000000 0.987375 0.158403
f 2/1/1 4/2/2 3/3/3 1/4/4
f 6/5/5 8/6/6 7/7/7 5/8/8
f 9/9/9 10/10/10 11/11/11 12/12/12
