# This file uses meters as units for non-parametric coordinates.

v 1.743256 -46.027102 -0.435773
v 1.642822 -46.027102 25.054200
v 1.642822 46.027102 25.054200
v 1.743256 46.027102 -0.435773
v 12.484161 -46.027102 45.783923
v 12.484161 46.027102 45.783923
v 39.312225 -46.027102 58.742156
v 39.312225 46.027102 58.742156
v 95.517387 46.027102 58.654356
v 95.517387 -46.027102 58.654356
v 11.331726 -45.591329 46.973971
v 11.650757 -46.027102 46.644549
v 38.930969 -45.591329 60.397627
v 39.031342 -46.027102 59.961852
v 95.081612 -45.591329 60.397627
v 95.517387 -46.027102 59.961852
v 95.081612 45.591327 60.397627
v 95.517387 46.027102 59.961852
v 0.000000 -45.591329 0.000000
v 0.435791 -46.027102 -0.435774
v 0.000000 -45.591329 25.460408
v 0.435791 -46.027102 25.352658
v 38.930969 45.591327 60.397627
v 39.031342 46.027102 59.961852
v 11.331726 45.591327 46.973971
v 11.650757 46.027102 46.644549
v 0.000000 45.591327 25.460408
v 0.435791 46.027102 25.352658
v 0.000000 45.591327 0.000000
v 0.435791 46.027102 -0.435774
vt 0.681160 0.133176
vt 0.700378 0.133176
vt 0.680959 0.133176
vt 0.662356 0.133176
vt 0.700517 0.133176
vt 0.700517 0.178104
vt 0.662161 0.133176
vt 0.635714 0.133388
vt 0.700378 0.178104
vt 0.681160 0.178104
vt 0.680959 0.178104
vt 0.662356 0.178104
vt 0.662161 0.178104
vt 0.635714 0.177891
vt 0.662273 0.133388
vt 0.681070 0.177891
vt 0.700441 0.133388
vt 0.742975 0.177891
vt 0.700441 0.177891
vt 0.742975 0.133388
vt 0.662273 0.177891
vt 0.681070 0.133388
vt 0.635259 0.133176
vt 0.662273 0.133176
vt 0.662273 0.178104
vt 0.635259 0.178104
vt 0.635259 0.178104
vt 0.635259 0.133176
vt 0.681070 0.133176
vt 0.700441 0.133176
vt 0.700441 0.178104
vt 0.681070 0.178104
vt 0.743305 0.178104
vt 0.700441 0.178104
vt 0.700446 0.133176
vt 0.743305 0.133176
vt 0.743305 0.133176
vt 0.743305 0.178104
vt 0.662273 0.133176
vt 0.681070 0.133176
vt 0.681070 0.178104
vt 0.662273 0.178104
vn 0.999992 0.000000 0.003940
vn 0.999992 0.000000 0.003940
vn 0.974045 0.000000 -0.226356
vn 0.974045 0.000000 -0.226356
vn 0.666616 0.000000 -0.745401
vn 0.153174 0.000000 -0.988199
vn 0.153174 0.000000 -0.988199
vn 0.666616 0.000000 -0.745401
vn -0.001562 0.000000 -0.999999
vn -0.001562 0.000000 -0.999999
vn -0.460160 -0.724658 0.512956
vn -0.460155 -0.724657 0.512961
vn -0.110081 -0.715374 0.690017
vn -0.110085 -0.715374 0.690016
vn -0.677342 -0.717526 0.162373
vn -0.677341 -0.717526 0.162374
vn 0.000000 -0.707108 0.707105
vn 0.000000 -0.707109 0.707105
vn 0.707104 0.000000 0.707109
vn 0.707104 0.000000 0.707109
vn 0.707104 0.000000 0.707109
vn 0.707104 0.000000 0.707109
vn 0.000000 0.707102 0.707111
vn 0.000000 0.707102 0.707111
vn -0.110081 0.715368 0.690023
vn -0.110086 0.715368 0.690022
vn -0.707090 -0.707124 0.000000
vn -0.707090 -0.707124 0.000000
vn -0.707093 0.000000 -0.707120
vn -0.707093 0.000000 -0.707120
vn -0.707093 0.000000 -0.707120
vn -0.707093 0.000000 -0.707120
vn -0.460157 0.724654 0.512963
vn -0.460162 0.724655 0.512959
vn -0.677343 0.717525 0.162371
vn -0.677344 0.717525 0.162370
vn -0.707091 0.707122 0.000000
vn -0.707091 0.707122 0.000000
vn -1.000000 0.000000 0.000000
vn -0.972114 0.000000 0.234507
vn -0.972114 0.000000 0.234507
vn -1.000000 0.000000 0.000000
vn -0.667901 0.000000 0.744250
vn -0.667901 0.000000 0.744250
vn -0.158263 0.000000 0.987397
vn -0.158263 0.000000 0.987397
vn 0.000000 0.000000 1.000000
vn 0.000000 0.000000 1.000000
vn 0.000000 -1.000000 0.000000
vn 0.000000 -1.000000 0.000000
vn 0.000000 -1.000000 0.000000
vn 0.000000 -1.000000 0.000000
vn 0.000000 1.000000 0.000002
vn 0.000000 1.000000 0.000002
vn 0.000000 1.000000 0.000000
vn 0.000000 1.000000 0.000000
vn 0.000001 0.000000 -1.000000
vn 0.000001 0.000000 -1.000000
vn 0.000001 0.000000 -1.000000
vn 0.000001 0.000000 -1.000000
vn 0.000000 -1.000000 0.000000
vn 0.000000 -1.000000 0.000000
vn 0.000000 -1.000000 0.000000
vn 0.000000 -1.000000 0.000000
vn 0.000000 1.000000 -0.000002
vn 0.000000 1.000000 -0.000002
vn 0.000000 1.000000 -0.000002
vn 0.000000 1.000000 -0.000002
vn 0.000000 1.000000 0.000000
vn 0.000000 1.000000 0.000000
vn 0.000000 -1.000000 0.000000
vn 0.000000 -1.000000 0.000000
vn 1.000000 0.000000 0.000000
vn 1.000000 0.000000 0.000000
vn 1.000000 0.000000 0.000000
vn 1.000000 0.000000 0.000000
f 1/28/1 4/26/2 3/42/3 2/24/4
f 6/32/5 8/34/6 7/30/7 5/40/8
f 9/38/9 10/36/10 7/30/7 8/34/6
f 3/42/3 6/32/5 5/40/8 2/24/4
f 11/22/11 12/1/12 14/2/13 13/17/14
f 12/3/12 11/22/11 21/15/15 22/4/16
f 13/17/14 14/5/13 16/37/17 15/20/18
f 15/20/19 16/37/20 18/33/21 17/18/22
f 17/18/23 18/33/24 24/6/25 23/19/26
f 19/8/27 20/23/28 22/7/16 21/15/15
f 20/23/29 19/8/30 29/14/31 30/27/32
f 23/19/26 24/9/25 26/10/33 25/16/34
f 25/16/34 26/11/33 28/12/35 27/21/36
f 27/21/36 28/13/35 30/27/37 29/14/38
f 19/8/39 21/15/40 27/21/41 29/14/42
f 25/16/43 11/22/44 13/17/45 23/19/46
f 17/18/47 23/19/46 13/17/45 15/20/48
f 27/21/41 21/15/40 11/22/44 25/16/43
f 20/23/49 1/28/50 2/24/51 22/39/52
f 28/25/53 3/42/54 4/26/55 30/27/56
f 30/27/57 4/26/58 1/28/59 20/23/60
f 12/29/61 5/40/62 7/30/63 14/35/64
f 24/31/65 8/34/66 6/32/67 26/41/68
f 18/33/69 9/38/70 8/34/66 24/31/65
f 14/35/64 7/30/63 10/36/71 16/37/72
f 16/37/73 10/36/74 9/38/75 18/33/76
f 22/39/52 2/24/51 5/40/62 12/29/61
f 26/41/68 6/32/67 3/42/54 28/25/53
