# This file uses meters as units for non-parametric coordinates.

v -42.793571 129.484161 73.602463
v 53.175652 129.484161 90.201691
v 53.175652 137.232971 0.000008
v -53.175652 129.484161 0.000008
v 53.175652 129.484161 0.000008
v -7.401694 129.484161 90.201691
v -7.401694 137.232971 0.000008
v -7.401694 129.484161 0.000008
v -53.175652 129.484161 40.403049
v -7.401694 137.232971 40.403046
v 53.175652 137.232971 40.403046
v 53.175652 129.484161 40.403049
v -7.401694 129.484161 40.403049
v -42.793571 135.295959 73.602463
v -41.199272 137.232971 72.210732
v -7.401694 135.295959 90.201691
v -6.970009 137.232971 88.264679
v 53.175652 135.295959 90.201691
v 53.175652 137.232971 88.264679
v -51.238644 137.232971 0.000008
v -53.175652 135.295959 0.000008
v -53.175652 135.295959 40.403049
v -51.238644 137.232971 40.403049
vt 0.523677 0.172507
vt 0.558944 0.183622
vt 0.558944 0.128529
vt 0.513332 0.128529
vt 0.558944 0.153472
vt 0.513332 0.153472
vt 0.619307 0.153472
vt 0.619307 0.128529
vt 0.619307 0.128529
vt 0.619307 0.153472
vt 0.619307 0.183622
vt 0.535367 0.161777
vt 0.587146 0.151255
vt 0.566708 0.151255
vt 0.566708 0.161777
vt 0.613315 0.151255
vt 0.587146 0.161777
vt 0.565247 0.161777
vt 0.585790 0.161777
vt 0.586219 0.161777
vt 0.612297 0.161777
vt 0.586025 0.151255
vt 0.613315 0.159147
vt 0.586025 0.159147
vt 0.619307 0.182450
vt 0.511400 0.159147
vt 0.512414 0.161777
vt 0.535367 0.151255
vt 0.511400 0.151255
vt 0.564218 0.161777
vt 0.541738 0.151255
vt 0.564783 0.151255
vt 0.564783 0.159147
vt 0.542541 0.159275
vt 0.525266 0.171712
vt 0.559374 0.182450
vt 0.558944 0.153472
vt 0.515554 0.153992
vt 0.515262 0.128529
vt 0.558944 0.128529
vt 0.514977 0.151255
vt 0.514977 0.161777
vt 0.514977 0.159147
vt 0.542565 0.160499
vn 0.000000 -1.000000 0.000000
vn 0.000000 -1.000000 0.000000
vn 0.000000 -1.000000 0.000000
vn 0.000000 -1.000000 0.000000
vn 1.000000 0.000000 0.000000
vn 1.000000 0.000000 0.000000
vn 1.000000 0.000000 0.000000
vn 1.000000 0.000000 0.000000
vn -1.000000 0.000000 0.000000
vn -0.990198 0.000000 0.139673
vn -0.990198 0.000000 0.139673
vn -1.000000 0.000000 0.000000
vn 0.000000 1.000000 0.000000
vn 0.000000 1.000000 0.000000
vn 0.000000 1.000000 0.000000
vn 0.000000 1.000000 0.000000
vn 0.000000 0.000000 -1.000000
vn 0.000000 0.000000 -1.000000
vn 0.000000 0.000000 -1.000000
vn 0.000000 0.000000 -1.000000
vn 0.000000 -1.000000 0.000000
vn 0.000000 -1.000000 0.000000
vn 1.000000 0.000000 0.000000
vn 1.000000 0.000000 0.000000
vn 1.000000 0.000000 0.000000
vn 0.000000 -1.000000 0.000000
vn 0.000000 -1.000000 0.000000
vn 0.000000 -1.000000 0.000000
vn 0.000000 1.000000 0.000000
vn 0.000000 1.000000 0.000000
vn -0.499446 0.733829 0.460487
vn -0.499345 0.733829 0.460597
vn -0.699122 0.707266 0.104897
vn -0.700704 0.707714 0.090300
vn -0.118173 0.715197 0.688860
vn -0.118173 0.715197 0.688860
vn 0.000000 0.707107 0.707107
vn 0.000000 0.707107 0.707107
vn -0.736232 0.000000 0.676730
vn -0.170434 0.000000 0.985369
vn -0.170434 0.000000 0.985369
vn -0.736232 0.000000 0.676730
vn 0.000000 0.000000 1.000000
vn 0.000000 0.000000 1.000000
vn 0.000000 1.000000 0.000000
vn 0.000000 1.000000 0.000000
vn 0.000000 1.000000 0.000000
vn 0.000000 0.000000 -1.000000
vn 0.000000 0.000000 -1.000000
vn 0.000000 0.000000 -1.000000
vn -0.707108 0.707106 0.000000
vn -0.707108 0.707106 0.000000
f 4/4/1 8/3/2 13/5/3 9/6/4
f 12/13/5 5/14/6 3/15/7 11/17/8
f 4/41/9 9/31/10 22/34/11 21/43/12
f 7/40/13 10/37/14 11/10/15 3/9/16
f 8/28/17 7/12/18 3/15/19 5/14/20
f 13/5/3 8/3/2 5/8/21 12/7/22
f 2/16/23 12/13/5 11/17/8 19/21/24 18/23/25
f 6/2/26 13/5/3 12/7/22 2/11/27
f 9/6/4 13/5/3 6/2/26 1/1/28
f 20/39/29 23/38/30 10/37/14 7/40/13
f 14/33/31 15/30/32 23/44/33 22/34/34
f 15/18/32 14/33/31 16/24/35 17/19/36
f 17/20/36 16/24/35 18/23/37 19/21/38
f 1/32/39 6/22/40 16/24/41 14/33/42
f 6/22/40 2/16/43 18/23/44 16/24/41
f 9/31/10 1/32/39 14/33/42 22/34/11
f 15/35/45 17/36/46 10/37/14 23/38/30
f 11/10/15 10/37/14 17/36/46 19/25/47
f 21/26/48 20/27/49 7/12/18 8/28/17 4/29/50
f 20/42/51 21/43/52 22/34/34 23/44/33
