# This file uses meters as units for non-parametric coordinates.

v -41.890965 100.014198 54.392578
v 41.890965 100.014198 54.392578
v -41.890965 102.630135 54.392578
v 41.890965 102.630135 54.392578
v -41.890965 102.630135 47.614685
v 41.890965 102.630135 47.614685
v -41.890965 100.014198 47.614685
v 41.890965 100.014198 47.614685
v 41.890965 101.976151 54.859421
v -41.890965 101.976151 54.859421
v -41.890965 101.976151 47.614685
v 41.890965 101.976151 47.614685
v 41.890965 100.668182 54.859421
v -41.890965 100.668182 54.859421
v -41.890965 100.668182 47.614685
v 41.890965 100.668182 47.614685
v -41.890965 141.509064 54.392578
v 41.890965 141.509064 54.392578
v -41.890965 144.125000 54.392578
v 41.890965 144.125000 54.392578
v -41.890965 144.125000 47.614685
v 41.890965 144.125000 47.614685
v -41.890965 141.509064 47.614685
v 41.890965 141.509064 47.614685
v 41.890965 143.471008 54.859421
v -41.890965 143.471008 54.859421
v -41.890965 143.471008 47.614685
v 41.890965 143.471008 47.614685
v 41.890965 142.163055 54.859421
v -41.890965 142.163055 54.859421
v -41.890965 142.163055 47.614685
v 41.890965 142.163055 47.614685
v -41.890965 183.400513 54.392578
v 41.890965 183.400513 54.392578
v -41.890965 186.016449 54.392578
v 41.890965 186.016449 54.392578
v -41.890965 186.016449 47.614685
v 41.890965 186.016449 47.614685
v -41.890965 183.400513 47.614685
v 41.890965 183.400513 47.614685
v 41.890965 185.362457 54.859421
v -41.890965 185.362457 54.859421
v -41.890965 185.362457 47.614685
v 41.890965 185.362457 47.614685
v 41.890965 184.054504 54.859421
v -41.890965 184.054504 54.859421
v -41.890965 184.054504 47.614685
v 41.890965 184.054504 47.614685
v 41.582031 97.507111 54.119778
v 41.582031 98.505783 56.530811
v 41.582031 100.916809 57.529491
v 41.582031 103.327827 56.530811
v 41.582031 104.326515 54.119778
v 42.523529 97.507103 54.119778
v 42.523537 98.505783 56.530811
v 42.523533 100.916809 57.529491
v 42.523537 103.327843 56.530811
v 42.523533 104.326515 54.119778
v 41.582031 100.916809 54.119778
v 41.582031 97.507111 11.797669
v 42.523529 97.507103 11.797669
v 41.582031 104.326515 11.797669
v 42.523533 104.326515 11.797669
v 41.582031 100.916809 11.797669
v -41.582031 97.507103 54.119778
v -41.582031 98.505783 56.530811
v -41.582031 100.916809 57.529491
v -41.582031 103.327827 56.530811
v -41.582031 104.326515 54.119778
v -42.523537 97.507103 54.119778
v -42.523537 98.505783 56.530811
v -42.523537 100.916809 57.529491
v -42.523537 103.327827 56.530811
v -42.523537 104.326515 54.119778
v -41.582031 100.916809 54.119778
v -41.582031 97.507103 11.797664
v -42.523537 97.507103 11.797664
v -41.582031 104.326515 11.797664
v -42.523537 104.326515 11.797664
v -41.582031 100.916809 11.797664
v 41.582031 139.001968 54.119778
v 41.582031 140.000641 56.530811
v 41.582031 142.411667 57.529491
v 41.582031 144.822678 56.530811
v 41.582031 145.821365 54.119778
v 42.523529 139.001953 54.119778
v 42.523537 140.000641 56.530811
v 42.523533 142.411667 57.529491
v 42.523537 144.822693 56.530811
v 42.523533 145.821365 54.119778
v 41.582031 142.411667 54.119778
v 41.582031 139.001968 11.797669
v 42.523529 139.001953 11.797669
v 41.582031 145.821365 11.797669
v 42.523533 145.821365 11.797669
v 41.582031 142.411667 11.797669
v -41.582031 139.001953 54.119778
v -41.582031 140.000641 56.530811
v -41.582031 142.411667 57.529491
v -41.582031 144.822678 56.530811
v -41.582031 145.821365 54.119778
v -42.523537 139.001953 54.119778
v -42.523537 140.000641 56.530811
v -42.523537 142.411667 57.529491
v -42.523537 144.822678 56.530811
v -42.523537 145.821365 54.119778
v -41.582031 142.411667 54.119778
v -41.582031 139.001953 11.797664
v -42.523537 139.001953 11.797664
v -41.582031 145.821365 11.797664
v -42.523537 145.821365 11.797664
v -41.582031 142.411667 11.797664
v 41.582031 180.893433 54.119778
v 41.582031 181.892090 56.530811
v 41.582031 184.303131 57.529491
v 41.582031 186.714142 56.530811
v 41.582031 187.712830 54.119778
v 42.523529 180.893417 54.119778
v 42.523537 181.892090 56.530811
v 42.523533 184.303131 57.529491
v 42.523537 186.714157 56.530811
v 42.523533 187.712830 54.119778
v 41.582031 184.303131 54.119778
v 41.582031 180.893433 11.797669
v 42.523529 180.893417 11.797669
v 41.582031 187.712830 11.797669
v 42.523533 187.712830 11.797669
v 41.582031 184.303131 11.797669
v -41.582031 180.893417 54.119778
v -41.582031 181.892090 56.530811
v -41.582031 184.303131 57.529491
v -41.582031 186.714142 56.530811
v -41.582031 187.712830 54.119778
v -42.523537 180.893417 54.119778
v -42.523537 181.892090 56.530811
v -42.523537 184.303131 57.529491
v -42.523537 186.714142 56.530811
v -42.523537 187.712830 54.119778
v -41.582031 184.303131 54.119778
v -41.582031 180.893417 11.797664
v -42.523537 180.893417 11.797664
v -41.582031 187.712830 11.797664
v -42.523537 187.712830 11.797664
v -41.582031 184.303131 11.797664
vt 0.335663 0.918254
vt 0.321527 0.918254
vt 0.321527 0.921788
vt 0.335663 0.921788
vt 0.335663 0.932390
vt 0.321527 0.932390
vt 0.335663 0.932390
vt 0.321527 0.932390
vt 0.321527 0.921788
vt 0.335663 0.921788
vt 0.335663 0.918254
vt 0.321527 0.918254
vt 0.335663 0.932389
vt 0.321527 0.932390
vt 0.335663 0.918254
vt 0.321527 0.918254
vt 0.321527 0.918254
vt 0.321527 0.921788
vt 0.335663 0.928856
vt 0.321527 0.928856
vt 0.321527 0.928856
vt 0.321527 0.932390
vt 0.335663 0.928856
vt 0.321527 0.928856
vt 0.335663 0.918254
vt 0.321527 0.918254
vt 0.335663 0.918254
vt 0.321527 0.918254
vt 0.321527 0.921788
vt 0.335663 0.921788
vt 0.335663 0.932390
vt 0.321527 0.932390
vt 0.335663 0.932390
vt 0.321527 0.932390
vt 0.321527 0.921788
vt 0.335663 0.921788
vt 0.335663 0.918254
vt 0.321527 0.918254
vt 0.335663 0.932389
vt 0.321527 0.932390
vt 0.335663 0.918254
vt 0.321527 0.918254
vt 0.321527 0.918254
vt 0.321527 0.921788
vt 0.335663 0.928856
vt 0.321527 0.928856
vt 0.321527 0.928856
vt 0.321527 0.932390
vt 0.335663 0.928856
vt 0.321527 0.928856
vt 0.365986 0.960380
vt 0.366203 0.954959
vt 0.335663 0.918254
vt 0.321527 0.918254
vt 0.321527 0.921788
vt 0.335663 0.921788
vt 0.335663 0.932390
vt 0.321527 0.932390
vt 0.335663 0.932390
vt 0.321527 0.932390
vt 0.321527 0.921788
vt 0.335663 0.921788
vt 0.335663 0.918254
vt 0.321527 0.918254
vt 0.335663 0.932389
vt 0.321527 0.932390
vt 0.365986 0.949537
vt 0.354989 0.960004
vt 0.321527 0.918254
vt 0.321527 0.921788
vt 0.335663 0.928856
vt 0.321527 0.928856
vt 0.321527 0.928856
vt 0.321527 0.932390
vt 0.335663 0.928856
vt 0.321527 0.928856
vt 0.371503 0.960004
vt 0.371503 0.948410
vt 0.371503 0.948410
vt 0.354989 0.948410
vt 0.354989 0.951308
vt 0.371503 0.951308
vt 0.354989 0.954207
vt 0.371503 0.954207
vt 0.354989 0.957106
vt 0.371503 0.957106
vt 0.354989 0.960004
vt 0.371503 0.960004
vt 0.362152 0.951125
vt 0.366203 0.954959
vt 0.365986 0.949537
vt 0.360565 0.954959
vt 0.362152 0.958792
vt 0.365986 0.960380
vt 0.371503 0.948410
vt 0.354989 0.948410
vt 0.354989 0.960004
vt 0.371503 0.960004
vt 0.366203 0.954959
vt 0.365986 0.949537
vt 0.365986 0.960380
vt 0.371503 0.948410
vt 0.371503 0.951308
vt 0.354989 0.951308
vt 0.354989 0.948410
vt 0.371503 0.954207
vt 0.354989 0.954207
vt 0.371503 0.957106
vt 0.354989 0.957106
vt 0.371503 0.960004
vt 0.354989 0.960004
vt 0.362152 0.951125
vt 0.365986 0.949537
vt 0.366203 0.954959
vt 0.360565 0.954959
vt 0.362152 0.958792
vt 0.365986 0.960380
vt 0.354989 0.948410
vt 0.371503 0.948410
vt 0.371503 0.960004
vt 0.354989 0.960004
vt 0.365986 0.949537
vt 0.366203 0.954959
vt 0.365986 0.960380
vt 0.371503 0.948410
vt 0.354989 0.948410
vt 0.354989 0.951308
vt 0.371503 0.951308
vt 0.354989 0.954207
vt 0.371503 0.954207
vt 0.354989 0.957106
vt 0.371503 0.957106
vt 0.354989 0.960004
vt 0.371503 0.960004
vt 0.362152 0.951125
vt 0.366203 0.954959
vt 0.365986 0.949537
vt 0.360565 0.954959
vt 0.362152 0.958792
vt 0.365986 0.960380
vt 0.371503 0.948410
vt 0.354989 0.948410
vt 0.354989 0.960004
vt 0.371503 0.960004
vt 0.366203 0.954959
vt 0.365986 0.949537
vt 0.365986 0.960380
vt 0.371503 0.948410
vt 0.371503 0.951308
vt 0.354989 0.951308
vt 0.354989 0.948410
vt 0.371503 0.954207
vt 0.354989 0.954207
vt 0.371503 0.957106
vt 0.354989 0.957106
vt 0.371503 0.960004
vt 0.354989 0.960004
vt 0.362152 0.951125
vt 0.365986 0.949537
vt 0.366203 0.954959
vt 0.360565 0.954959
vt 0.362152 0.958792
vt 0.365986 0.960380
vt 0.354989 0.948410
vt 0.371503 0.948410
vt 0.371503 0.960004
vt 0.354989 0.960004
vt 0.365986 0.949537
vt 0.366203 0.954959
vt 0.365986 0.960380
vt 0.371503 0.948410
vt 0.354989 0.948410
vt 0.354989 0.951308
vt 0.371503 0.951308
vt 0.354989 0.954207
vt 0.371503 0.954207
vt 0.354989 0.957106
vt 0.371503 0.957106
vt 0.354989 0.960004
vt 0.371503 0.960004
vt 0.362152 0.951125
vt 0.366203 0.954959
vt 0.365986 0.949537
vt 0.360565 0.954959
vt 0.362152 0.958792
vt 0.365986 0.960380
vt 0.371503 0.948410
vt 0.354989 0.948410
vt 0.354989 0.960004
vt 0.371503 0.960004
vt 0.366203 0.954959
vt 0.365986 0.949537
vt 0.365986 0.960380
vt 0.371503 0.948410
vt 0.371503 0.951308
vt 0.354989 0.951308
vt 0.354989 0.948410
vt 0.371503 0.954207
vt 0.354989 0.954207
vt 0.371503 0.957106
vt 0.354989 0.957106
vt 0.371503 0.960004
vt 0.354989 0.960004
vt 0.362152 0.951125
vt 0.365986 0.949537
vt 0.366203 0.954959
vt 0.360565 0.954959
vt 0.362152 0.958792
vt 0.365986 0.960380
vt 0.354989 0.948410
vn 0.000000 -0.581001 0.813903
vn 0.000000 -0.581001 0.813903
vn 0.000000 -0.231485 0.972839
vn 0.000000 -0.231485 0.972839
vn 0.000000 1.000000 0.000000
vn 0.000000 1.000000 0.000000
vn 0.000000 1.000000 0.000000
vn 0.000000 1.000000 0.000000
vn 0.000000 0.000000 -1.000000
vn 0.000000 0.000000 -1.000000
vn 0.000000 0.000000 -1.000000
vn 0.000000 0.000000 -1.000000
vn 0.000000 -1.000000 0.000000
vn 0.000000 -1.000000 0.000000
vn 0.000000 -1.000000 0.000000
vn 0.000000 -1.000000 0.000000
vn 1.000000 0.000000 0.000000
vn 1.000000 0.000000 0.000000
vn 1.000000 0.000000 0.000000
vn 1.000000 0.000000 0.000000
vn -1.000000 0.000000 0.000000
vn -1.000000 0.000000 0.000000
vn -1.000000 0.000000 0.000000
vn -1.000000 0.000000 0.000000
vn 0.000000 0.231485 0.972839
vn 0.000000 0.231485 0.972839
vn 0.000000 0.581001 0.813903
vn 0.000000 0.581001 0.813903
vn -1.000000 0.000000 0.000000
vn -1.000000 0.000000 0.000000
vn -1.000000 0.000000 0.000000
vn -1.000000 0.000000 0.000000
vn 0.000000 0.000000 -1.000000
vn 0.000000 0.000000 -1.000000
vn 0.000000 0.000000 -1.000000
vn 0.000000 0.000000 -1.000000
vn 1.000000 0.000000 0.000000
vn 1.000000 0.000000 0.000000
vn 1.000000 0.000000 0.000000
vn 1.000000 0.000000 0.000000
vn 0.000000 -0.580994 0.813908
vn 0.000000 -0.580994 0.813908
vn 0.000000 -0.231485 0.972839
vn 0.000000 -0.231485 0.972839
vn 0.000000 1.000000 0.000000
vn 0.000000 1.000000 0.000000
vn 0.000000 1.000000 0.000000
vn 0.000000 1.000000 0.000000
vn 0.000000 0.000000 -1.000000
vn 0.000000 0.000000 -1.000000
vn 0.000000 0.000000 -1.000000
vn 0.000000 0.000000 -1.000000
vn 0.000000 -1.000000 0.000000
vn 0.000000 -1.000000 0.000000
vn 0.000000 -1.000000 0.000000
vn 0.000000 -1.000000 0.000000
vn 1.000000 0.000000 0.000000
vn 1.000000 0.000000 0.000000
vn 1.000000 0.000000 0.000000
vn 1.000000 0.000000 0.000000
vn -1.000000 0.000000 0.000000
vn -1.000000 0.000000 0.000000
vn -1.000000 0.000000 0.000000
vn -1.000000 0.000000 0.000000
vn 0.000000 0.231486 0.972838
vn 0.000000 0.231486 0.972838
vn 0.000000 0.581001 0.813903
vn 0.000000 0.581001 0.813903
vn -1.000000 0.000000 0.000000
vn -1.000000 0.000000 0.000000
vn -1.000000 0.000000 0.000000
vn -1.000000 0.000000 0.000000
vn 0.000000 0.000000 -1.000000
vn 0.000000 0.000000 -1.000000
vn 0.000000 0.000000 -1.000000
vn 0.000000 0.000000 -1.000000
vn 1.000000 0.000000 0.000000
vn 1.000000 0.000000 0.000000
vn 1.000000 0.000000 0.000000
vn 1.000000 0.000000 0.000000
vn 0.000000 -0.580994 0.813908
vn 0.000000 -0.580994 0.813908
vn 0.000000 -0.231485 0.972839
vn 0.000000 -0.231485 0.972839
vn 0.000000 1.000000 0.000000
vn 0.000000 1.000000 0.000000
vn 0.000000 1.000000 0.000000
vn 0.000000 1.000000 0.000000
vn 0.000000 0.000000 -1.000000
vn 0.000000 0.000000 -1.000000
vn 0.000000 0.000000 -1.000000
vn 0.000000 0.000000 -1.000000
vn 0.000000 -1.000000 0.000000
vn 0.000000 -1.000000 0.000000
vn 0.000000 -1.000000 0.000000
vn 0.000000 -1.000000 0.000000
vn 1.000000 0.000000 0.000000
vn 1.000000 0.000000 0.000000
vn 1.000000 0.000000 0.000000
vn 1.000000 0.000000 0.000000
vn -1.000000 0.000000 0.000000
vn -1.000000 0.000000 0.000000
vn -1.000000 0.000000 0.000000
vn -1.000000 0.000000 0.000000
vn 0.000000 0.231485 0.972839
vn 0.000000 0.231485 0.972839
vn 0.000000 0.580994 0.813908
vn 0.000000 0.580994 0.813908
vn -1.000000 0.000000 0.000000
vn -1.000000 0.000000 0.000000
vn -1.000000 0.000000 0.000000
vn -1.000000 0.000000 0.000000
vn 0.000000 0.000000 -1.000000
vn 0.000000 0.000000 -1.000000
vn 0.000000 0.000000 -1.000000
vn 0.000000 0.000000 -1.000000
vn 1.000000 0.000000 0.000000
vn 1.000000 0.000000 0.000000
vn 1.000000 0.000000 0.000000
vn 1.000000 0.000000 0.000000
vn -0.000008 -0.999751 0.022320
vn -0.000008 -0.999751 0.022320
vn -0.000002 -0.707107 0.707106
vn -0.000002 -0.707108 0.707106
vn 0.000000 0.000000 1.000000
vn 0.000000 0.000000 1.000000
vn -0.000004 0.707110 0.707103
vn -0.000004 0.707107 0.707107
vn -0.000000 0.999751 0.022320
vn -0.000000 0.999751 0.022320
vn -1.000000 -0.000000 0.000000
vn -1.000000 -0.000000 0.000000
vn -1.000000 0.000000 0.000000
vn -1.000000 -0.000000 0.000000
vn -1.000000 0.000000 0.000000
vn -1.000000 0.000000 0.000000
vn -0.000008 -1.000000 0.000000
vn -0.000008 -1.000000 0.000000
vn 0.000000 1.000000 0.000000
vn 0.000000 1.000000 0.000000
vn -1.000000 0.000000 0.000000
vn -1.000000 0.000000 0.000000
vn -1.000000 0.000000 0.000000
vn -1.000000 0.000000 0.000000
vn -1.000000 0.000000 0.000000
vn -1.000000 0.000000 0.000000
vn -1.000000 0.000000 0.000000
vn -1.000000 0.000000 0.000000
vn 0.000000 -0.999751 0.022320
vn 0.000000 -0.707108 0.707106
vn 0.000000 -0.707108 0.707106
vn 0.000000 -0.999751 0.022320
vn 0.000000 0.000000 1.000000
vn 0.000000 0.000000 1.000000
vn 0.000000 0.707108 0.707106
vn 0.000000 0.707108 0.707106
vn 0.000000 0.999751 0.022320
vn 0.000000 0.999751 0.022320
vn 1.000000 0.000000 0.000000
vn 1.000000 0.000000 0.000000
vn 1.000000 0.000000 0.000000
vn 1.000000 0.000000 0.000000
vn 1.000000 0.000000 0.000000
vn 1.000000 0.000000 0.000000
vn 0.000000 -1.000000 0.000000
vn 0.000000 -1.000000 0.000000
vn 0.000000 1.000000 0.000000
vn 0.000000 1.000000 0.000000
vn 1.000000 0.000000 0.000000
vn 1.000000 0.000000 0.000000
vn 1.000000 0.000000 0.000000
vn 1.000000 0.000000 0.000000
vn 1.000000 0.000000 0.000000
vn 1.000000 0.000000 0.000000
vn 1.000000 0.000000 0.000000
vn 1.000000 0.000000 0.000000
vn -0.000016 -0.999751 0.022320
vn -0.000016 -0.999751 0.022320
vn -0.000004 -0.707108 0.707105
vn -0.000004 -0.707108 0.707105
vn 0.000000 -0.000000 1.000000
vn 0.000000 0.000000 1.000000
vn -0.000004 0.707112 0.707101
vn -0.000004 0.707108 0.707105
vn -0.000000 0.999751 0.022319
vn -0.000000 0.999751 0.022319
vn -1.000000 -0.000000 0.000000
vn -1.000000 -0.000000 0.000000
vn -1.000000 0.000000 0.000000
vn -1.000000 -0.000000 0.000000
vn -1.000000 0.000000 0.000000
vn -1.000000 0.000000 0.000000
vn -0.000016 -1.000000 0.000000
vn -0.000016 -1.000000 0.000000
vn 0.000000 1.000000 0.000000
vn 0.000000 1.000000 0.000000
vn -1.000000 0.000000 0.000000
vn -1.000000 0.000000 0.000000
vn -1.000000 0.000000 0.000000
vn -1.000000 0.000000 0.000000
vn -1.000000 0.000000 0.000000
vn -1.000000 0.000000 0.000000
vn -1.000000 0.000000 0.000000
vn -1.000000 0.000000 0.000000
vn 0.000000 -0.999751 0.022320
vn 0.000000 -0.707107 0.707107
vn 0.000000 -0.707107 0.707107
vn 0.000000 -0.999751 0.022320
vn 0.000000 0.000000 1.000000
vn 0.000000 0.000000 1.000000
vn 0.000000 0.707108 0.707105
vn 0.000000 0.707108 0.707105
vn 0.000000 0.999751 0.022320
vn 0.000000 0.999751 0.022320
vn 1.000000 0.000000 0.000000
vn 1.000000 0.000000 0.000000
vn 1.000000 0.000000 0.000000
vn 1.000000 0.000000 0.000000
vn 1.000000 0.000000 0.000000
vn 1.000000 0.000000 0.000000
vn 0.000000 -1.000000 0.000000
vn 0.000000 -1.000000 0.000000
vn 0.000000 1.000000 0.000000
vn 0.000000 1.000000 0.000000
vn 1.000000 0.000000 0.000000
vn 1.000000 0.000000 0.000000
vn 1.000000 0.000000 0.000000
vn 1.000000 0.000000 0.000000
vn 1.000000 0.000000 0.000000
vn 1.000000 0.000000 0.000000
vn 1.000000 0.000000 0.000000
vn 1.000000 0.000000 0.000000
vn -0.000016 -0.999751 0.022319
vn -0.000016 -0.999751 0.022319
vn -0.000005 -0.707108 0.707105
vn -0.000005 -0.707108 0.707105
vn 0.000000 0.000000 1.000000
vn 0.000000 -0.000000 1.000000
vn -0.000004 0.707110 0.707103
vn -0.000004 0.707106 0.707107
vn -0.000000 0.999751 0.022320
vn -0.000000 0.999751 0.022320
vn -1.000000 -0.000000 0.000000
vn -1.000000 -0.000000 0.000000
vn -1.000000 0.000000 0.000000
vn -1.000000 -0.000000 0.000000
vn -1.000000 0.000000 0.000000
vn -1.000000 0.000000 0.000000
vn -0.000016 -1.000000 0.000000
vn -0.000016 -1.000000 0.000000
vn 0.000000 1.000000 0.000000
vn 0.000000 1.000000 0.000000
vn -1.000000 0.000000 0.000000
vn -1.000000 0.000000 0.000000
vn -1.000000 0.000000 0.000000
vn -1.000000 0.000000 0.000000
vn -1.000000 0.000000 0.000000
vn -1.000000 0.000000 0.000000
vn -1.000000 0.000000 0.000000
vn -1.000000 0.000000 0.000000
vn 0.000000 -0.999751 0.022320
vn 0.000000 -0.707107 0.707107
vn 0.000000 -0.707107 0.707107
vn 0.000000 -0.999751 0.022320
vn 0.000000 -0.000000 1.000000
vn 0.000000 -0.000000 1.000000
vn 0.000000 0.707108 0.707105
vn 0.000000 0.707108 0.707105
vn 0.000000 0.999751 0.022320
vn 0.000000 0.999751 0.022320
vn 1.000000 0.000000 0.000000
vn 1.000000 0.000000 0.000000
vn 1.000000 0.000000 0.000000
vn 1.000000 0.000000 0.000000
vn 1.000000 0.000000 0.000000
vn 1.000000 0.000000 0.000000
vn 0.000000 -1.000000 0.000000
vn 0.000000 -1.000000 0.000000
vn 0.000000 1.000000 0.000000
vn 0.000000 1.000000 0.000000
vn 1.000000 0.000000 0.000000
vn 1.000000 0.000000 0.000000
vn 1.000000 0.000000 0.000000
vn 1.000000 0.000000 0.000000
vn 1.000000 0.000000 0.000000
vn 1.000000 0.000000 0.000000
vn 1.000000 0.000000 0.000000
vn 1.000000 0.000000 0.000000
f 1/1/1 2/2/2 13/3/3 14/4/4
f 3/16/5 4/15/6 6/7/7 5/8/8
f 15/9/9 16/10/10 8/11/11 7/12/12
f 7/12/13 8/11/14 2/13/15 1/14/16
f 2/2/17 8/11/18 16/10/19 13/3/20
f 7/17/21 1/1/22 14/4/23 15/18/24
f 10/19/25 9/20/26 4/6/27 3/5/28
f 11/21/29 10/19/30 3/5/31 5/22/32
f 5/8/33 6/7/34 12/23/35 11/24/36
f 9/20/37 12/23/38 6/7/39 4/6/40
f 10/19/25 14/4/4 13/3/3 9/20/26
f 15/18/24 14/4/23 10/19/30 11/21/29
f 16/10/10 15/9/9 11/24/36 12/23/35
f 9/20/37 13/3/20 16/10/19 12/23/38
f 17/27/41 18/28/42 29/29/43 30/30/44
f 19/26/45 20/25/46 22/33/47 21/34/48
f 31/35/49 32/36/50 24/37/51 23/38/52
f 23/38/53 24/37/54 18/39/55 17/40/56
f 18/28/57 24/37/58 32/36/59 29/29/60
f 23/43/61 17/27/62 30/30/63 31/44/64
f 26/45/65 25/46/66 20/32/67 19/31/68
f 27/47/69 26/45/70 19/31/71 21/48/72
f 21/34/73 22/33/74 28/49/75 27/50/76
f 25/46/77 28/49/78 22/33/79 20/32/80
f 26/45/65 30/30/44 29/29/43 25/46/66
f 31/44/64 30/30/63 26/45/70 27/47/69
f 32/36/50 31/35/49 27/50/76 28/49/75
f 25/46/77 29/29/60 32/36/59 28/49/78
f 33/53/81 34/54/82 45/55/83 46/56/84
f 35/42/85 36/41/86 38/59/87 37/60/88
f 47/61/89 48/62/90 40/63/91 39/64/92
f 39/64/93 40/63/94 34/65/95 33/66/96
f 34/54/97 40/63/98 48/62/99 45/55/100
f 39/69/101 33/53/102 46/56/103 47/70/104
f 42/71/105 41/72/106 36/58/107 35/57/108
f 43/73/109 42/71/110 35/57/111 37/74/112
f 37/60/113 38/59/114 44/75/115 43/76/116
f 41/72/117 44/75/118 38/59/119 36/58/120
f 42/71/105 46/56/84 45/55/83 41/72/106
f 47/70/104 46/56/103 42/71/110 43/73/109
f 48/62/90 47/61/89 43/76/116 44/75/115
f 41/72/117 45/55/100 48/62/99 44/75/118
f 49/79/121 54/80/122 55/81/123 50/82/124
f 50/82/124 55/81/123 56/83/125 51/84/126
f 51/84/126 56/83/125 57/85/127 52/86/128
f 52/86/128 57/85/127 58/87/129 53/88/130
f 50/89/131 59/90/132 49/91/133
f 51/92/134 59/90/132 50/89/131
f 52/93/135 59/90/132 51/92/134
f 53/94/136 59/90/132 52/93/135
f 49/79/121 60/95/137 61/96/138 54/80/122
f 58/87/129 63/97/139 62/98/140 53/88/130
f 59/90/141 64/99/142 60/100/143 49/91/144
f 53/94/145 62/101/146 64/99/147 59/90/148
f 65/102/149 66/103/150 71/104/151 70/105/152
f 66/103/150 67/106/153 72/107/154 71/104/151
f 67/106/153 68/108/155 73/109/156 72/107/154
f 68/108/155 69/110/157 74/111/158 73/109/156
f 66/112/159 65/113/160 75/114/161
f 67/115/162 66/112/159 75/114/161
f 68/116/163 67/115/162 75/114/161
f 69/117/164 68/116/163 75/114/161
f 65/102/149 70/105/152 77/118/165 76/119/166
f 74/111/158 69/110/157 78/120/167 79/121/168
f 75/114/169 65/113/170 76/122/171 80/123/172
f 69/117/173 75/114/174 80/123/175 78/124/176
f 81/125/177 86/126/178 87/127/179 82/128/180
f 82/128/180 87/127/179 88/129/181 83/130/182
f 83/130/182 88/129/181 89/131/183 84/132/184
f 84/132/184 89/131/183 90/133/185 85/134/186
f 82/135/187 91/136/188 81/137/189
f 83/138/190 91/136/188 82/135/187
f 84/139/191 91/136/188 83/138/190
f 85/140/192 91/136/188 84/139/191
f 81/125/177 92/141/193 93/142/194 86/126/178
f 90/133/185 95/143/195 94/144/196 85/134/186
f 91/136/197 96/145/198 92/146/199 81/137/200
f 85/140/201 94/147/202 96/145/203 91/136/204
f 97/148/205 98/149/206 103/150/207 102/151/208
f 98/149/206 99/152/209 104/153/210 103/150/207
f 99/152/209 100/154/211 105/155/212 104/153/210
f 100/154/211 101/156/213 106/157/214 105/155/212
f 98/158/215 97/159/216 107/160/217
f 99/161/218 98/158/215 107/160/217
f 100/162/219 99/161/218 107/160/217
f 101/163/220 100/162/219 107/160/217
f 97/148/205 102/151/208 109/164/221 108/165/222
f 106/157/214 101/156/213 110/166/223 111/167/224
f 107/160/225 97/159/226 108/168/227 112/169/228
f 101/163/229 107/160/230 112/169/231 110/170/232
f 113/171/233 118/172/234 119/173/235 114/174/236
f 114/174/236 119/173/235 120/175/237 115/176/238
f 115/176/238 120/175/237 121/177/239 116/178/240
f 116/178/240 121/177/239 122/179/241 117/180/242
f 114/181/243 123/182/244 113/183/245
f 115/184/246 123/182/244 114/181/243
f 116/185/247 123/182/244 115/184/246
f 117/186/248 123/182/244 116/185/247
f 113/171/233 124/187/249 125/188/250 118/172/234
f 122/179/241 127/189/251 126/190/252 117/180/242
f 123/182/253 128/191/254 124/192/255 113/183/256
f 117/186/257 126/193/258 128/191/259 123/182/260
f 129/194/261 130/195/262 135/196/263 134/197/264
f 130/195/262 131/198/265 136/199/266 135/196/263
f 131/198/265 132/200/267 137/201/268 136/199/266
f 132/200/267 133/202/269 138/203/270 137/201/268
f 130/204/271 129/205/272 139/206/273
f 131/207/274 130/204/271 139/206/273
f 132/208/275 131/207/274 139/206/273
f 133/209/276 132/208/275 139/206/273
f 129/194/261 134/197/264 141/210/277 140/78/278
f 138/203/270 133/202/269 142/77/279 143/68/280
f 139/206/281 129/205/282 140/67/283 144/52/284
f 133/209/285 139/206/286 144/52/287 142/51/288
