# This file uses meters as units for non-parametric coordinates.

v -36.578007 242.231608 83.570817
v -32.340641 242.231608 84.948777
v -36.578007 246.687388 83.570817
v -32.340641 246.687388 84.948777
v -35.945988 246.687388 81.627320
v -31.708639 246.687388 83.005281
v -35.945988 242.231608 81.627320
v -31.708639 242.231608 83.005281
v -37.956593 240.037623 86.135133
v -38.157993 240.348337 85.749757
v -38.119373 259.851435 85.630998
v -37.920017 259.852137 86.022630
v -32.095753 240.348337 87.721162
v -32.485294 240.037623 87.914369
v -32.057133 259.851435 87.602387
v -32.448704 259.852137 87.801866
v -36.438587 307.593500 81.467118
v -36.830143 305.912714 81.666474
v -36.830143 303.516108 81.666474
v -36.438587 303.487849 81.467118
v -30.767889 305.912714 83.637879
v -30.967291 307.593500 83.246339
v -30.967291 303.487849 83.246339
v -30.767889 303.516108 83.637879
v -37.299427 292.443049 83.109559
v -36.908451 292.404658 82.911958
v -31.437140 292.404658 84.691178
v -31.237173 292.443049 85.080964
v -37.070606 240.037623 83.410630
v -37.465900 240.348337 83.621491
v -31.403646 240.348337 85.592897
v -31.599310 240.037623 85.189851
v -37.471592 294.053889 84.643708
v -37.671894 294.002680 84.254975
v -37.501682 273.844935 83.731507
v -37.110157 273.833185 83.532228
v -31.638845 273.833185 85.311463
v -31.439428 273.844935 85.702912
v -31.609655 294.002680 86.226365
v -32.000294 294.053889 86.422944
v -38.004261 274.449061 85.277009
v -37.804783 274.464655 85.668290
v -37.110157 259.809931 83.532228
v -37.501728 259.805506 83.731675
v -31.439489 259.805506 85.703080
v -31.638845 259.809931 85.311463
v -31.942022 274.449061 87.248414
v -32.333469 274.464655 87.447526
v -32.335117 308.337061 82.801545
v -32.335117 303.487849 82.801545
v -32.804966 292.404658 84.246369
v -33.006672 273.833185 84.866654
v -33.006672 259.809931 84.866654
v -32.967136 239.874735 84.745057
v -33.853123 239.874735 87.469544
v -33.816532 259.852137 87.357057
v -33.701298 274.464655 87.002717
v -33.368122 294.053889 85.978120
v -35.070759 308.337061 81.911927
v -35.070759 303.487849 81.911927
v -35.540607 292.404658 83.356752
v -35.742329 273.833185 83.977037
v -35.742329 259.809931 83.977037
v -35.702778 239.874735 83.855439
v -36.588764 239.874735 86.579927
v -36.552189 259.852137 86.467439
v -36.436954 274.464655 86.113099
v -36.103764 294.053889 85.088502
vt 0.558421 0.099584
vt 0.558421 0.090067
vt 0.573946 0.090067
vt 0.573946 0.099584
vt 0.604997 0.089947
vt 0.604997 0.099704
vt 0.589471 0.099584
vt 0.589471 0.090066
vt 0.540193 0.109335
vt 0.535998 0.074117
vt 0.540686 0.106707
vt 0.561210 0.104684
vt 0.542895 0.090187
vt 0.540271 0.100878
vt 0.534253 0.081052
vt 0.542895 0.099465
vt 0.540673 0.081074
vt 0.561212 0.084538
vt 0.561196 0.085388
vt 0.540306 0.083101
vt 0.540844 0.075717
vt 0.561316 0.079748
vt 0.576606 0.086463
vt 0.576615 0.086497
vt 0.540537 0.075038
vt 0.576095 0.082456
vt 0.597306 0.087517
vt 0.597271 0.087663
vt 0.595722 0.084479
vt 0.611674 0.087224
vt 0.610017 0.083445
vt 0.607494 0.082983
vt 0.540294 0.098971
vt 0.561212 0.099064
vt 0.561199 0.099970
vt 0.540614 0.100646
vt 0.561212 0.095611
vt 0.540122 0.095518
vt 0.576639 0.099355
vt 0.576612 0.099908
vt 0.576639 0.095902
vt 0.561212 0.088705
vt 0.540122 0.088612
vt 0.597268 0.100740
vt 0.597319 0.100196
vt 0.597319 0.096743
vt 0.576639 0.088995
vt 0.561239 0.109325
vt 0.576033 0.105105
vt 0.609886 0.104534
vt 0.611613 0.102804
vt 0.612398 0.099351
vt 0.597319 0.089837
vt 0.576044 0.109248
vt 0.607279 0.099351
vt 0.607279 0.102804
vt 0.612398 0.092444
vt 0.607349 0.107390
vt 0.607279 0.092444
vt 0.607368 0.105452
vt 0.595578 0.091258
vt 0.595578 0.098164
vt 0.607281 0.088846
vt 0.575972 0.097655
vt 0.575972 0.090749
vt 0.595577 0.087883
vt 0.575972 0.087296
vt 0.561168 0.097655
vt 0.561167 0.090749
vt 0.595619 0.086818
vt 0.575984 0.086307
vt 0.561168 0.087296
vt 0.561163 0.086307
vt 0.540294 0.087396
vt 0.540122 0.090849
vt 0.540622 0.086398
vt 0.609809 0.090109
vt 0.607284 0.089693
vt 0.595644 0.104749
vt 0.595649 0.108637
vt 0.595588 0.088953
vt 0.534484 0.073840
vt 0.611721 0.106598
vt 0.535767 0.081329
vt 0.607404 0.105976
vt 0.561246 0.116232
vt 0.539026 0.074672
vt 0.595668 0.103328
vt 0.540200 0.116241
vt 0.538795 0.081884
vt 0.576022 0.103426
vt 0.540368 0.106816
vt 0.561233 0.105772
vn 0.000000 1.000000 0.000003
vn 0.000000 1.000000 0.000003
vn 0.000000 1.000000 0.000003
vn 0.000000 1.000000 0.000003
vn 0.000000 -1.000000 0.000007
vn 0.000000 -1.000000 0.000007
vn 0.000000 -1.000000 0.000007
vn 0.000000 -1.000000 0.000007
vn 0.950981 0.000000 0.309249
vn 0.950981 0.000000 0.309249
vn 0.950981 0.000000 0.309249
vn 0.950981 0.000000 0.309249
vn -0.950979 0.000000 -0.309255
vn -0.950979 0.000000 -0.309255
vn -0.950979 0.000000 -0.309255
vn -0.950979 0.000000 -0.309255
vn -0.672456 -0.707097 -0.218673
vn -0.672456 -0.707097 -0.218673
vn -0.672456 -0.707097 -0.218673
vn -0.672456 -0.707097 -0.218673
vn -0.888038 0.004402 0.459749
vn -0.888038 0.004402 0.459749
vn -0.889341 0.010192 0.457130
vn -0.889359 0.010274 0.457093
vn -0.890836 0.029994 0.453335
vn -0.890838 0.029903 0.453337
vn 0.672452 -0.707096 0.218686
vn 0.672452 -0.707096 0.218686
vn 0.672452 -0.707096 0.218686
vn 0.672452 -0.707096 0.218686
vn 0.447793 0.004403 0.894127
vn 0.447793 0.004403 0.894126
vn 0.450412 0.010274 0.892762
vn 0.450376 0.010192 0.892781
vn 0.453810 0.029901 0.890597
vn 0.453810 0.029993 0.890594
vn -0.766584 0.195064 0.611800
vn -0.766584 0.195064 0.611800
vn -0.853021 0.094898 0.513177
vn -0.852018 0.096254 0.514588
vn -0.453715 0.000000 -0.891147
vn -0.453715 0.000000 -0.891147
vn -0.456468 -0.074736 -0.886596
vn -0.456454 -0.074055 -0.886660
vn -0.454961 -0.051034 -0.889048
vn -0.455019 -0.052177 -0.888952
vn 0.260087 0.195060 0.945678
vn 0.260087 0.195060 0.945678
vn 0.386382 0.096253 0.917303
vn 0.388023 0.094896 0.916751
vn 0.891097 0.000000 -0.453813
vn 0.891097 0.000000 -0.453813
vn 0.890679 -0.074054 -0.448561
vn 0.890652 -0.074735 -0.448501
vn 0.890861 -0.052176 -0.451269
vn 0.890871 -0.051034 -0.451381
vn -0.453637 -0.014051 -0.891076
vn -0.453635 -0.014273 -0.891074
vn 0.890981 -0.014274 -0.453816
vn 0.890984 -0.014052 -0.453816
vn -0.460984 0.004357 -0.887398
vn -0.460984 0.004357 -0.887398
vn -0.458014 0.002558 -0.888941
vn -0.457979 0.002536 -0.888960
vn 0.894784 0.004357 -0.446478
vn 0.894784 0.004357 -0.446478
vn 0.893261 0.002537 -0.449531
vn 0.893279 0.002558 -0.449496
vn -0.308914 0.005945 0.951071
vn -0.309142 0.005929 0.950997
vn -0.309157 0.014202 0.950905
vn -0.309029 0.014224 0.950946
vn 0.309250 0.000000 -0.950981
vn 0.309253 0.000000 -0.950980
vn 0.307833 -0.095666 -0.946619
vn 0.307779 -0.097176 -0.946483
vn 0.309445 0.003774 -0.950910
vn 0.309317 0.003768 -0.950952
vn 0.309353 0.006422 -0.950926
vn 0.309579 0.006440 -0.950852
vn -0.107013 -0.993649 -0.034800
vn -0.035873 -0.999288 -0.011667
vn -0.035874 -0.999288 -0.011667
vn -0.107013 -0.993649 -0.034800
vn 0.950979 0.000000 0.309254
vn 0.950979 0.000000 0.309254
vn 0.950979 0.000000 0.309255
vn 0.950979 0.000000 0.309255
vn -0.950980 -0.000000 -0.309252
vn -0.950980 -0.000000 -0.309252
vn -0.950980 -0.000000 -0.309251
vn -0.950980 -0.000000 -0.309251
vn -0.950983 0.000001 -0.309243
vn -0.950983 0.000001 -0.309244
vn -0.950982 0.000001 -0.309246
vn -0.950982 0.000001 -0.309246
vn 0.308427 -0.073033 -0.948440
vn 0.308425 -0.073033 -0.948441
vn 0.950979 0.000000 0.309254
vn 0.950979 0.000000 0.309254
vn 0.950979 0.000000 0.309254
vn 0.950979 0.000000 0.309254
vn -0.330779 0.130696 0.934614
vn -0.314663 0.129790 0.940288
vn -0.315663 0.229167 0.920782
vn -0.357437 0.233056 0.904391
vn -0.950982 0.000000 -0.309246
vn -0.950982 0.000000 -0.309247
vn 0.309194 -0.020007 -0.950788
vn 0.309192 -0.020007 -0.950789
vn 0.950979 -0.000000 0.309255
vn 0.950979 -0.000000 0.309255
vn -0.308972 0.042358 0.950128
vn -0.308968 0.042358 0.950129
vn 0.309251 0.000000 -0.950980
vn 0.309242 0.000000 -0.950984
vn 0.307778 -0.097176 -0.946483
vn 0.307832 -0.095666 -0.946619
vn 0.308425 -0.073033 -0.948441
vn 0.308417 -0.073033 -0.948443
vn 0.309189 -0.020007 -0.950790
vn 0.309186 -0.020007 -0.950791
vn 0.309184 0.003768 -0.950995
vn 0.309046 0.003774 -0.951040
vn 0.309138 0.006422 -0.950996
vn 0.308897 0.006440 -0.951074
vn 0.035874 -0.999288 0.011662
vn 0.035874 -0.999288 0.011662
vn 0.107012 -0.993649 0.034792
vn 0.107012 -0.993649 0.034792
vn -0.309284 0.014202 0.950864
vn -0.309352 0.005929 0.950929
vn -0.309577 0.005946 0.950856
vn -0.309411 0.014224 0.950822
vn -0.308976 0.042358 0.950126
vn -0.308982 0.042358 0.950124
vn -0.298587 0.129790 0.945516
vn -0.282216 0.130695 0.950407
vn -0.286307 0.229166 0.930329
vn -0.242875 0.233055 0.941646
f 3/1/1 4/4/2 6/3/3 5/2/4
f 7/5/5 8/8/6 2/7/7 1/6/8
f 2/7/9 8/8/10 6/3/11 4/4/12
f 7/13/13 1/16/14 3/1/15 5/2/16
f 9/20/17 10/17/18 30/21/19 29/25/20
f 10/17/21 9/20/22 12/19/23 11/18/24
f 11/18/24 12/19/23 42/24/25 41/23/26
f 13/36/27 14/14/28 32/92/29 31/11/30
f 14/33/31 13/36/32 15/35/33 16/34/34
f 16/34/34 15/35/33 47/40/35 48/39/36
f 17/30/37 18/31/38 34/28/39 33/27/40
f 18/77/41 17/30/42 20/63/43 19/78/44
f 19/78/44 20/63/43 26/66/45 25/81/46
f 21/50/47 22/51/48 40/45/49 39/44/50
f 22/83/51 21/50/52 24/85/53 23/60/54
f 23/60/54 24/85/53 28/88/55 27/79/56
f 25/70/46 26/66/45 36/67/57 35/71/58
f 27/79/56 28/88/55 38/91/59 37/49/60
f 29/74/61 30/76/62 44/73/63 43/72/64
f 31/11/65 32/92/66 46/93/67 45/12/68
f 33/27/40 34/28/39 41/23/26 42/24/25
f 35/71/58 36/67/57 43/72/64 44/73/63
f 37/49/60 38/91/59 45/12/68 46/93/67
f 39/44/50 40/45/49 48/39/36 47/40/35
f 9/20/69 65/43/70 66/42/71 12/19/72
f 17/30/73 59/57/74 60/59/75 20/63/76
f 43/72/77 63/69/78 64/75/79 29/74/80
f 29/25/81 64/87/82 65/90/83 9/20/84
f 13/36/85 31/11/86 45/12/87 15/35/88
f 30/21/89 10/17/90 11/18/91 44/22/92
f 25/29/93 34/28/94 18/31/95 19/32/96
f 20/63/76 60/59/75 61/61/97 26/66/98
f 39/44/99 28/88/100 24/85/101 21/50/102
f 33/27/103 68/53/104 59/57/105 17/30/106
f 44/22/92 11/18/91 41/23/107 35/26/108
f 36/67/109 62/65/110 63/69/78 43/72/77
f 15/35/88 45/12/87 38/91/111 47/40/112
f 12/19/72 66/42/71 67/47/113 42/24/114
f 35/26/108 41/23/107 34/28/94 25/29/93
f 26/66/98 61/61/97 62/65/110 36/67/109
f 47/40/112 38/91/111 28/88/100 39/44/99
f 42/24/114 67/47/113 68/53/104 33/27/103
f 49/52/115 22/51/116 23/56/117 50/55/118
f 51/80/119 50/58/118 23/60/117 27/79/120
f 52/54/121 51/80/119 27/79/120 37/49/122
f 53/48/123 52/54/121 37/49/122 46/93/124
f 54/9/125 53/48/123 46/93/124 32/92/126
f 55/84/127 54/10/128 32/82/129 14/15/130
f 56/37/131 55/38/132 14/33/133 16/34/134
f 57/41/135 56/37/131 16/34/134 48/39/136
f 58/46/137 57/41/135 48/39/136 40/45/138
f 49/52/139 58/46/137 40/45/138 22/51/140
f 60/59/75 59/57/74 49/52/115 50/55/118
f 61/61/97 60/59/75 50/55/118 51/62/119
f 52/64/121 62/65/110 61/61/97 51/62/119
f 53/68/123 63/69/78 62/65/110 52/64/121
f 64/89/79 63/86/78 53/48/123 54/9/125
f 55/84/127 65/90/83 64/87/82 54/10/128
f 66/42/71 65/43/70 55/38/132 56/37/131
f 67/47/113 66/42/71 56/37/131 57/41/135
f 58/46/137 68/53/104 67/47/113 57/41/135
f 49/52/139 59/57/105 68/53/104 58/46/137
