# This file uses meters as units for non-parametric coordinates.

v -46.204117 26.461197 4.416002
v 46.204117 26.461197 4.416002
v -52.141338 2.781387 68.337143
v -51.100773 3.821960 69.377716
v 52.141338 2.781387 68.337143
v 51.100773 3.821960 69.377716
v -46.204117 26.461197 68.728165
v -46.853668 25.811689 69.377716
v 46.204117 26.461197 68.728165
v 46.853668 25.811689 69.377716
v -50.433075 4.489655 -0.000004
v -52.141338 2.781387 1.708252
v 50.433075 4.489655 -0.000004
v 52.141338 2.781387 1.708252
v -52.141338 319.836273 68.337143
v -51.376293 320.601318 68.337143
v -50.163788 319.560760 69.377686
v -51.100773 318.623779 69.377686
v 51.376293 320.601318 68.337143
v 52.141338 319.836273 68.337143
v 51.100773 318.623779 69.377686
v 50.163788 319.560760 69.377686
v -45.439075 314.329254 68.728149
v -46.204117 313.564209 68.728149
v -46.853668 314.041840 69.377686
v -45.916687 314.978821 69.377686
v 46.204117 313.564209 68.728149
v 45.439075 314.329254 68.728149
v 45.916687 314.978821 69.377686
v 46.853668 314.041840 69.377686
v 45.439075 314.329254 4.415995
v 46.204117 313.564209 4.415995
v -46.204117 313.564209 4.415995
v -45.439075 314.329254 4.415995
v -50.433075 318.128021 -0.000019
v -49.668034 318.893066 -0.000019
v -51.376293 320.601318 1.708225
v -52.141338 319.836273 1.708225
v 50.433075 318.128021 -0.000019
v 49.668034 318.893066 -0.000019
v 52.141338 319.836273 1.708225
v 51.376293 320.601318 1.708225
v -46.853668 233.017517 69.377716
v 50.000000 233.017517 69.377716
v -46.853668 240.380127 69.377716
v 50.000000 240.380127 69.377716
v -46.853668 240.380127 68.728165
v 50.000000 240.380127 68.728165
v -46.853668 233.017517 68.728165
v 50.000000 233.017517 68.728165
vt 0.417169 0.830683
vt 0.417169 0.827269
vt 0.417133 0.827297
vt 0.417133 0.830655
vt 0.430769 0.830683
vt 0.430769 0.827269
vt 0.427992 0.830683
vt 0.427992 0.827269
vt 0.413884 0.827088
vt 0.416930 0.825124
vt 0.427964 0.830707
vt 0.427964 0.827245
vt 0.426340 0.825124
vt 0.431841 0.825124
vt 0.430800 0.824923
vt 0.425181 0.824923
vt 0.426395 0.825173
vt 0.431891 0.825173
vt 0.414048 0.830693
vt 0.417147 0.824923
vt 0.416895 0.825124
vt 0.417183 0.824923
vt 0.416821 0.825174
vt 0.416872 0.825173
vt 0.413839 0.827122
vt 0.414056 0.827279
vt 0.430769 0.824892
vt 0.417173 0.824892
vt 0.425147 0.824892
vt 0.417213 0.824892
vt 0.413839 0.830830
vt 0.414056 0.830673
vt 0.413790 0.830874
vt 0.413790 0.827077
vt 0.414087 0.827297
vt 0.414087 0.830652
vt 0.426395 0.828330
vt 0.431891 0.828330
vt 0.411933 0.828330
vt 0.431940 0.825124
vt 0.426485 0.828411
vt 0.431972 0.828410
vt 0.416953 0.833188
vt 0.416917 0.833152
vt 0.416917 0.828447
vt 0.416953 0.828410
vt 0.431810 0.828410
vt 0.431810 0.833188
vt 0.416872 0.833269
vt 0.416836 0.833233
vt 0.416836 0.828366
vt 0.416872 0.828330
vt 0.416819 0.825173
vt 0.431891 0.833269
vt 0.414087 0.830686
vt 0.427014 0.827088
vt 0.411969 0.828330
vt 0.416836 0.828330
vt 0.417129 0.824892
vt 0.417133 0.827269
vt 0.414050 0.830644
vt 0.417182 0.824931
vt 0.416772 0.825138
vt 0.416885 0.825080
vt 0.426450 0.825124
vt 0.417133 0.830683
vt 0.417169 0.833060
vt 0.430769 0.833060
vt 0.416819 0.828329
vt 0.411933 0.825173
vt 0.411969 0.825173
vt 0.416836 0.825173
vt 0.427014 0.830864
vt 0.413827 0.827049
vt 0.416836 0.825080
vt 0.417124 0.824879
vt 0.417103 0.824879
vt 0.417119 0.824929
vt 0.413755 0.824888
vt 0.429726 0.824888
vt 0.429726 0.832829
vt 0.413755 0.832829
vt 0.429726 0.824888
vt 0.413755 0.824888
vt 0.413755 0.832829
vt 0.429726 0.832829
vn 0.000000 0.000000 1.000000
vn 0.000000 0.000000 1.000000
vn 0.000000 0.000000 1.000000
vn 0.000000 0.000000 1.000000
vn 0.000000 -0.707107 0.707107
vn 0.000000 -0.707107 0.707107
vn 0.000000 -0.707107 0.707107
vn 0.000000 -0.707107 0.707107
vn 0.000000 0.707130 0.707084
vn 0.000000 0.707130 0.707084
vn 0.000000 0.707130 0.707084
vn 0.000000 0.707130 0.707084
vn 0.000000 1.000000 0.000000
vn 0.000000 1.000000 0.000000
vn 0.000000 1.000000 0.000000
vn 0.000000 1.000000 0.000000
vn -0.000000 0.000000 1.000000
vn 0.000000 0.000000 1.000000
vn 0.000001 0.000000 1.000000
vn -0.000001 0.000000 1.000000
vn 0.000000 -0.707105 -0.707109
vn 0.000000 -0.707104 -0.707109
vn 0.000000 -0.707104 -0.707109
vn 0.000000 -0.707105 -0.707109
vn 0.000000 -1.000000 0.000000
vn 0.000000 -1.000000 0.000000
vn 0.000000 -1.000000 0.000000
vn 0.000000 -1.000000 0.000000
vn 0.000000 -0.000000 -1.000000
vn 0.000000 -0.000000 -1.000000
vn 0.000000 -0.000000 -1.000000
vn 0.000000 -0.000000 -1.000000
vn 0.000000 -0.000000 -1.000000
vn 0.000000 -0.000000 -1.000000
vn -0.707107 0.707107 0.000000
vn -0.707107 0.707107 0.000000
vn -0.707107 0.707107 0.000000
vn -0.707107 0.707107 0.000000
vn -0.386668 0.386673 0.837241
vn -0.386668 0.386673 0.837241
vn -0.386668 0.386673 0.837241
vn -0.386668 0.386673 0.837241
vn 0.000000 0.000000 1.000000
vn -0.000001 0.000000 1.000000
vn -0.000001 0.000000 1.000000
vn 0.000000 0.000000 1.000000
vn 0.707107 0.707107 0.000000
vn 0.707107 0.707107 0.000000
vn 0.707107 0.707107 0.000000
vn 0.707107 0.707107 0.000000
vn 0.386667 0.386668 0.837243
vn 0.386667 0.386668 0.837243
vn 0.386667 0.386668 0.837243
vn 0.386667 0.386668 0.837243
vn 0.000001 0.000000 1.000000
vn 0.000000 0.000000 1.000000
vn 0.000000 0.000000 1.000000
vn 0.000001 0.000000 1.000000
vn 0.707109 -0.707105 0.000000
vn 0.707109 -0.707105 0.000000
vn 0.707109 -0.707105 0.000000
vn 0.707109 -0.707105 0.000000
vn 0.446702 -0.446706 0.775185
vn 0.446702 -0.446706 0.775185
vn 0.446702 -0.446706 0.775185
vn 0.446702 -0.446706 0.775185
vn -0.707109 -0.707105 0.000000
vn -0.707109 -0.707105 0.000000
vn -0.707109 -0.707105 0.000000
vn -0.707109 -0.707105 0.000000
vn -0.446704 -0.446706 0.775184
vn -0.446704 -0.446706 0.775184
vn -0.446704 -0.446706 0.775184
vn -0.446704 -0.446706 0.775184
vn -0.408248 0.408248 -0.816497
vn -0.706489 0.001229 -0.707723
vn -0.705698 0.002804 -0.708507
vn -0.408248 0.408248 -0.816497
vn 0.706489 0.001229 -0.707723
vn 0.408248 0.408248 -0.816497
vn 0.408248 0.408248 -0.816497
vn 0.705698 0.002804 -0.708507
vn -0.707105 0.000000 0.707109
vn -0.707105 0.000000 0.707109
vn -0.707105 0.000000 0.707109
vn -0.707105 0.000000 0.707109
vn 0.707105 0.000000 0.707109
vn 0.707105 0.000000 0.707109
vn 0.707105 0.000000 0.707109
vn 0.707105 0.000000 0.707109
vn 0.000000 0.707109 0.707105
vn 0.000000 0.707109 0.707105
vn 0.000000 0.707109 0.707105
vn 0.000000 0.707109 0.707105
vn 0.707102 0.000000 0.707112
vn 0.707102 0.000000 0.707112
vn 0.707102 0.000000 0.707112
vn 0.707102 0.000000 0.707112
vn -0.707102 0.000000 0.707112
vn -0.707102 0.000000 0.707112
vn -0.707102 0.000000 0.707112
vn -0.707102 0.000000 0.707112
vn 0.000000 -0.707101 0.707113
vn 0.000000 -0.707101 0.707113
vn 0.000000 -0.707101 0.707113
vn 0.000000 -0.707101 0.707113
vn -1.000000 0.000000 0.000000
vn -1.000000 0.000000 0.000000
vn -1.000000 0.000000 0.000000
vn -1.000000 0.000000 0.000000
vn 0.000000 -1.000000 0.000000
vn 0.000000 -1.000000 0.000000
vn 0.000000 -1.000000 0.000000
vn 0.000000 -1.000000 0.000000
vn 1.000000 0.000000 0.000000
vn 1.000000 0.000000 0.000000
vn 1.000000 0.000000 0.000000
vn 1.000000 0.000000 0.000000
vn 0.000000 0.707109 -0.707105
vn 0.000000 0.707109 -0.707105
vn 0.000000 0.707109 -0.707105
vn 0.000000 0.707109 -0.707105
vn -0.707104 -0.000000 -0.707110
vn -0.707104 -0.000000 -0.707110
vn 0.707104 -0.000000 -0.707110
vn 0.707104 -0.000000 -0.707110
vn 0.000000 1.000000 0.000000
vn 0.000000 1.000000 0.000000
vn 0.000000 1.000000 0.000000
vn 0.000000 1.000000 0.000000
vn 1.000000 0.000000 0.000000
vn 1.000000 0.000000 0.000000
vn 1.000000 0.000000 0.000000
vn 1.000000 0.000000 0.000000
vn -1.000000 -0.000000 0.000000
vn -1.000000 -0.000000 0.000000
vn -1.000000 -0.000000 0.000000
vn -1.000000 -0.000000 0.000000
vn 0.000000 0.000000 1.000000
vn 0.000000 0.000000 1.000000
vn 0.000000 0.000000 1.000000
vn 0.000000 0.000000 1.000000
vn 0.000000 0.000000 1.000000
vn 0.000000 0.000000 1.000000
vn 0.000000 1.000000 0.000000
vn 0.000000 1.000000 0.000000
vn 0.000000 1.000000 0.000000
vn 0.000000 1.000000 0.000000
vn 0.000000 -1.000000 0.000000
vn 0.000000 -1.000000 0.000000
vn 0.000000 -1.000000 0.000000
vn 0.000000 -1.000000 0.000000
f 33/1/1 32/2/2 31/3/3 34/4/4
f 4/65/5 3/17/6 5/18/7 6/40/8
f 7/7/9 8/11/10 10/12/11 9/8/12
f 7/7/13 9/8/14 2/6/15 1/5/16
f 4/73/17 6/56/18 10/12/19 8/11/20
f 12/37/21 11/41/22 13/42/23 14/38/24
f 12/37/25 14/38/26 5/18/27 3/17/28
f 35/43/29 36/44/30 40/45/31 39/46/32 13/47/33 11/48/34
f 15/70/35 16/71/36 37/57/37 38/39/38
f 16/63/39 15/23/40 18/21/41 17/75/42
f 17/75/43 18/21/44 25/22/45 26/76/46
f 19/72/47 20/24/48 41/52/49 42/58/50
f 20/74/51 19/34/52 22/25/53 21/9/54
f 21/10/55 22/64/56 29/77/57 30/20/58
f 23/36/59 24/55/60 33/66/61 34/4/62
f 24/55/63 23/36/64 26/61/65 25/19/66
f 27/28/67 28/59/68 31/60/69 32/2/70
f 28/59/71 27/28/72 30/62/73 29/78/74
f 36/44/75 35/43/76 38/49/77 37/50/78
f 39/46/79 40/45/80 42/51/81 41/52/82
f 3/17/83 4/13/84 18/21/85 15/53/86
f 6/14/87 5/18/88 20/24/89 21/10/90
f 16/33/91 17/31/92 22/25/93 19/34/94
f 8/16/95 7/29/96 24/30/97 25/22/98
f 9/27/99 10/15/100 30/20/101 27/28/102
f 28/35/103 29/26/104 26/32/105 23/36/106
f 9/27/107 27/28/108 32/2/109 2/6/110
f 28/35/111 23/36/112 34/4/113 31/3/114
f 24/67/115 7/68/116 1/5/117 33/1/118
f 6/14/18 21/10/55 30/20/58 10/15/19
f 22/25/56 17/31/43 26/32/46 29/26/57
f 18/21/44 4/13/17 8/16/20 25/22/45
f 36/44/119 37/50/120 42/51/121 40/45/122
f 38/49/77 35/43/76 11/48/123 12/54/124
f 39/46/79 41/52/82 14/38/125 13/47/126
f 16/71/127 19/72/128 42/58/129 37/57/130
f 5/18/131 14/38/132 41/52/133 20/24/134
f 12/37/135 3/17/136 15/53/137 38/69/138
f 1/5/139 2/6/140 32/2/2 33/1/1
f 43/79/141 44/80/142 46/81/143 45/82/144
f 45/82/145 46/81/146 48/83/147 47/84/148
f 49/85/149 50/86/150 44/80/151 43/79/152
