# This file uses meters as units for non-parametric coordinates.

v -47.224709 0.000000 15.119646
v -39.234772 0.000000 15.119646
v -47.224709 2.781384 15.119646
v -39.234772 2.781384 15.119646
v -47.224709 2.781384 7.129709
v -39.234772 2.781384 7.129709
v -47.224709 0.000000 7.129709
v -39.234772 0.000000 7.129709
v 47.224709 0.000000 15.119648
v 39.234772 0.000000 15.119648
v 47.224709 2.781384 15.119648
v 39.234772 2.781384 15.119648
v 47.224709 2.781384 7.129711
v 39.234772 2.781384 7.129711
v 47.224709 0.000000 7.129711
v 39.234772 0.000000 7.129711
v -47.224709 0.000000 62.838913
v -39.234772 0.000000 62.838913
v -47.224709 2.781384 62.838913
v -39.234772 2.781384 62.838913
v -47.224709 2.781384 54.848976
v -39.234772 2.781384 54.848976
v -47.224709 0.000000 54.848976
v -39.234772 0.000000 54.848976
v 47.224709 0.000000 62.838913
v 39.234772 0.000000 62.838913
v 47.224709 2.781384 62.838913
v 39.234772 2.781384 62.838913
v 47.224709 2.781384 54.848976
v 39.234772 2.781384 54.848976
v 47.224709 0.000000 54.848976
v 39.234772 0.000000 54.848976
v 47.354439 2.938640 75.894447
v 50.876343 2.938640 75.894447
v 47.354439 3.861587 75.894447
v 50.876343 3.861587 75.894447
v 47.354439 3.861587 68.337143
v 50.876343 3.861587 68.337143
v 47.354439 2.938640 68.337143
v 50.876343 2.938640 68.337143
v 47.354439 236.183838 75.894447
v 50.876343 236.183838 75.894447
v 47.354439 237.106781 75.894447
v 50.876343 237.106781 75.894447
v 47.354439 237.106781 68.337143
v 50.876343 237.106781 68.337143
v 47.354439 236.183838 68.337143
v 50.876343 236.183838 68.337143
v 50.876343 237.106781 74.005127
v 47.354439 237.106781 74.005127
v 47.354439 236.183838 74.005127
v 50.876343 236.183838 74.005127
v 49.115395 236.183838 68.337143
v 49.115395 236.183838 74.005127
v 49.115395 236.183838 75.894447
v 49.115395 237.106781 75.894447
v 49.115395 237.106781 74.005127
v 49.115395 237.106781 68.337143
vt 0.261872 0.980842
vt 0.270729 0.980842
vt 0.261872 0.989700
vt 0.270729 0.989700
vt 0.261872 0.980842
vt 0.270729 0.980842
vt 0.261872 0.989700
vt 0.270729 0.989700
vt 0.270729 0.989700
vt 0.270729 0.980842
vt 0.261872 0.980842
vt 0.261872 0.989700
vt 0.270729 0.980842
vt 0.270729 0.989700
vt 0.261872 0.980842
vt 0.261872 0.989700
vt 0.270729 0.989700
vt 0.270729 0.980842
vt 0.261872 0.980842
vt 0.261872 0.989700
vt 0.270729 0.989700
vt 0.270729 0.980842
vt 0.261872 0.980842
vt 0.261872 0.989700
vt 0.261872 0.989700
vt 0.261872 0.980842
vt 0.270729 0.980842
vt 0.270729 0.989700
vt 0.261872 0.980842
vt 0.270729 0.980842
vt 0.270729 0.989700
vt 0.261872 0.989700
vt 0.261872 0.980842
vt 0.270729 0.980842
vt 0.270729 0.989700
vt 0.261872 0.989700
vt 0.270729 0.980842
vt 0.270729 0.989700
vt 0.261872 0.980842
vt 0.261872 0.989700
vt 0.270729 0.980842
vt 0.270729 0.989700
vt 0.261872 0.980842
vt 0.261872 0.989700
vt 0.270729 0.989700
vt 0.270729 0.980842
vt 0.261872 0.980842
vt 0.261872 0.989700
vt 0.258475 0.978957
vt 0.272578 0.978957
vt 0.272578 0.993060
vt 0.258475 0.993060
vt 0.272578 0.979030
vt 0.258475 0.979030
vt 0.258475 0.993084
vt 0.272578 0.993084
vt 0.272578 0.979030
vt 0.272578 0.989552
vt 0.258353 0.978957
vt 0.258353 0.993060
vt 0.272649 0.978957
vt 0.272649 0.993060
vt 0.258475 0.978957
vt 0.265527 0.978957
vt 0.265527 0.993060
vt 0.258475 0.993060
vt 0.265527 0.989552
vt 0.258475 0.989552
vt 0.258475 0.982489
vt 0.265527 0.982489
vt 0.272578 0.982489
vt 0.272578 0.993084
vt 0.272578 0.978957
vt 0.269022 0.978957
vt 0.269022 0.993060
vt 0.272578 0.993060
vt 0.261833 0.978957
vt 0.261833 0.993060
vt 0.258475 0.979030
vt 0.265527 0.979030
vt 0.272649 0.993060
vt 0.272649 0.978957
vt 0.265527 0.993084
vt 0.258475 0.993084
vt 0.258353 0.993060
vt 0.258353 0.978957
vn 0.000000 0.000000 1.000000
vn 0.000000 0.000000 1.000000
vn 0.000000 0.000000 1.000000
vn 0.000000 0.000000 1.000000
vn 0.000000 0.000000 -1.000000
vn 0.000000 0.000000 -1.000000
vn 0.000000 0.000000 -1.000000
vn 0.000000 0.000000 -1.000000
vn 0.000000 -1.000000 0.000000
vn 0.000000 -1.000000 0.000000
vn 0.000000 -1.000000 0.000000
vn 0.000000 -1.000000 0.000000
vn 1.000000 0.000000 0.000000
vn 1.000000 0.000000 0.000000
vn 1.000000 0.000000 0.000000
vn 1.000000 0.000000 0.000000
vn -1.000000 0.000000 0.000000
vn -1.000000 0.000000 0.000000
vn -1.000000 0.000000 0.000000
vn -1.000000 0.000000 0.000000
vn 0.000000 0.000000 1.000000
vn 0.000000 0.000000 1.000000
vn 0.000000 0.000000 1.000000
vn 0.000000 0.000000 1.000000
vn 0.000000 0.000000 -1.000000
vn 0.000000 0.000000 -1.000000
vn 0.000000 0.000000 -1.000000
vn 0.000000 0.000000 -1.000000
vn 0.000000 -1.000000 0.000000
vn 0.000000 -1.000000 0.000000
vn 0.000000 -1.000000 0.000000
vn 0.000000 -1.000000 0.000000
vn -1.000000 0.000000 0.000000
vn -1.000000 0.000000 0.000000
vn -1.000000 0.000000 0.000000
vn -1.000000 0.000000 0.000000
vn 1.000000 0.000000 0.000000
vn 1.000000 0.000000 0.000000
vn 1.000000 0.000000 0.000000
vn 1.000000 0.000000 0.000000
vn 0.000000 0.000000 1.000000
vn 0.000000 0.000000 1.000000
vn 0.000000 0.000000 1.000000
vn 0.000000 0.000000 1.000000
vn 0.000000 0.000000 -1.000000
vn 0.000000 0.000000 -1.000000
vn 0.000000 0.000000 -1.000000
vn 0.000000 0.000000 -1.000000
vn 0.000000 -1.000000 0.000000
vn 0.000000 -1.000000 0.000000
vn 0.000000 -1.000000 0.000000
vn 0.000000 -1.000000 0.000000
vn 1.000000 0.000000 0.000000
vn 1.000000 0.000000 0.000000
vn 1.000000 0.000000 0.000000
vn 1.000000 0.000000 0.000000
vn -1.000000 0.000000 0.000000
vn -1.000000 0.000000 0.000000
vn -1.000000 0.000000 0.000000
vn -1.000000 0.000000 0.000000
vn 0.000000 0.000000 1.000000
vn 0.000000 0.000000 1.000000
vn 0.000000 0.000000 1.000000
vn 0.000000 0.000000 1.000000
vn 0.000000 0.000000 -1.000000
vn 0.000000 0.000000 -1.000000
vn 0.000000 0.000000 -1.000000
vn 0.000000 0.000000 -1.000000
vn 0.000000 -1.000000 0.000000
vn 0.000000 -1.000000 0.000000
vn 0.000000 -1.000000 0.000000
vn 0.000000 -1.000000 0.000000
vn -1.000000 0.000000 0.000000
vn -1.000000 0.000000 0.000000
vn -1.000000 0.000000 0.000000
vn -1.000000 0.000000 0.000000
vn 1.000000 0.000000 0.000000
vn 1.000000 0.000000 0.000000
vn 1.000000 0.000000 0.000000
vn 1.000000 0.000000 0.000000
vn 0.000000 0.000000 1.000000
vn 0.000000 0.000000 1.000000
vn 0.000000 0.000000 1.000000
vn 0.000000 0.000000 1.000000
vn 0.000000 1.000000 0.000000
vn 0.000000 1.000000 0.000000
vn 0.000000 1.000000 0.000000
vn 0.000000 1.000000 0.000000
vn 0.000000 -1.000000 0.000000
vn 0.000000 -1.000000 0.000000
vn 0.000000 -1.000000 0.000000
vn 0.000000 -1.000000 0.000000
vn 1.000000 0.000000 0.000000
vn 1.000000 0.000000 0.000000
vn 1.000000 0.000000 0.000000
vn 1.000000 0.000000 0.000000
vn -1.000000 0.000000 0.000000
vn -1.000000 0.000000 0.000000
vn -1.000000 0.000000 0.000000
vn -1.000000 0.000000 0.000000
vn 0.000000 0.000000 1.000000
vn 0.000000 0.000000 1.000000
vn 0.000000 0.000000 1.000000
vn 0.000000 0.000000 1.000000
vn 0.000000 1.000000 0.000000
vn 0.000000 1.000000 0.000000
vn 0.000000 1.000000 0.000000
vn 0.000000 1.000000 0.000000
vn 0.000000 -1.000000 0.000000
vn 0.000000 -1.000000 0.000000
vn 0.000000 -1.000000 0.000000
vn 0.000000 -1.000000 0.000000
vn 1.000000 0.000000 0.000000
vn 1.000000 0.000000 0.000000
vn 1.000000 0.000000 0.000000
vn 1.000000 0.000000 0.000000
vn -1.000000 0.000000 0.000000
vn -1.000000 0.000000 0.000000
vn -1.000000 0.000000 0.000000
vn -1.000000 0.000000 0.000000
vn 0.000000 1.000000 0.000000
vn 0.000000 1.000000 0.000000
vn -1.000000 0.000000 0.000000
vn -1.000000 0.000000 0.000000
vn 0.000000 -1.000000 0.000000
vn 0.000000 -1.000000 0.000000
vn 1.000000 0.000000 0.000000
vn 1.000000 0.000000 0.000000
vn 0.000000 -1.000000 0.000000
vn 0.000000 -1.000000 0.000000
vn 0.000000 -1.000000 0.000000
vn 0.000000 0.000000 1.000000
vn 0.000000 0.000000 1.000000
vn 0.000000 1.000000 0.000000
vn 0.000000 1.000000 0.000000
vn 0.000000 1.000000 0.000000
f 1/1/1 2/2/2 4/4/3 3/3/4
f 5/5/5 6/6/6 8/8/7 7/7/8
f 7/7/9 8/8/10 2/2/11 1/1/12
f 2/2/13 8/11/14 6/12/15 4/4/16
f 7/13/17 1/1/18 3/3/19 5/14/20
f 9/15/21 11/16/22 12/17/23 10/18/24
f 13/19/25 15/20/26 16/21/27 14/22/28
f 15/20/29 9/15/30 10/18/31 16/21/32
f 10/18/33 12/17/34 14/25/35 16/26/36
f 15/27/37 13/28/38 11/16/39 9/15/40
f 17/29/41 18/30/42 20/31/43 19/32/44
f 21/33/45 22/34/46 24/35/47 23/36/48
f 23/36/49 24/35/50 18/30/51 17/29/52
f 18/30/53 24/39/54 22/40/55 20/31/56
f 23/41/57 17/29/58 19/32/59 21/42/60
f 25/43/61 27/44/62 28/45/63 26/46/64
f 29/47/65 31/48/66 32/38/67 30/37/68
f 31/48/69 25/43/70 26/46/71 32/38/72
f 26/46/73 28/45/74 30/24/75 32/23/76
f 31/10/77 29/9/78 27/44/79 25/43/80
f 33/49/81 34/50/82 36/51/83 35/52/84
f 35/52/85 36/51/86 38/53/87 37/54/88
f 39/55/89 40/56/90 34/50/91 33/49/92
f 34/50/93 40/59/94 38/60/95 36/51/96
f 39/61/97 33/49/98 35/52/99 37/62/100
f 41/63/101 55/64/102 56/65/103 43/66/104
f 43/66/105 56/65/106 57/67/107 50/68/108
f 51/69/109 54/70/110 55/64/111 41/63/112
f 42/73/113 52/74/114 49/75/115 44/76/116
f 51/77/117 41/63/118 43/66/119 50/78/120
f 45/79/121 50/68/108 57/67/107 58/80/122
f 51/77/117 50/78/120 45/81/123 47/82/124
f 53/83/125 54/70/110 51/69/109 47/84/126
f 46/85/127 49/75/115 52/74/114 48/86/128
f 48/72/129 52/71/130 54/70/110 53/83/125
f 55/64/111 54/70/110 52/71/130 42/73/131
f 56/65/103 55/64/102 42/73/132 44/76/133
f 57/67/107 56/65/106 44/76/134 49/58/135
f 57/67/107 49/58/135 46/57/136 58/80/122
