# This file uses meters as units for non-parametric coordinates.

v 13.155092 51.122498 0.000003
v 13.155092 0.000000 0.000000
v -39.444611 45.222998 0.000003
v 13.155092 45.222998 0.000003
v 39.444622 45.222998 0.000003
v -39.444611 5.244412 0.000000
v 13.155092 5.244412 0.000000
v 39.444622 5.244412 0.000000
v -35.092572 0.000000 0.000000
v -35.092572 5.244412 0.000000
v -35.092572 45.222998 0.000003
v -35.092572 51.122498 0.000003
v -35.092572 45.222998 5.257653
v -35.092572 5.244412 5.257653
v 13.155092 5.244412 5.257653
v 13.155092 45.222998 5.257653
v -39.444611 49.693368 0.000003
v -38.566750 51.122498 0.000003
v 38.566760 51.122498 0.000003
v 39.444622 49.693368 0.000003
v -39.444611 2.175797 0.000000
v -38.566750 0.000000 0.000000
v 39.444622 2.175797 0.000000
v 38.566754 0.000000 0.000000
v 13.155092 50.597145 40.712260
v 13.155092 51.122498 40.186915
v 37.051217 50.597145 40.712260
v 38.566760 51.122498 40.186915
v 13.155092 0.000000 40.186915
v 13.155092 0.525316 40.712260
v 37.051217 0.525316 40.712260
v 38.566754 0.000000 40.186915
v -39.444611 45.222998 40.186915
v -38.919271 45.222998 40.712260
v -38.919271 48.729063 40.712260
v -39.444611 49.693368 40.186915
v 39.444622 45.222998 40.186915
v 38.919284 45.222998 40.712260
v 38.919284 48.729063 40.712260
v 39.444622 49.693368 40.186915
v -38.919271 5.244412 40.712260
v -39.444611 5.244412 40.186915
v 39.444622 5.244412 40.186915
v 38.919284 5.244412 40.712260
v -35.092572 0.000000 40.186915
v -35.092572 0.525316 40.712260
v -35.092572 50.597145 40.712260
v -35.092572 51.122498 40.186915
v -37.051213 50.597145 40.712260
v -38.566750 51.122498 40.186915
v -37.051213 0.525316 40.712260
v -38.566750 0.000000 40.186915
v -38.919271 2.393398 40.712260
v -39.444611 2.175797 40.186915
v 38.919284 2.393398 40.712260
v 39.444622 2.175797 40.186915
v 13.155092 45.222998 40.281707
v 13.585647 45.653565 40.712260
v -35.092572 45.222998 40.281707
v -35.523118 45.653565 40.712260
v 13.155092 5.244412 40.281707
v 13.585647 4.813857 40.712260
v -35.092572 5.244412 40.281707
v -35.523118 4.813857 40.712260
v 13.155092 40.341900 34.357908
v 13.155092 30.954648 34.357908
v 13.155092 40.341900 18.549535
v 13.155092 30.954648 18.549535
v 13.767718 40.341900 34.357908
v 13.767718 30.954648 34.357908
v 13.767718 40.341900 18.549535
v 13.767718 30.954648 18.549535
vt 0.682885 0.082775
vt 0.713371 0.082775
vt 0.713371 0.078785
vt 0.682885 0.078785
vt 0.682885 0.113192
vt 0.713371 0.113192
vt 0.688520 0.082775
vt 0.688520 0.080441
vt 0.690577 0.078785
vt 0.679761 0.082775
vt 0.681323 0.078785
vt 0.679761 0.080441
vt 0.682885 0.117680
vt 0.713371 0.117680
vt 0.688520 0.113192
vt 0.679761 0.113192
vt 0.690577 0.117680
vt 0.688520 0.116025
vt 0.679761 0.116025
vt 0.681323 0.117680
vt 0.712672 0.113191
vt 0.712672 0.082775
vt 0.685308 0.082775
vt 0.685308 0.113191
vt 0.682885 0.083292
vt 0.713371 0.083292
vt 0.668927 0.102444
vt 0.668972 0.109377
vt 0.713371 0.082886
vt 0.682885 0.082886
vt 0.690577 0.083292
vt 0.668833 0.109528
vt 0.681323 0.117680
vt 0.681323 0.083292
vt 0.690783 0.082886
vt 0.681479 0.082886
vt 0.688520 0.083292
vt 0.688520 0.117680
vt 0.679761 0.083292
vt 0.679761 0.117680
vt 0.668805 0.102285
vt 0.677775 0.102223
vt 0.713371 0.114284
vt 0.682885 0.114284
vt 0.692808 0.117281
vt 0.690577 0.114284
vt 0.713371 0.114748
vt 0.682885 0.114748
vt 0.681323 0.114284
vt 0.681323 0.078785
vt 0.688520 0.114284
vt 0.688520 0.078785
vt 0.690783 0.114748
vt 0.681479 0.114748
vt 0.679761 0.114284
vt 0.679761 0.078785
vt 0.689017 0.114748
vt 0.680138 0.114748
vt 0.650533 0.080441
vt 0.677761 0.109254
vt 0.677666 0.102345
vt 0.650533 0.082775
vt 0.648271 0.117281
vt 0.650533 0.113192
vt 0.650037 0.082775
vt 0.650037 0.080606
vt 0.677854 0.109444
vt 0.650533 0.116025
vt 0.650037 0.113192
vt 0.650037 0.115859
vt 0.650533 0.117680
vt 0.650037 0.117281
vt 0.665444 0.117280
vt 0.650917 0.080441
vt 0.650917 0.082775
vt 0.694978 0.113192
vt 0.650540 0.082775
vt 0.650540 0.080606
vt 0.650917 0.113192
vt 0.693052 0.113519
vt 0.650540 0.113192
vt 0.650917 0.116025
vt 0.665199 0.113519
vt 0.650540 0.115859
vt 0.650540 0.117281
vt 0.650917 0.117680
vt 0.715481 0.082865
vt 0.692807 0.082824
vt 0.692781 0.109471
vt 0.715455 0.109512
vt 0.715726 0.082538
vt 0.692564 0.082496
vt 0.694978 0.115859
vt 0.665444 0.082775
vt 0.665417 0.109422
vt 0.693918 0.117280
vt 0.665199 0.082447
vt 0.693052 0.082497
vt 0.694978 0.082775
vt 0.693918 0.079185
vt 0.694978 0.080606
vt 0.648271 0.079185
vt 0.665444 0.113192
vt 0.692808 0.113357
vt 0.692897 0.086710
vt 0.665533 0.086546
vt 0.665199 0.113519
vt 0.693051 0.113686
vt 0.692808 0.079185
vt 0.665444 0.079185
vt 0.665199 0.082448
vt 0.693052 0.082447
vn -0.000000 0.000000 -1.000000
vn 0.000000 0.000000 -1.000000
vn 0.000000 0.000000 -1.000000
vn -0.000000 0.000000 -1.000000
vn 0.000000 0.000000 -1.000000
vn 0.000000 0.000000 -1.000000
vn 0.000000 0.000000 -1.000000
vn 0.000000 0.000000 -1.000000
vn 0.000000 0.000000 -1.000000
vn 0.000000 0.000000 -1.000000
vn 0.000000 0.000000 -1.000000
vn 0.000000 0.000000 -1.000000
vn 0.000000 0.000000 -1.000000
vn 0.000000 0.000000 -1.000000
vn 0.000000 0.000000 1.000000
vn 0.000000 0.000000 1.000000
vn 0.000000 0.000000 1.000000
vn 0.000000 0.000000 1.000000
vn -0.000000 0.000000 -1.000000
vn -0.000000 0.000000 -1.000000
vn -0.000000 0.000000 -1.000000
vn 0.000000 0.000000 -1.000000
vn 0.000000 0.000000 -1.000000
vn 0.000000 0.000000 -1.000000
vn 0.000000 0.707102 0.707112
vn 0.000000 0.707102 0.707112
vn 0.000000 0.707101 0.707113
vn 0.000000 0.707101 0.707113
vn 0.000000 0.707103 0.707111
vn 0.000000 0.707103 0.707111
vn 0.295556 0.246141 0.923072
vn 0.295556 0.246141 0.923072
vn 0.295556 0.246141 0.923072
vn 0.295556 0.246141 0.923072
vn 0.000000 -0.707126 0.707087
vn 0.000000 -0.707126 0.707087
vn 0.000000 -0.707126 0.707088
vn 0.000000 -0.707126 0.707088
vn 0.000000 -0.707127 0.707087
vn 0.000000 -0.707127 0.707087
vn 0.369363 -0.250812 0.894799
vn 0.369363 -0.250812 0.894799
vn 0.369363 -0.250812 0.894799
vn 0.369363 -0.250812 0.894799
vn -0.707110 0.000000 0.707103
vn -0.707110 0.000000 0.707103
vn -0.707109 0.000000 0.707104
vn -0.707109 0.000000 0.707104
vn -0.707110 0.000000 0.707103
vn -0.707110 0.000000 0.707103
vn -0.295557 0.246141 0.923071
vn -0.295557 0.246141 0.923071
vn -0.295557 0.246141 0.923071
vn -0.295557 0.246141 0.923071
vn 0.707112 0.000000 0.707101
vn 0.707112 0.000000 0.707101
vn 0.707112 0.000000 0.707101
vn 0.707112 0.000000 0.707101
vn 0.707112 0.000000 0.707101
vn 0.707112 0.000000 0.707101
vn -0.707110 0.000000 0.707103
vn -0.707110 0.000000 0.707103
vn 0.707112 0.000000 0.707101
vn 0.707112 0.000000 0.707101
vn 0.000000 -0.707126 0.707087
vn 0.000000 -0.707126 0.707087
vn 0.000000 0.707102 0.707112
vn 0.000000 0.707102 0.707112
vn -0.369363 -0.250810 0.894799
vn -0.369363 -0.250810 0.894799
vn -0.369363 -0.250810 0.894799
vn -0.369363 -0.250810 0.894799
vn 0.000000 1.000000 0.000000
vn 0.000000 1.000000 0.000000
vn 0.000000 1.000000 0.000000
vn 0.000000 1.000000 0.000000
vn 0.000000 -1.000000 0.000000
vn 0.000000 -1.000000 0.000000
vn 0.000000 -1.000000 0.000000
vn 0.000000 -1.000000 0.000000
vn 1.000000 0.000000 0.000000
vn 1.000000 0.000000 0.000000
vn 1.000000 0.000000 0.000000
vn 1.000000 0.000000 0.000000
vn -1.000000 0.000000 0.000000
vn -1.000000 0.000000 0.000000
vn -1.000000 0.000000 0.000000
vn -1.000000 0.000000 0.000000
vn 0.054281 0.998526 0.000000
vn 0.054281 0.998526 0.000000
vn 0.000000 -1.000000 0.000000
vn 0.000000 -1.000000 0.000000
vn -1.000000 0.000000 0.000000
vn -1.000000 0.000000 0.000000
vn -0.989109 0.147182 0.000000
vn -0.989109 0.147182 0.000000
vn 1.000000 0.000000 0.000000
vn 1.000000 0.000000 0.000000
vn 0.989109 0.147182 0.000000
vn 0.989109 0.147182 0.000000
vn 0.000000 -1.000000 0.000000
vn 0.000000 -1.000000 0.000000
vn -0.311991 0.950085 0.000000
vn -0.311991 0.950085 0.000000
vn -0.927364 -0.374159 0.000000
vn -0.927364 -0.374159 0.000000
vn -0.927364 -0.374159 0.000000
vn -0.927364 -0.374159 0.000000
vn 0.927363 -0.374162 0.000000
vn 0.927363 -0.374162 0.000000
vn 0.927363 -0.374162 0.000000
vn 0.927363 -0.374162 0.000000
vn 0.000000 -0.707096 0.707117
vn 0.000000 -0.707096 0.707118
vn 0.000000 -0.707096 0.707117
vn 0.000000 -0.707096 0.707118
vn -0.707104 0.000000 0.707110
vn -0.707103 0.000000 0.707110
vn -0.707104 0.000000 0.707110
vn -0.707103 0.000000 0.707110
vn 0.707111 0.000000 0.707102
vn 0.707111 0.000000 0.707102
vn 0.707111 0.000000 0.707102
vn 0.707111 0.000000 0.707102
vn 0.000000 0.707104 0.707109
vn 0.000000 0.707104 0.707109
vn 0.000000 0.707104 0.707109
vn 0.000000 0.707104 0.707109
vn 1.000000 0.000000 0.000000
vn 1.000000 0.000000 0.000000
vn 1.000000 0.000000 0.000000
vn 1.000000 0.000000 0.000000
vn 0.000000 1.000000 0.000000
vn 0.000000 1.000000 0.000000
vn 0.000000 1.000000 0.000000
vn 0.000000 1.000000 0.000000
vn -1.000000 0.000000 0.000000
vn -1.000000 0.000000 0.000000
vn -1.000000 0.000000 0.000000
vn -1.000000 0.000000 0.000000
vn 0.000000 -1.000000 0.000000
vn 0.000000 -1.000000 0.000000
vn 0.000000 -1.000000 0.000000
vn 0.000000 -1.000000 0.000000
vn 0.000000 0.000000 1.000000
vn 0.000000 0.000000 1.000000
vn -0.000000 0.000000 1.000000
vn 0.000000 0.000000 1.000000
vn -0.000000 0.000000 1.000000
vn 0.000000 0.000000 1.000000
vn 0.000000 0.000000 1.000000
vn 0.000000 0.000000 1.000000
vn -0.000000 0.000000 1.000000
vn 0.000000 0.000000 1.000000
vn -0.000000 0.000000 1.000000
vn -0.000000 0.000000 1.000000
vn 0.000000 0.000000 1.000000
vn 0.000000 0.000000 1.000000
vn 0.000001 0.000000 1.000000
vn -0.000000 0.000000 1.000000
vn -0.000000 0.000000 1.000000
vn 0.000001 0.000000 1.000000
vn 0.000000 0.000000 1.000000
vn 0.000000 0.000000 1.000000
vn -1.000000 0.000000 0.000000
vn -1.000000 0.000000 0.000000
vn -1.000000 0.000000 0.000000
vn -1.000000 0.000000 0.000000
vn -1.000000 0.000000 0.000000
vn -1.000000 0.000000 0.000000
vn -1.000000 0.000000 0.000000
vn -1.000000 0.000000 0.000000
vn -1.000000 0.000000 0.000000
vn -1.000000 0.000000 0.000000
vn -1.000000 0.000000 0.000000
vn -1.000000 0.000000 0.000000
vn -1.000000 0.000000 0.000000
vn -1.000000 0.000000 0.000000
vn -1.000000 0.000000 0.000000
vn -1.000000 0.000000 0.000000
vn 0.000000 0.000000 -1.000000
vn 0.000000 0.000000 -1.000000
vn 0.000000 0.000000 -1.000000
vn 0.000000 0.000000 -1.000000
vn 0.000000 -1.000000 0.000000
vn 0.000000 -1.000000 0.000000
vn 0.000000 -1.000000 0.000000
vn 0.000000 -1.000000 0.000000
vn 0.000000 0.000000 1.000000
vn 0.000000 0.000000 1.000000
vn 0.000000 0.000000 1.000000
vn 0.000000 0.000000 1.000000
vn 0.000000 1.000000 0.000000
vn 0.000000 1.000000 0.000000
vn 0.000000 1.000000 0.000000
vn 0.000000 1.000000 0.000000
f 10/1/1 7/2/2 2/3/3 9/4/4
f 2/3/3 7/2/2 8/7/5 23/8/6 24/9/7
f 12/13/8 1/14/9 4/6/10 11/5/11
f 5/15/12 4/6/10 1/14/9 19/17/13 20/18/14
f 13/21/15 14/22/16 15/23/17 16/24/18
f 11/5/11 4/6/10 7/2/2 10/1/1
f 8/7/5 7/2/2 4/6/10 5/15/12
f 6/10/19 10/1/1 9/4/4 22/11/20 21/12/21
f 3/16/22 11/5/11 10/1/1 6/10/19
f 17/19/23 18/20/24 12/13/8 11/5/11 3/16/22
f 25/29/25 26/26/26 48/25/27 47/30/28
f 26/26/26 25/29/25 27/35/29 28/31/30
f 28/71/31 27/72/32 39/70/33 40/68/34
f 29/43/35 30/47/36 46/48/37 45/44/38
f 30/47/36 29/43/35 32/46/39 31/53/40
f 31/53/41 32/46/42 56/51/43 55/57/44
f 33/79/45 34/81/46 35/84/47 36/82/48
f 34/81/46 33/79/45 42/75/49 41/77/50
f 36/82/51 35/84/52 49/85/53 50/86/54
f 37/64/55 38/69/56 44/65/57 43/62/58
f 38/69/56 37/64/55 40/68/59 39/70/60
f 41/77/50 42/75/49 54/74/61 53/78/62
f 43/62/58 44/65/57 55/66/63 56/59/64
f 45/44/38 46/48/37 51/54/65 52/49/66
f 47/30/28 48/25/27 50/34/67 49/36/68
f 52/49/69 51/54/70 53/58/71 54/55/72
f 48/25/73 26/26/74 1/14/75 12/13/76
f 9/4/77 2/3/78 29/43/79 45/44/80
f 56/59/81 23/8/82 8/7/83 43/62/84
f 21/12/85 54/74/86 42/75/87 6/10/88
f 26/26/74 28/31/89 19/17/90 1/14/75
f 29/43/79 2/3/78 24/9/91 32/46/92
f 3/16/93 33/79/94 36/82/95 17/19/96
f 37/64/97 5/15/98 20/18/99 40/68/100
f 6/10/88 42/75/87 33/79/94 3/16/93
f 43/62/84 8/7/83 5/15/98 37/64/97
f 52/49/101 22/50/102 9/4/77 45/44/80
f 18/33/103 50/34/104 48/25/73 12/13/76
f 36/39/95 50/34/104 18/33/103 17/40/96
f 28/31/89 40/37/100 20/38/99 19/17/90
f 52/49/105 54/55/106 21/56/107 22/50/108
f 56/51/109 32/46/110 24/9/111 23/52/112
f 57/103/113 58/107/114 60/108/115 59/104/116
f 58/107/117 57/103/118 61/94/119 62/97/120
f 59/87/121 60/91/122 64/92/123 63/88/124
f 62/97/125 61/94/126 63/88/127 64/98/128
f 59/87/129 63/88/130 14/89/131 13/90/132
f 63/88/133 61/94/134 15/95/135 14/89/136
f 70/27/137 69/28/138 71/60/139 72/61/140
f 57/103/141 59/104/142 13/105/143 16/106/144
f 46/109/145 30/110/146 62/111/147 64/112/148
f 44/65/149 62/111/147 30/110/146 31/102/150 55/66/151
f 60/80/152 58/83/153 25/73/154 47/45/155
f 25/73/154 58/83/153 38/69/156 39/70/157 27/63/158
f 38/69/156 58/107/153 62/97/147 44/65/149
f 34/76/159 60/80/152 47/45/155 49/96/160 35/93/161
f 41/99/162 64/112/148 60/80/152 34/76/159
f 53/101/163 51/100/164 46/109/145 64/112/148 41/99/162
f 61/94/165 57/103/166 65/32/167 66/41/168
f 57/103/169 16/24/170 67/67/171 65/32/172
f 16/24/173 15/23/174 68/42/175 67/67/176
f 15/23/177 61/94/178 66/41/179 68/42/180
f 66/41/181 65/32/182 69/28/183 70/27/184
f 65/32/185 67/67/186 71/60/187 69/28/188
f 67/67/189 68/42/190 72/61/191 71/60/192
f 68/42/193 66/41/194 70/27/195 72/61/196
