# This file uses meters as units for non-parametric coordinates.

v 22.300327 -0.159006 44.771214
v 35.021629 -0.159006 44.771214
v 22.300327 6.759086 44.440632
v 35.021629 6.759086 44.440632
v 22.300327 6.759086 42.372005
v 35.021629 6.759086 42.372005
v 22.300327 -0.159006 42.372005
v 35.021629 -0.159006 42.372005
v 34.138123 7.271532 44.440632
v 34.138123 7.271532 42.372005
v 34.138123 -0.159006 42.372005
v 34.138123 -0.159006 44.771214
v 23.183834 7.271531 44.440632
v 23.183834 7.271531 42.372005
v 23.183834 -0.159006 42.372005
v 23.183834 -0.159006 44.771214
v 39.444633 5.244450 40.712242
v 17.392725 5.244450 40.712242
v 17.392725 0.000027 40.712242
v 38.566761 0.000027 40.712242
v 39.444633 2.175837 40.712242
v 17.392725 51.122524 40.712242
v 17.392725 45.223049 40.712242
v 39.444633 45.223049 40.712242
v 39.444633 48.946724 40.712242
v 38.566761 51.122524 40.712242
v 38.566772 45.223049 44.220551
v 38.566761 5.244450 44.220551
v 17.392725 5.244450 43.912872
v 17.700399 5.244450 44.220551
v 17.700399 0.307705 44.220551
v 17.392725 0.000027 43.912872
v 38.566761 0.307705 44.220551
v 38.566761 0.000027 43.912872
v 38.784321 0.217590 44.220551
v 39.444633 5.244450 43.912872
v 39.136959 5.244450 44.220551
v 39.227070 1.958298 44.220551
v 39.444633 2.175837 43.912872
v 17.392725 45.223049 43.912872
v 17.700399 45.223049 44.220551
v 17.392725 51.122524 43.912872
v 17.700399 50.814846 44.220551
v 39.444633 45.223049 43.912872
v 39.136959 45.223049 44.220551
v 39.136959 48.819275 44.220551
v 39.444633 48.946724 43.912872
v 38.566761 51.122524 43.912872
v 38.439320 50.814846 44.220551
vt 0.380708 0.827586
vt 0.381701 0.827587
vt 0.381701 0.835928
vt 0.380708 0.835352
vt 0.381742 0.835796
vt 0.380749 0.835220
vt 0.381742 0.827455
vt 0.380749 0.827454
vt 0.395010 0.827600
vt 0.395050 0.827468
vt 0.395050 0.835234
vt 0.395010 0.835366
vt 0.394016 0.835941
vt 0.394057 0.835808
vt 0.394057 0.827467
vt 0.394016 0.827599
vt 0.398409 0.830699
vt 0.398409 0.829065
vt 0.397183 0.827907
vt 0.385983 0.827907
vt 0.385983 0.830699
vt 0.385983 0.836913
vt 0.397183 0.836913
vt 0.398409 0.835755
vt 0.398409 0.833773
vt 0.385983 0.833773
vt 0.398409 0.829065
vt 0.398286 0.828950
vt 0.397305 0.828023
vt 0.397183 0.827907
vt 0.385983 0.830699
vt 0.386157 0.830699
vt 0.386157 0.833773
vt 0.385983 0.833773
vt 0.385983 0.827907
vt 0.386157 0.828071
vt 0.397183 0.828071
vt 0.398409 0.830699
vt 0.398235 0.830699
vt 0.398409 0.833773
vt 0.398235 0.833773
vt 0.386157 0.836749
vt 0.385983 0.836913
vt 0.397111 0.836749
vt 0.397183 0.836913
vt 0.398409 0.835755
vt 0.398235 0.835687
vt 0.397183 0.830699
vt 0.397183 0.833773
vn -0.013350 0.046026 0.998851
vn -0.000965 0.044560 0.999006
vn -0.000658 0.044524 0.999008
vn -0.013350 0.046026 0.998851
vn -0.501727 0.865026 0.000000
vn -0.043249 0.999064 0.000000
vn -0.043249 0.999064 0.000000
vn -0.501727 0.865026 0.000000
vn 0.000000 0.000000 -1.000000
vn 0.000000 0.000000 -1.000000
vn 0.000000 0.000000 -1.000000
vn 0.000000 0.000000 -1.000000
vn 0.000000 -1.000000 0.000000
vn 0.000000 -1.000000 0.000000
vn 0.000000 -1.000000 0.000000
vn 0.000000 -1.000000 0.000000
vn 1.000000 -0.000000 0.000000
vn 1.000000 -0.000000 0.000000
vn 1.000000 -0.000000 0.000000
vn 1.000000 -0.000000 0.000000
vn -1.000000 0.000000 0.000000
vn -1.000000 0.000000 0.000000
vn -1.000000 0.000000 0.000000
vn -1.000000 0.000000 0.000000
vn 0.043248 0.999064 0.000000
vn 0.501725 0.865027 0.000000
vn 0.501725 0.865027 0.000000
vn 0.043248 0.999064 0.000000
vn 0.000000 0.000000 -1.000000
vn 0.000000 0.000000 -1.000000
vn 0.000000 0.000000 -1.000000
vn 0.000000 0.000000 -1.000000
vn 0.000000 -1.000000 0.000000
vn 0.000000 -1.000000 0.000000
vn 0.000000 -1.000000 0.000000
vn 0.000000 -1.000000 0.000000
vn 0.000658 0.044524 0.999008
vn 0.000965 0.044560 0.999006
vn 0.013349 0.046026 0.998851
vn 0.013349 0.046026 0.998851
vn -0.000000 0.000000 -1.000000
vn -0.000000 0.000000 -1.000000
vn -0.000000 0.000000 -1.000000
vn -0.000000 0.000000 -1.000000
vn -0.000000 0.000000 -1.000000
vn 0.000000 0.000000 -1.000000
vn 0.000000 0.000000 -1.000000
vn 0.000000 0.000000 -1.000000
vn 0.000000 0.000000 -1.000000
vn 0.000000 0.000000 -1.000000
vn 0.929054 -0.369943 0.000001
vn 0.929054 -0.369943 0.000001
vn 0.929054 -0.369943 0.000001
vn 0.929054 -0.369943 0.000001
vn 0.929054 -0.369943 0.000001
vn 0.929054 -0.369943 0.000001
vn -0.707111 0.000000 0.707102
vn -0.707111 0.000000 0.707102
vn -0.707111 0.000000 0.707102
vn -0.707111 0.000000 0.707102
vn -0.707113 0.000000 0.707101
vn -0.707113 0.000000 0.707101
vn 0.000000 -0.707107 0.707107
vn 0.000000 -0.707107 0.707107
vn -0.000528 -0.707107 0.707107
vn -0.001246 -0.707106 0.707106
vn 0.710801 0.000742 0.703392
vn 0.710759 0.000734 0.703435
vn 0.758676 0.010759 0.651379
vn 0.758676 0.010759 0.651379
vn 0.707111 0.000000 0.707103
vn 0.707111 0.000000 0.707103
vn -0.707114 0.000000 0.707099
vn -0.707114 0.000000 0.707099
vn 0.000000 0.707105 0.707108
vn 0.000000 0.707105 0.707108
vn 0.000000 0.707106 0.707108
vn 0.000000 0.707105 0.707108
vn 0.707110 0.000000 0.707104
vn 0.707110 0.000000 0.707103
vn 0.691442 0.261153 0.673579
vn 0.691442 0.261153 0.673579
vn 0.691442 0.261153 0.673578
vn 0.691442 0.261153 0.673579
vn -1.000000 0.000000 0.000000
vn -1.000000 0.000000 0.000000
vn -1.000000 0.000000 0.000000
vn -1.000000 0.000000 0.000000
vn 0.000000 -1.000000 0.000000
vn 0.000000 -1.000000 0.000000
vn 0.000000 -1.000000 0.000000
vn 0.000000 -1.000000 0.000000
vn 1.000000 0.000000 0.000000
vn 1.000000 0.000000 0.000000
vn 1.000000 0.000000 0.000000
vn 1.000000 0.000000 0.000000
vn -1.000000 0.000000 0.000000
vn -1.000000 0.000000 0.000000
vn -1.000000 0.000000 0.000000
vn -1.000000 0.000000 0.000000
vn 1.000000 0.000000 0.000000
vn 1.000000 0.000000 0.000000
vn 1.000000 0.000000 0.000000
vn 1.000000 0.000000 0.000000
vn 0.927363 0.374164 0.000000
vn 0.927363 0.374164 0.000000
vn 0.927363 0.374164 0.000000
vn 0.927363 0.374164 0.000000
vn 0.000000 1.000000 0.000000
vn 0.000000 1.000000 0.000000
vn 0.000000 1.000000 0.000000
vn 0.000000 1.000000 0.000000
vn 0.000000 0.000000 1.000000
vn 0.000000 0.000000 1.000000
vn 0.000005 0.000000 1.000000
vn 0.000005 0.000000 1.000000
vn 0.000001 0.000000 1.000000
vn 0.000000 0.000000 1.000000
vn 0.000000 0.000000 1.000000
vn 0.000000 0.000000 1.000000
vn 0.000000 0.000000 1.000000
vn 0.000000 0.000000 1.000000
vn 0.000000 0.000000 1.000000
vn 0.000000 0.000000 1.000000
vn 0.000000 0.000000 1.000000
vn -0.281074 -0.678600 0.678601
f 1/1/1 16/2/2 13/3/3 3/4/4
f 3/4/5 13/3/6 14/5/7 5/6/8
f 5/6/9 14/5/10 15/7/11 7/8/12
f 7/8/13 15/7/14 16/2/15 1/1/16
f 2/9/17 8/10/18 6/11/19 4/12/20
f 7/8/21 1/1/22 3/4/23 5/6/24
f 9/13/25 4/12/26 6/11/27 10/14/28
f 11/15/29 10/14/30 6/11/31 8/10/32
f 12/16/33 11/15/34 8/10/35 2/9/36
f 9/13/37 12/16/38 2/9/39 4/12/40
f 13/3/6 9/13/25 10/14/28 14/5/7
f 15/7/11 14/5/10 10/14/30 11/15/29
f 16/2/15 15/7/14 11/15/34 12/16/33
f 13/3/3 16/2/2 12/16/38 9/13/37
f 17/17/41 21/18/42 20/19/43 19/20/44 18/21/45
f 22/22/46 26/23/47 25/24/48 24/25/49 23/26/50
f 24/25/49 17/17/41 18/21/45 23/26/50
f 20/19/51 21/18/52 39/27/53 38/28/54 35/29/55 34/30/56
f 29/31/57 30/32/58 41/33/59 40/34/60
f 30/32/58 29/31/57 32/35/61 31/36/62
f 31/36/63 32/35/64 34/30/65 33/37/66
f 36/38/67 37/39/68 38/28/69 39/27/70
f 37/39/68 36/38/67 44/40/71 45/41/72
f 40/34/60 41/33/59 43/42/73 42/43/74
f 42/43/75 43/42/76 49/44/77 48/45/78
f 45/41/72 44/40/71 47/46/79 46/47/80
f 46/47/81 47/46/82 48/45/83 49/44/84
f 18/21/85 19/20/86 32/35/87 29/31/88
f 19/20/89 20/19/90 34/30/91 32/35/92
f 21/18/93 17/17/94 36/38/95 39/27/96
f 22/22/97 23/26/98 40/34/99 42/43/100
f 24/25/101 25/24/102 47/46/103 44/40/104
f 25/24/105 26/23/106 48/45/107 47/46/108
f 26/23/109 22/22/110 42/43/111 48/45/112
f 23/26/98 18/21/85 29/31/88 40/34/99
f 17/17/94 24/25/101 44/40/104 36/38/95
f 28/48/113 33/37/114 35/29/115 38/28/116 37/39/117
f 49/44/118 27/49/119 45/41/120 46/47/121
f 45/41/120 27/49/119 28/48/113 37/39/117
f 49/44/118 43/42/122 41/33/123 27/49/119
f 28/48/113 27/49/119 41/33/123 30/32/124
f 30/32/124 31/36/125 33/37/114 28/48/113
f 33/37/66 34/30/65 35/29/126
