# This file uses meters as units for non-parametric coordinates.

v 82.367928 150.335709 0.000004
v 82.367928 135.484146 0.000004
v -82.367928 150.335709 0.000004
v -82.367928 135.484146 0.000004
v 82.367928 148.850708 83.437447
v 82.367928 150.335709 81.952438
v 82.367928 135.484146 81.952438
v 82.367928 136.969147 83.437447
v -82.367928 150.335709 81.952438
v -82.367928 148.850708 83.437447
v -82.367928 136.969147 83.437447
v -82.367928 135.484146 81.952438
v -54.620140 136.969147 83.437447
v -54.620140 135.484146 81.952438
v -54.620140 135.484146 0.000004
v -54.620140 150.335709 0.000004
v -54.620140 150.335709 81.952438
v -54.620140 148.850708 83.437447
v 54.620140 136.969154 83.437447
v 54.620140 135.484146 81.952438
v 54.620140 135.484146 0.000004
v 54.620140 150.335709 0.000004
v 54.620140 150.335724 81.952438
v 54.620140 148.850708 83.437447
vt 0.742245 0.110457
vt 0.742245 0.110457
vt 0.732583 0.073775
vt 0.731510 0.074537
vt 0.731510 0.116571
vt 0.742245 0.116571
vt 0.741172 0.073775
vt 0.731510 0.074537
vt 0.732583 0.073775
vt 0.741172 0.073775
vt 0.731510 0.116571
vt 0.742245 0.074537
vt 0.742245 0.074387
vt 0.643050 0.116571
vt 0.643050 0.116571
vt 0.644815 0.116571
vt 0.742245 0.116571
vt 0.644815 0.116571
vt 0.742245 0.079278
vt 0.742245 0.074387
vt 0.742245 0.116571
vt 0.742245 0.074537
vt 0.742245 0.116571
vt 0.742245 0.079278
vt 0.643050 0.102037
vt 0.708557 0.079278
vt 0.644815 0.102037
vt 0.708557 0.110457
vt 0.742245 0.102037
vt 0.708557 0.116571
vt 0.708557 0.074537
vt 0.708557 0.074387
vt 0.643050 0.102168
vt 0.708861 0.079278
vt 0.644815 0.102168
vt 0.708861 0.110457
vt 0.742245 0.102168
vt 0.708861 0.116571
vt 0.708861 0.074537
vt 0.708861 0.074387
vn 0.000000 0.000000 -1.000000
vn 0.000000 0.000000 -1.000000
vn 0.000000 0.000000 -1.000000
vn 0.000000 0.000000 -1.000000
vn 1.000000 0.000000 0.000000
vn 1.000000 0.000000 0.000000
vn 1.000000 0.000000 0.000000
vn 1.000000 0.000000 0.000000
vn -1.000000 0.000000 0.000000
vn -1.000000 0.000000 0.000000
vn -1.000000 0.000000 0.000000
vn -1.000000 0.000000 0.000000
vn 0.000000 0.707106 0.707108
vn 0.000000 0.707106 0.707108
vn 0.000000 0.707106 0.707108
vn 0.000000 0.707106 0.707108
vn -0.000000 -0.707108 0.707106
vn -0.000000 -0.707108 0.707106
vn -0.000000 -0.707108 0.707106
vn -0.000000 -0.707108 0.707106
vn 0.000000 1.000000 -0.000000
vn 0.000000 1.000000 -0.000000
vn 0.000000 1.000000 -0.000000
vn 0.000000 1.000000 -0.000000
vn 0.000000 -1.000000 0.000000
vn 0.000000 -1.000000 0.000000
vn 0.000000 -1.000000 0.000000
vn 0.000000 -1.000000 0.000000
vn 0.000000 0.000000 1.000000
vn 0.000000 0.000000 1.000000
vn 0.000000 0.000000 1.000000
vn 0.000000 0.000000 1.000000
vn -1.000000 0.000000 0.000000
vn -1.000000 0.000000 0.000000
vn -1.000000 0.000000 0.000000
vn -1.000000 0.000000 0.000000
vn 1.000000 0.000000 0.000000
vn 1.000000 0.000000 0.000000
vn 1.000000 0.000000 0.000000
vn 1.000000 0.000000 0.000000
vn 0.000000 -0.707108 0.707106
vn 0.000000 -0.707108 0.707106
vn 0.000000 -0.707108 0.707106
vn 0.000000 -0.707108 0.707106
vn 0.000000 -1.000000 0.000000
vn 0.000000 -1.000000 0.000000
vn 0.000000 -1.000000 0.000000
vn 0.000000 -1.000000 0.000000
vn 0.000000 0.000000 -1.000000
vn 0.000000 0.000000 -1.000000
vn 0.000000 0.000000 -1.000000
vn 0.000000 0.000000 -1.000000
vn 0.000000 1.000000 0.000000
vn 0.000000 1.000000 0.000000
vn 0.000000 1.000000 0.000000
vn 0.000000 1.000000 0.000000
vn 0.000000 0.707110 0.707104
vn 0.000000 0.707110 0.707104
vn 0.000000 0.707110 0.707104
vn 0.000000 0.707110 0.707104
vn 0.000000 0.000000 1.000000
vn 0.000000 0.000000 1.000000
vn 0.000000 0.000000 1.000000
vn 0.000000 0.000000 1.000000
vn 1.000000 0.000000 0.000000
vn 1.000000 0.000000 0.000000
vn 1.000000 0.000000 0.000000
vn 1.000000 0.000000 0.000000
vn 1.000000 0.000000 0.000000
vn 1.000000 0.000000 0.000000
vn -1.000000 0.000000 0.000000
vn -1.000000 0.000000 0.000000
vn -1.000000 0.000000 0.000000
vn -1.000000 0.000000 0.000000
vn -1.000000 0.000000 0.000000
vn -1.000000 0.000000 0.000000
f 21/36/1 22/38/2 1/6/3 2/1/4
f 6/12/5 7/4/6 2/5/7 1/6/8
f 12/8/9 11/9/10 10/10/11 9/22/12
f 5/20/13 6/12/14 23/39/15 24/40/16
f 7/18/17 8/14/18 19/33/19 20/35/20
f 23/39/21 6/12/22 1/6/23 22/38/24
f 20/35/25 21/37/26 2/17/27 7/18/28
f 24/40/29 19/34/30 8/19/31 5/20/32
f 12/8/33 9/22/34 3/21/35 4/11/36
f 8/3/37 7/4/38 6/12/39 5/7/40
f 14/27/41 13/25/42 11/15/43 12/16/44
f 15/29/45 14/27/46 12/16/47 4/23/48
f 16/30/49 15/28/50 4/2/51 3/21/52
f 17/31/53 16/30/54 3/21/55 9/22/56
f 18/32/57 17/31/58 9/22/59 10/13/60
f 13/26/61 18/32/62 10/13/63 11/24/64
f 15/28/65 16/30/66 14/27/67
f 16/30/66 17/31/68 14/27/67
f 17/31/68 18/32/69 14/27/67
f 18/32/69 13/25/70 14/27/67
f 22/38/71 21/37/72 23/39/73
f 21/37/72 20/35/74 23/39/73
f 23/39/73 20/35/74 24/40/75
f 20/35/74 19/34/76 24/40/75
