# This file uses meters as units for non-parametric coordinates.

v 1.341800 128.745834 -2.239723
v 81.026115 128.745880 -2.239807
v 81.780594 129.484192 -1.501503
v 0.587335 129.484146 -1.501419
v 0.587337 10.828397 -1.501419
v 1.341802 11.566706 -2.239723
v 81.026115 11.566754 -2.239807
v 81.780594 10.828444 -1.501503
v 81.780594 129.484192 -0.000076
v 0.587335 129.484146 0.000008
v 81.780594 10.828444 -0.000076
v 0.587337 10.828397 0.000008
v -1.341800 128.745834 -2.239731
v -0.587335 129.484146 -1.501419
v -81.780586 129.484192 -1.501503
v -81.026115 128.745880 -2.239807
v -1.341802 11.566706 -2.239731
v -0.587337 10.828397 -1.501419
v -81.780586 10.828444 -1.501503
v -81.026115 11.566754 -2.239807
v -0.587335 129.484146 0.000008
v -81.780586 129.484192 -0.000076
v -81.780586 10.828444 -0.000076
v -0.587337 10.828397 0.000008
v 81.780594 129.484192 79.621231
v 81.780594 10.828444 79.621231
v 81.026115 128.745880 81.860962
v 81.780594 129.484192 81.122658
v 81.026115 11.566754 81.860962
v 81.780594 10.828444 81.122658
v -82.367928 10.828397 79.621155
v 82.367928 10.828397 79.621155
v -82.367928 129.484161 79.621155
v 82.367928 129.484161 79.621155
v -82.367928 129.484161 0.000004
v 82.367928 129.484161 0.000004
v -82.367928 10.828397 0.000004
v 82.367928 10.828397 0.000004
v 0.000000 129.484161 0.000004
v 0.000000 10.828397 0.000004
v 0.000000 10.828397 79.621155
v -81.780586 129.484192 79.621231
v -81.780586 10.828444 79.621231
v -81.026115 128.745880 81.860962
v -81.780586 129.484192 81.122658
v -81.026115 11.566754 81.860962
v -81.780586 10.828444 81.122658
v -54.831982 129.484177 79.621201
v -54.831982 129.484177 81.122627
v -54.620140 128.745865 81.860931
v -54.620140 11.566736 81.860931
v -54.831982 10.828426 81.122627
v -54.831982 10.828426 79.621201
v 54.620140 10.828426 79.621201
v 54.620140 10.828426 81.122627
v 54.413990 11.566736 81.860931
v 54.413990 128.745865 81.860931
v 54.620140 129.484177 81.122627
v 54.620140 129.484177 79.621201
v 54.613621 129.484161 79.621155
v 54.613621 10.828397 79.621155
v 54.613621 10.828397 0.000004
v 54.613621 129.484161 0.000004
v -54.827053 129.484161 79.621155
v -54.827053 10.828397 79.621155
v -54.827053 10.828397 0.000004
v -54.827053 129.484161 0.000004
v -54.831982 129.484177 79.621201
v -54.620140 128.745865 79.621201
v -54.620140 11.566736 79.621201
v -54.831982 10.828426 79.621201
v 54.620140 10.828426 79.621201
v 54.413990 11.566736 79.621201
v 54.413990 128.745865 79.621201
v 54.620140 129.484177 79.621201
vt 0.637499 0.866613
vt 0.738338 0.866613
vt 0.739293 0.867274
vt 0.636545 0.867274
vt 0.636545 0.761070
vt 0.637499 0.761731
vt 0.738338 0.761731
vt 0.739293 0.761070
vt 0.739293 0.867274
vt 0.636545 0.867274
vt 0.739293 0.761070
vt 0.636545 0.761070
vt 0.637499 0.866613
vt 0.738338 0.866613
vt 0.739293 0.867274
vt 0.636545 0.867274
vt 0.636545 0.761070
vt 0.637499 0.761731
vt 0.738338 0.761731
vt 0.739293 0.761070
vt 0.739293 0.867274
vt 0.636545 0.867274
vt 0.739293 0.761070
vt 0.636545 0.761070
vt 0.738338 0.866613
vt 0.739293 0.867274
vt 0.738338 0.761731
vt 0.739293 0.761070
vt 0.739293 0.867274
vt 0.739293 0.761070
vt 0.739293 0.761070
vt 0.739293 0.867274
vt 0.636545 0.867274
vt 0.636545 0.761070
vt 0.739293 0.761070
vt 0.739293 0.867274
vt 0.636545 0.867274
vt 0.636545 0.761070
vt 0.637928 0.762113
vt 0.738469 0.762113
vt 0.738469 0.866818
vt 0.637928 0.866818
vt 0.637928 0.762113
vt 0.738469 0.762113
vt 0.738469 0.866818
vt 0.637928 0.866818
vt 0.739293 0.867274
vt 0.739293 0.867274
vt 0.739293 0.761070
vt 0.739293 0.867274
vt 0.739293 0.761070
vt 0.739293 0.867274
vt 0.739293 0.867274
vt 0.738338 0.866613
vt 0.739293 0.761070
vt 0.738338 0.761731
vt 0.739293 0.867274
vt 0.739293 0.761070
vt 0.702343 0.867274
vt 0.702343 0.867274
vt 0.702076 0.866613
vt 0.702076 0.761731
vt 0.702343 0.761070
vt 0.702343 0.761070
vt 0.701956 0.761070
vt 0.701956 0.761070
vt 0.701695 0.761731
vt 0.701695 0.866613
vt 0.701956 0.867274
vt 0.701956 0.867274
vt 0.701747 0.867274
vt 0.701747 0.761070
vt 0.701747 0.761070
vt 0.701747 0.867274
vt 0.701747 0.867274
vt 0.702132 0.867274
vt 0.702132 0.761070
vt 0.702132 0.761070
vt 0.702132 0.867274
vt 0.702132 0.867274
vt 0.645112 0.769916
vt 0.738779 0.769916
vt 0.738779 0.863582
vt 0.645112 0.863582
vt 0.645112 0.769916
vt 0.738779 0.769916
vt 0.738779 0.863582
vt 0.645112 0.863582
vt 0.645112 0.769916
vt 0.738779 0.769916
vt 0.738779 0.863582
vt 0.645112 0.863582
vt 0.640244 0.764391
vt 0.740758 0.764391
vt 0.740758 0.864905
vt 0.640244 0.864905
vt 0.640244 0.764391
vt 0.740758 0.764391
vt 0.740758 0.864905
vt 0.640244 0.864905
vt 0.640244 0.764391
vt 0.740758 0.764391
vt 0.740758 0.864905
vt 0.640244 0.864905
vn -0.000001 0.707105 -0.707109
vn -0.000001 0.707105 -0.707109
vn -0.000001 0.707105 -0.707109
vn -0.000001 0.707105 -0.707109
vn -0.699411 -0.000000 -0.714720
vn -0.699411 -0.000000 -0.714720
vn -0.699411 -0.000000 -0.714720
vn -0.699411 -0.000000 -0.714720
vn 0.699404 0.000000 -0.714726
vn 0.699404 0.000000 -0.714726
vn 0.699404 0.000000 -0.714726
vn 0.699404 0.000000 -0.714726
vn -0.000000 -0.707104 -0.707110
vn -0.000000 -0.707104 -0.707109
vn -0.000000 -0.707104 -0.707109
vn -0.000000 -0.707104 -0.707109
vn -0.000001 -0.000000 -1.000000
vn -0.000001 -0.000000 -1.000000
vn -0.000001 -0.000000 -1.000000
vn -0.000001 -0.000000 -1.000000
vn -0.000001 1.000000 0.000000
vn -0.000001 1.000000 0.000000
vn -0.000001 1.000000 0.000000
vn -0.000001 1.000000 0.000000
vn 1.000000 0.000000 0.000000
vn 1.000000 0.000000 0.000000
vn 1.000000 0.000000 0.000000
vn 1.000000 0.000000 0.000000
vn 0.000001 -1.000000 0.000000
vn 0.000001 -1.000000 0.000000
vn 0.000001 -1.000000 0.000000
vn 0.000001 -1.000000 0.000000
vn -1.000000 -0.000000 0.000000
vn -1.000000 -0.000000 0.000000
vn -1.000000 -0.000000 0.000000
vn -1.000000 -0.000000 0.000000
vn 0.000001 0.707104 -0.707109
vn 0.000001 0.707105 -0.707109
vn 0.000001 0.707105 -0.707109
vn 0.000001 0.707105 -0.707109
vn 0.699414 -0.000000 -0.714717
vn 0.699414 -0.000000 -0.714717
vn 0.699414 -0.000000 -0.714717
vn 0.699414 -0.000000 -0.714717
vn -0.699408 0.000000 -0.714723
vn -0.699408 0.000000 -0.714723
vn -0.699408 0.000000 -0.714723
vn -0.699408 0.000000 -0.714723
vn 0.000000 -0.707106 -0.707107
vn 0.000000 -0.707106 -0.707107
vn 0.000000 -0.707106 -0.707107
vn 0.000000 -0.707106 -0.707107
vn 0.000001 -0.000000 -1.000000
vn 0.000001 -0.000000 -1.000000
vn 0.000001 -0.000000 -1.000000
vn 0.000001 -0.000000 -1.000000
vn 0.000001 1.000000 0.000000
vn 0.000001 1.000000 0.000000
vn 0.000001 1.000000 0.000000
vn 0.000001 1.000000 0.000000
vn -1.000000 0.000000 0.000000
vn -1.000000 0.000000 0.000000
vn -1.000000 0.000000 0.000000
vn -1.000000 0.000000 0.000000
vn -0.000001 -1.000000 0.000000
vn -0.000001 -1.000000 0.000000
vn -0.000001 -1.000000 0.000000
vn -0.000001 -1.000000 0.000000
vn 1.000000 -0.000000 0.000000
vn 1.000000 -0.000000 0.000000
vn 1.000000 -0.000000 0.000000
vn 1.000000 -0.000000 0.000000
vn 0.699400 0.000000 0.714730
vn 0.699400 0.000000 0.714730
vn 0.699400 0.000000 0.714730
vn 0.699400 0.000000 0.714730
vn 1.000000 0.000000 0.000000
vn 1.000000 0.000000 0.000000
vn 1.000000 0.000000 0.000000
vn 1.000000 0.000000 0.000000
vn 0.000000 0.000000 -1.000000
vn 0.000000 0.000000 -1.000000
vn 0.000000 0.000000 -1.000000
vn 0.000000 0.000000 -1.000000
vn 0.000000 -1.000000 0.000000
vn 0.000000 -1.000000 0.000000
vn 0.000000 -1.000000 0.000000
vn 0.000000 -1.000000 0.000000
vn 1.000000 0.000000 0.000000
vn 1.000000 0.000000 0.000000
vn 1.000000 0.000000 0.000000
vn 1.000000 0.000000 0.000000
vn -1.000000 0.000000 0.000000
vn -1.000000 0.000000 0.000000
vn -1.000000 0.000000 0.000000
vn -1.000000 0.000000 0.000000
vn 0.000000 0.000000 -1.000000
vn 0.000000 0.000000 -1.000000
vn 0.000000 0.000000 -1.000000
vn 0.000000 0.000000 -1.000000
vn 0.000000 -1.000000 0.000000
vn 0.000000 -1.000000 0.000000
vn 0.000000 -1.000000 0.000000
vn 0.000000 -1.000000 0.000000
vn 0.000000 0.000000 1.000000
vn 0.000000 0.000000 1.000000
vn 0.000000 0.000000 1.000000
vn 0.000000 0.000000 1.000000
vn -0.699402 0.000000 0.714728
vn -0.699402 0.000000 0.714728
vn -0.699403 0.000000 0.714728
vn -0.699402 0.000000 0.714728
vn -1.000000 0.000000 0.000000
vn -1.000000 0.000000 0.000000
vn -1.000000 0.000000 0.000000
vn -1.000000 0.000000 0.000000
vn 0.000001 1.000000 0.000000
vn 0.000001 1.000000 0.000000
vn 0.000001 1.000000 0.000000
vn 0.000001 1.000000 0.000000
vn 0.000001 0.707105 0.707108
vn 0.000001 0.707105 0.707108
vn 0.000001 0.707106 0.707107
vn 0.000001 0.707106 0.707107
vn 0.000001 0.000000 1.000000
vn 0.000001 0.000000 1.000000
vn 0.000001 -0.000000 1.000000
vn 0.000001 -0.000000 1.000000
vn 0.000000 -0.707106 0.707107
vn 0.000000 -0.707106 0.707107
vn 0.000000 -0.707103 0.707110
vn 0.000000 -0.707103 0.707110
vn -0.000001 -1.000000 0.000000
vn -0.000001 -1.000000 0.000000
vn -0.000001 -1.000000 0.000000
vn -0.000001 -1.000000 0.000000
vn 0.000001 -1.000000 0.000000
vn 0.000001 -1.000000 0.000000
vn 0.000001 -1.000000 0.000000
vn 0.000001 -1.000000 0.000000
vn -0.000000 -0.707104 0.707109
vn -0.000000 -0.707104 0.707110
vn -0.000000 -0.707104 0.707110
vn -0.000000 -0.707104 0.707109
vn -0.000001 0.000000 1.000000
vn -0.000001 0.000000 1.000000
vn -0.000001 -0.000000 1.000000
vn -0.000001 -0.000000 1.000000
vn -0.000001 0.707101 0.707112
vn -0.000001 0.707101 0.707112
vn -0.000001 0.707103 0.707111
vn -0.000001 0.707103 0.707111
vn -0.000001 1.000000 0.000000
vn -0.000001 1.000000 0.000000
vn -0.000001 1.000000 0.000000
vn -0.000001 1.000000 0.000000
vn 0.000000 -1.000000 0.000000
vn 0.000000 -1.000000 0.000000
vn 0.000000 0.000000 -1.000000
vn 0.000000 0.000000 -1.000000
vn 0.000000 0.000000 1.000000
vn 0.000000 0.000000 1.000000
vn 0.000000 0.000000 1.000000
vn 0.000000 0.000000 1.000000
vn 0.000000 -1.000000 0.000000
vn 0.000000 -1.000000 0.000000
vn 0.000000 0.000000 -1.000000
vn 0.000000 0.000000 -1.000000
vn 0.961214 0.275802 0.000000
vn 0.961214 0.275802 0.000000
vn 0.961214 0.275802 0.000000
vn 0.961214 0.275802 0.000000
vn 1.000000 0.000000 0.000000
vn 1.000000 0.000000 0.000000
vn 1.000000 0.000000 0.000000
vn 1.000000 0.000000 0.000000
vn 0.961214 -0.275803 0.000000
vn 0.961214 -0.275803 0.000000
vn 0.961214 -0.275803 0.000000
vn 0.961214 -0.275803 0.000000
vn -0.963159 -0.268933 0.000000
vn -0.963159 -0.268933 0.000000
vn -0.963159 -0.268933 0.000000
vn -0.963159 -0.268933 0.000000
vn -1.000000 0.000000 0.000000
vn -1.000000 0.000000 0.000000
vn -1.000000 0.000000 0.000000
vn -1.000000 0.000000 0.000000
vn -0.963159 0.268933 0.000000
vn -0.963159 0.268933 0.000000
vn -0.963159 0.268933 0.000000
vn -0.963159 0.268933 0.000000
f 1/1/1 4/4/2 3/3/3 2/2/4
f 4/4/5 1/1/6 6/6/7 5/5/8
f 2/2/9 3/3/10 8/8/11 7/7/12
f 7/7/13 8/8/14 5/5/15 6/6/16
f 1/1/17 2/2/18 7/7/19 6/6/20
f 4/4/21 10/10/22 9/9/23 3/3/24
f 3/3/25 9/9/26 11/11/27 8/8/28
f 8/8/29 11/11/30 12/12/31 5/5/32
f 5/5/33 12/12/34 10/10/35 4/4/36
f 13/13/37 16/14/38 15/15/39 14/16/40
f 14/16/41 18/17/42 17/18/43 13/13/44
f 16/14/45 20/19/46 19/20/47 15/15/48
f 20/19/49 17/18/50 18/17/51 19/20/52
f 13/13/53 17/18/54 20/19/55 16/14/56
f 14/16/57 15/15/58 22/21/59 21/22/60
f 15/15/61 19/20/62 23/23/63 22/21/64
f 19/20/65 18/17/66 24/24/67 23/23/68
f 18/17/69 14/16/70 21/22/71 24/24/72
f 27/25/73 29/27/74 30/28/75 28/26/76
f 28/26/77 30/28/78 26/30/79 25/29/80
f 66/78/81 67/80/82 39/33/83 40/34/84
f 65/77/85 66/79/86 40/37/87 41/38/88
f 32/39/89 38/40/90 36/41/91 34/42/92
f 37/43/93 31/44/94 33/45/95 35/46/96
f 63/75/97 36/48/98 38/49/99 62/73/100
f 38/50/101 32/51/102 61/72/103 62/74/104
f 32/51/105 34/52/106 60/71/107 61/72/108
f 44/54/109 45/53/110 47/55/111 46/56/112
f 45/53/113 42/57/114 43/58/115 47/55/116
f 49/60/117 48/59/118 42/57/119 45/53/120
f 50/61/121 49/60/122 45/53/123 44/54/124
f 51/62/125 50/61/126 44/54/127 46/56/128
f 46/56/129 47/55/130 52/63/131 51/62/132
f 47/55/133 43/58/134 53/64/135 52/63/136
f 30/28/137 55/66/138 54/65/139 26/30/140
f 29/27/141 56/67/142 55/66/143 30/28/144
f 57/68/145 56/67/146 29/27/147 27/25/148
f 58/69/149 57/68/150 27/25/151 28/26/152
f 59/70/153 58/69/154 28/26/155 25/29/156
f 62/74/104 61/72/103 41/38/157 40/37/158
f 39/33/159 63/75/97 62/73/100 40/34/160
f 64/76/161 33/47/162 31/35/163 65/77/164
f 31/35/165 37/36/166 66/79/86 65/77/85
f 37/31/167 35/32/168 67/80/82 66/78/81
f 49/81/169 50/82/170 69/83/171 68/84/172
f 50/85/173 51/86/174 70/87/175 69/88/176
f 51/89/177 52/90/178 71/91/179 70/92/180
f 55/93/181 56/94/182 73/95/183 72/96/184
f 56/97/185 57/98/186 74/99/187 73/100/188
f 57/101/189 58/102/190 75/103/191 74/104/192
