# This file uses meters as units for non-parametric coordinates.

v 54.620140 139.237732 0.000004
v 54.620140 18.553698 0.000004
v -54.620140 139.237732 0.000004
v -54.620140 18.553698 0.000004
v 0.000000 139.237732 0.000004
v 0.000000 18.553698 0.000004
v -90.021507 18.553698 79.621155
v 90.021507 18.553698 79.621155
v -90.021507 139.237732 79.621155
v 90.021507 139.237732 79.621155
v -90.021507 139.237732 0.000004
v 90.021507 139.237732 0.000004
v -90.021507 18.553698 0.000004
v 90.021507 18.553698 0.000004
v -54.620140 139.237732 79.621155
v -54.620140 18.553698 79.621155
v 54.620140 139.237732 79.621155
v 54.620140 18.553698 79.621155
v -90.021507 139.237732 19.905291
v -90.021507 18.553698 19.905291
v -54.620140 18.553698 19.905291
v -54.620140 139.237732 19.905291
v 54.620140 139.237732 19.905291
v 54.620140 18.553698 19.905291
v 90.021507 18.553698 19.905291
v 90.021507 139.237732 19.905291
vt 0.704530 0.866207
vt 0.704530 0.765020
vt 0.704515 0.866206
vt 0.704515 0.765019
vt 0.639502 0.866206
vt 0.639502 0.765019
vt 0.640083 0.766014
vt 0.741898 0.766014
vt 0.741898 0.865772
vt 0.640083 0.865772
vt 0.640083 0.766014
vt 0.741898 0.766014
vt 0.741898 0.865772
vt 0.640083 0.865772
vt 0.704530 0.866207
vt 0.742732 0.866206
vt 0.742732 0.765020
vt 0.704530 0.765020
vt 0.742732 0.866206
vt 0.742732 0.765020
vt 0.704399 0.765020
vt 0.704530 0.866207
vt 0.704399 0.866207
vt 0.742732 0.866206
vt 0.742732 0.866206
vt 0.742732 0.765020
vt 0.704385 0.765019
vt 0.704385 0.866206
vt 0.742732 0.866206
vt 0.704515 0.866206
vt 0.742732 0.765020
vt 0.742732 0.866206
vt 0.704515 0.866206
vt 0.704515 0.765019
vt 0.635317 0.765247
vt 0.742808 0.765247
vt 0.635317 0.765247
vt 0.742808 0.765247
vt 0.665537 0.865772
vt 0.742732 0.840910
vt 0.665537 0.766014
vt 0.742808 0.837589
vt 0.704482 0.840909
vt 0.635317 0.837589
vt 0.742808 0.837589
vt 0.704497 0.840910
vt 0.635317 0.837589
vt 0.716444 0.766014
vt 0.742732 0.840910
vt 0.716444 0.865772
vn 0.000000 0.000000 -1.000000
vn 0.000000 0.000000 -1.000000
vn 0.000000 0.000000 -1.000000
vn 0.000000 0.000000 -1.000000
vn 0.000000 0.000000 -1.000000
vn 0.000000 0.000000 -1.000000
vn 1.000000 0.000000 0.000000
vn 1.000000 0.000000 0.000000
vn 1.000000 0.000000 0.000000
vn 1.000000 0.000000 0.000000
vn -1.000000 0.000000 0.000000
vn -1.000000 0.000000 0.000000
vn -1.000000 0.000000 0.000000
vn -1.000000 0.000000 0.000000
vn 0.000000 0.000000 -1.000000
vn 0.000000 0.000000 -1.000000
vn 0.000000 0.000000 -1.000000
vn 0.000000 0.000000 -1.000000
vn 0.000000 -1.000000 0.000000
vn 0.000000 -1.000000 0.000000
vn 0.000000 -1.000000 0.000000
vn 0.000000 -1.000000 0.000000
vn 0.000000 0.000000 1.000000
vn 0.000000 0.000000 1.000000
vn 0.000000 0.000000 1.000000
vn 0.000000 0.000000 1.000000
vn 0.000000 0.000000 1.000000
vn 0.000000 0.000000 1.000000
vn 0.000000 0.000000 1.000000
vn 0.000000 0.000000 1.000000
vn 0.000000 -1.000000 0.000000
vn 0.000000 -1.000000 0.000000
vn 0.000000 -1.000000 0.000000
vn 0.000000 -1.000000 0.000000
vn 0.000000 0.000000 -1.000000
vn 0.000000 0.000000 -1.000000
vn 0.000000 0.000000 -1.000000
vn 0.000000 0.000000 -1.000000
vn 1.000000 0.000000 0.000000
vn 1.000000 0.000000 0.000000
vn 1.000000 0.000000 0.000000
vn 1.000000 0.000000 0.000000
vn -1.000000 0.000000 0.000000
vn -1.000000 0.000000 0.000000
vn -1.000000 0.000000 0.000000
vn -1.000000 0.000000 0.000000
vn -1.000000 0.000000 0.000000
vn -1.000000 0.000000 0.000000
vn 0.000000 -1.000000 0.000000
vn 0.000000 -1.000000 0.000000
vn 0.000000 -1.000000 0.000000
vn 0.000000 -1.000000 0.000000
vn 1.000000 0.000000 0.000000
vn 1.000000 0.000000 0.000000
f 5/5/1 6/6/2 4/4/3 3/3/4
f 1/1/5 2/2/6 6/6/2 5/5/1
f 26/50/7 10/10/8 8/7/9 25/48/10
f 7/12/11 9/13/12 19/39/13 20/41/14
f 1/15/15 12/16/16 14/17/17 2/18/18
f 8/20/19 18/21/20 24/46/21 25/49/22
f 17/23/23 18/21/24 8/20/25 10/24/26
f 9/25/27 7/26/28 16/27/29 15/28/30
f 16/27/31 7/26/32 20/40/33 21/43/34
f 13/31/35 11/32/36 3/33/37 4/34/38
f 22/44/39 15/35/40 16/36/41 21/42/42
f 18/37/43 17/38/44 23/45/45 24/47/46
f 13/11/47 20/41/14 19/39/13 11/14/48
f 21/43/34 20/40/33 13/29/49 4/30/50
f 14/19/51 25/49/22 24/46/21 2/22/52
f 26/50/7 25/48/10 14/8/53 12/9/54
