# This file uses meters as units for non-parametric coordinates.

v -54.620140 137.232956 5.359648
v 54.620140 137.232956 5.359648
v 54.620140 137.232956 21.195198
v -54.620140 137.232956 21.195198
v 54.620140 129.484161 21.195198
v -54.620140 129.484161 21.195198
v 54.620140 129.484161 5.359648
v -54.620140 129.484161 5.359648
v -54.620140 129.484161 3.700448
v 54.620140 129.484161 3.700448
v -54.620140 147.374054 3.700448
v 54.620140 147.374054 3.700448
v -54.620140 147.374054 0.000004
v 54.620140 147.374054 0.000004
v -54.620140 129.484161 0.000004
v 54.620140 129.484161 0.000004
v -54.620140 129.484161 5.359647
v 54.620140 129.484161 5.359647
v 54.620140 145.504227 5.359647
v -54.620140 145.504227 5.359647
v -54.620140 0.000000 81.375801
v 54.620140 0.000000 81.375801
v -54.620140 21.165112 81.375801
v 54.620140 21.165112 81.375801
v -54.620140 21.165112 73.603996
v 54.620140 21.165112 73.603996
v -54.620140 0.000000 73.603996
v 54.620140 0.000000 73.603996
v -54.620140 1.869837 83.035004
v 54.620140 1.869837 83.035004
v 54.620140 19.295275 83.035004
v -54.620140 19.295275 83.035004
vt 0.414581 0.963062
vt 0.428400 0.963062
vt 0.428400 0.953115
vt 0.414581 0.953115
vt 0.428400 0.951529
vt 0.414581 0.951529
vt 0.428400 0.963146
vt 0.414581 0.963146
vt 0.426359 0.951529
vt 0.426359 0.963146
vt 0.416808 0.963146
vt 0.416808 0.951529
vt 0.426890 0.952135
vt 0.426890 0.962698
vt 0.415857 0.962698
vt 0.415857 0.952135
vt 0.414751 0.952135
vt 0.414751 0.962698
vt 0.414596 0.960219
vt 0.414596 0.954614
vt 0.428152 0.960219
vt 0.428152 0.954614
vt 0.428074 0.962812
vt 0.414674 0.962812
vt 0.428074 0.952021
vt 0.414674 0.952021
vt 0.426890 0.952135
vt 0.426890 0.962698
vt 0.415857 0.962698
vt 0.415857 0.952135
vt 0.414751 0.952135
vt 0.414751 0.962698
vt 0.414596 0.960219
vt 0.414596 0.954614
vt 0.428152 0.960219
vt 0.428152 0.954614
vt 0.427996 0.962698
vt 0.427996 0.952135
vt 0.428074 0.962812
vt 0.414674 0.962812
vt 0.428074 0.952021
vt 0.414674 0.952021
vn 0.000000 1.000000 0.000000
vn 0.000000 1.000000 0.000000
vn 0.000000 1.000000 0.000000
vn 0.000000 1.000000 0.000000
vn 0.000000 -1.000000 0.000000
vn 0.000000 -1.000000 0.000000
vn 0.000000 -1.000000 0.000000
vn 0.000000 -1.000000 0.000000
vn 1.000000 0.000000 0.000000
vn 1.000000 0.000000 0.000000
vn 1.000000 0.000000 0.000000
vn 1.000000 0.000000 0.000000
vn -1.000000 0.000000 0.000000
vn -1.000000 0.000000 0.000000
vn -1.000000 0.000000 0.000000
vn -1.000000 0.000000 0.000000
vn 0.000000 0.000000 1.000000
vn 0.000000 0.000000 1.000000
vn 0.000000 0.000000 1.000000
vn 0.000000 0.000000 1.000000
vn 0.000000 1.000000 0.000000
vn 0.000000 1.000000 0.000000
vn 0.000000 1.000000 0.000000
vn 0.000000 1.000000 0.000000
vn 0.000000 0.000000 -1.000000
vn 0.000000 0.000000 -1.000000
vn 0.000000 0.000000 -1.000000
vn 0.000000 0.000000 -1.000000
vn 1.000000 0.000000 0.000000
vn 1.000000 0.000000 0.000000
vn 1.000000 0.000000 0.000000
vn 1.000000 0.000000 0.000000
vn -1.000000 0.000000 0.000000
vn -1.000000 0.000000 0.000000
vn -1.000000 0.000000 0.000000
vn -1.000000 0.000000 0.000000
vn 1.000000 0.000000 0.000000
vn 1.000000 0.000000 0.000000
vn 1.000000 0.000000 0.000000
vn 1.000000 0.000000 0.000000
vn 0.000000 0.663724 0.747978
vn 0.000000 0.663724 0.747978
vn 0.000000 0.663724 0.747978
vn 0.000000 0.663724 0.747978
vn -1.000000 0.000000 0.000000
vn -1.000000 0.000000 0.000000
vn -1.000000 0.000000 0.000000
vn -1.000000 0.000000 0.000000
vn 0.000000 0.000000 1.000000
vn 0.000000 0.000000 1.000000
vn 0.000000 0.000000 1.000000
vn 0.000000 0.000000 1.000000
vn 0.000000 1.000000 0.000000
vn 0.000000 1.000000 0.000000
vn 0.000000 1.000000 0.000000
vn 0.000000 1.000000 0.000000
vn 0.000000 0.000000 -1.000000
vn 0.000000 0.000000 -1.000000
vn 0.000000 0.000000 -1.000000
vn 0.000000 0.000000 -1.000000
vn 0.000000 -1.000000 0.000000
vn 0.000000 -1.000000 0.000000
vn 0.000000 -1.000000 0.000000
vn 0.000000 -1.000000 0.000000
vn 1.000000 0.000000 0.000000
vn 1.000000 0.000000 0.000000
vn 1.000000 0.000000 0.000000
vn 1.000000 0.000000 0.000000
vn -1.000000 0.000000 0.000000
vn -1.000000 0.000000 0.000000
vn -1.000000 0.000000 0.000000
vn -1.000000 0.000000 0.000000
vn 0.000000 -0.663721 0.747980
vn 0.000000 -0.663721 0.747980
vn 0.000000 -0.663721 0.747980
vn 0.000000 -0.663721 0.747980
vn 1.000000 0.000000 0.000000
vn 1.000000 0.000000 0.000000
vn 1.000000 0.000000 0.000000
vn 1.000000 0.000000 0.000000
vn 0.000000 0.663721 0.747980
vn 0.000000 0.663721 0.747980
vn 0.000000 0.663721 0.747980
vn 0.000000 0.663721 0.747980
vn -1.000000 0.000000 0.000000
vn -1.000000 0.000000 0.000000
vn -1.000000 0.000000 0.000000
vn -1.000000 0.000000 0.000000
f 1/1/1 4/4/2 3/3/3 2/2/4
f 6/6/5 8/8/6 7/7/7 5/5/8
f 7/7/9 2/10/10 3/9/11 5/5/12
f 6/6/13 4/12/14 1/11/15 8/8/16
f 17/13/17 18/14/18 19/15/19 20/16/20
f 11/17/21 12/18/22 14/19/23 13/20/24
f 13/20/25 14/19/26 16/21/27 15/22/28
f 10/23/29 16/21/30 14/19/31 12/24/32
f 15/22/33 9/25/34 11/26/35 13/20/36
f 10/23/37 12/24/38 19/15/39 18/14/40
f 12/18/41 11/17/42 20/16/43 19/15/44
f 11/26/45 9/25/46 17/13/47 20/16/48
f 29/27/49 30/28/50 31/29/51 32/30/52
f 23/31/53 24/32/54 26/33/55 25/34/56
f 25/34/57 26/33/58 28/35/59 27/36/60
f 27/36/61 28/35/62 22/37/63 21/38/64
f 22/39/65 28/35/66 26/33/67 24/40/68
f 27/36/69 21/41/70 23/42/71 25/34/72
f 21/38/73 22/37/74 30/28/75 29/27/76
f 22/39/77 24/40/78 31/29/79 30/28/80
f 24/32/81 23/31/82 32/30/83 31/29/84
f 23/42/85 21/41/86 29/27/87 32/30/88
