# This file uses meters as units for non-parametric coordinates.

v -18.093643 21.934898 9.870008
v -20.758612 23.025867 7.205039
v -14.311330 25.780354 9.870008
v -15.428141 28.445320 7.205039
v -20.758612 23.025867 -7.205039
v -18.093643 21.934898 -9.870008
v -15.428141 28.445320 -7.205039
v -14.311330 25.780354 -9.870008
v 18.093643 21.934898 9.870008
v 20.758612 23.025867 7.205039
v 20.758612 23.025867 -7.205039
v 18.093643 21.934898 -9.870008
v 14.311329 25.780354 9.870008
v 15.428139 28.445320 7.205039
v 15.428139 28.445320 -7.205039
v 14.311329 25.780354 -9.870008
v -15.310445 5.326991 9.870008
v -19.092760 5.326991 9.870008
v -21.757729 5.326991 7.205039
v -21.757729 5.326991 -7.205039
v -19.092760 5.326991 -9.870008
v -15.310445 5.326992 -9.870008
v 15.310444 5.326991 -9.870008
v 19.092760 5.326991 -9.870008
v 21.757729 5.326991 -7.205039
v 21.757729 5.326991 7.205039
v 19.092760 5.326991 9.870008
v 15.310444 5.326992 9.870008
v -17.201603 5.326991 -9.870008
v -16.941608 24.577583 -9.870008
v -18.832499 26.455551 -7.205039
v -18.832499 26.455551 7.205039
v -16.941608 24.577583 9.870008
v -17.201603 5.326991 9.870008
v 17.201603 5.326991 -9.870008
v 16.941608 24.577583 -9.870008
v 18.832497 26.455551 -7.205039
v 18.832497 26.455551 7.205039
v 16.941608 24.577583 9.870008
v 17.201603 5.326991 9.870008
v 14.269295 1.933667 9.870008
v 14.269295 0.893267 8.829609
v 16.160454 1.933667 9.870008
v 16.160454 0.893267 8.829609
v 14.337452 1.933667 -9.870008
v 14.337452 0.893267 -8.829609
v 16.228609 1.933667 -9.870008
v 16.228609 0.893267 -8.829609
v -14.269297 1.933667 9.870008
v -14.269297 0.893267 8.829609
v -14.337454 1.933667 -9.870008
v -14.337454 0.893267 -8.829609
v -18.338257 1.911016 9.870008
v -17.578871 0.893267 8.829609
v -16.160456 1.933667 9.870008
v -16.160456 0.893267 8.829609
v -20.717329 0.893267 6.308823
v -21.757729 1.913287 7.102211
v -20.717329 0.893267 -6.315860
v -21.757729 1.914588 -7.095409
v -19.380598 1.912135 -9.870008
v -18.624743 0.893267 -8.829609
v -16.228611 1.933667 -9.870008
v -16.228611 0.893267 -8.829609
v 20.717329 0.893267 6.308823
v 21.757729 1.913287 7.102211
v 20.717329 0.893267 -6.315860
v 21.757729 1.914588 -7.095409
v 18.338257 1.911016 9.870008
v 17.578871 0.893267 8.829609
v 19.380598 1.912135 -9.870008
v 18.624743 0.893267 -8.829609
v -14.720209 28.445320 6.040379
v -14.720209 28.445320 -6.040379
v 14.720207 28.445320 6.040379
v 14.720207 28.445320 -6.040379
v -14.720209 27.637937 6.040379
v -14.720209 27.637937 -6.040379
v 14.720207 27.637937 6.040379
v 14.720207 27.637937 -6.040379
vt 0.459764 0.991855
vt 0.450737 0.991823
vt 0.451179 0.990524
vt 0.459163 0.990402
vt 0.460760 0.992843
vt 0.449518 0.992927
vt 0.449524 0.990146
vt 0.449007 0.991027
vt 0.451850 0.984728
vt 0.458992 0.984641
vt 0.460946 0.990126
vt 0.461429 0.991043
vt 0.450024 0.984713
vt 0.451984 0.983536
vt 0.458903 0.983525
vt 0.460834 0.984661
vt 0.449706 0.983659
vt 0.452070 0.983042
vt 0.458742 0.983069
vt 0.460750 0.983562
vt 0.462229 0.991154
vt 0.462386 0.984736
vt 0.461623 0.984727
vt 0.461180 0.991550
vt 0.462696 0.990280
vt 0.463143 0.984746
vt 0.461992 0.983612
vt 0.461215 0.983588
vt 0.448167 0.984700
vt 0.447747 0.991468
vt 0.463320 0.992065
vt 0.461696 0.992800
vt 0.464197 0.990730
vt 0.464646 0.984751
vt 0.462840 0.983645
vt 0.461223 0.983093
vt 0.462028 0.983125
vt 0.447678 0.983572
vt 0.449096 0.984701
vt 0.460660 0.993451
vt 0.461416 0.993197
vt 0.464616 0.983602
vt 0.462719 0.983186
vt 0.447693 0.983078
vt 0.448664 0.983599
vt 0.446414 0.993548
vt 0.446393 0.993273
vt 0.460660 0.993175
vt 0.448745 0.983117
vt 0.449586 0.993536
vt 0.449531 0.983160
vt 0.444791 0.990572
vt 0.443981 0.984843
vt 0.454618 0.984532
vt 0.454831 0.990306
vt 0.446383 0.990175
vt 0.445778 0.984762
vt 0.444002 0.983205
vt 0.454535 0.983408
vt 0.454846 0.991610
vt 0.445267 0.991852
vt 0.446895 0.991047
vt 0.445551 0.983615
vt 0.454120 0.982945
vt 0.444101 0.982800
vt 0.454952 0.992903
vt 0.446461 0.992935
vt 0.462284 0.983074
vt 0.448107 0.991476
vt 0.447619 0.984718
vt 0.446701 0.984735
vt 0.454444 0.993430
vt 0.460851 0.983112
vt 0.462735 0.984698
vt 0.462744 0.991498
vt 0.448070 0.983578
vt 0.447122 0.983595
vt 0.454432 0.993155
vt 0.464495 0.983171
vt 0.449600 0.993260
vt 0.463288 0.983577
vt 0.461413 0.993472
vt 0.461783 0.984675
vt 0.448060 0.983083
vt 0.447093 0.983110
vt 0.445968 0.983142
vt 0.463313 0.983082
vt 0.462291 0.983564
vn -0.706886 0.695420 0.129243
vn -0.164078 0.161174 0.973191
vn -0.005639 0.133153 0.991080
vn -0.194489 0.878157 0.437052
vn 0.005639 0.133153 0.991080
vn 0.194489 0.878157 0.437052
vn -0.164078 0.161174 -0.973191
vn -0.706886 0.695420 -0.129243
vn -0.194489 0.878157 -0.437052
vn -0.005639 0.133153 -0.991080
vn 0.194489 0.878157 -0.437052
vn 0.005639 0.133153 -0.991080
vn 0.484637 0.057448 0.872827
vn 0.981753 0.135105 0.133822
vn 0.706886 0.695420 0.129243
vn 0.164078 0.161174 0.973191
vn 0.981753 0.135105 -0.133822
vn 0.484637 0.057448 -0.872827
vn 0.164078 0.161174 -0.973191
vn 0.706886 0.695420 -0.129243
vn 0.000000 0.000000 1.000000
vn -0.000000 0.000000 1.000000
vn -0.484637 0.057448 0.872827
vn -0.981753 0.135105 0.133822
vn -0.987132 0.043689 0.153826
vn -0.534498 0.013457 0.845063
vn -0.981753 0.135105 -0.133822
vn -0.987691 0.047745 -0.148955
vn -0.484637 0.057448 -0.872827
vn -0.526138 0.028041 -0.849937
vn -0.000000 0.000000 -1.000000
vn 0.000000 0.000000 -1.000000
vn 0.000000 0.000000 -1.000000
vn 0.526138 0.028041 -0.849937
vn -0.000000 0.000000 -1.000000
vn 0.987691 0.047745 -0.148955
vn 0.987132 0.043689 0.153826
vn 0.534497 0.013457 0.845063
vn -0.000000 0.000000 1.000000
vn 0.000000 0.000000 1.000000
vn 0.000000 -0.707107 0.707107
vn 0.000000 -0.707107 0.707107
vn -0.002175 -0.708586 0.705621
vn -0.002170 -0.708582 0.705625
vn 0.000000 -0.707107 0.707107
vn 0.000000 -0.707107 0.707107
vn 0.267749 -0.776652 0.570195
vn 0.311814 -0.780558 0.541758
vn 0.000000 -0.707106 -0.707107
vn 0.000000 -0.707106 -0.707107
vn 0.000000 -0.707106 -0.707107
vn 0.000000 -0.707106 -0.707107
vn -0.001634 -0.708985 -0.705222
vn -0.001636 -0.708987 -0.705220
vn 0.315731 -0.785166 -0.532755
vn 0.270154 -0.780728 -0.563455
vn 0.002170 -0.708582 0.705625
vn 0.002175 -0.708586 0.705621
vn 0.001636 -0.708987 -0.705219
vn 0.001634 -0.708985 -0.705222
vn -0.311814 -0.780558 0.541758
vn -0.267749 -0.776652 0.570195
vn -0.626781 -0.763161 0.157262
vn -0.648629 -0.752315 0.115342
vn -0.650613 -0.749979 -0.119313
vn -0.670303 -0.738228 -0.075579
vn -0.315732 -0.785166 -0.532755
vn -0.270155 -0.780728 -0.563454
vn 0.648629 -0.752315 0.115342
vn 0.626781 -0.763161 0.157262
vn 0.670303 -0.738228 -0.075579
vn 0.650612 -0.749979 -0.119313
vn -0.984969 -0.019514 0.171624
vn -0.434621 -0.055343 0.898911
vn -0.491985 0.013419 -0.870500
vn -0.989817 0.004187 -0.142285
vn 0.434621 -0.055343 0.898912
vn 0.984969 -0.019514 0.171624
vn 0.989817 0.004187 -0.142285
vn 0.491985 0.013419 -0.870500
vn 0.000000 0.000000 1.000000
vn -0.000000 0.000000 1.000000
vn 0.000000 0.000000 -1.000000
vn -0.000000 0.000000 -1.000000
vn 0.000000 0.000000 1.000000
vn -0.000000 0.000000 -1.000000
vn -0.000000 0.000000 1.000000
vn 0.000000 0.000000 -1.000000
vn 0.000000 1.000000 0.000000
vn 0.000000 1.000000 0.000000
vn 0.000000 1.000000 -0.000001
vn 0.000000 1.000000 -0.000001
vn 0.000000 1.000000 0.000000
vn 0.000000 1.000000 0.000000
vn 0.000000 1.000000 0.000001
vn 0.000000 1.000000 0.000001
vn 1.000000 0.000000 0.000000
vn 1.000000 0.000000 0.000000
vn 1.000000 0.000000 0.000000
vn 1.000000 0.000000 0.000000
vn 0.000000 0.000000 -1.000000
vn 0.000000 0.000000 -1.000000
vn 0.000000 0.000000 -1.000000
vn 0.000000 0.000000 -1.000000
vn -1.000000 0.000000 0.000000
vn -1.000000 0.000000 0.000000
vn -1.000000 0.000000 0.000000
vn -1.000000 0.000000 0.000000
vn 0.000000 0.000000 1.000000
vn 0.000000 0.000000 1.000000
vn 0.000000 0.000000 1.000000
vn 0.000000 0.000000 1.000000
f 32/31/1 33/21/2 3/24/3 4/32/4
f 4/32/4 3/24/3 13/30/5 14/6/6
f 30/62/7 31/61/8 7/67/9 8/69/10
f 8/69/10 7/67/9 15/5/11 16/75/12
f 9/7/13 10/3/14 38/2/15 39/8/16
f 11/4/17 12/11/18 36/12/19 37/1/20
f 32/60/1 4/66/4 7/67/9 31/61/8
f 37/1/20 38/2/15 10/3/14 11/4/17
f 33/21/2 34/22/21 17/23/22 3/24/3
f 1/25/23 2/33/24 19/34/25 18/26/26
f 5/52/27 20/53/28 19/54/25 2/55/24
f 5/52/27 6/56/29 21/57/30 20/53/28
f 30/62/7 8/69/10 22/70/31 29/71/32
f 23/74/33 22/70/31 8/69/10 16/75/12
f 24/16/34 35/83/35 36/12/19 12/11/18
f 12/11/18 11/4/17 25/10/36 24/16/34
f 10/3/14 26/9/37 25/10/36 11/4/17
f 27/13/38 26/9/37 10/3/14 9/7/13
f 40/39/39 27/13/38 9/7/13 39/8/16
f 17/23/22 28/29/40 13/30/5 3/24/3
f 6/56/29 30/62/7 29/71/32 21/57/30
f 6/56/29 5/52/27 31/61/8 30/62/7
f 2/55/24 32/60/1 31/61/8 5/52/27
f 2/33/24 1/25/23 33/21/2 32/31/1
f 1/25/23 18/26/26 34/22/21 33/21/2
f 36/12/19 35/83/35 23/74/33 16/75/12
f 37/1/20 36/12/19 16/75/12 15/5/11
f 15/5/11 14/6/6 38/2/15 37/1/20
f 39/8/16 38/2/15 14/6/6 13/30/5
f 28/29/40 40/39/39 39/8/16 13/30/5
f 41/38/41 42/44/42 44/49/43 43/45/44
f 42/44/42 41/38/41 49/28/45 50/36/46
f 43/45/44 44/49/43 70/51/47 69/17/48
f 45/81/49 46/87/50 52/84/51 51/76/52
f 46/87/50 45/81/49 47/88/53 48/68/54
f 48/68/54 47/88/53 71/20/55 72/73/56
f 50/36/46 49/28/45 55/27/57 56/37/58
f 51/76/52 52/84/51 64/85/59 63/77/60
f 53/35/61 54/43/62 56/37/58 55/27/57
f 54/43/62 53/35/61 58/42/63 57/79/64
f 57/64/64 58/59/63 60/58/65 59/65/66
f 59/65/66 60/58/65 61/63/67 62/86/68
f 62/86/68 61/63/67 63/77/60 64/85/59
f 65/18/69 66/14/70 69/17/48 70/51/47
f 66/14/70 65/18/69 67/19/71 68/15/72
f 68/15/72 67/19/71 72/73/56 71/20/55
f 18/26/26 19/34/25 58/42/73 53/35/74
f 20/53/28 21/57/30 61/63/75 60/58/76
f 69/17/77 66/14/78 26/9/37 27/13/38
f 24/16/34 25/10/36 68/15/79 71/20/80
f 34/22/21 55/27/81 49/28/82 17/23/22
f 29/71/32 22/70/31 51/76/83 63/77/84
f 26/9/37 66/14/78 68/15/79 25/10/36
f 20/53/28 60/58/76 58/59/73 19/54/25
f 43/45/85 69/17/77 27/13/38 40/39/39
f 47/88/86 35/83/35 24/16/34 71/20/80
f 49/28/82 41/38/87 28/29/40 17/23/22
f 51/76/83 22/70/31 23/74/33 45/81/88
f 21/57/30 29/71/32 63/77/84 61/63/75
f 18/26/26 53/35/74 55/27/81 34/22/21
f 45/81/88 23/74/33 35/83/35 47/88/86
f 41/38/87 43/45/85 40/39/39 28/29/40
f 7/67/9 4/66/4 73/78/89 74/47/90
f 4/32/4 14/6/6 75/80/91 73/41/92
f 14/6/6 15/5/11 76/48/93 75/80/94
f 15/5/11 7/67/9 74/47/95 76/48/96
f 74/47/97 73/78/98 77/72/99 78/46/100
f 73/41/101 75/80/102 79/50/103 77/82/104
f 75/80/105 76/48/106 80/40/107 79/50/108
f 76/48/109 74/47/110 78/46/111 80/40/112
