# This file uses meters as units for non-parametric coordinates.

v 6.400896 2.469049 13.257068
v 11.994199 2.453581 7.665806
v 12.021531 5.244337 7.724675
v 6.370162 5.245807 13.372099
v 0.000000 5.248351 15.460105
v 0.000000 2.471698 15.354951
v -6.370162 5.245807 13.372099
v -6.400896 2.469049 13.257068
v -12.021531 5.244337 7.724675
v -11.994199 2.453581 7.665806
v -14.091304 5.243940 0.000000
v -14.047875 2.448531 -0.000000
v -12.021531 5.244337 -7.724675
v -11.994199 2.453581 -7.665806
v -6.370162 5.245807 -13.372099
v -6.400896 2.469049 -13.257068
v -0.000000 5.248351 -15.460105
v 0.000000 2.471698 -15.354951
v 6.370162 5.245807 -13.372099
v 6.400896 2.469049 -13.257068
v 12.021531 5.244337 -7.724675
v 11.994199 2.453581 -7.665806
v 14.091304 5.243940 -0.000000
v 14.047875 2.448531 0.000000
v 6.599500 2.541499 13.588498
v 6.514815 2.455873 13.543422
v 12.324825 2.532125 7.858522
v 12.243743 2.445664 7.809799
v 6.571530 5.140435 13.692866
v 6.482377 5.232579 13.660152
v 12.349576 5.144899 7.912067
v 12.257846 5.236186 7.917977
v 0.000000 5.138878 15.829192
v 0.000000 5.232313 15.740579
v 0.000000 2.540048 15.733817
v 0.000000 2.455657 15.635428
v -6.571530 5.140435 13.692866
v -6.482377 5.232579 13.660152
v -6.599500 2.541499 13.588498
v -6.514815 2.455873 13.543422
v -12.349576 5.144899 7.912067
v -12.257846 5.236186 7.917977
v -12.324825 2.532125 7.858522
v -12.243743 2.445664 7.809799
v -14.469581 5.146394 0.000000
v -14.379428 5.237476 0.000000
v -14.430148 2.529011 -0.000000
v -14.336001 2.442066 -0.000000
v -12.349576 5.144899 -7.912067
v -12.257846 5.236186 -7.917977
v -12.324825 2.532125 -7.858522
v -12.243743 2.445664 -7.809799
v -6.571530 5.140435 -13.692866
v -6.482377 5.232579 -13.660152
v -6.599500 2.541499 -13.588498
v -6.514815 2.455873 -13.543422
v -0.000000 5.138878 -15.829192
v -0.000000 5.232313 -15.740579
v -0.000000 2.540048 -15.733817
v -0.000000 2.455657 -15.635428
v 6.571530 5.140435 -13.692866
v 6.482377 5.232579 -13.660152
v 6.599500 2.541499 -13.588498
v 6.514815 2.455873 -13.543422
v 12.349576 5.144899 -7.912067
v 12.257846 5.236186 -7.917977
v 12.324825 2.532125 -7.858522
v 12.243743 2.445664 -7.809799
v 14.469581 5.146394 -0.000000
v 14.379428 5.237476 -0.000000
v 14.430148 2.529011 0.000000
v 14.336001 2.442066 0.000000
vt 0.614439 0.025179
vt 0.614439 0.024250
vt 0.521630 0.023975
vt 0.521630 0.023481
vt 0.521630 0.025155
vt 0.521630 0.024067
vt 0.614439 0.020818
vt 0.521630 0.020743
vt 0.614439 0.022596
vt 0.614439 0.023654
vt 0.614439 0.025184
vt 0.614698 0.024233
vt 0.521630 0.020968
vt 0.614439 0.019363
vt 0.521630 0.022817
vt 0.521630 0.023884
vt 0.521630 0.025073
vt 0.521332 0.024010
vt 0.614121 0.020852
vt 0.521630 0.019584
vt 0.614439 0.023250
vt 0.614439 0.024180
vt 0.614439 0.024845
vt 0.614439 0.023788
vt 0.521768 0.020792
vt 0.614439 0.019818
vt 0.521630 0.023242
vt 0.521630 0.024329
vt 0.521630 0.024661
vt 0.521630 0.023595
vt 0.614439 0.020555
vt 0.521630 0.020143
vt 0.614439 0.023633
vt 0.614439 0.024561
vt 0.521630 0.020361
vt 0.614439 0.020201
vt 0.521630 0.048663
vt 0.614439 0.045318
vt 0.521630 0.045301
vt 0.521630 0.049422
vt 0.521630 0.025052
vt 0.521630 0.045370
vt 0.614439 0.046386
vt 0.521630 0.046386
vt 0.614439 0.045318
vt 0.614439 0.049825
vt 0.521630 0.046435
vt 0.614439 0.046386
vt 0.521630 0.045386
vt 0.521630 0.043788
vt 0.521630 0.046450
vt 0.521630 0.049832
vt 0.614439 0.048825
vt 0.614439 0.045206
vt 0.614439 0.049498
vt 0.614439 0.049825
vt 0.614439 0.046264
vt 0.521630 0.044975
vt 0.614439 0.045073
vt 0.521630 0.046039
vt 0.614439 0.044702
vt 0.521630 0.022423
vt 0.614439 0.045770
vt 0.521630 0.044847
vt 0.521630 0.048644
vt 0.521630 0.044474
vt 0.614439 0.049208
vt 0.614439 0.048307
vt 0.521630 0.045560
vt 0.614439 0.044319
vt 0.521630 0.049968
vt 0.614439 0.045387
vt 0.521630 0.044197
vt 0.521630 0.019191
vt 0.521630 0.045260
vt 0.521630 0.048082
vt 0.521630 0.049489
vt 0.614439 0.044014
vn 0.406443 -0.726138 0.554552
vn 0.343314 -0.718077 0.605393
vn 0.584904 -0.738357 0.335733
vn 0.583288 -0.738406 0.338424
vn -0.000000 -0.708814 0.705396
vn -0.000000 -0.708814 0.705396
vn 0.677411 -0.735605 0.000000
vn 0.677411 -0.735605 0.000000
vn 0.464873 0.629150 0.622947
vn 0.375765 0.626255 0.683086
vn -0.000000 0.628909 0.777479
vn -0.000000 0.628909 0.777479
vn 0.660168 0.680350 0.318281
vn 0.622907 0.664117 0.413443
vn 0.711135 0.703055 0.000000
vn 0.711135 0.703055 0.000000
vn -0.375765 0.626255 0.683086
vn -0.464873 0.629150 0.622947
vn -0.406442 -0.726138 0.554552
vn -0.343314 -0.718077 0.605393
vn -0.622907 0.664117 0.413443
vn -0.660168 0.680350 0.318281
vn -0.583288 -0.738406 0.338424
vn -0.584904 -0.738357 0.335733
vn -0.711135 0.703055 0.000000
vn -0.711135 0.703055 0.000000
vn -0.677411 -0.735605 -0.000000
vn -0.677411 -0.735605 -0.000000
vn -0.622907 0.664117 -0.413442
vn -0.660168 0.680350 -0.318280
vn -0.583289 -0.738406 -0.338424
vn -0.584904 -0.738357 -0.335733
vn -0.375765 0.626255 -0.683086
vn -0.464873 0.629150 -0.622947
vn -0.406442 -0.726138 -0.554552
vn -0.343314 -0.718077 -0.605393
vn 0.000000 0.628909 -0.777479
vn 0.000000 0.628909 -0.777479
vn 0.000000 -0.708814 -0.705396
vn 0.000000 -0.708814 -0.705396
vn 0.375765 0.626255 -0.683086
vn 0.464873 0.629150 -0.622947
vn 0.406442 -0.726138 -0.554552
vn 0.343314 -0.718077 -0.605393
vn 0.622907 0.664117 -0.413443
vn 0.660168 0.680350 -0.318281
vn 0.583288 -0.738406 -0.338424
vn 0.584904 -0.738357 -0.335733
vn 0.535403 -0.028258 0.844124
vn 0.542907 -0.027989 0.839326
vn 0.867549 -0.018325 0.497014
vn 0.865376 -0.018379 0.500787
vn 0.000000 -0.036655 0.999328
vn 0.000000 -0.036655 0.999328
vn -0.535403 -0.028258 0.844124
vn -0.542907 -0.027989 0.839326
vn -0.865376 -0.018379 0.500787
vn -0.867549 -0.018325 0.497014
vn -0.999887 -0.015014 0.000000
vn -0.999887 -0.015014 0.000000
vn -0.865376 -0.018379 -0.500787
vn -0.867549 -0.018325 -0.497014
vn -0.535403 -0.028258 -0.844124
vn -0.542907 -0.027989 -0.839327
vn 0.000000 -0.036655 -0.999328
vn 0.000000 -0.036655 -0.999328
vn 0.535403 -0.028258 -0.844124
vn 0.542907 -0.027989 -0.839326
vn 0.865376 -0.018379 -0.500787
vn 0.867549 -0.018325 -0.497014
vn 0.999887 -0.015014 0.000000
vn 0.999887 -0.015014 0.000000
vn -0.026443 -0.999524 -0.015876
vn -0.021481 -0.999064 -0.037551
vn -0.022805 -0.999126 -0.035025
vn -0.026443 -0.999524 -0.015879
vn 0.020551 0.999087 0.037452
vn 0.025481 0.999518 0.017752
vn 0.025455 0.999552 0.015749
vn 0.021666 0.999156 0.034885
vn 0.000000 0.998833 0.048293
vn 0.000000 0.998833 0.048293
vn -0.000000 -0.998833 -0.048295
vn -0.000000 -0.998833 -0.048295
vn -0.020551 0.999087 0.037451
vn -0.021666 0.999157 0.034885
vn 0.021481 -0.999064 -0.037552
vn 0.022805 -0.999126 -0.035025
vn -0.025481 0.999518 0.017752
vn -0.025455 0.999552 0.015749
vn 0.026443 -0.999524 -0.015877
vn 0.026444 -0.999524 -0.015879
vn -0.025337 0.999679 0.000000
vn -0.025337 0.999679 0.000000
vn 0.025089 -0.999685 -0.000000
vn 0.025089 -0.999685 -0.000000
vn -0.025481 0.999518 -0.017752
vn -0.025455 0.999552 -0.015749
vn 0.026443 -0.999524 0.015876
vn 0.026443 -0.999524 0.015879
vn -0.020551 0.999087 -0.037452
vn -0.021666 0.999156 -0.034885
vn 0.021481 -0.999064 0.037551
vn 0.022805 -0.999126 0.035025
vn 0.000000 0.998833 -0.048293
vn 0.000000 0.998833 -0.048293
vn 0.000000 -0.998833 0.048295
vn 0.000000 -0.998833 0.048295
vn 0.020551 0.999087 -0.037451
vn 0.021666 0.999157 -0.034885
vn -0.021481 -0.999064 0.037552
vn -0.022805 -0.999126 0.035025
vn 0.025481 0.999518 -0.017752
vn 0.025455 0.999552 -0.015749
vn -0.026443 -0.999524 0.015877
vn -0.026444 -0.999524 0.015879
vn 0.025337 0.999679 -0.000000
vn 0.025337 0.999679 -0.000000
vn -0.025089 -0.999685 0.000000
vn -0.025089 -0.999685 0.000000
f 25/1/1 26/2/2 28/3/3 27/41/4
f 26/2/2 25/1/1 35/5/5 36/6/6
f 27/4/4 28/62/3 72/9/7 71/10/8
f 29/38/9 30/43/10 34/44/11 33/39/12
f 30/43/10 29/38/9 31/42/13 32/47/14
f 32/64/14 31/50/13 69/78/15 70/59/16
f 33/39/12 34/44/11 38/48/17 37/45/18
f 36/6/6 35/5/5 39/11/19 40/12/20
f 37/45/18 38/48/17 42/51/21 41/49/22
f 40/12/20 39/11/19 43/17/23 44/18/24
f 41/49/22 42/51/21 46/57/25 45/54/26
f 44/18/24 43/17/23 47/23/27 48/24/28
f 45/54/26 46/57/25 50/60/29 49/58/30
f 48/24/28 47/23/27 51/29/31 52/30/32
f 49/58/30 50/60/29 54/63/33 53/61/34
f 52/30/32 51/29/31 55/34/35 56/33/36
f 53/61/34 54/63/33 58/69/37 57/66/38
f 56/33/36 55/34/35 59/28/39 60/27/40
f 57/66/38 58/69/37 62/72/41 61/70/42
f 60/27/40 59/28/39 63/22/43 64/21/44
f 61/70/42 62/72/41 66/75/45 65/73/46
f 64/21/44 63/22/43 67/16/47 68/15/48
f 65/73/46 66/75/45 70/59/16 69/78/15
f 68/15/48 67/16/47 71/10/8 72/9/7
f 29/38/49 25/1/50 27/41/51 31/42/52
f 25/1/50 29/38/49 33/39/53 35/5/54
f 35/5/54 33/39/53 37/45/55 39/11/56
f 39/11/56 37/45/55 41/49/57 43/17/58
f 43/17/58 41/49/57 45/54/59 47/23/60
f 47/23/60 45/54/59 49/58/61 51/29/62
f 51/29/62 49/58/61 53/61/63 55/34/64
f 55/34/64 53/61/63 57/66/65 59/28/66
f 59/28/66 57/66/65 61/70/67 63/22/68
f 63/22/68 61/70/67 65/73/69 67/16/70
f 67/16/70 65/73/69 69/78/71 71/10/72
f 71/10/72 69/78/71 31/50/52 27/4/51
f 28/3/73 26/2/74 1/7/75 2/8/76
f 30/43/77 32/47/78 3/71/79 4/46/80
f 34/44/81 30/43/77 4/46/80 5/77/82
f 26/2/74 36/6/83 6/13/84 1/7/75
f 38/48/85 34/44/81 5/77/82 7/56/86
f 36/6/83 40/12/87 8/19/88 6/13/84
f 42/51/89 38/48/85 7/56/86 9/52/90
f 40/12/87 44/18/91 10/25/92 8/19/88
f 46/57/93 42/51/89 9/52/90 11/55/94
f 44/18/91 48/24/95 12/31/96 10/25/92
f 50/60/97 46/57/93 11/55/94 13/40/98
f 48/24/95 52/30/99 14/35/100 12/31/96
f 54/63/101 50/60/97 13/40/98 15/67/102
f 52/30/99 56/33/103 16/36/104 14/35/100
f 58/69/105 54/63/101 15/67/102 17/37/106
f 56/33/103 60/27/107 18/32/108 16/36/104
f 62/72/109 58/69/105 17/37/106 19/53/110
f 60/27/107 64/21/111 20/26/112 18/32/108
f 66/75/113 62/72/109 19/53/110 21/65/114
f 64/21/111 68/15/115 22/20/116 20/26/112
f 70/59/117 66/75/113 21/65/114 23/68/118
f 68/15/115 72/9/119 24/14/120 22/20/116
f 32/64/78 70/59/117 23/68/118 3/76/79
f 72/9/119 28/62/73 2/74/76 24/14/120
