# This file uses meters as units for non-parametric coordinates.

v 0.000000 -0.000000 -0.000000
v 6.495381 4.802626 13.576390
v 0.000000 4.802600 15.694408
v -6.495381 4.802626 13.576390
v -12.227836 4.804921 7.843727
v -14.329514 4.805725 0.000000
v -12.227836 4.804921 -7.843727
v -6.495381 4.802626 -13.576390
v -0.000000 4.802600 -15.694408
v 6.495381 4.802626 -13.576390
v 12.227836 4.804921 -7.843727
v 14.329514 4.805725 -0.000000
v 12.227836 4.804921 7.843727
v 8.784227 26.811400 -5.071576
v 9.828749 25.578974 -5.708561
v 5.071576 26.811400 -8.784227
v 5.638877 25.583113 -9.897955
v 0.000000 26.811400 -10.143153
v 0.000000 25.583129 -11.409000
v -5.071576 26.811400 -8.784227
v -5.638877 25.583113 -9.897955
v -8.784227 26.811400 -5.071576
v -9.828749 25.578974 -5.708561
v -10.143153 26.811400 -0.000000
v -11.358459 25.577500 -0.000000
v -8.784227 26.811400 5.071576
v -9.828749 25.578974 5.708561
v -5.071576 26.811400 8.784227
v -5.638877 25.583113 9.897955
v 0.000000 26.811400 10.143153
v -0.000000 25.583129 11.409000
v 5.071576 26.811400 8.784227
v 5.638877 25.583113 9.897955
v 8.784227 26.811400 5.071576
v 9.828749 25.578974 5.708561
v 10.143153 26.811400 -0.000000
v 11.358459 25.577500 0.000000
v 6.405673 1.415106 -11.094951
v 11.094951 1.415106 -6.405673
v 0.000000 1.415106 -0.000000
v 0.000000 1.415106 -12.811346
v -6.405673 1.415106 -11.094951
v -11.094951 1.415106 -6.405673
v -12.811346 1.415106 -0.000000
v -11.094951 1.415106 6.405673
v -6.405673 1.415106 11.094951
v 0.000000 1.415106 12.811346
v 6.405673 1.415106 11.094951
v 11.094951 1.415106 6.405673
v 12.811346 1.415106 -0.000000
v -11.250276 15.191934 -7.102697
v -13.153473 15.191582 -0.000000
v -11.250276 15.191934 7.102697
v -6.050027 15.192900 12.302806
v -0.000000 15.192896 14.204783
v 6.050027 15.192900 12.302806
v 11.250276 15.191934 7.102697
v 13.153473 15.191582 0.000000
v 11.250276 15.191934 -7.102697
v 6.050027 15.192900 -12.302806
v 0.000000 15.192896 -14.204783
v -6.050027 15.192900 -12.302806
v 10.928893 -0.000000 -6.834271
v 12.062994 1.199080 -7.553926
v 5.910265 -0.000000 -11.852902
v 6.510829 1.191892 -13.105189
v 0.000000 -0.000000 -13.656219
v 0.000000 1.191944 -15.091357
v -5.910265 -0.000000 -11.852902
v -6.510829 1.191892 -13.105189
v -10.928893 -0.000000 -6.834271
v -12.062994 1.199080 -7.553926
v -12.760131 -0.000000 -0.000000
v -14.087212 1.201310 -0.000000
v -10.928893 -0.000000 6.834271
v -12.062994 1.199080 7.553926
v -5.910265 -0.000000 11.852902
v -6.510829 1.191892 13.105189
v 0.000000 -0.000000 13.656219
v -0.000000 1.191944 15.091357
v 5.910265 -0.000000 11.852902
v 6.510829 1.191892 13.105189
v 10.928893 -0.000000 6.834271
v 12.062994 1.199080 7.553926
v 12.760131 -0.000000 -0.000000
v 14.087212 1.201310 -0.000000
vt 0.588651 0.926122
vt 0.589377 0.926600
vt 0.586257 0.929721
vt 0.585828 0.928944
vt 0.589393 0.926584
vt 0.589685 0.922265
vt 0.590541 0.922300
vt 0.586208 0.929734
vt 0.581972 0.930869
vt 0.581972 0.929978
vt 0.577737 0.929734
vt 0.578116 0.928944
vt 0.577688 0.929721
vt 0.574568 0.926600
vt 0.575293 0.926122
vt 0.574551 0.926584
vt 0.573403 0.922300
vt 0.574260 0.922265
vt 0.574551 0.918015
vt 0.575293 0.918409
vt 0.574568 0.917999
vt 0.577688 0.914879
vt 0.578116 0.915586
vt 0.577737 0.914865
vt 0.581972 0.913730
vt 0.581972 0.914553
vt 0.586208 0.914865
vt 0.585828 0.915586
vt 0.586257 0.914879
vt 0.589377 0.917999
vt 0.588651 0.918409
vt 0.589393 0.918015
vt 0.588651 0.926122
vt 0.585828 0.928944
vt 0.581972 0.921957
vt 0.581972 0.929978
vt 0.578116 0.928944
vt 0.575293 0.926122
vt 0.574260 0.922265
vt 0.575293 0.918409
vt 0.578116 0.915586
vt 0.581972 0.914553
vt 0.585828 0.915586
vt 0.588651 0.918409
vt 0.589685 0.922265
vt 0.570293 0.926082
vt 0.570255 0.924841
vt 0.570293 0.923600
vt 0.570259 0.922359
vt 0.570260 0.921118
vt 0.570259 0.919877
vt 0.570293 0.918636
vt 0.570255 0.917395
vt 0.570293 0.916154
vt 0.570259 0.914913
vt 0.588280 0.929805
vt 0.570259 0.929805
vt 0.570260 0.928564
vt 0.570259 0.927323
vt 0.579270 0.919877
vt 0.579270 0.921118
vt 0.579270 0.922359
vt 0.579271 0.923600
vt 0.579269 0.924841
vt 0.579271 0.926082
vt 0.579270 0.927323
vt 0.579270 0.928564
vt 0.579270 0.914913
vt 0.579270 0.929805
vt 0.579271 0.916154
vt 0.579269 0.917395
vt 0.579271 0.918636
vt 0.588296 0.918275
vt 0.588276 0.918255
vt 0.585464 0.915443
vt 0.585397 0.915425
vt 0.581596 0.914406
vt 0.577795 0.915425
vt 0.577727 0.915443
vt 0.574915 0.918255
vt 0.574895 0.918275
vt 0.573859 0.922143
vt 0.574895 0.926012
vt 0.574915 0.926032
vt 0.577727 0.928844
vt 0.577795 0.928862
vt 0.581596 0.929880
vt 0.585397 0.928862
vt 0.585464 0.928844
vt 0.588276 0.926032
vt 0.588296 0.926012
vt 0.589333 0.922143
vt 0.587695 0.918571
vt 0.585087 0.915969
vt 0.581596 0.915033
vt 0.578104 0.915969
vt 0.575496 0.918571
vt 0.574547 0.922116
vt 0.575496 0.925662
vt 0.578104 0.928266
vt 0.581596 0.929201
vt 0.585087 0.928266
vt 0.587695 0.925662
vt 0.581596 0.921834
vt 0.588644 0.922116
vt 0.588248 0.926082
vt 0.590892 0.927323
vt 0.588282 0.924841
vt 0.590877 0.926082
vt 0.588248 0.923600
vt 0.590899 0.924840
vt 0.588280 0.922359
vt 0.590877 0.923600
vt 0.588279 0.921118
vt 0.590892 0.922359
vt 0.588280 0.919877
vt 0.590890 0.921118
vt 0.588248 0.918636
vt 0.590892 0.919877
vt 0.588282 0.917395
vt 0.590877 0.918636
vt 0.588248 0.916154
vt 0.590899 0.917394
vt 0.588280 0.914913
vt 0.590892 0.914913
vt 0.590878 0.916154
vt 0.588980 0.929790
vt 0.588279 0.928564
vt 0.591066 0.929801
vt 0.588280 0.927323
vt 0.590890 0.928564
vn 0.615603 0.704545 -0.353056
vn 0.613541 0.704601 -0.356517
vn 0.347355 0.712622 -0.609520
vn 0.355184 0.712373 -0.605285
vn 0.712272 0.701904 -0.000000
vn 0.712272 0.701904 -0.000000
vn -0.000000 0.717662 -0.696392
vn -0.000000 0.717662 -0.696392
vn -0.347355 0.712622 -0.609520
vn -0.355184 0.712373 -0.605285
vn -0.613541 0.704601 -0.356517
vn -0.615603 0.704545 -0.353056
vn -0.712272 0.701904 0.000000
vn -0.712272 0.701904 0.000000
vn -0.613541 0.704601 0.356517
vn -0.615603 0.704545 0.353056
vn -0.347355 0.712622 0.609520
vn -0.355184 0.712373 0.605285
vn 0.000000 0.717662 0.696392
vn 0.000000 0.717662 0.696392
vn 0.347355 0.712622 0.609520
vn 0.355184 0.712373 0.605285
vn 0.613541 0.704601 0.356517
vn 0.615603 0.704545 0.353056
vn 0.000000 1.000000 0.000000
vn 0.000000 1.000000 0.000000
vn 0.000000 1.000000 0.000000
vn 0.000000 1.000000 0.000000
vn 0.000000 1.000000 0.000000
vn 0.000000 1.000000 0.000000
vn 0.000000 1.000000 0.000000
vn 0.000000 1.000000 0.000000
vn 0.000000 1.000000 0.000000
vn 0.000000 1.000000 0.000000
vn 0.000000 1.000000 0.000000
vn 0.000000 1.000000 0.000000
vn 0.000000 1.000000 0.000000
vn 0.000000 0.190106 0.981764
vn 0.517775 0.170157 0.838424
vn 0.516627 0.217840 0.828035
vn 0.000000 0.248041 0.968749
vn -0.517775 0.170157 0.838424
vn -0.516627 0.217840 0.828035
vn -0.855531 0.146498 0.496594
vn -0.855089 0.182170 0.485424
vn -0.990336 0.138690 0.000000
vn -0.985392 0.170300 0.000000
vn -0.855531 0.146498 -0.496594
vn -0.855089 0.182170 -0.485424
vn -0.517775 0.170157 -0.838424
vn -0.516627 0.217840 -0.828035
vn 0.000000 0.190106 -0.981764
vn 0.000000 0.248041 -0.968749
vn 0.517775 0.170157 -0.838424
vn 0.516627 0.217840 -0.828035
vn 0.855531 0.146498 -0.496594
vn 0.855089 0.182170 -0.485424
vn 0.990336 0.138690 0.000000
vn 0.985392 0.170300 0.000000
vn 0.855531 0.146498 0.496594
vn 0.855089 0.182170 0.485424
vn -0.861285 -0.104487 0.497263
vn -0.497263 -0.104487 0.861285
vn -0.497263 -0.104487 0.861285
vn -0.861285 -0.104487 0.497263
vn 0.000000 -0.104487 0.994526
vn 0.000000 -0.104487 0.994526
vn 0.497263 -0.104487 0.861285
vn 0.497263 -0.104487 0.861285
vn 0.861285 -0.104487 0.497263
vn 0.861285 -0.104487 0.497263
vn 0.994526 -0.104487 0.000000
vn 0.994526 -0.104487 0.000000
vn 0.861285 -0.104487 -0.497263
vn 0.861285 -0.104487 -0.497263
vn 0.497263 -0.104487 -0.861285
vn 0.497263 -0.104487 -0.861285
vn 0.000000 -0.104487 -0.994526
vn 0.000000 -0.104487 -0.994526
vn -0.497263 -0.104487 -0.861285
vn -0.497263 -0.104487 -0.861285
vn -0.861285 -0.104487 -0.497263
vn -0.861285 -0.104487 -0.497263
vn -0.994526 -0.104487 0.000000
vn -0.994526 -0.104487 0.000000
vn -0.862255 0.064800 -0.502311
vn -0.997866 0.065296 0.000000
vn -0.862256 0.064800 0.502311
vn -0.530522 0.063069 0.845321
vn 0.000000 0.063712 0.997968
vn 0.530522 0.063069 0.845321
vn 0.862256 0.064800 0.502311
vn 0.997866 0.065296 -0.000000
vn 0.862256 0.064800 -0.502311
vn 0.530522 0.063069 -0.845321
vn 0.000000 0.063712 -0.997968
vn -0.530522 0.063069 -0.845321
vn 0.578475 -0.745915 -0.330117
vn 0.574797 -0.746082 -0.336109
vn 0.670797 -0.741641 0.000000
vn 0.670798 -0.741641 0.000000
vn 0.352583 -0.755987 -0.551516
vn 0.339620 -0.756828 -0.558454
vn 0.000000 -0.769323 -0.638861
vn 0.000000 -0.769323 -0.638861
vn -0.352583 -0.755987 -0.551516
vn -0.339620 -0.756827 -0.558454
vn -0.578475 -0.745915 -0.330117
vn -0.574797 -0.746082 -0.336109
vn -0.670798 -0.741641 -0.000000
vn -0.670798 -0.741641 -0.000000
vn -0.578476 -0.745915 0.330117
vn -0.574798 -0.746082 0.336109
vn -0.352583 -0.755987 0.551516
vn -0.339620 -0.756828 0.558454
vn 0.000000 -0.769323 0.638861
vn -0.000000 -0.769323 0.638861
vn 0.352583 -0.755987 0.551516
vn 0.339620 -0.756827 0.558454
vn 0.578475 -0.745915 0.330117
vn 0.574797 -0.746082 0.336109
vn 0.000000 -1.000000 0.000000
vn 0.000000 -1.000000 -0.000000
vn 0.000000 -1.000000 0.000000
vn 0.000000 -1.000000 -0.000000
vn 0.000000 -1.000000 0.000000
vn 0.000000 -1.000000 0.000000
vn 0.000000 -1.000000 0.000000
vn 0.000000 -1.000000 0.000000
vn 0.000000 -1.000000 -0.000000
vn 0.000000 -1.000000 0.000000
vn 0.000000 -1.000000 -0.000000
vn 0.000000 -1.000000 -0.000000
vn 0.000000 -1.000000 0.000000
vn 0.540182 -0.114582 0.833711
vn 0.866879 -0.079204 0.492186
vn 0.000000 -0.146487 0.989213
vn -0.540182 -0.114582 0.833711
vn -0.866879 -0.079204 0.492186
vn -0.997747 -0.067085 0.000000
vn -0.866879 -0.079204 -0.492186
vn -0.540182 -0.114582 -0.833711
vn 0.000000 -0.146487 -0.989213
vn 0.540182 -0.114582 -0.833711
vn 0.866879 -0.079204 -0.492186
vn 0.997747 -0.067085 -0.000000
f 14/1/1 15/2/2 17/3/3 16/4/4
f 15/5/2 14/1/1 36/6/5 37/7/6
f 16/4/4 17/8/3 19/9/7 18/10/8
f 18/10/8 19/9/7 21/11/9 20/12/10
f 20/12/10 21/13/9 23/14/11 22/15/12
f 22/15/12 23/16/11 25/17/13 24/18/14
f 24/18/14 25/17/13 27/19/15 26/20/16
f 26/20/16 27/21/15 29/22/17 28/23/18
f 28/23/18 29/24/17 31/25/19 30/26/20
f 30/26/20 31/25/19 33/27/21 32/28/22
f 32/28/22 33/29/21 35/30/23 34/31/24
f 34/31/24 35/32/23 37/7/6 36/6/5
f 39/33/25 38/34/26 40/35/27
f 38/34/26 41/36/28 40/35/27
f 41/36/28 42/37/29 40/35/27
f 42/37/29 43/38/30 40/35/27
f 43/38/30 44/39/31 40/35/27
f 44/39/31 45/40/32 40/35/27
f 45/40/32 46/41/33 40/35/27
f 46/41/33 47/42/34 40/35/27
f 47/42/34 48/43/35 40/35/27
f 48/43/35 49/44/36 40/35/27
f 49/44/36 50/45/37 40/35/27
f 50/45/37 39/33/25 40/35/27
f 55/64/38 56/65/39 33/46/40 31/47/41
f 54/63/42 55/64/38 31/47/41 29/48/43
f 53/62/44 54/63/42 29/48/43 27/49/45
f 52/61/46 53/62/44 27/49/45 25/50/47
f 51/60/48 52/61/46 25/50/47 23/51/49
f 62/72/50 51/60/48 23/51/49 21/52/51
f 61/71/52 62/72/50 21/52/51 19/53/53
f 60/70/54 61/71/52 19/53/53 17/54/55
f 59/68/56 60/70/54 17/54/55 15/55/57
f 58/67/58 59/69/56 15/57/57 37/58/59
f 57/66/60 58/67/58 37/58/59 35/59/61
f 56/65/39 57/66/60 35/59/61 33/46/40
f 14/1/62 16/4/63 38/34/64 39/33/65
f 16/4/63 18/10/66 41/36/67 38/34/64
f 18/10/66 20/12/68 42/37/69 41/36/67
f 20/12/68 22/15/70 43/38/71 42/37/69
f 22/15/70 24/18/72 44/39/73 43/38/71
f 24/18/72 26/20/74 45/40/75 44/39/73
f 26/20/74 28/23/76 46/41/77 45/40/75
f 28/23/76 30/26/78 47/42/79 46/41/77
f 30/26/78 32/28/80 48/43/81 47/42/79
f 32/28/80 34/31/82 49/44/83 48/43/81
f 34/31/82 36/6/84 50/45/85 49/44/83
f 36/6/84 14/1/62 39/33/65 50/45/85
f 7/116/86 6/114/87 52/61/46 51/60/48
f 6/114/87 5/112/88 53/62/44 52/61/46
f 5/112/88 4/110/89 54/63/42 53/62/44
f 4/110/89 3/108/90 55/64/38 54/63/42
f 3/108/90 2/106/91 56/65/39 55/64/38
f 2/106/91 13/130/92 57/66/60 56/65/39
f 13/130/92 12/128/93 58/67/58 57/66/60
f 12/128/93 11/56/94 59/69/56 58/67/58
f 11/124/94 10/122/95 60/70/54 59/68/56
f 10/122/95 9/120/96 61/71/52 60/70/54
f 9/120/96 8/118/97 62/72/50 61/71/52
f 8/118/97 7/116/86 51/60/48 62/72/50
f 63/93/98 64/73/99 86/92/100 85/105/101
f 64/74/99 63/93/98 65/94/102 66/75/103
f 66/76/103 65/94/102 67/95/104 68/77/105
f 68/77/105 67/95/104 69/96/106 70/78/107
f 70/79/107 69/96/106 71/97/108 72/80/109
f 72/81/109 71/97/108 73/98/110 74/82/111
f 74/82/111 73/98/110 75/99/112 76/83/113
f 76/84/113 75/99/112 77/100/114 78/85/115
f 78/86/115 77/100/114 79/101/116 80/87/117
f 80/87/117 79/101/116 81/102/118 82/88/119
f 82/89/119 81/102/118 83/103/120 84/90/121
f 84/91/121 83/103/120 85/105/101 86/92/100
f 65/94/122 63/93/123 1/104/124
f 67/95/125 65/94/122 1/104/124
f 69/96/126 67/95/125 1/104/124
f 71/97/127 69/96/126 1/104/124
f 73/98/128 71/97/127 1/104/124
f 75/99/129 73/98/128 1/104/124
f 77/100/130 75/99/129 1/104/124
f 79/101/131 77/100/130 1/104/124
f 81/102/132 79/101/131 1/104/124
f 83/103/133 81/102/132 1/104/124
f 85/105/134 83/103/133 1/104/124
f 63/93/123 85/105/134 1/104/124
f 13/130/92 2/106/91 82/109/135 84/107/136
f 2/106/91 3/108/90 80/111/137 82/109/135
f 3/108/90 4/110/89 78/113/138 80/111/137
f 4/110/89 5/112/88 76/115/139 78/113/138
f 5/112/88 6/114/87 74/117/140 76/115/139
f 6/114/87 7/116/86 72/119/141 74/117/140
f 7/116/86 8/118/97 70/121/142 72/119/141
f 8/118/97 9/120/96 68/123/143 70/121/142
f 9/120/96 10/122/95 66/126/144 68/123/143
f 10/122/95 11/124/94 64/125/145 66/126/144
f 11/127/94 12/128/93 86/131/146 64/129/145
f 12/128/93 13/130/92 84/107/136 86/131/146
