# This file uses meters as units for non-parametric coordinates.

v 1.380426 48.709354 39.945366
v -0.000001 49.281086 39.945366
v -1.380427 48.709354 39.945366
v -1.952145 47.328934 39.945366
v -1.380427 45.948513 39.945366
v -0.000001 45.376759 39.945366
v 1.380440 45.948486 39.945366
v 1.952143 47.328934 39.945366
v -0.000001 47.328934 41.475769
v 1.380426 48.709354 41.263241
v 1.104328 48.433258 41.475769
v -0.000001 49.281086 41.263241
v -0.000001 48.890636 41.475769
v -1.380427 48.709354 41.263241
v -1.104329 48.433258 41.475769
v -1.952145 47.328934 41.263241
v -1.561698 47.328934 41.475769
v -1.380427 45.948513 41.263241
v -1.104327 46.224598 41.475769
v -0.000001 45.376759 41.263241
v 0.000002 45.767197 41.475769
v 1.380440 45.948486 41.263241
v 1.104339 46.224590 41.475769
v 1.952143 47.328934 41.263241
v 1.561698 47.328934 41.475769
v -2.886695 50.581272 39.945366
v -3.699953 50.918098 39.945366
v -4.513212 50.581272 39.945366
v -4.850031 49.768017 39.945366
v -4.513212 48.954762 39.945366
v -3.699953 48.617920 39.945366
v -2.886686 48.954746 39.945366
v -2.549875 49.768017 39.945366
v -3.699953 49.768017 42.361500
v -2.886695 50.581272 42.148972
v -3.049354 50.418613 42.361500
v -3.699953 50.918098 42.148972
v -3.699953 50.688072 42.361500
v -4.513212 50.581272 42.148972
v -4.350553 50.418613 42.361500
v -4.850031 49.768017 42.148972
v -4.620005 49.768017 42.361500
v -4.513212 48.954762 42.148972
v -4.350552 49.117413 42.361500
v -3.699953 48.617920 42.148972
v -3.699952 48.847942 42.361500
v -2.886686 48.954746 42.148972
v -3.049347 49.117409 42.361500
v -2.549875 49.768017 42.148972
v -2.779901 49.768017 42.361500
v 2.886695 50.581272 39.945366
v 3.699953 50.918095 39.945366
v 4.513211 50.581272 39.945366
v 4.850031 49.768017 39.945366
v 4.513211 48.954762 39.945366
v 3.699953 48.617916 39.945366
v 2.886686 48.954746 39.945366
v 2.549875 49.768017 39.945366
v 3.699953 49.768017 42.361500
v 2.886695 50.581272 42.148972
v 3.049354 50.418613 42.361500
v 3.699953 50.918098 42.148972
v 3.699953 50.688072 42.361500
v 4.513211 50.581272 42.148972
v 4.350553 50.418613 42.361500
v 4.850031 49.768017 42.148972
v 4.620005 49.768017 42.361500
v 4.513211 48.954762 42.148972
v 4.350552 49.117413 42.361500
v 3.699953 48.617920 42.148972
v 3.699952 48.847942 42.361496
v 2.886686 48.954746 42.148972
v 3.049347 49.117409 42.361500
v 2.549875 49.768017 42.148972
v 2.779901 49.768017 42.361500
v 4.412708 62.436230 39.877819
v 1.685504 63.438580 39.877819
v -1.685505 63.438580 39.877819
v -4.412709 62.436230 39.877819
v -5.454408 60.814396 39.877819
v -4.412708 59.192562 39.877819
v -1.685504 58.190212 39.877819
v 1.685505 58.190212 39.877819
v 4.412708 59.192562 39.877819
v 5.454407 60.814396 39.877819
v 0.000000 60.814396 40.831802
v 4.412708 62.436230 40.593330
v 4.191789 62.160812 40.831802
v 1.685504 63.438580 40.593330
v 1.625940 63.103855 40.831802
v -1.685505 63.438580 40.593330
v -1.625941 63.103855 40.831802
v -4.412709 62.436230 40.593330
v -4.191789 62.160812 40.831802
v -5.454408 60.814396 40.593330
v -5.056587 60.814396 40.831802
v -4.412708 59.192562 40.593330
v -4.191789 59.467979 40.831802
v -1.685504 58.190212 40.593330
v -1.625940 58.524937 40.831802
v 1.685505 58.190212 40.593330
v 1.625941 58.524937 40.831802
v 4.412708 59.192562 40.593330
v 4.191789 59.467979 40.831802
v 5.454407 60.814396 40.593330
v 5.056586 60.814396 40.831802
vt 0.322848 0.990657
vt 0.321372 0.990518
vt 0.321372 0.989263
vt 0.321372 0.979643
vt 0.321372 0.980898
vt 0.461321 0.985510
vt 0.321372 0.982292
vt 0.460227 0.982144
vt 0.321372 0.983686
vt 0.456982 0.979775
vt 0.321372 0.985080
vt 0.452868 0.979775
vt 0.321372 0.986475
vt 0.449623 0.982144
vt 0.321372 0.987869
vt 0.448529 0.985510
vt 0.449623 0.988877
vt 0.338145 0.979503
vt 0.322848 0.979503
vt 0.338145 0.980898
vt 0.322848 0.980898
vt 0.338145 0.982292
vt 0.322848 0.982292
vt 0.338145 0.983686
vt 0.322848 0.983686
vt 0.338145 0.985080
vt 0.322848 0.985080
vt 0.338145 0.986475
vt 0.322848 0.986475
vt 0.338145 0.987869
vt 0.322848 0.987869
vt 0.338145 0.989263
vt 0.338145 0.990657
vt 0.322848 0.989263
vt 0.688478 0.100249
vt 0.683175 0.098053
vt 0.680978 0.092750
vt 0.683175 0.087446
vt 0.688478 0.085250
vt 0.693781 0.087446
vt 0.695978 0.092750
vt 0.693781 0.098053
vt 0.688478 0.092450
vt 0.322848 0.990657
vt 0.321372 0.990518
vt 0.321372 0.989263
vt 0.322848 0.989263
vt 0.321372 0.979643
vt 0.322848 0.979503
vt 0.322848 0.980898
vt 0.321372 0.980898
vt 0.452868 0.991225
vt 0.322848 0.982292
vt 0.321372 0.982292
vt 0.454925 0.985255
vt 0.322848 0.983686
vt 0.321372 0.983686
vt 0.456982 0.991225
vt 0.322848 0.985080
vt 0.321372 0.985080
vt 0.460227 0.988877
vt 0.322848 0.986475
vt 0.321372 0.986475
vt 0.462479 0.982386
vt 0.322848 0.987869
vt 0.321372 0.987869
vt 0.461181 0.982385
vt 0.459883 0.982385
vt 0.338145 0.979503
vt 0.338145 0.980898
vt 0.338145 0.982292
vt 0.338145 0.983686
vt 0.338145 0.985080
vt 0.338145 0.986475
vt 0.338145 0.987869
vt 0.338145 0.989263
vt 0.338145 0.990657
vt 0.693781 0.098053
vt 0.688478 0.100249
vt 0.688478 0.092450
vt 0.683175 0.098053
vt 0.680978 0.092750
vt 0.683175 0.087446
vt 0.688478 0.085250
vt 0.693781 0.087446
vt 0.695978 0.092750
vt 0.322848 0.990657
vt 0.322848 0.989263
vt 0.321372 0.989263
vt 0.321372 0.990518
vt 0.321372 0.979643
vt 0.321372 0.980898
vt 0.322848 0.980898
vt 0.322848 0.979503
vt 0.458585 0.982385
vt 0.321372 0.982292
vt 0.322848 0.982292
vt 0.457286 0.982385
vt 0.321372 0.983686
vt 0.322848 0.983686
vt 0.455988 0.982385
vt 0.321372 0.985080
vt 0.322848 0.985080
vt 0.454690 0.982385
vt 0.321372 0.986475
vt 0.322848 0.986475
vt 0.453392 0.982385
vt 0.321372 0.987869
vt 0.322848 0.987869
vt 0.452094 0.982385
vt 0.450796 0.982385
vt 0.338145 0.979503
vt 0.338145 0.980898
vt 0.338145 0.982292
vt 0.338145 0.983686
vt 0.338145 0.985080
vt 0.338145 0.986475
vt 0.338145 0.987869
vt 0.338145 0.989263
vt 0.338145 0.990657
vt 0.693781 0.098053
vt 0.688478 0.092450
vt 0.688478 0.100249
vt 0.683175 0.098053
vt 0.680978 0.092750
vt 0.683175 0.087446
vt 0.688478 0.085250
vt 0.693781 0.087446
vt 0.695978 0.092750
vt 0.462479 0.989245
vt 0.462404 0.992194
vt 0.461181 0.992194
vt 0.461181 0.989245
vt 0.449547 0.992194
vt 0.449497 0.989245
vt 0.450796 0.989245
vt 0.450794 0.992194
vt 0.452094 0.989245
vt 0.452096 0.992194
vt 0.453392 0.989245
vt 0.453405 0.992194
vt 0.454690 0.989245
vt 0.454690 0.992194
vt 0.455988 0.989245
vt 0.455976 0.992194
vt 0.457286 0.989245
vt 0.457285 0.992194
vt 0.458585 0.989245
vt 0.458587 0.992194
vt 0.459883 0.989245
vt 0.459896 0.992194
vt 0.449497 0.982385
vn 0.338050 0.338048 0.878320
vn 0.338050 0.338048 0.878320
vn 0.478084 0.000003 0.878314
vn 0.478084 0.000001 0.878314
vn 0.000001 0.478084 0.878314
vn 0.000001 0.478084 0.878314
vn -0.338046 0.338047 0.878322
vn -0.338046 0.338047 0.878322
vn -0.478087 -0.000000 0.878312
vn -0.478087 -0.000000 0.878312
vn -0.338060 -0.338050 0.878315
vn -0.338058 -0.338052 0.878315
vn -0.000001 -0.478086 0.878313
vn -0.000001 -0.478086 0.878313
vn 0.338045 -0.338042 0.878324
vn 0.338048 -0.338040 0.878324
vn 0.707108 0.707105 0.000000
vn 0.000000 1.000000 0.000000
vn 0.000000 1.000000 0.000000
vn 0.707108 0.707105 0.000000
vn -0.707108 0.707105 0.000000
vn -0.707108 0.707105 0.000000
vn -1.000000 0.000000 0.000000
vn -1.000000 0.000000 0.000000
vn -0.707112 -0.707101 0.000000
vn -0.707112 -0.707101 0.000000
vn -0.000009 -1.000000 0.000000
vn -0.000009 -1.000000 0.000000
vn 0.707113 -0.707101 0.000000
vn 0.707113 -0.707101 0.000000
vn 1.000000 0.000005 0.000000
vn 1.000000 0.000005 0.000000
vn 0.000000 0.000000 1.000000
vn 0.000000 0.000000 1.000000
vn 0.000000 0.000000 1.000000
vn 0.000000 0.000000 1.000000
vn 0.000000 0.000000 1.000000
vn 0.000000 0.000000 1.000000
vn 0.000000 0.000000 1.000000
vn 0.000000 0.000000 1.000000
vn 0.000000 0.000000 1.000000
vn 0.479847 0.479846 0.734503
vn 0.479848 0.479846 0.734503
vn 0.678620 0.000005 0.734490
vn 0.678620 0.000003 0.734490
vn -0.000000 0.678621 0.734489
vn -0.000000 0.678621 0.734489
vn -0.479849 0.479848 0.734500
vn -0.479850 0.479848 0.734500
vn -0.678623 0.000000 0.734487
vn -0.678623 0.000001 0.734487
vn -0.479855 -0.479845 0.734499
vn -0.479852 -0.479848 0.734499
vn -0.000004 -0.678619 0.734491
vn -0.000004 -0.678619 0.734491
vn 0.479847 -0.479844 0.734504
vn 0.479850 -0.479841 0.734504
vn 0.707108 0.707106 0.000000
vn 0.000000 1.000000 0.000000
vn 0.000000 1.000000 0.000000
vn 0.707108 0.707106 0.000000
vn -0.707108 0.707106 0.000000
vn -0.707108 0.707106 0.000000
vn -1.000000 0.000000 0.000000
vn -1.000000 0.000000 0.000000
vn -0.707112 -0.707101 0.000000
vn -0.707112 -0.707101 0.000000
vn -0.000009 -1.000000 0.000000
vn -0.000009 -1.000000 0.000000
vn 0.707113 -0.707101 0.000000
vn 0.707113 -0.707101 0.000000
vn 1.000000 0.000005 0.000000
vn 1.000000 0.000005 0.000000
vn 0.000000 0.000000 1.000000
vn 0.000000 0.000000 1.000000
vn -0.000001 0.000000 1.000000
vn 0.000000 0.000000 1.000000
vn 0.000000 0.000000 1.000000
vn -0.000003 0.000000 1.000000
vn -0.000003 0.000000 1.000000
vn 0.000000 0.000000 1.000000
vn 0.000000 0.000000 1.000000
vn -0.479849 0.479845 0.734502
vn -0.678621 0.000003 0.734488
vn -0.678621 0.000005 0.734489
vn -0.479850 0.479845 0.734502
vn -0.000001 0.678615 0.734494
vn -0.000001 0.678615 0.734494
vn 0.479847 0.479843 0.734505
vn 0.479846 0.479843 0.734505
vn 0.678619 -0.000001 0.734491
vn 0.678619 -0.000001 0.734491
vn 0.479849 -0.479846 0.734502
vn 0.479852 -0.479844 0.734502
vn 0.000003 -0.678615 0.734495
vn 0.000003 -0.678615 0.734495
vn -0.479848 -0.479839 0.734507
vn -0.479845 -0.479842 0.734507
vn -0.707107 0.707106 -0.000001
vn -0.707107 0.707106 -0.000001
vn 0.000000 1.000000 -0.000002
vn 0.000000 1.000000 -0.000002
vn 0.707107 0.707106 -0.000001
vn 0.707107 0.707106 -0.000001
vn 1.000000 0.000000 0.000000
vn 1.000000 0.000000 0.000000
vn 0.707113 -0.707101 0.000000
vn 0.707113 -0.707101 0.000000
vn 0.000009 -1.000000 0.000000
vn 0.000009 -1.000000 0.000000
vn -0.707113 -0.707100 0.000000
vn -0.707113 -0.707100 0.000000
vn -1.000000 0.000006 0.000000
vn -1.000000 0.000006 0.000000
vn 0.000002 0.000000 1.000000
vn 0.000000 -0.000001 1.000000
vn 0.000000 0.000000 1.000000
vn -0.000002 0.000000 1.000000
vn 0.000000 0.000000 1.000000
vn -0.000003 -0.000002 1.000000
vn 0.000002 -0.000004 1.000000
vn 0.000005 -0.000002 1.000000
vn 0.000000 0.000000 1.000000
vn 0.316164 0.463246 0.827915
vn 0.316164 0.463246 0.827915
vn 0.514147 -0.000001 0.857702
vn 0.514147 -0.000001 0.857702
vn 0.092532 0.566780 0.818656
vn 0.092532 0.566780 0.818656
vn -0.092534 0.566783 0.818654
vn -0.092534 0.566783 0.818654
vn -0.316168 0.463249 0.827912
vn -0.316168 0.463249 0.827912
vn -0.514149 0.000001 0.857701
vn -0.514149 0.000001 0.857701
vn -0.316161 -0.463243 0.827918
vn -0.316160 -0.463243 0.827918
vn -0.092532 -0.566777 0.818658
vn -0.092532 -0.566777 0.818658
vn 0.092533 -0.566780 0.818656
vn 0.092533 -0.566780 0.818656
vn 0.316164 -0.463244 0.827916
vn 0.316163 -0.463244 0.827916
vn 0.571407 0.820667 0.000000
vn 0.162191 0.986759 0.000000
vn 0.162191 0.986759 0.000000
vn 0.571407 0.820667 0.000000
vn -0.162191 0.986759 0.000000
vn -0.162191 0.986759 0.000000
vn -0.571407 0.820667 0.000000
vn -0.571407 0.820667 0.000000
vn -1.000000 -0.000000 0.000000
vn -1.000000 -0.000000 0.000000
vn -0.571407 -0.820667 0.000000
vn -0.571407 -0.820667 0.000000
vn -0.162191 -0.986759 0.000000
vn -0.162191 -0.986759 0.000000
vn 0.162191 -0.986759 0.000000
vn 0.162191 -0.986759 0.000000
vn 0.571407 -0.820667 0.000000
vn 0.571407 -0.820667 0.000000
vn 1.000000 0.000000 0.000000
vn 1.000000 0.000000 0.000000
vn 0.000000 0.000000 1.000000
vn 0.000001 0.000000 1.000000
vn 0.000000 0.000000 1.000000
vn -0.000001 0.000000 1.000000
vn -0.000001 0.000000 1.000000
vn 0.000000 0.000000 1.000000
vn -0.000000 0.000000 1.000000
vn -0.000001 0.000000 1.000000
vn 0.000001 0.000000 1.000000
vn 0.000001 0.000000 1.000000
vn 0.000000 0.000000 1.000000
f 10/1/1 11/2/2 25/3/3 24/34/4
f 11/4/2 10/19/1 12/21/5 13/5/6
f 13/5/6 12/21/5 14/23/7 15/7/8
f 15/7/8 14/23/7 16/25/9 17/9/10
f 17/9/10 16/25/9 18/27/11 19/11/12
f 19/11/12 18/27/11 20/29/13 21/13/14
f 21/13/14 20/29/13 22/31/15 23/15/16
f 23/15/16 22/31/15 24/34/4 25/3/3
f 1/18/17 2/20/18 12/21/19 10/19/20
f 2/20/18 3/22/21 14/23/22 12/21/19
f 3/22/21 4/24/23 16/25/24 14/23/22
f 4/24/23 5/26/25 18/27/26 16/25/24
f 5/26/25 6/28/27 20/29/28 18/27/26
f 6/28/27 7/30/29 22/31/30 20/29/28
f 7/30/29 8/32/31 24/34/32 22/31/30
f 8/32/31 1/33/17 10/1/20 24/34/32
f 11/42/33 13/35/34 9/43/35
f 13/35/34 15/36/36 9/43/35
f 15/36/36 17/37/37 9/43/35
f 17/37/37 19/38/38 9/43/35
f 19/38/38 21/39/39 9/43/35
f 21/39/39 23/40/40 9/43/35
f 23/40/40 25/41/41 9/43/35
f 25/41/41 11/42/33 9/43/35
f 35/44/42 36/45/43 50/46/44 49/47/45
f 36/48/43 35/49/42 37/50/46 38/51/47
f 38/51/47 37/50/46 39/53/48 40/54/49
f 40/54/49 39/53/48 41/56/50 42/57/51
f 42/57/51 41/56/50 43/59/52 44/60/53
f 44/60/53 43/59/52 45/62/54 46/63/55
f 46/63/55 45/62/54 47/65/56 48/66/57
f 48/66/57 47/65/56 49/47/45 50/46/44
f 26/69/58 27/70/59 37/50/60 35/49/61
f 27/70/59 28/71/62 39/53/63 37/50/60
f 28/71/62 29/72/64 41/56/65 39/53/63
f 29/72/64 30/73/66 43/59/67 41/56/65
f 30/73/66 31/74/68 45/62/69 43/59/67
f 31/74/68 32/75/70 47/65/71 45/62/69
f 32/75/70 33/76/72 49/47/73 47/65/71
f 33/76/72 26/77/58 35/44/61 49/47/73
f 36/78/74 38/79/75 34/80/76
f 38/79/75 40/81/77 34/80/76
f 40/81/77 42/82/78 34/80/76
f 42/82/78 44/83/79 34/80/76
f 44/83/79 46/84/80 34/80/76
f 46/84/80 48/85/81 34/80/76
f 48/85/81 50/86/82 34/80/76
f 50/86/82 36/78/74 34/80/76
f 60/87/83 74/88/84 75/89/85 61/90/86
f 61/91/86 63/92/87 62/93/88 60/94/83
f 63/92/87 65/96/89 64/97/90 62/93/88
f 65/96/89 67/99/91 66/100/92 64/97/90
f 67/99/91 69/102/93 68/103/94 66/100/92
f 69/102/93 71/105/95 70/106/96 68/103/94
f 71/105/95 73/108/97 72/109/98 70/106/96
f 73/108/97 75/89/85 74/88/84 72/109/98
f 51/112/99 60/94/100 62/93/101 52/113/102
f 52/113/102 62/93/101 64/97/103 53/114/104
f 53/114/104 64/97/103 66/100/105 54/115/106
f 54/115/106 66/100/105 68/103/107 55/116/108
f 55/116/108 68/103/107 70/106/109 56/117/110
f 56/117/110 70/106/109 72/109/111 57/118/112
f 57/118/112 72/109/111 74/88/113 58/119/114
f 58/119/114 74/88/113 60/87/100 51/120/99
f 61/121/115 59/122/116 63/123/117
f 63/123/117 59/122/116 65/124/118
f 65/124/118 59/122/116 67/125/119
f 67/125/119 59/122/116 69/126/120
f 69/126/120 59/122/116 71/127/121
f 71/127/121 59/122/116 73/128/122
f 73/128/122 59/122/116 75/129/123
f 75/129/123 59/122/116 61/121/115
f 87/130/124 88/131/125 106/132/126 105/133/127
f 88/134/125 87/135/124 89/136/128 90/137/129
f 90/137/129 89/136/128 91/138/130 92/139/131
f 92/139/131 91/138/130 93/140/132 94/141/133
f 94/141/133 93/140/132 95/142/134 96/143/135
f 96/143/135 95/142/134 97/144/136 98/145/137
f 98/145/137 97/144/136 99/146/138 100/147/139
f 100/147/139 99/146/138 101/148/140 102/149/141
f 102/149/141 101/148/140 103/150/142 104/151/143
f 104/151/143 103/150/142 105/133/127 106/132/126
f 76/152/144 77/111/145 89/136/146 87/135/147
f 77/111/145 78/110/148 91/138/149 89/136/146
f 78/110/148 79/107/150 93/140/151 91/138/149
f 79/107/150 80/104/152 95/142/153 93/140/151
f 80/104/152 81/101/154 97/144/155 95/142/153
f 81/101/154 82/98/156 99/146/157 97/144/155
f 82/98/156 83/95/158 101/148/159 99/146/157
f 83/95/158 84/68/160 103/150/161 101/148/159
f 84/68/160 85/67/162 105/133/163 103/150/161
f 85/67/162 76/64/144 87/130/147 105/133/163
f 88/61/164 90/58/165 86/55/166
f 90/58/165 92/52/167 86/55/166
f 92/52/167 94/17/168 86/55/166
f 94/17/168 96/16/169 86/55/166
f 96/16/169 98/14/170 86/55/166
f 98/14/170 100/12/171 86/55/166
f 100/12/171 102/10/172 86/55/166
f 102/10/172 104/8/173 86/55/166
f 104/8/173 106/6/174 86/55/166
f 106/6/174 88/61/164 86/55/166
