# This file uses meters as units for non-parametric coordinates.

v 2.869992 51.179153 40.035259
v 4.810058 51.179153 40.035259
v 4.810058 51.962170 40.035259
v 2.869992 51.962170 40.035259
v -1.581067 49.283501 40.035259
v 1.581066 49.283501 40.035259
v 1.581066 50.353905 40.035259
v -1.581067 50.353905 40.035259
v -4.722082 51.179153 40.035259
v -2.782016 51.179153 40.035259
v -2.782016 51.962170 40.035259
v -4.722082 51.962170 40.035259
vt 0.315521 0.882080
vt 0.328138 0.882080
vt 0.328138 0.889234
vt 0.315521 0.889234
vt 0.347542 0.860211
vt 0.363266 0.860211
vt 0.363266 0.867365
vt 0.347542 0.867365
vt 0.331444 0.882080
vt 0.343244 0.882080
vt 0.343244 0.889234
vt 0.331444 0.889234
vn 0.000000 0.000000 1.000000
vn 0.000000 0.000000 1.000000
vn 0.000000 0.000000 1.000000
vn 0.000000 0.000000 1.000000
vn 0.000000 0.000000 1.000000
vn 0.000000 0.000000 1.000000
vn 0.000000 0.000000 1.000000
vn 0.000000 0.000000 1.000000
vn 0.000000 0.000000 1.000000
vn 0.000000 0.000000 1.000000
vn 0.000000 0.000000 1.000000
vn 0.000000 0.000000 1.000000
f 1/1/1 2/2/2 3/3/3 4/4/4
f 5/5/5 6/6/6 7/7/7 8/8/8
f 9/9/9 10/10/10 11/11/11 12/12/12
