# This file uses meters as units for non-parametric coordinates.

v -33.452103 -0.857977 20.899526
v -30.820864 -0.857977 23.530776
v -33.452103 0.857977 20.899526
v -30.820864 0.857977 23.530776
v 33.452103 -0.857977 20.899526
v 30.820864 -0.857977 23.530776
v 33.452103 0.857977 20.899526
v 30.820864 0.857977 23.530776
v -33.452103 0.857977 -20.899526
v -30.820864 0.857977 -23.530776
v -33.452103 -0.857977 -20.899526
v -30.820864 -0.857977 -23.530776
v 30.820864 0.857977 -23.530776
v 33.452103 0.857977 -20.899526
v 33.452103 -0.857977 -20.899526
v 30.820864 -0.857977 -23.530776
v -30.017823 0.857977 22.503437
v -32.597647 0.857977 19.974911
v -30.017823 0.857977 -22.503437
v -32.597647 0.857977 -19.974911
v 30.017823 0.857977 22.503437
v 30.017823 0.857977 -22.503437
v 32.597647 0.857977 19.974911
v 32.597647 0.857977 -19.974911
v -30.017823 -0.269629 22.503437
v -32.597647 -0.269629 19.974911
v -30.017823 -0.269629 -22.503437
v -32.597647 -0.269629 -19.974911
v 30.017823 -0.269629 22.503437
v 30.017823 -0.269629 -22.503437
v 32.597647 -0.269629 19.974911
v 32.597647 -0.269629 -19.974911
v 32.425252 0.857977 22.998151
v 31.591033 0.857977 21.991608
v 31.591033 -0.269629 21.991608
v 31.591033 -0.269629 -21.991608
v 31.591033 0.857977 -21.991608
v 32.425252 0.857977 -22.998151
v 32.425252 -0.857977 -22.998151
v 32.425252 -0.857977 22.998151
v -32.425252 0.857977 22.998151
v -32.425252 -0.857977 22.998151
v -32.425252 -0.857977 -22.998151
v -32.425252 0.857977 -22.998151
v -31.591033 0.857977 -21.991608
v -31.591033 -0.269629 -21.991608
v -31.591033 -0.269629 21.991608
v -31.591033 0.857977 21.991608
vt 0.664632 0.243420
vt 0.664632 0.196780
vt 0.707367 0.196780
vt 0.707368 0.243420
vt 0.664631 0.243494
vt 0.664631 0.198480
vt 0.707366 0.198479
vt 0.707367 0.243494
vt 0.664884 0.199116
vt 0.708693 0.199116
vt 0.708692 0.241159
vt 0.664885 0.241160
vt 0.712138 0.241158
vt 0.663306 0.241159
vt 0.663306 0.199115
vt 0.712139 0.199115
vt 0.656768 0.199936
vt 0.658480 0.197691
vt 0.658480 0.242582
vt 0.656768 0.240337
vt 0.663306 0.196780
vt 0.663307 0.243420
vt 0.708693 0.196780
vt 0.708693 0.243420
vt 0.663305 0.198480
vt 0.663306 0.243494
vt 0.708692 0.198479
vt 0.708692 0.243494
vt 0.713696 0.242582
vt 0.713696 0.197691
vt 0.715408 0.199935
vt 0.715408 0.240337
vt 0.709712 0.196779
vt 0.708972 0.197691
vt 0.711350 0.199935
vt 0.709712 0.243494
vt 0.711351 0.240337
vt 0.708972 0.242582
vt 0.674949 0.196779
vt 0.676695 0.199115
vt 0.676128 0.199935
vt 0.674417 0.197691
vt 0.676695 0.241158
vt 0.676128 0.240337
vt 0.674949 0.243494
vt 0.674417 0.242582
vt 0.711350 0.197691
vt 0.656768 0.197691
vt 0.711351 0.242582
vt 0.656768 0.242582
vt 0.664090 0.197691
vt 0.664090 0.199936
vt 0.715408 0.197691
vt 0.664091 0.240338
vt 0.664091 0.242582
vt 0.715408 0.242582
vt 0.658480 0.227166
vt 0.713696 0.227166
vt 0.713696 0.213210
vt 0.658480 0.213210
vt 0.675822 0.197947
vt 0.708030 0.243420
vt 0.664090 0.198814
vt 0.675273 0.198813
vt 0.714552 0.198813
vt 0.715408 0.198813
vt 0.714552 0.241460
vt 0.715408 0.241460
vt 0.664091 0.241460
vt 0.675273 0.241460
vt 0.675822 0.242326
vt 0.708029 0.198479
vt 0.708029 0.242326
vt 0.708029 0.243494
vt 0.708030 0.197948
vt 0.708030 0.196780
vt 0.663970 0.243420
vt 0.710926 0.197947
vt 0.663969 0.197947
vt 0.663969 0.196780
vt 0.663969 0.243494
vt 0.663969 0.242326
vt 0.710925 0.242326
vt 0.663968 0.198480
vt 0.711351 0.241460
vt 0.710162 0.241460
vt 0.657624 0.241460
vt 0.656768 0.241460
vt 0.656768 0.198814
vt 0.657624 0.198814
vt 0.710161 0.198813
vt 0.711350 0.198813
vn -0.008421 0.000000 0.999964
vn -0.008421 0.000000 0.999964
vn 0.008421 0.000000 0.999964
vn 0.008421 0.000000 0.999964
vn -0.008421 0.000000 -0.999964
vn -0.008421 0.000000 -0.999964
vn 0.008421 0.000000 -0.999964
vn 0.008421 0.000000 -0.999964
vn 0.999727 0.000000 0.023386
vn 0.999727 0.000000 0.023386
vn 0.999727 0.000000 -0.023386
vn 0.999727 0.000000 -0.023386
vn -0.999727 0.000000 -0.023386
vn -0.999727 0.000000 -0.023386
vn -0.999727 0.000000 0.023386
vn -0.999727 0.000000 0.023386
vn 0.000000 1.000000 0.000000
vn 0.000000 1.000000 0.000000
vn 0.000000 1.000000 0.000000
vn 0.000000 1.000000 0.000000
vn 0.000000 -1.000000 0.000000
vn 0.000000 -1.000000 0.000000
vn 0.000000 -1.000000 0.000000
vn 0.000000 -1.000000 0.000000
vn -0.707108 0.000000 0.707105
vn -0.707108 0.000000 0.707105
vn 0.707108 0.000000 0.707105
vn 0.707108 0.000000 0.707105
vn -0.707108 0.000000 -0.707105
vn -0.707108 0.000000 -0.707105
vn 0.707108 0.000000 -0.707105
vn 0.707108 0.000000 -0.707105
vn 0.000000 -1.000000 0.000000
vn 0.000000 -1.000000 0.000000
vn 0.000000 -1.000000 0.000000
vn 0.000000 -1.000000 0.000000
vn 0.000000 1.000000 0.000000
vn 0.000000 1.000000 0.000000
vn 0.000000 1.000000 0.000000
vn 0.000000 1.000000 0.000000
vn 0.000000 1.000000 -0.000000
vn 0.000000 1.000000 -0.000000
vn 0.000000 1.000000 -0.000000
vn 0.000000 1.000000 -0.000000
vn 0.000000 1.000000 0.000000
vn 0.000000 1.000000 0.000000
vn 0.000000 1.000000 0.000000
vn 0.000000 1.000000 0.000000
vn 0.000000 1.000000 0.000000
vn 0.000000 1.000000 0.000000
vn 0.000000 1.000000 0.000000
vn 0.000000 1.000000 0.000000
vn 0.000000 1.000000 -0.000000
vn 0.000000 1.000000 -0.000000
vn 0.000000 1.000000 -0.000000
vn 0.000000 1.000000 -0.000000
vn 0.000000 1.000000 0.000000
vn 0.000000 1.000000 0.000000
vn 0.000000 1.000000 0.000000
vn 0.000000 1.000000 0.000000
vn 0.000000 1.000000 0.000000
vn 0.000000 1.000000 0.000000
vn 0.000000 1.000000 0.000000
vn 0.000000 1.000000 0.000000
vn 0.000000 1.000000 -0.000000
vn 0.000000 1.000000 -0.000000
vn 0.000000 1.000000 -0.000000
vn 0.000000 1.000000 -0.000000
vn 0.000000 1.000000 0.000000
vn 0.000000 1.000000 0.000000
vn 0.000000 1.000000 0.000000
vn 0.000000 1.000000 0.000000
vn 0.699970 0.000000 -0.714172
vn 0.309378 0.000000 -0.950939
vn 0.309378 0.000000 -0.950939
vn 0.699970 0.000000 -0.714172
vn 0.309378 0.000000 0.950939
vn 0.699970 0.000000 0.714172
vn 0.699970 0.000000 0.714172
vn 0.309378 0.000000 0.950939
vn 1.000000 0.000000 0.000000
vn 1.000000 0.000000 0.000000
vn 1.000000 0.000000 0.000000
vn 1.000000 0.000000 0.000000
vn -0.309378 0.000000 -0.950939
vn -0.699970 0.000000 -0.714172
vn -0.699970 0.000000 -0.714172
vn -0.309378 0.000000 -0.950939
vn -1.000000 0.000000 0.000000
vn -1.000000 0.000000 0.000000
vn -1.000000 0.000000 0.000000
vn -1.000000 0.000000 0.000000
vn -0.699970 0.000000 0.714172
vn -0.309378 0.000000 0.950939
vn -0.309378 0.000000 0.950939
vn -0.699970 0.000000 0.714172
vn 0.000000 0.000000 -1.000000
vn 0.000000 0.000000 -1.000000
vn 0.000000 0.000000 -1.000000
vn 0.000000 0.000000 -1.000000
vn 0.000000 0.000000 1.000000
vn 0.000000 0.000000 1.000000
vn 0.000000 0.000000 1.000000
vn 0.000000 0.000000 1.000000
vn 0.000000 1.000000 -0.000000
vn 0.000000 1.000000 -0.000000
vn -0.894735 0.000000 -0.446598
vn -0.894735 0.000000 -0.446598
vn 0.000000 1.000000 0.000000
vn 0.000000 1.000000 0.000000
vn -0.894735 0.000000 0.446598
vn -0.894735 0.000000 0.446598
vn 0.000000 1.000000 0.000000
vn 0.000000 1.000000 0.000000
vn 0.000000 -1.000000 0.000000
vn 0.000000 -1.000000 0.000000
vn 0.000000 -1.000000 0.000000
vn 0.000000 -1.000000 0.000000
vn 0.000000 1.000000 0.000000
vn 0.000000 1.000000 0.000000
vn 0.894735 0.000000 0.446598
vn 0.894735 0.000000 0.446598
vn 0.000000 1.000000 0.000000
vn 0.000000 1.000000 0.000000
vn 0.894735 0.000000 -0.446598
vn 0.894735 0.000000 -0.446598
vn 0.000000 1.000000 -0.000000
vn 0.000000 1.000000 -0.000000
f 4/1/1 2/2/2 6/3/3 8/4/4
f 12/5/5 10/6/6 13/7/7 16/8/8
f 7/9/9 5/10/10 15/11/11 14/12/12
f 9/13/13 11/14/14 1/15/15 3/16/16
f 47/90/17 25/18/18 27/19/19 46/87/20
f 6/3/21 16/8/22 39/73/23 40/75/24
f 42/80/25 2/2/2 4/1/1 41/77/26
f 6/3/3 40/76/27 33/62/28 8/4/4
f 44/84/29 10/6/6 12/5/5 43/81/30
f 13/7/7 38/72/31 39/74/32 16/8/8
f 43/82/33 12/5/34 2/2/35 42/79/36
f 2/2/35 12/5/34 16/8/22 6/3/21
f 30/29/37 29/30/38 35/65/39 36/67/40
f 27/19/19 25/18/18 29/30/38 30/29/37
f 48/91/41 41/78/42 4/33/43 17/34/44
f 10/36/45 44/83/46 45/86/47 19/38/48
f 9/13/49 3/16/50 18/35/51 20/37/52
f 8/39/53 33/61/54 34/64/55 21/42/56
f 7/40/57 14/43/58 24/44/59 23/41/60
f 38/71/61 13/45/62 22/46/63 37/70/64
f 4/33/65 8/39/66 21/42/67 17/34/68
f 13/45/69 10/36/70 19/38/71 22/46/72
f 48/92/73 17/47/74 25/48/75 47/89/76
f 19/49/77 45/85/78 46/88/79 27/50/80
f 20/37/81 18/35/82 26/17/83 28/20/84
f 21/51/85 34/63/86 35/66/87 29/53/88
f 23/52/89 24/54/90 32/32/91 31/31/92
f 37/69/93 22/55/94 30/56/95 36/68/96
f 17/57/97 21/58/98 29/30/99 25/18/100
f 22/59/101 19/60/102 27/19/103 30/29/104
f 33/61/54 7/40/105 23/41/106 34/64/55
f 35/66/87 34/63/86 23/52/107 31/31/108
f 36/67/40 35/65/39 31/31/109 32/32/110
f 24/54/111 37/69/93 36/68/96 32/32/112
f 14/43/113 38/71/61 37/70/64 24/44/114
f 39/74/32 38/72/31 14/27/12 15/28/11
f 40/75/24 39/73/23 15/11/115 5/10/116
f 33/62/28 40/76/27 5/23/10 7/24/9
f 1/21/15 42/80/25 41/77/26 3/22/16
f 11/14/117 43/82/33 42/79/36 1/15/118
f 9/25/13 44/84/29 43/81/30 11/26/14
f 45/86/47 44/83/46 9/13/119 20/37/120
f 46/88/79 45/85/78 20/37/121 28/20/122
f 26/17/123 47/90/17 46/87/20 28/20/124
f 18/35/125 48/92/73 47/89/76 26/17/126
f 3/16/127 41/78/42 48/91/41 18/35/128
