# This file uses meters as units for non-parametric coordinates.

v 40.232582 29.395493 6.244502
v 41.316870 28.582816 7.328797
v 38.310697 47.285569 8.842279
v 39.394985 47.285569 9.926574
v 49.339425 29.395486 6.244502
v 48.255133 28.582809 7.328797
v 51.261319 47.285569 8.842279
v 50.177022 47.285569 9.926574
v 38.310697 47.285569 -8.842277
v 39.394985 47.285569 -9.926574
v 40.232582 29.395493 -6.244502
v 41.316870 28.582816 -7.328794
v 50.177022 47.285569 -9.926574
v 51.261319 47.285569 -8.842277
v 49.339425 29.395486 -6.244502
v 48.255133 28.582809 -7.328794
v 39.810063 47.285569 9.037250
v 38.968642 47.285569 8.195811
v 49.761936 47.285569 9.037250
v 50.603378 47.285569 8.195811
v 50.603378 47.285569 -8.195809
v 49.761936 47.285569 -9.037249
v 39.810063 47.285569 -9.037249
v 38.968642 47.285569 -8.195809
v 41.544025 29.646097 5.532619
v 48.027983 29.646097 5.532619
v 48.027983 29.646097 -5.532618
v 41.544025 29.646097 -5.532619
v 37.329111 37.864037 8.386569
v 39.387764 37.864037 8.386569
v 37.329111 43.380724 8.386569
v 39.387764 43.380724 8.386569
v 37.329111 43.380724 -8.386569
v 39.387764 43.380724 -8.386569
v 37.329111 37.864037 -8.386569
v 39.387764 37.864037 -8.386569
vt 0.651005 0.236802
vt 0.659100 0.196868
vt 0.676105 0.199019
vt 0.673199 0.240618
vt 0.659209 0.199502
vt 0.654073 0.237830
vt 0.678178 0.201152
vt 0.675890 0.241130
vt 0.685603 0.199695
vt 0.692051 0.240526
vt 0.716931 0.236998
vt 0.707502 0.196406
vt 0.689955 0.241161
vt 0.683946 0.201788
vt 0.714672 0.237903
vt 0.705809 0.198854
vt 0.675633 0.199508
vt 0.708047 0.196811
vt 0.653361 0.235193
vt 0.672673 0.242573
vt 0.686061 0.200177
vt 0.652174 0.200233
vt 0.724916 0.230534
vt 0.691976 0.232306
vt 0.690089 0.200523
vt 0.723478 0.201498
vt 0.676546 0.242817
vt 0.714304 0.239676
vt 0.650350 0.238743
vt 0.654945 0.236208
vt 0.716264 0.237167
vt 0.641884 0.229708
vt 0.692054 0.238517
vt 0.689348 0.239420
vt 0.642287 0.209522
vt 0.640185 0.201826
vt 0.724289 0.203165
vt 0.642302 0.198575
vt 0.642643 0.234550
vt 0.642614 0.227519
vt 0.641086 0.204071
vt 0.652174 0.239293
vt 0.724205 0.233559
vt 0.643460 0.239460
vt 0.642012 0.199628
vt 0.724962 0.204540
vt 0.715831 0.200233
vt 0.715831 0.239293
vt 0.720695 0.208209
vt 0.708210 0.208209
vt 0.708210 0.235655
vt 0.720695 0.235655
vt 0.643605 0.198424
vt 0.720695 0.225537
vt 0.643605 0.225537
vt 0.643605 0.235654
vt 0.720694 0.198424
vt 0.656090 0.235654
vt 0.656089 0.208209
vt 0.643605 0.208209
vt 0.720694 0.197967
vt 0.643605 0.197967
vn 0.000000 -0.137577 0.990491
vn 0.000000 -0.137577 0.990491
vn 0.000000 -0.137577 0.990491
vn 0.000000 -0.137577 0.990491
vn -0.000000 -0.137578 -0.990491
vn -0.000000 -0.137578 -0.990491
vn -0.000000 -0.137577 -0.990491
vn -0.000000 -0.137578 -0.990491
vn 0.994279 -0.106813 0.000000
vn 0.994279 -0.106813 0.000000
vn 0.994279 -0.106813 0.000000
vn 0.994279 -0.106813 0.000000
vn -0.994279 -0.106813 0.000000
vn -0.994279 -0.106813 0.000000
vn -0.994279 -0.106813 0.000000
vn -0.994279 -0.106813 0.000000
vn 0.000000 1.000000 0.000000
vn 0.000000 1.000000 0.000000
vn 0.000000 1.000000 0.000000
vn 0.000000 1.000000 0.000000
vn 0.057054 -0.998371 0.000000
vn 0.057055 -0.998371 0.000000
vn 0.599745 -0.800191 0.000000
vn 0.599745 -0.800191 0.000000
vn -0.727984 -0.170744 0.663993
vn -0.727984 -0.170744 0.663993
vn -0.727984 -0.170744 0.663993
vn -0.727984 -0.170744 0.663993
vn 0.727981 -0.170745 0.663995
vn 0.727981 -0.170745 0.663995
vn 0.727981 -0.170745 0.663995
vn 0.727981 -0.170745 0.663995
vn -0.727984 -0.170744 -0.663992
vn -0.727984 -0.170744 -0.663992
vn -0.727984 -0.170744 -0.663992
vn -0.727984 -0.170744 -0.663992
vn 0.727981 -0.170744 -0.663995
vn 0.727982 -0.170744 -0.663995
vn 0.727982 -0.170744 -0.663995
vn 0.727982 -0.170744 -0.663995
vn 0.000000 1.000000 0.000000
vn 0.000000 1.000000 0.000000
vn 0.000000 1.000000 0.000000
vn 0.000000 1.000000 0.000000
vn 0.000000 1.000000 -0.000002
vn 0.000000 1.000000 -0.000002
vn 0.000000 1.000000 -0.000002
vn 0.000000 1.000000 -0.000002
vn 0.000000 1.000000 0.000000
vn 0.000000 1.000000 0.000000
vn 0.000000 1.000000 0.000000
vn 0.000000 1.000000 0.000000
vn 0.000000 1.000000 0.000000
vn 0.000000 1.000000 0.000000
vn 0.000000 1.000000 0.000000
vn 0.000000 1.000000 0.000000
vn 0.000000 1.000000 -0.000002
vn 0.000000 1.000000 -0.000002
vn 0.000000 1.000000 -0.000002
vn 0.000000 1.000000 -0.000002
vn 0.000000 1.000000 -0.000000
vn 0.000000 1.000000 -0.000000
vn 0.000000 1.000000 -0.000000
vn 0.000000 1.000000 -0.000000
vn 0.000000 1.000000 0.000000
vn 0.000000 1.000000 0.000000
vn 0.000000 1.000000 0.000000
vn 0.000000 1.000000 0.000000
vn 0.000000 1.000000 0.000000
vn 0.000000 1.000000 0.000000
vn 0.000000 1.000000 0.000000
vn 0.000000 1.000000 0.000000
vn 0.692021 0.205514 -0.692005
vn 0.692021 0.205514 -0.692005
vn 0.692021 0.205514 -0.692005
vn 0.000000 0.194872 -0.980829
vn 0.000000 0.194872 -0.980829
vn 0.000000 0.194872 -0.980829
vn 0.000000 0.194872 -0.980829
vn -0.692012 0.205515 -0.692014
vn -0.692012 0.205515 -0.692014
vn -0.692012 0.205515 -0.692014
vn -0.989509 0.144470 0.000000
vn -0.989509 0.144470 0.000000
vn -0.989509 0.144470 0.000000
vn -0.989509 0.144470 0.000000
vn -0.692011 0.205516 0.692014
vn -0.692011 0.205516 0.692014
vn -0.692011 0.205516 0.692014
vn 0.000000 0.194872 0.980829
vn 0.000000 0.194872 0.980829
vn 0.000000 0.194872 0.980829
vn 0.000000 0.194872 0.980829
vn 0.692021 0.205514 0.692005
vn 0.692021 0.205514 0.692006
vn 0.692021 0.205514 0.692006
vn 0.989509 0.144469 0.000000
vn 0.989509 0.144469 0.000000
vn 0.989509 0.144469 0.000000
vn 0.989509 0.144469 0.000000
vn -0.599745 -0.800191 0.000000
vn -0.057056 -0.998371 0.000000
vn -0.057056 -0.998371 0.000000
vn -0.599746 -0.800191 0.000000
vn 0.000000 0.000000 1.000000
vn 0.000000 0.000000 1.000000
vn 0.000000 0.000000 1.000000
vn 0.000000 0.000000 1.000000
vn 0.000000 1.000000 0.000000
vn 0.000000 1.000000 0.000000
vn 0.000000 1.000000 0.000000
vn 0.000000 1.000000 0.000000
vn 0.000000 0.000000 -1.000000
vn 0.000000 0.000000 -1.000000
vn 0.000000 0.000000 -1.000000
vn 0.000000 0.000000 -1.000000
vn 0.000000 -1.000000 0.000000
vn 0.000000 -1.000000 0.000000
vn 0.000000 -1.000000 0.000000
vn 0.000000 -1.000000 0.000000
vn 1.000000 0.000000 0.000000
vn 1.000000 0.000000 0.000000
vn 1.000000 0.000000 0.000000
vn 1.000000 0.000000 0.000000
vn -1.000000 0.000000 0.000000
vn -1.000000 0.000000 0.000000
vn -1.000000 0.000000 0.000000
vn -1.000000 0.000000 0.000000
f 4/1/1 2/2/2 6/3/3 8/4/4
f 12/9/5 10/10/6 13/11/7 16/12/8
f 7/8/9 5/7/10 15/16/11 14/15/12
f 9/13/13 11/14/14 1/5/15 3/6/16
f 25/23/17 26/24/18 27/25/19 28/26/20
f 6/17/21 16/18/22 15/16/23 5/7/24
f 1/5/25 2/2/26 4/1/27 3/6/28
f 6/3/29 5/7/30 7/8/31 8/4/32
f 9/13/33 10/10/34 12/9/35 11/14/36
f 13/11/37 14/15/38 15/16/39 16/12/40
f 3/6/41 4/1/42 17/19/43 18/30/44
f 4/1/45 8/4/46 19/20/47 17/29/48
f 8/4/49 7/8/50 20/27/51 19/20/52
f 7/8/53 14/15/54 21/28/55 20/27/56
f 14/15/57 13/11/58 22/31/59 21/28/60
f 13/11/61 10/10/62 23/33/63 22/31/64
f 10/10/65 9/13/66 24/34/67 23/33/68
f 9/13/69 3/6/70 18/30/71 24/34/72
f 18/32/73 17/40/74 25/23/75
f 17/40/76 19/38/77 26/37/78 25/23/79
f 19/38/80 20/35/81 26/37/82
f 20/35/83 21/39/84 27/43/85 26/37/86
f 21/39/87 22/44/88 27/43/89
f 22/44/90 23/45/91 28/46/92 27/43/93
f 23/36/94 24/41/95 28/26/96
f 24/41/97 18/32/98 25/23/99 28/26/100
f 11/14/101 12/21/102 2/2/103 1/5/104
f 2/48/103 12/42/102 16/22/22 6/47/21
f 29/49/105 30/50/106 32/51/107 31/52/108
f 31/52/109 32/54/110 34/55/111 33/56/112
f 33/56/113 34/58/114 36/59/115 35/60/116
f 35/60/117 36/62/118 30/61/119 29/49/120
f 30/57/121 36/53/122 34/55/123 32/54/124
f 35/60/125 29/49/126 31/52/127 33/56/128
