# This file uses meters as units for non-parametric coordinates.

v -82.367928 10.828397 79.621155
v 82.367928 10.828397 79.621155
v -82.367928 135.484161 79.621155
v 82.367928 135.484161 79.621155
v -82.367928 135.484161 0.000004
v 82.367928 135.484161 0.000004
v -82.367928 10.828397 0.000004
v 82.367928 10.828397 0.000004
v 0.000000 135.484161 0.000004
v 0.000000 10.828397 0.000004
v -54.620144 135.484161 79.621155
v -54.620144 10.828397 79.621155
v -54.620144 10.828397 0.000004
v -54.620144 135.484161 0.000004
v 54.620140 135.484161 79.621155
v 54.620140 10.828396 79.621155
v 54.620140 10.828396 0.000004
v 54.620140 135.484161 0.000004
v -54.620144 135.484161 32.605278
v -54.620144 10.828397 32.605278
v 54.620140 135.484161 32.605278
v 54.620140 10.828396 32.605278
vt 0.333702 0.858176
vt 0.333702 0.869675
vt 0.321579 0.869675
vt 0.321579 0.858176
vt 0.333702 0.858176
vt 0.333702 0.869675
vt 0.321742 0.858289
vt 0.333605 0.858289
vt 0.333605 0.869626
vt 0.321742 0.869626
vt 0.321742 0.858289
vt 0.333605 0.858289
vt 0.333605 0.869626
vt 0.321742 0.869626
vt 0.333702 0.869675
vt 0.333702 0.869675
vt 0.333702 0.858176
vt 0.333702 0.869675
vt 0.333702 0.858176
vt 0.333702 0.869675
vt 0.329618 0.869675
vt 0.329618 0.858176
vt 0.329618 0.858176
vt 0.329618 0.869675
vt 0.329618 0.869675
vt 0.329619 0.869675
vt 0.329619 0.858176
vt 0.329619 0.858176
vt 0.329619 0.869675
vt 0.329619 0.869675
vt 0.319888 0.857400
vt 0.333947 0.857400
vt 0.333947 0.871458
vt 0.319888 0.871458
vt 0.319888 0.857400
vt 0.333947 0.857400
vt 0.333947 0.871458
vt 0.319888 0.871458
vn 0.000000 0.000000 -1.000000
vn 0.000000 0.000000 -1.000000
vn 0.000000 0.000000 -1.000000
vn 0.000000 0.000000 -1.000000
vn 1.000000 0.000000 0.000000
vn 1.000000 0.000000 0.000000
vn 1.000000 0.000000 0.000000
vn 1.000000 0.000000 0.000000
vn -1.000000 0.000000 0.000000
vn -1.000000 0.000000 0.000000
vn -1.000000 0.000000 0.000000
vn -1.000000 0.000000 0.000000
vn 0.000000 0.000000 -1.000000
vn 0.000000 0.000000 -1.000000
vn 0.000000 0.000000 -1.000000
vn 0.000000 0.000000 -1.000000
vn 0.000000 -1.000000 0.000000
vn 0.000000 -1.000000 0.000000
vn 0.000000 -1.000000 0.000000
vn 0.000000 -1.000000 0.000000
vn 0.000000 0.000000 1.000000
vn 0.000000 0.000000 1.000000
vn -0.000000 0.000000 1.000000
vn -0.000000 0.000000 1.000000
vn 0.000000 0.000000 1.000000
vn 0.000000 0.000000 1.000000
vn 0.000000 0.000000 1.000000
vn 0.000000 0.000000 1.000000
vn 0.000000 -1.000000 0.000000
vn 0.000000 -1.000000 0.000000
vn 0.000000 -1.000000 0.000000
vn 0.000000 -1.000000 0.000000
vn 0.000000 0.000000 -1.000000
vn 0.000000 0.000000 -1.000000
vn 0.000000 0.000000 -1.000000
vn 0.000000 0.000000 -1.000000
vn 1.000000 0.000000 0.000000
vn 1.000000 0.000000 0.000000
vn 1.000000 0.000000 0.000000
vn 1.000000 0.000000 0.000000
vn -1.000000 0.000000 0.000000
vn -1.000000 0.000000 0.000000
vn -1.000000 0.000000 0.000000
vn -1.000000 0.000000 0.000000
f 13/23/1 14/25/2 9/3/3 10/4/4
f 2/7/5 8/8/6 6/9/7 4/10/8
f 7/11/9 1/12/10 3/13/11 5/14/12
f 18/30/13 6/16/14 8/17/15 17/28/16
f 8/18/17 2/19/18 16/27/19 17/29/20
f 2/19/21 4/20/22 15/26/23 16/27/24
f 11/21/25 3/15/26 1/5/27 12/22/28
f 1/5/29 7/6/30 13/24/31 12/22/32
f 7/1/33 5/2/34 14/25/2 13/23/1
f 9/3/35 18/30/13 17/28/16 10/4/36
f 11/31/37 12/32/38 20/33/39 19/34/40
f 16/35/41 15/36/42 21/37/43 22/38/44
