# This file uses meters as units for non-parametric coordinates.

v 80.133921 144.912629 80.133915
v 80.133921 149.002170 80.133915
v 80.133921 149.002170 0.000000
v 80.133921 144.912629 0.000000
v -80.133921 144.912629 80.133915
v -80.133921 149.002170 80.133915
v -80.133921 149.002170 0.000000
v -80.133921 144.912629 0.000000
v 80.133928 144.602882 4.042901
v 80.133928 144.602882 76.091020
v -80.133928 144.602882 4.042901
v -80.133928 144.602882 76.091020
v 80.133928 142.965179 4.042901
v 80.133928 142.965179 76.091020
v -80.133928 142.965179 4.042901
v -80.133928 142.965179 76.091020
v 54.620137 149.002170 80.133915
v 54.620137 144.912629 80.133915
v 54.620144 144.602881 76.091020
v 54.620144 142.965179 76.091020
v 54.620144 142.965179 4.042901
v 54.620144 144.602881 4.042901
v 54.620137 144.912629 0.000000
v 54.620137 149.002170 0.000000
v -54.620137 149.002170 80.133915
v -54.620137 144.912629 80.133915
v -54.620144 144.602882 76.091020
v -54.620144 142.965179 76.091020
v -54.620144 142.965179 4.042901
v -54.620144 144.602882 4.042901
v -54.620137 144.912629 0.000000
v -54.620137 149.002170 0.000000
vt 0.740318 0.008169
vt 0.638534 0.008169
vt 0.740318 0.008169
vt 0.638534 0.008169
vt 0.740318 0.008169
vt 0.740318 0.055014
vt 0.638534 0.055014
vt 0.740318 0.008169
vt 0.638534 0.055014
vt 0.740318 0.055014
vt 0.638534 0.008169
vt 0.740318 0.008169
vt 0.740318 0.008169
vt 0.638534 0.008169
vt 0.638534 0.008169
vt 0.740318 0.008169
vt 0.638534 0.008169
vt 0.740318 0.008169
vt 0.638534 0.008169
vt 0.740318 0.008169
vt 0.638534 0.008169
vt 0.740318 0.008169
vt 0.638534 0.023146
vt 0.740318 0.023146
vt 0.740318 0.023146
vt 0.740318 0.023146
vt 0.740318 0.023146
vt 0.638534 0.023146
vt 0.638534 0.023146
vt 0.638534 0.023146
vt 0.740318 0.023146
vt 0.638534 0.023186
vt 0.740318 0.023186
vt 0.740318 0.023186
vt 0.740318 0.023186
vt 0.740318 0.023186
vt 0.638534 0.023186
vt 0.638534 0.023186
vt 0.638534 0.023186
vt 0.740318 0.023186
vn 0.000000 0.000000 1.000000
vn 0.000000 0.000000 1.000000
vn 0.000000 0.000000 1.000000
vn 0.000000 0.000000 1.000000
vn 0.000000 1.000000 0.000000
vn 0.000000 1.000000 0.000000
vn 0.000000 1.000000 0.000000
vn 0.000000 1.000000 0.000000
vn 0.000000 0.000000 -1.000000
vn 0.000000 0.000000 -1.000000
vn 0.000000 0.000000 -1.000000
vn 0.000000 0.000000 -1.000000
vn 1.000000 0.000000 0.000000
vn 1.000000 0.000000 0.000000
vn 1.000000 0.000000 0.000000
vn 1.000000 0.000000 0.000000
vn -1.000000 0.000000 0.000000
vn -1.000000 0.000000 0.000000
vn -1.000000 0.000000 0.000000
vn -1.000000 0.000000 0.000000
vn 1.000000 0.000044 0.000000
vn 1.000000 0.000044 0.000000
vn 1.000000 0.000044 0.000000
vn 1.000000 0.000044 0.000000
vn 0.000000 -0.997078 0.076391
vn 0.000000 -0.997078 0.076392
vn 0.000000 -0.997078 0.076392
vn 0.000000 -0.997078 0.076391
vn 0.000000 -0.997078 -0.076391
vn 0.000000 -0.997078 -0.076391
vn 0.000000 -0.997078 -0.076391
vn 0.000000 -0.997078 -0.076391
vn -1.000000 0.000050 0.000000
vn -1.000000 0.000050 0.000000
vn -1.000000 0.000050 0.000000
vn -1.000000 0.000050 0.000000
vn 1.000000 0.000000 0.000000
vn 1.000000 0.000000 0.000000
vn 1.000000 0.000000 0.000000
vn 1.000000 0.000000 0.000000
vn 0.000000 0.000000 1.000000
vn 0.000000 0.000000 1.000000
vn 0.000000 0.000000 1.000000
vn 0.000000 0.000000 1.000000
vn 0.000000 0.000000 -1.000000
vn 0.000000 0.000000 -1.000000
vn 0.000000 0.000000 -1.000000
vn 0.000000 0.000000 -1.000000
vn -1.000000 0.000000 0.000000
vn -1.000000 0.000000 0.000000
vn -1.000000 0.000000 0.000000
vn -1.000000 0.000000 0.000000
vn 0.000000 -1.000000 0.000000
vn 0.000000 -1.000000 0.000000
vn 0.000000 -1.000000 0.000000
vn 0.000000 -1.000000 0.000000
vn 0.000000 0.000000 1.000000
vn 0.000000 0.000000 1.000000
vn 0.000000 0.000000 1.000000
vn 0.000000 0.000000 1.000000
vn 0.000000 -0.997078 0.076391
vn 0.000000 -0.997078 0.076391
vn 0.000000 -0.997078 0.076391
vn 0.000000 -0.997078 0.076391
vn 0.000000 0.000000 1.000000
vn 0.000000 0.000000 1.000000
vn 0.000000 0.000000 1.000000
vn 0.000000 0.000000 1.000000
vn 0.000000 -1.000000 0.000000
vn 0.000000 -1.000000 0.000000
vn 0.000000 -1.000000 0.000000
vn 0.000000 -1.000000 0.000000
vn 0.000000 0.000000 -1.000000
vn 0.000000 0.000000 -1.000000
vn 0.000000 0.000000 -1.000000
vn 0.000000 0.000000 -1.000000
vn 0.000000 -0.997078 -0.076391
vn 0.000000 -0.997078 -0.076391
vn 0.000000 -0.997078 -0.076391
vn 0.000000 -0.997078 -0.076391
vn 0.000000 0.000000 -1.000000
vn 0.000000 0.000000 -1.000000
vn 0.000000 0.000000 -1.000000
vn 0.000000 0.000000 -1.000000
vn 0.000000 1.000000 0.000000
vn 0.000000 1.000000 0.000000
vn 0.000000 1.000000 0.000000
vn 0.000000 1.000000 0.000000
vn 1.000000 -0.000003 0.000000
vn 1.000000 -0.000003 0.000000
vn 1.000000 -0.000002 0.000000
vn 1.000000 -0.000002 0.000000
vn 1.000000 -0.000003 0.000000
vn 1.000000 -0.000003 0.000000
vn 1.000000 0.000000 0.000000
vn 1.000000 0.000000 0.000000
vn -1.000000 -0.000002 0.000000
vn -1.000000 -0.000002 0.000000
vn -1.000000 0.000000 0.000000
vn -1.000000 0.000000 0.000000
vn -1.000000 -0.000002 0.000000
vn -1.000000 -0.000002 0.000000
vn -1.000000 -0.000002 0.000000
vn -1.000000 -0.000002 0.000000
f 1/1/1 2/2/2 17/23/3 18/24/4
f 2/2/5 3/3/6 24/31/7 17/23/8
f 3/3/9 4/4/10 23/30/11 24/31/12
f 4/6/13 3/7/14 2/2/15 1/1/16
f 8/10/17 5/8/18 6/11/19 7/9/20
f 4/4/21 1/5/22 10/16/23 9/15/24
f 1/5/25 18/25/26 19/26/27 10/16/28
f 23/30/29 4/4/30 9/15/31 22/29/32
f 5/12/33 8/14/34 11/17/35 12/18/36
f 9/15/37 10/16/38 14/20/39 13/19/40
f 10/16/41 19/26/42 20/27/43 14/20/44
f 22/29/45 9/15/46 13/19/47 21/28/48
f 12/18/49 11/17/50 15/21/51 16/22/52
f 14/20/53 20/27/54 21/28/55 13/19/56
f 5/8/57 26/33/58 25/32/59 6/11/60
f 27/35/61 26/34/62 5/12/63 12/18/64
f 28/36/65 27/35/66 12/18/67 16/22/68
f 29/37/69 28/36/70 16/22/71 15/21/72
f 11/17/73 30/38/74 29/37/75 15/21/76
f 8/14/77 31/39/78 30/38/79 11/17/80
f 7/13/81 32/40/82 31/39/83 8/14/84
f 6/11/85 25/32/86 32/40/87 7/13/88
f 25/32/89 26/34/90 27/35/91 30/38/92 31/39/93 32/40/94
f 30/38/92 27/35/91 28/36/95 29/37/96
f 19/26/97 22/29/98 21/28/99 20/27/100
f 17/23/101 24/31/102 23/30/103 22/29/98 19/26/97 18/24/104
