# This file uses meters as units for non-parametric coordinates.

v -0.762422 -2.181286 1.465267
v 0.762421 -2.181286 1.465267
v -0.762422 2.181293 1.465267
v 0.762421 2.181293 1.465267
v -0.762422 2.181293 0.036205
v 0.762421 2.181293 0.036205
v -0.762422 -2.181286 0.036205
v 0.762421 -2.181286 0.036205
v 2.725557 2.725559 -1.723591
v -0.000000 3.854527 -1.723591
v -2.725557 2.725559 -1.723591
v -3.854520 0.000004 -1.723591
v -2.725557 -2.725552 -1.723591
v -0.000000 -3.854527 -1.723591
v 2.725557 -2.725552 -1.723591
v 3.854520 0.000004 -1.723591
v -0.000000 0.000004 0.036205
v -0.580001 -1.982159 1.723591
v 0.580000 -1.982159 1.723591
v 0.580000 1.982166 1.723591
v -0.580001 1.982166 1.723591
v 1.832371 1.832386 -0.095768
v 1.635677 1.635685 0.036205
v -0.000000 2.591358 -0.095768
v -0.000000 2.313190 0.036205
v -1.832371 1.832386 -0.095768
v -1.635677 1.635685 0.036205
v -2.591364 0.000004 -0.095768
v -2.313197 0.000004 0.036205
v -1.832371 -1.832378 -0.095768
v -1.635677 -1.635677 0.036205
v -0.000000 -2.591351 -0.095768
v -0.000000 -2.313183 0.036205
v 1.832371 -1.832378 -0.095768
v 1.635677 -1.635677 0.036205
v 2.591364 0.000004 -0.095768
v 2.313197 0.000004 0.036205
vt 0.427424 0.765983
vt 0.427424 0.773953
vt 0.415358 0.765983
vt 0.415358 0.773953
vt 0.427424 0.765983
vt 0.427424 0.773953
vt 0.415358 0.765983
vt 0.415358 0.773953
vt 0.427424 0.765983
vt 0.427424 0.773953
vt 0.427424 0.765983
vt 0.415358 0.765983
vt 0.427424 0.773953
vt 0.415358 0.773953
vt 0.426989 0.767004
vt 0.426989 0.772932
vt 0.415794 0.772932
vt 0.415794 0.767004
vt 0.420951 0.770418
vt 0.421217 0.770887
vt 0.420289 0.774698
vt 0.419911 0.774710
vt 0.423455 0.768655
vt 0.423458 0.769313
vt 0.420914 0.770423
vt 0.421190 0.770892
vt 0.419861 0.774702
vt 0.420250 0.774690
vt 0.420914 0.770358
vt 0.421190 0.770813
vt 0.423455 0.768561
vt 0.423458 0.769209
vt 0.420951 0.770363
vt 0.421217 0.770818
vt 0.419766 0.768197
vt 0.423415 0.765575
vt 0.419636 0.768205
vt 0.418070 0.774844
vt 0.419636 0.768382
vt 0.423415 0.765710
vt 0.419766 0.768391
vt 0.418220 0.774856
vt 0.423458 0.774694
vn 0.000000 0.000000 1.000000
vn 0.000000 0.000000 1.000000
vn 0.000000 0.000000 1.000000
vn 0.000000 0.000000 1.000000
vn 0.000000 1.000000 0.000000
vn 0.000000 1.000000 0.000000
vn 0.000000 1.000000 0.000000
vn 0.000000 1.000000 0.000000
vn 0.000000 0.000000 -1.000000
vn 0.000000 0.000000 -1.000000
vn 0.000000 0.000000 -1.000000
vn 0.000000 0.000000 -1.000000
vn 0.000000 -1.000000 0.000000
vn 0.000000 -1.000000 0.000000
vn 0.000000 -1.000000 0.000000
vn 0.000000 -1.000000 0.000000
vn 1.000000 0.000000 0.000000
vn 1.000000 0.000000 0.000000
vn 1.000000 0.000000 0.000000
vn 1.000000 0.000000 0.000000
vn -1.000000 0.000000 0.000000
vn -1.000000 0.000000 0.000000
vn -1.000000 0.000000 0.000000
vn -1.000000 0.000000 0.000000
vn 0.000000 -0.791989 0.610535
vn 0.000000 -0.791989 0.610535
vn 0.000000 -0.791989 0.610535
vn 0.000000 -0.791989 0.610535
vn 0.816853 0.000000 0.576847
vn 0.816853 0.000000 0.576847
vn 0.816853 0.000000 0.576847
vn 0.816853 0.000000 0.576847
vn 0.000000 0.792004 0.610516
vn 0.000000 0.792004 0.610516
vn 0.000000 0.792004 0.610516
vn 0.000000 0.792004 0.610516
vn -0.816853 0.000000 0.576847
vn -0.816853 0.000000 0.576847
vn -0.816853 0.000000 0.576847
vn -0.816853 0.000000 0.576847
vn 0.303099 0.303089 0.903476
vn 0.303101 0.303086 0.903476
vn 0.428641 -0.000001 0.903475
vn 0.428641 -0.000001 0.903475
vn 0.000003 0.428634 0.903478
vn 0.000003 0.428634 0.903478
vn -0.303098 0.303090 0.903475
vn -0.303101 0.303088 0.903475
vn -0.428647 -0.000000 0.903472
vn -0.428647 -0.000000 0.903472
vn -0.303102 -0.303086 0.903476
vn -0.303104 -0.303083 0.903476
vn -0.000002 -0.428623 0.903484
vn -0.000002 -0.428623 0.903484
vn 0.303095 -0.303085 0.903478
vn 0.303098 -0.303083 0.903478
vn 0.558643 0.558642 0.613056
vn 0.000000 0.790039 0.613057
vn 0.000000 0.790039 0.613057
vn 0.558641 0.558643 0.613056
vn -0.558644 0.558642 0.613055
vn -0.558643 0.558644 0.613055
vn -0.790043 0.000000 0.613052
vn -0.790043 0.000000 0.613052
vn -0.558644 -0.558642 0.613055
vn -0.558643 -0.558643 0.613055
vn 0.000000 -0.790041 0.613055
vn 0.000000 -0.790041 0.613055
vn 0.558645 -0.558643 0.613053
vn 0.558644 -0.558644 0.613053
vn 0.790043 -0.000000 0.613052
vn 0.790043 -0.000000 0.613052
vn -0.000004 0.000000 1.000000
vn -0.000000 0.000000 1.000000
vn 0.000000 0.000000 1.000000
vn 0.000004 0.000000 1.000000
vn 0.000000 0.000000 1.000000
vn 0.000004 0.000000 1.000000
vn 0.000000 0.000000 1.000000
vn -0.000004 0.000000 1.000000
vn 0.000000 0.000000 1.000000
f 18/15/1 19/16/2 20/17/3 21/18/4
f 3/3/5 4/4/6 6/6/7 5/5/8
f 5/5/9 6/6/10 8/8/11 7/7/12
f 7/7/13 8/8/14 2/10/15 1/9/16
f 2/2/17 8/11/18 6/12/19 4/4/20
f 7/13/21 1/1/22 3/3/23 5/14/24
f 1/1/25 2/2/26 19/16/27 18/15/28
f 2/2/29 4/4/30 20/17/31 19/16/32
f 4/4/33 3/3/34 21/18/35 20/17/36
f 3/3/37 1/1/38 18/15/39 21/18/40
f 22/19/41 23/20/42 37/21/43 36/22/44
f 23/20/42 22/19/41 24/23/45 25/24/46
f 25/24/46 24/23/45 26/25/47 27/26/48
f 27/26/48 26/25/47 28/27/49 29/28/50
f 29/28/50 28/27/49 30/29/51 31/30/52
f 31/30/52 30/29/51 32/31/53 33/32/54
f 33/32/54 32/31/53 34/33/55 35/34/56
f 35/34/56 34/33/55 36/22/44 37/21/43
f 9/35/57 10/36/58 24/23/59 22/19/60
f 10/36/58 11/37/61 26/25/62 24/23/59
f 11/37/61 12/38/63 28/27/64 26/25/62
f 12/38/63 13/39/65 30/29/66 28/27/64
f 13/39/65 14/40/67 32/31/68 30/29/66
f 14/40/67 15/41/69 34/33/70 32/31/68
f 15/41/69 16/42/71 36/22/72 34/33/70
f 16/42/71 9/35/57 22/19/60 36/22/72
f 23/20/73 25/24/74 17/43/75
f 25/24/74 27/26/76 17/43/75
f 27/26/76 29/28/77 17/43/75
f 29/28/77 31/30/78 17/43/75
f 31/30/78 33/32/79 17/43/75
f 33/32/79 35/34/80 17/43/75
f 35/34/80 37/21/81 17/43/75
f 37/21/81 23/20/73 17/43/75
