# This file uses meters as units for non-parametric coordinates.

v 0.000000 2.225366 -0.000000
v -0.000000 11.826038 0.000000
v -2.727771 0.000000 -2.727771
v -3.857650 0.000000 -0.000000
v -2.727771 0.000000 2.727771
v 0.000000 0.000000 3.857650
v 2.727771 0.000000 2.727771
v 3.857650 0.000000 -0.000000
v 2.727772 0.000000 -2.727771
v 0.000000 0.000000 -3.857651
v -2.453405 2.225366 -2.453405
v -3.469638 2.225366 0.000000
v -2.453405 2.225366 2.453405
v -0.000000 2.225366 3.469638
v 2.453405 2.225366 2.453405
v 3.469638 2.225366 0.000000
v 2.453405 2.225366 -2.453405
v -0.000000 2.225366 -3.469639
v 0.000000 0.000000 -0.000000
v -2.482021 11.826038 -2.482021
v -3.510107 11.826038 -0.000000
v -2.482021 11.826038 2.482021
v 0.000000 11.826038 3.510107
v 2.482021 11.826038 2.482021
v 3.510108 11.826038 -0.000000
v 2.482021 11.826038 -2.482021
v 0.000000 11.826038 -3.510108
v -2.059975 16.123937 -2.059976
v -2.913244 16.123937 -0.000000
v -2.059975 16.123937 2.059975
v 0.000001 16.123937 2.913244
v 2.059976 16.123937 2.059975
v 2.913246 16.123937 -0.000000
v 2.059977 16.123937 -2.059976
v 0.000001 16.123937 -2.913246
v 0.000001 16.123937 -0.000000
v 0.943829 21.339198 33.530045
v 1.887469 22.149884 33.047092
v 2.222937 2.941203 0.000000
v 3.166577 3.884843 0.000000
v 0.943829 24.841353 32.503773
v 1.887469 24.030667 32.986731
v 2.222937 8.312002 0.000000
v 3.166577 7.368362 0.000000
v -1.887469 24.030667 32.986731
v -0.943829 24.841353 32.503773
v -3.166577 7.368362 0.000000
v -2.222937 8.312002 0.000000
v -0.943829 21.339198 33.530045
v -1.887469 22.149884 33.047092
v -2.222937 2.941203 0.000000
v -3.166577 3.884843 0.000000
v -2.723838 16.251576 32.404019
v -3.852088 17.332263 34.904297
v -2.723838 18.412951 37.404583
v -0.000000 18.860587 38.440226
v 2.723838 18.412951 37.404583
v 3.852088 17.332263 34.904297
v 2.723839 16.251576 32.404019
v -0.000000 15.803939 31.368369
v -1.651584 26.393658 29.201944
v -2.335692 27.048926 30.717973
v -1.651584 27.704194 32.234008
v -0.000000 27.975615 32.861965
v 1.651583 27.704194 32.234008
v 2.335691 27.048926 30.717973
v 1.651584 26.393658 29.201944
v -0.000000 26.122237 28.573982
v -0.000000 17.332263 34.904297
v -0.000000 27.044019 30.706627
v 4.572198 18.318675 34.477945
v 3.233032 19.601389 37.445633
v -0.000000 20.132708 38.674885
v -3.233032 19.601389 37.445633
v -4.572198 18.318675 34.477945
v -3.233032 17.035965 31.510260
v -0.000000 16.504646 30.281006
v 3.233033 17.035962 31.510260
v -3.402213 25.963862 31.173491
v -2.405728 25.009385 28.965208
v -0.000000 24.614026 28.050512
v 2.405728 25.009385 28.965208
v 3.402213 25.963862 31.173491
v 2.405728 26.918340 33.381766
v -0.000000 27.313698 34.296469
v -2.405728 26.918340 33.381766
v -2.437111 26.293534 31.044396
v -1.723298 25.609813 29.462537
v 0.000000 25.326605 28.807310
v 1.723299 25.609813 29.462537
v 2.437111 26.293534 31.044396
v 1.723298 26.977255 32.626255
v 0.000000 27.260463 33.281487
v -1.723298 26.977255 32.626255
v -2.978649 2.614507 -2.978649
v -2.680813 2.225366 -2.680814
v -4.212445 2.614507 -0.000000
v -3.791243 2.225366 -0.000000
v -2.978649 2.614507 2.978649
v -2.680813 2.225366 2.680813
v 0.000000 2.614507 4.212445
v 0.000000 2.225366 3.791243
v 2.978649 2.614507 2.978649
v 2.680814 2.225366 2.680813
v 4.212447 2.614507 -0.000000
v 3.791244 2.225366 -0.000000
v 2.978650 2.614507 -2.978650
v 2.680814 2.225366 -2.680814
v 0.000000 2.614507 -4.212447
v 0.000000 2.225366 -3.791244
v -2.978649 11.436898 -2.978649
v -2.680814 11.826038 -2.680814
v -4.212446 11.436898 0.000000
v -3.791243 11.826038 0.000000
v -2.978649 11.436898 2.978649
v -2.680814 11.826038 2.680814
v -0.000000 11.436898 4.212446
v -0.000000 11.826038 3.791243
v 2.978649 11.436898 2.978649
v 2.680814 11.826038 2.680814
v 4.212446 11.436898 0.000000
v 3.791244 11.826038 0.000000
v 2.978649 11.436898 -2.978649
v 2.680814 11.826038 -2.680814
v -0.000000 11.436898 -4.212447
v -0.000000 11.826038 -3.791244
vt 0.454849 0.987598
vt 0.455575 0.989017
vt 0.453456 0.989137
vt 0.455061 0.990514
vt 0.453606 0.991210
vt 0.452064 0.990698
vt 0.459546 0.985192
vt 0.452034 0.985192
vt 0.452034 0.990951
vt 0.459546 0.990951
vt 0.444523 0.985192
vt 0.444523 0.990951
vt 0.451338 0.989278
vt 0.452129 0.985192
vt 0.452129 0.990951
vt 0.451853 0.987782
vt 0.459702 0.985192
vt 0.459702 0.990951
vt 0.453307 0.987086
vt 0.452139 0.985192
vt 0.452139 0.990951
vt 0.456310 0.985901
vt 0.444434 0.985192
vt 0.444434 0.990951
vt 0.457746 0.988707
vt 0.451851 0.985192
vt 0.451851 0.990951
vt 0.456546 0.988898
vt 0.459269 0.985192
vt 0.459269 0.990951
vt 0.456042 0.988946
vt 0.454953 0.991575
vt 0.452324 0.988946
vt 0.452324 0.992664
vt 0.454953 0.986316
vt 0.449694 0.991575
vt 0.452324 0.985227
vt 0.448605 0.988946
vt 0.449694 0.986316
vt 0.461501 0.985311
vt 0.457158 0.985311
vt 0.457158 0.991716
vt 0.461501 0.991716
vt 0.452814 0.985311
vt 0.452814 0.991716
vt 0.455517 0.986887
vt 0.448292 0.985311
vt 0.448292 0.991716
vt 0.453261 0.984889
vt 0.443769 0.985311
vt 0.443769 0.991716
vt 0.453333 0.986163
vt 0.448259 0.985311
vt 0.448259 0.991716
vt 0.450386 0.986266
vt 0.452750 0.985311
vt 0.452750 0.991716
vt 0.451274 0.987148
vt 0.457075 0.985311
vt 0.457075 0.991716
vt 0.449369 0.989223
vt 0.461401 0.985311
vt 0.461401 0.991716
vt 0.455190 0.991812
vt 0.452324 0.992999
vt 0.452324 0.988946
vt 0.449458 0.991812
vt 0.456377 0.988946
vt 0.448271 0.988946
vt 0.455190 0.986080
vt 0.449458 0.986080
vt 0.452324 0.984893
vt 0.443800 0.991607
vt 0.461675 0.991607
vt 0.461651 0.989465
vt 0.443800 0.989465
vt 0.443800 0.991015
vt 0.461665 0.991015
vt 0.443800 0.988913
vt 0.461630 0.988913
vt 0.450545 0.989267
vt 0.450805 0.992030
vt 0.461612 0.985752
vt 0.443800 0.985839
vt 0.443800 0.985327
vt 0.461611 0.985220
vt 0.443800 0.985841
vt 0.461645 0.985841
vt 0.461672 0.987682
vt 0.443800 0.987682
vt 0.443800 0.988234
vt 0.461663 0.988234
vt 0.451573 0.991278
vt 0.453853 0.993041
vt 0.453757 0.992002
vt 0.456728 0.991665
vt 0.450659 0.986597
vt 0.450143 0.988677
vt 0.449206 0.984597
vt 0.452690 0.984597
vt 0.449547 0.988987
vt 0.446666 0.984597
vt 0.449206 0.992465
vt 0.452690 0.992465
vt 0.450158 0.986518
vt 0.451320 0.990529
vt 0.450943 0.991185
vt 0.453499 0.991067
vt 0.446666 0.992465
vt 0.453530 0.991824
vt 0.455405 0.989976
vt 0.455792 0.990529
vt 0.455921 0.987896
vt 0.456404 0.988060
vt 0.454744 0.986044
vt 0.455008 0.985862
vt 0.452564 0.985506
vt 0.452420 0.985224
vt 0.453032 0.988287
vt 0.453050 0.984597
vt 0.449820 0.992465
vt 0.449820 0.984597
vt 0.453050 0.992465
vt 0.455817 0.991016
vt 0.456292 0.992465
vt 0.459066 0.992465
vt 0.459066 0.984597
vt 0.456292 0.984597
vt 0.459474 0.992465
vt 0.459474 0.984597
vt 0.456097 0.992465
vt 0.456097 0.984597
vt 0.461232 0.992132
vt 0.461958 0.991951
vt 0.461958 0.988694
vt 0.461958 0.992026
vt 0.461958 0.988752
vt 0.461958 0.988333
vt 0.461958 0.985076
vt 0.461958 0.985074
vt 0.461958 0.988290
vt 0.461958 0.988644
vt 0.461958 0.991792
vt 0.461958 0.988626
vt 0.461958 0.988275
vt 0.461958 0.985109
vt 0.461958 0.985115
vt 0.461958 0.988388
vt 0.444788 0.992208
vt 0.444062 0.992026
vt 0.444062 0.988752
vt 0.444062 0.991951
vt 0.444062 0.988694
vt 0.444062 0.988333
vt 0.444062 0.985076
vt 0.444062 0.985074
vt 0.444062 0.988290
vt 0.444062 0.988644
vt 0.444062 0.991793
vt 0.444062 0.988626
vt 0.444062 0.988275
vt 0.444062 0.985109
vt 0.444062 0.985115
vt 0.444062 0.988388
vt 0.461232 0.988514
vt 0.444788 0.992132
vt 0.461232 0.984895
vt 0.444788 0.988513
vt 0.461232 0.988469
vt 0.444788 0.984895
vt 0.461232 0.991968
vt 0.444788 0.988469
vt 0.461232 0.988451
vt 0.444788 0.991968
vt 0.461232 0.984933
vt 0.444788 0.988451
vt 0.461232 0.988570
vt 0.444788 0.984933
vt 0.461232 0.992208
vt 0.444788 0.988570
vt 0.454908 0.991530
vt 0.455978 0.988946
vt 0.454908 0.986362
vt 0.452324 0.985291
vt 0.449740 0.986362
vt 0.448669 0.988946
vt 0.449740 0.991530
vt 0.452324 0.988946
vt 0.452324 0.992600
vt 0.448669 0.988946
vt 0.449740 0.986362
vt 0.452324 0.985291
vt 0.454908 0.986362
vt 0.455978 0.988946
vt 0.454908 0.991530
vt 0.452324 0.992600
vt 0.449740 0.991530
vt 0.452324 0.988946
vn -0.696597 0.171767 -0.696597
vn -0.985138 0.171767 -0.000000
vn -0.985138 0.171767 0.000000
vn -0.696598 0.171767 -0.696597
vn -0.696597 0.171767 0.696597
vn -0.696597 0.171767 0.696597
vn 0.000000 0.171767 0.985138
vn -0.000000 0.171767 0.985138
vn 0.696597 0.171767 0.696597
vn 0.696597 0.171767 0.696597
vn 0.985138 0.171767 0.000000
vn 0.985138 0.171767 0.000000
vn 0.696598 0.171767 -0.696597
vn 0.696597 0.171767 -0.696597
vn -0.000000 0.171767 -0.985138
vn -0.000000 0.171767 -0.985138
vn 0.000000 -1.000000 0.000000
vn 0.000000 -1.000000 0.000000
vn 0.000000 -1.000000 0.000000
vn 0.000000 -1.000000 0.000000
vn 0.000000 -1.000000 0.000000
vn 0.000000 -1.000000 0.000000
vn 0.000000 -1.000000 0.000000
vn 0.000000 -1.000000 0.000000
vn 0.000000 -1.000000 0.000000
vn -0.700385 0.137553 -0.700385
vn -0.990494 0.137553 0.000000
vn -0.990494 0.137553 -0.000000
vn -0.700385 0.137553 -0.700385
vn -0.700385 0.137553 0.700385
vn -0.700385 0.137553 0.700385
vn -0.000000 0.137553 0.990494
vn 0.000000 0.137553 0.990494
vn 0.700385 0.137553 0.700385
vn 0.700385 0.137553 0.700385
vn 0.990494 0.137553 0.000000
vn 0.990494 0.137553 0.000000
vn 0.700385 0.137553 -0.700385
vn 0.700385 0.137553 -0.700385
vn -0.000000 0.137553 -0.990494
vn 0.000000 0.137553 -0.990494
vn 0.000000 1.000000 0.000001
vn 0.000000 1.000000 0.000001
vn 0.000000 1.000000 0.000000
vn 0.000000 1.000000 0.000000
vn 0.000000 1.000000 0.000000
vn 0.000000 1.000000 0.000001
vn 0.000000 1.000000 0.000001
vn 0.000000 1.000000 0.000000
vn 0.000000 1.000000 0.000000
vn 0.999259 0.000433 0.038483
vn 0.999259 0.000433 0.038483
vn 0.999259 0.000433 0.038483
vn 0.999259 0.000433 0.038483
vn 0.000000 0.891363 -0.453290
vn 0.000000 0.891363 -0.453290
vn 0.000000 0.891363 -0.453290
vn 0.000000 0.891363 -0.453290
vn -0.999259 0.000433 0.038483
vn -0.999259 0.000433 0.038483
vn -0.999259 0.000433 0.038483
vn -0.999259 0.000433 0.038483
vn 0.000000 -0.876696 0.481045
vn 0.000000 -0.876696 0.481045
vn 0.000000 -0.876696 0.481045
vn 0.000000 -0.876696 0.481045
vn 0.681096 -0.630001 0.373103
vn 0.681096 -0.630001 0.373103
vn 0.681096 -0.630001 0.373103
vn 0.681096 -0.630001 0.373103
vn 0.689004 0.656969 -0.306048
vn 0.689004 0.656968 -0.306048
vn 0.689004 0.656969 -0.306048
vn 0.689004 0.656968 -0.306048
vn -0.689004 0.656968 -0.306048
vn -0.689004 0.656969 -0.306048
vn -0.689004 0.656968 -0.306048
vn -0.689004 0.656969 -0.306048
vn -0.681096 -0.630001 0.373103
vn -0.681096 -0.630001 0.373103
vn -0.681096 -0.630001 0.373103
vn -0.681096 -0.630001 0.373103
vn -0.587412 -0.744049 -0.318337
vn -0.830727 -0.510991 0.220863
vn -0.830727 -0.510991 0.220864
vn -0.587412 -0.744049 -0.318337
vn -0.587413 -0.277935 0.760065
vn -0.587412 -0.277935 0.760065
vn -0.000000 -0.181401 0.983409
vn -0.000000 -0.181401 0.983409
vn 0.587412 -0.277936 0.760065
vn 0.587412 -0.277936 0.760065
vn 0.830727 -0.510991 0.220864
vn 0.830727 -0.510991 0.220865
vn 0.587412 -0.744049 -0.318336
vn 0.587412 -0.744049 -0.318337
vn -0.000000 -0.840585 -0.541680
vn -0.000000 -0.840585 -0.541680
vn 0.000000 -0.917926 0.396752
vn 0.000000 -0.917926 0.396752
vn -0.000000 -0.917926 0.396752
vn 0.000001 -0.917926 0.396752
vn -0.000000 -0.917926 0.396752
vn -0.000001 -0.917926 0.396752
vn 0.000000 -0.917926 0.396752
vn 0.000000 -0.917926 0.396752
vn 0.000000 -0.917926 0.396752
vn 0.000001 0.917927 -0.396750
vn 0.000001 0.917926 -0.396752
vn 0.000000 0.917926 -0.396751
vn -0.000000 0.917926 -0.396753
vn 0.000000 0.917925 -0.396753
vn 0.000001 0.917926 -0.396752
vn -0.000001 0.917926 -0.396751
vn -0.000001 0.917926 -0.396751
vn 0.000000 0.917927 -0.396750
vn 0.700232 0.405511 0.587569
vn 0.990277 0.127692 -0.055192
vn 0.990277 0.127692 -0.055192
vn 0.700232 0.405511 0.587568
vn 0.000000 0.520587 0.853808
vn 0.000000 0.520587 0.853808
vn -0.700232 0.405511 0.587568
vn -0.700232 0.405511 0.587568
vn -0.990277 0.127692 -0.055192
vn -0.990277 0.127692 -0.055192
vn -0.700231 -0.150126 -0.697953
vn -0.700231 -0.150126 -0.697953
vn -0.000000 -0.265202 -0.964193
vn -0.000000 -0.265202 -0.964193
vn 0.700231 -0.150126 -0.697953
vn 0.700231 -0.150126 -0.697953
vn -0.240785 0.766661 -0.595192
vn -0.344205 0.861278 -0.373796
vn -0.344231 0.862172 -0.371705
vn -0.241914 0.767098 -0.594170
vn 0.000000 0.728058 -0.685516
vn 0.000000 0.728058 -0.685516
vn 0.240785 0.766661 -0.595192
vn 0.241914 0.767098 -0.594170
vn 0.344205 0.861278 -0.373795
vn 0.344231 0.862172 -0.371704
vn 0.246056 0.957959 -0.147551
vn 0.244910 0.958417 -0.146480
vn 0.000000 0.998627 -0.052376
vn 0.000000 0.998627 -0.052376
vn -0.246056 0.957959 -0.147551
vn -0.244910 0.958417 -0.146480
vn -0.701779 -0.166105 -0.692759
vn -0.992491 0.112272 -0.048551
vn -0.992491 0.112289 -0.048512
vn -0.701801 -0.166097 -0.692739
vn -0.000000 -0.281409 -0.959588
vn -0.000000 -0.281409 -0.959588
vn 0.701781 -0.166105 -0.692757
vn 0.701802 -0.166096 -0.692738
vn 0.992491 0.112273 -0.048552
vn 0.992491 0.112289 -0.048514
vn 0.701814 0.390663 0.595685
vn 0.701792 0.390671 0.595705
vn -0.000001 0.505979 0.862545
vn -0.000001 0.505979 0.862546
vn -0.701814 0.390662 0.595685
vn -0.701792 0.390671 0.595705
vn -0.653282 -0.707107 -0.270598
vn -0.653282 -0.707107 -0.270598
vn -0.653282 -0.707107 -0.270598
vn -0.653282 -0.707107 -0.270598
vn -0.270598 -0.707107 -0.653281
vn -0.270598 -0.707107 -0.653281
vn -0.270598 -0.707107 -0.653281
vn -0.270598 -0.707107 -0.653281
vn -0.653281 -0.707107 0.270598
vn -0.653281 -0.707107 0.270598
vn -0.653281 -0.707107 0.270598
vn -0.653281 -0.707107 0.270598
vn -0.270598 -0.707107 0.653281
vn -0.270598 -0.707107 0.653281
vn -0.270598 -0.707107 0.653281
vn -0.270598 -0.707107 0.653281
vn 0.270598 -0.707107 0.653282
vn 0.270598 -0.707107 0.653282
vn 0.270598 -0.707107 0.653282
vn 0.270598 -0.707107 0.653282
vn 0.653282 -0.707107 0.270598
vn 0.653281 -0.707107 0.270598
vn 0.653281 -0.707107 0.270598
vn 0.653281 -0.707107 0.270598
vn 0.653281 -0.707107 -0.270598
vn 0.653281 -0.707107 -0.270598
vn 0.653281 -0.707107 -0.270598
vn 0.653281 -0.707107 -0.270598
vn 0.270598 -0.707107 -0.653282
vn 0.270598 -0.707107 -0.653282
vn 0.270598 -0.707107 -0.653282
vn 0.270598 -0.707107 -0.653282
vn -0.270598 0.707106 -0.653282
vn -0.270598 0.707106 -0.653282
vn -0.270598 0.707106 -0.653282
vn -0.270598 0.707106 -0.653282
vn -0.653281 0.707107 -0.270598
vn -0.653281 0.707107 -0.270598
vn -0.653281 0.707107 -0.270598
vn -0.653282 0.707107 -0.270598
vn -0.653282 0.707107 0.270597
vn -0.653282 0.707107 0.270597
vn -0.653282 0.707107 0.270597
vn -0.653282 0.707107 0.270597
vn -0.270598 0.707107 0.653281
vn -0.270598 0.707107 0.653281
vn -0.270598 0.707107 0.653281
vn -0.270598 0.707107 0.653281
vn 0.270598 0.707106 0.653282
vn 0.270598 0.707106 0.653282
vn 0.270598 0.707106 0.653282
vn 0.270598 0.707106 0.653282
vn 0.653282 0.707106 0.270599
vn 0.653282 0.707106 0.270599
vn 0.653282 0.707106 0.270599
vn 0.653282 0.707106 0.270599
vn 0.653282 0.707106 -0.270598
vn 0.653282 0.707106 -0.270598
vn 0.653282 0.707106 -0.270598
vn 0.653282 0.707106 -0.270598
vn 0.270598 0.707106 -0.653282
vn 0.270598 0.707106 -0.653282
vn 0.270598 0.707106 -0.653282
vn 0.270598 0.707106 -0.653282
vn -0.707107 -0.000000 -0.707107
vn -1.000000 -0.000000 0.000000
vn -1.000000 -0.000000 0.000000
vn -0.707107 -0.000000 -0.707107
vn -0.707107 -0.000000 0.707107
vn -0.707107 -0.000000 0.707107
vn 0.000000 -0.000000 1.000000
vn -0.000000 -0.000000 1.000000
vn 0.707107 0.000000 0.707107
vn 0.707107 0.000000 0.707107
vn 1.000000 0.000000 0.000000
vn 1.000000 0.000000 0.000000
vn 0.707107 0.000000 -0.707107
vn 0.707107 0.000000 -0.707107
vn -0.000000 0.000000 -1.000000
vn -0.000000 0.000000 -1.000000
vn 0.000000 -1.000000 0.000000
vn 0.000000 -1.000000 0.000000
vn 0.000000 -1.000000 -0.000000
vn 0.000000 -1.000000 -0.000000
vn 0.000000 -1.000000 -0.000000
vn 0.000000 -1.000000 0.000000
vn 0.000000 -1.000000 -0.000000
vn 0.000000 -1.000000 -0.000000
vn 0.000000 -1.000000 -0.000000
vn 0.000000 1.000000 0.000000
vn 0.000000 1.000000 0.000000
vn 0.000000 1.000000 0.000000
vn 0.000000 1.000000 0.000000
vn 0.000000 1.000000 -0.000000
vn 0.000000 1.000000 -0.000000
vn 0.000000 1.000000 0.000000
vn 0.000000 1.000000 0.000000
vn 0.000000 1.000000 0.000000
f 3/7/1 4/8/2 12/9/3 11/10/4
f 4/8/2 5/11/5 13/12/6 12/9/3
f 5/11/5 6/14/7 14/15/8 13/12/6
f 6/14/7 7/17/9 15/18/10 14/15/8
f 7/17/9 8/20/11 16/21/12 15/18/10
f 8/20/11 9/23/13 17/24/14 16/21/12
f 9/23/13 10/26/15 18/27/16 17/24/14
f 10/26/15 3/29/1 11/30/4 18/27/16
f 4/31/17 3/32/18 19/33/19
f 5/35/20 4/31/17 19/33/19
f 6/37/21 5/35/20 19/33/19
f 7/39/22 6/37/21 19/33/19
f 8/38/23 7/39/22 19/33/19
f 9/36/24 8/38/23 19/33/19
f 10/34/25 9/36/24 19/33/19
f 3/32/18 10/34/25 19/33/19
f 20/40/26 21/41/27 29/42/28 28/43/29
f 21/41/27 22/44/30 30/45/31 29/42/28
f 22/44/30 23/47/32 31/48/33 30/45/31
f 23/47/32 24/50/34 32/51/35 31/48/33
f 24/50/34 25/53/36 33/54/37 32/51/35
f 25/53/36 26/56/38 34/57/39 33/54/37
f 26/56/38 27/59/40 35/60/41 34/57/39
f 27/59/40 20/62/26 28/63/29 35/60/41
f 28/64/42 29/65/43 36/66/44
f 29/65/43 30/67/45 36/66/44
f 30/67/45 31/69/46 36/66/44
f 31/69/46 32/71/47 36/66/44
f 32/71/47 33/72/48 36/66/44
f 33/72/48 34/70/49 36/66/44
f 34/70/49 35/68/50 36/66/44
f 35/68/50 28/64/42 36/66/44
f 38/73/51 40/74/52 44/75/53 42/76/54
f 41/79/55 43/80/56 48/83/57 46/84/58
f 45/87/59 47/88/60 52/89/61 50/90/62
f 49/91/63 51/92/64 39/78/65 37/77/66
f 38/73/67 37/77/68 39/78/69 40/74/70
f 41/79/71 42/76/72 44/75/73 43/80/74
f 45/85/75 46/84/76 48/83/77 47/86/78
f 49/91/79 50/90/80 52/89/81 51/92/82
f 53/97/83 54/98/84 75/101/85 76/105/86
f 54/98/84 55/106/87 74/107/88 75/101/85
f 55/106/87 56/108/89 73/110/90 74/107/88
f 56/108/89 57/111/91 72/112/92 73/110/90
f 57/111/91 58/113/93 71/114/94 72/112/92
f 58/113/93 59/115/95 78/116/96 71/114/94
f 59/115/95 60/117/97 77/118/98 78/116/96
f 60/117/97 53/97/83 76/105/86 77/118/98
f 54/98/99 53/97/100 69/119/101
f 55/106/102 54/98/99 69/119/101
f 56/108/103 55/106/102 69/119/101
f 57/111/104 56/108/103 69/119/101
f 58/113/105 57/111/104 69/119/101
f 59/115/106 58/113/105 69/119/101
f 60/117/107 59/115/106 69/119/101
f 53/97/100 60/117/107 69/119/101
f 61/1/108 62/2/109 70/3/110
f 62/2/109 63/4/111 70/3/110
f 63/4/111 64/5/112 70/3/110
f 64/5/112 65/6/113 70/3/110
f 65/6/113 66/13/114 70/3/110
f 66/13/114 67/16/115 70/3/110
f 67/16/115 68/19/116 70/3/110
f 68/19/116 61/1/108 70/3/110
f 72/102/117 71/122/118 83/121/119 84/109/120
f 73/99/121 72/102/117 84/109/120 85/103/122
f 74/100/123 73/99/121 85/103/122 86/104/124
f 75/132/125 74/100/123 86/104/124 79/131/126
f 76/130/127 75/132/125 79/131/126 80/129/128
f 77/128/129 76/127/127 80/126/128 81/125/130
f 78/120/131 77/128/129 81/125/130 82/123/132
f 71/122/118 78/120/131 82/123/132 83/121/119
f 80/22/133 79/25/134 87/28/135 88/46/136
f 81/49/137 80/22/133 88/46/136 89/52/138
f 82/55/139 81/49/137 89/52/138 90/58/140
f 83/61/141 82/55/139 90/58/140 91/81/142
f 84/82/143 83/61/141 91/81/142 92/93/144
f 85/94/145 84/82/143 92/93/144 93/95/146
f 86/96/147 85/94/145 93/95/146 94/124/148
f 79/25/134 86/96/147 94/124/148 87/28/135
f 88/46/149 87/28/150 62/2/151 61/1/152
f 89/52/153 88/46/149 61/1/152 68/19/154
f 90/58/155 89/52/153 68/19/154 67/16/156
f 91/81/157 90/58/155 67/16/156 66/13/158
f 92/93/159 91/81/157 66/13/158 65/6/160
f 93/95/161 92/93/159 65/6/160 64/5/162
f 94/124/163 93/95/161 64/5/162 63/4/164
f 87/28/150 94/124/163 63/4/164 62/2/151
f 95/133/165 96/134/166 98/135/167 97/165/168
f 96/136/169 95/179/170 109/177/171 110/137/172
f 97/165/173 98/138/174 100/139/175 99/167/176
f 99/167/177 100/140/178 102/141/179 101/169/180
f 101/169/181 102/142/182 104/143/183 103/171/184
f 103/171/185 104/143/186 106/144/187 105/173/188
f 105/173/189 106/145/190 108/146/191 107/175/192
f 107/175/193 108/147/194 110/148/195 109/177/196
f 111/149/197 112/150/198 126/151/199 125/180/200
f 112/152/201 111/166/202 113/168/203 114/153/204
f 114/154/205 113/168/206 115/170/207 116/155/208
f 116/156/209 115/170/210 117/172/211 118/157/212
f 118/158/213 117/172/214 119/174/215 120/159/216
f 120/159/217 119/174/218 121/176/219 122/160/220
f 122/161/221 121/176/222 123/178/223 124/162/224
f 124/163/225 123/178/226 125/180/227 126/164/228
f 95/133/229 97/165/230 113/168/231 111/166/232
f 97/165/230 99/167/233 115/170/234 113/168/231
f 99/167/233 101/169/235 117/172/236 115/170/234
f 101/169/235 103/171/237 119/174/238 117/172/236
f 103/171/237 105/173/239 121/176/240 119/174/238
f 105/173/239 107/175/241 123/178/242 121/176/240
f 107/175/241 109/177/243 125/180/244 123/178/242
f 109/177/243 95/179/229 111/149/232 125/180/244
f 98/182/245 96/181/246 1/188/247
f 100/183/248 98/182/245 1/188/247
f 102/184/249 100/183/248 1/188/247
f 104/185/250 102/184/249 1/188/247
f 106/186/251 104/185/250 1/188/247
f 108/187/252 106/186/251 1/188/247
f 110/189/253 108/187/252 1/188/247
f 96/181/246 110/189/253 1/188/247
f 112/197/254 114/190/255 2/198/256
f 114/190/255 116/191/257 2/198/256
f 116/191/257 118/192/258 2/198/256
f 118/192/258 120/193/259 2/198/256
f 120/193/259 122/194/260 2/198/256
f 122/194/260 124/195/261 2/198/256
f 124/195/261 126/196/262 2/198/256
f 126/196/262 112/197/254 2/198/256
