# This file uses centimeters as units for non-parametric coordinates.

v -50.591713 22.257647 40.416985
v 50.591713 22.257647 40.416985
v -50.591713 29.164637 40.416985
v 50.591713 29.164637 40.416985
v -50.591713 29.164637 -40.416985
v 50.591713 29.164637 -40.416985
v -50.591713 22.257647 -40.416985
v 50.591713 22.257647 -40.416985
v 0.000000 22.257647 40.416985
v 0.000000 29.164637 40.416985
v 0.000000 29.164637 -40.416985
v 0.000000 22.257647 -40.416985
v -38.445858 0.000000 32.469147
v -44.080990 0.000000 32.469147
v -35.526028 22.955553 34.801758
v -47.000820 22.955553 34.801758
v -35.526028 22.955553 25.634708
v -47.000820 22.955553 25.634708
v -38.445858 0.000000 27.967319
v -44.080990 0.000000 27.967319
v -38.445858 0.000000 -28.212389
v -44.080990 0.000000 -28.212389
v -35.526028 22.955553 -25.879780
v -47.000820 22.955553 -25.879780
v -35.526028 22.955553 -35.046825
v -47.000820 22.955553 -35.046825
v -38.445858 0.000000 -32.714218
v -44.080990 0.000000 -32.714218
v 38.445858 0.000000 32.469147
v 44.080990 0.000000 32.469147
v 35.526028 22.955553 34.801758
v 47.000820 22.955553 34.801758
v 35.526028 22.955553 25.634708
v 47.000820 22.955553 25.634708
v 38.445858 0.000000 27.967319
v 44.080990 0.000000 27.967319
v 38.445858 0.000000 -28.212389
v 44.080990 0.000000 -28.212389
v 35.526028 22.955553 -25.879780
v 47.000820 22.955553 -25.879780
v 35.526028 22.955553 -35.046825
v 47.000820 22.955553 -35.046825
v 38.445858 0.000000 -32.714218
v 44.080990 0.000000 -32.714218
vt 0.636892 0.643185
vt 0.685428 0.643185
vt 0.685428 0.649811
vt 0.636892 0.649811
vt 0.636892 0.651173
vt 0.685428 0.651173
vt 0.685428 0.728721
vt 0.636892 0.728721
vt 0.636892 0.730013
vt 0.685428 0.730013
vt 0.685428 0.736639
vt 0.636892 0.736639
vt 0.636892 0.652189
vt 0.685428 0.652189
vt 0.685428 0.729738
vt 0.636892 0.729738
vt 0.637221 0.711473
vt 0.734102 0.711473
vt 0.734102 0.719751
vt 0.637221 0.719751
vt 0.734102 0.710113
vt 0.637221 0.710113
vt 0.637221 0.701835
vt 0.734102 0.701835
vt 0.733963 0.643185
vt 0.733963 0.649811
vt 0.733963 0.651173
vt 0.733963 0.728721
vt 0.733963 0.730013
vt 0.733963 0.736639
vt 0.733963 0.652189
vt 0.733963 0.729738
vt 0.709977 0.670485
vt 0.709977 0.717672
vt 0.662790 0.717672
vt 0.662790 0.670485
vt 0.662790 0.717672
vt 0.662790 0.670485
vt 0.709977 0.670485
vt 0.709977 0.717672
vt 0.709977 0.717672
vt 0.662790 0.717672
vt 0.662790 0.670485
vt 0.662790 0.717672
vt 0.709977 0.670485
vt 0.709977 0.717672
vt 0.662790 0.717672
vt 0.662790 0.670485
vt 0.662790 0.717672
vt 0.662790 0.670485
vt 0.709977 0.670485
vt 0.709977 0.717672
vt 0.709977 0.717672
vt 0.662790 0.717672
vt 0.662790 0.670485
vt 0.662790 0.717672
vt 0.709977 0.670485
vt 0.662790 0.670485
vt 0.662790 0.717672
vt 0.709977 0.717672
vt 0.662790 0.717672
vt 0.709977 0.717672
vt 0.709977 0.670485
vt 0.662790 0.670485
vt 0.709977 0.717672
vt 0.662790 0.717672
vt 0.662790 0.670485
vt 0.662790 0.717672
vt 0.709977 0.670485
vt 0.662790 0.670485
vt 0.662790 0.717672
vt 0.709977 0.717672
vt 0.662790 0.717672
vt 0.709977 0.717672
vt 0.709977 0.670485
vt 0.662790 0.670485
vt 0.709977 0.717672
vt 0.662790 0.717672
vt 0.662790 0.670485
vt 0.662790 0.717672
vn 0.000000 0.000000 1.000000
vn 0.000000 0.000000 1.000000
vn 0.000000 0.000000 1.000000
vn 0.000000 0.000000 1.000000
vn 0.000000 1.000000 0.000000
vn 0.000000 1.000000 0.000000
vn 0.000000 1.000000 0.000000
vn 0.000000 1.000000 0.000000
vn 0.000000 0.000000 -1.000000
vn 0.000000 0.000000 -1.000000
vn 0.000000 0.000000 -1.000000
vn 0.000000 0.000000 -1.000000
vn 0.000000 -1.000000 0.000000
vn 0.000000 -1.000000 0.000000
vn 0.000000 -1.000000 0.000000
vn 0.000000 -1.000000 0.000000
vn 1.000000 0.000000 0.000000
vn 1.000000 0.000000 0.000000
vn 1.000000 0.000000 0.000000
vn 1.000000 0.000000 0.000000
vn -1.000000 0.000000 0.000000
vn -1.000000 0.000000 0.000000
vn -1.000000 0.000000 0.000000
vn -1.000000 0.000000 0.000000
vn 0.000000 0.000000 1.000000
vn 0.000000 0.000000 1.000000
vn 0.000000 0.000000 1.000000
vn 0.000000 0.000000 1.000000
vn 0.000000 1.000000 0.000000
vn 0.000000 1.000000 0.000000
vn 0.000000 1.000000 0.000000
vn 0.000000 1.000000 0.000000
vn 0.000000 0.000000 -1.000000
vn 0.000000 0.000000 -1.000000
vn 0.000000 0.000000 -1.000000
vn 0.000000 0.000000 -1.000000
vn 0.000000 -1.000000 0.000000
vn 0.000000 -1.000000 0.000000
vn 0.000000 -1.000000 0.000000
vn 0.000000 -1.000000 0.000000
vn 0.000000 -0.101094 0.994877
vn 0.000000 -0.101094 0.994877
vn 0.000000 -0.101094 0.994877
vn 0.000000 -0.101094 0.994877
vn 0.000000 -0.101094 -0.994877
vn 0.000000 -0.101094 -0.994877
vn 0.000000 -0.101094 -0.994877
vn 0.000000 -0.101094 -0.994877
vn 0.000000 -1.000000 0.000000
vn 0.000000 -1.000000 0.000000
vn 0.000000 -1.000000 0.000000
vn 0.000000 -1.000000 0.000000
vn -0.992008 -0.126178 0.000000
vn -0.992008 -0.126178 0.000000
vn -0.992008 -0.126178 0.000000
vn -0.992008 -0.126178 0.000000
vn 0.992008 -0.126178 0.000000
vn 0.992008 -0.126178 0.000000
vn 0.992008 -0.126178 0.000000
vn 0.992008 -0.126178 0.000000
vn 0.000000 -0.101094 0.994877
vn 0.000000 -0.101094 0.994877
vn 0.000000 -0.101094 0.994877
vn 0.000000 -0.101094 0.994877
vn 0.000000 -0.101094 -0.994877
vn 0.000000 -0.101094 -0.994877
vn 0.000000 -0.101094 -0.994877
vn 0.000000 -0.101094 -0.994877
vn 0.000000 -1.000000 0.000000
vn 0.000000 -1.000000 0.000000
vn 0.000000 -1.000000 0.000000
vn 0.000000 -1.000000 0.000000
vn -0.992008 -0.126178 0.000000
vn -0.992008 -0.126178 0.000000
vn -0.992008 -0.126178 0.000000
vn -0.992008 -0.126178 0.000000
vn 0.992008 -0.126178 0.000000
vn 0.992008 -0.126178 0.000000
vn 0.992008 -0.126178 0.000000
vn 0.992008 -0.126178 0.000000
vn 0.000000 -0.101094 0.994877
vn 0.000000 -0.101094 0.994877
vn 0.000000 -0.101094 0.994877
vn 0.000000 -0.101094 0.994877
vn 0.000000 -0.101094 -0.994877
vn 0.000000 -0.101094 -0.994877
vn 0.000000 -0.101094 -0.994877
vn 0.000000 -0.101094 -0.994877
vn 0.000000 -1.000000 0.000000
vn 0.000000 -1.000000 0.000000
vn 0.000000 -1.000000 0.000000
vn 0.000000 -1.000000 0.000000
vn 0.992008 -0.126178 0.000000
vn 0.992008 -0.126178 0.000000
vn 0.992008 -0.126178 0.000000
vn 0.992008 -0.126178 0.000000
vn -0.992008 -0.126178 0.000000
vn -0.992008 -0.126178 0.000000
vn -0.992008 -0.126178 0.000000
vn -0.992008 -0.126178 0.000000
vn 0.000000 -0.101094 0.994877
vn 0.000000 -0.101094 0.994877
vn 0.000000 -0.101094 0.994877
vn 0.000000 -0.101094 0.994877
vn 0.000000 -0.101094 -0.994877
vn 0.000000 -0.101094 -0.994877
vn 0.000000 -0.101093 -0.994877
vn 0.000000 -0.101093 -0.994877
vn 0.000000 -1.000000 0.000000
vn 0.000000 -1.000000 0.000000
vn 0.000000 -1.000000 0.000000
vn 0.000000 -1.000000 0.000000
vn 0.992008 -0.126178 0.000000
vn 0.992008 -0.126178 0.000000
vn 0.992008 -0.126178 0.000000
vn 0.992008 -0.126178 0.000000
vn -0.992008 -0.126178 0.000000
vn -0.992008 -0.126178 0.000000
vn -0.992008 -0.126178 0.000000
vn -0.992008 -0.126178 0.000000
f 1/1/1 9/2/2 10/3/3 3/4/4
f 3/5/5 10/6/6 11/7/7 5/8/8
f 5/9/9 11/10/10 12/11/11 7/12/12
f 7/13/13 12/14/14 9/15/15 1/16/16
f 2/17/17 8/18/18 6/19/19 4/20/20
f 7/21/21 1/22/22 3/23/23 5/24/24
f 9/2/25 2/25/26 4/26/27 10/3/28
f 11/7/29 10/6/30 4/27/31 6/28/32
f 12/11/33 11/10/34 6/29/35 8/30/36
f 9/15/37 12/14/38 8/31/39 2/32/40
f 13/33/41 15/34/42 16/35/43 14/36/44
f 17/37/45 19/38/46 20/39/47 18/40/48
f 19/41/49 13/33/50 14/36/51 20/42/52
f 14/36/53 16/35/54 18/40/55 20/39/56
f 19/43/57 17/44/58 15/34/59 13/33/60
f 21/45/61 23/46/62 24/47/63 22/48/64
f 25/49/65 27/50/66 28/51/67 26/52/68
f 27/53/69 21/45/70 22/48/71 28/54/72
f 22/48/73 24/47/74 26/52/75 28/51/76
f 27/55/77 25/56/78 23/46/79 21/45/80
f 29/57/81 30/58/82 32/59/83 31/60/84
f 33/61/85 34/62/86 36/63/87 35/64/88
f 35/65/89 36/66/90 30/58/91 29/57/92
f 30/58/93 36/63/94 34/62/95 32/59/96
f 35/67/97 29/57/98 31/60/99 33/68/100
f 37/69/101 38/70/102 40/71/103 39/72/104
f 41/73/105 42/74/106 44/75/107 43/76/108
f 43/77/109 44/78/110 38/70/111 37/69/112
f 38/70/113 44/75/114 42/74/115 40/71/116
f 43/79/117 37/69/118 39/72/119 41/80/120
