# This file uses centimeters as units for non-parametric coordinates.

v -16.792999 14.508405 54.352592
v 5.159485 14.508405 66.012733
v 5.159485 24.047226 66.012733
v -16.792999 24.047226 54.352592
v -16.792999 24.047226 -53.926826
v 5.159485 24.047226 -65.789894
v 5.159485 14.508405 -65.789894
v -16.792999 14.508405 -53.926826
v 40.664978 24.047226 70.736961
v 40.664978 14.508405 70.736961
v 40.664978 14.508405 -70.736961
v 40.664978 24.047226 -70.736961
v -41.662689 14.508405 14.938366
v -41.662689 24.047226 14.938366
v -41.662689 24.047226 -17.668587
v -41.662689 14.508405 -17.668587
v 27.688477 24.047226 70.736961
v 27.688477 24.047226 -70.736961
v 27.688477 14.508405 -70.736961
v 27.688477 14.508405 70.736961
v -33.535889 24.047226 31.638649
v -33.535889 14.508405 31.638649
v -33.535889 24.047226 -34.368874
v -33.535889 14.508405 -34.368874
v -36.595867 0.000000 6.556488
v -25.268625 0.000000 6.556488
v -25.268625 15.444709 6.556488
v -36.595867 15.444709 6.556488
v -36.595867 15.444709 -4.770756
v -25.268625 15.444709 -4.770756
v -25.268625 0.000000 -4.770756
v -36.595867 0.000000 -4.770756
v 21.581848 0.000000 -50.524609
v 32.909088 0.000000 -50.524609
v 32.909088 15.444709 -50.524609
v 21.581848 15.444709 -50.524609
v 21.581848 15.444709 -61.851860
v 32.909088 15.444709 -61.851860
v 32.909088 0.000000 -61.851860
v 21.581848 0.000000 -61.851860
v 21.581848 0.000000 63.016106
v 32.909088 0.000000 63.016106
v 32.909088 15.444709 63.016106
v 21.581848 15.444709 63.016106
v 21.581848 15.444709 51.688862
v 32.909088 15.444709 51.688862
v 32.909088 0.000000 51.688862
v 21.581848 0.000000 51.688862
vt 0.841865 0.842908
vt 0.854980 0.842902
vt 0.854980 0.788083
vt 0.841864 0.788090
vt 0.762387 0.837115
vt 0.762387 0.802041
vt 0.769498 0.798264
vt 0.769498 0.840957
vt 0.782423 0.788118
vt 0.769308 0.788118
vt 0.769308 0.842937
vt 0.782423 0.842937
vt 0.768993 0.841009
vt 0.761882 0.837232
vt 0.761882 0.802159
vt 0.768993 0.798316
vt 0.768095 0.842246
vt 0.768095 0.790189
vt 0.858965 0.790189
vt 0.858965 0.842246
vt 0.821884 0.842919
vt 0.821884 0.788100
vt 0.802403 0.788112
vt 0.802404 0.842931
vt 0.776795 0.796733
vt 0.861734 0.796733
vt 0.861734 0.842560
vt 0.776795 0.842560
vt 0.755848 0.842937
vt 0.755848 0.788118
vt 0.868439 0.788118
vt 0.868439 0.842937
vt 0.861229 0.842540
vt 0.776290 0.842540
vt 0.776290 0.796714
vt 0.861229 0.796714
vt 0.868439 0.788076
vt 0.868439 0.842896
vt 0.755671 0.842818
vt 0.755671 0.787999
vt 0.831862 0.788095
vt 0.831862 0.842913
vt 0.756964 0.830780
vt 0.756964 0.809399
vt 0.792426 0.842937
vt 0.792426 0.788118
vt 0.756459 0.829875
vt 0.756459 0.808493
vt 0.754331 0.825370
vt 0.754331 0.814808
vt 0.753826 0.824465
vt 0.753826 0.813902
vt 0.832065 0.786871
vt 0.785131 0.786871
vt 0.785131 0.833806
vt 0.832065 0.833806
vt 0.785131 0.833806
vt 0.832065 0.833806
vt 0.832065 0.786871
vt 0.785131 0.786871
vt 0.832065 0.833948
vt 0.785131 0.833948
vt 0.785131 0.786871
vt 0.785131 0.833806
vt 0.832065 0.786871
vt 0.785131 0.786871
vt 0.785131 0.833806
vt 0.832065 0.833806
vt 0.785131 0.833806
vt 0.832065 0.833806
vt 0.832065 0.786871
vt 0.785131 0.786871
vt 0.832065 0.833948
vt 0.785131 0.833948
vt 0.785131 0.786871
vt 0.785131 0.833806
vt 0.832065 0.786871
vt 0.785131 0.786871
vt 0.785131 0.833806
vt 0.832065 0.833806
vt 0.785131 0.833806
vt 0.832065 0.833806
vt 0.832065 0.786871
vt 0.785131 0.786871
vt 0.832065 0.833948
vt 0.785131 0.833948
vt 0.785131 0.786871
vt 0.785131 0.833806
vn -0.664128 0.000000 0.747619
vn -0.345639 0.000000 0.938368
vn -0.345639 0.000000 0.938368
vn -0.664128 0.000000 0.747619
vn 0.000000 1.000000 0.000000
vn 0.000000 1.000000 0.000000
vn 0.000000 1.000000 0.000000
vn 0.000000 1.000000 0.000000
vn -0.630363 0.000000 -0.776300
vn -0.353511 0.000000 -0.935430
vn -0.353511 0.000000 -0.935430
vn -0.630363 0.000000 -0.776300
vn 0.000000 -1.000000 0.000000
vn 0.000000 -1.000000 0.000000
vn 0.000000 -1.000000 0.000000
vn 0.000000 -1.000000 0.000000
vn 0.995820 0.000000 0.091340
vn 0.995820 0.000000 0.091340
vn 0.995820 0.000000 -0.091340
vn 0.995820 0.000000 -0.091340
vn -0.986688 0.000000 0.162626
vn -0.986688 0.000000 0.162626
vn -0.986688 0.000000 -0.162626
vn -0.986688 0.000000 -0.162626
vn 0.000000 1.000000 0.000000
vn 0.000000 1.000000 0.000000
vn 0.000000 1.000000 0.000000
vn 0.000000 1.000000 0.000000
vn -0.137999 0.000000 -0.990432
vn -0.137999 0.000000 -0.990432
vn 0.995820 0.000000 -0.091340
vn 0.995820 0.000000 -0.091340
vn 0.000000 -1.000000 0.000000
vn 0.000000 -1.000000 0.000000
vn 0.000000 -1.000000 0.000000
vn 0.000000 -1.000000 0.000000
vn -0.131894 0.000000 0.991264
vn -0.131894 0.000000 0.991264
vn 0.995820 0.000000 0.091340
vn 0.995820 0.000000 0.091340
vn 0.000000 1.000000 0.000000
vn 0.000000 1.000000 0.000000
vn 0.000000 1.000000 0.000000
vn 0.000000 1.000000 0.000000
vn -0.353511 0.000000 -0.935430
vn -0.353511 0.000000 -0.935430
vn -0.137999 0.000000 -0.990432
vn -0.137999 0.000000 -0.990432
vn 0.000000 -1.000000 0.000000
vn 0.000000 -1.000000 0.000000
vn 0.000000 -1.000000 0.000000
vn 0.000000 -1.000000 0.000000
vn -0.345639 0.000000 0.938368
vn -0.345639 0.000000 0.938368
vn -0.131894 0.000000 0.991264
vn -0.131894 0.000000 0.991264
vn -0.664128 0.000000 0.747619
vn -0.664128 0.000000 0.747619
vn -0.845717 0.000000 0.533632
vn -0.845717 0.000000 0.533632
vn 0.000000 1.000000 0.000000
vn 0.000000 1.000000 0.000000
vn 0.000000 1.000000 0.000000
vn 0.000000 1.000000 0.000000
vn -0.630363 0.000000 -0.776300
vn -0.630363 0.000000 -0.776300
vn -0.824656 0.000000 -0.565635
vn -0.824656 0.000000 -0.565635
vn 0.000000 -1.000000 0.000000
vn 0.000000 -1.000000 0.000000
vn 0.000000 -1.000000 0.000000
vn 0.000000 -1.000000 0.000000
vn -0.845717 0.000000 0.533632
vn -0.845717 0.000000 0.533632
vn -0.986688 0.000000 0.162626
vn -0.986688 0.000000 0.162626
vn 0.000000 1.000000 0.000000
vn 0.000000 1.000000 0.000000
vn 0.000000 1.000000 0.000000
vn 0.000000 1.000000 0.000000
vn -0.824656 0.000000 -0.565635
vn -0.824656 0.000000 -0.565635
vn -0.986688 0.000000 -0.162626
vn -0.986688 0.000000 -0.162626
vn 0.000000 -1.000000 0.000000
vn 0.000000 -1.000000 0.000000
vn 0.000000 -1.000000 0.000000
vn 0.000000 -1.000000 0.000000
vn 0.000000 0.000000 1.000000
vn 0.000000 0.000000 1.000000
vn 0.000000 0.000000 1.000000
vn 0.000000 0.000000 1.000000
vn 0.000000 0.000000 -1.000000
vn 0.000000 0.000000 -1.000000
vn 0.000000 0.000000 -1.000000
vn 0.000000 0.000000 -1.000000
vn 0.000000 -1.000000 0.000000
vn 0.000000 -1.000000 0.000000
vn 0.000000 -1.000000 0.000000
vn 0.000000 -1.000000 0.000000
vn 1.000000 0.000000 0.000000
vn 1.000000 0.000000 0.000000
vn 1.000000 0.000000 0.000000
vn 1.000000 0.000000 0.000000
vn -1.000000 0.000000 0.000000
vn -1.000000 0.000000 0.000000
vn -1.000000 0.000000 0.000000
vn -1.000000 0.000000 0.000000
vn 0.000000 0.000000 1.000000
vn 0.000000 0.000000 1.000000
vn 0.000000 0.000000 1.000000
vn 0.000000 0.000000 1.000000
vn 0.000000 0.000000 -1.000000
vn 0.000000 0.000000 -1.000000
vn 0.000000 0.000000 -1.000000
vn 0.000000 0.000000 -1.000000
vn 0.000000 -1.000000 0.000000
vn 0.000000 -1.000000 0.000000
vn 0.000000 -1.000000 0.000000
vn 0.000000 -1.000000 0.000000
vn 1.000000 0.000000 0.000000
vn 1.000000 0.000000 0.000000
vn 1.000000 0.000000 0.000000
vn 1.000000 0.000000 0.000000
vn -1.000000 0.000000 0.000000
vn -1.000000 0.000000 0.000000
vn -1.000000 0.000000 0.000000
vn -1.000000 0.000000 0.000000
vn 0.000000 0.000000 1.000000
vn 0.000000 0.000000 1.000000
vn 0.000000 0.000000 1.000000
vn 0.000000 0.000000 1.000000
vn 0.000000 0.000000 -1.000000
vn 0.000000 0.000000 -1.000000
vn 0.000000 0.000000 -1.000000
vn 0.000000 0.000000 -1.000000
vn 0.000000 -1.000000 0.000000
vn 0.000000 -1.000000 0.000000
vn 0.000000 -1.000000 0.000000
vn 0.000000 -1.000000 0.000000
vn 1.000000 0.000000 0.000000
vn 1.000000 0.000000 0.000000
vn 1.000000 0.000000 0.000000
vn 1.000000 0.000000 0.000000
vn -1.000000 0.000000 0.000000
vn -1.000000 0.000000 0.000000
vn -1.000000 0.000000 0.000000
vn -1.000000 0.000000 0.000000
f 1/1/1 2/2/2 3/3/3 4/4/4
f 5/5/5 4/6/6 3/7/7 6/8/8
f 5/9/9 6/10/10 7/11/11 8/12/12
f 2/13/13 1/14/14 8/15/15 7/16/16
f 9/17/17 10/18/18 11/19/19 12/20/20
f 13/21/21 14/22/22 15/23/23 16/24/24
f 17/25/25 9/26/26 12/27/27 18/28/28
f 19/29/29 18/30/30 12/31/31 11/32/32
f 10/33/33 20/34/34 19/35/35 11/36/36
f 17/37/37 20/38/38 10/39/39 9/40/40
f 3/7/41 17/25/42 18/28/43 6/8/44
f 7/11/45 6/10/46 18/30/47 19/29/48
f 20/34/49 2/13/50 7/16/51 19/35/52
f 3/3/53 2/2/54 20/38/55 17/37/56
f 1/1/57 4/4/58 21/41/59 22/42/60
f 4/6/61 5/5/62 23/43/63 21/44/64
f 5/9/65 8/12/66 24/45/67 23/46/68
f 8/15/69 1/14/70 22/47/71 24/48/72
f 22/42/73 21/41/74 14/22/75 13/21/76
f 21/44/77 23/43/78 15/49/79 14/50/80
f 23/46/81 24/45/82 16/24/83 15/23/84
f 24/48/85 22/47/86 13/51/87 16/52/88
f 25/53/89 26/54/90 27/55/91 28/56/92
f 29/57/93 30/58/94 31/59/95 32/60/96
f 32/61/97 31/62/98 26/54/99 25/53/100
f 26/54/101 31/59/102 30/58/103 27/55/104
f 32/63/105 25/53/106 28/56/107 29/64/108
f 33/65/109 34/66/110 35/67/111 36/68/112
f 37/69/113 38/70/114 39/71/115 40/72/116
f 40/73/117 39/74/118 34/66/119 33/65/120
f 34/66/121 39/71/122 38/70/123 35/67/124
f 40/75/125 33/65/126 36/68/127 37/76/128
f 41/77/129 42/78/130 43/79/131 44/80/132
f 45/81/133 46/82/134 47/83/135 48/84/136
f 48/85/137 47/86/138 42/78/139 41/77/140
f 42/78/141 47/83/142 46/82/143 43/79/144
f 48/87/145 41/77/146 44/80/147 45/88/148
