# This file uses meters as units for non-parametric coordinates.

v 14.554878 0.834434 0.517895
v -14.554878 0.834432 0.517894
v 14.554878 1.084455 28.288254
v -14.554878 1.084454 28.288254
v 14.554878 4.015532 0.517895
v -14.554878 4.015530 0.517894
v 14.554878 4.265553 28.288258
v -14.554878 4.265552 28.288258
vt 0.247294 0.871739
vt 0.247293 0.872608
vt 0.245986 0.872608
vt 0.245986 0.871739
vt 0.247294 0.871739
vt 0.247293 0.872608
vt 0.245986 0.872608
vt 0.245986 0.871739
vn -0.000000 0.999960 -0.009003
vn -0.000000 0.999960 -0.009003
vn -0.000000 0.999960 -0.009003
vn -0.000000 0.999960 -0.009003
vn 1.000000 0.000000 0.000000
vn 1.000000 0.000000 0.000000
vn 1.000000 0.000000 0.000000
vn 1.000000 0.000000 0.000000
vn -0.000000 -0.000001 1.000000
vn -0.000000 -0.000001 1.000000
vn -0.000000 -0.000001 1.000000
vn -0.000000 -0.000001 1.000000
vn -1.000000 0.000000 0.000000
vn -1.000000 0.000000 0.000000
vn -1.000000 0.000000 0.000000
vn -1.000000 0.000000 0.000000
f 6/5/1 8/8/2 7/7/3 5/6/4
f 1/2/5 5/6/6 7/7/7 3/3/8
f 3/3/9 7/7/10 8/8/11 4/4/12
f 4/4/13 8/8/14 6/5/15 2/1/16
