# This file uses meters as units for non-parametric coordinates.

v -33.021762 8.818650 43.403514
v 13.124142 8.818650 43.403514
v -33.021762 43.140832 43.403514
v 13.124142 43.140832 43.403514
v -33.021762 43.140832 42.022901
v 13.124142 43.140832 42.022901
v -33.021762 8.818650 42.022901
v 13.124142 8.818650 42.022901
vt 0.569164 0.912024
vt 0.586657 0.912024
vt 0.569164 0.929517
vt 0.586657 0.929517
vt 0.569164 0.912107
vt 0.586657 0.912107
vt 0.569164 0.929600
vt 0.586657 0.929600
vn 0.000000 0.000000 1.000000
vn 0.000000 0.000000 1.000000
vn 0.000000 0.000000 1.000000
vn 0.000000 0.000000 1.000000
vn 0.000000 0.000000 -1.000000
vn 0.000000 0.000000 -1.000000
vn 0.000000 0.000000 -1.000000
vn 0.000000 0.000000 -1.000000
f 1/1/1 2/2/2 4/4/3 3/3/4
f 5/5/5 6/6/6 8/8/7 7/7/8
