# This file uses meters as units for non-parametric coordinates.

v 17.392714 51.122523 40.712243
v 17.392714 0.000049 40.712243
v -39.444590 49.693367 40.712243
v -38.566750 51.122523 40.712243
v -39.444590 2.172508 40.712243
v -38.566750 0.000049 40.712243
v 17.392714 0.000049 43.869772
v 17.041910 0.350841 44.220576
v 17.041910 50.771732 44.220576
v 17.392714 51.122523 43.869772
v -38.566750 51.122523 43.869772
v -38.421445 50.771732 44.220576
v -39.093793 49.548065 44.220576
v -39.444590 49.693367 43.869772
v -38.566750 0.000049 43.869772
v -38.421445 0.350841 44.220576
v -39.093793 2.317824 44.220576
v -39.444590 2.172508 43.869772
v -38.421445 42.812799 44.220576
v 17.041910 42.959909 44.220576
v 17.392714 42.959909 43.869772
v 17.392714 42.959909 40.712243
v -38.566747 42.812802 40.712243
v -39.444587 42.812802 40.712243
v -39.444587 42.812802 43.869772
v -39.093793 42.812799 44.220576
v -38.421445 8.974317 44.220576
v 17.041910 8.974317 44.220576
v 17.392714 8.974317 43.869772
v 17.392714 8.974317 40.712243
v -38.566750 8.974317 40.712243
v -39.444590 8.974317 40.712243
v -39.444590 8.974317 43.869772
v -39.093793 8.974317 44.220576
v -31.510264 50.771732 44.220576
v -31.510264 51.122523 43.869772
v -31.510264 51.122523 40.712243
v -31.510264 42.812802 40.712243
v -31.510264 9.153712 40.712243
v -31.446777 0.000049 40.712243
v -31.446777 0.000049 43.869772
v -31.446777 0.350841 44.220576
v 11.305920 50.771732 44.220576
v 11.574450 51.122523 43.869772
v 11.574447 51.122523 40.712243
v 11.574450 42.812802 40.712243
v 11.574450 9.153712 40.712243
v 11.574447 0.000049 40.712243
v 11.574447 0.000049 43.869772
v 11.305920 0.350841 44.220576
v -31.791108 8.974317 44.220576
v -31.446777 9.308505 43.869596
v 11.657310 8.974317 44.220576
v 11.332736 9.308529 43.870203
v -31.791108 42.959913 44.220576
v -31.446777 42.628953 43.869772
v 11.657310 42.959913 44.220576
v 11.332736 42.628916 43.870203
v -32.951436 20.302851 44.220576
v -32.588715 20.415323 43.869657
v -32.655595 20.373410 40.712243
v -38.566750 20.253813 40.712243
v -39.444590 20.253813 40.712243
v -39.444590 20.253813 43.869772
v -39.093793 20.253812 44.220576
v -38.421445 20.253812 44.220576
v -32.951436 31.631382 44.220576
v -32.588715 31.522138 43.869715
v -32.655595 31.593106 40.712243
v -38.566747 31.533308 40.712243
v -39.444587 31.533308 40.712243
v -39.444587 31.533308 43.869772
v -39.093793 31.533305 44.220576
v -38.421445 31.533305 44.220576
v 12.817642 31.631379 44.220576
v 12.475730 31.522120 43.870203
v 12.730356 31.593103 40.712243
v 17.392714 31.631377 40.712243
v 17.392714 31.631377 43.869772
v 17.041910 31.631377 44.220576
v 12.817642 20.302848 44.220576
v 12.475730 20.415324 43.870203
v 12.730356 20.373407 40.712243
v 17.392714 20.302847 40.712243
v 17.392714 20.302847 43.869772
v 17.041910 20.302847 44.220576
v -33.257937 25.967115 44.220576
v -32.890358 25.968729 43.869687
v -32.958133 25.983257 40.712243
v -38.566747 25.893560 40.712243
v -39.444587 25.893560 40.712243
v -39.444587 25.893560 43.869772
v -39.093793 25.893558 44.220576
v -38.421445 25.893558 44.220576
v 13.124141 25.967112 44.220576
v 12.777651 25.968722 43.870203
v 13.035686 25.983256 40.712243
v 17.392714 25.967112 40.712243
v 17.392714 25.967112 43.869772
v 17.041910 25.967112 44.220576
vt 0.418531 0.952992
vt 0.418537 0.953046
vt 0.411770 0.953041
vt 0.411722 0.952987
vt 0.418537 0.961427
vt 0.418531 0.961489
vt 0.411722 0.961485
vt 0.411770 0.961422
vt 0.411078 0.961123
vt 0.411187 0.961094
vt 0.411187 0.953367
vt 0.411078 0.953347
vt 0.411680 0.961521
vt 0.418521 0.961525
vt 0.411680 0.953023
vt 0.418521 0.953028
vt 0.411036 0.961159
vt 0.411036 0.953383
vt 0.427818 0.958422
vt 0.427917 0.958438
vt 0.427917 0.961513
vt 0.427818 0.961451
vt 0.427875 0.958454
vt 0.427875 0.961549
vt 0.411036 0.958350
vt 0.411078 0.958335
vt 0.411187 0.958327
vt 0.411770 0.958410
vt 0.411680 0.958442
vt 0.418521 0.958444
vt 0.427818 0.956480
vt 0.427917 0.956469
vt 0.427875 0.956485
vt 0.418521 0.956474
vt 0.411680 0.956473
vt 0.411036 0.956549
vt 0.411078 0.956533
vt 0.411187 0.956536
vt 0.411770 0.956468
vt 0.427818 0.953070
vt 0.427917 0.953016
vt 0.427875 0.953052
vt 0.421023 0.961446
vt 0.421040 0.961508
vt 0.421030 0.961545
vt 0.421030 0.958452
vt 0.421030 0.956483
vt 0.421030 0.953047
vt 0.421040 0.953011
vt 0.421023 0.953065
vt 0.418513 0.956444
vt 0.418535 0.956470
vt 0.418535 0.958415
vt 0.418513 0.958437
vt 0.421047 0.956452
vt 0.421023 0.956478
vt 0.421047 0.958445
vt 0.421023 0.958423
vt 0.418513 0.957108
vt 0.418535 0.957118
vt 0.418521 0.957131
vt 0.411680 0.957129
vt 0.411036 0.957149
vt 0.411078 0.957133
vt 0.411187 0.957133
vt 0.411770 0.957115
vt 0.418513 0.957773
vt 0.418535 0.957767
vt 0.418521 0.957787
vt 0.411680 0.957785
vt 0.411036 0.957750
vt 0.411078 0.957734
vt 0.411187 0.957730
vt 0.411770 0.957762
vt 0.421047 0.957781
vt 0.421023 0.957775
vt 0.421030 0.957796
vt 0.427875 0.957798
vt 0.427917 0.957782
vt 0.427818 0.957774
vt 0.421047 0.957117
vt 0.421023 0.957126
vt 0.421030 0.957139
vt 0.427875 0.957141
vt 0.427917 0.957126
vt 0.427818 0.957127
vt 0.418513 0.957440
vt 0.418535 0.957442
vt 0.418521 0.957459
vt 0.411680 0.957457
vt 0.411036 0.957449
vt 0.411078 0.957434
vt 0.411187 0.957432
vt 0.411770 0.957439
vt 0.421047 0.957449
vt 0.421023 0.957451
vt 0.421030 0.957467
vt 0.427875 0.957469
vt 0.427917 0.957454
vt 0.427818 0.957451
vn 0.000000 -0.707120 0.707094
vn 0.000000 -0.707120 0.707094
vn 0.000000 -0.707119 0.707094
vn 0.000000 -0.707119 0.707094
vn 0.000000 0.707119 0.707095
vn 0.000000 0.707119 0.707095
vn 0.000000 0.707117 0.707097
vn 0.000000 0.707117 0.707097
vn -0.620594 0.362646 0.695235
vn -0.620594 0.362646 0.695235
vn -0.620594 0.362646 0.695235
vn -0.620594 0.362646 0.695235
vn -0.692572 -0.259363 0.673109
vn -0.692572 -0.259363 0.673109
vn -0.692572 -0.259363 0.673109
vn -0.692572 -0.259363 0.673109
vn 0.000000 1.000000 0.000000
vn 0.000000 1.000000 0.000000
vn 0.000000 1.000000 0.000000
vn 0.000000 1.000000 0.000000
vn 0.000000 -1.000000 0.000000
vn 0.000000 -1.000000 0.000000
vn 0.000000 -1.000000 0.000000
vn 0.000000 -1.000000 0.000000
vn -0.852095 0.523388 0.000000
vn -0.852095 0.523388 0.000000
vn -0.852095 0.523388 0.000000
vn -0.852095 0.523388 0.000000
vn -0.927168 -0.374647 0.000000
vn -0.927168 -0.374647 0.000000
vn -0.927168 -0.374647 0.000000
vn -0.927168 -0.374647 0.000000
vn 0.707107 0.000000 0.707107
vn 0.707107 0.000000 0.707107
vn 0.707106 0.000000 0.707108
vn 0.707106 0.000000 0.707108
vn 1.000000 0.000000 0.000000
vn 1.000000 0.000000 0.000000
vn 1.000000 0.000000 0.000000
vn 1.000000 0.000000 0.000000
vn -1.000000 -0.000000 0.000000
vn -1.000000 -0.000000 0.000000
vn -1.000000 -0.000000 0.000000
vn -1.000000 -0.000000 0.000000
vn -0.707116 0.000000 0.707098
vn -0.707116 0.000000 0.707098
vn -0.707117 0.000000 0.707097
vn -0.707117 0.000000 0.707097
vn 0.000000 0.000000 1.000000
vn 0.000000 0.000000 1.000000
vn 0.000000 0.000000 1.000000
vn 0.000000 0.000000 1.000000
vn 0.000000 0.000000 -1.000000
vn 0.000000 0.000000 -1.000000
vn 0.000000 0.000000 -1.000000
vn 0.000000 0.000000 -1.000000
vn 0.000000 0.000000 -1.000000
vn 0.000000 0.000000 -1.000000
vn 0.707108 0.000000 0.707106
vn 0.707108 0.000000 0.707106
vn 0.707107 0.000000 0.707107
vn 0.707107 0.000000 0.707107
vn 1.000000 0.000000 0.000000
vn 1.000000 0.000000 0.000000
vn 1.000000 0.000000 0.000000
vn 1.000000 0.000000 0.000000
vn 0.000000 0.000000 -1.000000
vn 0.000000 0.000000 -1.000000
vn 0.000000 0.000000 -1.000000
vn -1.000000 0.000000 0.000000
vn -1.000000 0.000000 0.000000
vn -0.707115 0.000000 0.707098
vn -0.707115 0.000000 0.707098
vn 0.000000 0.000000 1.000000
vn 0.000000 0.000000 1.000000
vn 0.707107 0.000000 0.707106
vn 0.707107 0.000000 0.707106
vn 1.000000 0.000000 0.000000
vn 1.000000 0.000000 0.000000
vn -0.000000 0.000000 -1.000000
vn -0.000000 0.000000 -1.000000
vn -0.000000 0.000000 -1.000000
vn -0.000000 0.000000 -1.000000
vn 0.000004 0.000000 -1.000000
vn 0.000001 0.000000 -1.000000
vn -1.000000 0.000000 0.000000
vn -1.000000 0.000000 0.000000
vn -1.000000 0.000000 0.000000
vn -1.000000 0.000000 0.000000
vn -0.707113 0.000000 0.707101
vn -0.707113 0.000000 0.707101
vn -0.707112 0.000000 0.707101
vn -0.707112 0.000000 0.707101
vn 0.000000 0.000000 1.000000
vn 0.000000 0.000000 1.000000
vn 0.000000 0.000000 1.000000
vn 0.000000 0.000000 1.000000
vn 0.000000 0.707119 0.707095
vn 0.000000 0.707119 0.707094
vn 0.000000 1.000000 0.000000
vn 0.000000 1.000000 0.000000
vn 0.000000 0.000000 -1.000000
vn -0.000000 0.000000 -1.000000
vn 0.000000 0.000000 -1.000000
vn 0.000000 0.000000 -1.000000
vn 0.000000 -1.000000 0.000000
vn 0.000000 -1.000000 0.000000
vn 0.000000 -0.707120 0.707094
vn 0.000000 -0.707120 0.707094
vn 0.000000 0.707121 0.707092
vn 0.000000 0.707121 0.707092
vn 0.000000 1.000000 0.000000
vn 0.000000 1.000000 0.000000
vn 0.000000 0.000000 -1.000000
vn -0.000000 0.000000 -1.000000
vn -0.000000 0.000000 -1.000000
vn -0.000000 0.000000 -1.000000
vn 0.000000 0.000000 -1.000000
vn 0.000001 0.000000 -1.000000
vn 0.000000 -1.000000 0.000000
vn 0.000000 -1.000000 0.000000
vn 0.000000 -0.707120 0.707094
vn 0.000000 -0.707120 0.707094
vn 0.683128 -0.060515 0.727787
vn 0.683942 -0.057651 0.727255
vn 0.680439 -0.069827 0.729470
vn 0.680439 -0.069827 0.729470
vn -0.000005 0.723908 0.689897
vn -0.000005 0.723908 0.689897
vn -0.000005 0.723908 0.689897
vn -0.000005 0.723908 0.689897
vn -0.699467 0.071811 0.711048
vn -0.699467 0.071811 0.711048
vn -0.702453 0.062383 0.708991
vn -0.703452 0.059177 0.708275
vn -0.000004 -0.727154 0.686475
vn -0.000004 -0.727154 0.686475
vn -0.000004 -0.727154 0.686474
vn -0.000004 -0.727154 0.686475
vn 0.000000 0.000000 1.000000
vn 0.000000 0.000000 1.000000
vn 0.000000 0.000000 1.000000
vn 0.000000 0.000000 1.000000
vn 0.000000 0.000000 1.000000
vn 0.000000 0.000000 1.000000
vn 0.000000 0.000000 1.000000
vn 0.000000 0.000000 1.000000
vn -0.000000 0.000000 1.000000
vn -0.000000 0.000000 1.000000
vn -0.000000 0.000000 1.000000
vn -0.000000 0.000000 1.000000
vn 0.000000 0.000000 1.000000
vn 0.000000 0.000000 1.000000
vn 0.000000 0.000000 1.000000
vn -0.991464 0.102088 -0.081095
vn -0.992983 0.086074 -0.081090
vn -0.992967 0.086261 -0.081090
vn -0.991464 0.102088 -0.081095
vn -0.000000 -0.998309 -0.058129
vn -0.000000 -0.998309 -0.058129
vn -0.000000 -0.998309 -0.058129
vn -0.000000 -0.998309 -0.058129
vn 0.994491 -0.101882 -0.024641
vn 0.996037 -0.085713 -0.023760
vn 0.995987 -0.086273 -0.023791
vn 0.994491 -0.101882 -0.024641
vn 0.000000 0.998800 -0.048967
vn 0.000000 0.998800 -0.048967
vn 0.000000 0.998800 -0.048967
vn 0.000000 0.998800 -0.048967
vn 0.680245 0.069803 0.729654
vn 0.680245 0.069803 0.729654
vn 0.683784 0.057575 0.727409
vn 0.682934 0.060549 0.727966
vn 0.996017 0.086152 -0.022992
vn 0.996044 0.085839 -0.022978
vn 0.994514 0.101885 -0.023705
vn 0.994514 0.101885 -0.023705
vn 0.000000 0.000000 -1.000000
vn 0.000000 0.000000 -1.000000
vn -0.000001 0.000000 -1.000000
vn -1.000000 0.000000 0.000000
vn -1.000000 0.000000 0.000000
vn -0.707112 0.000000 0.707102
vn -0.707112 0.000000 0.707102
vn -0.000000 0.000000 1.000000
vn 0.000000 0.000000 1.000000
vn -0.000000 0.000000 1.000000
vn 0.689928 0.000077 0.723878
vn 0.689928 -0.000074 0.723878
vn 0.999762 0.000158 -0.021801
vn 0.999762 -0.000159 -0.021803
vn 0.000000 0.000000 -1.000000
vn 0.000000 0.000000 -1.000000
vn 0.000000 0.000000 -1.000000
vn -1.000000 0.000000 0.000000
vn -1.000000 0.000000 0.000000
vn -0.707113 0.000000 0.707101
vn -0.707113 0.000000 0.707101
vn 0.000000 0.000000 1.000000
vn -0.000000 0.000000 1.000000
vn 0.000000 0.000000 1.000000
vn -0.703706 -0.059261 0.708015
vn -0.702758 -0.062353 0.708691
vn -0.699799 -0.071844 0.710718
vn -0.699799 -0.071844 0.710718
vn -0.992892 -0.086379 -0.081880
vn -0.992930 -0.085945 -0.081876
vn -0.991388 -0.102081 -0.082028
vn -0.991388 -0.102081 -0.082028
vn -0.000000 0.000000 -1.000000
vn -0.000000 0.000000 -1.000000
vn 1.000000 0.000000 0.000000
vn 1.000000 0.000000 0.000000
vn 0.707108 0.000000 0.707106
vn 0.707108 0.000000 0.707106
vn 0.000001 0.000000 1.000000
vn 0.000000 0.000000 1.000000
vn -0.710306 0.000082 0.703893
vn -0.710307 -0.000078 0.703892
vn -0.996683 0.000158 -0.081384
vn -0.996683 -0.000159 -0.081386
vn 0.000000 0.000000 -1.000000
vn 0.000000 0.000000 -1.000000
vn 1.000000 0.000000 0.000000
vn 1.000000 0.000000 0.000000
vn 0.707106 0.000000 0.707107
vn 0.707106 0.000000 0.707107
vn 0.000000 0.000000 1.000000
vn 0.000000 0.000000 1.000000
f 41/1/1 42/2/2 16/3/3 15/4/4
f 35/5/5 36/6/6 11/7/7 12/8/8
f 12/8/9 11/7/10 14/9/11 13/10/12
f 15/4/13 16/3/14 17/11/15 18/12/16
f 4/13/17 11/7/18 36/6/19 37/14/20
f 15/4/21 6/15/22 40/16/23 41/1/24
f 14/9/25 11/7/26 4/13/27 3/17/28
f 15/4/29 18/12/30 5/18/31 6/15/32
f 20/19/33 21/20/34 10/21/35 9/22/36
f 10/21/37 21/20/38 22/23/39 1/24/40
f 24/25/41 25/26/42 14/9/43 3/17/44
f 25/26/45 26/27/46 13/10/47 14/9/48
f 26/27/49 19/28/50 12/8/51 13/10/52
f 24/25/53 3/17/54 4/13/55 23/29/56
f 37/14/57 38/30/58 23/29/56 4/13/55
f 28/31/59 29/32/60 85/85/61 86/86/62
f 84/84/63 85/85/64 29/32/65 30/33/66
f 23/29/56 38/30/58 69/69/67 70/70/68
f 71/71/69 24/25/53 23/29/56 70/70/68
f 71/71/70 72/72/71 25/26/42 24/25/41
f 72/72/72 73/73/73 26/27/46 25/26/45
f 73/73/74 74/74/75 19/28/50 26/27/49
f 8/40/76 7/41/77 29/32/60 28/31/59
f 30/33/66 29/32/65 7/41/78 2/42/79
f 31/35/80 39/34/81 40/16/82 6/15/83
f 5/18/84 32/36/85 31/35/80 6/15/83
f 5/18/86 18/12/87 33/37/88 32/36/89
f 18/12/90 17/11/91 34/38/92 33/37/93
f 17/11/94 16/3/95 27/39/96 34/38/97
f 43/43/98 44/44/99 36/6/6 35/5/5
f 37/14/20 36/6/19 44/44/100 45/45/101
f 45/45/102 46/46/103 38/30/58 37/14/57
f 40/16/82 39/34/81 47/47/104 48/48/105
f 41/1/24 40/16/23 48/48/106 49/49/107
f 49/49/108 50/50/109 42/2/2 41/1/1
f 9/22/110 10/21/111 44/44/99 43/43/98
f 45/45/101 44/44/100 10/21/112 1/24/113
f 1/24/114 22/23/115 46/46/103 45/45/102
f 47/47/104 83/83/116 84/84/117 30/33/118
f 48/48/105 47/47/104 30/33/118 2/42/119
f 49/49/107 48/48/106 2/42/120 7/41/121
f 7/41/122 8/40/123 50/50/109 49/49/108
f 67/67/124 68/68/125 56/53/126 55/54/127
f 52/52/128 51/51/129 53/55/130 54/56/131
f 54/56/132 53/55/133 81/81/134 82/82/135
f 55/54/136 56/53/137 58/58/138 57/57/139
f 19/28/50 55/54/140 35/5/141 12/8/51
f 74/74/75 67/67/142 55/54/140 19/28/50
f 16/3/95 42/2/143 51/51/144 27/39/96
f 35/5/141 55/54/140 57/57/145 43/43/146
f 51/51/144 42/2/143 50/50/147 53/55/148
f 53/55/148 28/31/149 86/86/150 81/81/151
f 43/43/146 57/57/145 20/19/152 9/22/153
f 53/55/148 50/50/147 8/40/154 28/31/149
f 54/56/155 82/82/156 83/83/157 47/47/158
f 58/58/159 56/53/160 38/30/161 46/46/162
f 56/53/163 68/68/164 69/69/165 38/30/166
f 52/52/167 54/56/168 47/47/169 39/34/170
f 51/51/171 52/52/172 60/60/173 59/59/174
f 61/61/175 60/60/176 52/52/177 39/34/178
f 62/62/179 61/61/180 39/34/81 31/35/80
f 32/36/85 63/63/181 62/62/179 31/35/80
f 32/36/89 33/37/88 64/64/182 63/63/183
f 33/37/93 34/38/92 65/65/184 64/64/185
f 34/38/97 27/39/96 66/66/186 65/65/187
f 27/39/96 51/51/144 59/59/188 66/66/186
f 87/87/189 88/88/190 68/68/125 67/67/124
f 69/69/165 68/68/164 88/88/191 89/89/192
f 70/70/68 69/69/67 89/89/193 90/90/194
f 91/91/195 71/71/69 70/70/68 90/90/194
f 91/91/196 92/92/197 72/72/71 71/71/70
f 92/92/198 93/93/199 73/73/73 72/72/72
f 93/93/200 94/94/201 74/74/75 73/73/74
f 94/94/201 87/87/202 67/67/142 74/74/75
f 76/76/203 75/75/204 57/57/205 58/58/206
f 77/77/207 76/76/208 58/58/209 46/46/210
f 78/78/211 77/77/212 46/46/103 22/23/115
f 22/23/39 21/20/38 79/79/213 78/78/214
f 80/80/215 79/79/216 21/20/34 20/19/33
f 75/75/217 80/80/218 20/19/152 57/57/145
f 82/82/135 81/81/134 95/95/219 96/96/220
f 83/83/157 82/82/156 96/96/221 97/97/222
f 84/84/117 83/83/116 97/97/223 98/98/224
f 98/98/225 99/99/226 85/85/64 84/84/63
f 86/86/62 85/85/61 99/99/227 100/100/228
f 81/81/151 86/86/150 100/100/229 95/95/230
f 59/59/174 60/60/173 88/88/190 87/87/189
f 89/89/192 88/88/191 60/60/176 61/61/175
f 90/90/194 89/89/193 61/61/180 62/62/179
f 63/63/181 91/91/195 90/90/194 62/62/179
f 63/63/183 64/64/182 92/92/197 91/91/196
f 64/64/185 65/65/184 93/93/199 92/92/198
f 65/65/187 66/66/186 94/94/201 93/93/200
f 66/66/186 59/59/188 87/87/202 94/94/201
f 96/96/220 95/95/219 75/75/204 76/76/203
f 97/97/222 96/96/221 76/76/208 77/77/207
f 98/98/224 97/97/223 77/77/212 78/78/211
f 78/78/214 79/79/213 99/99/226 98/98/225
f 100/100/228 99/99/227 79/79/216 80/80/215
f 95/95/230 100/100/229 80/80/218 75/75/217
