# This file uses meters as units for non-parametric coordinates.

v -34.236392 10.358851 35.040366
v -32.684649 13.229451 32.205749
v -34.236392 40.108559 35.040366
v -32.684649 37.237961 32.205749
v -34.236392 40.108559 11.534756
v -32.684649 37.237961 14.369376
v -34.236392 10.358851 11.534756
v -32.684649 13.229451 14.369376
v -34.236392 6.192000 40.281707
v -34.236392 44.275410 40.281707
v -34.375323 44.275410 5.433133
v -34.375323 6.192000 5.433133
v -29.851229 10.358851 5.604255
v -27.016608 13.229451 7.155995
v -29.851229 40.108559 5.604255
v -27.016608 37.237961 7.155995
v 6.782529 40.108559 5.604255
v 3.947909 37.237961 7.155995
v 6.782529 10.358851 5.604255
v 3.947909 13.229451 7.155995
v 12.520143 44.275410 5.433132
v 12.520143 6.192000 5.433132
v 12.520143 10.358851 35.040366
v 10.965471 13.229451 32.205749
v 12.520143 40.108559 35.040366
v 10.965471 37.237961 32.205749
v 12.520143 40.108559 11.534760
v 10.965471 37.237961 14.369376
v 12.520143 10.358851 11.534760
v 10.965471 13.229451 14.369376
v 12.520141 6.192000 40.281707
v 12.520141 44.275410 40.281707
v -35.092574 5.244412 40.281707
v -35.092574 45.222999 40.281707
v 13.155092 5.244412 40.281707
v 13.155092 45.222999 40.281707
vt 0.321800 0.923123
vt 0.322463 0.923858
vt 0.328473 0.923858
vt 0.329136 0.923123
vt 0.321800 0.930059
vt 0.322463 0.929324
vt 0.328473 0.929324
vt 0.329136 0.930059
vt 0.320947 0.931473
vt 0.320837 0.921765
vt 0.320837 0.931641
vt 0.330098 0.931641
vt 0.322014 0.930504
vt 0.322752 0.929802
vt 0.322776 0.923418
vt 0.322044 0.922711
vt 0.336050 0.930552
vt 0.335317 0.929846
vt 0.335342 0.923462
vt 0.336080 0.922760
vt 0.320875 0.921685
vt 0.337733 0.922467
vt 0.337533 0.931580
vt 0.337571 0.921743
vt 0.336455 0.923059
vt 0.328549 0.923029
vt 0.329261 0.923766
vt 0.335738 0.923791
vt 0.337497 0.921704
vt 0.327516 0.921666
vt 0.328525 0.929964
vt 0.329242 0.929232
vt 0.335719 0.929256
vt 0.336431 0.929994
vt 0.337569 0.922234
vt 0.327482 0.931542
vt 0.320909 0.922176
vt 0.330098 0.921765
vt 0.320726 0.931717
vt 0.320687 0.922408
vt 0.337607 0.931413
vt 0.337773 0.931655
vn 0.877167 0.000000 0.480185
vn 0.877168 0.000000 0.480185
vn 0.877167 0.000000 0.480185
vn 0.877168 0.000000 0.480185
vn 0.879698 0.475533 0.000000
vn 0.879698 0.475533 0.000000
vn 0.879698 0.475533 0.000000
vn 0.879698 0.475533 0.000000
vn 0.877168 0.000000 -0.480184
vn 0.877168 0.000000 -0.480184
vn 0.877168 0.000000 -0.480184
vn 0.877168 0.000000 -0.480184
vn 0.879698 -0.475534 0.000000
vn 0.879698 -0.475533 0.000000
vn 0.879698 -0.475534 0.000000
vn 0.879698 -0.475534 0.000000
vn 1.000000 0.000000 0.000000
vn 1.000000 0.000000 0.000000
vn 1.000000 0.000000 0.000000
vn 1.000000 0.000000 0.000000
vn 1.000000 0.000000 0.000000
vn 1.000000 0.000000 0.000000
vn 1.000000 0.000000 0.000000
vn 1.000000 0.000000 0.000000
vn 0.999862 0.016423 -0.002380
vn 0.999862 0.016423 -0.002380
vn 0.999862 0.016423 -0.002380
vn 0.999862 0.016423 -0.002380
vn 0.999741 0.000000 -0.022764
vn 0.999741 0.000000 -0.022764
vn 0.999741 0.000000 -0.022764
vn 0.999741 0.000000 -0.022764
vn 0.999862 -0.016423 -0.002380
vn 0.999862 -0.016423 -0.002380
vn 0.999862 -0.016423 -0.002380
vn 0.999862 -0.016423 -0.002380
vn -0.480183 0.000000 0.877168
vn -0.480183 0.000000 0.877168
vn -0.480183 0.000000 0.877168
vn -0.480183 0.000000 0.877168
vn 0.000000 0.475532 0.879698
vn 0.000000 0.475532 0.879698
vn 0.000000 0.475532 0.879698
vn 0.000000 0.475532 0.879698
vn 0.480183 0.000000 0.877168
vn 0.480183 0.000000 0.877168
vn 0.480183 0.000000 0.877168
vn 0.480183 0.000000 0.877168
vn 0.000000 -0.475532 0.879698
vn 0.000000 -0.475532 0.879698
vn 0.000000 -0.475532 0.879698
vn 0.000000 -0.475532 0.879698
vn 0.000000 0.000000 1.000000
vn 0.000000 0.000000 1.000000
vn 0.000000 0.000000 1.000000
vn 0.000000 0.000000 1.000000
vn -0.037797 0.000000 0.999285
vn -0.037797 0.000000 0.999285
vn -0.037797 0.000000 0.999285
vn -0.037797 0.000000 0.999285
vn 0.000000 0.041033 0.999158
vn 0.000000 0.041033 0.999158
vn 0.000000 0.041033 0.999158
vn 0.000000 0.041033 0.999158
vn 0.029811 0.000000 0.999556
vn 0.029811 0.000000 0.999556
vn 0.029811 0.000000 0.999556
vn 0.029811 0.000000 0.999556
vn 0.000000 -0.041033 0.999158
vn 0.000000 -0.041033 0.999158
vn 0.000000 -0.041033 0.999158
vn 0.000000 -0.041033 0.999158
vn -0.876785 0.000000 0.480882
vn -0.876785 0.000000 0.480882
vn -0.876785 0.000000 0.480882
vn -0.876785 0.000000 0.480882
vn -0.879322 0.476228 0.000000
vn -0.879322 0.476228 0.000000
vn -0.879322 0.476228 0.000000
vn -0.879322 0.476228 0.000000
vn -0.876786 0.000000 -0.480881
vn -0.876786 0.000000 -0.480881
vn -0.876786 0.000000 -0.480881
vn -0.876786 0.000000 -0.480881
vn -0.879322 -0.476227 0.000000
vn -0.879322 -0.476227 0.000000
vn -0.879322 -0.476227 0.000000
vn -0.879322 -0.476227 0.000000
vn -1.000000 0.000000 0.000000
vn -1.000000 0.000000 0.000000
vn -1.000000 0.000000 0.000000
vn -1.000000 0.000000 0.000000
vn -1.000000 0.000000 -0.000000
vn -1.000000 0.000000 -0.000000
vn -1.000000 0.000000 -0.000000
vn -1.000000 0.000000 -0.000000
vn -1.000000 0.000000 -0.000000
vn -1.000000 0.000000 -0.000000
vn -1.000000 0.000000 -0.000000
vn -1.000000 0.000000 -0.000000
vn -1.000000 0.000000 0.000000
vn -1.000000 0.000000 0.000000
vn -1.000000 0.000000 0.000000
vn -1.000000 0.000000 0.000000
vn -1.000000 -0.000001 -0.000000
vn -1.000000 -0.000001 -0.000000
vn -1.000000 -0.000001 -0.000000
vn -1.000000 -0.000001 -0.000000
vn -0.000001 0.000000 1.000000
vn -0.000001 0.000000 1.000000
vn -0.000001 0.000000 1.000000
vn -0.000001 0.000000 1.000000
vn -0.000001 0.000000 1.000000
vn -0.000001 0.000000 1.000000
vn -0.000001 0.000000 1.000000
vn -0.000001 0.000000 1.000000
vn 0.000000 -1.000000 -0.000000
vn 0.000000 -1.000000 -0.000000
vn 0.000000 -1.000000 -0.000000
vn 0.000000 -1.000000 -0.000000
vn 0.000000 1.000000 0.000000
vn 0.000000 1.000000 0.000000
vn 0.000000 1.000000 0.000000
vn 0.000000 1.000000 0.000000
vn 0.000000 0.000000 1.000000
vn 0.000000 0.000000 1.000000
vn 0.000000 0.000000 1.000000
vn 0.000000 0.000000 1.000000
vn 0.000000 0.000000 1.000000
vn 0.000000 0.000000 1.000000
vn 0.000000 0.000000 1.000000
vn 0.000000 0.000000 1.000000
f 1/1/1 2/2/2 4/3/3 3/4/4
f 3/4/5 4/3/6 6/7/7 5/8/8
f 5/8/9 6/7/10 8/6/11 7/5/12
f 7/5/13 8/6/14 2/2/15 1/1/16
f 2/2/17 8/6/18 6/7/19 4/3/20
f 1/1/21 3/4/22 10/38/23 9/10/24
f 3/4/25 5/8/26 11/12/27 10/38/28
f 5/8/29 7/5/30 12/11/31 11/12/32
f 7/5/33 1/1/34 9/10/35 12/11/36
f 13/13/37 14/14/38 16/15/39 15/16/40
f 15/16/41 16/15/42 18/19/43 17/20/44
f 17/20/45 18/19/46 20/18/47 19/17/48
f 19/17/49 20/18/50 14/14/51 13/13/52
f 14/14/53 20/18/54 18/19/55 16/15/56
f 13/13/57 15/16/58 11/21/59 12/11/60
f 15/16/61 17/20/62 21/24/63 11/21/64
f 17/20/65 19/17/66 22/23/67 21/24/68
f 19/17/69 13/13/70 12/11/71 22/23/72
f 23/25/73 25/26/74 26/27/75 24/28/76
f 25/26/77 27/31/78 28/32/79 26/27/80
f 27/31/81 29/34/82 30/33/83 28/32/84
f 29/34/85 23/25/86 24/28/87 30/33/88
f 24/28/89 26/27/90 28/32/91 30/33/92
f 23/25/93 31/29/94 32/30/95 25/26/96
f 25/26/97 32/30/98 21/36/99 27/31/100
f 27/31/101 21/36/102 22/23/103 29/34/104
f 29/34/105 22/23/106 31/29/107 23/25/108
f 9/37/109 10/9/110 34/39/111 33/40/112
f 32/41/113 31/35/114 35/22/115 36/42/116
f 10/9/117 11/21/118 21/24/119 32/41/120
f 12/11/121 9/10/122 31/29/123 22/23/124
f 31/35/125 9/37/126 33/40/127 35/22/128
f 10/9/129 32/41/130 36/42/131 34/39/132
