# This file uses meters as units for non-parametric coordinates.

v 64.355893 -0.000000 15.280863
v 64.355893 36.053081 15.280863
v -64.355905 0.000000 15.280863
v -64.355905 36.053081 15.280863
v -64.355905 5.173051 -21.421459
v -64.355905 29.052037 -21.421459
v 64.355893 5.173051 -21.421459
v 64.355893 29.052037 -21.421459
v 64.355893 36.053081 5.234293
v 64.355893 0.000006 5.234293
v -64.355905 0.000006 5.234293
v -64.355905 36.053081 5.234293
vt 0.377381 0.949207
vt 0.377381 0.959039
vt 0.404125 0.959039
vt 0.404125 0.949207
vt 0.402466 0.949207
vt 0.402466 0.959039
vt 0.398064 0.959039
vt 0.398063 0.949207
vt 0.404125 0.959039
vt 0.404125 0.949207
vt 0.377381 0.949207
vt 0.377381 0.959039
vt 0.381865 0.949207
vt 0.381864 0.959039
vt 0.404125 0.956348
vt 0.377381 0.956348
vt 0.377381 0.959039
vt 0.377381 0.951899
vt 0.404125 0.951899
vt 0.404125 0.959039
vt 0.383555 0.949207
vt 0.383553 0.959039
vn 0.000000 0.000000 1.000000
vn 0.000000 0.000000 1.000000
vn 0.000000 0.000000 1.000000
vn 0.000000 0.000000 1.000000
vn -1.000000 0.000000 -0.000000
vn -1.000000 0.000000 -0.000000
vn -1.000000 0.000000 -0.000000
vn -1.000000 0.000000 -0.000000
vn 0.000000 0.000000 -1.000000
vn 0.000000 0.000000 -1.000000
vn 0.000000 0.000000 -1.000000
vn 0.000000 0.000000 -1.000000
vn 1.000000 -0.000000 -0.000000
vn 1.000000 -0.000000 -0.000000
vn 1.000000 -0.000000 -0.000000
vn 1.000000 -0.000000 -0.000000
vn 0.000000 0.967196 -0.254031
vn 0.000000 0.967196 -0.254031
vn 0.000000 0.967196 -0.254031
vn 0.000000 0.967196 -0.254031
vn -0.000000 -0.981685 -0.190514
vn -0.000000 -0.981685 -0.190514
vn -0.000000 -0.981685 -0.190514
vn -0.000000 -0.981685 -0.190514
vn 1.000000 -0.000000 0.000000
vn 1.000000 -0.000000 0.000000
vn 1.000000 -0.000000 0.000000
vn 1.000000 -0.000000 0.000000
vn -0.000000 -1.000000 -0.000001
vn -0.000000 -1.000000 -0.000001
vn -0.000000 -1.000000 -0.000001
vn -0.000000 -1.000000 -0.000001
vn -1.000000 0.000000 0.000002
vn -1.000000 0.000000 0.000002
vn -1.000000 0.000000 0.000002
vn -1.000000 0.000000 0.000002
vn 0.000000 1.000000 0.000000
vn 0.000000 1.000000 0.000000
vn 0.000000 1.000000 0.000000
vn 0.000000 1.000000 0.000000
f 1/1/1 2/2/2 4/3/3 3/4/4
f 11/5/5 12/6/6 6/7/7 5/8/8
f 5/9/9 6/10/10 8/11/11 7/12/12
f 7/12/13 8/11/14 9/13/15 10/14/16
f 12/15/17 9/16/18 8/11/19 6/10/20
f 7/17/21 10/18/22 11/19/23 5/20/24
f 10/14/25 9/13/26 2/21/27 1/22/28
f 11/19/29 10/18/30 1/1/31 3/4/32
f 3/4/33 4/3/34 12/6/35 11/5/36
f 2/2/37 9/16/38 12/15/39 4/3/40
