# This file uses meters as units for non-parametric coordinates.

v -65.873520 6.442234 32.699376
v -0.601770 6.442265 32.699376
v -65.873520 6.442234 -28.079181
v -0.601770 6.442265 -28.079185
v 1.065372 6.442265 -26.419168
v -67.540665 6.442234 -26.419164
v -67.540665 6.442234 31.039357
v 1.065372 6.442265 31.039357
v -65.873520 7.740376 32.699376
v -65.694847 8.173039 32.266721
v -0.780439 8.173069 32.266721
v -0.601770 7.740406 32.699376
v -65.694847 8.173039 -27.646523
v -65.873520 7.740376 -28.079181
v -0.601770 7.740406 -28.079185
v -0.780439 8.173069 -27.646526
v -67.108009 8.173039 30.859601
v -67.540665 7.740376 31.039357
v 1.065372 7.740406 31.039357
v 0.632715 8.173069 30.859601
v -67.108009 8.173039 -26.239408
v -67.540665 7.740376 -26.419164
v 1.065372 7.740406 -26.419168
v 0.632715 8.173069 -26.239411
vt 0.381282 0.984661
vt 0.381335 0.984788
vt 0.380919 0.985203
vt 0.380791 0.985150
vt 0.396781 0.984661
vt 0.396729 0.984788
vt 0.397272 0.985150
vt 0.397145 0.985203
vt 0.381335 0.995851
vt 0.381282 0.995979
vt 0.380791 0.995490
vt 0.380919 0.995437
vt 0.396729 0.995851
vt 0.396781 0.995979
vt 0.397145 0.995437
vt 0.397272 0.995490
vt 0.381282 0.984661
vt 0.396781 0.984661
vt 0.396781 0.995979
vt 0.381282 0.995979
vt 0.397272 0.985150
vt 0.380791 0.985150
vt 0.380791 0.995490
vt 0.397272 0.995490
vn -0.498933 0.707104 0.501068
vn -0.498933 0.707104 0.501068
vn -0.498933 0.707104 0.501069
vn -0.498933 0.707104 0.501068
vn -0.000000 0.707104 0.707110
vn -0.000000 0.707104 0.707110
vn -0.000000 0.707104 0.707110
vn -0.000000 0.707104 0.707110
vn 0.498932 0.707101 0.501074
vn 0.498932 0.707101 0.501074
vn 0.498932 0.707101 0.501074
vn 0.498932 0.707101 0.501074
vn -0.498932 0.707105 -0.501069
vn -0.498932 0.707105 -0.501069
vn -0.498932 0.707105 -0.501069
vn -0.498932 0.707105 -0.501069
vn -0.000000 0.707106 -0.707107
vn -0.000000 0.707106 -0.707107
vn -0.000000 0.707106 -0.707107
vn -0.000000 0.707106 -0.707107
vn 0.498931 0.707101 -0.501074
vn 0.498931 0.707101 -0.501074
vn 0.498931 0.707101 -0.501074
vn 0.498931 0.707101 -0.501074
vn -0.707116 0.707097 0.000000
vn -0.707116 0.707097 0.000000
vn -0.707116 0.707097 0.000000
vn -0.707116 0.707097 0.000000
vn 0.707111 0.707103 0.000000
vn 0.707111 0.707103 0.000000
vn 0.707111 0.707103 0.000000
vn 0.707111 0.707103 0.000000
vn 0.000000 0.000000 1.000000
vn 0.000000 0.000000 1.000000
vn 0.000000 0.000000 1.000000
vn 0.000000 0.000000 1.000000
vn -0.000000 1.000000 0.000001
vn -0.000000 1.000000 0.000001
vn -0.000000 1.000000 0.000000
vn -0.000000 1.000000 0.000000
vn -0.000000 0.000000 -1.000000
vn -0.000000 0.000000 -1.000000
vn -0.000000 0.000000 -1.000000
vn -0.000000 0.000000 -1.000000
vn 0.705590 0.000000 0.708620
vn 0.705590 0.000000 0.708620
vn 0.705590 0.000000 0.708620
vn 0.705590 0.000000 0.708620
vn -0.705590 0.000000 0.708620
vn -0.705590 0.000000 0.708620
vn -0.705590 0.000000 0.708620
vn -0.705590 0.000000 0.708620
vn -0.705590 0.000000 -0.708620
vn -0.705590 0.000000 -0.708620
vn -0.705590 0.000000 -0.708620
vn -0.705590 0.000000 -0.708620
vn 0.705590 0.000000 -0.708620
vn 0.705590 0.000000 -0.708620
vn 0.705590 0.000000 -0.708620
vn 0.705590 0.000000 -0.708620
vn -0.000000 1.000000 -0.000000
vn -0.000000 1.000000 -0.000000
vn -0.000000 1.000000 -0.000001
vn -0.000000 1.000000 -0.000001
vn 1.000000 0.000000 0.000000
vn 1.000000 0.000000 0.000000
vn 1.000000 0.000000 0.000000
vn 1.000000 0.000000 0.000000
vn -1.000000 0.000000 0.000000
vn -1.000000 0.000000 0.000000
vn -1.000000 0.000000 0.000000
vn -1.000000 0.000000 0.000000
f 9/1/1 10/2/2 17/3/3 18/4/4
f 10/2/5 9/1/6 12/5/7 11/6/8
f 11/6/9 12/5/10 19/7/11 20/8/12
f 13/9/13 14/10/14 22/11/15 21/12/16
f 14/10/17 13/9/18 16/13/19 15/14/20
f 15/14/21 16/13/22 24/15/23 23/16/24
f 18/4/25 17/3/26 21/12/27 22/11/28
f 20/8/29 19/7/30 23/16/31 24/15/32
f 1/17/33 2/18/34 12/5/35 9/1/36
f 10/2/37 11/6/38 20/8/39 17/3/40
f 14/10/41 15/14/42 4/19/43 3/20/44
f 2/18/45 8/21/46 19/7/47 12/5/48
f 18/4/49 7/22/50 1/17/51 9/1/52
f 3/20/53 6/23/54 22/11/55 14/10/56
f 23/16/57 5/24/58 4/19/59 15/14/60
f 21/12/61 24/15/62 16/13/63 13/9/64
f 23/16/65 19/7/66 8/21/67 5/24/68
f 21/12/61 17/3/40 20/8/39 24/15/62
f 7/22/69 18/4/70 22/11/71 6/23/72
