# This file uses meters as units for non-parametric coordinates.

v -42.068619 -34.111309 5.257696
v 42.068615 -34.111309 5.257702
v -42.068619 33.221844 5.257696
v 42.068615 33.221844 5.257702
v -42.068619 33.221844 -6.448456
v 42.068615 33.221844 -6.448450
v -42.068619 -34.111309 -6.448456
v 42.068615 -34.111309 -6.448450
v -6.857558 -5.932675 18.869598
v 6.857551 -5.932675 18.869598
v 6.857551 5.043215 18.869598
v -6.857558 5.043215 18.869598
v -6.857558 5.043215 -20.060356
v 6.857551 5.043215 -20.060349
v 6.857551 -5.932675 -20.060349
v -6.857558 -5.932675 -20.060356
v 24.463081 19.132534 14.480229
v 24.463081 -20.021996 14.480229
v -24.463089 -20.021996 14.480224
v -24.463089 19.132534 14.480224
v 24.463081 19.132534 -15.670975
v -24.463089 19.132534 -15.670982
v -24.463089 -20.021996 -15.670982
v 24.463081 -20.021996 -15.670975
v -0.000006 6.384556 18.869598
v -0.000006 23.917519 14.480229
v -0.000006 36.147621 5.257700
v -0.000006 36.147621 -6.448456
v -0.000006 23.917519 -15.670982
v -0.000006 6.384556 -20.060356
v -0.000006 -7.274026 -20.060356
v -0.000006 -24.806982 -15.670982
v -0.000006 -37.037094 -6.448456
v -0.000006 -37.037094 5.257700
v -0.000006 -24.806982 14.480229
v -0.000006 -7.274026 18.869598
v 7.376168 -0.444730 18.869598
v -0.000006 -0.444730 18.869598
v -7.376174 -0.444730 18.869598
v -26.313160 -0.444730 14.480224
v -42.021065 -0.444730 5.257696
v -42.021065 -0.444730 -6.448456
v -26.313160 -0.444730 -15.670982
v -7.376174 -0.444730 -20.060356
v -0.000006 -0.444730 -20.060356
v 7.376168 -0.444730 -20.060349
v 26.313150 -0.444730 -15.670975
v 42.062798 -0.444730 -6.448450
v 42.062798 -0.444730 5.257702
v 26.313150 -0.444730 14.480229
vt 0.180786 0.301139
vt 0.188185 0.299193
vt 0.188185 0.309104
vt 0.179528 0.309104
vt 0.142793 0.357966
vt 0.188185 0.362212
vt 0.188185 0.352890
vt 0.150761 0.349389
vt 0.179528 0.309104
vt 0.188185 0.309104
vt 0.188185 0.299193
vt 0.180786 0.301139
vt 0.150761 0.268819
vt 0.188185 0.265318
vt 0.188185 0.255996
vt 0.142793 0.260243
vt 0.233577 0.260243
vt 0.225610 0.268819
vt 0.231972 0.309104
vt 0.241293 0.309104
vt 0.135078 0.309104
vt 0.144399 0.309104
vt 0.188185 0.273746
vt 0.161789 0.280691
vt 0.219068 0.309104
vt 0.214581 0.280691
vt 0.161789 0.337517
vt 0.188185 0.344462
vt 0.157302 0.309104
vt 0.188185 0.344462
vt 0.161789 0.337517
vt 0.214581 0.280691
vt 0.219068 0.309104
vt 0.161789 0.280691
vt 0.188185 0.273746
vt 0.157302 0.309104
vt 0.196843 0.309104
vt 0.195585 0.301139
vt 0.180786 0.317069
vt 0.188185 0.319016
vt 0.188185 0.319016
vt 0.180786 0.317069
vt 0.195585 0.301139
vt 0.196843 0.309104
vt 0.214581 0.337517
vt 0.195585 0.317069
vt 0.233577 0.357966
vt 0.225610 0.349389
vt 0.214581 0.337517
vt 0.195585 0.317069
vn -0.120445 -0.135320 0.983454
vn 0.000000 -0.217295 0.976106
vn 0.000000 0.000000 1.000000
vn -0.195399 0.000000 0.980724
vn -0.579487 0.639377 0.505364
vn 0.000000 0.866091 0.499886
vn 0.000000 0.866091 -0.499886
vn -0.579487 0.639377 -0.505364
vn -0.195399 0.000000 -0.980724
vn 0.000001 0.000000 -1.000000
vn 0.000000 -0.217295 -0.976106
vn -0.120445 -0.135320 -0.983454
vn -0.579487 -0.639377 -0.505364
vn 0.000000 -0.866091 -0.499886
vn 0.000000 -0.866091 0.499886
vn -0.579487 -0.639376 0.505364
vn 0.579166 -0.639433 0.505660
vn 0.579166 -0.639433 -0.505660
vn 0.817563 0.000000 -0.575839
vn 0.817564 0.000000 0.575838
vn -0.579487 -0.639377 -0.505364
vn -0.579487 -0.639376 0.505364
vn -0.817873 0.000000 0.575399
vn -0.817873 0.000000 -0.575399
vn -0.579487 -0.639376 0.505364
vn 0.000000 -0.866091 0.499886
vn 0.000000 -0.463484 0.886105
vn -0.248132 -0.285604 0.925668
vn 0.579166 -0.639433 0.505660
vn 0.817564 0.000000 0.575838
vn 0.406280 0.000000 0.913749
vn 0.247994 -0.285597 0.925707
vn 0.000000 0.866091 0.499886
vn -0.579487 0.639377 0.505364
vn -0.248132 0.285604 0.925668
vn 0.000000 0.463484 0.886105
vn -0.817873 0.000000 0.575399
vn -0.579487 -0.639376 0.505364
vn -0.248132 -0.285604 0.925668
vn -0.406638 0.000000 0.913589
vn -0.579487 0.639377 -0.505364
vn 0.000000 0.866091 -0.499886
vn 0.000000 0.463484 -0.886105
vn -0.248132 0.285604 -0.925668
vn 0.817563 0.000000 -0.575839
vn 0.579166 -0.639433 -0.505660
vn 0.247994 -0.285597 -0.925707
vn 0.406280 0.000000 -0.913749
vn 0.000000 -0.866091 -0.499886
vn -0.579487 -0.639377 -0.505364
vn -0.248132 -0.285604 -0.925668
vn 0.000000 -0.463484 -0.886105
vn -0.579487 -0.639377 -0.505364
vn -0.817873 0.000000 -0.575399
vn -0.406638 0.000000 -0.913589
vn -0.248132 -0.285604 -0.925668
vn 0.247994 -0.285597 0.925707
vn 0.406280 0.000000 0.913749
vn 0.195398 0.000000 0.980724
vn 0.120445 -0.135320 0.983454
vn -0.248132 -0.285604 0.925668
vn 0.000000 -0.463484 0.886105
vn 0.000000 -0.217295 0.976106
vn -0.120445 -0.135320 0.983454
vn -0.406638 0.000000 0.913589
vn -0.248132 -0.285604 0.925668
vn -0.120445 -0.135320 0.983454
vn -0.195399 0.000000 0.980724
vn 0.000000 0.463484 0.886105
vn -0.248132 0.285604 0.925668
vn -0.120445 0.135320 0.983454
vn 0.000000 0.217295 0.976106
vn -0.248132 0.285604 -0.925668
vn 0.000000 0.463484 -0.886105
vn 0.000000 0.217295 -0.976106
vn -0.120445 0.135320 -0.983454
vn -0.248132 -0.285604 -0.925668
vn -0.406638 0.000000 -0.913589
vn -0.195399 0.000000 -0.980724
vn -0.120445 -0.135320 -0.983454
vn 0.000000 -0.463484 -0.886105
vn -0.248132 -0.285604 -0.925668
vn -0.120445 -0.135320 -0.983454
vn 0.000000 -0.217295 -0.976106
vn 0.406280 0.000000 -0.913749
vn 0.247994 -0.285597 -0.925707
vn 0.120445 -0.135320 -0.983454
vn 0.195399 0.000000 -0.980724
vn 0.247994 0.285597 0.925707
vn 0.000000 0.463484 0.886105
vn 0.000000 0.217295 0.976106
vn 0.120445 0.135320 0.983454
vn 0.579166 0.639433 0.505659
vn 0.000000 0.866091 0.499886
vn 0.000000 0.463484 0.886105
vn 0.247994 0.285597 0.925707
vn 0.000000 0.866091 -0.499886
vn 0.000000 0.866091 0.499886
vn 0.579166 0.639433 0.505659
vn 0.579166 0.639433 -0.505659
vn 0.000000 0.463484 -0.886105
vn 0.000000 0.866091 -0.499886
vn 0.579166 0.639433 -0.505659
vn 0.247994 0.285597 -0.925707
vn 0.000000 0.217295 -0.976106
vn 0.000000 0.463484 -0.886105
vn 0.247994 0.285597 -0.925707
vn 0.120445 0.135320 -0.983454
vn 0.000000 -0.217295 -0.976106
vn 0.000001 0.000000 -1.000000
vn 0.195399 0.000000 -0.980724
vn 0.120445 -0.135320 -0.983454
vn 0.247994 -0.285597 -0.925707
vn 0.000000 -0.463484 -0.886105
vn 0.000000 -0.217295 -0.976106
vn 0.120445 -0.135320 -0.983454
vn 0.579166 -0.639433 -0.505660
vn 0.000000 -0.866091 -0.499886
vn 0.000000 -0.463484 -0.886105
vn 0.247994 -0.285597 -0.925707
vn 0.000000 -0.866091 0.499886
vn 0.000000 -0.866091 -0.499886
vn 0.579166 -0.639433 -0.505660
vn 0.579166 -0.639433 0.505660
vn 0.000000 -0.463484 0.886105
vn 0.000000 -0.866091 0.499886
vn 0.579166 -0.639433 0.505660
vn 0.247994 -0.285597 0.925707
vn 0.000000 -0.217295 0.976106
vn 0.000000 -0.463484 0.886105
vn 0.247994 -0.285597 0.925707
vn 0.120445 -0.135320 0.983454
vn 0.000000 0.000000 1.000000
vn 0.000000 -0.217295 0.976106
vn 0.120445 -0.135320 0.983454
vn 0.195398 0.000000 0.980724
vn 0.000000 0.217295 0.976106
vn 0.000000 0.000000 1.000000
vn 0.195398 0.000000 0.980724
vn 0.120445 0.135320 0.983454
vn -0.195399 0.000000 0.980724
vn 0.000000 0.000000 1.000000
vn 0.000000 0.217295 0.976106
vn -0.120445 0.135320 0.983454
vn -0.248132 0.285604 0.925668
vn -0.406638 0.000000 0.913589
vn -0.195399 0.000000 0.980724
vn -0.120445 0.135320 0.983454
vn -0.579487 0.639377 0.505364
vn -0.817873 0.000000 0.575399
vn -0.406638 0.000000 0.913589
vn -0.248132 0.285604 0.925668
vn -0.817873 0.000000 -0.575399
vn -0.817873 0.000000 0.575399
vn -0.579487 0.639377 0.505364
vn -0.579487 0.639377 -0.505364
vn -0.406638 0.000000 -0.913589
vn -0.817873 0.000000 -0.575399
vn -0.579487 0.639377 -0.505364
vn -0.248132 0.285604 -0.925668
vn -0.195399 0.000000 -0.980724
vn -0.406638 0.000000 -0.913589
vn -0.248132 0.285604 -0.925668
vn -0.120445 0.135320 -0.983454
vn -0.120445 0.135320 -0.983454
vn 0.000000 0.217295 -0.976106
vn 0.000001 0.000000 -1.000000
vn -0.195399 0.000000 -0.980724
vn 0.195399 0.000000 -0.980724
vn 0.000001 0.000000 -1.000000
vn 0.000000 0.217295 -0.976106
vn 0.120445 0.135320 -0.983454
vn 0.247994 0.285597 -0.925707
vn 0.406280 0.000000 -0.913749
vn 0.195399 0.000000 -0.980724
vn 0.120445 0.135320 -0.983454
vn 0.579166 0.639433 -0.505659
vn 0.817563 0.000000 -0.575839
vn 0.406280 0.000000 -0.913749
vn 0.247994 0.285597 -0.925707
vn 0.817564 0.000000 0.575838
vn 0.817563 0.000000 -0.575839
vn 0.579166 0.639433 -0.505659
vn 0.579166 0.639433 0.505659
vn 0.406280 0.000000 0.913749
vn 0.817564 0.000000 0.575838
vn 0.579166 0.639433 0.505659
vn 0.247994 0.285597 0.925707
vn 0.195398 0.000000 0.980724
vn 0.406280 0.000000 0.913749
vn 0.247994 0.285597 0.925707
vn 0.120445 0.135320 0.983454
f 9/1/1 36/2/2 38/3/3 39/4/4
f 3/5/5 27/6/6 28/7/7 5/8/8
f 44/9/9 45/10/10 31/11/11 16/12/12
f 7/13/13 33/14/14 34/15/15 1/16/16
f 2/17/17 8/18/18 48/19/19 49/20/20
f 7/13/21 1/16/22 41/21/23 42/22/24
f 1/16/25 34/15/26 35/23/27 19/24/28
f 2/17/29 49/20/30 50/25/31 18/26/32
f 27/6/33 3/5/34 20/27/35 26/28/36
f 41/21/37 1/16/38 19/24/39 40/29/40
f 5/8/41 28/7/42 29/30/43 22/31/44
f 48/19/45 8/18/46 24/32/47 47/33/48
f 33/14/49 7/13/50 23/34/51 32/35/52
f 7/13/53 42/22/54 43/36/55 23/34/56
f 18/26/57 50/25/58 37/37/59 10/38/60
f 19/24/61 35/23/62 36/2/63 9/1/64
f 40/29/65 19/24/66 9/1/67 39/4/68
f 26/28/69 20/27/70 12/39/71 25/40/72
f 22/31/73 29/30/74 30/41/75 13/42/76
f 23/34/77 43/36/78 44/9/79 16/12/80
f 32/35/81 23/34/82 16/12/83 31/11/84
f 47/33/85 24/32/86 15/43/87 46/44/88
f 17/45/89 26/28/90 25/40/91 11/46/92
f 4/47/93 27/6/94 26/28/95 17/45/96
f 28/7/97 27/6/98 4/47/99 6/48/100
f 29/30/101 28/7/102 6/48/103 21/49/104
f 30/41/105 29/30/106 21/49/107 14/50/108
f 31/11/109 45/10/110 46/44/111 15/43/112
f 24/32/113 32/35/114 31/11/115 15/43/116
f 8/18/117 33/14/118 32/35/119 24/32/120
f 34/15/121 33/14/122 8/18/123 2/17/124
f 35/23/125 34/15/126 2/17/127 18/26/128
f 36/2/129 35/23/130 18/26/131 10/38/132
f 38/3/133 36/2/134 10/38/135 37/37/136
f 25/40/137 38/3/138 37/37/139 11/46/140
f 39/4/141 38/3/142 25/40/143 12/39/144
f 20/27/145 40/29/146 39/4/147 12/39/148
f 3/5/149 41/21/150 40/29/151 20/27/152
f 42/22/153 41/21/154 3/5/155 5/8/156
f 43/36/157 42/22/158 5/8/159 22/31/160
f 44/9/161 43/36/162 22/31/163 13/42/164
f 13/42/165 30/41/166 45/10/167 44/9/168
f 46/44/169 45/10/170 30/41/171 14/50/172
f 21/49/173 47/33/174 46/44/175 14/50/176
f 6/48/177 48/19/178 47/33/179 21/49/180
f 49/20/181 48/19/182 6/48/183 4/47/184
f 50/25/185 49/20/186 4/47/187 17/45/188
f 37/37/189 50/25/190 17/45/191 11/46/192
