# This file uses meters as units for non-parametric coordinates.

v 14.489647 7.902206 -9.325680
v -14.489647 7.902206 -9.325680
v 14.489647 248.498489 -9.325680
v -14.489647 248.498489 -9.325680
v 14.489647 248.498489 9.325680
v -14.489647 248.498489 9.325680
v 14.489647 7.902206 9.325680
v -14.489647 7.902206 9.325680
vt 0.735942 0.775193
vt 0.735942 0.859296
vt 0.637327 0.775193
vt 0.637327 0.859296
vt 0.637327 0.859295
vt 0.659186 0.859295
vt 0.735974 0.859296
vt 0.736391 0.775193
vt 0.735942 0.775193
vt 0.637327 0.775193
vt 0.637327 0.775193
vt 0.659170 0.775193
vn 0.000000 0.000000 -1.000000
vn 0.000000 0.000000 -1.000000
vn 0.000000 0.000000 -1.000000
vn 0.000000 0.000000 -1.000000
vn 0.000000 1.000000 -0.000000
vn 0.000000 1.000000 -0.000000
vn 0.000000 1.000000 -0.000000
vn 0.000000 1.000000 -0.000000
vn -0.000000 0.000000 1.000000
vn -0.000000 0.000000 1.000000
vn -0.000000 0.000000 1.000000
vn -0.000000 0.000000 1.000000
vn -1.000000 0.000000 -0.000000
vn -1.000000 0.000000 -0.000000
vn -1.000000 0.000000 -0.000000
vn -1.000000 0.000000 -0.000000
vn 1.000000 0.000000 0.000000
vn 1.000000 0.000000 0.000000
vn 1.000000 0.000000 0.000000
vn 1.000000 0.000000 0.000000
f 1/1/1 2/2/2 4/4/3 3/3/4
f 3/3/5 4/4/6 6/6/7 5/12/8
f 5/5/9 6/11/10 8/8/11 7/7/12
f 2/2/13 8/9/14 6/10/15 4/4/16
f 7/7/17 1/1/18 3/3/19 5/5/20
