# This file uses meters as units for non-parametric coordinates.

v 8.883885 65.590775 14.910682
v -8.883885 65.590775 14.910682
v -8.883886 47.567192 14.910688
v 8.883886 47.567192 14.910688
v 8.883885 35.691757 14.910682
v -8.883885 35.691757 14.910682
v -8.883886 25.173117 14.910688
v 8.883886 25.173117 14.910688
v 8.883885 176.648911 14.910682
v -8.883885 176.648911 14.910682
v -8.883886 158.625336 14.910688
v 8.883886 158.625336 14.910688
v 1.298561 187.113632 14.910679
v 9.641481 187.113632 14.910679
v 9.641480 178.650604 14.910685
v 1.298560 178.650604 14.910685
v -1.298561 187.113632 14.910682
v -9.641480 187.113632 14.910682
v -9.641481 178.650589 14.910685
v -1.298561 178.650589 14.910685
vt 0.123746 0.778826
vt 0.097892 0.778826
vt 0.097892 0.752819
vt 0.123746 0.752819
vt 0.061074 0.842104
vt 0.001239 0.842104
vt 0.001239 0.813298
vt 0.061074 0.813298
vt 0.092801 0.780427
vt 0.064093 0.780427
vt 0.064093 0.751326
vt 0.092801 0.751326
vt 0.092801 0.780427
vt 0.092801 0.751326
vt 0.064093 0.751326
vt 0.064093 0.780427
vt 0.092801 0.780427
vt 0.064093 0.780427
vt 0.064093 0.751326
vt 0.092801 0.751326
vn -0.000000 0.000000 1.000000
vn -0.000000 0.000000 1.000000
vn -0.000000 0.000000 1.000000
vn -0.000000 0.000000 1.000000
vn -0.000000 0.000001 1.000000
vn -0.000000 0.000001 1.000000
vn -0.000000 0.000001 1.000000
vn -0.000000 0.000001 1.000000
vn -0.000000 0.000000 1.000000
vn -0.000000 0.000000 1.000000
vn -0.000000 0.000000 1.000000
vn -0.000000 0.000000 1.000000
vn -0.000000 0.000001 1.000000
vn -0.000000 0.000001 1.000000
vn -0.000000 0.000001 1.000000
vn -0.000000 0.000001 1.000000
vn -0.000000 0.000000 1.000000
vn -0.000000 0.000000 1.000000
vn -0.000000 0.000000 1.000000
vn -0.000000 0.000000 1.000000
f 1/1/1 2/2/2 3/3/3 4/4/4
f 5/5/5 6/6/6 7/7/7 8/8/8
f 9/9/9 10/10/10 11/11/11 12/12/12
f 13/13/13 16/14/14 15/15/15 14/16/16
f 17/17/17 18/18/18 19/19/19 20/20/20
