# This file uses meters as units for non-parametric coordinates.

v -6.055895 207.868896 16.633701
v -0.000000 210.377335 16.633701
v 6.055894 207.868896 16.633701
v 8.564326 201.813034 16.633701
v 6.055894 195.757126 16.633701
v -0.000000 193.248672 16.633701
v -6.055895 195.757126 16.633701
v -8.564331 201.813034 16.633701
v -7.670451 209.483490 14.554402
v -0.000000 212.660690 14.554402
v 7.670451 209.483490 14.554402
v 10.847655 201.813034 14.554402
v 7.670451 194.142548 14.554402
v -0.000000 190.965347 14.554404
v -7.670451 194.142548 14.554402
v -10.847655 201.813034 14.554402
v -4.444140 206.257156 16.633701
v -0.000000 208.097977 16.633701
v 4.444140 206.257156 16.633701
v 6.284962 201.813034 16.633701
v 4.444140 197.368866 16.633701
v -0.000000 195.528046 16.633701
v -4.444140 197.368866 16.633701
v -6.284965 201.813034 16.633701
v -3.862470 205.675476 14.954900
v -0.000001 207.275375 14.954900
v -0.000000 201.813034 14.954900
v 3.862468 205.675476 14.954900
v 5.462355 201.813034 14.954900
v 3.862468 197.950546 14.954900
v -0.000001 196.350662 14.954900
v -3.862470 197.950546 14.954900
v -5.462357 201.813034 14.954900
v -6.055895 237.616226 16.633701
v -0.000000 240.124664 16.633701
v 6.055894 237.616226 16.633701
v 8.564326 231.560364 16.633701
v 6.055894 225.504456 16.633701
v -0.000000 222.996002 16.633701
v -6.055895 225.504456 16.633701
v -8.564331 231.560364 16.633701
v -7.670451 239.230804 14.554402
v -0.000000 242.408020 14.554402
v 7.670451 239.230804 14.554402
v 10.847655 231.560364 14.554402
v 7.670451 223.889877 14.554402
v -0.000000 220.712677 14.554404
v -7.670451 223.889877 14.554402
v -10.847655 231.560364 14.554402
v -4.444140 236.004486 16.633701
v -0.000000 237.845306 16.633701
v 4.444140 236.004486 16.633701
v 6.284962 231.560364 16.633701
v 4.444140 227.116196 16.633701
v -0.000000 225.275375 16.633701
v -4.444140 227.116196 16.633701
v -6.284965 231.560364 16.633701
v -3.862470 235.422806 14.954900
v -0.000001 237.022705 14.954900
v -0.000000 231.560364 14.954900
v 3.862468 235.422806 14.954900
v 5.462355 231.560364 14.954900
v 3.862468 227.697876 14.954900
v -0.000001 226.097992 14.954900
v -3.862470 227.697876 14.954900
v -5.462357 231.560364 14.954900
v 13.279380 7.902218 9.193928
v -13.279380 7.902218 9.193928
v 13.279380 246.826859 9.193905
v -13.279380 246.826859 9.193905
v 13.279380 244.409836 14.554394
v -13.279380 244.409836 14.554394
v 13.279380 10.448704 14.554417
v -13.279380 10.448704 14.554417
v -13.279380 215.933670 9.193908
v -13.279380 217.984207 9.193908
v -13.279379 217.932617 14.554397
v -13.279379 215.882080 14.554397
v 13.279379 217.932617 14.554397
v 13.279379 215.882080 14.554397
v 13.279380 217.984207 9.193908
v 13.279380 215.933670 9.193908
v 12.539252 217.145325 9.193908
v 12.539251 217.093750 13.780101
v -12.539251 217.093750 13.780101
v -12.539252 217.145325 9.193908
v -30.847370 0.000000 17.809753
v -17.809753 0.000000 30.847370
v -0.000000 0.000000 35.619507
v 17.809753 0.000000 30.847370
v 30.847370 0.000000 17.809753
v 35.619507 0.000000 0.000000
v 30.847370 0.000000 -17.809753
v 17.809753 0.000000 -30.847370
v 0.000000 0.000000 -35.619507
v -17.809753 0.000000 -30.847370
v -30.847370 0.000000 -17.809753
v -35.619507 0.000000 -0.000000
v 0.000000 0.000000 0.000000
v 0.000000 7.902206 0.000000
v -30.847370 5.926852 17.809753
v -29.076317 7.902206 16.787233
v -17.809753 5.926852 30.847370
v -16.787233 7.902206 29.076317
v -0.000000 5.926852 35.619507
v -0.000000 7.902206 33.574471
v 17.809753 5.926852 30.847370
v 16.787233 7.902206 29.076317
v 30.847370 5.926852 17.809753
v 29.076317 7.902206 16.787233
v 35.619507 5.926852 0.000000
v 33.574471 7.902206 0.000000
v 30.847370 5.926852 -17.809753
v 29.076317 7.902206 -16.787233
v 17.809753 5.926852 -30.847370
v 16.787233 7.902206 -29.076317
v 0.000000 5.926852 -35.619507
v 0.000000 7.902206 -33.574471
v -17.809753 5.926852 -30.847370
v -16.787233 7.902206 -29.076317
v -30.847370 5.926852 -17.809753
v -29.076317 7.902206 -16.787233
v -35.619507 5.926852 -0.000000
v -33.574471 7.902206 -0.000000
vt 0.449288 0.989515
vt 0.453036 0.991081
vt 0.453061 0.992946
vt 0.447989 0.990830
vt 0.456784 0.989532
vt 0.458135 0.990850
vt 0.458337 0.985776
vt 0.460240 0.985769
vt 0.456786 0.982013
vt 0.458142 0.980681
vt 0.453039 0.980447
vt 0.453069 0.978565
vt 0.449291 0.981995
vt 0.447995 0.980662
vt 0.447737 0.985751
vt 0.445891 0.985742
vt 0.329707 0.958144
vt 0.450968 0.987857
vt 0.329686 0.955169
vt 0.331806 0.957277
vt 0.332676 0.955171
vt 0.331807 0.953061
vt 0.329708 0.952182
vt 0.327609 0.953049
vt 0.326738 0.955155
vt 0.450221 0.988586
vt 0.453040 0.989765
vt 0.455859 0.988599
vt 0.457026 0.985772
vt 0.455858 0.982939
vt 0.453039 0.981760
vt 0.450221 0.982926
vt 0.449053 0.985753
vt 0.450099 0.985746
vt 0.327607 0.957265
vt 0.450969 0.983641
vt 0.453069 0.982774
vt 0.455168 0.983653
vt 0.456037 0.985763
vt 0.455167 0.987868
vt 0.453067 0.988736
vt 0.449288 0.989515
vt 0.453036 0.991081
vt 0.453061 0.992946
vt 0.447989 0.990830
vt 0.456784 0.989532
vt 0.458135 0.990850
vt 0.458337 0.985776
vt 0.460240 0.985769
vt 0.456786 0.982013
vt 0.458142 0.980681
vt 0.453039 0.980447
vt 0.453069 0.978565
vt 0.449291 0.981995
vt 0.447995 0.980662
vt 0.447737 0.985751
vt 0.445891 0.985742
vt 0.329707 0.958144
vt 0.327607 0.957265
vt 0.329686 0.955169
vt 0.331806 0.957277
vt 0.332676 0.955171
vt 0.331807 0.953061
vt 0.329708 0.952182
vt 0.327609 0.953049
vt 0.326738 0.955155
vt 0.450221 0.988586
vt 0.453040 0.989765
vt 0.455859 0.988599
vt 0.457026 0.985772
vt 0.455858 0.982939
vt 0.453039 0.981760
vt 0.450221 0.982926
vt 0.449053 0.985753
vt 0.450968 0.987857
vt 0.453067 0.988736
vt 0.455167 0.987868
vt 0.456037 0.985763
vt 0.455168 0.983653
vt 0.453069 0.982774
vt 0.450969 0.983641
vt 0.450099 0.985746
vt 0.452202 0.979930
vt 0.452202 0.993028
vt 0.454486 0.993028
vt 0.454486 0.979930
vt 0.454486 0.993028
vt 0.452202 0.993028
vt 0.454486 0.993028
vt 0.452202 0.993028
vt 0.454486 0.979428
vt 0.454486 0.979930
vt 0.452202 0.979930
vt 0.452202 0.979428
vt 0.454486 0.979930
vt 0.454486 0.979428
vt 0.454486 0.979428
vt 0.454486 0.979930
vt 0.452202 0.979930
vt 0.452202 0.979428
vt 0.396724 0.992040
vt 0.382863 0.992090
vt 0.382863 0.978300
vt 0.396724 0.978251
vt 0.452202 0.979930
vt 0.454486 0.979930
vt 0.454486 0.979428
vt 0.452202 0.979428
vt 0.396724 0.992813
vt 0.382863 0.992863
vt 0.382863 0.978300
vt 0.396724 0.978251
vt 0.454486 0.993028
vt 0.452202 0.993028
vt 0.454486 0.979428
vt 0.452202 0.979428
vt 0.455086 0.986039
vt 0.456885 0.987838
vt 0.452628 0.990099
vt 0.452628 0.985381
vt 0.450170 0.986039
vt 0.448371 0.987838
vt 0.447713 0.990296
vt 0.448371 0.992754
vt 0.450170 0.994553
vt 0.452628 0.995211
vt 0.455086 0.994553
vt 0.456885 0.992754
vt 0.457543 0.990296
vt 0.446554 0.982104
vt 0.446554 0.988159
vt 0.460532 0.988159
vt 0.460532 0.982104
vt 0.446554 0.988159
vt 0.446554 0.982104
vt 0.460532 0.982104
vt 0.460532 0.988159
vt 0.446554 0.982104
vt 0.446554 0.988159
vt 0.460532 0.982104
vt 0.460532 0.988159
vt 0.446554 0.982104
vt 0.446554 0.988159
vt 0.460532 0.982104
vt 0.460532 0.988159
vt 0.446554 0.982104
vt 0.446554 0.988159
vt 0.460532 0.982104
vt 0.460532 0.988159
vt 0.446554 0.982104
vt 0.446554 0.988159
vt 0.460532 0.982104
vt 0.460532 0.988159
vt 0.446554 0.982104
vt 0.446554 0.988159
vt 0.446554 0.969713
vt 0.460532 0.969713
vt 0.446554 0.969713
vt 0.460532 0.969713
vt 0.446554 0.969713
vt 0.460532 0.969713
vt 0.446554 0.969713
vt 0.460532 0.969713
vt 0.446554 0.969713
vt 0.460532 0.969713
vt 0.446554 0.969713
vt 0.460532 0.969713
vt 0.446554 0.969713
vt 0.456787 0.992648
vt 0.455037 0.994399
vt 0.452646 0.990067
vt 0.452646 0.995039
vt 0.450255 0.994399
vt 0.448505 0.992648
vt 0.447864 0.990258
vt 0.448505 0.987867
vt 0.450255 0.986117
vt 0.452646 0.985476
vt 0.455037 0.986117
vt 0.456787 0.987867
vt 0.457427 0.990258
vn -0.476095 0.476095 0.739369
vn -0.000000 0.673298 0.739371
vn -0.000000 0.673298 0.739371
vn -0.476093 0.476097 0.739369
vn 0.476095 0.476094 0.739370
vn 0.476093 0.476096 0.739370
vn 0.673301 0.000000 0.739369
vn 0.673301 0.000000 0.739369
vn 0.476097 -0.476093 0.739369
vn 0.476095 -0.476095 0.739369
vn -0.000000 -0.673300 0.739370
vn 0.000000 -0.673300 0.739370
vn -0.476097 -0.476094 0.739369
vn -0.476095 -0.476095 0.739369
vn -0.673301 0.000000 0.739369
vn -0.673301 -0.000000 0.739369
vn -0.000000 0.000000 1.000000
vn -0.000000 0.000000 1.000000
vn -0.000000 0.000000 1.000000
vn -0.000000 0.000000 1.000000
vn -0.000000 0.000000 1.000000
vn -0.000000 0.000000 1.000000
vn -0.000000 0.000000 1.000000
vn -0.000000 0.000000 1.000000
vn -0.000000 0.000000 1.000000
vn -0.000000 0.000000 1.000000
vn -0.000000 0.000000 1.000000
vn -0.000000 0.000000 1.000000
vn -0.000000 0.000000 1.000000
vn -0.000000 0.000000 1.000000
vn -0.000000 0.000000 1.000000
vn -0.000000 0.000000 1.000000
vn -0.000000 0.000000 1.000000
vn -0.000000 0.000000 1.000000
vn -0.000000 0.000000 1.000000
vn -0.000000 0.000000 1.000000
vn -0.000000 0.000000 1.000000
vn -0.000000 0.000000 1.000000
vn -0.000000 0.000000 1.000000
vn -0.000000 0.000000 1.000000
vn -0.000000 0.000000 1.000000
vn -0.000000 0.000000 1.000000
vn -0.000000 0.000000 1.000000
vn -0.000000 0.000000 1.000000
vn -0.000000 0.000000 1.000000
vn -0.000000 0.000000 1.000000
vn -0.000000 0.000000 1.000000
vn -0.000000 0.000000 1.000000
vn -0.000000 0.000000 1.000000
vn -0.000000 0.000000 1.000000
vn -0.000000 0.000000 1.000000
vn -0.000000 0.000000 1.000000
vn -0.000000 0.000000 1.000000
vn -0.000000 0.000000 1.000000
vn -0.000000 0.000000 1.000000
vn -0.000000 0.000000 1.000000
vn -0.000000 0.000000 1.000000
vn 0.000001 -0.897993 0.440010
vn 0.634975 -0.634979 0.440009
vn 0.634977 -0.634978 0.440009
vn 0.000001 -0.897993 0.440010
vn -0.634975 -0.634977 0.440012
vn -0.634976 -0.634976 0.440012
vn -0.897991 -0.000000 0.440014
vn -0.897991 -0.000000 0.440014
vn -0.634977 0.634976 0.440012
vn -0.634978 0.634975 0.440012
vn 0.000000 0.897991 0.440013
vn 0.000000 0.897991 0.440013
vn 0.634975 0.634974 0.440017
vn 0.634976 0.634973 0.440017
vn 0.897991 0.000001 0.440013
vn 0.897991 0.000000 0.440013
vn -0.476094 0.476094 0.739371
vn -0.000000 0.673297 0.739372
vn -0.000000 0.673297 0.739372
vn -0.476093 0.476095 0.739371
vn 0.476094 0.476093 0.739371
vn 0.476093 0.476095 0.739371
vn 0.673300 0.000000 0.739370
vn 0.673300 -0.000000 0.739370
vn 0.476096 -0.476093 0.739370
vn 0.476095 -0.476094 0.739370
vn 0.000000 -0.673297 0.739372
vn 0.000000 -0.673297 0.739372
vn -0.476097 -0.476093 0.739370
vn -0.476095 -0.476094 0.739370
vn -0.673301 -0.000000 0.739369
vn -0.673301 -0.000001 0.739369
vn -0.000000 0.000000 1.000000
vn -0.000000 0.000000 1.000000
vn -0.000000 0.000000 1.000000
vn -0.000000 0.000000 1.000000
vn -0.000000 0.000000 1.000000
vn -0.000000 0.000000 1.000000
vn -0.000000 0.000000 1.000000
vn -0.000000 0.000000 1.000000
vn -0.000000 0.000000 1.000000
vn -0.000000 0.000000 1.000000
vn -0.000000 0.000000 1.000000
vn -0.000000 0.000000 1.000000
vn -0.000000 0.000000 1.000000
vn -0.000000 0.000000 1.000000
vn -0.000000 0.000000 1.000000
vn -0.000000 0.000000 1.000000
vn -0.000000 0.000000 1.000000
vn -0.000000 0.000000 1.000000
vn -0.000000 0.000000 1.000000
vn -0.000000 0.000000 1.000000
vn -0.000000 0.000000 1.000000
vn -0.000000 0.000000 1.000000
vn -0.000000 0.000000 1.000000
vn -0.000000 0.000000 1.000000
vn -0.000000 0.000000 1.000000
vn -0.000000 0.000000 1.000000
vn -0.000000 0.000000 1.000000
vn -0.000000 0.000000 1.000000
vn -0.000000 0.000000 1.000000
vn -0.000000 0.000000 1.000000
vn -0.000000 0.000000 1.000000
vn -0.000000 0.000000 1.000000
vn -0.000000 0.000000 1.000000
vn -0.000000 0.000000 1.000000
vn -0.000000 0.000000 1.000000
vn -0.000000 0.000000 1.000000
vn -0.000000 0.000000 1.000000
vn -0.000000 0.000000 1.000000
vn -0.000000 0.000000 1.000000
vn -0.000000 0.000000 1.000000
vn -0.000000 0.000000 1.000000
vn 0.000000 -0.897991 0.440014
vn 0.634974 -0.634977 0.440015
vn 0.634975 -0.634976 0.440015
vn 0.000000 -0.897991 0.440014
vn -0.634974 -0.634976 0.440015
vn -0.634975 -0.634975 0.440015
vn -0.897991 -0.000000 0.440014
vn -0.897991 -0.000000 0.440014
vn -0.634976 0.634976 0.440013
vn -0.634977 0.634974 0.440013
vn -0.000001 0.897990 0.440016
vn -0.000000 0.897990 0.440016
vn 0.634976 0.634975 0.440014
vn 0.634978 0.634973 0.440014
vn 0.897991 0.000000 0.440013
vn 0.897991 -0.000000 0.440013
vn -0.000000 0.911616 0.411042
vn -0.000000 0.911616 0.411042
vn -0.000000 0.911616 0.411042
vn -0.000000 0.911616 0.411042
vn -0.000000 -0.903261 0.429092
vn -0.000000 -0.903261 0.429092
vn -0.000000 -0.903261 0.429092
vn -0.000000 -0.903261 0.429092
vn -0.852603 0.522532 0.005421
vn -0.852603 0.522532 0.005421
vn -0.852602 0.522532 0.005421
vn -0.852603 0.522532 0.005421
vn -0.000000 0.538480 0.842638
vn -0.000000 0.538480 0.842638
vn -0.000000 0.538480 0.842638
vn -0.000000 0.538480 0.842638
vn 0.852602 0.522532 0.005421
vn 0.852602 0.522532 0.005421
vn 0.852602 0.522532 0.005421
vn 0.852602 0.522532 0.005421
vn -0.000000 0.000000 1.000000
vn -0.000000 0.000000 1.000000
vn -0.000000 0.000000 1.000000
vn -0.000000 0.000000 1.000000
vn -1.000000 -0.000000 0.000000
vn -1.000000 -0.000000 0.000000
vn -1.000000 -0.000000 0.000000
vn -1.000000 -0.000000 0.000000
vn 1.000000 -0.000000 0.000000
vn 1.000000 -0.000000 0.000000
vn 1.000000 -0.000000 0.000000
vn 1.000000 -0.000000 0.000000
vn -1.000000 0.000000 0.000000
vn -1.000000 0.000000 0.000000
vn -1.000000 0.000000 0.000000
vn -1.000000 0.000000 0.000000
vn -0.000000 0.000000 1.000000
vn -0.000000 0.000000 1.000000
vn -0.000000 0.000000 1.000000
vn -0.000000 0.000000 1.000000
vn 1.000000 0.000000 0.000000
vn 1.000000 0.000000 0.000000
vn 1.000000 0.000000 0.000000
vn 1.000000 0.000000 0.000000
vn 0.751410 -0.659800 -0.006844
vn 0.751410 -0.659800 -0.006844
vn 0.751410 -0.659800 -0.006844
vn 0.751410 -0.659800 -0.006844
vn -0.000000 -0.678255 0.734827
vn -0.000000 -0.678255 0.734827
vn -0.000000 -0.678255 0.734827
vn -0.000000 -0.678255 0.734827
vn -0.751410 -0.659800 -0.006844
vn -0.751410 -0.659800 -0.006844
vn -0.751410 -0.659800 -0.006844
vn -0.751410 -0.659800 -0.006844
vn 0.000000 -1.000000 0.000000
vn 0.000000 -1.000000 0.000000
vn 0.000000 -1.000000 0.000000
vn 0.000000 -1.000000 0.000000
vn 0.000000 -1.000000 0.000000
vn 0.000000 -1.000000 0.000000
vn 0.000000 -1.000000 0.000000
vn 0.000000 -1.000000 0.000000
vn 0.000000 -1.000000 0.000000
vn 0.000000 -1.000000 0.000000
vn 0.000000 -1.000000 0.000000
vn 0.000000 -1.000000 0.000000
vn 0.000000 -1.000000 0.000000
vn -0.601668 0.719254 0.347374
vn -0.601668 0.719254 0.347374
vn -0.694747 0.719254 -0.000000
vn -0.694747 0.719254 -0.000000
vn -0.347374 0.719255 0.601668
vn -0.347374 0.719254 0.601668
vn -0.000000 0.719255 0.694747
vn -0.000000 0.719255 0.694747
vn 0.347374 0.719255 0.601668
vn 0.347374 0.719254 0.601668
vn 0.601668 0.719254 0.347374
vn 0.601668 0.719254 0.347374
vn 0.694747 0.719254 0.000000
vn 0.694747 0.719254 0.000000
vn 0.601668 0.719254 -0.347374
vn 0.601668 0.719254 -0.347374
vn 0.347374 0.719255 -0.601668
vn 0.347374 0.719254 -0.601668
vn 0.000000 0.719255 -0.694747
vn 0.000000 0.719255 -0.694747
vn -0.347374 0.719255 -0.601668
vn -0.347374 0.719254 -0.601668
vn -0.601668 0.719254 -0.347374
vn -0.601668 0.719254 -0.347374
vn -0.866025 0.000000 0.500000
vn -0.500000 0.000000 0.866025
vn -0.500000 0.000000 0.866025
vn -0.866025 0.000000 0.500000
vn -0.000000 0.000000 1.000000
vn -0.000000 0.000000 1.000000
vn 0.500000 0.000000 0.866025
vn 0.500000 0.000000 0.866025
vn 0.866025 0.000000 0.500000
vn 0.866025 0.000000 0.500000
vn 1.000000 0.000000 0.000000
vn 1.000000 0.000000 0.000000
vn 0.866025 0.000000 -0.500000
vn 0.866025 0.000000 -0.500000
vn 0.500000 0.000000 -0.866025
vn 0.500000 0.000000 -0.866025
vn 0.000000 0.000000 -1.000000
vn 0.000000 0.000000 -1.000000
vn -0.500000 0.000000 -0.866025
vn -0.500000 0.000000 -0.866025
vn -0.866025 0.000000 -0.500000
vn -0.866025 0.000000 -0.500000
vn -1.000000 0.000000 -0.000000
vn -1.000000 0.000000 -0.000000
vn 0.000000 1.000000 -0.000000
vn 0.000000 1.000000 -0.000000
vn 0.000000 1.000000 -0.000000
vn 0.000000 1.000000 -0.000000
vn 0.000000 1.000000 -0.000000
vn -0.000000 1.000000 0.000000
vn -0.000000 1.000000 0.000000
vn 0.000000 1.000000 -0.000000
vn 0.000000 1.000000 -0.000000
vn 0.000000 1.000000 -0.000000
vn 0.000000 1.000000 -0.000000
vn 0.000000 1.000000 -0.000000
vn 0.000000 1.000000 -0.000000
f 1/1/1 2/2/2 10/3/3 9/4/4
f 2/2/2 3/5/5 11/6/6 10/3/3
f 3/5/5 4/7/7 12/8/8 11/6/6
f 4/7/7 5/9/9 13/10/10 12/8/8
f 5/9/9 6/11/11 14/12/12 13/10/10
f 6/11/11 7/13/13 15/14/14 14/12/12
f 7/13/13 8/15/15 16/16/16 15/14/14
f 8/15/15 1/1/1 9/4/4 16/16/16
f 26/17/17 25/35/18 27/19/19
f 28/20/20 26/17/17 27/19/19
f 29/21/21 28/20/20 27/19/19
f 30/22/22 29/21/21 27/19/19
f 31/23/23 30/22/22 27/19/19
f 32/24/24 31/23/23 27/19/19
f 33/25/25 32/24/24 27/19/19
f 25/35/18 33/25/25 27/19/19
f 2/2/26 1/1/27 17/26/28 18/27/29
f 3/5/30 2/2/31 18/27/32 19/28/33
f 4/7/34 3/5/35 19/28/36 20/29/37
f 5/9/38 4/7/39 20/29/40 21/30/41
f 6/11/42 5/9/43 21/30/44 22/31/45
f 7/13/46 6/11/47 22/31/48 23/32/49
f 8/15/50 7/13/51 23/32/52 24/33/53
f 1/1/54 8/15/55 24/33/56 17/26/57
f 18/27/58 17/26/59 25/18/60 26/41/61
f 19/28/62 18/27/58 26/41/61 28/40/63
f 20/29/64 19/28/62 28/40/63 29/39/65
f 21/30/66 20/29/64 29/39/65 30/38/67
f 22/31/68 21/30/66 30/38/67 31/37/69
f 23/32/70 22/31/68 31/37/69 32/36/71
f 24/33/72 23/32/70 32/36/71 33/34/73
f 17/26/59 24/33/72 33/34/73 25/18/60
f 34/42/74 35/43/75 43/44/76 42/45/77
f 35/43/75 36/46/78 44/47/79 43/44/76
f 36/46/78 37/48/80 45/49/81 44/47/79
f 37/48/80 38/50/82 46/51/83 45/49/81
f 38/50/82 39/52/84 47/53/85 46/51/83
f 39/52/84 40/54/86 48/55/87 47/53/85
f 40/54/86 41/56/88 49/57/89 48/55/87
f 41/56/88 34/42/74 42/45/77 49/57/89
f 59/58/90 58/59/91 60/60/92
f 61/61/93 59/58/90 60/60/92
f 62/62/94 61/61/93 60/60/92
f 63/63/95 62/62/94 60/60/92
f 64/64/96 63/63/95 60/60/92
f 65/65/97 64/64/96 60/60/92
f 66/66/98 65/65/97 60/60/92
f 58/59/91 66/66/98 60/60/92
f 35/43/99 34/42/100 50/67/101 51/68/102
f 36/46/103 35/43/104 51/68/105 52/69/106
f 37/48/107 36/46/108 52/69/109 53/70/110
f 38/50/111 37/48/112 53/70/113 54/71/114
f 39/52/115 38/50/116 54/71/117 55/72/118
f 40/54/119 39/52/120 55/72/121 56/73/122
f 41/56/123 40/54/124 56/73/125 57/74/126
f 34/42/127 41/56/128 57/74/129 50/67/130
f 51/68/131 50/67/132 58/75/133 59/76/134
f 52/69/135 51/68/131 59/76/134 61/77/136
f 53/70/137 52/69/135 61/77/136 62/78/138
f 54/71/139 53/70/137 62/78/138 63/79/140
f 55/72/141 54/71/139 63/79/140 64/80/142
f 56/73/143 55/72/141 64/80/142 65/81/144
f 57/74/145 56/73/143 65/81/144 66/82/146
f 50/67/132 57/74/145 66/82/146 58/75/133
f 69/83/147 70/84/148 72/85/149 71/86/150
f 73/87/151 74/88/152 68/89/153 67/90/154
f 86/91/155 75/92/156 78/93/157 85/94/158
f 85/94/159 78/93/160 80/95/161 84/96/162
f 84/97/163 80/98/164 82/99/165 83/100/166
f 71/101/167 72/102/168 77/103/169 79/104/170
f 76/105/171 77/106/172 72/85/173 70/84/174
f 79/107/175 81/108/176 69/83/177 71/86/178
f 68/89/179 74/88/180 78/93/181 75/92/182
f 80/109/183 78/110/184 74/111/185 73/112/186
f 73/87/187 67/90/188 82/99/189 80/98/190
f 79/107/191 84/113/192 83/114/193 81/108/194
f 77/106/195 85/115/196 84/113/197 79/107/198
f 76/105/199 86/116/200 85/115/201 77/106/202
f 88/117/203 87/118/204 99/119/205
f 89/120/206 88/117/203 99/119/205
f 90/121/207 89/120/206 99/119/205
f 91/122/208 90/121/207 99/119/205
f 92/123/209 91/122/208 99/119/205
f 93/124/210 92/123/209 99/119/205
f 94/125/211 93/124/210 99/119/205
f 95/126/212 94/125/211 99/119/205
f 96/127/213 95/126/212 99/119/205
f 97/128/214 96/127/213 99/119/205
f 98/129/215 97/128/214 99/119/205
f 87/118/204 98/129/215 99/119/205
f 101/130/216 102/131/217 124/132/218 123/133/219
f 102/134/217 101/135/216 103/136/220 104/137/221
f 104/137/221 103/136/220 105/138/222 106/139/223
f 106/139/223 105/138/222 107/140/224 108/141/225
f 108/141/225 107/140/224 109/142/226 110/143/227
f 110/143/227 109/142/226 111/144/228 112/145/229
f 112/145/229 111/144/228 113/146/230 114/147/231
f 114/147/231 113/146/230 115/148/232 116/149/233
f 116/149/233 115/148/232 117/150/234 118/151/235
f 118/151/235 117/150/234 119/152/236 120/153/237
f 120/153/237 119/152/236 121/154/238 122/155/239
f 122/155/239 121/154/238 123/133/219 124/132/218
f 87/156/240 88/157/241 103/136/242 101/135/243
f 88/157/241 89/158/244 105/138/245 103/136/242
f 89/158/244 90/159/246 107/140/247 105/138/245
f 90/159/246 91/160/248 109/142/249 107/140/247
f 91/160/248 92/161/250 111/144/251 109/142/249
f 92/161/250 93/162/252 113/146/253 111/144/251
f 93/162/252 94/163/254 115/148/255 113/146/253
f 94/163/254 95/164/256 117/150/257 115/148/255
f 95/164/256 96/165/258 119/152/259 117/150/257
f 96/165/258 97/166/260 121/154/261 119/152/259
f 97/166/260 98/167/262 123/133/263 121/154/261
f 98/167/262 87/168/240 101/130/243 123/133/263
f 102/169/264 104/170/265 100/171/266
f 104/170/265 106/172/267 100/171/266
f 106/172/267 108/173/268 100/171/266
f 108/173/268 110/174/269 100/171/266
f 110/174/269 112/175/270 100/171/266
f 112/175/270 114/176/271 100/171/266
f 114/176/271 116/177/272 100/171/266
f 116/177/272 118/178/273 100/171/266
f 118/178/273 120/179/274 100/171/266
f 120/179/274 122/180/275 100/171/266
f 122/180/275 124/181/276 100/171/266
f 124/181/276 102/169/264 100/171/266
