# This file uses meters as units for non-parametric coordinates.

v 42.864562 3.109147 16.689534
v 42.864562 32.943934 16.689534
v -42.864562 32.943934 16.689534
v -42.864562 3.109147 16.689534
v 42.864562 3.109147 18.800720
v 42.864562 32.943934 18.800720
v -42.864562 32.943934 18.800720
v -42.864562 3.109147 18.800720
v 42.864562 22.999002 17.617904
v 42.864562 22.999002 19.729090
v -42.864562 22.999002 19.729090
v -42.864562 22.999002 17.617904
v 42.864562 13.054075 17.617904
v 42.864562 13.054075 19.729090
v -42.864562 13.054075 19.729090
v -42.864562 13.054075 17.617904
v 63.633087 1.228776 15.280919
v 63.633087 35.001171 15.280919
v -63.633098 35.001227 15.280919
v -63.633098 1.228731 15.280919
v 63.633087 1.228776 17.392105
v 63.633087 35.001171 17.392105
v -63.633098 35.001227 17.392105
v -63.633098 1.228731 17.392105
vt 0.257083 0.969784
vt 0.257083 0.979616
vt 0.274723 0.979616
vt 0.274723 0.969784
vt 0.257083 0.969784
vt 0.257083 0.979616
vt 0.274723 0.979616
vt 0.274723 0.969784
vt 0.257083 0.976339
vt 0.257083 0.976339
vt 0.274723 0.976339
vt 0.274723 0.976339
vt 0.257083 0.973061
vt 0.257083 0.973061
vt 0.274723 0.973061
vt 0.274723 0.973061
vt 0.443949 0.969784
vt 0.443949 0.979616
vt 0.461589 0.979616
vt 0.461589 0.969784
vt 0.443949 0.969784
vt 0.443949 0.979616
vt 0.461589 0.979616
vt 0.461589 0.969784
vn 0.000000 -0.092947 0.995671
vn 0.000000 -0.046625 0.998913
vn 0.000000 -0.046625 0.998913
vn 0.000000 -0.092947 0.995671
vn 1.000000 0.000000 0.000000
vn 1.000000 0.000000 0.000000
vn 1.000000 0.000000 0.000000
vn 1.000000 0.000000 0.000000
vn 0.000000 1.000000 0.000000
vn 0.000000 1.000000 0.000000
vn 0.000000 1.000000 0.000000
vn 0.000000 1.000000 0.000000
vn -1.000000 0.000000 0.000000
vn -1.000000 0.000000 0.000000
vn -1.000000 0.000000 0.000000
vn -1.000000 0.000000 0.000000
vn 0.000000 -1.000000 0.000000
vn 0.000000 -1.000000 0.000000
vn 0.000000 -1.000000 0.000000
vn 0.000000 -1.000000 0.000000
vn 1.000000 0.000000 0.000000
vn 1.000000 0.000000 0.000000
vn 1.000000 0.000000 0.000000
vn 1.000000 0.000000 0.000000
vn 0.000000 0.046625 0.998913
vn 0.000000 0.046625 0.998913
vn 0.000000 0.092947 0.995671
vn 0.000000 0.092947 0.995671
vn -1.000000 0.000000 0.000000
vn -1.000000 0.000000 0.000000
vn -1.000000 0.000000 0.000000
vn -1.000000 0.000000 0.000000
vn 0.000000 0.000000 1.000000
vn 0.000000 0.000000 1.000000
vn 0.000000 0.000000 1.000000
vn 0.000000 0.000000 1.000000
vn 1.000000 0.000000 0.000000
vn 1.000000 0.000000 0.000000
vn 1.000000 0.000000 0.000000
vn 1.000000 0.000000 0.000000
vn 0.000000 1.000000 0.000000
vn 0.000000 1.000000 0.000000
vn 0.000000 1.000000 0.000000
vn 0.000000 1.000000 0.000000
vn -1.000000 0.000000 0.000000
vn -1.000000 0.000000 0.000000
vn -1.000000 0.000000 0.000000
vn -1.000000 0.000000 0.000000
vn 0.000000 -1.000000 0.000000
vn 0.000000 -1.000000 0.000000
vn 0.000000 -1.000000 0.000000
vn 0.000000 -1.000000 0.000000
f 5/5/1 14/14/2 15/15/3 8/8/4
f 1/1/5 13/13/6 14/14/7 5/5/8
f 2/2/9 3/3/10 7/7/11 6/6/12
f 16/16/13 4/4/14 8/8/15 15/15/16
f 4/4/17 1/1/18 5/5/19 8/8/20
f 9/9/21 2/2/22 6/6/23 10/10/24
f 11/11/25 10/10/26 6/6/27 7/7/28
f 3/3/29 12/12/30 11/11/31 7/7/32
f 13/13/6 9/9/21 10/10/24 14/14/7
f 15/15/3 14/14/2 10/10/26 11/11/25
f 12/12/30 16/16/13 15/15/16 11/11/31
f 21/17/33 22/18/34 23/19/35 24/20/36
f 17/21/37 18/22/38 22/18/39 21/17/40
f 18/22/41 19/23/42 23/19/43 22/18/44
f 19/23/45 20/24/46 24/20/47 23/19/48
f 20/24/49 17/21/50 21/17/51 24/20/52
