# This file uses meters as units for non-parametric coordinates.

v 10.092016 17.824237 -5.826629
v 5.826629 17.824237 -10.092016
v 0.000000 17.824237 -11.653257
v -5.826629 17.824237 -10.092016
v -10.092016 17.824237 -5.826629
v -11.653257 17.824237 0.000000
v -10.092016 17.824237 5.826629
v -5.826629 17.824237 10.092016
v 0.000000 17.824237 11.653257
v 5.826629 17.824237 10.092016
v 10.092016 17.824237 5.826629
v 11.653257 17.824237 0.000000
v 3.693934 19.941434 -2.132694
v 2.132694 19.941434 -3.693934
v 0.000000 19.941434 -4.265388
v -2.132694 19.941434 -3.693934
v -3.693934 19.941434 -2.132694
v -4.265388 19.941434 0.000000
v -3.693934 19.941434 2.132694
v -2.132694 19.941434 3.693934
v 0.000000 19.941434 4.265388
v 2.132694 19.941434 3.693934
v 3.693934 19.941434 2.132694
v 4.265388 19.941434 0.000000
v 0.000000 20.220166 0.000000
v -15.162781 14.806989 0.000000
v -13.131353 14.806989 -7.581391
v -7.581391 14.806989 -13.131353
v 0.000000 14.806989 -15.162781
v 7.581391 14.806989 -13.131353
v 13.131353 14.806989 -7.581391
v 15.162781 14.806989 0.000000
v 13.131353 14.806989 7.581391
v 7.581391 14.806989 13.131353
v 0.000000 14.806989 15.162781
v -7.581391 14.806989 13.131353
v -13.131353 14.806989 7.581391
v 5.826629 17.099380 -10.092016
v 2.132694 19.216577 -3.693934
v 3.693934 19.216577 -2.132694
v 10.092016 17.099380 -5.826629
v -0.000000 17.099380 -11.653257
v 0.000000 19.216577 -4.265388
v -5.826629 17.099380 -10.092016
v -2.132694 19.216577 -3.693934
v -10.092016 17.099380 -5.826629
v -3.693934 19.216577 -2.132694
v -11.653257 17.099380 -0.000000
v -4.265388 19.216577 -0.000000
v -10.092016 17.099380 5.826629
v -3.693934 19.216577 2.132694
v -5.826629 17.099380 10.092016
v -2.132694 19.216577 3.693934
v 0.000000 17.099380 11.653257
v -0.000000 19.216577 4.265388
v 5.826629 17.099380 10.092016
v 2.132694 19.216577 3.693934
v 10.092016 17.099380 5.826629
v 3.693934 19.216577 2.132694
v 11.653257 17.099380 0.000000
v 4.265388 19.216577 0.000000
v 0.000000 19.495308 0.000000
v -13.131353 14.082132 -7.581391
v -15.162781 14.082132 0.000000
v -7.581391 14.082132 -13.131353
v 0.000000 14.082132 -15.162781
v 7.581391 14.082132 -13.131353
v 13.131353 14.082132 -7.581391
v 15.162781 14.082132 0.000000
v 13.131353 14.082132 7.581391
v 7.581391 14.082132 13.131353
v -0.000000 14.082132 15.162781
v -7.581391 14.082132 13.131353
v -13.131353 14.082132 7.581391
vt 0.577007 0.209745
vt 0.538907 0.209745
vt 0.538907 0.199693
vt 0.577007 0.199693
vt 0.577007 0.219797
vt 0.538907 0.219797
vt 0.577007 0.229850
vt 0.538907 0.229850
vt 0.577007 0.219605
vt 0.538906 0.219606
vt 0.577007 0.209466
vt 0.538906 0.209466
vt 0.577007 0.199327
vt 0.538907 0.199327
vt 0.577007 0.209484
vt 0.538907 0.209484
vt 0.577007 0.219640
vt 0.538907 0.219641
vt 0.577007 0.229797
vt 0.538907 0.229798
vt 0.577007 0.219728
vt 0.538907 0.219728
vt 0.577007 0.209658
vt 0.538906 0.209658
vt 0.577007 0.199588
vt 0.538907 0.199588
vt 0.519856 0.204719
vt 0.519856 0.214771
vt 0.519856 0.224824
vt 0.519856 0.224675
vt 0.519856 0.214536
vt 0.519856 0.204396
vt 0.519856 0.204405
vt 0.519856 0.214562
vt 0.519856 0.224719
vt 0.519856 0.224763
vt 0.519856 0.214693
vt 0.519856 0.204623
vt 0.608356 0.209484
vt 0.608356 0.199327
vt 0.608356 0.209466
vt 0.608355 0.219606
vt 0.608355 0.229850
vt 0.608356 0.219797
vt 0.608356 0.209745
vt 0.608356 0.199693
vt 0.608356 0.199589
vt 0.608355 0.209658
vt 0.608355 0.219728
vt 0.608356 0.229798
vt 0.608355 0.219641
vt 0.577007 0.209745
vt 0.577007 0.199693
vt 0.538907 0.199693
vt 0.538907 0.209745
vt 0.577007 0.219797
vt 0.538907 0.219797
vt 0.577007 0.229850
vt 0.538907 0.229850
vt 0.577007 0.219605
vt 0.538906 0.219606
vt 0.577007 0.209466
vt 0.538906 0.209466
vt 0.577007 0.199327
vt 0.538907 0.199327
vt 0.577007 0.209484
vt 0.538907 0.209484
vt 0.577007 0.219640
vt 0.538907 0.219641
vt 0.577007 0.229797
vt 0.538907 0.229798
vt 0.577007 0.219728
vt 0.538907 0.219728
vt 0.577007 0.209658
vt 0.538906 0.209658
vt 0.577007 0.199588
vt 0.538907 0.199588
vt 0.519856 0.204719
vt 0.519856 0.214771
vt 0.519856 0.224824
vt 0.519856 0.224675
vt 0.519856 0.214536
vt 0.519856 0.204396
vt 0.519856 0.204405
vt 0.519856 0.214562
vt 0.519856 0.224719
vt 0.519856 0.224763
vt 0.519856 0.214693
vt 0.519856 0.204623
vt 0.608355 0.219606
vt 0.608356 0.209466
vt 0.608355 0.229850
vt 0.608356 0.219797
vt 0.608356 0.209745
vt 0.608356 0.199693
vt 0.608355 0.209658
vt 0.608356 0.199589
vt 0.608355 0.219728
vt 0.608356 0.229798
vt 0.608355 0.219641
vt 0.608356 0.209484
vt 0.608356 0.199327
vn 0.251889 0.863834 -0.436284
vn 0.127827 0.966768 -0.221404
vn 0.221404 0.966768 -0.127828
vn 0.436284 0.863834 -0.251889
vn 0.000000 0.863834 -0.503777
vn 0.000000 0.966768 -0.255655
vn -0.251889 0.863834 -0.436284
vn -0.127827 0.966768 -0.221404
vn -0.436284 0.863834 -0.251889
vn -0.221404 0.966768 -0.127828
vn -0.503777 0.863834 0.000000
vn -0.255655 0.966768 0.000000
vn -0.436284 0.863834 0.251889
vn -0.221404 0.966768 0.127828
vn -0.251889 0.863834 0.436284
vn -0.127827 0.966768 0.221404
vn -0.000000 0.863834 0.503777
vn 0.000000 0.966768 0.255655
vn 0.251889 0.863834 0.436284
vn 0.127827 0.966768 0.221404
vn 0.436284 0.863834 0.251889
vn 0.221404 0.966768 0.127828
vn 0.503777 0.863834 0.000000
vn 0.255655 0.966768 0.000000
vn 0.000000 1.000000 -0.000000
vn -0.564581 0.758286 -0.325961
vn -0.651922 0.758286 0.000000
vn -0.325961 0.758286 -0.564581
vn 0.000000 0.758286 -0.651922
vn 0.325961 0.758286 -0.564581
vn 0.564581 0.758286 -0.325961
vn 0.651922 0.758286 0.000000
vn 0.564581 0.758286 0.325961
vn 0.325961 0.758286 0.564581
vn 0.000000 0.758286 0.651922
vn -0.325961 0.758286 0.564581
vn -0.564581 0.758286 0.325961
vn -0.251889 -0.863834 0.436284
vn -0.436284 -0.863834 0.251888
vn -0.221404 -0.966768 0.127827
vn -0.127827 -0.966768 0.221404
vn 0.000000 -0.863834 0.503777
vn 0.000000 -0.966768 0.255655
vn 0.251889 -0.863834 0.436284
vn 0.127827 -0.966768 0.221404
vn 0.436284 -0.863834 0.251888
vn 0.221404 -0.966768 0.127827
vn 0.503777 -0.863834 0.000000
vn 0.255655 -0.966768 0.000000
vn 0.436284 -0.863834 -0.251888
vn 0.221404 -0.966768 -0.127827
vn 0.251889 -0.863834 -0.436284
vn 0.127827 -0.966768 -0.221404
vn 0.000000 -0.863834 -0.503777
vn 0.000000 -0.966768 -0.255655
vn -0.251889 -0.863834 -0.436284
vn -0.127827 -0.966768 -0.221404
vn -0.436284 -0.863834 -0.251888
vn -0.221404 -0.966768 -0.127827
vn -0.503777 -0.863834 -0.000000
vn -0.255655 -0.966768 0.000000
vn -0.000000 -1.000000 0.000000
vn 0.564581 -0.758286 0.325961
vn 0.651922 -0.758286 0.000000
vn 0.325961 -0.758286 0.564581
vn 0.000000 -0.758286 0.651922
vn -0.325961 -0.758286 0.564581
vn -0.564581 -0.758286 0.325961
vn -0.651922 -0.758286 -0.000000
vn -0.564581 -0.758286 -0.325961
vn -0.325961 -0.758286 -0.564581
vn 0.000000 -0.758286 -0.651922
vn 0.325961 -0.758286 -0.564581
vn 0.564581 -0.758286 -0.325961
f 2/1/1 14/2/2 13/3/3 1/4/4
f 3/5/5 15/6/6 14/2/2 2/1/1
f 4/7/7 16/8/8 15/6/6 3/5/5
f 5/9/9 17/10/10 16/8/8 4/7/7
f 6/11/11 18/12/12 17/10/10 5/9/9
f 7/13/13 19/14/14 18/12/12 6/11/11
f 8/15/15 20/16/16 19/14/14 7/13/13
f 9/17/17 21/18/18 20/16/16 8/15/15
f 10/19/19 22/20/20 21/18/18 9/17/17
f 11/21/21 23/22/22 22/20/20 10/19/19
f 12/23/23 24/24/24 23/22/22 11/21/21
f 1/25/4 13/26/3 24/24/24 12/23/23
f 13/3/3 14/2/2 25/27/25
f 14/2/2 15/6/6 25/28/25
f 15/6/6 16/8/8 25/29/25
f 16/8/8 17/10/10 25/30/25
f 17/10/10 18/12/12 25/31/25
f 18/12/12 19/14/14 25/32/25
f 19/14/14 20/16/16 25/33/25
f 20/16/16 21/18/18 25/34/25
f 21/18/18 22/20/20 25/35/25
f 22/20/20 23/22/22 25/36/25
f 23/22/22 24/24/24 25/37/25
f 24/24/24 13/26/3 25/38/25
f 27/42/26 26/41/27 6/11/11 5/9/9
f 28/43/28 27/42/26 5/9/9 4/7/7
f 29/44/29 28/43/28 4/7/7 3/5/5
f 30/45/30 29/44/29 3/5/5 2/1/1
f 31/46/31 30/45/30 2/1/1 1/4/4
f 32/48/32 31/47/31 1/25/4 12/23/23
f 33/49/33 32/48/32 12/23/23 11/21/21
f 34/50/34 33/49/33 11/21/21 10/19/19
f 35/51/35 34/50/34 10/19/19 9/17/17
f 36/39/36 35/51/35 9/17/17 8/15/15
f 37/40/37 36/39/36 8/15/15 7/13/13
f 26/41/27 37/40/37 7/13/13 6/11/11
f 38/52/38 41/53/39 40/54/40 39/55/41
f 42/56/42 38/52/38 39/55/41 43/57/43
f 44/58/44 42/56/42 43/57/43 45/59/45
f 46/60/46 44/58/44 45/59/45 47/61/47
f 48/62/48 46/60/46 47/61/47 49/63/49
f 50/64/50 48/62/48 49/63/49 51/65/51
f 52/66/52 50/64/50 51/65/51 53/67/53
f 54/68/54 52/66/52 53/67/53 55/69/55
f 56/70/56 54/68/54 55/69/55 57/71/57
f 58/72/58 56/70/56 57/71/57 59/73/59
f 60/74/60 58/72/58 59/73/59 61/75/61
f 41/76/39 60/74/60 61/75/61 40/77/40
f 40/54/40 62/78/62 39/55/41
f 39/55/41 62/79/62 43/57/43
f 43/57/43 62/80/62 45/59/45
f 45/59/45 62/81/62 47/61/47
f 47/61/47 62/82/62 49/63/49
f 49/63/49 62/83/62 51/65/51
f 51/65/51 62/84/62 53/67/53
f 53/67/53 62/85/62 55/69/55
f 55/69/55 62/86/62 57/71/57
f 57/71/57 62/87/62 59/73/59
f 59/73/59 62/88/62 61/75/61
f 61/75/61 62/89/62 40/77/40
f 63/90/63 46/60/46 48/62/48 64/91/64
f 65/92/65 44/58/44 46/60/46 63/90/63
f 66/93/66 42/56/42 44/58/44 65/92/65
f 67/94/67 38/52/38 42/56/42 66/93/66
f 68/95/68 41/53/39 38/52/38 67/94/67
f 69/96/69 60/74/60 41/76/39 68/97/68
f 70/98/70 58/72/58 60/74/60 69/96/69
f 71/99/71 56/70/56 58/72/58 70/98/70
f 72/100/72 54/68/54 56/70/56 71/99/71
f 73/101/73 52/66/52 54/68/54 72/100/72
f 74/102/74 50/64/50 52/66/52 73/101/73
f 64/91/64 48/62/48 50/64/50 74/102/74
