# This file uses meters as units for non-parametric coordinates.

v 0.000000 0.000000 0.000000
v 9.154333 1.495101 -5.285257
v 6.682007 0.000000 -3.689928
v 5.285257 1.495101 -9.154333
v 3.857860 0.000000 -6.391143
v 0.000000 1.495101 -10.570514
v 0.000000 0.000000 -7.379855
v -5.285257 1.495101 -9.154333
v -3.857860 0.000000 -6.391143
v -9.154333 1.495101 -5.285257
v -6.682007 0.000000 -3.689928
v -10.570514 1.495101 0.000000
v -7.715720 0.000000 0.000000
v -9.154333 1.495101 5.285257
v -6.682007 0.000000 3.689928
v -5.285257 1.495101 9.154333
v -3.857860 0.000000 6.391143
v 0.000000 1.495101 10.570514
v 0.000000 0.000000 7.379855
v 5.285257 1.495101 9.154333
v 3.857860 0.000000 6.391143
v 9.154333 1.495101 5.285257
v 6.682007 0.000000 3.689928
v 10.570514 1.495101 0.000000
v 7.715720 0.000000 0.000000
v 4.263096 0.282283 8.136069
v 0.000000 0.282283 9.394720
v -4.263096 0.282283 8.136069
v -8.128465 0.282283 4.697360
v -9.543287 0.282283 0.000000
v -8.128465 0.282283 -4.697360
v -4.263096 0.282283 -8.136069
v 0.000000 0.282283 -9.394720
v 4.263096 0.282283 -8.136069
v 8.128465 0.282283 -4.697360
v 9.543287 0.282283 0.000000
v 8.128465 0.282283 4.697360
v 8.641831 12.991868 -4.989364
v 4.989364 12.991868 -8.641831
v 0.000000 12.991868 -9.978727
v -4.989364 12.991868 -8.641831
v -8.641831 12.991868 -4.989364
v -9.978727 12.991868 0.000000
v -8.641831 12.991868 4.989364
v -4.989364 12.991868 8.641831
v 0.000000 12.991868 9.978727
v 4.989364 12.991868 8.641831
v 8.641831 12.991868 4.989364
v 9.978727 12.991868 0.000000
v 8.641831 3.242160 -4.989364
v 4.989364 3.242160 -8.641831
v 0.000000 3.242160 0.000000
v 0.000000 3.242160 -9.978727
v -4.989364 3.242160 -8.641831
v -8.641831 3.242160 -4.989364
v -9.978727 3.242160 0.000000
v -8.641831 3.242160 4.989364
v -4.989364 3.242160 8.641831
v 0.000000 3.242160 9.978727
v 4.989364 3.242160 8.641831
v 8.641831 3.242160 4.989364
v 9.978727 3.242160 0.000000
v 9.219757 13.006667 5.323029
v 5.323029 13.006667 9.219757
v 0.000000 13.006667 10.646057
v -5.323029 13.006667 9.219757
v -9.219757 13.006667 5.323029
v -10.646057 13.006667 0.000000
v -9.219757 13.006667 -5.323029
v -5.323029 13.006667 -9.219757
v 0.000000 13.006667 -10.646057
v 5.323029 13.006667 -9.219757
v 9.219757 13.006667 -5.323029
v 10.646057 13.006667 0.000000
v 9.664687 13.003830 5.579909
v 5.579909 13.003828 9.664687
v 9.667754 13.924512 5.581679
v 5.581679 13.924511 9.667754
v 0.000000 13.003828 11.159817
v 0.000000 13.924511 11.163361
v -5.579909 13.003828 9.664687
v -5.581679 13.924511 9.667754
v -9.664687 13.003830 5.579909
v -9.667754 13.924512 5.581679
v -11.159817 13.003831 0.000000
v -11.163361 13.924514 0.000000
v -9.664687 13.003830 -5.579909
v -9.667754 13.924512 -5.581679
v -5.579909 13.003828 -9.664687
v -5.581679 13.924511 -9.667754
v 0.000000 13.003828 -11.159817
v 0.000000 13.924511 -11.163361
v 5.579909 13.003828 -9.664687
v 5.581679 13.924511 -9.667754
v 9.664687 13.003830 -5.579909
v 9.667754 13.924512 -5.581679
v 11.159817 13.003831 -0.000000
v 11.163361 13.924514 -0.000000
v 0.000000 13.535146 11.415627
v -5.707812 13.535146 9.886223
v -9.886223 13.535147 5.707812
v -11.415627 13.535148 0.000000
v -9.886223 13.535147 -5.707812
v -5.707812 13.535146 -9.886223
v 0.000000 13.535146 -11.415627
v 5.707812 13.535146 -9.886223
v 9.886223 13.535147 -5.707812
v 11.415627 13.535148 -0.000000
v 9.886223 13.535147 5.707812
v 5.707812 13.535146 9.886223
v 0.000000 13.746994 10.452880
v 5.226439 13.746994 9.052459
v 9.052459 13.746995 5.226439
v 10.452880 13.746995 -0.000000
v 9.052459 13.746995 -5.226439
v 5.226439 13.746994 -9.052459
v 0.000000 13.746994 -10.452880
v -5.226439 13.746994 -9.052459
v -9.052459 13.746995 -5.226439
v -10.452880 13.746995 0.000000
v -9.052459 13.746995 5.226439
v -5.226439 13.746994 9.052459
v 0.000000 14.053580 10.757908
v 5.378953 14.053580 9.316621
v 9.316621 14.053581 5.378953
v 10.757908 14.053582 -0.000000
v 9.316621 14.053581 -5.378953
v 5.378953 14.053580 -9.316621
v 0.000000 14.053580 -10.757908
v -5.378953 14.053580 -9.316621
v -9.316621 14.053581 -5.378953
v -10.757908 14.053582 0.000000
v -9.316621 14.053581 5.378953
v -5.378953 14.053580 9.316621
vt 0.390629 0.800209
vt 0.392754 0.802292
vt 0.395656 0.797137
vt 0.395656 0.803054
vt 0.392655 0.802292
vt 0.390458 0.800209
vt 0.389654 0.797365
vt 0.390458 0.799904
vt 0.392655 0.802105
vt 0.395656 0.802911
vt 0.392754 0.802105
vt 0.390629 0.799904
vt 0.389851 0.797365
vt 0.398733 0.797818
vt 0.399893 0.798025
vt 0.399893 0.799579
vt 0.398733 0.799579
vt 0.399893 0.798170
vt 0.398733 0.797965
vt 0.398733 0.799704
vt 0.399893 0.799704
vt 0.399893 0.801650
vt 0.398733 0.801650
vt 0.399893 0.803721
vt 0.398733 0.803721
vt 0.399893 0.801575
vt 0.398733 0.801575
vt 0.399893 0.799428
vt 0.398733 0.799428
vt 0.399893 0.797282
vt 0.398733 0.797282
vt 0.399893 0.799402
vt 0.398733 0.799402
vt 0.399893 0.801522
vt 0.398733 0.801522
vt 0.399893 0.803796
vt 0.398733 0.803796
vt 0.398733 0.801750
vt 0.399893 0.801750
vt 0.396990 0.797508
vt 0.396990 0.799579
vt 0.392535 0.802859
vt 0.390207 0.800487
vt 0.396990 0.801650
vt 0.395714 0.803784
vt 0.396990 0.803721
vt 0.392426 0.803039
vt 0.396990 0.801575
vt 0.390020 0.800665
vt 0.396990 0.799428
vt 0.389139 0.797455
vt 0.396990 0.797282
vt 0.390020 0.800208
vt 0.396990 0.799402
vt 0.392426 0.802712
vt 0.396990 0.801522
vt 0.395714 0.803687
vt 0.396990 0.803796
vt 0.392535 0.802903
vt 0.396990 0.801750
vt 0.390207 0.800403
vt 0.396990 0.799704
vt 0.389355 0.797467
vt 0.396990 0.797658
vt 0.390207 0.800494
vt 0.391762 0.803207
vt 0.389388 0.800559
vt 0.395005 0.797230
vt 0.395005 0.804177
vt 0.391553 0.803207
vt 0.389026 0.800559
vt 0.388101 0.797492
vt 0.389026 0.800764
vt 0.391553 0.803160
vt 0.395005 0.804037
vt 0.391762 0.803160
vt 0.389388 0.800764
vt 0.388519 0.797492
vt 0.392754 0.802292
vt 0.390629 0.800209
vt 0.389898 0.800623
vt 0.392331 0.803008
vt 0.395656 0.803054
vt 0.395656 0.803881
vt 0.392655 0.802292
vt 0.392218 0.803008
vt 0.390458 0.800209
vt 0.389702 0.800623
vt 0.389654 0.797365
vt 0.388781 0.797365
vt 0.390458 0.799904
vt 0.389702 0.800341
vt 0.392655 0.802105
vt 0.392218 0.802863
vt 0.395656 0.802911
vt 0.395656 0.803786
vt 0.392754 0.802105
vt 0.392331 0.802863
vt 0.390629 0.799904
vt 0.389898 0.800341
vt 0.389851 0.797365
vt 0.389007 0.797365
vt 0.385804 0.801756
vt 0.385804 0.799589
vt 0.399527 0.799589
vt 0.399527 0.801756
vt 0.385804 0.797421
vt 0.399527 0.797421
vt 0.385804 0.797398
vt 0.385804 0.799570
vt 0.399527 0.799570
vt 0.399527 0.797398
vt 0.385804 0.801741
vt 0.399527 0.801741
vt 0.385804 0.803913
vt 0.399527 0.803913
vt 0.385804 0.801753
vt 0.399527 0.801753
vt 0.385804 0.799592
vt 0.399527 0.799592
vt 0.385804 0.797432
vt 0.399527 0.797432
vt 0.385804 0.799589
vt 0.399527 0.799589
vt 0.385804 0.801745
vt 0.399527 0.801745
vt 0.385804 0.803924
vt 0.399527 0.803924
vt 0.392535 0.802903
vt 0.390207 0.800403
vt 0.395714 0.803687
vt 0.392426 0.802712
vt 0.390020 0.800208
vt 0.389139 0.797455
vt 0.390020 0.800665
vt 0.392426 0.803039
vt 0.395714 0.803784
vt 0.392535 0.802859
vt 0.390207 0.800487
vt 0.389355 0.797467
vt 0.390207 0.800494
vt 0.395683 0.803741
vt 0.392313 0.802794
vt 0.389847 0.800280
vt 0.388944 0.797406
vt 0.389847 0.800642
vt 0.392313 0.803023
vt 0.395683 0.803837
vt 0.392424 0.802940
vt 0.390039 0.800564
vt 0.390039 0.800561
vt 0.389166 0.797411
vt 0.390039 0.800369
vt 0.392424 0.802881
vt 0.395656 0.803261
vt 0.392585 0.802408
vt 0.390336 0.800079
vt 0.389513 0.797365
vt 0.390336 0.800375
vt 0.392585 0.802579
vt 0.395656 0.803385
vt 0.392480 0.802579
vt 0.390155 0.800375
vt 0.389304 0.797365
vt 0.390155 0.800079
vt 0.392480 0.802408
vt 0.395656 0.803486
vt 0.392476 0.802603
vt 0.390148 0.800191
vt 0.389296 0.797365
vt 0.390148 0.800481
vt 0.392476 0.802763
vt 0.395656 0.803598
vt 0.392368 0.802763
vt 0.389961 0.800481
vt 0.389080 0.797365
vt 0.389961 0.800191
vt 0.392368 0.802603
vn -0.796612 0.392273 0.459924
vn -0.459924 0.392273 0.796612
vn 0.000000 1.000000 0.000000
vn 0.000000 0.392273 0.919849
vn 0.459924 0.392273 0.796612
vn 0.796612 0.392273 0.459924
vn 0.919849 0.392273 0.000000
vn 0.796612 0.392273 -0.459924
vn 0.459924 0.392273 -0.796612
vn 0.000000 0.392273 -0.919849
vn -0.459924 0.392273 -0.796612
vn -0.796612 0.392273 -0.459924
vn -0.919849 0.392273 0.000000
vn 0.436843 -0.857717 -0.271088
vn 0.058490 -0.997640 -0.035968
vn 0.035310 -0.997724 -0.057439
vn 0.231492 -0.871448 -0.432423
vn 0.531111 -0.847302 -0.000000
vn 0.067402 -0.997726 0.000000
vn 0.000000 -0.998021 -0.062875
vn -0.000000 -0.869797 -0.493410
vn -0.035310 -0.997724 -0.057439
vn -0.231492 -0.871448 -0.432423
vn -0.058490 -0.997640 -0.035968
vn -0.436843 -0.857717 -0.271088
vn -0.067402 -0.997726 -0.000000
vn -0.531111 -0.847302 0.000000
vn -0.058490 -0.997640 0.035968
vn -0.436843 -0.857717 0.271088
vn -0.035310 -0.997724 0.057439
vn -0.231492 -0.871448 0.432423
vn 0.000000 -0.998021 0.062875
vn 0.000000 -0.869797 0.493410
vn 0.035310 -0.997724 0.057439
vn 0.231492 -0.871448 0.432423
vn 0.436843 -0.857717 0.271088
vn 0.058490 -0.997640 0.035968
vn 0.861605 -0.088700 -0.499770
vn 0.500206 -0.091258 -0.861084
vn 0.499989 -0.006562 -0.866007
vn 0.866007 -0.006562 -0.499989
vn -0.000000 -0.085527 -0.996336
vn 0.000000 -0.006562 -0.999978
vn -0.500206 -0.091258 -0.861084
vn -0.499989 -0.006562 -0.866007
vn -0.861605 -0.088700 -0.499770
vn -0.866007 -0.006562 -0.499989
vn -0.996730 -0.080809 0.000000
vn -0.999978 -0.006562 0.000000
vn -0.861605 -0.088700 0.499770
vn -0.866007 -0.006562 0.499989
vn -0.500206 -0.091258 0.861084
vn -0.499989 -0.006562 0.866007
vn 0.000000 -0.085527 0.996336
vn 0.000000 -0.006562 0.999978
vn 0.500206 -0.091258 0.861084
vn 0.499989 -0.006562 0.866007
vn 0.861605 -0.088700 0.499770
vn 0.866007 -0.006562 0.499989
vn 0.996730 -0.080809 -0.000000
vn 0.999978 -0.006562 0.000000
vn 0.000000 -1.000000 0.000000
vn -0.423445 0.531770 0.733427
vn -0.733427 0.531770 0.423444
vn -0.692345 0.600731 0.399725
vn -0.399726 0.600732 0.692344
vn 0.000000 0.531771 0.846888
vn -0.000000 0.600732 0.799450
vn 0.423445 0.531770 0.733427
vn 0.399726 0.600732 0.692344
vn 0.733427 0.531770 0.423444
vn 0.692345 0.600731 0.399725
vn 0.846889 0.531770 -0.000000
vn 0.799451 0.600731 0.000000
vn 0.733427 0.531770 -0.423444
vn 0.692345 0.600731 -0.399725
vn 0.423445 0.531770 -0.733427
vn 0.399726 0.600732 -0.692344
vn 0.000000 0.531771 -0.846888
vn 0.000000 0.600732 -0.799450
vn -0.423445 0.531770 -0.733427
vn -0.399726 0.600732 -0.692344
vn -0.733427 0.531770 -0.423444
vn -0.692345 0.600731 -0.399725
vn -0.846889 0.531770 0.000000
vn -0.799451 0.600731 -0.000000
vn -0.866025 0.000000 0.500000
vn -0.500000 0.000000 0.866025
vn 0.000000 0.000000 1.000000
vn 0.500000 0.000000 0.866025
vn 0.866025 0.000000 0.500000
vn 1.000000 0.000000 0.000000
vn 0.866025 0.000000 -0.500000
vn 0.500000 0.000000 -0.866025
vn 0.000000 0.000000 -1.000000
vn -0.500000 0.000000 -0.866025
vn -0.866025 0.000000 -0.500000
vn -1.000000 0.000000 0.000000
vn 0.450505 -0.433800 0.780296
vn 0.780297 -0.433800 0.450504
vn 0.865991 -0.008954 0.499979
vn 0.499980 -0.008953 0.865991
vn 0.000000 -0.433801 0.901009
vn 0.000000 -0.008954 0.999960
vn -0.499980 -0.008953 0.865991
vn -0.450505 -0.433800 0.780296
vn -0.780297 -0.433800 0.450504
vn -0.865991 -0.008953 0.499980
vn -0.901009 -0.433801 0.000000
vn -0.999960 -0.008954 0.000000
vn -0.780297 -0.433800 -0.450504
vn -0.865991 -0.008954 -0.499979
vn -0.450505 -0.433800 -0.780296
vn -0.499980 -0.008953 -0.865991
vn -0.000000 -0.433801 -0.901009
vn -0.000000 -0.008954 -0.999960
vn 0.450505 -0.433800 -0.780297
vn 0.499980 -0.008953 -0.865991
vn 0.780297 -0.433800 -0.450504
vn 0.865991 -0.008953 -0.499980
vn 0.901009 -0.433801 -0.000000
vn 0.999960 -0.008954 -0.000000
vn -0.002762 -0.999985 -0.004783
vn -0.004782 -0.999985 -0.002760
vn -0.004782 -0.999985 -0.002760
vn -0.002762 -0.999985 -0.004783
vn 0.000000 -0.999985 -0.005524
vn 0.000000 -0.999985 -0.005524
vn 0.002762 -0.999985 -0.004783
vn 0.002762 -0.999985 -0.004783
vn 0.004782 -0.999985 -0.002761
vn 0.004782 -0.999985 -0.002761
vn 0.005521 -0.999985 0.000000
vn 0.005521 -0.999985 -0.000000
vn 0.004782 -0.999985 0.002760
vn 0.004782 -0.999985 0.002760
vn 0.002762 -0.999985 0.004783
vn 0.002762 -0.999985 0.004783
vn 0.000000 -0.999985 0.005524
vn 0.000000 -0.999985 0.005524
vn -0.002762 -0.999985 0.004783
vn -0.002762 -0.999985 0.004783
vn -0.004782 -0.999985 0.002761
vn -0.004782 -0.999985 0.002761
vn -0.005521 -0.999985 -0.000000
vn -0.005521 -0.999985 0.000000
vn -0.419626 0.543743 0.726814
vn 0.000000 0.543742 0.839252
vn -0.726813 0.543743 0.419626
vn -0.839252 0.543742 0.000000
vn -0.726814 0.543743 -0.419626
vn -0.419626 0.543743 -0.726813
vn 0.000000 0.543742 -0.839252
vn 0.419626 0.543743 -0.726813
vn 0.726813 0.543743 -0.419626
vn 0.839252 0.543742 -0.000000
vn 0.726814 0.543743 0.419626
vn 0.419626 0.543743 0.726813
vn 0.000000 0.987825 -0.155568
vn -0.077784 0.987825 -0.134725
vn -0.134726 0.987825 -0.077783
vn -0.155569 0.987825 -0.000000
vn -0.134726 0.987825 0.077783
vn -0.077784 0.987825 0.134725
vn -0.000000 0.987825 0.155568
vn 0.077784 0.987825 0.134725
vn 0.134726 0.987825 0.077783
vn 0.155569 0.987825 0.000000
vn 0.134726 0.987825 -0.077783
vn 0.077784 0.987825 -0.134725
vn -0.000000 0.952885 0.303333
vn 0.151667 0.952884 0.262696
vn 0.262694 0.952884 0.151667
vn 0.303333 0.952885 -0.000000
vn 0.262694 0.952884 -0.151668
vn 0.151667 0.952884 -0.262695
vn 0.000000 0.952885 -0.303333
vn -0.151667 0.952884 -0.262696
vn -0.262694 0.952884 -0.151667
vn -0.303333 0.952885 0.000000
vn -0.262694 0.952884 0.151668
vn -0.151667 0.952884 0.262695
f 50/1/1 51/2/2 52/3/3
f 51/2/2 53/4/4 52/3/3
f 53/4/4 54/5/5 52/3/3
f 54/5/5 55/6/6 52/3/3
f 55/6/6 56/7/7 52/3/3
f 56/7/7 57/8/8 52/3/3
f 57/8/8 58/9/9 52/3/3
f 58/9/9 59/10/10 52/3/3
f 59/10/10 60/11/11 52/3/3
f 60/11/11 61/12/12 52/3/3
f 61/12/12 62/13/13 52/3/3
f 62/13/13 50/1/1 52/3/3
f 35/14/14 3/15/15 5/16/16 34/17/17
f 3/18/15 35/19/14 36/20/18 25/21/19
f 34/17/17 5/16/16 7/22/20 33/23/21
f 33/23/21 7/22/20 9/24/22 32/25/23
f 32/25/23 9/24/22 11/26/24 31/27/25
f 31/27/25 11/26/24 13/28/26 30/29/27
f 30/29/27 13/28/26 15/30/28 29/31/29
f 29/31/29 15/30/28 17/32/30 28/33/31
f 28/33/31 17/32/30 19/34/32 27/35/33
f 27/35/33 19/34/32 21/36/34 26/37/35
f 37/38/36 26/37/35 21/36/34 23/39/37
f 37/38/36 23/39/37 25/21/19 36/20/18
f 2/40/38 4/41/39 72/42/40 73/43/41
f 4/41/39 6/44/42 71/45/43 72/42/40
f 6/44/42 8/46/44 70/47/45 71/45/43
f 8/46/44 10/48/46 69/49/47 70/47/45
f 10/48/46 12/50/48 68/51/49 69/49/47
f 12/50/48 14/52/50 67/53/51 68/51/49
f 14/52/50 16/54/52 66/55/53 67/53/51
f 66/55/53 16/54/52 18/56/54 65/57/55
f 18/56/54 20/58/56 64/59/57 65/57/55
f 20/58/56 22/60/58 63/61/59 64/59/57
f 22/60/58 24/62/60 74/63/61 63/61/59
f 24/62/60 2/64/38 73/65/41 74/63/61
f 5/66/16 3/67/15 1/68/62
f 7/69/20 5/66/16 1/68/62
f 9/70/22 7/69/20 1/68/62
f 11/71/24 9/70/22 1/68/62
f 13/72/26 11/71/24 1/68/62
f 15/73/28 13/72/26 1/68/62
f 17/74/30 15/73/28 1/68/62
f 19/75/32 17/74/30 1/68/62
f 21/76/34 19/75/32 1/68/62
f 23/77/37 21/76/34 1/68/62
f 25/78/19 23/77/37 1/68/62
f 3/67/15 25/78/19 1/68/62
f 18/56/54 27/35/33 26/37/35 20/58/56
f 16/54/52 28/33/31 27/35/33 18/56/54
f 14/52/50 29/31/29 28/33/31 16/54/52
f 12/50/48 30/29/27 29/31/29 14/52/50
f 10/48/46 31/27/25 30/29/27 12/50/48
f 8/46/44 32/25/23 31/27/25 10/48/46
f 6/44/42 33/23/21 32/25/23 8/46/44
f 4/41/39 34/17/17 33/23/21 6/44/42
f 2/40/38 35/14/14 34/17/17 4/41/39
f 36/20/18 35/19/14 2/64/38 24/62/60
f 22/60/58 37/38/36 36/20/18 24/62/60
f 20/58/56 26/37/35 37/38/36 22/60/58
f 39/79/63 38/80/64 115/159/65 116/160/66
f 40/83/67 39/79/63 116/160/66 117/161/68
f 41/85/69 40/83/67 117/161/68 118/162/70
f 42/87/71 41/85/69 118/162/70 119/163/72
f 43/89/73 42/87/71 119/163/72 120/164/74
f 44/91/75 43/89/73 120/164/74 121/165/76
f 45/93/77 44/91/75 121/165/76 122/166/78
f 46/95/79 45/93/77 122/166/78 111/155/80
f 47/97/81 46/95/79 111/155/80 112/156/82
f 48/99/83 47/97/81 112/156/82 113/157/84
f 49/101/85 48/99/83 113/157/84 114/158/86
f 38/80/64 49/101/85 114/158/86 115/159/65
f 38/103/87 39/104/88 51/105/2 50/106/1
f 39/104/88 40/107/89 53/108/4 51/105/2
f 40/109/89 41/110/90 54/111/5 53/112/4
f 41/110/90 42/113/91 55/114/6 54/111/5
f 42/113/91 43/115/92 56/116/7 55/114/6
f 43/115/92 44/117/93 57/118/8 56/116/7
f 44/117/93 45/119/94 58/120/9 57/118/8
f 45/119/94 46/121/95 59/122/10 58/120/9
f 46/121/95 47/123/96 60/124/11 59/122/10
f 47/123/96 48/125/97 61/126/12 60/124/11
f 48/125/97 49/127/98 62/128/13 61/126/12
f 49/127/98 38/103/87 50/106/1 62/128/13
f 76/129/99 75/130/100 109/153/101 110/154/102
f 79/131/103 76/129/99 110/154/102 99/142/104
f 100/143/105 81/132/106 79/131/103 99/142/104
f 83/133/107 81/132/106 100/143/105 101/144/108
f 85/134/109 83/133/107 101/144/108 102/145/110
f 87/135/111 85/134/109 102/145/110 103/146/112
f 89/136/113 87/135/111 103/146/112 104/147/114
f 91/137/115 89/136/113 104/147/114 105/148/116
f 93/138/117 91/137/115 105/148/116 106/149/118
f 95/139/119 93/138/117 106/149/118 107/151/120
f 97/140/121 95/141/119 107/150/120 108/152/122
f 75/130/100 97/140/121 108/152/122 109/153/101
f 64/59/123 63/61/124 75/130/125 76/129/126
f 65/57/127 64/59/123 76/129/126 79/131/128
f 66/55/129 65/57/127 79/131/128 81/132/130
f 67/53/131 66/55/129 81/132/130 83/133/132
f 68/51/133 67/53/131 83/133/132 85/134/134
f 69/49/135 68/51/133 85/134/134 87/135/136
f 70/47/137 69/49/135 87/135/136 89/136/138
f 71/45/139 70/47/137 89/136/138 91/137/140
f 72/42/141 71/45/139 91/137/140 93/138/142
f 73/43/143 72/42/141 93/138/142 95/139/144
f 74/63/145 73/65/143 95/141/144 97/140/146
f 63/61/124 74/63/145 97/140/146 75/130/125
f 82/94/147 100/143/105 99/142/104 80/96/148
f 101/144/108 100/143/105 82/94/147 84/92/149
f 102/145/110 101/144/108 84/92/149 86/90/150
f 103/146/112 102/145/110 86/90/150 88/88/151
f 104/147/114 103/146/112 88/88/151 90/86/152
f 105/148/116 104/147/114 90/86/152 92/84/153
f 106/149/118 105/148/116 92/84/153 94/82/154
f 107/151/120 106/149/118 94/82/154 96/81/155
f 108/152/122 107/150/120 96/81/155 98/102/156
f 109/153/101 108/152/122 98/102/156 77/100/157
f 110/154/102 109/153/101 77/100/157 78/98/158
f 99/142/104 110/154/102 78/98/158 80/96/148
f 112/156/82 111/155/80 123/167/159 124/168/160
f 113/157/84 112/156/82 124/168/160 125/169/161
f 114/158/86 113/157/84 125/169/161 126/170/162
f 115/159/65 114/158/86 126/170/162 127/171/163
f 116/160/66 115/159/65 127/171/163 128/172/164
f 117/161/68 116/160/66 128/172/164 129/173/165
f 118/162/70 117/161/68 129/173/165 130/174/166
f 119/163/72 118/162/70 130/174/166 131/175/167
f 120/164/74 119/163/72 131/175/167 132/176/168
f 121/165/76 120/164/74 132/176/168 133/177/169
f 122/166/78 121/165/76 133/177/169 134/178/170
f 111/155/80 122/166/78 134/178/170 123/167/159
f 124/168/160 123/167/159 80/96/171 78/98/172
f 125/169/161 124/168/160 78/98/172 77/100/173
f 126/170/162 125/169/161 77/100/173 98/102/174
f 127/171/163 126/170/162 98/102/174 96/81/175
f 128/172/164 127/171/163 96/81/175 94/82/176
f 129/173/165 128/172/164 94/82/176 92/84/177
f 130/174/166 129/173/165 92/84/177 90/86/178
f 131/175/167 130/174/166 90/86/178 88/88/179
f 132/176/168 131/175/167 88/88/179 86/90/180
f 133/177/169 132/176/168 86/90/180 84/92/181
f 134/178/170 133/177/169 84/92/181 82/94/182
f 123/167/159 134/178/170 82/94/182 80/96/171
