# This file uses meters as units for non-parametric coordinates.

v 13.560006 14.082132 -7.828873
v 7.828873 14.082132 -13.560006
v -0.000000 14.082132 -15.657746
v -7.828873 14.082132 -13.560006
v -13.560006 14.082132 -7.828873
v -15.657746 14.082132 -0.000000
v -13.560006 14.082132 7.828873
v -7.828873 14.082132 13.560006
v -0.000000 14.082132 15.657746
v 7.828873 14.082132 13.560006
v 13.560006 14.082132 7.828873
v 15.657746 14.082132 0.000000
v -7.763750 14.954663 13.447208
v -13.447208 14.954663 7.763750
v -15.527499 14.954663 0.000000
v -13.447208 14.954663 -7.763750
v -7.763750 14.954663 -13.447208
v -0.000000 14.954663 -15.527499
v 7.763750 14.954663 -13.447208
v 13.447208 14.954663 -7.763750
v 15.527499 14.954663 -0.000000
v 13.447208 14.954663 7.763750
v 7.763750 14.954663 13.447208
v -0.000000 14.954663 15.527499
v 13.729909 14.472603 -7.926967
v 15.853933 14.472603 -0.000000
v 13.729909 14.472603 7.926967
v 7.926967 14.472603 13.729909
v -0.000000 14.472603 15.853933
v -7.926967 14.472603 13.729909
v -13.729909 14.472603 7.926967
v -15.853933 14.472603 0.000000
v -13.729909 14.472603 -7.926967
v -7.926967 14.472603 -13.729909
v -0.000000 14.472603 -15.853933
v 7.926967 14.472603 -13.729909
v -7.581391 14.806989 13.131353
v -13.131353 14.806989 7.581391
v -15.162781 14.806989 -0.000000
v -13.131353 14.806989 -7.581391
v -7.581391 14.806989 -13.131353
v -0.000000 14.806989 -15.162781
v 7.581391 14.806989 -13.131353
v 13.131353 14.806989 -7.581391
v 15.162781 14.806989 0.000000
v 13.131353 14.806989 7.581391
v 7.581391 14.806989 13.131353
v -0.000000 14.806989 15.162781
v 13.131353 14.082132 -7.581391
v 7.581391 14.082132 -13.131353
v 15.162781 14.082132 0.000000
v 13.131353 14.082132 7.581391
v 7.581391 14.082132 13.131353
v -0.000000 14.082132 15.162781
v -7.581391 14.082132 13.131353
v -13.131353 14.082132 7.581391
v -15.162781 14.082132 -0.000000
v -13.131353 14.082132 -7.581391
v -7.581391 14.082132 -13.131353
v -0.000000 14.082132 -15.162781
v -2.552473 21.218314 0.646489
v -2.404048 21.069893 0.452562
v -2.777448 19.691149 0.452562
v -2.971376 19.691149 0.646489
v 2.971376 19.691149 0.646489
v 2.777448 19.691149 0.452562
v 2.552474 21.218314 0.646489
v 2.404048 21.069893 0.452562
v -0.000000 22.429367 0.646489
v -0.000000 22.219459 0.452562
v -3.169896 21.835735 0.646489
v -3.318321 21.984166 0.452562
v -3.876498 19.691149 0.646489
v -4.070425 19.691149 0.452562
v 4.070425 19.691149 0.452562
v 3.876498 19.691149 0.646489
v 3.169896 21.835745 0.646489
v 3.318321 21.984166 0.452562
v 0.000000 23.302542 0.646489
v -0.000000 23.512440 0.452562
v -3.318321 21.984166 -0.452562
v -3.169896 21.835735 -0.646489
v -4.070425 19.691149 -0.452562
v -3.876498 19.691149 -0.646489
v 3.876498 19.691149 -0.646489
v 4.070425 19.691149 -0.452562
v 3.318321 21.984166 -0.452562
v 3.169896 21.835745 -0.646489
v -0.000000 23.512440 -0.452562
v 0.000000 23.302542 -0.646489
v -2.552473 21.218314 -0.646489
v -2.404048 21.069893 -0.452562
v -2.971376 19.691149 -0.646489
v -2.777448 19.691149 -0.452562
v 2.777448 19.691149 -0.452562
v 2.971376 19.691149 -0.646489
v 2.552474 21.218314 -0.646489
v 2.404048 21.069893 -0.452562
v -0.000000 22.429367 -0.646489
v -0.000000 22.219459 -0.452562
v -1.503548 22.131667 0.646489
v -1.431360 21.951665 0.452562
v -1.431360 21.951665 -0.452562
v -1.503548 22.131667 -0.646489
v -1.803838 22.880452 -0.646489
v -1.876026 23.060456 -0.452562
v -1.876026 23.060456 0.452562
v -1.803838 22.880452 0.646489
v 1.513157 21.953899 0.452562
v 1.596119 22.129440 0.646489
v 1.941223 22.859667 0.646489
v 2.024185 23.035203 0.452562
v 2.024185 23.035203 -0.452562
v 1.941223 22.859667 -0.646489
v 1.596119 22.129440 -0.646489
v 1.513157 21.953899 -0.452562
vt 0.699861 0.105118
vt 0.699861 0.101554
vt 0.717594 0.101554
vt 0.717594 0.105118
vt 0.682129 0.105117
vt 0.682130 0.101555
vt 0.664397 0.105118
vt 0.664397 0.101554
vt 0.682468 0.105117
vt 0.682468 0.101554
vt 0.700354 0.105118
vt 0.700354 0.101554
vt 0.718239 0.105117
vt 0.718239 0.101554
vt 0.700323 0.105117
vt 0.700323 0.101555
vt 0.682406 0.105117
vt 0.682406 0.101555
vt 0.664489 0.105118
vt 0.664489 0.101554
vt 0.682252 0.105118
vt 0.682252 0.101554
vt 0.700015 0.105118
vt 0.700015 0.101554
vt 0.717777 0.105117
vt 0.717777 0.101554
vt 0.700323 0.097157
vt 0.700323 0.089735
vt 0.718239 0.089735
vt 0.718239 0.097157
vt 0.700354 0.097156
vt 0.700353 0.089735
vt 0.682468 0.097157
vt 0.682468 0.089734
vt 0.664397 0.097156
vt 0.664397 0.089735
vt 0.682130 0.097157
vt 0.682129 0.089735
vt 0.699861 0.097156
vt 0.699861 0.089735
vt 0.717594 0.097157
vt 0.717594 0.089735
vt 0.700015 0.097157
vt 0.717777 0.097157
vt 0.717777 0.089735
vt 0.700015 0.089734
vt 0.682252 0.097157
vt 0.682252 0.089734
vt 0.664489 0.097157
vt 0.664489 0.089735
vt 0.682406 0.097157
vt 0.682406 0.089734
vt 0.717594 0.089735
vt 0.699861 0.089735
vt 0.700015 0.089734
vt 0.717777 0.089735
vt 0.682252 0.089734
vt 0.664489 0.089735
vt 0.682406 0.089734
vt 0.700323 0.089735
vt 0.718239 0.089735
vt 0.700353 0.089735
vt 0.682468 0.089734
vt 0.664397 0.089735
vt 0.682129 0.089735
vt 0.658254 0.099847
vt 0.664038 0.099847
vt 0.664038 0.094956
vt 0.658254 0.094956
vt 0.664038 0.105012
vt 0.658254 0.105012
vt 0.658005 0.115068
vt 0.664038 0.115068
vt 0.664038 0.074844
vt 0.658005 0.074844
vt 0.658254 0.084900
vt 0.664038 0.084900
vt 0.664038 0.089335
vt 0.658254 0.089335
vt 0.671836 0.105012
vt 0.678117 0.105012
vt 0.678117 0.115068
vt 0.672084 0.115068
vt 0.678117 0.099847
vt 0.671836 0.099847
vt 0.671836 0.094956
vt 0.678117 0.094956
vt 0.672084 0.074844
vt 0.678117 0.074844
vt 0.678117 0.084900
vt 0.671836 0.084900
vt 0.671836 0.089335
vt 0.678117 0.089335
vt 0.692197 0.105012
vt 0.698478 0.105012
vt 0.698230 0.115068
vt 0.692197 0.115068
vt 0.698478 0.099847
vt 0.692197 0.099847
vt 0.692196 0.094956
vt 0.698478 0.094956
vt 0.692196 0.074844
vt 0.698230 0.074844
vt 0.698478 0.084900
vt 0.692196 0.084900
vt 0.692196 0.089335
vt 0.698478 0.089335
vt 0.712060 0.105012
vt 0.706276 0.105012
vt 0.706276 0.115068
vt 0.712309 0.115068
vt 0.706276 0.099847
vt 0.712060 0.099847
vt 0.712060 0.094956
vt 0.706276 0.094956
vt 0.712309 0.074844
vt 0.706276 0.074844
vt 0.706276 0.084900
vt 0.712060 0.084900
vt 0.712060 0.089335
vt 0.706276 0.089335
vn 0.446777 -0.448955 -0.773841
vn 0.495023 0.140733 -0.857406
vn 0.857406 0.140733 -0.495024
vn 0.773840 -0.448955 -0.446777
vn 0.000000 -0.448954 -0.893555
vn 0.000000 0.140734 -0.990048
vn -0.446777 -0.448955 -0.773841
vn -0.495023 0.140734 -0.857406
vn -0.773840 -0.448955 -0.446778
vn -0.857406 0.140733 -0.495024
vn -0.893554 -0.448955 0.000000
vn -0.990048 0.140733 -0.000000
vn -0.773840 -0.448955 0.446777
vn -0.857406 0.140733 0.495024
vn -0.446777 -0.448955 0.773841
vn -0.495023 0.140733 0.857406
vn -0.000000 -0.448954 0.893555
vn -0.000000 0.140734 0.990048
vn 0.446777 -0.448955 0.773841
vn 0.495023 0.140734 0.857406
vn 0.773840 -0.448955 0.446778
vn 0.857406 0.140733 0.495024
vn 0.893554 -0.448955 -0.000000
vn 0.990048 0.140733 0.000000
vn -0.261792 0.851975 0.453436
vn 0.187651 0.926902 -0.325023
vn 0.325021 0.926903 -0.187652
vn -0.453437 0.851974 0.261792
vn -0.523584 0.851974 -0.000000
vn 0.375302 0.926903 0.000000
vn -0.453437 0.851974 -0.261792
vn 0.325021 0.926903 0.187652
vn -0.261792 0.851975 -0.453436
vn 0.187651 0.926902 0.325024
vn -0.000000 0.851975 -0.523583
vn -0.000000 0.926901 0.375306
vn 0.261792 0.851974 -0.453436
vn -0.187651 0.926902 0.325023
vn 0.453437 0.851974 -0.261792
vn -0.325021 0.926903 0.187652
vn 0.523584 0.851974 0.000000
vn -0.375302 0.926903 -0.000000
vn 0.453437 0.851974 0.261792
vn -0.325021 0.926903 -0.187652
vn 0.261792 0.851975 0.453436
vn -0.187651 0.926902 -0.325024
vn 0.000000 0.851975 0.523583
vn 0.000000 0.926901 -0.375306
vn 0.000000 -1.000000 0.000001
vn 0.000000 -1.000000 0.000001
vn 0.000000 -1.000000 0.000001
vn 0.000000 -1.000000 0.000001
vn 0.000000 -1.000000 -0.000000
vn 0.000000 -1.000000 -0.000000
vn 0.000000 -1.000000 -0.000000
vn 0.000000 -1.000000 -0.000000
vn 0.000000 -1.000000 -0.000000
vn 0.000000 -1.000000 -0.000000
vn 0.000000 -1.000000 -0.000000
vn 0.000000 -1.000000 -0.000000
vn 0.000000 -1.000000 -0.000001
vn 0.000000 -1.000000 -0.000001
vn 0.000000 -1.000000 -0.000001
vn 0.000000 -1.000000 -0.000001
vn 0.000000 -1.000000 0.000000
vn 0.000000 -1.000000 0.000000
vn 0.000000 -1.000000 0.000000
vn 0.000000 -1.000000 0.000000
vn 0.000000 -1.000000 0.000000
vn 0.000000 -1.000000 0.000000
vn 0.000000 -1.000000 0.000000
vn 0.000000 -1.000000 0.000000
vn 0.289544 -0.624255 0.725582
vn 0.301202 -0.618760 0.725544
vn 0.000313 -0.694211 0.719771
vn -0.000321 -0.694218 0.719764
vn 0.610982 -0.342791 0.713580
vn 0.585900 -0.379407 0.716081
vn 0.698677 -0.190496 0.689609
vn 0.698677 -0.190496 0.689609
vn -0.698677 -0.190496 0.689610
vn -0.698677 -0.190496 0.689610
vn -0.597609 -0.363875 0.714464
vn -0.622265 -0.326512 0.711461
vn -0.297511 -0.617948 0.727755
vn -0.291930 -0.620711 0.727664
vn -0.685982 0.225493 0.691796
vn -0.685982 0.225493 0.691796
vn -0.685982 0.225493 0.691796
vn -0.685982 0.225493 0.691796
vn -0.286502 0.630361 0.721499
vn -0.293410 0.627167 0.721507
vn -0.161698 0.680751 0.714445
vn -0.161698 0.680751 0.714445
vn 0.685984 0.225493 0.691794
vn 0.685984 0.225493 0.691794
vn 0.685984 0.225493 0.691794
vn 0.685984 0.225493 0.691794
vn 0.290510 0.626568 0.723199
vn 0.288382 0.627607 0.723149
vn 0.158523 0.683186 0.712831
vn 0.158523 0.683186 0.712831
vn -0.572502 0.394613 -0.718695
vn -0.592409 0.368510 -0.716416
vn -0.685982 0.225493 -0.691796
vn -0.685982 0.225493 -0.691796
vn -0.293410 0.627167 -0.721507
vn -0.286502 0.630361 -0.721500
vn 0.004365 0.690915 -0.722923
vn 0.003973 0.690914 -0.722926
vn 0.685983 0.225492 -0.691795
vn 0.685983 0.225492 -0.691795
vn 0.604658 0.352368 -0.714301
vn 0.584464 0.379739 -0.717077
vn 0.288382 0.627607 -0.723149
vn 0.290510 0.626568 -0.723199
vn 0.585900 -0.379407 -0.716081
vn 0.610982 -0.342791 -0.713580
vn 0.698677 -0.190496 -0.689609
vn 0.698677 -0.190496 -0.689609
vn 0.301202 -0.618760 -0.725543
vn 0.289544 -0.624255 -0.725582
vn -0.000321 -0.694219 -0.719764
vn 0.000313 -0.694211 -0.719771
vn -0.698677 -0.190496 -0.689610
vn -0.698677 -0.190496 -0.689609
vn -0.622265 -0.326512 -0.711461
vn -0.597609 -0.363875 -0.714464
vn -0.291930 -0.620711 -0.727664
vn -0.297511 -0.617948 -0.727755
vn 0.000000 -0.000000 1.000000
vn -0.000000 0.000000 1.000000
vn -0.000000 0.000000 1.000000
vn -0.000000 -0.000000 1.000000
vn 0.000000 0.000000 1.000000
vn 0.000000 0.000000 1.000000
vn 0.000000 0.000000 1.000000
vn 0.000000 0.000000 1.000000
vn 0.000000 -0.000000 1.000000
vn 0.000000 0.000000 1.000000
vn 0.000000 0.000000 1.000000
vn 0.000000 -0.000000 1.000000
vn 0.000000 -0.000000 1.000000
vn 0.000000 -0.000000 1.000000
vn -0.837949 0.545749 0.000000
vn -0.950193 0.311661 0.000000
vn -0.950193 0.311661 0.000000
vn -0.837949 0.545749 0.000000
vn 0.852981 0.521942 0.000000
vn 0.950193 0.311661 0.000000
vn 0.950193 0.311661 0.000000
vn 0.852981 0.521942 0.000000
vn 0.006475 0.999979 0.000000
vn 0.418323 0.908298 0.000000
vn 0.418323 0.908298 0.000000
vn 0.006475 0.999979 0.000000
vn -0.418323 0.908298 0.000000
vn -0.418323 0.908298 0.000000
vn -0.000000 0.000000 -1.000000
vn -0.000000 0.000000 -1.000000
vn -0.000000 0.000000 -1.000000
vn 0.000000 0.000000 -1.000000
vn 0.000000 0.000000 -1.000000
vn 0.000000 0.000000 -1.000000
vn 0.000000 0.000000 -1.000000
vn 0.000000 0.000000 -1.000000
vn 0.000000 0.000000 -1.000000
vn 0.000000 0.000000 -1.000000
vn 0.000000 0.000000 -1.000000
vn 0.000000 0.000000 -1.000000
vn 0.000000 0.000000 -1.000000
vn 0.000000 0.000000 -1.000000
vn 0.965228 -0.261409 0.000000
vn 0.965228 -0.261409 0.000000
vn 0.965228 -0.261409 0.000000
vn 0.965228 -0.261409 0.000000
vn -0.965228 -0.261409 0.000000
vn -0.965228 -0.261409 0.000000
vn -0.965228 -0.261409 0.000000
vn -0.965228 -0.261409 0.000000
vn -0.172859 -0.984947 0.000000
vn -0.172859 -0.984947 0.000000
vn -0.431396 -0.902163 0.000000
vn -0.431396 -0.902163 0.000000
vn 0.431396 -0.902163 0.000000
vn 0.431396 -0.902163 0.000000
vn 0.183900 -0.982945 0.000000
vn 0.183900 -0.982945 0.000000
vn 0.671634 -0.740883 0.000000
vn 0.671634 -0.740883 0.000000
vn -0.422228 0.559057 0.713568
vn -0.422228 0.559057 0.713568
vn 0.443804 0.539592 0.715457
vn 0.443804 0.539592 0.715457
vn -0.704359 -0.709844 0.000000
vn -0.704359 -0.709844 0.000000
f 2/1/1 36/2/2 25/3/3 1/4/4
f 3/5/5 35/6/6 36/2/2 2/1/1
f 4/7/7 34/8/8 35/6/6 3/5/5
f 5/9/9 33/10/10 34/8/8 4/7/7
f 6/11/11 32/12/12 33/10/10 5/9/9
f 7/13/13 31/14/14 32/12/12 6/11/11
f 8/15/15 30/16/16 31/14/14 7/13/13
f 9/17/17 29/18/18 30/16/16 8/15/15
f 10/19/19 28/20/20 29/18/18 9/17/17
f 11/21/21 27/22/22 28/20/20 10/19/19
f 12/23/23 26/24/24 27/22/22 11/21/21
f 1/25/4 25/26/3 26/24/24 12/23/23
f 13/27/25 37/28/26 38/29/27 14/30/28
f 15/31/29 14/30/28 38/29/27 39/32/30
f 16/33/31 15/31/29 39/32/30 40/34/32
f 17/35/33 16/33/31 40/34/32 41/36/34
f 18/37/35 17/35/33 41/36/34 42/38/36
f 19/39/37 18/37/35 42/38/36 43/40/38
f 20/41/39 19/39/37 43/40/38 44/42/40
f 21/43/41 20/44/39 44/45/40 45/46/42
f 22/47/43 21/43/41 45/46/42 46/48/44
f 23/49/45 22/47/43 46/48/44 47/50/46
f 24/51/47 23/49/45 47/50/46 48/52/48
f 13/27/25 24/51/47 48/52/48 37/28/26
f 2/1/49 1/4/50 49/53/51 50/54/52
f 1/25/50 12/23/53 51/55/54 49/56/51
f 12/23/53 11/21/55 52/57/56 51/55/54
f 11/21/55 10/19/57 53/58/58 52/57/56
f 10/19/57 9/17/59 54/59/60 53/58/58
f 9/17/59 8/15/61 55/60/62 54/59/60
f 8/15/61 7/13/63 56/61/64 55/60/62
f 7/13/63 6/11/65 57/62/66 56/61/64
f 6/11/65 5/9/67 58/63/68 57/62/66
f 5/9/67 4/7/69 59/64/70 58/63/68
f 4/7/69 3/5/71 60/65/72 59/64/70
f 3/5/71 2/1/49 50/54/52 60/65/72
f 25/26/3 20/44/39 21/43/41 26/24/24
f 27/22/22 26/24/24 21/43/41 22/47/43
f 28/20/20 27/22/22 22/47/43 23/49/45
f 29/18/18 28/20/20 23/49/45 24/51/47
f 30/16/16 29/18/18 24/51/47 13/27/25
f 31/14/14 30/16/16 13/27/25 14/30/28
f 32/12/12 31/14/14 14/30/28 15/31/29
f 33/10/10 32/12/12 15/31/29 16/33/31
f 34/8/8 33/10/10 16/33/31 17/35/33
f 35/6/6 34/8/8 17/35/33 18/37/35
f 36/2/2 35/6/6 18/37/35 19/39/37
f 25/3/3 36/2/2 19/39/37 20/41/39
f 101/66/73 102/67/74 70/68/75 69/69/76
f 62/70/77 61/71/78 64/72/79 63/73/80
f 66/74/81 65/75/82 67/76/83 68/77/84
f 109/78/85 110/79/86 69/69/76 70/68/75
f 71/80/87 72/81/88 74/82/89 73/83/90
f 107/84/91 108/85/92 79/86/93 80/87/94
f 76/88/95 75/89/96 78/90/97 77/91/98
f 111/92/99 112/93/100 80/87/101 79/86/102
f 81/94/103 82/95/104 84/96/105 83/97/106
f 105/98/107 106/99/108 89/100/109 90/101/110
f 86/102/111 85/103/112 88/104/113 87/105/114
f 113/106/115 114/107/116 90/101/110 89/100/109
f 91/108/117 92/109/118 94/110/119 93/111/120
f 103/112/121 104/113/122 99/114/123 100/115/124
f 96/116/125 95/117/126 98/118/127 97/119/128
f 115/120/129 116/121/130 100/115/124 99/114/123
f 71/80/131 73/83/132 64/72/133 61/71/134
f 67/76/135 65/75/136 76/88/137 77/91/138
f 69/69/139 110/79/140 111/92/141 79/86/142
f 108/85/143 101/66/144 69/69/139 79/86/142
f 81/94/145 83/97/146 74/82/147 72/81/148
f 78/90/149 75/89/150 86/102/151 87/105/152
f 80/87/153 112/93/154 113/106/155 89/100/156
f 107/84/157 80/87/153 89/100/156 106/99/158
f 91/108/159 93/111/160 84/96/161 82/95/162
f 88/104/163 85/103/164 96/116/165 97/119/166
f 90/101/167 114/107/168 115/120/169 99/114/170
f 105/98/171 90/101/167 99/114/170 104/113/172
f 62/70/173 63/73/174 94/110/175 92/109/176
f 68/77/177 98/118/178 95/117/179 66/74/180
f 70/68/181 100/115/182 116/121/183 109/78/184
f 102/67/185 103/112/186 100/115/187 70/68/188
f 61/71/78 62/70/77 102/67/74 101/66/73
f 62/70/189 92/109/190 103/112/186 102/67/185
f 92/109/118 91/108/117 104/113/122 103/112/121
f 82/95/162 105/98/171 104/113/172 91/108/159
f 82/95/104 81/94/103 106/99/108 105/98/107
f 72/81/148 107/84/157 106/99/158 81/94/145
f 72/81/191 71/80/192 108/85/92 107/84/91
f 61/71/134 101/66/144 108/85/143 71/80/131
f 68/77/84 67/76/83 110/79/86 109/78/85
f 111/92/141 110/79/140 67/76/135 77/91/138
f 77/91/193 78/90/194 112/93/100 111/92/99
f 113/106/155 112/93/154 78/90/149 87/105/152
f 87/105/114 88/104/113 114/107/116 113/106/115
f 115/120/169 114/107/168 88/104/163 97/119/166
f 97/119/128 98/118/127 116/121/130 115/120/129
f 109/78/184 116/121/183 98/118/195 68/77/196
