# This file uses meters as units for non-parametric coordinates.

v 16.892634 11.488891 2.357342
v 16.693036 11.629592 2.220264
v 14.101811 10.808233 2.477080
v 14.159773 10.623171 2.650035
v 14.159773 10.623171 -2.650035
v 14.101811 10.808233 -2.477080
v 16.892634 11.488891 -2.357342
v 16.693036 11.629592 -2.220264
v 18.048328 11.850857 0.000000
v 17.790053 11.973181 0.000000
v 17.481834 11.673429 3.169896
v 17.565516 11.902855 3.318321
v 14.159773 10.623171 3.457273
v 14.101811 10.808233 3.630227
v 14.101811 10.808233 -3.630227
v 14.159773 10.623171 -3.457272
v 17.481842 11.673433 -3.169896
v 17.565516 11.902855 -3.318321
v 18.881588 12.111837 0.000000
v 19.023931 12.359636 0.000000
v 17.294987 12.766604 3.318321
v 17.095381 12.907303 3.169896
v 13.831282 11.671982 3.630227
v 13.773319 11.857045 3.457273
v 13.773319 11.857045 -3.457272
v 13.831282 11.671982 -3.630227
v 17.294987 12.766604 -3.318321
v 17.095388 12.907305 -3.169896
v 18.753402 13.223385 0.000000
v 18.495136 13.345711 0.000000
v 16.506182 12.722765 2.357342
v 16.422507 12.493341 2.220264
v 13.773319 11.857045 2.650035
v 13.831282 11.671982 2.477080
v 13.831282 11.671982 -2.477080
v 13.773319 11.857045 -2.650035
v 16.506182 12.722765 -2.357342
v 16.422507 12.493341 -2.220264
v 17.661875 13.084731 0.000000
v 17.519525 12.836930 0.000000
v 17.764236 11.761879 1.503549
v 17.534499 11.893141 1.431361
v 17.263970 12.756890 1.431361
v 17.377783 12.995753 1.503549
v 18.092343 13.219555 1.803838
v 18.322080 13.088292 1.876026
v 18.592608 12.224543 1.876026
v 18.478794 11.985681 1.803838
v 17.536632 11.893809 -1.513157
v 17.762111 11.761214 -1.596118
v 18.458958 11.979468 -1.941223
v 18.568509 12.216996 -2.024184
v 18.297980 13.080745 -2.024184
v 18.072507 13.213342 -1.941223
v 17.375658 12.995088 -1.596118
v 17.266103 12.757558 -1.513157
v -16.892636 11.488892 2.357342
v -16.693035 11.629593 2.220264
v -14.101811 10.808233 2.477080
v -14.159773 10.623171 2.650036
v -14.159773 10.623171 -2.650036
v -14.101811 10.808233 -2.477080
v -16.892636 11.488892 -2.357342
v -16.693035 11.629593 -2.220264
v -18.048328 11.850857 0.000000
v -17.790053 11.973182 0.000000
v -17.481832 11.673430 3.169898
v -17.565517 11.902856 3.318319
v -14.159773 10.623171 3.457273
v -14.101811 10.808233 3.630226
v -14.101811 10.808233 -3.630226
v -14.159773 10.623171 -3.457273
v -17.481842 11.673433 -3.169893
v -17.565517 11.902856 -3.318319
v -18.881588 12.111838 0.000000
v -19.023933 12.359636 0.000000
v -17.294986 12.766605 3.318319
v -17.095381 12.907304 3.169898
v -13.831282 11.671982 3.630226
v -13.773319 11.857045 3.457273
v -13.773319 11.857045 -3.457273
v -13.831282 11.671982 -3.630226
v -17.294986 12.766605 -3.318319
v -17.095390 12.907307 -3.169893
v -18.753407 13.223385 0.000000
v -18.495137 13.345711 0.000000
v -16.506184 12.722766 2.357342
v -16.422509 12.493342 2.220264
v -13.773319 11.857045 2.650036
v -13.831282 11.671982 2.477080
v -13.831282 11.671982 -2.477080
v -13.773319 11.857045 -2.650036
v -16.506184 12.722766 -2.357342
v -16.422509 12.493342 -2.220264
v -17.661877 13.084730 0.000000
v -17.519527 12.836931 0.000000
v -17.764236 11.761880 1.503548
v -17.534501 11.893141 1.431360
v -17.263970 12.756891 1.431362
v -17.377784 12.995752 1.503548
v -18.092345 13.219556 1.803838
v -18.322080 13.088292 1.876026
v -18.592606 12.224545 1.876026
v -18.478797 11.985682 1.803838
v -17.536631 11.893810 -1.513158
v -17.762111 11.761214 -1.596119
v -18.458956 11.979468 -1.941222
v -18.568506 12.216996 -2.024183
v -18.297979 13.080746 -2.024183
v -18.072504 13.213341 -1.941222
v -17.375659 12.995088 -1.596119
v -17.266105 12.757558 -1.513158
v 11.912893 3.745734 -6.877912
v 6.877912 3.745734 -11.912893
v -0.000000 3.745734 0.000000
v -0.000000 3.745734 -13.755824
v -6.877912 3.745734 -11.912893
v -11.912893 3.745734 -6.877912
v -13.755824 3.745734 0.000000
v -11.912893 3.745734 6.877912
v -6.877912 3.745734 11.912893
v -0.000000 3.745734 13.755824
v 6.877912 3.745734 11.912893
v 11.912893 3.745734 6.877912
v 13.755824 3.745734 0.000000
v 12.602619 13.671855 -7.276125
v 7.276125 13.671855 -12.602619
v -0.000000 13.671855 -14.552251
v -7.276125 13.671855 -12.602619
v -12.602619 13.671855 -7.276125
v -14.552251 13.671855 0.000000
v -12.602619 13.671855 7.276125
v -7.276125 13.671855 12.602619
v -0.000000 13.671855 14.552251
v 7.276125 13.671855 12.602619
v 12.602619 13.671855 7.276125
v 14.552251 13.671855 0.000000
v -13.755824 13.671855 0.000000
v -11.912893 13.671855 -6.877912
v -6.877912 13.671855 -11.912893
v -0.000000 13.671855 -13.755824
v 6.877912 13.671855 -11.912893
v 11.912893 13.671855 -6.877912
v 13.755824 13.671855 0.000000
v 11.912893 13.671855 6.877912
v 6.877912 13.671855 11.912893
v -0.000000 13.671855 13.755824
v -6.877912 13.671855 11.912893
v -11.912893 13.671855 6.877912
vt 0.658254 0.105012
vt 0.664038 0.105012
vt 0.658005 0.115068
vt 0.664038 0.074844
vt 0.671836 0.105012
vt 0.678117 0.115068
vt 0.678117 0.105012
vt 0.672084 0.074844
vt 0.692197 0.105012
vt 0.698230 0.115068
vt 0.698478 0.105012
vt 0.692196 0.074844
vt 0.712060 0.105012
vt 0.706276 0.115068
vt 0.706276 0.105012
vt 0.712309 0.074844
vt 0.672084 0.115068
vt 0.706276 0.089335
vt 0.658005 0.074844
vt 0.671836 0.084900
vt 0.658254 0.084900
vt 0.671836 0.094956
vt 0.658254 0.094956
vt 0.712060 0.089335
vt 0.692197 0.115068
vt 0.698478 0.089335
vt 0.678117 0.074844
vt 0.692196 0.084900
vt 0.678117 0.084900
vt 0.692196 0.094956
vt 0.678117 0.094956
vt 0.692196 0.089335
vt 0.712309 0.115068
vt 0.678117 0.089335
vt 0.698230 0.074844
vt 0.712060 0.084900
vt 0.698478 0.084900
vt 0.712060 0.094956
vt 0.698478 0.094956
vt 0.671836 0.089335
vt 0.664038 0.115068
vt 0.658254 0.089335
vt 0.664038 0.084900
vt 0.706276 0.074844
vt 0.664038 0.094956
vt 0.706276 0.084900
vt 0.664038 0.089335
vt 0.706276 0.094956
vt 0.658254 0.099847
vt 0.664038 0.099847
vt 0.706276 0.099847
vt 0.712060 0.099847
vt 0.698478 0.099847
vt 0.692197 0.099847
vt 0.678117 0.099847
vt 0.671836 0.099847
vt 0.658254 0.099847
vt 0.658254 0.094956
vt 0.664038 0.094956
vt 0.664038 0.099847
vt 0.664038 0.105012
vt 0.664038 0.115068
vt 0.658005 0.115068
vt 0.658254 0.105012
vt 0.664038 0.074844
vt 0.664038 0.084900
vt 0.658254 0.084900
vt 0.658005 0.074844
vt 0.664038 0.089335
vt 0.658254 0.089335
vt 0.671836 0.105012
vt 0.672084 0.115068
vt 0.678117 0.115068
vt 0.678117 0.105012
vt 0.678117 0.099847
vt 0.678117 0.094956
vt 0.671836 0.094956
vt 0.671836 0.099847
vt 0.672084 0.074844
vt 0.671836 0.084900
vt 0.678117 0.084900
vt 0.678117 0.074844
vt 0.671836 0.089335
vt 0.678117 0.089335
vt 0.692197 0.105012
vt 0.692197 0.115068
vt 0.698230 0.115068
vt 0.698478 0.105012
vt 0.698478 0.099847
vt 0.698478 0.094956
vt 0.692196 0.094956
vt 0.692197 0.099847
vt 0.692196 0.074844
vt 0.692196 0.084900
vt 0.698478 0.084900
vt 0.698230 0.074844
vt 0.692196 0.089335
vt 0.698478 0.089335
vt 0.712060 0.105012
vt 0.712309 0.115068
vt 0.706276 0.115068
vt 0.706276 0.105012
vt 0.706276 0.099847
vt 0.706276 0.094956
vt 0.712060 0.094956
vt 0.712060 0.099847
vt 0.712309 0.074844
vt 0.712060 0.084900
vt 0.706276 0.084900
vt 0.706276 0.074844
vt 0.712060 0.089335
vt 0.706276 0.089335
vt 0.421026 0.984789
vt 0.423101 0.988642
vt 0.425934 0.979105
vt 0.425934 0.990052
vt 0.423004 0.988642
vt 0.420859 0.984789
vt 0.420074 0.979526
vt 0.420859 0.984224
vt 0.423004 0.988297
vt 0.425934 0.989788
vt 0.423101 0.988297
vt 0.421026 0.984224
vt 0.420267 0.979526
vt 0.416315 0.987652
vt 0.416315 0.983641
vt 0.417136 0.983641
vt 0.417136 0.987652
vt 0.416315 0.979630
vt 0.417136 0.979630
vt 0.416315 0.979588
vt 0.416315 0.983606
vt 0.417136 0.983606
vt 0.417136 0.979588
vt 0.416315 0.987624
vt 0.417136 0.987624
vt 0.416315 0.991642
vt 0.417136 0.991642
vt 0.416315 0.987645
vt 0.417136 0.987645
vt 0.416315 0.983648
vt 0.417136 0.983648
vt 0.416315 0.979651
vt 0.417136 0.979651
vt 0.416315 0.983641
vt 0.417136 0.983641
vt 0.416315 0.987631
vt 0.417136 0.987631
vt 0.416315 0.991663
vt 0.417136 0.991663
vt 0.429713 0.991642
vt 0.429713 0.987624
vt 0.429713 0.983606
vt 0.429713 0.979588
vt 0.429713 0.979630
vt 0.429713 0.983641
vt 0.429713 0.987652
vt 0.429713 0.991663
vt 0.429713 0.987631
vt 0.429713 0.983641
vt 0.429713 0.979651
vt 0.429713 0.983648
vt 0.429713 0.987645
vn -0.373784 -0.876647 -0.302945
vn -0.363255 -0.872761 -0.326088
vn -0.447347 -0.894361 -0.000314
vn -0.447356 -0.894356 0.000320
vn 0.027358 -0.691831 -0.721541
vn -0.034355 -0.725445 -0.687422
vn 0.121376 -0.632273 -0.765179
vn 0.121376 -0.632273 -0.765179
vn 0.121377 -0.632273 0.765179
vn 0.121377 -0.632273 0.765179
vn -0.020200 -0.717071 0.696707
vn 0.039415 -0.684122 0.728302
vn -0.361130 -0.875035 0.322335
vn -0.369679 -0.877790 0.304668
vn 0.257065 -0.602071 0.755929
vn 0.257065 -0.602071 0.755929
vn 0.257065 -0.602071 0.755929
vn 0.257065 -0.602071 0.755929
vn 0.817191 -0.500117 0.286499
vn 0.814145 -0.501078 0.293407
vn 0.863168 -0.478326 0.161696
vn 0.863168 -0.478326 0.161696
vn 0.257067 -0.602073 -0.755926
vn 0.257067 -0.602073 -0.755926
vn 0.257067 -0.602073 -0.755926
vn 0.257067 -0.602073 -0.755926
vn 0.814081 -0.502869 -0.290509
vn 0.815058 -0.502511 -0.288381
vn 0.865013 -0.476050 -0.158522
vn 0.865013 -0.476050 -0.158522
vn 0.058608 0.761537 0.645466
vn 0.002030 0.730858 0.682527
vn -0.135324 0.639559 0.756737
vn -0.135324 0.639559 0.756737
vn 0.382850 0.875978 0.293409
vn 0.385900 0.876925 0.286502
vn 0.443261 0.896382 -0.004365
vn 0.443259 0.896385 -0.003972
vn -0.135325 0.639562 -0.756735
vn -0.135325 0.639562 -0.756735
vn -0.012386 0.721947 -0.691837
vn 0.044267 0.753520 -0.655933
vn 0.382778 0.877678 -0.288380
vn 0.381772 0.877414 -0.290507
vn -0.444979 0.575541 -0.686110
vn -0.375139 0.583211 -0.720511
vn -0.265199 0.588022 -0.764133
vn -0.265199 0.588022 -0.764133
vn -0.796217 0.509612 -0.326088
vn -0.807082 0.506797 -0.302945
vn -0.877612 0.479371 0.000320
vn -0.877607 0.479380 -0.000314
vn -0.265199 0.588023 0.764133
vn -0.265199 0.588023 0.764133
vn -0.360922 0.583775 0.727284
vn -0.428570 0.576770 0.695460
vn -0.804365 0.510074 0.304667
vn -0.795772 0.512688 0.322334
vn 0.300542 -0.953768 -0.000663
vn 0.301595 -0.953436 -0.001085
vn 0.301595 -0.953436 -0.001085
vn 0.300840 -0.953674 -0.000782
vn 0.300889 -0.953659 0.000801
vn 0.301595 -0.953436 0.001083
vn 0.301595 -0.953436 0.001083
vn 0.300559 -0.953763 0.000669
vn 0.298886 -0.954289 -0.000000
vn 0.298886 -0.954289 -0.000000
vn 0.298886 -0.954289 -0.000000
vn 0.298886 -0.954289 -0.000000
vn 0.298886 -0.954289 0.000001
vn 0.298886 -0.954289 0.000001
vn 0.333422 0.104429 0.936976
vn 0.081639 0.025570 0.996334
vn 0.081639 0.025570 0.996334
vn 0.332856 0.104251 0.937197
vn 0.309279 0.096867 -0.946025
vn 0.081639 0.025570 -0.996334
vn 0.081639 0.025570 -0.996334
vn 0.309803 0.097031 -0.945837
vn 0.954269 0.298879 -0.006475
vn 0.866779 0.271477 -0.418323
vn 0.866779 0.271477 -0.418323
vn 0.954269 0.298879 -0.006475
vn 0.866779 0.271478 0.418323
vn 0.866779 0.271478 0.418323
vn -0.300840 0.953674 0.000780
vn -0.301595 0.953436 0.001081
vn -0.301595 0.953436 0.001081
vn -0.300542 0.953768 0.000661
vn -0.300559 0.953763 -0.000668
vn -0.301595 0.953436 -0.001082
vn -0.301595 0.953436 -0.001082
vn -0.300889 0.953659 -0.000800
vn -0.298886 0.954289 0.000000
vn -0.298886 0.954289 -0.000000
vn -0.298886 0.954289 -0.000000
vn -0.298886 0.954289 0.000000
vn -0.298886 0.954289 0.000000
vn -0.298886 0.954289 0.000000
vn -0.265921 -0.083287 -0.960390
vn -0.089759 -0.028113 -0.995567
vn -0.089759 -0.028113 -0.995567
vn -0.266466 -0.083458 -0.960224
vn -0.246432 -0.077183 0.966082
vn -0.246921 -0.077336 0.965945
vn -0.089759 -0.028113 0.995567
vn -0.089759 -0.028113 0.995567
vn -0.954288 -0.298886 -0.000759
vn -0.954288 -0.298886 -0.000759
vn -0.847437 -0.265420 0.459787
vn -0.847437 -0.265420 0.459787
vn -0.847436 -0.265420 -0.459787
vn -0.847436 -0.265420 -0.459787
vn 0.746778 -0.513857 0.422224
vn 0.746778 -0.513857 0.422224
vn 0.728765 -0.521479 -0.443802
vn 0.728765 -0.521479 -0.443802
vn 0.373783 -0.876647 -0.302944
vn 0.447357 -0.894355 0.000322
vn 0.447348 -0.894360 -0.000312
vn 0.363254 -0.872762 -0.326087
vn -0.027359 -0.691826 -0.721546
vn -0.121375 -0.632267 -0.765184
vn -0.121375 -0.632267 -0.765184
vn 0.034355 -0.725442 -0.687425
vn -0.121375 -0.632267 0.765184
vn -0.039415 -0.684117 0.728307
vn 0.020202 -0.717068 0.696710
vn -0.121375 -0.632267 0.765184
vn 0.361134 -0.875033 0.322333
vn 0.369683 -0.877788 0.304667
vn -0.257064 -0.602067 0.755932
vn -0.257064 -0.602067 0.755932
vn -0.257064 -0.602067 0.755932
vn -0.257064 -0.602067 0.755932
vn -0.817194 -0.500110 0.286504
vn -0.863170 -0.478321 0.161699
vn -0.863170 -0.478321 0.161699
vn -0.814148 -0.501071 0.293412
vn -0.257066 -0.602070 -0.755929
vn -0.257066 -0.602070 -0.755929
vn -0.257066 -0.602070 -0.755929
vn -0.257066 -0.602070 -0.755929
vn -0.814080 -0.502871 -0.290507
vn -0.865010 -0.476054 -0.158524
vn -0.865010 -0.476054 -0.158524
vn -0.815057 -0.502514 -0.288379
vn -0.058611 0.761532 0.645472
vn 0.135323 0.639554 0.756742
vn 0.135323 0.639554 0.756742
vn -0.002032 0.730852 0.682533
vn -0.382853 0.875976 0.293411
vn -0.443256 0.896387 -0.003973
vn -0.443258 0.896383 -0.004366
vn -0.385903 0.876923 0.286503
vn 0.135324 0.639559 -0.756738
vn -0.044264 0.753516 -0.655938
vn 0.012385 0.721945 -0.691840
vn 0.135324 0.639559 -0.756738
vn -0.382774 0.877679 -0.288380
vn -0.381767 0.877416 -0.290508
vn 0.444978 0.575540 -0.686111
vn 0.265198 0.588020 -0.764135
vn 0.265198 0.588020 -0.764135
vn 0.375138 0.583210 -0.720512
vn 0.796217 0.509613 -0.326088
vn 0.877608 0.479379 -0.000313
vn 0.877613 0.479371 0.000321
vn 0.807082 0.506798 -0.302943
vn 0.265198 0.588020 0.764135
vn 0.428569 0.576770 0.695460
vn 0.360920 0.583775 0.727285
vn 0.265198 0.588020 0.764135
vn 0.804364 0.510075 0.304668
vn 0.795771 0.512689 0.322335
vn -0.300543 -0.953768 -0.000662
vn -0.300840 -0.953674 -0.000781
vn -0.301595 -0.953435 -0.001083
vn -0.301595 -0.953435 -0.001083
vn -0.300889 -0.953659 0.000800
vn -0.300559 -0.953763 0.000668
vn -0.301595 -0.953435 0.001083
vn -0.301595 -0.953435 0.001083
vn -0.298887 -0.954289 0.000000
vn -0.298887 -0.954289 0.000000
vn -0.298886 -0.954289 -0.000000
vn -0.298886 -0.954289 -0.000000
vn -0.298886 -0.954289 0.000000
vn -0.298886 -0.954289 0.000000
vn -0.333422 0.104429 0.936976
vn -0.332856 0.104252 0.937197
vn -0.081639 0.025570 0.996334
vn -0.081639 0.025570 0.996334
vn -0.309279 0.096867 -0.946025
vn -0.309803 0.097031 -0.945837
vn -0.081639 0.025570 -0.996334
vn -0.081639 0.025570 -0.996334
vn -0.954270 0.298877 -0.006476
vn -0.954270 0.298877 -0.006476
vn -0.866779 0.271476 -0.418324
vn -0.866779 0.271476 -0.418324
vn -0.866779 0.271476 0.418323
vn -0.866779 0.271476 0.418323
vn 0.300840 0.953674 0.000780
vn 0.300543 0.953768 0.000661
vn 0.301595 0.953436 0.001083
vn 0.301595 0.953436 0.001083
vn 0.300559 0.953763 -0.000669
vn 0.300888 0.953659 -0.000800
vn 0.301595 0.953436 -0.001083
vn 0.301595 0.953436 -0.001083
vn 0.298887 0.954289 0.000000
vn 0.298887 0.954288 -0.000000
vn 0.298886 0.954289 -0.000000
vn 0.298886 0.954289 -0.000000
vn 0.298888 0.954288 -0.000001
vn 0.298887 0.954288 -0.000001
vn 0.265922 -0.083287 -0.960390
vn 0.266467 -0.083458 -0.960224
vn 0.089759 -0.028113 -0.995567
vn 0.089759 -0.028113 -0.995567
vn 0.246432 -0.077183 0.966082
vn 0.089759 -0.028113 0.995567
vn 0.089759 -0.028113 0.995567
vn 0.246922 -0.077336 0.965945
vn 0.954289 -0.298883 -0.000759
vn 0.847437 -0.265417 0.459787
vn 0.847437 -0.265417 0.459787
vn 0.954289 -0.298883 -0.000759
vn 0.847437 -0.265418 -0.459787
vn 0.847436 -0.265418 -0.459788
vn -0.746780 -0.513848 0.422231
vn -0.746780 -0.513848 0.422231
vn -0.728767 -0.521481 -0.443797
vn -0.728767 -0.521481 -0.443797
vn -0.749976 0.500049 0.432999
vn -0.432999 0.500049 0.749976
vn 0.000000 1.000000 0.000000
vn 0.000000 0.500049 0.865997
vn 0.432999 0.500049 0.749976
vn 0.749976 0.500049 0.432999
vn 0.865997 0.500049 0.000000
vn 0.749976 0.500049 -0.432999
vn 0.432999 0.500049 -0.749976
vn 0.000000 0.500049 -0.865997
vn -0.432999 0.500049 -0.749976
vn -0.749976 0.500049 -0.432999
vn -0.865997 0.500049 -0.000000
vn 0.000000 1.000000 0.000000
vn 0.000000 1.000000 0.000000
vn -0.497697 0.095874 0.862036
vn -0.862036 0.095874 0.497697
vn 0.000000 1.000000 -0.000001
vn 0.000000 0.095874 0.995393
vn 0.000000 1.000000 -0.000000
vn 0.497697 0.095874 0.862036
vn 0.000000 1.000000 0.000000
vn 0.862036 0.095874 0.497697
vn 0.000000 1.000000 -0.000000
vn 0.995393 0.095874 0.000000
vn 0.000000 1.000000 -0.000000
vn 0.862036 0.095874 -0.497697
vn 0.000000 1.000000 -0.000000
vn 0.497697 0.095874 -0.862036
vn 0.000000 1.000000 0.000001
vn 0.000000 0.095874 -0.995393
vn 0.000000 1.000000 0.000000
vn -0.497697 0.095874 -0.862036
vn 0.000000 1.000000 -0.000000
vn -0.862036 0.095874 -0.497697
vn 0.000000 1.000000 0.000000
vn -0.995393 0.095874 0.000000
f 41/49/1 42/50/2 10/45/3 9/23/4
f 2/2/5 1/1/6 4/3/7 3/41/8
f 6/4/9 5/19/10 7/21/11 8/43/12
f 49/47/13 50/42/14 9/23/4 10/45/3
f 11/5/15 12/7/16 14/6/17 13/17/18
f 47/55/19 48/56/20 19/22/21 20/31/22
f 16/8/23 15/27/24 18/29/25 17/20/26
f 51/40/27 52/34/28 20/31/29 19/22/30
f 21/9/31 22/11/32 24/10/33 23/25/34
f 45/53/35 46/54/36 29/30/37 30/39/38
f 26/12/39 25/35/40 28/37/41 27/28/42
f 53/32/43 54/26/44 30/39/38 29/30/37
f 31/13/45 32/15/46 34/14/47 33/33/48
f 43/51/49 44/52/50 39/38/51 40/48/52
f 36/16/53 35/44/54 38/46/55 37/36/56
f 55/24/57 56/18/58 40/48/52 39/38/51
f 11/5/59 13/17/60 4/3/61 1/1/62
f 7/21/63 5/19/64 16/8/65 17/20/66
f 9/23/67 50/42/68 51/40/69 19/22/70
f 48/56/71 41/49/72 9/23/67 19/22/70
f 21/9/73 23/25/74 14/6/75 12/7/76
f 18/29/77 15/27/78 26/12/79 27/28/80
f 20/31/81 52/34/82 53/32/83 29/30/84
f 47/55/85 20/31/81 29/30/84 46/54/86
f 31/13/87 33/33/88 24/10/89 22/11/90
f 28/37/91 25/35/92 36/16/93 37/36/94
f 30/39/95 54/26/96 55/24/97 39/38/98
f 45/53/99 30/39/95 39/38/98 44/52/100
f 2/2/101 3/41/102 34/14/103 32/15/104
f 8/43/105 38/46/106 35/44/107 6/4/108
f 10/45/109 40/48/110 56/18/111 49/47/112
f 42/50/113 43/51/114 40/48/110 10/45/109
f 1/1/6 2/2/5 42/50/2 41/49/1
f 2/2/101 32/15/104 43/51/114 42/50/113
f 32/15/46 31/13/45 44/52/50 43/51/49
f 22/11/90 45/53/99 44/52/100 31/13/87
f 22/11/32 21/9/31 46/54/36 45/53/35
f 12/7/76 47/55/85 46/54/86 21/9/73
f 12/7/115 11/5/116 48/56/20 47/55/19
f 1/1/62 41/49/72 48/56/71 11/5/59
f 8/43/12 7/21/11 50/42/14 49/47/13
f 51/40/69 50/42/68 7/21/63 17/20/66
f 17/20/117 18/29/118 52/34/28 51/40/27
f 53/32/83 52/34/82 18/29/77 27/28/80
f 27/28/42 28/37/41 54/26/44 53/32/43
f 55/24/97 54/26/96 28/37/91 37/36/94
f 37/36/56 38/46/55 56/18/58 55/24/57
f 49/47/112 56/18/111 38/46/106 8/43/105
f 97/57/119 65/58/120 66/59/121 98/60/122
f 58/61/123 59/62/124 60/63/125 57/64/126
f 62/65/127 64/66/128 63/67/129 61/68/130
f 105/69/131 66/59/121 65/58/120 106/70/132
f 67/71/133 69/72/134 70/73/135 68/74/136
f 103/75/137 76/76/138 75/77/139 104/78/140
f 72/79/141 73/80/142 74/81/143 71/82/144
f 107/83/145 75/77/146 76/76/147 108/84/148
f 77/85/149 79/86/150 80/87/151 78/88/152
f 101/89/153 86/90/154 85/91/155 102/92/156
f 82/93/157 83/94/158 84/95/159 81/96/160
f 109/97/161 85/91/155 86/90/154 110/98/162
f 87/99/163 89/100/164 90/101/165 88/102/166
f 99/103/167 96/104/168 95/105/169 100/106/170
f 92/107/171 93/108/172 94/109/173 91/110/174
f 111/111/175 95/105/169 96/104/168 112/112/176
f 67/71/177 57/64/178 60/63/179 69/72/180
f 63/67/181 73/80/182 72/79/183 61/68/184
f 65/58/185 75/77/186 107/83/187 106/70/188
f 104/78/189 75/77/186 65/58/185 97/57/190
f 77/85/191 68/74/192 70/73/193 79/86/194
f 74/81/195 83/94/196 82/93/197 71/82/198
f 76/76/199 85/91/200 109/97/201 108/84/202
f 103/75/203 102/92/204 85/91/200 76/76/199
f 87/99/205 78/88/206 80/87/207 89/100/208
f 84/95/209 93/108/210 92/107/211 81/96/212
f 86/90/213 95/105/214 111/111/215 110/98/216
f 101/89/217 100/106/218 95/105/214 86/90/213
f 58/61/219 88/102/220 90/101/221 59/62/222
f 64/66/223 62/65/224 91/110/225 94/109/226
f 66/59/227 105/69/228 112/112/229 96/104/230
f 98/60/231 66/59/227 96/104/230 99/103/232
f 57/64/126 97/57/119 98/60/122 58/61/123
f 58/61/219 98/60/231 99/103/232 88/102/220
f 88/102/166 99/103/167 100/106/170 87/99/163
f 78/88/206 87/99/205 100/106/218 101/89/217
f 78/88/152 101/89/153 102/92/156 77/85/149
f 68/74/192 77/85/191 102/92/204 103/75/203
f 68/74/233 103/75/137 104/78/140 67/71/234
f 57/64/178 67/71/177 104/78/189 97/57/190
f 64/66/128 105/69/131 106/70/132 63/67/129
f 107/83/187 73/80/182 63/67/181 106/70/188
f 73/80/235 107/83/145 108/84/148 74/81/236
f 109/97/201 83/94/196 74/81/195 108/84/202
f 83/94/158 109/97/161 110/98/162 84/95/159
f 111/111/215 93/108/210 84/95/209 110/98/216
f 93/108/172 111/111/175 112/112/176 94/109/173
f 105/69/228 64/66/223 94/109/226 112/112/229
f 113/113/237 114/114/238 115/115/239
f 114/114/238 116/116/240 115/115/239
f 116/116/240 117/117/241 115/115/239
f 117/117/241 118/118/242 115/115/239
f 118/118/242 119/119/243 115/115/239
f 119/119/243 120/120/244 115/115/239
f 120/120/244 121/121/245 115/115/239
f 121/121/245 122/122/246 115/115/239
f 122/122/246 123/123/247 115/115/239
f 123/123/247 124/124/248 115/115/239
f 124/124/248 125/125/249 115/115/239
f 125/125/249 113/113/237 115/115/239
f 126/126/250 127/127/251 142/128/252 143/129/253
f 127/127/251 128/130/254 141/131/255 142/128/252
f 128/132/254 129/133/256 140/134/257 141/135/255
f 129/133/256 130/136/258 139/137/259 140/134/257
f 130/136/258 131/138/260 138/139/261 139/137/259
f 131/138/260 132/140/262 149/141/263 138/139/261
f 132/140/262 133/142/264 148/143/265 149/141/263
f 133/142/264 134/144/266 147/145/267 148/143/265
f 134/144/266 135/146/268 146/147/269 147/145/267
f 135/146/268 136/148/270 145/149/271 146/147/269
f 136/148/270 137/150/272 144/151/273 145/149/271
f 137/150/272 126/126/250 143/129/253 144/151/273
f 139/137/259 138/139/261 119/152/243 118/153/242
f 140/134/257 139/137/259 118/153/242 117/154/241
f 141/135/255 140/134/257 117/154/241 116/155/240
f 142/128/252 141/131/255 116/156/240 114/157/238
f 143/129/253 142/128/252 114/157/238 113/158/237
f 144/151/273 143/129/253 113/158/237 125/159/249
f 145/149/271 144/151/273 125/159/249 124/160/248
f 146/147/269 145/149/271 124/160/248 123/161/247
f 147/145/267 146/147/269 123/161/247 122/162/246
f 148/143/265 147/145/267 122/162/246 121/163/245
f 149/141/263 148/143/265 121/163/245 120/164/244
f 138/139/261 149/141/263 120/164/244 119/152/243
