# This file uses meters as units for non-parametric coordinates.

v -38.776737 68.401085 78.178102
v 38.776737 68.401085 78.178102
v -38.776737 68.401085 58.585923
v 38.776737 68.401085 58.585923
v -35.041374 64.665726 58.585923
v 35.041370 64.665726 58.585923
v 38.776737 68.401085 61.742639
v -38.776737 68.401085 61.742639
v 38.776737 72.766808 61.742639
v -38.776737 72.766808 61.742639
v 38.776737 72.766808 58.585923
v -38.776737 72.766808 58.585923
v -38.776737 103.326950 78.178102
v 38.776737 103.326950 78.178102
v -38.776737 106.074356 78.178102
v 38.776737 106.074356 78.178102
v -38.776737 106.074356 58.585923
v 38.776737 106.074356 58.585923
v -38.776737 103.326950 58.585923
v 38.776737 103.326950 58.585923
v 38.776737 106.074356 61.742639
v -38.776737 106.074356 61.742639
v 38.776737 111.428032 61.742639
v -38.776737 111.428032 61.742639
v 38.776737 111.428032 58.585923
v -38.776737 111.428032 58.585923
v -38.776737 146.714600 78.178102
v 38.776737 146.714600 78.178102
v -38.776737 149.462006 78.178102
v 38.776737 149.462006 78.178102
v -38.776737 149.462006 58.585923
v 38.776737 149.462006 58.585923
v -38.776737 146.714600 58.585923
v 38.776737 146.714600 58.585923
v 38.776737 149.462006 61.742639
v -38.776737 149.462006 61.742639
v 38.776737 154.815689 61.742639
v -38.776737 154.815689 61.742639
v 38.776737 154.815689 58.585923
v -38.776737 154.815689 58.585923
v -38.776737 187.443008 78.178102
v 38.776737 187.443008 78.178102
v -38.776737 190.190414 78.178102
v 38.776737 190.190414 78.178102
v -38.776737 190.190414 58.585923
v 38.776737 190.190414 58.585923
v -38.776737 187.443008 58.585923
v 38.776737 187.443008 58.585923
v 38.776737 190.190414 61.742639
v -38.776737 190.190414 61.742639
v 38.776737 195.544098 61.742639
v -38.776737 195.544098 61.742639
v 38.776737 195.544098 58.585923
v -38.776737 195.544098 58.585923
vt 0.538494 0.931482
vt 0.555347 0.931482
vt 0.538494 0.914570
vt 0.555347 0.914570
vt 0.538494 0.931482
vt 0.555347 0.931482
vt 0.555347 0.912000
vt 0.538494 0.912000
vt 0.538494 0.912000
vt 0.555347 0.912000
vt 0.555347 0.914570
vt 0.538494 0.914570
vt 0.538494 0.931482
vt 0.555347 0.931482
vt 0.555347 0.912000
vt 0.538494 0.912000
vt 0.538494 0.914570
vt 0.555347 0.914570
vt 0.555347 0.931482
vt 0.538494 0.931482
vt 0.555347 0.914570
vt 0.538494 0.914570
vt 0.538494 0.912000
vt 0.555347 0.912000
vt 0.555347 0.914570
vt 0.538494 0.914570
vt 0.538494 0.931482
vt 0.555347 0.931482
vt 0.555347 0.912000
vt 0.538494 0.912000
vt 0.538494 0.914570
vt 0.555347 0.914570
vt 0.555347 0.931482
vt 0.538494 0.931482
vt 0.555347 0.914570
vt 0.538494 0.914570
vt 0.538494 0.912000
vt 0.555347 0.912000
vt 0.555347 0.914570
vt 0.538494 0.914570
vt 0.538494 0.931482
vt 0.555347 0.931482
vt 0.555347 0.912000
vt 0.538494 0.912000
vt 0.538494 0.914570
vt 0.555347 0.914570
vt 0.555347 0.931482
vt 0.538494 0.931482
vt 0.555347 0.914570
vt 0.538494 0.914570
vt 0.538494 0.912000
vt 0.555347 0.912000
vt 0.555347 0.914570
vt 0.538494 0.914570
vn 0.000000 1.000000 0.000000
vn 0.000000 1.000000 0.000000
vn 0.000000 1.000000 0.000000
vn 0.000000 1.000000 0.000000
vn 0.000000 0.000000 -1.000000
vn 0.000000 0.000000 -1.000000
vn 0.000000 0.000000 -1.000000
vn 0.000000 0.000000 -1.000000
vn 0.000000 1.000000 0.000000
vn 0.000000 1.000000 0.000000
vn 0.000000 1.000000 0.000000
vn 0.000000 1.000000 0.000000
vn 0.000000 0.000000 1.000000
vn 0.000000 0.000000 1.000000
vn 0.000000 0.000000 1.000000
vn 0.000000 0.000000 1.000000
vn 1.000000 0.000000 0.000000
vn 1.000000 0.000000 0.000000
vn 1.000000 0.000000 0.000000
vn 1.000000 0.000000 0.000000
vn 0.000000 0.000000 -1.000000
vn 0.000000 0.000000 -1.000000
vn 0.000000 0.000000 -1.000000
vn 0.000000 0.000000 -1.000000
vn -1.000000 0.000000 0.000000
vn -1.000000 0.000000 0.000000
vn -1.000000 0.000000 0.000000
vn -1.000000 0.000000 0.000000
vn 0.000000 1.000000 0.000000
vn 0.000000 1.000000 0.000000
vn 0.000000 1.000000 0.000000
vn 0.000000 1.000000 0.000000
vn 0.000000 0.000000 -1.000000
vn 0.000000 0.000000 -1.000000
vn 0.000000 0.000000 -1.000000
vn 0.000000 0.000000 -1.000000
vn 0.000000 -1.000000 0.000000
vn 0.000000 -1.000000 0.000000
vn 0.000000 -1.000000 0.000000
vn 0.000000 -1.000000 0.000000
vn 0.000000 1.000000 0.000000
vn 0.000000 1.000000 0.000000
vn 0.000000 1.000000 0.000000
vn 0.000000 1.000000 0.000000
vn 0.000000 0.000000 1.000000
vn 0.000000 0.000000 1.000000
vn 0.000000 0.000000 1.000000
vn 0.000000 0.000000 1.000000
vn 1.000000 0.000000 0.000000
vn 1.000000 0.000000 0.000000
vn 1.000000 0.000000 0.000000
vn 1.000000 0.000000 0.000000
vn 0.000000 0.000000 -1.000000
vn 0.000000 0.000000 -1.000000
vn 0.000000 0.000000 -1.000000
vn 0.000000 0.000000 -1.000000
vn -1.000000 0.000000 0.000000
vn -1.000000 0.000000 0.000000
vn -1.000000 0.000000 0.000000
vn -1.000000 0.000000 0.000000
vn 0.000000 1.000000 0.000000
vn 0.000000 1.000000 0.000000
vn 0.000000 1.000000 0.000000
vn 0.000000 1.000000 0.000000
vn 0.000000 0.000000 -1.000000
vn 0.000000 0.000000 -1.000000
vn 0.000000 0.000000 -1.000000
vn 0.000000 0.000000 -1.000000
vn 0.000000 -1.000000 0.000000
vn 0.000000 -1.000000 0.000000
vn 0.000000 -1.000000 0.000000
vn 0.000000 -1.000000 0.000000
vn 0.000000 1.000000 0.000000
vn 0.000000 1.000000 0.000000
vn 0.000000 1.000000 0.000000
vn 0.000000 1.000000 0.000000
vn 0.000000 0.000000 1.000000
vn 0.000000 0.000000 1.000000
vn 0.000000 0.000000 1.000000
vn 0.000000 0.000000 1.000000
vn 1.000000 0.000000 0.000000
vn 1.000000 0.000000 0.000000
vn 1.000000 0.000000 0.000000
vn 1.000000 0.000000 0.000000
vn 0.000000 0.000000 -1.000000
vn 0.000000 0.000000 -1.000000
vn 0.000000 0.000000 -1.000000
vn 0.000000 0.000000 -1.000000
vn -1.000000 0.000000 0.000000
vn -1.000000 0.000000 0.000000
vn -1.000000 0.000000 0.000000
vn -1.000000 0.000000 0.000000
vn 0.000000 1.000000 0.000000
vn 0.000000 1.000000 0.000000
vn 0.000000 1.000000 0.000000
vn 0.000000 1.000000 0.000000
vn 0.000000 0.000000 -1.000000
vn 0.000000 0.000000 -1.000000
vn 0.000000 0.000000 -1.000000
vn 0.000000 0.000000 -1.000000
vn 0.000000 -1.000000 0.000000
vn 0.000000 -1.000000 0.000000
vn 0.000000 -1.000000 0.000000
vn 0.000000 -1.000000 0.000000
vn 0.000000 1.000000 0.000000
vn 0.000000 1.000000 0.000000
vn 0.000000 1.000000 0.000000
vn 0.000000 1.000000 0.000000
vn 0.000000 0.000000 1.000000
vn 0.000000 0.000000 1.000000
vn 0.000000 0.000000 1.000000
vn 0.000000 0.000000 1.000000
vn 1.000000 0.000000 0.000000
vn 1.000000 0.000000 0.000000
vn 1.000000 0.000000 0.000000
vn 1.000000 0.000000 0.000000
vn 0.000000 0.000000 -1.000000
vn 0.000000 0.000000 -1.000000
vn 0.000000 0.000000 -1.000000
vn 0.000000 0.000000 -1.000000
vn -1.000000 0.000000 0.000000
vn -1.000000 0.000000 0.000000
vn -1.000000 0.000000 0.000000
vn -1.000000 0.000000 0.000000
f 1/1/1 2/2/2 7/7/3 8/8/4
f 3/3/5 4/4/6 6/6/7 5/5/8
f 10/9/9 9/10/10 11/11/11 12/12/12
f 8/8/13 7/7/14 9/10/15 10/9/16
f 7/7/17 4/4/18 11/11/19 9/10/20
f 4/4/21 3/3/22 12/12/23 11/11/24
f 3/3/25 8/8/26 10/9/27 12/12/28
f 15/13/29 16/14/30 21/15/31 22/16/32
f 17/17/33 18/18/34 20/19/35 19/20/36
f 19/20/37 20/19/38 14/21/39 13/22/40
f 24/23/41 23/24/42 25/25/43 26/26/44
f 22/16/45 21/15/46 23/24/47 24/23/48
f 21/15/49 18/18/50 25/25/51 23/24/52
f 18/18/53 17/17/54 26/26/55 25/25/56
f 17/17/57 22/16/58 24/23/59 26/26/60
f 29/27/61 30/28/62 35/29/63 36/30/64
f 31/31/65 32/32/66 34/33/67 33/34/68
f 33/34/69 34/33/70 28/35/71 27/36/72
f 38/37/73 37/38/74 39/39/75 40/40/76
f 36/30/77 35/29/78 37/38/79 38/37/80
f 35/29/81 32/32/82 39/39/83 37/38/84
f 32/32/85 31/31/86 40/40/87 39/39/88
f 31/31/89 36/30/90 38/37/91 40/40/92
f 43/41/93 44/42/94 49/43/95 50/44/96
f 45/45/97 46/46/98 48/47/99 47/48/100
f 47/48/101 48/47/102 42/49/103 41/50/104
f 52/51/105 51/52/106 53/53/107 54/54/108
f 50/44/109 49/43/110 51/52/111 52/51/112
f 49/43/113 46/46/114 53/53/115 51/52/116
f 46/46/117 45/45/118 54/54/119 53/53/120
f 45/45/121 50/44/122 52/51/123 54/54/124
