# This file uses meters as units for non-parametric coordinates.

v -36.578008 231.861736 83.570818
v -32.340643 231.861736 84.948779
v -36.578008 227.405956 83.570818
v -32.340643 227.405956 84.948779
v -35.945989 227.405956 81.627314
v -31.708639 227.405956 83.005274
v -35.945989 231.861736 81.627314
v -31.708639 231.861736 83.005274
v -37.956594 234.055721 86.135127
v -38.157995 233.745007 85.749758
v -38.119375 214.241894 85.630999
v -37.920019 214.241192 86.022631
v -32.095754 233.745007 87.721163
v -32.485296 234.055721 87.914362
v -32.057134 214.241894 87.602396
v -32.448705 214.241192 87.801867
v -36.438589 166.499844 81.467120
v -36.830145 168.180645 81.666483
v -36.830145 170.577251 81.666483
v -36.438589 170.605511 81.467120
v -30.767889 168.180645 83.637888
v -30.967291 166.499844 83.246348
v -30.967291 170.605511 83.246348
v -30.767889 170.577251 83.637888
v -37.299429 181.650280 83.109568
v -36.908453 181.688671 82.911952
v -31.437139 181.688671 84.691180
v -31.237173 181.650280 85.080973
v -37.070608 234.055721 83.410632
v -37.465902 233.745007 83.621500
v -31.403646 233.745007 85.592898
v -31.599310 234.055721 85.189860
v -37.471593 180.039440 84.643702
v -37.671896 180.090649 84.254969
v -37.501684 200.248394 83.731516
v -37.110159 200.260143 83.532229
v -31.638845 200.260143 85.311465
v -31.439428 200.248394 85.702921
v -31.609655 180.090649 86.226367
v -32.000295 180.039440 86.422938
v -38.004263 199.644268 85.277018
v -37.804784 199.628674 85.668292
v -37.110159 214.283398 83.532229
v -37.501730 214.287823 83.731677
v -31.439489 214.287823 85.703082
v -31.638845 214.283398 85.311465
v -31.942022 199.644268 87.248423
v -32.333471 199.628674 87.447527
v -32.335119 165.756283 82.801539
v -32.335119 170.605511 82.801539
v -32.804968 181.688671 84.246371
v -33.006673 200.260143 84.866656
v -33.006673 214.283398 84.866656
v -32.967138 234.218609 84.745051
v -33.853124 234.218609 87.469553
v -33.816534 214.241192 87.357058
v -33.701299 199.628674 87.002718
v -33.368124 180.039440 85.978129
v -35.070760 165.756283 81.911921
v -35.070760 170.605511 81.911921
v -35.540609 181.688671 83.356760
v -35.742330 200.260143 83.977038
v -35.742330 214.283398 83.977038
v -35.702779 234.218609 83.855433
v -36.588766 234.218609 86.579936
v -36.552190 214.241192 86.467440
v -36.436956 199.628674 86.113101
v -36.103765 180.039440 85.088511
vt 0.683421 0.099584
vt 0.683421 0.090067
vt 0.698946 0.090067
vt 0.698946 0.099584
vt 0.729997 0.089947
vt 0.729997 0.099704
vt 0.714471 0.099584
vt 0.714471 0.090066
vt 0.665193 0.109335
vt 0.660998 0.074117
vt 0.665686 0.106707
vt 0.686210 0.104684
vt 0.667895 0.090187
vt 0.665271 0.100878
vt 0.659253 0.081052
vt 0.667895 0.099465
vt 0.665673 0.081074
vt 0.686212 0.084538
vt 0.686196 0.085388
vt 0.665306 0.083101
vt 0.665844 0.075717
vt 0.686316 0.079748
vt 0.701606 0.086463
vt 0.701615 0.086497
vt 0.665537 0.075038
vt 0.701095 0.082456
vt 0.722306 0.087517
vt 0.722271 0.087663
vt 0.720722 0.084479
vt 0.736674 0.087224
vt 0.735017 0.083445
vt 0.732494 0.082983
vt 0.665294 0.098971
vt 0.686212 0.099064
vt 0.686199 0.099970
vt 0.665614 0.100646
vt 0.686212 0.095611
vt 0.665122 0.095518
vt 0.701639 0.099355
vt 0.701612 0.099908
vt 0.701639 0.095902
vt 0.686212 0.088705
vt 0.665122 0.088612
vt 0.722268 0.100740
vt 0.722319 0.100196
vt 0.722319 0.096743
vt 0.701639 0.088995
vt 0.686239 0.109325
vt 0.701033 0.105105
vt 0.734886 0.104534
vt 0.736613 0.102804
vt 0.737398 0.099351
vt 0.722319 0.089837
vt 0.701044 0.109248
vt 0.732279 0.099351
vt 0.732279 0.102804
vt 0.737398 0.092444
vt 0.732349 0.107390
vt 0.732279 0.092444
vt 0.732368 0.105452
vt 0.720578 0.091258
vt 0.720578 0.098164
vt 0.732281 0.088846
vt 0.700972 0.097655
vt 0.700972 0.090749
vt 0.720577 0.087883
vt 0.700972 0.087296
vt 0.686168 0.097655
vt 0.686167 0.090749
vt 0.720619 0.086818
vt 0.700984 0.086307
vt 0.686168 0.087296
vt 0.686163 0.086307
vt 0.665294 0.087396
vt 0.665122 0.090849
vt 0.665622 0.086398
vt 0.734809 0.090109
vt 0.732284 0.089693
vt 0.720644 0.104749
vt 0.720649 0.108637
vt 0.720588 0.088953
vt 0.659484 0.073840
vt 0.736721 0.106598
vt 0.660767 0.081329
vt 0.732404 0.105976
vt 0.686246 0.116232
vt 0.664026 0.074672
vt 0.720668 0.103328
vt 0.665200 0.116241
vt 0.663795 0.081884
vt 0.701022 0.103426
vt 0.665368 0.106816
vt 0.686233 0.105772
vn 0.000000 -1.000000 0.000000
vn 0.000000 -1.000000 0.000000
vn 0.000000 -1.000000 0.000000
vn 0.000000 -1.000000 0.000000
vn 0.000000 1.000000 0.000000
vn 0.000000 1.000000 0.000000
vn 0.000000 1.000000 0.000000
vn 0.000000 1.000000 0.000000
vn 0.950982 0.000000 0.309247
vn 0.950982 0.000000 0.309247
vn 0.950982 0.000000 0.309247
vn 0.950982 0.000000 0.309247
vn -0.950980 0.000000 -0.309254
vn -0.950980 0.000000 -0.309254
vn -0.950980 0.000000 -0.309254
vn -0.950980 0.000000 -0.309254
vn -0.672456 0.707096 -0.218675
vn -0.672456 0.707096 -0.218675
vn -0.672456 0.707096 -0.218675
vn -0.672456 0.707096 -0.218675
vn -0.888025 -0.004402 0.459775
vn -0.889354 -0.010274 0.457104
vn -0.889336 -0.010192 0.457141
vn -0.888025 -0.004402 0.459775
vn -0.890839 -0.029902 0.453335
vn -0.890837 -0.029994 0.453333
vn 0.672453 0.707097 0.218681
vn 0.672453 0.707097 0.218681
vn 0.672453 0.707097 0.218681
vn 0.672453 0.707097 0.218681
vn 0.447749 -0.004403 0.894148
vn 0.450364 -0.010192 0.892787
vn 0.450400 -0.010273 0.892768
vn 0.447749 -0.004403 0.894148
vn 0.453818 -0.029993 0.890589
vn 0.453819 -0.029902 0.890592
vn -0.766587 -0.195060 0.611797
vn -0.852017 -0.096253 0.514589
vn -0.853020 -0.094896 0.513178
vn -0.766587 -0.195060 0.611797
vn -0.453715 0.000000 -0.891147
vn -0.456473 0.074053 -0.886650
vn -0.456487 0.074734 -0.886586
vn -0.453715 0.000000 -0.891147
vn -0.455044 0.052176 -0.888939
vn -0.454986 0.051033 -0.889035
vn 0.260105 -0.195061 0.945673
vn 0.388024 -0.094897 0.916751
vn 0.386383 -0.096254 0.917302
vn 0.260105 -0.195061 0.945673
vn 0.891097 0.000000 -0.453813
vn 0.890652 0.074734 -0.448502
vn 0.890679 0.074053 -0.448562
vn 0.891097 0.000000 -0.453813
vn 0.890871 0.051033 -0.451380
vn 0.890862 0.052176 -0.451268
vn -0.453631 0.014273 -0.891075
vn -0.453633 0.014051 -0.891078
vn 0.890983 0.014051 -0.453819
vn 0.890980 0.014273 -0.453819
vn -0.461033 -0.004357 -0.887372
vn -0.457989 -0.002536 -0.888954
vn -0.458025 -0.002558 -0.888936
vn -0.461033 -0.004357 -0.887372
vn 0.894783 -0.004357 -0.446480
vn 0.893276 -0.002558 -0.449501
vn 0.893259 -0.002537 -0.449536
vn 0.894783 -0.004357 -0.446480
vn -0.308929 -0.005945 0.951066
vn -0.309038 -0.014224 0.950943
vn -0.309160 -0.014202 0.950904
vn -0.309147 -0.005929 0.950996
vn 0.309248 0.000000 -0.950981
vn 0.307783 0.097177 -0.946481
vn 0.307832 0.095667 -0.946619
vn 0.309251 0.000000 -0.950980
vn 0.309452 -0.003775 -0.950908
vn 0.309590 -0.006441 -0.950848
vn 0.309356 -0.006423 -0.950925
vn 0.309318 -0.003769 -0.950951
vn -0.107012 0.993649 -0.034800
vn -0.107012 0.993649 -0.034800
vn -0.035873 0.999288 -0.011666
vn -0.035873 0.999288 -0.011666
vn 0.950980 -0.000000 0.309254
vn 0.950980 -0.000000 0.309254
vn 0.950980 -0.000000 0.309254
vn 0.950979 -0.000000 0.309254
vn -0.950981 0.000000 -0.309251
vn -0.950981 0.000000 -0.309250
vn -0.950981 0.000000 -0.309250
vn -0.950981 0.000000 -0.309251
vn -0.950982 -0.000000 -0.309246
vn -0.950981 -0.000001 -0.309248
vn -0.950981 -0.000001 -0.309248
vn -0.950982 -0.000001 -0.309247
vn 0.308423 0.073033 -0.948442
vn 0.308426 0.073033 -0.948440
vn 0.950978 -0.000000 0.309258
vn 0.950978 -0.000001 0.309258
vn 0.950978 -0.000001 0.309258
vn 0.950978 -0.000000 0.309257
vn -0.330790 -0.130696 0.934610
vn -0.357446 -0.233054 0.904388
vn -0.315665 -0.229167 0.920781
vn -0.314667 -0.129790 0.940287
vn -0.950981 -0.000000 -0.309248
vn -0.950982 -0.000000 -0.309247
vn 0.309189 0.020007 -0.950790
vn 0.309191 0.020007 -0.950790
vn 0.950979 0.000000 0.309256
vn 0.950979 0.000000 0.309255
vn -0.308975 -0.042358 0.950126
vn -0.308975 -0.042358 0.950127
vn 0.309253 0.000000 -0.950980
vn 0.307833 0.095667 -0.946618
vn 0.307788 0.097176 -0.946479
vn 0.309254 0.000000 -0.950980
vn 0.308427 0.073033 -0.948440
vn 0.308426 0.073033 -0.948441
vn 0.309191 0.020007 -0.950789
vn 0.309190 0.020007 -0.950790
vn 0.309183 -0.003769 -0.950995
vn 0.309048 -0.003775 -0.951039
vn 0.309138 -0.006423 -0.950996
vn 0.308901 -0.006440 -0.951072
vn 0.035873 0.999288 0.011666
vn 0.107012 0.993649 0.034800
vn 0.107012 0.993649 0.034800
vn 0.035873 0.999288 0.011666
vn -0.309283 -0.014202 0.950864
vn -0.309409 -0.014224 0.950823
vn -0.309569 -0.005946 0.950858
vn -0.309349 -0.005929 0.950930
vn -0.308976 -0.042358 0.950126
vn -0.308977 -0.042358 0.950126
vn -0.298586 -0.129790 0.945516
vn -0.282209 -0.130696 0.950409
vn -0.286307 -0.229167 0.930328
vn -0.242874 -0.233055 0.941646
f 3/1/1 5/2/2 6/3/3 4/4/4
f 7/5/5 1/6/6 2/7/7 8/8/8
f 2/7/9 4/4/10 6/3/11 8/8/12
f 7/13/13 5/2/14 3/1/15 1/16/16
f 9/20/17 29/25/18 30/21/19 10/17/20
f 10/17/21 11/18/22 12/19/23 9/20/24
f 11/18/22 41/23/25 42/24/26 12/19/23
f 13/36/27 31/11/28 32/92/29 14/14/30
f 14/33/31 16/34/32 15/35/33 13/36/34
f 16/34/32 48/39/35 47/40/36 15/35/33
f 17/30/37 33/27/38 34/28/39 18/31/40
f 18/77/41 19/78/42 20/63/43 17/30/44
f 19/78/42 25/81/45 26/66/46 20/63/43
f 21/50/47 39/44/48 40/45/49 22/51/50
f 22/83/51 23/60/52 24/85/53 21/50/54
f 23/60/52 27/79/55 28/88/56 24/85/53
f 25/70/45 35/71/57 36/67/58 26/66/46
f 27/79/55 37/49/59 38/91/60 28/88/56
f 29/74/61 43/72/62 44/73/63 30/76/64
f 31/11/65 45/12/66 46/93/67 32/92/68
f 33/27/38 42/24/26 41/23/25 34/28/39
f 35/71/57 44/73/63 43/72/62 36/67/58
f 37/49/59 46/93/67 45/12/66 38/91/60
f 39/44/48 47/40/36 48/39/35 40/45/49
f 9/20/69 12/19/70 66/42/71 65/43/72
f 17/30/73 20/63/74 60/59/75 59/57/76
f 43/72/77 29/74/78 64/75/79 63/69/80
f 29/25/81 9/20/82 65/90/83 64/87/84
f 13/36/85 15/35/86 45/12/87 31/11/88
f 30/21/89 44/22/90 11/18/91 10/17/92
f 25/29/93 19/32/94 18/31/95 34/28/96
f 20/63/74 26/66/97 61/61/98 60/59/75
f 39/44/99 21/50/100 24/85/101 28/88/102
f 33/27/103 17/30/104 59/57/105 68/53/106
f 44/22/90 35/26/107 41/23/108 11/18/91
f 36/67/109 43/72/77 63/69/80 62/65/110
f 15/35/86 47/40/111 38/91/112 45/12/87
f 12/19/70 42/24/113 67/47/114 66/42/71
f 35/26/107 25/29/93 34/28/96 41/23/108
f 26/66/97 36/67/109 62/65/110 61/61/98
f 47/40/111 39/44/99 28/88/102 38/91/112
f 42/24/113 33/27/103 68/53/106 67/47/114
f 49/52/115 50/55/116 23/56/117 22/51/118
f 51/80/119 27/79/120 23/60/117 50/58/116
f 52/54/121 37/49/122 27/79/120 51/80/119
f 53/48/123 46/93/124 37/49/122 52/54/121
f 54/9/125 32/92/126 46/93/124 53/48/123
f 55/84/127 14/15/128 32/82/129 54/10/130
f 56/37/131 16/34/132 14/33/133 55/38/134
f 57/41/135 48/39/136 16/34/132 56/37/131
f 58/46/137 40/45/138 48/39/136 57/41/135
f 49/52/139 22/51/140 40/45/138 58/46/137
f 60/59/75 50/55/116 49/52/115 59/57/76
f 61/61/98 51/62/119 50/55/116 60/59/75
f 52/64/121 51/62/119 61/61/98 62/65/110
f 53/68/123 52/64/121 62/65/110 63/69/80
f 64/89/79 54/9/125 53/48/123 63/86/80
f 55/84/127 54/10/130 64/87/84 65/90/83
f 66/42/71 56/37/131 55/38/134 65/43/72
f 67/47/114 57/41/135 56/37/131 66/42/71
f 58/46/137 57/41/135 67/47/114 68/53/106
f 49/52/139 58/46/137 68/53/106 59/57/105
