# This file uses meters as units for non-parametric coordinates.

v 51.802391 237.817337 77.505994
v 39.374367 237.817337 81.410092
v 39.374367 326.487457 81.410092
v 51.802391 323.125946 77.505994
v 39.374367 237.817337 81.127004
v 51.802391 237.817337 77.222905
v 39.374367 326.487457 81.127004
v 51.802391 323.125946 77.222905
v -50.422890 237.817337 77.512036
v -37.994865 237.817337 81.416135
v -37.994865 326.435242 81.416135
v -50.422890 323.125946 77.512036
v -37.994865 237.817337 81.133046
v -50.422890 237.817337 77.228948
v -37.994865 326.435242 81.133046
v -50.422890 323.125946 77.228948
vt 0.492314 0.953422
vt 0.492323 0.959529
vt 0.477282 0.959529
vt 0.477286 0.953422
vt 0.492314 0.953422
vt 0.492323 0.959529
vt 0.477282 0.959529
vt 0.477286 0.953422
vt 0.492314 0.953422
vt 0.492323 0.959529
vt 0.477282 0.959529
vt 0.477286 0.953422
vt 0.492314 0.953422
vt 0.492323 0.959529
vt 0.477282 0.959529
vt 0.477286 0.953422
vt 0.492314 0.953422
vt 0.492314 0.953422
vt 0.492323 0.959529
vt 0.492323 0.959529
vt 0.477282 0.959529
vt 0.477282 0.959529
vt 0.477286 0.953422
vt 0.477286 0.953422
vn 0.299697 0.000000 0.954034
vn 0.299697 0.000000 0.954034
vn 0.299697 0.000000 0.954034
vn 0.299697 0.000000 0.954034
vn 0.000000 -1.000000 0.000000
vn 0.000000 -1.000000 0.000000
vn 0.000000 -1.000000 0.000000
vn 0.000000 -1.000000 0.000000
vn -1.000000 0.000000 0.000000
vn -1.000000 0.000000 0.000000
vn -1.000000 0.000000 0.000000
vn -1.000000 0.000000 0.000000
vn 0.261094 0.965313 0.000000
vn 0.261094 0.965313 0.000000
vn 0.261094 0.965313 0.000000
vn 0.261094 0.965313 0.000000
vn 1.000000 0.000000 0.000000
vn 1.000000 0.000000 0.000000
vn 1.000000 0.000000 0.000000
vn 1.000000 0.000000 0.000000
vn -0.299697 0.000000 0.954034
vn -0.299697 0.000000 0.954034
vn -0.299697 0.000000 0.954034
vn -0.299697 0.000000 0.954034
vn 0.000000 -1.000000 0.000000
vn 0.000000 -1.000000 0.000000
vn 0.000000 -1.000000 0.000000
vn 0.000000 -1.000000 0.000000
vn 1.000000 0.000000 0.000000
vn 1.000000 0.000000 0.000000
vn 1.000000 0.000000 0.000000
vn 1.000000 0.000000 0.000000
vn -0.257312 0.966328 0.000000
vn -0.257312 0.966328 0.000000
vn -0.257312 0.966328 0.000000
vn -0.257312 0.966328 0.000000
vn -1.000000 0.000000 0.000000
vn -1.000000 0.000000 0.000000
vn -1.000000 0.000000 0.000000
vn -1.000000 0.000000 0.000000
f 1/5/1 4/8/2 3/7/3 2/6/4
f 1/1/5 2/2/6 5/10/7 6/9/8
f 2/2/9 3/3/10 7/11/11 5/10/12
f 3/3/13 4/4/14 8/12/15 7/11/16
f 4/4/17 1/1/18 6/9/19 8/12/20
f 9/13/21 10/14/22 11/15/23 12/16/24
f 9/17/25 14/18/26 13/19/27 10/20/28
f 10/20/29 13/19/30 15/21/31 11/22/32
f 11/22/33 15/21/34 16/23/35 12/24/36
f 12/24/37 16/23/38 14/18/39 9/17/40
