# This file uses meters as units for non-parametric coordinates.

v -38.776737 270.721051 80.278854
v 38.776737 270.721051 80.278854
v -38.776737 273.468457 80.278854
v 38.776737 273.468457 80.278854
v -38.776737 273.468457 60.686676
v 38.776737 273.468457 60.686676
v -38.776737 270.721051 60.686676
v 38.776737 270.721051 60.686676
v 38.776737 273.468457 63.843391
v -38.776737 273.468457 63.843391
v 38.776737 278.822156 63.843391
v -38.776737 278.822156 63.843391
v 38.776737 278.822156 60.686676
v -38.776737 278.822156 60.686676
vt 0.507244 0.931482
vt 0.524097 0.931482
vt 0.524097 0.911942
vt 0.507244 0.911942
vt 0.507244 0.914570
vt 0.524097 0.914570
vt 0.524097 0.931482
vt 0.507244 0.931482
vt 0.524097 0.914570
vt 0.507244 0.914570
vt 0.507244 0.911942
vt 0.524097 0.911942
vt 0.524097 0.914570
vt 0.507244 0.914570
vn 0.000000 1.000000 0.000000
vn 0.000000 1.000000 0.000000
vn 0.000000 1.000000 0.000000
vn 0.000000 1.000000 0.000000
vn 0.000000 0.000000 -1.000000
vn 0.000000 0.000000 -1.000000
vn 0.000000 0.000000 -1.000000
vn 0.000000 0.000000 -1.000000
vn 0.000000 -1.000000 0.000000
vn 0.000000 -1.000000 0.000000
vn 0.000000 -1.000000 0.000000
vn 0.000000 -1.000000 0.000000
vn 0.000000 1.000000 0.000000
vn 0.000000 1.000000 0.000000
vn 0.000000 1.000000 0.000000
vn 0.000000 1.000000 0.000000
vn 0.000000 0.000000 1.000000
vn 0.000000 0.000000 1.000000
vn 0.000000 0.000000 1.000000
vn 0.000000 0.000000 1.000000
vn 1.000000 0.000000 0.000000
vn 1.000000 0.000000 0.000000
vn 1.000000 0.000000 0.000000
vn 1.000000 0.000000 0.000000
vn 0.000000 0.000000 -1.000000
vn 0.000000 0.000000 -1.000000
vn 0.000000 0.000000 -1.000000
vn 0.000000 0.000000 -1.000000
vn -1.000000 0.000000 0.000000
vn -1.000000 0.000000 0.000000
vn -1.000000 0.000000 0.000000
vn -1.000000 0.000000 0.000000
f 3/1/1 4/2/2 9/3/3 10/4/4
f 5/5/5 6/6/6 8/7/7 7/8/8
f 7/8/9 8/7/10 2/9/11 1/10/12
f 12/11/13 11/12/14 13/13/15 14/14/16
f 10/4/17 9/3/18 11/12/19 12/11/20
f 9/3/21 6/6/22 13/13/23 11/12/24
f 6/6/25 5/5/26 14/14/27 13/13/28
f 5/5/29 10/4/30 12/11/31 14/14/32
