# This file uses meters as units for non-parametric coordinates.

v -39.382217 4.695273 -23.947773
v -36.391582 4.695273 -23.947773
v -40.646259 49.869820 -25.211819
v -35.127537 49.869820 -25.211819
v -40.646259 49.869820 -19.693092
v -35.127537 49.869820 -19.693092
v -39.382217 4.695273 -20.957138
v -36.391582 4.695273 -20.957138
v 39.382217 4.695273 -23.947777
v 36.391582 4.695273 -23.947777
v 40.646259 49.869820 -25.211823
v 35.127537 49.869820 -25.211823
v 40.646259 49.869820 -19.693096
v 35.127537 49.869820 -19.693096
v 39.382217 4.695273 -20.957138
v 36.391582 4.695273 -20.957138
v -39.348469 4.695273 23.918247
v -36.425327 4.695273 23.918247
v -40.646259 49.869820 25.216045
v -35.127537 49.869820 25.216045
v -40.646259 49.869820 19.697323
v -35.127537 49.869820 19.697323
v -39.348469 4.695273 20.995106
v -36.425327 4.695273 20.995106
v 39.348469 4.695273 23.918255
v 36.425327 4.695273 23.918255
v 40.646259 49.869820 25.216045
v 35.127537 49.869820 25.216045
v 40.646259 49.869820 19.697323
v 35.127537 49.869820 19.697323
v 39.348469 4.695273 20.995106
v 36.425327 4.695273 20.995106
v -39.188519 39.018330 23.726559
v 39.188519 39.018330 23.726559
v -39.188519 49.929043 23.726559
v 39.188519 49.929043 23.726559
v -39.188519 49.929043 -23.726555
v 39.188519 49.929043 -23.726555
v -39.188519 39.018330 -23.726555
v 39.188519 39.018330 -23.726555
v -40.327053 0.000000 24.700434
v -35.751965 0.000000 24.700434
v -41.062626 7.717942 25.436008
v -35.016392 7.717942 25.436008
v -41.062626 7.717942 19.389771
v -35.016392 7.717942 19.389771
v -40.327053 0.000000 20.125345
v -35.751965 0.000000 20.125345
v -40.327053 0.000000 -20.477604
v -35.751965 0.000000 -20.477604
v -41.062626 7.717942 -19.742029
v -35.016392 7.717942 -19.742029
v -41.062626 7.717942 -25.788267
v -35.016392 7.717942 -25.788267
v -40.327053 0.000000 -25.052692
v -35.751965 0.000000 -25.052692
v 40.327049 0.000000 24.700434
v 35.751961 0.000000 24.700434
v 41.062630 7.717941 25.436008
v 35.016388 7.717941 25.436008
v 41.062630 7.717941 19.389771
v 35.016388 7.717941 19.389771
v 40.327049 0.000000 20.125351
v 35.751961 0.000000 20.125351
v 40.327049 0.000000 -20.477606
v 35.751961 0.000000 -20.477606
v 41.062630 7.717941 -19.742031
v 35.016388 7.717941 -19.742031
v 41.062630 7.717941 -25.788269
v 35.016388 7.717941 -25.788269
v 40.327049 0.000000 -25.052689
v 35.751961 0.000000 -25.052689
vt 0.979177 0.520172
vt 0.979177 0.614536
vt 0.892082 0.520172
vt 0.892082 0.614536
vt 0.979177 0.520172
vt 0.979177 0.614536
vt 0.892082 0.520172
vt 0.892082 0.614536
vt 0.979177 0.520172
vt 0.892082 0.520172
vt 0.979177 0.614536
vt 0.892082 0.614536
vt 0.979177 0.520172
vt 0.892082 0.520172
vt 0.892082 0.614536
vt 0.979177 0.614536
vt 0.979177 0.520172
vt 0.979177 0.614536
vt 0.892082 0.520172
vt 0.892082 0.614536
vt 0.892082 0.520172
vt 0.979177 0.520172
vt 0.979177 0.614536
vt 0.892082 0.614536
vt 0.979177 0.520172
vt 0.979177 0.614536
vt 0.892082 0.614536
vt 0.892082 0.520172
vt 0.979177 0.614536
vt 0.979177 0.520172
vt 0.892082 0.614536
vt 0.892082 0.520172
vt 0.979177 0.520172
vt 0.892082 0.520172
vt 0.979177 0.614536
vt 0.892082 0.614536
vt 0.979177 0.520172
vt 0.892082 0.520172
vt 0.892082 0.614536
vt 0.979177 0.614536
vt 0.979177 0.520172
vt 0.979177 0.614536
vt 0.892082 0.520172
vt 0.892082 0.614536
vt 0.892082 0.520172
vt 0.979177 0.520172
vt 0.979177 0.614536
vt 0.892082 0.614536
vt 0.892082 0.520172
vt 0.979177 0.520172
vt 0.979177 0.614536
vt 0.892082 0.614536
vt 0.892082 0.520172
vt 0.979177 0.520172
vt 0.979177 0.614536
vt 0.892082 0.614536
vt 0.979177 0.520172
vt 0.892082 0.520172
vt 0.892082 0.520172
vt 0.892082 0.614536
vt 0.979177 0.520172
vt 0.979177 0.614536
vt 0.988909 0.526290
vt 0.988909 0.618789
vt 0.896411 0.618789
vt 0.896411 0.526290
vt 0.988909 0.618789
vt 0.988909 0.526290
vt 0.896411 0.618789
vt 0.896411 0.526290
vt 0.988909 0.618789
vt 0.988909 0.526290
vt 0.988909 0.526290
vt 0.896411 0.526290
vt 0.988909 0.618789
vt 0.896411 0.618789
vt 0.988909 0.526290
vt 0.988909 0.618789
vt 0.896411 0.618789
vt 0.896411 0.526290
vt 0.988909 0.618789
vt 0.988909 0.526290
vt 0.896411 0.618789
vt 0.896411 0.526290
vt 0.988909 0.618789
vt 0.988909 0.526290
vt 0.988909 0.526290
vt 0.896411 0.526290
vt 0.988909 0.618789
vt 0.896411 0.618789
vt 0.988909 0.526290
vt 0.896411 0.526290
vt 0.896411 0.618789
vt 0.988909 0.618789
vt 0.988909 0.526290
vt 0.988909 0.618789
vt 0.896411 0.526290
vt 0.896411 0.618789
vt 0.988909 0.526290
vt 0.988909 0.618789
vt 0.896411 0.526290
vt 0.988909 0.526290
vt 0.988909 0.618789
vt 0.896411 0.618789
vt 0.988909 0.526290
vt 0.896411 0.526290
vt 0.896411 0.618789
vt 0.988909 0.618789
vt 0.988909 0.526290
vt 0.988909 0.618789
vt 0.896411 0.526290
vt 0.896411 0.618789
vt 0.988909 0.526290
vt 0.988909 0.618789
vt 0.896411 0.526290
vt 0.988909 0.526290
vt 0.988909 0.618789
vt 0.896411 0.618789
vn 0.000000 -0.027970 -0.999609
vn 0.000000 -0.027970 -0.999609
vn 0.000000 -0.027970 -0.999609
vn 0.000000 -0.027970 -0.999609
vn 0.000000 -0.027970 0.999609
vn 0.000000 -0.027970 0.999609
vn 0.000000 -0.027970 0.999609
vn 0.000000 -0.027970 0.999609
vn 0.999609 -0.027970 0.000000
vn 0.999609 -0.027970 0.000000
vn 0.999609 -0.027970 0.000000
vn 0.999609 -0.027970 0.000000
vn -0.999609 -0.027970 0.000000
vn -0.999609 -0.027970 0.000000
vn -0.999609 -0.027970 0.000000
vn -0.999609 -0.027970 0.000000
vn 0.000000 -0.027970 -0.999609
vn 0.000000 -0.027970 -0.999609
vn 0.000000 -0.027970 -0.999609
vn 0.000000 -0.027970 -0.999609
vn 0.000000 -0.027970 0.999609
vn 0.000000 -0.027970 0.999609
vn 0.000000 -0.027970 0.999609
vn 0.000000 -0.027970 0.999609
vn -0.999609 -0.027970 0.000000
vn -0.999609 -0.027970 0.000000
vn -0.999609 -0.027970 0.000000
vn -0.999609 -0.027970 0.000000
vn 0.999609 -0.027970 0.000000
vn 0.999609 -0.027970 0.000000
vn 0.999609 -0.027970 0.000000
vn 0.999609 -0.027970 0.000000
vn 0.000000 -0.028717 0.999588
vn 0.000000 -0.028717 0.999588
vn 0.000000 -0.028717 0.999588
vn 0.000000 -0.028717 0.999588
vn 0.000000 -0.028716 -0.999588
vn 0.000000 -0.028716 -0.999588
vn 0.000000 -0.028716 -0.999588
vn 0.000000 -0.028716 -0.999588
vn 0.999588 -0.028717 0.000000
vn 0.999588 -0.028717 0.000000
vn 0.999588 -0.028717 0.000000
vn 0.999588 -0.028717 0.000000
vn -0.999588 -0.028717 0.000000
vn -0.999588 -0.028717 0.000000
vn -0.999588 -0.028717 0.000000
vn -0.999588 -0.028717 0.000000
vn 0.000000 -0.028717 0.999588
vn 0.000000 -0.028717 0.999588
vn 0.000000 -0.028717 0.999588
vn 0.000000 -0.028717 0.999588
vn 0.000000 -0.028716 -0.999588
vn 0.000000 -0.028716 -0.999588
vn 0.000000 -0.028716 -0.999588
vn 0.000000 -0.028716 -0.999588
vn -0.999588 -0.028716 0.000000
vn -0.999588 -0.028716 0.000000
vn -0.999588 -0.028716 0.000000
vn -0.999588 -0.028716 0.000000
vn 0.999588 -0.028717 0.000000
vn 0.999588 -0.028717 0.000000
vn 0.999588 -0.028717 0.000000
vn 0.999588 -0.028717 0.000000
vn 0.000000 0.000000 1.000000
vn 0.000000 0.000000 1.000000
vn 0.000000 0.000000 1.000000
vn 0.000000 0.000000 1.000000
vn 0.000000 0.000000 -1.000000
vn 0.000000 0.000000 -1.000000
vn 0.000000 0.000000 -1.000000
vn 0.000000 0.000000 -1.000000
vn 0.000000 -1.000000 0.000000
vn 0.000000 -1.000000 0.000000
vn 0.000000 -1.000000 0.000000
vn 0.000000 -1.000000 0.000000
vn 1.000000 0.000000 0.000000
vn 1.000000 0.000000 0.000000
vn 1.000000 0.000000 0.000000
vn 1.000000 0.000000 0.000000
vn -1.000000 0.000000 0.000000
vn -1.000000 0.000000 0.000000
vn -1.000000 0.000000 0.000000
vn -1.000000 0.000000 0.000000
vn 0.000000 -0.094877 0.995489
vn 0.000000 -0.094877 0.995489
vn 0.000000 -0.094877 0.995489
vn 0.000000 -0.094877 0.995489
vn 0.000000 1.000000 0.000000
vn 0.000000 1.000000 0.000000
vn 0.000000 1.000000 0.000000
vn 0.000000 1.000000 0.000000
vn 0.000000 -0.094877 -0.995489
vn 0.000000 -0.094877 -0.995489
vn 0.000000 -0.094877 -0.995489
vn 0.000000 -0.094877 -0.995489
vn 0.000000 -1.000000 0.000000
vn 0.000000 -1.000000 0.000000
vn 0.000000 -1.000000 0.000000
vn 0.000000 -1.000000 0.000000
vn 0.995489 -0.094877 0.000000
vn 0.995489 -0.094877 0.000000
vn 0.995489 -0.094877 0.000000
vn 0.995489 -0.094877 0.000000
vn -0.995489 -0.094877 0.000000
vn -0.995489 -0.094877 0.000000
vn -0.995489 -0.094877 0.000000
vn -0.995489 -0.094877 0.000000
vn 0.000000 -0.094877 0.995489
vn 0.000000 -0.094877 0.995489
vn 0.000000 -0.094877 0.995489
vn 0.000000 -0.094877 0.995489
vn 0.000000 1.000000 0.000000
vn 0.000000 1.000000 0.000000
vn 0.000000 1.000000 0.000000
vn 0.000000 1.000000 0.000000
vn 0.000000 -0.094877 -0.995489
vn 0.000000 -0.094877 -0.995489
vn 0.000000 -0.094877 -0.995489
vn 0.000000 -0.094877 -0.995489
vn 0.000000 -1.000000 0.000000
vn 0.000000 -1.000000 0.000000
vn 0.000000 -1.000000 0.000000
vn 0.000000 -1.000000 0.000000
vn 0.995489 -0.094877 0.000000
vn 0.995489 -0.094877 0.000000
vn 0.995489 -0.094877 0.000000
vn 0.995489 -0.094877 0.000000
vn -0.995489 -0.094877 0.000000
vn -0.995489 -0.094877 0.000000
vn -0.995489 -0.094877 0.000000
vn -0.995489 -0.094877 0.000000
vn 0.000000 -0.094877 0.995489
vn 0.000000 -0.094877 0.995489
vn 0.000000 -0.094877 0.995489
vn 0.000000 -0.094877 0.995489
vn 0.000000 1.000000 0.000000
vn 0.000000 1.000000 0.000000
vn 0.000000 1.000000 0.000000
vn 0.000000 1.000000 0.000000
vn 0.000000 -0.094878 -0.995489
vn 0.000000 -0.094878 -0.995489
vn 0.000000 -0.094878 -0.995489
vn 0.000000 -0.094878 -0.995489
vn 0.000000 -1.000000 0.000000
vn 0.000000 -1.000000 0.000000
vn 0.000000 -1.000000 0.000000
vn 0.000000 -1.000000 0.000000
vn -0.995489 -0.094877 0.000000
vn -0.995489 -0.094877 0.000000
vn -0.995489 -0.094877 0.000000
vn -0.995489 -0.094877 0.000000
vn 0.995489 -0.094878 0.000000
vn 0.995489 -0.094878 0.000000
vn 0.995489 -0.094878 0.000000
vn 0.995489 -0.094878 0.000000
vn 0.000000 -0.094877 0.995489
vn 0.000000 -0.094877 0.995489
vn 0.000000 -0.094877 0.995489
vn 0.000000 -0.094877 0.995489
vn 0.000000 1.000000 0.000000
vn 0.000000 1.000000 0.000000
vn 0.000000 1.000000 0.000000
vn 0.000000 1.000000 0.000000
vn 0.000000 -0.094878 -0.995489
vn 0.000000 -0.094878 -0.995489
vn 0.000000 -0.094878 -0.995489
vn 0.000000 -0.094878 -0.995489
vn 0.000000 -1.000000 0.000000
vn 0.000000 -1.000000 0.000000
vn 0.000000 -1.000000 0.000000
vn 0.000000 -1.000000 0.000000
vn -0.995489 -0.094877 0.000000
vn -0.995489 -0.094877 0.000000
vn -0.995489 -0.094877 0.000000
vn -0.995489 -0.094877 0.000000
vn 0.995489 -0.094878 0.000000
vn 0.995489 -0.094878 0.000000
vn 0.995489 -0.094878 0.000000
vn 0.995489 -0.094878 0.000000
f 1/1/1 3/3/2 4/4/3 2/2/4
f 5/5/5 7/7/6 8/8/7 6/6/8
f 2/2/9 4/4/10 6/10/11 8/9/12
f 7/11/13 5/12/14 3/3/15 1/1/16
f 9/13/17 10/16/18 12/15/19 11/14/20
f 13/17/21 14/18/22 16/20/23 15/19/24
f 10/16/25 16/22/26 14/21/27 12/15/28
f 15/23/29 9/13/30 11/14/31 13/24/32
f 17/25/33 18/26/34 20/27/35 19/28/36
f 21/30/37 22/29/38 24/31/39 23/32/40
f 18/26/41 24/33/42 22/34/43 20/27/44
f 23/35/45 17/25/46 19/28/47 21/36/48
f 25/37/49 27/38/50 28/39/51 26/40/52
f 29/41/53 31/43/54 32/44/55 30/42/56
f 26/40/57 28/39/58 30/45/59 32/46/60
f 31/47/61 29/48/62 27/38/63 25/37/64
f 33/49/65 34/50/66 36/51/67 35/52/68
f 37/53/69 38/54/70 40/55/71 39/56/72
f 39/56/73 40/55/74 34/57/75 33/58/76
f 34/50/77 40/59/78 38/60/79 36/51/80
f 39/61/81 33/49/82 35/52/83 37/62/84
f 41/63/85 42/64/86 44/65/87 43/66/88
f 43/66/89 44/65/90 46/67/91 45/68/92
f 45/68/93 46/67/94 48/69/95 47/70/96
f 47/70/97 48/69/98 42/71/99 41/72/100
f 42/64/101 48/73/102 46/74/103 44/65/104
f 47/75/105 41/63/106 43/66/107 45/76/108
f 49/77/109 50/78/110 52/79/111 51/80/112
f 51/80/113 52/79/114 54/81/115 53/82/116
f 53/82/117 54/81/118 56/83/119 55/84/120
f 55/84/121 56/83/122 50/85/123 49/86/124
f 50/78/125 56/87/126 54/88/127 52/79/128
f 55/89/129 49/77/130 51/80/131 53/90/132
f 57/91/133 59/92/134 60/93/135 58/94/136
f 59/92/137 61/95/138 62/96/139 60/93/140
f 61/95/141 63/97/142 64/98/143 62/96/144
f 63/97/145 57/99/146 58/100/147 64/98/148
f 58/94/149 60/93/150 62/101/151 64/102/152
f 63/103/153 61/104/154 59/92/155 57/91/156
f 65/105/157 67/106/158 68/107/159 66/108/160
f 67/106/161 69/109/162 70/110/163 68/107/164
f 69/109/165 71/111/166 72/112/167 70/110/168
f 71/111/169 65/113/170 66/114/171 72/112/172
f 66/108/173 68/107/174 70/115/175 72/116/176
f 71/117/177 69/118/178 67/106/179 65/105/180
