# This file uses meters as units for non-parametric coordinates.

v -24.780401 149.303818 -30.529175
v 24.780401 149.303818 -30.529175
v -24.780401 168.029022 -31.142105
v 24.780401 168.029022 -31.142105
v -24.780401 168.029022 -38.345615
v 24.780401 168.029022 -38.345615
v -24.780401 149.303818 -37.147591
v 24.780401 149.303818 -37.147591
v -27.232935 52.815254 42.026100
v 27.232935 52.815254 42.026100
v -27.232935 61.617798 42.026100
v 27.232935 61.617798 42.026100
v -27.232935 61.617798 -14.250210
v 27.232935 61.617798 -14.250210
v -27.232935 52.815254 -14.250210
v 27.232935 52.815254 -14.250210
v 35.366493 0.000000 -29.934313
v 27.479042 0.000000 -29.934313
v 35.366493 52.815254 -14.250208
v 27.355988 52.815254 -14.250208
v 35.366493 64.758720 -24.993223
v 27.355988 64.758720 -24.993225
v 35.366493 0.000000 -37.821762
v 27.479042 0.000000 -37.821762
v -35.366493 0.000000 -29.934311
v -27.479042 0.000000 -29.934311
v -35.366493 52.815254 -14.250208
v -27.355988 52.815254 -14.250208
v -35.366493 64.758720 -24.993223
v -27.355988 64.758720 -24.993223
v -35.366493 0.000000 -37.821762
v -27.479042 0.000000 -37.821762
v 27.232935 0.000000 42.026100
v 35.366493 0.000000 42.026100
v 27.232935 61.617798 42.026100
v 35.366493 61.617798 42.026100
v 27.232935 61.617798 33.892544
v 35.366493 61.617798 33.892544
v 27.232935 0.000000 33.892548
v 35.366493 0.000000 33.892548
v 27.232935 52.815254 33.892544
v 35.366493 52.815254 33.892544
v 35.366493 52.815254 42.026100
v 27.232935 52.815254 42.026100
v 22.451378 169.126373 -30.870205
v 30.584936 169.126373 -30.870205
v 22.451378 168.946213 -39.001751
v 30.584936 168.946213 -39.001751
v 27.232935 70.301048 -19.040297
v 35.366493 70.301048 -19.040297
v 27.232935 61.617798 -8.543476
v 35.366493 61.617798 -8.543474
v 27.232935 61.617798 13.729241
v 35.366493 61.617798 13.729241
v 35.366493 52.815254 13.729241
v 27.232935 52.815254 13.729241
v 35.366493 83.028702 -24.524252
v 35.366493 78.826920 -32.254314
v 27.232935 78.826920 -32.254314
v 27.232935 83.028702 -24.524252
v -27.232935 0.000000 42.026100
v -35.366493 0.000000 42.026100
v -27.232935 61.617798 42.026100
v -35.366493 61.617798 42.026100
v -27.232935 61.617798 33.892544
v -35.366493 61.617798 33.892544
v -27.232935 0.000000 33.892548
v -35.366493 0.000000 33.892548
v -27.232935 52.815254 33.892544
v -35.366493 52.815254 33.892544
v -35.366493 52.815254 42.026100
v -27.232935 52.815254 42.026100
v -22.451378 169.126373 -30.870205
v -30.584936 169.126373 -30.870205
v -22.451378 168.946213 -39.001751
v -30.584936 168.946213 -39.001751
v -27.232935 70.301048 -19.040297
v -35.366493 70.301048 -19.040297
v -27.232935 61.617798 -8.543474
v -35.366493 61.617798 -8.543474
v -27.232935 61.617798 13.729241
v -35.366493 61.617798 13.729241
v -35.366493 52.815254 13.729241
v -27.232935 52.815254 13.729241
v -35.366493 83.028702 -24.524252
v -35.366493 78.826920 -32.254314
v -27.232935 78.826920 -32.254314
v -27.232935 83.028702 -24.524252
vt 0.858121 0.762749
vt 0.759410 0.762749
vt 0.858121 0.861461
vt 0.759410 0.861461
vt 0.858121 0.762749
vt 0.759410 0.762749
vt 0.858121 0.861460
vt 0.759410 0.861460
vt 0.858121 0.762749
vt 0.759410 0.762749
vt 0.858121 0.762749
vt 0.759410 0.762749
vt 0.759410 0.861461
vt 0.858121 0.861461
vt 0.759410 0.762749
vt 0.858121 0.762749
vt 0.759410 0.861460
vt 0.858121 0.861460
vt 0.759410 0.762749
vt 0.858121 0.762749
vt 0.869528 0.761089
vt 0.758622 0.761089
vt 0.758622 0.871995
vt 0.869528 0.871995
vt 0.869528 0.761089
vt 0.758622 0.761089
vt 0.758622 0.871995
vt 0.869528 0.871995
vt 0.869528 0.761089
vt 0.869528 0.871995
vt 0.758622 0.761089
vt 0.869528 0.761089
vt 0.869528 0.871995
vt 0.758622 0.871995
vt 0.869528 0.761089
vt 0.869528 0.871995
vt 0.758622 0.871995
vt 0.758622 0.761089
vt 0.869528 0.761089
vt 0.869528 0.871995
vt 0.758622 0.871995
vt 0.758622 0.761089
vt 0.869528 0.871995
vt 0.869528 0.761089
vt 0.869528 0.761089
vt 0.758622 0.761089
vt 0.869528 0.871995
vt 0.758622 0.871995
vt 0.778681 0.765478
vt 0.778681 0.865604
vt 0.764377 0.865604
vt 0.764377 0.765478
vt 0.864503 0.865604
vt 0.864503 0.765478
vt 0.764377 0.765478
vt 0.764377 0.865604
vt 0.864503 0.865604
vt 0.864503 0.765478
vt 0.778681 0.765478
vt 0.764377 0.765478
vt 0.764377 0.865604
vt 0.778681 0.865604
vt 0.850199 0.765478
vt 0.850199 0.865604
vt 0.864503 0.865604
vt 0.864503 0.765478
vt 0.864503 0.765478
vt 0.864503 0.865604
vt 0.839471 0.765478
vt 0.864503 0.765478
vt 0.864503 0.865604
vt 0.839471 0.865604
vt 0.865128 0.765478
vt 0.865128 0.865604
vt 0.763734 0.865604
vt 0.763734 0.765478
vt 0.789409 0.865604
vt 0.764377 0.865604
vt 0.764377 0.765478
vt 0.789409 0.765478
vt 0.864503 0.765478
vt 0.839471 0.765478
vt 0.864503 0.865604
vt 0.839471 0.865604
vt 0.783151 0.765478
vt 0.789409 0.765478
vt 0.789409 0.865604
vt 0.783151 0.865604
vt 0.789409 0.765478
vt 0.783151 0.765478
vt 0.845729 0.865604
vt 0.839471 0.865604
vt 0.839471 0.765478
vt 0.845729 0.765478
vt 0.783151 0.865604
vt 0.789409 0.865604
vt 0.814440 0.765478
vt 0.814440 0.865604
vt 0.814440 0.765478
vt 0.814440 0.865604
vt 0.814440 0.865604
vt 0.814440 0.765478
vt 0.865128 0.765478
vt 0.865128 0.865604
vt 0.778681 0.765478
vt 0.764377 0.765478
vt 0.764377 0.865604
vt 0.778681 0.865604
vt 0.864503 0.765478
vt 0.864503 0.865604
vt 0.764377 0.765478
vt 0.864503 0.765478
vt 0.864503 0.865604
vt 0.764377 0.865604
vt 0.764377 0.765478
vt 0.778681 0.765478
vt 0.778681 0.865604
vt 0.764377 0.865604
vt 0.850199 0.865604
vt 0.850199 0.765478
vt 0.864503 0.765478
vt 0.864503 0.865604
vt 0.864503 0.765478
vt 0.864503 0.865604
vt 0.839471 0.765478
vt 0.839471 0.865604
vt 0.864503 0.865604
vt 0.864503 0.765478
vt 0.865128 0.765478
vt 0.763734 0.765478
vt 0.763734 0.865604
vt 0.865128 0.865604
vt 0.789409 0.865604
vt 0.789409 0.765478
vt 0.764377 0.765478
vt 0.764377 0.865604
vt 0.839471 0.765478
vt 0.864503 0.765478
vt 0.864503 0.865604
vt 0.839471 0.865604
vt 0.783151 0.765478
vt 0.783151 0.865604
vt 0.789409 0.865604
vt 0.789409 0.765478
vt 0.783151 0.765478
vt 0.789409 0.765478
vt 0.845729 0.865604
vt 0.845729 0.765478
vt 0.839471 0.765478
vt 0.839471 0.865604
vt 0.789409 0.865604
vt 0.783151 0.865604
vt 0.814440 0.865604
vt 0.814440 0.765478
vt 0.814440 0.765478
vt 0.814440 0.865604
vt 0.814440 0.865604
vt 0.814440 0.765478
vt 0.865128 0.765478
vt 0.865128 0.865604
vn 0.000000 0.032715 0.999465
vn 0.000000 0.032715 0.999465
vn 0.000000 0.032715 0.999465
vn 0.000000 0.032715 0.999465
vn 0.000000 1.000000 0.000000
vn 0.000000 1.000000 0.000000
vn 0.000000 1.000000 0.000000
vn 0.000000 1.000000 0.000000
vn 0.000000 -0.063849 -0.997960
vn 0.000000 -0.063849 -0.997960
vn 0.000000 -0.063849 -0.997960
vn 0.000000 -0.063849 -0.997960
vn 0.000000 -1.000000 0.000000
vn 0.000000 -1.000000 0.000000
vn 0.000000 -1.000000 0.000000
vn 0.000000 -1.000000 0.000000
vn 0.000000 0.000000 1.000000
vn 0.000000 0.000000 1.000000
vn 0.000000 0.000000 1.000000
vn 0.000000 0.000000 1.000000
vn 0.000000 1.000000 0.000000
vn 0.000000 1.000000 0.000000
vn 0.000000 1.000000 0.000000
vn 0.000000 1.000000 0.000000
vn 0.000000 0.000000 -1.000000
vn 0.000000 0.000000 -1.000000
vn 0.000000 0.000000 -1.000000
vn 0.000000 0.000000 -1.000000
vn 0.000000 -1.000000 0.000000
vn 0.000000 -1.000000 0.000000
vn 0.000000 -1.000000 0.000000
vn 0.000000 -1.000000 0.000000
vn 0.000000 -0.284675 0.958624
vn 0.000000 -0.284675 0.958624
vn 0.000000 -0.284675 0.958624
vn 0.000000 -0.284675 0.958624
vn 0.000000 0.194321 -0.980938
vn 0.000000 0.194321 -0.980938
vn 0.000000 0.194321 -0.980938
vn 0.000000 0.194321 -0.980938
vn 0.000000 -1.000000 0.000000
vn 0.000000 -1.000000 0.000000
vn 0.000000 -1.000000 0.000000
vn 0.000000 -1.000000 0.000000
vn -0.999998 -0.001812 -0.001161
vn -0.999998 -0.001812 -0.001161
vn -0.999998 -0.001812 -0.001161
vn -0.999998 -0.001812 -0.001161
vn 1.000000 0.000000 0.000000
vn 1.000000 0.000000 0.000000
vn 1.000000 0.000000 0.000000
vn 1.000000 0.000000 0.000000
vn 0.000000 -0.284675 0.958624
vn 0.000000 -0.284675 0.958624
vn 0.000000 -0.284675 0.958624
vn 0.000000 -0.284675 0.958624
vn 0.000000 0.194321 -0.980938
vn 0.000000 0.194321 -0.980938
vn 0.000000 0.194321 -0.980938
vn 0.000000 0.194321 -0.980938
vn 0.000000 -1.000000 0.000000
vn 0.000000 -1.000000 0.000000
vn 0.000000 -1.000000 0.000000
vn 0.000000 -1.000000 0.000000
vn 0.999998 -0.001812 -0.001161
vn 0.999998 -0.001812 -0.001161
vn 0.999998 -0.001812 -0.001161
vn 0.999998 -0.001812 -0.001161
vn -1.000000 -0.000000 0.000000
vn -1.000000 -0.000000 0.000000
vn -1.000000 -0.000000 0.000000
vn -1.000000 -0.000000 0.000000
vn 0.000000 0.000000 1.000000
vn 0.000000 0.000000 1.000000
vn 0.000000 0.000000 1.000000
vn 0.000000 0.000000 1.000000
vn 0.000000 1.000000 0.000000
vn 0.000000 1.000000 0.000000
vn 0.000000 1.000000 0.000000
vn 0.000000 1.000000 0.000000
vn 0.000000 -1.000000 0.000000
vn 0.000000 -1.000000 0.000000
vn 0.000000 -1.000000 0.000000
vn 0.000000 -1.000000 0.000000
vn 1.000000 0.000000 0.000000
vn 1.000000 0.000000 0.000000
vn 1.000000 0.000000 0.000000
vn 1.000000 0.000000 0.000000
vn -1.000000 0.000000 0.000000
vn -1.000000 0.000000 0.000000
vn -1.000000 0.000000 0.000000
vn -1.000000 0.000000 0.000000
vn 0.000000 -0.000000 -1.000000
vn 0.000000 -0.000000 -1.000000
vn 0.000000 -0.356663 -0.934233
vn 0.000000 -0.356663 -0.934233
vn 1.000000 0.000000 0.000000
vn 1.000000 0.000000 0.000000
vn 0.000000 0.000000 1.000000
vn 0.000000 0.000000 1.000000
vn -1.000000 0.000000 0.000000
vn -1.000000 0.000000 0.000000
vn 0.000000 1.000000 0.000000
vn 0.000000 1.000000 0.000000
vn 0.000000 1.000000 0.000000
vn 0.000000 1.000000 0.000000
vn 0.000000 0.999755 -0.022150
vn 0.000000 0.999755 -0.022150
vn 0.000000 0.999755 -0.022150
vn 0.000000 0.999755 -0.022150
vn 0.000000 -1.000000 0.000000
vn 0.000000 -1.000000 0.000000
vn 1.000000 -0.000000 0.000000
vn 1.000000 0.000000 0.000000
vn 1.000000 0.000000 0.000000
vn 1.000000 -0.000000 0.000000
vn -1.000000 0.000000 0.000000
vn -1.000000 0.000000 0.000000
vn -0.999993 -0.003438 -0.001359
vn -0.999993 -0.003438 -0.001359
vn 0.000000 0.117516 0.993071
vn -0.000000 0.598144 0.801388
vn -0.000000 0.598144 0.801388
vn 0.000000 0.120282 0.992740
vn 0.998805 0.047101 -0.013012
vn 1.000000 0.000000 0.000000
vn 1.000000 0.000000 0.000000
vn 0.999010 0.042891 -0.011849
vn 0.000000 -0.134605 -0.990899
vn 0.000000 -0.458647 -0.888618
vn 0.000000 -0.458647 -0.888619
vn 0.000000 -0.131002 -0.991382
vn -0.999944 -0.008097 -0.006776
vn -0.998776 -0.047848 0.012528
vn -0.998964 -0.044164 0.011026
vn -0.999940 -0.008332 -0.007176
vn -0.000000 0.966640 0.256140
vn -0.000000 0.966640 0.256140
vn 1.000000 -0.000000 0.000000
vn 1.000000 -0.000000 0.000000
vn -0.999962 -0.007303 -0.004688
vn -0.999955 -0.007713 -0.005518
vn 0.000000 -1.000000 0.000000
vn 0.000000 -1.000000 0.000000
vn 0.998482 0.053097 -0.014669
vn 0.998482 0.053097 -0.014669
vn 0.000000 -0.074663 -0.997209
vn 0.000000 -0.074663 -0.997209
vn -0.998482 -0.053097 0.014669
vn -0.998482 -0.053097 0.014669
vn 0.000000 0.073507 0.997295
vn 0.000000 0.073507 0.997295
vn 0.000000 0.000000 1.000000
vn 0.000000 0.000000 1.000000
vn 0.000000 0.000000 1.000000
vn 0.000000 0.000000 1.000000
vn 0.000000 1.000000 0.000000
vn 0.000000 1.000000 0.000000
vn 0.000000 1.000000 0.000000
vn 0.000000 1.000000 0.000000
vn 0.000000 -1.000000 0.000000
vn 0.000000 -1.000000 0.000000
vn 0.000000 -1.000000 0.000000
vn 0.000000 -1.000000 0.000000
vn -1.000000 0.000000 0.000000
vn -1.000000 0.000000 0.000000
vn -1.000000 0.000000 0.000000
vn -1.000000 0.000000 0.000000
vn 1.000000 0.000000 0.000000
vn 1.000000 0.000000 0.000000
vn 1.000000 0.000000 0.000000
vn 1.000000 0.000000 0.000000
vn 0.000000 -0.000000 -1.000000
vn 0.000000 -0.356663 -0.934233
vn 0.000000 -0.356663 -0.934233
vn 0.000000 -0.000000 -1.000000
vn -1.000000 0.000000 0.000000
vn -1.000000 0.000000 0.000000
vn 0.000000 0.000000 1.000000
vn 0.000000 0.000000 1.000000
vn 1.000000 0.000000 0.000000
vn 1.000000 0.000000 0.000000
vn 0.000000 1.000000 0.000000
vn 0.000000 1.000000 0.000000
vn 0.000000 1.000000 0.000000
vn 0.000000 1.000000 0.000000
vn 0.000000 0.999755 -0.022150
vn 0.000000 0.999755 -0.022150
vn 0.000000 0.999755 -0.022150
vn 0.000000 0.999755 -0.022150
vn 0.000000 -1.000000 0.000000
vn 0.000000 -1.000000 0.000000
vn -1.000000 0.000000 0.000000
vn -1.000000 0.000000 0.000000
vn -1.000000 0.000000 0.000000
vn -1.000000 0.000000 0.000000
vn 1.000000 0.000000 0.000000
vn 0.999993 -0.003437 -0.001359
vn 0.999993 -0.003437 -0.001359
vn 1.000000 0.000000 0.000000
vn 0.000000 0.117516 0.993071
vn 0.000000 0.120282 0.992740
vn 0.000000 0.598144 0.801388
vn 0.000000 0.598144 0.801388
vn -0.998805 0.047101 -0.013012
vn -0.999010 0.042891 -0.011849
vn -1.000000 0.000000 0.000000
vn -1.000000 0.000000 0.000000
vn 0.000000 -0.134605 -0.990899
vn 0.000000 -0.131002 -0.991382
vn 0.000000 -0.458647 -0.888618
vn 0.000000 -0.458647 -0.888618
vn 0.999944 -0.008097 -0.006776
vn 0.999940 -0.008332 -0.007176
vn 0.998963 -0.044164 0.011026
vn 0.998776 -0.047848 0.012528
vn 0.000000 0.966640 0.256140
vn 0.000000 0.966640 0.256140
vn -1.000000 0.000000 0.000000
vn -1.000000 0.000000 0.000000
vn 0.999962 -0.007302 -0.004688
vn 0.999955 -0.007713 -0.005518
vn 0.000000 -1.000000 0.000000
vn 0.000000 -1.000000 0.000000
vn -0.998482 0.053097 -0.014669
vn -0.998482 0.053097 -0.014669
vn 0.000000 -0.074663 -0.997209
vn 0.000000 -0.074663 -0.997209
vn 0.998482 -0.053097 0.014669
vn 0.998482 -0.053097 0.014669
vn 0.000000 0.073507 0.997295
vn 0.000000 0.073507 0.997295
f 1/1/1 2/2/2 4/4/3 3/3/4
f 3/3/5 4/4/6 6/6/7 5/5/8
f 5/5/9 6/6/10 8/8/11 7/7/12
f 7/7/13 8/8/14 2/10/15 1/9/16
f 9/11/17 10/12/18 12/13/19 11/14/20
f 11/14/21 12/13/22 14/15/23 13/16/24
f 13/16/25 14/15/26 16/17/27 15/18/28
f 15/18/29 16/17/30 10/19/31 9/20/32
f 17/21/33 19/22/34 20/23/35 18/24/36
f 21/25/37 23/26/38 24/27/39 22/28/40
f 23/26/41 17/29/42 18/30/43 24/27/44
f 18/24/45 20/23/46 22/31/47 24/32/48
f 23/33/49 21/34/50 19/22/51 17/21/52
f 25/35/53 26/36/54 28/37/55 27/38/56
f 29/39/57 30/40/58 32/41/59 31/42/60
f 31/42/61 32/41/62 26/43/63 25/44/64
f 26/36/65 32/45/66 30/46/67 28/37/68
f 31/47/69 25/35/70 27/38/71 29/48/72
f 44/49/73 43/50/74 36/51/75 35/52/76
f 35/52/77 36/51/78 38/53/79 37/54/80
f 39/55/81 40/56/82 34/57/83 33/58/84
f 43/50/85 42/59/86 38/60/87 36/51/88
f 44/49/89 35/52/90 37/61/91 41/62/92
f 40/56/93 39/55/94 41/63/95 42/64/96
f 43/50/85 34/65/97 40/66/98 42/59/86
f 44/49/73 33/67/99 34/65/100 43/50/74
f 39/68/101 33/67/102 44/49/89 41/62/92
f 53/69/103 37/70/104 38/71/105 54/72/106
f 45/73/107 46/74/108 48/75/109 47/76/110
f 55/77/111 42/78/96 41/79/95 56/80/112
f 54/72/113 38/71/114 42/81/115 55/82/116
f 41/83/117 37/70/118 53/69/119 56/84/120
f 60/85/121 49/86/122 50/87/123 57/88/124
f 57/88/125 50/87/126 21/89/127 58/90/128
f 58/91/129 21/92/130 22/93/131 59/94/132
f 49/86/133 60/85/134 59/95/135 22/96/136
f 49/86/122 51/97/137 52/98/138 50/87/123
f 50/87/126 52/98/139 19/99/140 21/89/127
f 51/97/141 49/86/133 22/96/136 20/100/142
f 51/97/137 53/69/103 54/72/106 52/98/138
f 52/98/139 54/72/113 55/82/116 19/99/140
f 19/101/143 55/77/111 56/80/112 20/102/144
f 53/69/119 51/97/141 20/100/142 56/84/120
f 58/90/128 48/103/145 46/74/146 57/88/125
f 59/94/132 47/76/147 48/75/148 58/91/129
f 45/73/149 47/104/150 59/95/135 60/85/134
f 46/74/151 45/73/152 60/85/121 57/88/124
f 72/105/153 63/106/154 64/107/155 71/108/156
f 63/106/157 65/109/158 66/110/159 64/107/160
f 67/111/161 61/112/162 62/113/163 68/114/164
f 71/108/165 64/107/166 66/115/167 70/116/168
f 72/105/169 69/117/170 65/118/171 63/106/172
f 68/114/173 70/119/174 69/120/175 67/111/176
f 71/108/165 70/116/168 68/121/177 62/122/178
f 72/105/153 71/108/156 62/122/179 61/123/180
f 67/124/181 69/117/170 72/105/169 61/123/182
f 81/125/183 82/126/184 66/127/185 65/128/186
f 73/129/187 75/130/188 76/131/189 74/132/190
f 83/133/191 84/134/192 69/135/175 70/136/174
f 82/126/193 83/137/194 70/138/195 66/127/196
f 69/139/197 84/140/198 81/125/199 65/128/200
f 88/141/201 85/142/202 78/143/203 77/144/204
f 85/142/205 86/145/206 29/146/207 78/143/208
f 86/147/209 87/148/210 30/149/211 29/150/212
f 77/144/213 30/151/214 87/152/215 88/141/216
f 77/144/204 78/143/203 80/153/217 79/154/218
f 78/143/208 29/146/207 27/155/219 80/153/220
f 79/154/221 28/156/222 30/151/214 77/144/213
f 79/154/218 80/153/217 82/126/184 81/125/183
f 80/153/220 27/155/219 83/137/194 82/126/193
f 27/157/223 28/158/224 84/134/192 83/133/191
f 81/125/199 84/140/198 28/156/222 79/154/221
f 86/145/206 85/142/205 74/132/225 76/159/226
f 87/148/210 86/147/209 76/131/227 75/130/228
f 73/129/229 88/141/216 87/152/215 75/160/230
f 74/132/231 85/142/202 88/141/201 73/129/232
