# This file uses meters as units for non-parametric coordinates.

v -89.176556 101.567226 202.734698
v 89.176556 101.567226 202.734698
v -89.176556 116.729044 202.734698
v 89.176556 116.729044 202.734698
v -89.176556 116.729044 -202.734698
v 89.176556 116.729044 -202.734698
v -89.176556 101.567226 -202.734698
v 89.176556 101.567226 -202.734698
v -89.176556 116.729044 -67.578222
v -89.176556 101.567226 -67.578222
v 89.176556 101.567226 -67.578222
v 89.176556 116.729044 -67.578222
v -89.176556 116.729044 67.578238
v -89.176556 101.567226 67.578238
v 89.176556 101.567226 67.578238
v 89.176556 116.729044 67.578238
vt 0.480624 0.866813
vt 0.491406 0.866813
vt 0.478296 0.866813
vt 0.493734 0.866813
vt 0.478296 0.859336
vt 0.493734 0.859336
vt 0.478296 0.866748
vt 0.493734 0.866748
vt 0.478296 0.859271
vt 0.493734 0.859271
vt 0.491406 0.859336
vt 0.478296 0.855393
vt 0.480624 0.859336
vt 0.493734 0.855393
vt 0.478296 0.870670
vt 0.480624 0.870670
vt 0.480624 0.870670
vt 0.478296 0.855375
vt 0.491406 0.870670
vt 0.491406 0.870670
vt 0.493734 0.870670
vt 0.480624 0.855233
vt 0.478296 0.855233
vt 0.491406 0.855233
vt 0.480624 0.855233
vt 0.478296 0.870831
vt 0.493734 0.870831
vt 0.491406 0.855233
vt 0.493734 0.855233
vt 0.493734 0.855375
vt 0.478296 0.870833
vt 0.493734 0.870833
vn 0.000000 0.000000 1.000000
vn 0.000000 0.000000 1.000000
vn 0.000000 0.000000 1.000000
vn 0.000000 0.000000 1.000000
vn 0.000000 1.000000 0.000000
vn 0.000000 1.000000 0.000000
vn 0.000000 1.000000 0.000000
vn 0.000000 1.000000 0.000000
vn 0.000000 0.000000 -1.000000
vn 0.000000 0.000000 -1.000000
vn 0.000000 0.000000 -1.000000
vn 0.000000 0.000000 -1.000000
vn 0.000000 -1.000000 0.000000
vn 0.000000 -1.000000 0.000000
vn 0.000000 -1.000000 0.000000
vn 0.000000 -1.000000 0.000000
vn 1.000000 0.000000 0.000000
vn 1.000000 0.000000 0.000000
vn 1.000000 0.000000 0.000000
vn 1.000000 0.000000 0.000000
vn -1.000000 0.000000 0.000000
vn -1.000000 0.000000 0.000000
vn -1.000000 0.000000 0.000000
vn -1.000000 0.000000 0.000000
vn -1.000000 0.000000 0.000000
vn -1.000000 0.000000 0.000000
vn -1.000000 0.000000 0.000000
vn -1.000000 0.000000 0.000000
vn 0.000000 -1.000000 0.000000
vn 0.000000 -1.000000 0.000000
vn 0.000000 -1.000000 0.000000
vn 0.000000 -1.000000 0.000000
vn 1.000000 0.000000 0.000000
vn 1.000000 0.000000 0.000000
vn 1.000000 0.000000 0.000000
vn 1.000000 0.000000 0.000000
vn 0.000000 1.000000 0.000000
vn 0.000000 1.000000 0.000000
vn 0.000000 1.000000 0.000000
vn 0.000000 1.000000 0.000000
f 1/31/1 2/32/2 4/4/3 3/3/4
f 3/3/5 4/4/6 16/29/7 13/23/8
f 5/5/9 6/6/10 8/30/11 7/18/12
f 14/26/13 15/27/14 2/10/15 1/9/16
f 2/2/17 15/24/18 16/29/19 4/4/20
f 14/22/21 1/1/22 3/3/23 13/23/24
f 7/13/25 10/16/26 9/15/27 5/5/28
f 7/7/29 8/8/30 11/14/31 10/12/32
f 12/21/33 11/19/34 8/11/35 6/6/36
f 9/15/37 12/21/38 6/6/39 5/5/40
f 10/17/26 14/25/21 13/23/24 9/15/27
f 10/12/32 11/14/31 15/27/14 14/26/13
f 16/29/19 15/28/18 11/20/34 12/21/33
f 13/23/8 16/29/7 12/21/38 9/15/37
