# This file uses meters as units for non-parametric coordinates.

v -15.124054 20.292343 -10.886516
v -11.723804 20.292343 -10.886516
v -15.124054 20.925953 -10.502266
v -11.723804 20.925953 -10.502266
v -15.124054 24.131121 -15.787446
v -11.723804 24.131121 -15.787446
v -15.124054 23.497513 -16.171698
v -11.723804 23.497513 -16.171698
v 15.124054 20.292336 -10.886520
v 11.723804 20.292336 -10.886520
v 15.124054 20.925953 -10.502266
v 11.723804 20.925953 -10.502266
v 15.124054 24.131121 -15.787449
v 11.723804 24.131121 -15.787449
v 15.124054 23.497505 -16.171700
v 11.723804 23.497505 -16.171700
v -15.367924 0.000000 31.014746
v 15.367924 0.000000 31.014746
v -15.367924 1.061752 31.014746
v 15.367924 1.061752 31.014746
v -15.367924 1.061752 -4.229294
v 15.367924 1.061752 -4.229294
v -15.367924 0.000000 -4.229294
v 15.367924 0.000000 -4.229294
v -2.010468 2.940056 30.020636
v 2.010468 2.940056 30.020636
v -2.010468 2.940056 28.958883
v 2.010468 2.940056 28.958883
v -2.010468 0.609425 28.958883
v 2.010468 0.609425 28.958883
v -2.010468 0.609425 30.020636
v 2.010468 0.609425 30.020636
v -8.928307 24.192457 20.503731
v 8.928307 24.192457 20.503731
v -8.928307 24.637285 20.431372
v 8.928307 24.637285 20.431372
v -8.928307 22.760979 8.896797
v 8.928307 22.760979 8.896797
v -8.928307 22.316154 8.969156
v 8.928307 22.316154 8.969156
vt 0.289678 0.979763
vt 0.301305 0.979663
vt 0.303391 0.977411
vt 0.287412 0.977548
vt 0.303824 0.994669
vt 0.287845 0.994806
vt 0.289994 0.992321
vt 0.301621 0.992221
vt 0.300669 0.981622
vt 0.303107 0.978969
vt 0.288206 0.979097
vt 0.290841 0.981706
vt 0.303511 0.995063
vt 0.288611 0.995190
vt 0.300935 0.992236
vt 0.291108 0.992320
vt 0.284983 0.976555
vt 0.307409 0.976416
vt 0.309146 0.975650
vt 0.283185 0.975806
vt 0.309562 0.994990
vt 0.283601 0.995145
vt 0.285341 0.993581
vt 0.307767 0.993441
vt 0.292386 0.987007
vt 0.302396 0.986706
vt 0.302442 0.991255
vt 0.292432 0.991556
vt 0.302442 0.984401
vt 0.292432 0.984702
vt 0.292386 0.980153
vt 0.302396 0.979852
vt 0.288622 0.980469
vt 0.304832 0.980185
vt 0.304833 0.980529
vt 0.288623 0.980813
vt 0.305016 0.989855
vt 0.288806 0.990139
vt 0.288805 0.989795
vt 0.305015 0.989511
vn 0.000000 -0.518543 0.855052
vn 0.000000 -0.518543 0.855052
vn 0.000000 -0.518543 0.855052
vn 0.000000 -0.518543 0.855052
vn 0.000000 0.855052 0.518542
vn 0.000000 0.855052 0.518542
vn 0.000000 0.855052 0.518542
vn 0.000000 0.855052 0.518542
vn 0.000000 -0.855052 -0.518542
vn 0.000000 -0.855052 -0.518542
vn 0.000000 -0.855052 -0.518542
vn 0.000000 -0.855052 -0.518542
vn 1.000000 -0.000000 0.000000
vn 1.000000 -0.000000 0.000000
vn 1.000000 -0.000000 0.000000
vn 1.000000 -0.000000 0.000000
vn -1.000000 0.000001 0.000000
vn -1.000000 0.000001 0.000000
vn -1.000000 0.000001 0.000000
vn -1.000000 0.000001 0.000000
vn 0.000000 0.518545 -0.855050
vn 0.000000 0.518545 -0.855050
vn 0.000000 0.518545 -0.855050
vn 0.000000 0.518545 -0.855050
vn 0.000000 -0.518542 0.855052
vn 0.000000 -0.518542 0.855052
vn 0.000000 -0.518542 0.855052
vn 0.000000 -0.518542 0.855052
vn 0.000000 0.855052 0.518542
vn 0.000000 0.855052 0.518542
vn 0.000000 0.855052 0.518542
vn 0.000000 0.855052 0.518542
vn 0.000000 -0.855052 -0.518542
vn 0.000000 -0.855052 -0.518542
vn 0.000000 -0.855052 -0.518542
vn 0.000000 -0.855052 -0.518542
vn -1.000000 0.000000 0.000000
vn -1.000000 0.000000 0.000000
vn -1.000000 0.000000 0.000000
vn -1.000000 0.000000 0.000000
vn 1.000000 0.000000 0.000000
vn 1.000000 0.000000 0.000000
vn 1.000000 0.000000 0.000000
vn 1.000000 0.000000 0.000000
vn 0.000000 0.518539 -0.855054
vn 0.000000 0.518539 -0.855054
vn 0.000000 0.518539 -0.855054
vn 0.000000 0.518539 -0.855054
vn 0.000000 0.000000 1.000000
vn 0.000000 0.000000 1.000000
vn 0.000000 0.000000 1.000000
vn 0.000000 0.000000 1.000000
vn 0.000000 1.000000 0.000000
vn 0.000000 1.000000 0.000000
vn 0.000000 1.000000 0.000000
vn 0.000000 1.000000 0.000000
vn 0.000000 -1.000000 -0.000000
vn 0.000000 -1.000000 -0.000000
vn 0.000000 -1.000000 -0.000000
vn 0.000000 -1.000000 -0.000000
vn 1.000000 0.000000 0.000000
vn 1.000000 0.000000 0.000000
vn 1.000000 0.000000 0.000000
vn 1.000000 0.000000 0.000000
vn -1.000000 0.000000 0.000000
vn -1.000000 0.000000 0.000000
vn -1.000000 0.000000 0.000000
vn -1.000000 0.000000 0.000000
vn 0.000000 1.000000 0.000000
vn 0.000000 1.000000 0.000000
vn 0.000000 1.000000 0.000000
vn 0.000000 1.000000 0.000000
vn 0.000000 0.000000 -1.000000
vn 0.000000 0.000000 -1.000000
vn 0.000000 0.000000 -1.000000
vn 0.000000 0.000000 -1.000000
vn 0.000000 0.000000 1.000000
vn 0.000000 0.000000 1.000000
vn 0.000000 0.000000 1.000000
vn 0.000000 0.000000 1.000000
vn 1.000000 0.000000 0.000000
vn 1.000000 0.000000 0.000000
vn 1.000000 0.000000 0.000000
vn 1.000000 0.000000 0.000000
vn -1.000000 0.000000 0.000000
vn -1.000000 0.000000 0.000000
vn -1.000000 0.000000 0.000000
vn -1.000000 0.000000 0.000000
vn 0.000000 0.160557 0.987027
vn 0.000000 0.160557 0.987027
vn 0.000000 0.160557 0.987027
vn 0.000000 0.160557 0.987027
vn 0.000000 0.987026 -0.160558
vn 0.000000 0.987026 -0.160558
vn 0.000000 0.987026 -0.160558
vn 0.000000 0.987026 -0.160558
vn 0.000000 -0.987027 0.160557
vn 0.000000 -0.987027 0.160557
vn 0.000000 -0.987027 0.160557
vn 0.000000 -0.987027 0.160557
vn 1.000000 -0.000000 0.000000
vn 1.000000 -0.000000 0.000000
vn 1.000000 -0.000000 0.000000
vn 1.000000 -0.000000 0.000000
vn -1.000000 0.000000 0.000000
vn -1.000000 0.000000 0.000000
vn -1.000000 0.000000 0.000000
vn -1.000000 0.000000 0.000000
vn 0.000000 -0.160559 -0.987026
vn 0.000000 -0.160559 -0.987026
vn 0.000000 -0.160559 -0.987026
vn 0.000000 -0.160559 -0.987026
f 1/1/1 2/2/2 4/3/3 3/4/4
f 3/4/5 4/3/6 6/5/7 5/6/8
f 7/7/9 8/8/10 2/2/11 1/1/12
f 2/2/13 8/8/14 6/5/15 4/3/16
f 7/7/17 1/1/18 3/4/19 5/6/20
f 6/5/21 8/8/22 7/7/23 5/6/24
f 9/9/25 11/10/26 12/11/27 10/12/28
f 11/10/29 13/13/30 14/14/31 12/11/32
f 15/15/33 9/9/34 10/12/35 16/16/36
f 10/12/37 12/11/38 14/14/39 16/16/40
f 15/15/41 13/13/42 11/10/43 9/9/44
f 14/14/45 13/13/46 15/15/47 16/16/48
f 17/17/49 18/18/50 20/19/51 19/20/52
f 19/20/53 20/19/54 22/21/55 21/22/56
f 23/23/57 24/24/58 18/18/59 17/17/60
f 18/18/61 24/24/62 22/21/63 20/19/64
f 23/23/65 17/17/66 19/20/67 21/22/68
f 25/25/69 26/26/70 28/27/71 27/28/72
f 27/28/73 28/27/74 30/29/75 29/30/76
f 31/31/77 32/32/78 26/26/79 25/25/80
f 26/26/81 32/32/82 30/29/83 28/27/84
f 31/31/85 25/25/86 27/28/87 29/30/88
f 33/33/89 34/34/90 36/35/91 35/36/92
f 35/36/93 36/35/94 38/37/95 37/38/96
f 39/39/97 40/40/98 34/34/99 33/33/100
f 34/34/101 40/40/102 38/37/103 36/35/104
f 39/39/105 33/33/106 35/36/107 37/38/108
f 38/37/109 40/40/110 39/39/111 37/38/112
